<?xml version="1.0" encoding="UTF-8" standalone="no"?>
<!-- Created with Inkscape (http://www.inkscape.org/) -->

<svg
   xmlns:svg="http://www.w3.org/2000/svg"
   xmlns="http://www.w3.org/2000/svg"
   version="1.1"
   width="80.197403mm"
   height="65.532799mm"
   viewBox="0 0 22.852 18.6733"
   id="svg2"
   xml:space="preserve"
   style="fill-rule:evenodd">
 <defs
   id="defs4">
  <style
   type="text/css"
   id="style6" />
 </defs>
 <g
   id="Layer_x0020_1">
  
  <path
   d="m 2.59885,18.3455 0.160111,-0.188977 0.152988,0.01462 0.058329,0.305548 0.283693,0.196642 0.516978,-0.597105 0.385704,0.291301 0.284092,-0.05822 0.174758,-0.291301 0.655007,-0.210775 0.094745,-0.473553 0.47341,0 0.210889,0.225535 0.596906,-0.07275 0.094688,-0.291158 -0.458536,-0.422205 0.283864,-0.378238 0.305691,0 0.152788,-0.422519 -0.130847,-0.174786 0.116401,-0.247505 0.793633,-0.327603 0.669396,0.305805 0.444374,0 0.327575,-0.109277 0.517149,0.152959 c 0,0 0.494553,0.247419 0.6839,0.225621 0.196727,-0.01448 0.48042,-0.189119 0.48042,-0.189119 l 0.400606,-0.0365 0.45845,0.0365 0.211544,0.210917 0.291073,-0.0218 0.305605,-0.131389 -0.02191,-0.232516 0.633465,-0.269417 0.02211,-0.247476 0.283778,-0.116657 -0.09472,-0.858914 0.26936,-0.131104 0.167777,0.131104 0.32729,-0.131104 0.23283,0.16752 0.320422,0.05816 c 0,0 0.291272,-0.495095 0.254856,-0.269217 -0.04348,0.232801 0.400122,-0.167663 0.400122,-0.167663 l 0.320508,0.247676 0.327575,0.283835 -0.131047,0.254799 0.211259,0.09469 0.283607,-0.575165 0.669881,0.07289 0.327888,-0.131047 0.36382,-0.03647 0.02197,-0.211202 -0.159997,-0.07987 0,-0.153073 0.538549,-0.07255 0.189147,-0.808222 0.363905,-0.363792 0.597048,0.0216 0.02188,0.422319 0.320223,-0.0218 0.138342,-0.211259 0.436738,0.364048 -0.01462,0.189375 0.204079,0.422063 0.152532,0 0,-0.210917 0.211459,0.0218 0.11623,0.130933 0.575364,0.196642 0.0585,-0.138456 -0.131332,-0.109078 0.225592,-0.153073 0.116714,0.320365 0.130762,0.09472 0.09463,-0.130904 0.160396,-0.03636 0.07303,-0.116429 0.611296,-0.05836 0.03642,-0.152788 -0.189575,-0.03647 0.03661,-0.764483 -0.167577,-0.05821 0,-0.254742 0.130961,-0.189261 -0.378722,-0.269417 0.284206,-0.611438 -0.385618,-0.211145 -0.436823,-0.152845 -0.210974,-0.320593 -0.284377,0.05112 -0.516665,-0.647769 -0.233058,0 -0.0581,-0.575393 0.597134,0.094716 0.363734,0.116743 0.262094,-0.786424 -0.130762,-0.99737 -0.08058,-0.837258 0,-0.597105 -0.167691,-0.283807 -0.632781,-0.138256 -0.174815,-0.364076 0.0801,-0.152931 -0.116429,-0.305691 -0.342221,-0.130904 -0.349458,0.036331 -0.414968,-0.669653 0.283807,-0.342221 -0.08038,-0.152788 0.1168,-0.538948 -0.378808,0.021912 -0.116144,-0.822755 -0.116429,-0.138199 -0.385989,0.021827 -0.320422,-0.72781 0.28412,-0.211402 -0.03624,-0.130961 -0.786595,-0.174729 -0.480249,-0.633351 -0.159912,-0.08007 -0.18228,0.291358 -0.131047,0 -0.07993,-0.174872 -0.30589,-0.0364162 -0.07283,0.494895 -0.174444,0.269331 0.11603,0.196756 -0.291073,0.152988 -0.05859,0.414911 0.422405,0.10184 0,0.247533 -0.422405,0.152902 -0.108764,0.305634 0.0948,0.30589 -0.0803,0.305691 -0.247163,-0.17453 -0.248074,-0.014675 -0.327489,0.516751 0.116629,0.211288 -0.327888,0.014447 -0.03622,0.407787 -0.785911,0.014561 0,-0.57525 -0.422319,0.021827 -0.131446,0.269445 -0.596678,-0.116344 -0.0583,-0.786253 -0.167463,-0.342278 -0.880855,-0.036616 0.320308,0.436937 -0.07292,0.174786 0.211544,0.094602 -0.05861,0.269559 -0.494867,0.189261 -0.138199,0.269274 -0.327688,-0.233001 -0.189062,0.269474 0.152446,0.21086 -0.269274,0.597191 0.196129,0.225592 -0.043,0.538891 0.196442,0.109163 -0.408072,0.538577 -0.24759,0.611495 0.138513,0.116572 -0.247391,0.291158 -0.5164936,0.400407 -0.364361,0.364105 0.036331,0.30552 -0.305748,0.058385 -0.291272,0.10922 0.058385,0.59682 -0.706382,0.189318 -0.17453,0.138399 -0.436994,0.09483 -0.414797,-0.400635 -0.247476,0.109362 -0.254885,-0.131275 -0.553224,0.553338 -0.342078,-0.436795 -0.291301,0.036644 0,0.189062 -0.130961,0.116515 0.094545,0.189261 -0.21086,0.152845 0.036217,0.6189608 -0.189461,0.01453 -0.014532,-0.189489 -0.480477,-0.2329725 -0.808051,-0.094545 0.043825,-0.516808 -0.364048,-0.094716 -0.174843,0.291301 0.058357,0.261951 -0.189347,0.1749 -0.196499,-0.080269 -0.072889,-0.320166 0.036416,-0.247533 -0.480363,0.014532 -0.036559,0.196585 -0.342078,0 0,0.5532241 -0.211145,0.0365 -0.174501,0.458365 -0.131303,0.233172 -0.269445,0.130961 -0.188948,-0.0583 -0.291301,0.0803 -0.152902,-0.116686 -0.0364447,-0.458479 -0.0217984,0 0,0.0728 -0.342363,0.11623 0,0.211231 0.16772,0.08001 0.0581576,0.495152 0.138285,0.05807 0,0.116629 -0.305862,0.0583 -0.0216844,0.189233 -0.211117,-0.0218 -0.0582431,0.30589 -0.21106,0.05822 0.080127,0.502247 0.305406,0 0.0221403,0.414968 -0.407673,0.232944 0.0434828,0.342164 0.247761,0.174644 0.247305,-0.211259 0.211345,0.09497 -0.0948017,0.349373 0.283921,1.25932 0.72801,0.09469 0.211288,0.269246 -0.284006,0.0365 0,0.269417 0.567756,0.34943 0.138427,0.531482 0.225678,0.09449 0.021741,0.138313 -0.269474,0.07278 -0.036331,0.211259 0.341936,0.05802 0.043967,0.342648 -0.196528,0.422034 0.167378,0.11623 z"
   id="path10"
   style="fill:#ffdf49" />
  <g
   id="_309699776">
   <path
   d="m 15.7893,10.9882 c 0.134295,0 0.246108,-0.106314 0.246108,-0.240694 0,-0.13401 -0.111813,-0.240352 -0.246108,-0.240352 -0.128511,0 -0.23471,0.106342 -0.23471,0.240352 0,0.134381 0.1062,0.240694 0.23471,0.240694 z"
   id="_379771080"
   style="fill:#fefefe;stroke:#2b2a29;stroke-width:0.0337662" />
   <path
   d="m 15.7925,10.8051 c 0.03132,0 0.05782,-0.0265 0.05782,-0.05762 0,-0.03086 -0.0265,-0.05727 -0.05782,-0.05727 -0.02867,0 -0.05243,0.02641 -0.05243,0.05727 0,0.03112 0.02376,0.05762 0.05243,0.05762 z"
   id="_379771008"
   style="fill:#2b2a29;stroke:#2b2a29;stroke-width:0.0217129" />
  </g>
  <g
   id="_309699608">
   <path
   d="m 21.1977,12.2521 c 0.134609,0 0.246507,-0.106314 0.246507,-0.240552 0,-0.134295 -0.111898,-0.240552 -0.246507,-0.240552 -0.128283,0 -0.23471,0.106257 -0.23471,0.240552 0,0.134238 0.106428,0.240552 0.23471,0.240552 z"
   id="_309699704"
   style="fill:#fefefe;stroke:#2b2a29;stroke-width:0.0337662" />
   <path
   d="m 21.2009,12.069 c 0.0314,0 0.0577,-0.02627 0.0577,-0.05745 0,-0.03126 -0.0263,-0.05736 -0.0577,-0.05736 -0.02858,0 -0.05243,0.0261 -0.05243,0.05736 0,0.03117 0.02385,0.05745 0.05243,0.05745 z"
   id="_309699656"
   style="fill:#2b2a29;stroke:#2b2a29;stroke-width:0.0217129" />
  </g>
  <g
   id="_309699440">
   <path
   d="m 4.12016,15.7206 c 0.134238,0 0.245994,-0.106228 0.245994,-0.240609 0,-0.134267 -0.111756,-0.240409 -0.245994,-0.240409 -0.128539,0 -0.234881,0.106143 -0.234881,0.240409 0,0.134381 0.106342,0.240609 0.234881,0.240609 z"
   id="_309699536"
   style="fill:#fefefe;stroke:#2b2a29;stroke-width:0.0337662" />
   <path
   d="m 4.12343,15.5376 c 0.03123,0 0.057474,-0.02641 0.057474,-0.05762 0,-0.03097 -0.026244,-0.05739 -0.057474,-0.05739 -0.028951,0 -0.052516,0.02641 -0.052516,0.05739 0,0.0312 0.023565,0.05762 0.052516,0.05762 z"
   id="_309699488"
   style="fill:#2b2a29;stroke:#2b2a29;stroke-width:0.0217129" />
  </g>
  <g
   id="_309699272">
   <path
   d="m 9.96937,13.0458 c 0.134295,0 0.246108,-0.106257 0.246108,-0.240609 0,-0.134181 -0.111813,-0.240409 -0.246108,-0.240409 -0.128311,0 -0.234625,0.106228 -0.234625,0.240409 0,0.134352 0.106314,0.240609 0.234625,0.240609 z"
   id="_309699368"
   style="fill:#fefefe;stroke:#2b2a29;stroke-width:0.0337662" />
   <path
   d="m 9.9727,12.8627 c 0.031116,0 0.057417,-0.02641 0.057417,-0.05753 0,-0.031 -0.0263,-0.05736 -0.057417,-0.05736 -0.028865,0 -0.052601,0.02636 -0.052601,0.05736 0,0.03112 0.023736,0.05753 0.052601,0.05753 z"
   id="_309699320"
   style="fill:#2b2a29;stroke:#2b2a29;stroke-width:0.0217129" />
  </g>
  <g
   id="_309699104">
   <path
   d="m 12.7324,5.40338 c 0.134409,0 0.246108,-0.1062 0.246108,-0.240552 0,-0.134181 -0.111699,-0.240523 -0.246108,-0.240523 -0.128511,0 -0.234824,0.106342 -0.234824,0.240523 0,0.134352 0.106314,0.240552 0.234824,0.240552 z"
   id="_309699200"
   style="fill:#fefefe;stroke:#2b2a29;stroke-width:0.0337662" />
   <path
   d="m 12.7359,5.22025 c 0.031,0 0.05722,-0.026301 0.05722,-0.057417 0,-0.030974 -0.02622,-0.057331 -0.05722,-0.057331 -0.02906,0 -0.05272,0.026358 -0.05272,0.057331 0,0.031116 0.02365,0.057417 0.05272,0.057417 z"
   id="_309699152"
   style="fill:#2b2a29;stroke:#2b2a29;stroke-width:0.0217129" />
  </g>
  <g
   id="_309698936">
   <path
   d="m 16.7592,6.07942 c 0.134495,0 0.246308,-0.106314 0.246308,-0.240694 0,-0.134096 -0.111813,-0.240409 -0.246308,-0.240409 -0.128397,0 -0.234539,0.106314 -0.234539,0.240409 0,0.134381 0.106143,0.240694 0.234539,0.240694 z"
   id="_309699032"
   style="fill:#fefefe;stroke:#2b2a29;stroke-width:0.0337662" />
   <path
   d="m 16.7626,5.89628 c 0.03112,0 0.05762,-0.026301 0.05762,-0.057559 0,-0.030945 -0.0265,-0.057303 -0.05762,-0.057303 -0.02867,0 -0.05232,0.026358 -0.05232,0.057303 0,0.031259 0.02365,0.057559 0.05232,0.057559 z"
   id="_309698984"
   style="fill:#2b2a29;stroke:#2b2a29;stroke-width:0.0217129" />
  </g>
  <path
   d="m 14.5707,11.3558 0.05719,0.01447 c -0.01194,0.04685 -0.03357,0.08263 -0.06463,0.107368 -0.03117,0.02462 -0.06916,0.0369 -0.114178,0.0369 -0.04656,0 -0.08434,-0.0095 -0.113494,-0.02835 -0.02915,-0.01901 -0.05138,-0.04645 -0.06654,-0.08232 -0.01519,-0.03599 -0.02282,-0.0746 -0.02282,-0.115802 0,-0.04494 0.0085,-0.08414 0.02573,-0.117626 0.01718,-0.03345 0.0416,-0.0589 0.07337,-0.07628 0.03166,-0.01738 0.06654,-0.02604 0.104632,-0.02604 0.04323,0 0.07953,0.01097 0.108964,0.03297 0.02946,0.02203 0.04998,0.05289 0.06152,0.09278 l -0.05619,0.01328 c -0.01003,-0.03146 -0.02451,-0.05428 -0.04363,-0.06864 -0.01898,-0.01439 -0.04291,-0.02151 -0.07186,-0.02151 -0.03317,0 -0.06081,0.0079 -0.08312,0.02382 -0.02234,0.01599 -0.03801,0.03727 -0.04696,0.06411 -0.009,0.02676 -0.01356,0.0544 -0.01356,0.08283 0,0.03679 0.0053,0.06876 0.01599,0.0962 0.01074,0.02736 0.02733,0.04784 0.04995,0.06141 0.02262,0.01359 0.04705,0.02032 0.07337,0.02032 0.03197,0 0.05901,-0.0092 0.08124,-0.02764 0.0222,-0.01849 0.03718,-0.04593 0.04502,-0.08224 z m 0.122214,-0.161337 0.08244,0 0.08224,0.250297 0.09127,-0.250297 0.07628,0 0,0.312729 -0.05297,0 0,-0.251807 -0.09247,0.251807 -0.04744,0 -0.08745,-0.26386 0,0.26386 -0.05189,0 0,-0.312729 z m 0.413457,-0.05799 0,-0.06101 0.05309,0 0,0.06101 -0.05309,0 z m 0,0.370715 0,-0.312729 0.05309,0 0,0.312729 -0.05309,0 z m 0.159627,-0.312729 0.246251,0 0,0.312729 -0.05277,0 0,-0.268904 -0.140422,0 0,0.155809 c 0,0.0363 -0.0012,0.06032 -0.0035,0.07189 -0.0024,0.01154 -0.0089,0.02171 -0.01952,0.03035 -0.01054,0.0086 -0.02593,0.01296 -0.04593,0.01296 -0.01237,0 -0.02664,-7.98e-4 -0.04271,-0.0024 l 0,-0.04411 0.02331,0 c 0.01097,0 0.01881,-0.0012 0.02354,-0.0034 0.0047,-0.0023 0.0078,-0.0058 0.0094,-0.01077 0.0016,-0.0049 0.0023,-0.02089 0.0023,-0.04804 l 0,-0.206073 z m 0.530115,0.274119 c -0.01969,0.0167 -0.03861,0.02847 -0.05668,0.03539 -0.01821,0.0068 -0.0377,0.01026 -0.05853,0.01026 -0.03436,0 -0.06069,-0.0083 -0.07919,-0.02513 -0.01841,-0.01678 -0.02764,-0.0383 -0.02764,-0.06434 0,-0.01536 0.0034,-0.02935 0.01043,-0.042 0.007,-0.01268 0.0161,-0.02283 0.02736,-0.03046 0.01137,-0.0076 0.02402,-0.01348 0.03818,-0.01738 0.01037,-0.0027 0.02605,-0.0054 0.04705,-0.008 0.04283,-0.0051 0.0744,-0.01117 0.0946,-0.01829 2e-4,-0.0072 2.85e-4,-0.01185 2.85e-4,-0.01376 0,-0.02163 -0.005,-0.0369 -0.01507,-0.04565 -0.01345,-0.01205 -0.03365,-0.01798 -0.06029,-0.01798 -0.02493,0 -0.04334,0.0043 -0.05528,0.01305 -0.01188,0.0087 -0.02063,0.02422 -0.02636,0.04645 l -0.05175,-0.0072 c 0.0047,-0.02211 0.01245,-0.04009 0.0232,-0.05366 0.01077,-0.01368 0.02644,-0.02422 0.04684,-0.03157 0.0204,-0.0074 0.04402,-0.01106 0.07098,-0.01106 0.02673,0 0.04836,0.0032 0.06503,0.0095 0.0167,0.0063 0.02895,0.01416 0.0369,0.02371 0.0078,0.0095 0.01328,0.02151 0.01647,0.0361 0.0017,0.009 0.0026,0.0253 0.0026,0.04884 l 0,0.07067 c 0,0.04935 0.0011,0.08053 0.0034,0.09349 0.0022,0.01305 0.0067,0.02562 0.01336,0.03758 l -0.05537,0 c -0.0054,-0.01097 -0.0091,-0.02382 -0.01057,-0.03861 z m -0.0044,-0.118395 c -0.01929,0.0079 -0.04816,0.01456 -0.08654,0.02009 -0.02183,0.0031 -0.0373,0.0066 -0.04625,0.01057 -0.0091,0.0039 -0.0161,0.0096 -0.02092,0.01727 -0.0049,0.0076 -0.0074,0.0159 -0.0074,0.02513 0,0.01419 0.0054,0.02596 0.01607,0.03539 0.01066,0.0093 0.02636,0.01408 0.04696,0.01408 0.0204,0 0.03861,-0.0044 0.05448,-0.01336 0.01587,-0.0089 0.02764,-0.02123 0.03508,-0.0367 0.0057,-0.01197 0.0085,-0.02963 0.0085,-0.05297 l 0,-0.01949 z"
   id="path30"
   style="fill:#2b2a29;fill-rule:nonzero" />
  <path
   d="m 19.2615,11.5889 -0.0571,0 0,-0.173988 c -0.05126,0.01898 -0.09608,0.02852 -0.13458,0.02852 -0.03006,0 -0.05651,-0.007 -0.07953,-0.02109 -0.02291,-0.01399 -0.0383,-0.03189 -0.04602,-0.0534 -0.0078,-0.0216 -0.01165,-0.04995 -0.01165,-0.08483 l 0,-0.126943 0.05708,0 0,0.121615 c 0,0.04716 0.0087,0.0781 0.02584,0.09289 0.0171,0.01487 0.03778,0.02231 0.06192,0.02231 0.04032,0 0.08263,-0.0089 0.126944,-0.02684 l 0,-0.209977 0.0571,0 0,0.431722 z m 0.08725,-0.312729 0.05297,0 0,0.238557 0.146947,-0.238557 0.0571,0 0,0.312729 -0.05297,0 0,-0.237019 -0.146947,0.237019 -0.0571,0 0,-0.312729 z m 0.337149,0 0.179944,0 0,0.04383 -0.126858,0 0,0.268904 -0.05309,0 0,-0.312729 z m 0.219751,0 0.05297,0 0,0.238557 0.146947,-0.238557 0.0571,0 0,0.312729 -0.05297,0 0,-0.237019 -0.146947,0.237019 -0.0571,0 0,-0.312729 z m 0.336949,0.432549 0,-0.432549 0.04824,0 0,0.04063 c 0.01137,-0.0159 0.02422,-0.02787 0.03861,-0.03579 0.01428,-0.0079 0.03166,-0.01197 0.05206,-0.01197 0.02676,0 0.05026,0.0069 0.07067,0.0206 0.02052,0.01376 0.0359,0.03317 0.04625,0.05821 0.01046,0.02502 0.01567,0.05246 0.01567,0.08232 0,0.03197 -0.0057,0.06081 -0.0173,0.08645 -0.01146,0.02562 -0.02812,0.04522 -0.05004,0.0589 -0.02191,0.01356 -0.04494,0.0204 -0.06907,0.0204 -0.0177,0 -0.03348,-0.0037 -0.04753,-0.01117 -0.01408,-0.0074 -0.02553,-0.01687 -0.03459,-0.02824 l 0,0.15219 -0.05297,0 z m 0.04796,-0.274432 c 0,0.04023 0.0081,0.06998 0.02442,0.08927 0.01627,0.0192 0.03607,0.02884 0.05921,0.02884 0.02351,0 0.04371,-0.0099 0.06049,-0.02995 0.01678,-0.01989 0.02525,-0.05075 0.02525,-0.09258 0,-0.03989 -0.0082,-0.06964 -0.02465,-0.08956 -0.01638,-0.0198 -0.03596,-0.02975 -0.0587,-0.02975 -0.0226,0 -0.0426,0.01054 -0.06001,0.03166 -0.01738,0.02111 -0.02602,0.05186 -0.02602,0.09207 z m 0.287483,-0.158117 0.05297,0 0,0.238557 0.146947,-0.238557 0.0571,0 0,0.312729 -0.05297,0 0,-0.237019 -0.146947,0.237019 -0.0571,0 0,-0.312729 z m 0.337149,0 0.05309,0 0,0.130192 0.146947,0 0,-0.130192 0.05297,0 0,0.312729 -0.05297,0 0,-0.138712 -0.146947,0 0,0.138712 -0.05309,0 0,-0.312729 z"
   id="path32"
   style="fill:#2b2a29;fill-rule:nonzero" />
  <path
   d="m 4.17068,14.6511 0.057816,0 0.140707,0.264459 0.123154,-0.264459 0.05679,0 -0.161935,0.335724 c -0.020317,0.04203 -0.036901,0.06947 -0.049752,0.08244 -0.012965,0.01296 -0.031572,0.01949 -0.055707,0.01949 -0.01476,0 -0.032769,-0.0035 -0.054168,-0.01034 l 0,-0.04887 c 0.015273,0.0089 0.031458,0.01328 0.048555,0.01328 0.013962,0 0.02593,-0.0045 0.036074,-0.01348 0.010173,-0.0089 0.021228,-0.02924 0.033481,-0.06112 L 4.1706807,14.6511 z m 0.394337,0.118994 0.082435,0 0.082236,0.250297 0.091268,-0.250297 0.07628,0 0,0.312729 -0.052972,0 0,-0.251807 -0.092465,0.251807 -0.047444,0 -0.08745,-0.26386 0,0.26386 -0.051889,0 0,-0.312729 z m 0.617308,0.274119 c -0.01969,0.0167 -0.03861,0.02847 -0.056676,0.03539 -0.018208,0.0068 -0.037698,0.01026 -0.058528,0.01026 -0.034365,0 -0.060694,-0.0083 -0.079187,-0.02513 -0.018407,-0.01678 -0.02764,-0.0383 -0.02764,-0.06434 0,-0.01536 0.00339,-0.02935 0.010429,-0.042 0.00695,-0.01268 0.0161,-0.02282 0.027355,-0.03046 0.011369,-0.0076 0.024021,-0.01348 0.038183,-0.01738 0.010372,-0.0027 0.026044,-0.0054 0.047045,-0.008 0.042828,-0.0051 0.0744,-0.01117 0.094602,-0.01829 1.995e-4,-0.0072 2.849e-4,-0.01185 2.849e-4,-0.01376 0,-0.02163 -0.00502,-0.0369 -0.015074,-0.04565 -0.013449,-0.01205 -0.033652,-0.01798 -0.060295,-0.01798 -0.024933,0 -0.04334,0.0043 -0.05528,0.01305 -0.011882,0.0087 -0.02063,0.02422 -0.026358,0.04645 l -0.051746,-0.0072 c 0.0047,-0.02211 0.012452,-0.04009 0.023195,-0.05365 0.010771,-0.01368 0.026443,-0.02422 0.046845,-0.03157 0.020402,-0.0074 0.044024,-0.01106 0.07098,-0.01106 0.026728,0 0.048355,0.0032 0.065025,0.0095 0.016698,0.0063 0.028951,0.01416 0.036901,0.02371 0.00784,0.0095 0.013279,0.02151 0.01647,0.0361 0.00171,0.009 0.00262,0.0253 0.00262,0.04884 l 0,0.07067 c 0,0.04935 0.00111,0.08053 0.00342,0.09349 0.00222,0.01305 0.00672,0.02562 0.013364,0.03758 l -0.055365,0 c -0.00544,-0.01097 -0.00906,-0.02382 -0.010572,-0.03861 z m -0.00442,-0.118395 c -0.019291,0.0079 -0.048156,0.01456 -0.086538,0.02009 -0.021827,0.0031 -0.0373,0.0066 -0.046247,0.01057 -0.00906,0.0039 -0.0161,0.0096 -0.020915,0.01727 -0.00493,0.0076 -0.00744,0.0159 -0.00744,0.02513 0,0.01419 0.00544,0.02596 0.016071,0.03539 0.010657,0.0093 0.026358,0.01408 0.046959,0.01408 0.020402,0 0.03861,-0.0044 0.054482,-0.01336 0.015872,-0.0089 0.02764,-0.02123 0.035077,-0.0367 0.00573,-0.01197 0.00855,-0.02963 0.00855,-0.05297 l 0,-0.01949 z m 0.136005,-0.155723 0.053085,0 0,0.130192 0.146947,0 0,-0.130192 0.052972,0 0,0.312729 -0.052972,0 0,-0.138712 -0.146947,0 0,0.138712 -0.053085,0 0,-0.312729 z m 0.331906,0 0.052972,0 0,0.122157 0.067162,0 c 0.043825,0 0.077506,0.0085 0.101128,0.02553 0.023708,0.01698 0.035476,0.04041 0.035476,0.07024 0,0.02604 -0.00986,0.04847 -0.029549,0.06696 -0.019718,0.01858 -0.051262,0.02784 -0.094688,0.02784 l -0.1325,0 0,-0.312729 z m 0.052972,0.269103 0.055707,0 c 0.033567,0 0.057474,-0.0041 0.071864,-0.01237 0.014276,-0.0082 0.0214,-0.02111 0.0214,-0.0385 0,-0.01356 -0.00521,-0.02564 -0.015872,-0.03627 -0.010543,-0.01057 -0.03408,-0.0159 -0.070353,-0.0159 l -0.062745,0 0,0.103037 z"
   id="path34"
   style="fill:#2b2a29;fill-rule:nonzero" />
  <path
   d="m 7.44403,12.4168 0,-0.431722 0.162021,0 c 0.032968,0 0.059411,0.0044 0.079329,0.01305 0.020003,0.0087 0.035561,0.02222 0.046817,0.0404 0.011284,0.01809 0.017011,0.0371 0.017011,0.05702 0,0.01838 -0.00504,0.03576 -0.015102,0.05206 -0.00994,0.01627 -0.025104,0.02946 -0.045307,0.03949 0.02613,0.0076 0.046133,0.02072 0.060209,0.03912 0.014048,0.01849 0.021086,0.04029 0.021086,0.06542 0,0.0202 -0.0043,0.03901 -0.012851,0.05639 -0.00855,0.01738 -0.019091,0.03077 -0.031658,0.04021 -0.012566,0.0095 -0.028352,0.0165 -0.047244,0.02131 -0.01892,0.0048 -0.042115,0.0072 -0.069669,0.0072 l -0.164642,0 z m 0.057189,-0.250297 0.093377,0 c 0.025246,0 0.043426,-0.0017 0.054482,-0.005 0.014475,-0.0043 0.025446,-0.01145 0.032769,-0.02151 0.00735,-0.01006 0.011056,-0.02262 0.011056,-0.0377 0,-0.01428 -0.00342,-0.02693 -0.010258,-0.03778 -0.00692,-0.01097 -0.016783,-0.01841 -0.029435,-0.02243 -0.012766,-0.004 -0.034678,-0.006 -0.065737,-0.006 l -0.086253,0 0,0.130477 z m 0,0.19932 0.107453,0 c 0.018493,0 0.031458,-6.84e-4 0.038895,-0.002 0.013165,-0.0024 0.024135,-0.0063 0.032968,-0.01185 0.00886,-0.0054 0.0161,-0.01348 0.021827,-0.02394 0.00561,-0.01054 0.00855,-0.02262 0.00855,-0.03639 0,-0.01607 -0.00413,-0.03006 -0.012367,-0.04203 -0.00826,-0.01185 -0.019718,-0.0202 -0.034393,-0.02502 -0.014561,-0.0047 -0.035675,-0.0071 -0.063116,-0.0071 l -0.099817,0 0,0.148343 z m 0.544818,0.01237 c -0.01969,0.0167 -0.03861,0.02847 -0.056676,0.03539 -0.018208,0.0068 -0.037698,0.01026 -0.058528,0.01026 -0.034365,0 -0.060694,-0.0083 -0.079187,-0.02513 -0.018407,-0.01678 -0.02764,-0.0383 -0.02764,-0.06434 0,-0.01536 0.00339,-0.02935 0.010429,-0.042 0.00695,-0.01268 0.0161,-0.02282 0.027355,-0.03046 0.011369,-0.0076 0.024021,-0.01348 0.038183,-0.01738 0.010372,-0.0027 0.026044,-0.0054 0.047045,-0.008 0.042828,-0.0051 0.0744,-0.01117 0.094602,-0.01829 1.995e-4,-0.0072 2.849e-4,-0.01185 2.849e-4,-0.01376 0,-0.02163 -0.00502,-0.0369 -0.015074,-0.04565 -0.01345,-0.01205 -0.033652,-0.01798 -0.060295,-0.01798 -0.024933,0 -0.04334,0.0043 -0.05528,0.01305 -0.011882,0.0087 -0.02063,0.02422 -0.026358,0.04645 l -0.051746,-0.0072 c 0.0047,-0.02211 0.012452,-0.04009 0.023195,-0.05366 0.010771,-0.01368 0.026443,-0.02422 0.046845,-0.03157 0.020402,-0.0074 0.044024,-0.01106 0.07098,-0.01106 0.026728,0 0.048355,0.0032 0.065025,0.0095 0.016698,0.0063 0.028951,0.01416 0.036901,0.02371 0.00784,0.0095 0.013279,0.02151 0.01647,0.0361 0.00171,0.009 0.00262,0.0253 0.00262,0.04884 l 0,0.07067 c 0,0.04935 0.00111,0.08053 0.00342,0.09349 0.00222,0.01305 0.00672,0.02562 0.013364,0.03758 l -0.055365,0 c -0.00544,-0.01097 -0.00906,-0.02382 -0.010571,-0.03861 z m -0.00442,-0.118395 c -0.019291,0.0079 -0.048156,0.01456 -0.086538,0.02009 -0.021827,0.0031 -0.0373,0.0066 -0.046247,0.01057 -0.00906,0.0039 -0.0161,0.0096 -0.020915,0.01727 -0.00493,0.0076 -0.00744,0.0159 -0.00744,0.02513 0,0.01419 0.00544,0.02596 0.016071,0.03539 0.010657,0.0093 0.026358,0.01408 0.046959,0.01408 0.020402,0 0.03861,-0.0044 0.054482,-0.01336 0.015872,-0.0089 0.02764,-0.02123 0.035077,-0.0367 0.00573,-0.01197 0.00855,-0.02964 0.00855,-0.05297 l 0,-0.01949 z m 0.09389,-0.155723 0.254201,0 0,0.04383 -0.100729,0 0,0.268903 -0.052772,0 0,-0.268903 -0.1007,0 0,-0.04383 z m 0.309167,0.433147 -0.00593,-0.04975 c 0.011654,0.0031 0.021713,0.0047 0.030375,0.0047 0.01174,0 0.0212,-0.002 0.028238,-0.0059 0.00712,-0.0039 0.012851,-0.0093 0.017382,-0.0165 0.00342,-0.0052 0.00875,-0.01838 0.016185,-0.03941 9.974e-4,-0.003 0.00262,-0.0072 0.00473,-0.01297 l -0.118623,-0.313327 0.057103,0 0.065139,0.181055 c 0.00835,0.02302 0.015985,0.04713 0.022625,0.07246 0.00613,-0.02431 0.013364,-0.04804 0.021798,-0.07127 l 0.066849,-0.182252 0.052972,0 -0.118908,0.318057 c -0.012766,0.03436 -0.02271,0.05799 -0.029748,0.07095 -0.00946,0.0175 -0.020203,0.03026 -0.03237,0.03841 -0.012281,0.0081 -0.026756,0.01225 -0.043625,0.01225 -0.010258,0 -0.021627,-0.0022 -0.034194,-0.0065 z m 0.275344,-0.433147 0.254201,0 0,0.04383 -0.100729,0 0,0.268903 -0.052772,0 0,-0.268903 -0.1007,0 0,-0.04383 z m 0.304864,0 0.052972,0 0,0.238557 0.146947,-0.238557 0.057103,0 0,0.312729 -0.052972,0 0,-0.237019 -0.146947,0.237019 -0.057103,0 0,-0.312729 z m 0.337149,0 0.053085,0 0,0.130192 0.146947,0 0,-0.130192 0.052972,0 0,0.312729 -0.052972,0 0,-0.138712 -0.146947,0 0,0.138712 -0.053085,0 0,-0.312729 z m 0.546812,0.212 0.054795,0.0068 c -0.00863,0.03206 -0.024619,0.05687 -0.047956,0.07457 -0.023423,0.01761 -0.053256,0.02644 -0.089559,0.02644 -0.045734,0 -0.082008,-0.01408 -0.108764,-0.04223 -0.026842,-0.02812 -0.040206,-0.06765 -0.040206,-0.118509 0,-0.05266 0.013564,-0.09349 0.040605,-0.122527 0.027155,-0.02906 0.062232,-0.04363 0.105459,-0.04363 0.041802,0 0.075995,0.01428 0.10241,0.04271 0.026557,0.02847 0.039807,0.06856 0.039807,0.120133 0,0.0032 -8.55e-5,0.0079 -2.849e-4,0.01416 l -0.2332,0 c 0.00191,0.03439 0.011654,0.06072 0.02915,0.0789 0.017496,0.01829 0.03918,0.02744 0.065338,0.02744 0.019405,0 0.035989,-0.0051 0.049752,-0.01536 0.013763,-0.01017 0.024619,-0.02644 0.032655,-0.04887 z m -0.173988,-0.08574 0.174615,0 c -0.00234,-0.02624 -0.00906,-0.04602 -0.020003,-0.0591 -0.016897,-0.0204 -0.03881,-0.03066 -0.065652,-0.03066 -0.024334,0 -0.044822,0.0082 -0.061406,0.02442 -0.016612,0.0163 -0.025759,0.0381 -0.027554,0.06534 z"
   id="path36"
   style="fill:#2b2a29;fill-rule:nonzero" />
  <path
   d="m 12.7723,4.36304 0.0571,0 0,0.189062 c 0.02613,0 0.04442,-0.00502 0.05508,-0.015159 0.01054,-0.010173 0.02413,-0.034393 0.0406,-0.072889 0.01197,-0.028238 0.02183,-0.048241 0.02966,-0.059924 0.0077,-0.011654 0.01878,-0.021485 0.03305,-0.029435 0.01439,-0.00795 0.03018,-0.011968 0.04744,-0.011968 0.02203,0 0.0336,1.995e-4 0.03479,5.984e-4 l 0,0.049467 c -0.002,0 -0.0058,-1.14e-4 -0.01157,-3.135e-4 -0.0062,-1.994e-4 -0.01003,-2.849e-4 -0.01145,-2.849e-4 -0.01829,0 -0.03177,0.00442 -0.04061,0.01325 -0.009,0.00886 -0.0194,0.027754 -0.03097,0.05659 -0.01448,0.036502 -0.02673,0.059525 -0.03679,0.069071 -0.01003,0.00946 -0.022,0.017097 -0.03587,0.022824 0.02784,0.00764 0.05528,0.033367 0.08244,0.077078 l 0.08896,0.143756 -0.07098,0 -0.07218,-0.117199 c -0.0198,-0.03237 -0.03647,-0.054596 -0.04975,-0.066763 -0.01336,-0.012053 -0.03066,-0.018094 -0.05186,-0.018094 l 0,0.202056 -0.0571,0 0,-0.431722 z m 0.547724,0.393112 c -0.01969,0.016698 -0.03861,0.028466 -0.05668,0.03539 -0.01821,0.00684 -0.0377,0.010258 -0.05853,0.010258 -0.03436,0 -0.06069,-0.00835 -0.07919,-0.025132 -0.01841,-0.016783 -0.02764,-0.038297 -0.02764,-0.064341 0,-0.015359 0.0034,-0.02935 0.01043,-0.042001 0.007,-0.01268 0.0161,-0.022824 0.02736,-0.030461 0.01137,-0.00764 0.02402,-0.013478 0.03818,-0.017382 0.01037,-0.00274 0.02605,-0.00544 0.04705,-0.00795 0.04283,-0.00513 0.0744,-0.01117 0.0946,-0.018294 2e-4,-0.00724 2.85e-4,-0.011854 2.85e-4,-0.013763 0,-0.021627 -0.005,-0.036901 -0.01507,-0.045648 -0.01345,-0.012053 -0.03365,-0.01798 -0.06029,-0.01798 -0.02493,0 -0.04334,0.0043 -0.05528,0.013051 -0.01188,0.00875 -0.02063,0.024221 -0.02636,0.046446 l -0.05175,-0.00715 c 0.0047,-0.022112 0.01245,-0.040092 0.0232,-0.053655 0.01077,-0.013677 0.02644,-0.024221 0.04684,-0.031572 0.0204,-0.00735 0.04402,-0.011056 0.07098,-0.011056 0.02673,0 0.04836,0.00322 0.06503,0.00946 0.0167,0.00633 0.02895,0.014162 0.0369,0.023708 0.0078,0.00955 0.01328,0.021514 0.01647,0.036103 0.0017,0.00903 0.0026,0.025303 0.0026,0.04884 l 0,0.070667 c 0,0.049353 0.0011,0.080526 0.0034,0.093491 0.0022,0.013051 0.0067,0.025617 0.01336,0.037584 l -0.05537,0 c -0.0054,-0.01097 -0.0091,-0.023821 -0.01057,-0.03861 z m -0.0044,-0.118395 c -0.01929,0.00792 -0.04816,0.014561 -0.08654,0.020089 -0.02183,0.00313 -0.0373,0.00664 -0.04625,0.010572 -0.0091,0.0039 -0.0161,0.00963 -0.02092,0.017268 -0.0049,0.00755 -0.0074,0.0159 -0.0074,0.025132 0,0.01419 0.0054,0.025959 0.01607,0.03539 0.01066,0.00935 0.02636,0.014076 0.04696,0.014076 0.0204,0 0.03861,-0.00442 0.05448,-0.013364 0.01587,-0.00895 0.02764,-0.021228 0.03508,-0.036701 0.0057,-0.011968 0.0085,-0.029634 0.0085,-0.052972 l 0,-0.01949 z m 0.136005,-0.155723 0.05309,0 0,0.130192 0.146947,0 0,-0.130192 0.05297,0 0,0.312729 -0.05297,0 0,-0.138712 -0.146947,0 0,0.138712 -0.05309,0 0,-0.312729 z m 0.333017,-0.057987 0,-0.061007 0.05309,0 0,0.061007 -0.05309,0 z m 0,0.370715 0,-0.312729 0.05309,0 0,0.312729 -0.05309,0 z m 0.133982,-0.312729 0.122242,0 c 0.03003,0 0.05237,0.00254 0.06705,0.00744 0.01456,0.00504 0.02713,0.01419 0.03767,0.027554 0.01046,0.013364 0.01579,0.02935 0.01579,0.048042 0,0.014874 -0.0031,0.027953 -0.0093,0.039009 -0.0061,0.011056 -0.01547,0.020402 -0.02784,0.027839 0.01479,0.00493 0.02696,0.014076 0.0367,0.027554 0.0097,0.013449 0.01456,0.029349 0.01456,0.047842 -0.0019,0.029663 -0.01257,0.051661 -0.03177,0.065937 -0.01929,0.01439 -0.04724,0.021514 -0.08392,0.021514 l -0.141134,0 0,-0.312729 z m 0.05309,0.131588 0.05648,0 c 0.02262,0 0.0381,-0.00111 0.04653,-0.0035 0.0085,-0.00231 0.01599,-0.00715 0.02274,-0.014276 0.0066,-0.00715 0.0099,-0.015786 0.0099,-0.025731 0,-0.016498 -0.0058,-0.028067 -0.0175,-0.034478 -0.01165,-0.00655 -0.03166,-0.00977 -0.0599,-0.00977 l -0.0583,0 0,0.087764 z m 0,0.137515 0.06975,0 c 0.03006,0 0.05066,-0.00342 0.0618,-0.010458 0.01126,-0.00692 0.0171,-0.019006 0.0177,-0.035989 0,-0.010059 -0.0032,-0.019291 -0.0097,-0.027839 -0.0064,-0.00855 -0.01487,-0.013962 -0.02522,-0.016185 -0.01046,-0.00231 -0.02716,-0.00342 -0.05018,-0.00342 l -0.06411,0 0,0.09389 z"
   id="path38"
   style="fill:#2b2a29;fill-rule:nonzero" />
  <path
   d="m 16.7726,5.314 0.05448,-0.014162 c 0.0041,0.021001 0.01507,0.042001 0.03305,0.063002 0.01801,0.021029 0.04183,0.031572 0.07149,0.031572 0.03015,0 0.05405,-0.00775 0.07146,-0.023309 0.0175,-0.015501 0.02622,-0.034194 0.02622,-0.056191 0,-0.023736 -0.0092,-0.042628 -0.02764,-0.056704 -0.01849,-0.014076 -0.04363,-0.021115 -0.07537,-0.021115 l -0.02744,0 0,-0.049752 c 0.02633,0 0.04642,-0.00151 0.06041,-0.00453 0.01396,-0.00299 0.02622,-0.010743 0.03699,-0.023309 0.01066,-0.012481 0.01598,-0.026642 0.01598,-0.042514 0,-0.018807 -0.0072,-0.035191 -0.02191,-0.049153 -0.01459,-0.013991 -0.03439,-0.020915 -0.05933,-0.020915 -0.0218,0 -0.0404,0.00541 -0.05576,0.01627 -0.0155,0.01097 -0.02616,0.025332 -0.03197,0.04334 -0.0059,0.01798 -0.0089,0.031344 -0.0089,0.040206 l -0.05477,-0.012367 c 0.01356,-0.091667 0.06423,-0.137515 0.15199,-0.137515 0.04211,0 0.07557,0.011768 0.100415,0.035191 0.02473,0.023423 0.03707,0.050863 0.03707,0.082321 0,0.040206 -0.01909,0.071465 -0.05719,0.093576 0.02203,0.00613 0.0404,0.018493 0.05528,0.037299 0.01479,0.018807 0.02223,0.041203 0.02223,0.067247 0,0.037185 -0.01436,0.068245 -0.04311,0.093292 -0.02875,0.025018 -0.06696,0.037499 -0.114492,0.037499 -0.08164,0 -0.134694,-0.043027 -0.159228,-0.12928 z m 0.361255,-0.034478 c 0,-0.057901 0.01607,-0.100814 0.04836,-0.128653 0.02684,-0.023138 0.05961,-0.034792 0.09831,-0.034792 0.04303,0 0.07819,0.014076 0.10543,0.042315 0.02736,0.028153 0.04092,0.067048 0.04092,0.116714 0,0.040291 -0.006,0.071978 -0.01809,0.094973 -0.01205,0.023138 -0.02963,0.041032 -0.05266,0.053798 -0.02314,0.012766 -0.04827,0.019091 -0.0756,0.019091 -0.04374,0 -0.0791,-0.013962 -0.106143,-0.042115 -0.02704,-0.028039 -0.04052,-0.068444 -0.04052,-0.12133 z m 0.05448,0 c 0,0.040092 0.0087,0.070068 0.02624,0.089958 0.0175,0.020003 0.03949,0.029948 0.06594,0.029948 0.02633,0 0.04824,-0.01003 0.06574,-0.030033 0.01738,-0.020003 0.02613,-0.050578 0.02613,-0.091582 0,-0.038696 -0.0087,-0.068045 -0.02633,-0.087963 -0.01758,-0.019889 -0.03941,-0.029834 -0.06554,-0.029834 -0.02644,0 -0.04844,0.00994 -0.06594,0.029748 -0.0175,0.019804 -0.02624,0.049752 -0.02624,0.089758 z m 0.313327,-0.156322 0.246251,0 0,0.312729 -0.05277,0 0,-0.268904 -0.140422,0 0,0.155809 c 0,0.036302 -0.0012,0.060323 -0.0035,0.071892 -0.0024,0.01154 -0.0089,0.021713 -0.01952,0.030347 -0.01054,0.00863 -0.02593,0.012965 -0.04593,0.012965 -0.01237,0 -0.02664,-7.979e-4 -0.04271,-0.00242 l 0,-0.04411 0.02331,0 c 0.01097,0 0.01881,-0.00123 0.02354,-0.00342 0.0047,-0.00231 0.0078,-0.00584 0.0094,-0.010771 0.0016,-0.0049 0.0023,-0.020887 0.0023,-0.048042 l 0,-0.206073 z m 0.312985,0.156322 c 0,-0.057901 0.01607,-0.100814 0.04836,-0.128653 0.02684,-0.023138 0.05961,-0.034792 0.09831,-0.034792 0.04303,0 0.07819,0.014076 0.10543,0.042315 0.02736,0.028153 0.04092,0.067048 0.04092,0.116714 0,0.040291 -0.006,0.071978 -0.01809,0.094973 -0.01205,0.023138 -0.02963,0.041032 -0.05266,0.053798 -0.02314,0.012766 -0.04827,0.019091 -0.0756,0.019091 -0.04374,0 -0.0791,-0.013962 -0.106143,-0.042115 -0.02704,-0.028039 -0.04052,-0.068444 -0.04052,-0.12133 z m 0.05448,0 c 0,0.040092 0.0087,0.070068 0.02624,0.089958 0.0175,0.020003 0.03949,0.029948 0.06594,0.029948 0.02633,0 0.04824,-0.01003 0.06574,-0.030033 0.01738,-0.020003 0.02613,-0.050578 0.02613,-0.091582 0,-0.038696 -0.0087,-0.068045 -0.02633,-0.087963 -0.01758,-0.019889 -0.03941,-0.029834 -0.06554,-0.029834 -0.02644,0 -0.04844,0.00994 -0.06594,0.029748 -0.0175,0.019804 -0.02624,0.049752 -0.02624,0.089758 z m 0.258845,-0.156322 0.254201,0 0,0.043825 -0.100729,0 0,0.268904 -0.05277,0 0,-0.268904 -0.1007,0 0,-0.043825 z m 0.278336,0.156322 c 0,-0.057901 0.01607,-0.100814 0.04836,-0.128653 0.02684,-0.023138 0.05961,-0.034792 0.09831,-0.034792 0.04303,0 0.07819,0.014076 0.10543,0.042315 0.02735,0.028153 0.04092,0.067048 0.04092,0.116714 0,0.040291 -0.006,0.071978 -0.01809,0.094973 -0.01205,0.023138 -0.02964,0.041032 -0.05266,0.053798 -0.02314,0.012766 -0.04827,0.019091 -0.0756,0.019091 -0.04374,0 -0.0791,-0.013962 -0.106143,-0.042115 -0.02704,-0.028039 -0.04052,-0.068444 -0.04052,-0.12133 z m 0.05448,0 c 0,0.040092 0.0087,0.070068 0.02624,0.089958 0.0175,0.020003 0.03949,0.029948 0.06594,0.029948 0.02633,0 0.04824,-0.01003 0.06574,-0.030033 0.01738,-0.020003 0.02613,-0.050578 0.02613,-0.091582 0,-0.038696 -0.0087,-0.068045 -0.02633,-0.087963 -0.01758,-0.019889 -0.03941,-0.029834 -0.06554,-0.029834 -0.02644,0 -0.04844,0.00994 -0.06594,0.029748 -0.0175,0.019804 -0.02624,0.049752 -0.02624,0.089758 z m 0.300961,-0.156322 0.05309,0 0,0.130192 0.146947,0 0,-0.130192 0.05297,0 0,0.312729 -0.05297,0 0,-0.138712 -0.146947,0 0,0.138712 -0.05309,0 0,-0.312729 z m 0.313014,0.156322 c 0,-0.057901 0.01607,-0.100814 0.04836,-0.128653 0.02684,-0.023138 0.05961,-0.034792 0.09831,-0.034792 0.04303,0 0.07819,0.014076 0.10543,0.042315 0.02736,0.028153 0.04092,0.067048 0.04092,0.116714 0,0.040291 -0.006,0.071978 -0.01809,0.094973 -0.01205,0.023138 -0.02964,0.041032 -0.05266,0.053798 -0.02314,0.012766 -0.04827,0.019091 -0.0756,0.019091 -0.04374,0 -0.0791,-0.013962 -0.106143,-0.042115 -0.02704,-0.028039 -0.04052,-0.068444 -0.04052,-0.12133 z m 0.05448,0 c 0,0.040092 0.0087,0.070068 0.02624,0.089958 0.0175,0.020003 0.03949,0.029948 0.06594,0.029948 0.02633,0 0.04824,-0.01003 0.06574,-0.030033 0.01738,-0.020003 0.02613,-0.050578 0.02613,-0.091582 0,-0.038696 -0.0087,-0.068045 -0.02633,-0.087963 -0.01758,-0.019889 -0.03941,-0.029834 -0.06554,-0.029834 -0.02644,0 -0.04844,0.00994 -0.06594,0.029748 -0.0175,0.019804 -0.02624,0.049752 -0.02624,0.089758 z m 0.302471,-0.156322 0.05297,0 0,0.26879 0.120817,0 0,-0.26879 0.05297,0 0,0.26879 0.121045,0 0,-0.26879 0.05266,0 0,0.312729 -0.400464,0 0,-0.312729 z m 0.686151,0.274119 c -0.01969,0.016698 -0.03861,0.028466 -0.05668,0.03539 -0.01821,0.00684 -0.0377,0.010258 -0.05853,0.010258 -0.03436,0 -0.06069,-0.00835 -0.07919,-0.025132 -0.01841,-0.016783 -0.02764,-0.038297 -0.02764,-0.064341 0,-0.015359 0.0034,-0.029349 0.01043,-0.042001 0.007,-0.01268 0.0161,-0.022824 0.02736,-0.030461 0.01137,-0.00764 0.02402,-0.013478 0.03818,-0.017382 0.01037,-0.00274 0.02604,-0.00544 0.04704,-0.00795 0.04283,-0.00513 0.0744,-0.01117 0.0946,-0.018294 1.99e-4,-0.00724 2.84e-4,-0.011854 2.84e-4,-0.013763 0,-0.021627 -0.005,-0.036901 -0.01507,-0.045648 -0.01345,-0.012053 -0.03365,-0.01798 -0.06029,-0.01798 -0.02493,0 -0.04334,0.0043 -0.05528,0.013051 -0.01188,0.00875 -0.02063,0.024221 -0.02636,0.046446 l -0.05175,-0.00715 c 0.0047,-0.022112 0.01245,-0.040092 0.02319,-0.053655 0.01077,-0.013677 0.02644,-0.024221 0.04684,-0.031572 0.0204,-0.00735 0.04403,-0.011056 0.07098,-0.011056 0.02673,0 0.04835,0.00322 0.06502,0.00946 0.0167,0.00633 0.02895,0.014162 0.0369,0.023708 0.0078,0.00955 0.01328,0.021513 0.01647,0.036103 0.0017,0.00903 0.0026,0.025303 0.0026,0.04884 l 0,0.070667 c 0,0.049353 0.0011,0.080526 0.0034,0.093491 0.0022,0.013051 0.0067,0.025617 0.01336,0.037584 l -0.05537,0 c -0.0054,-0.01097 -0.0091,-0.023822 -0.01057,-0.03861 z m -0.0044,-0.118395 c -0.01929,0.00792 -0.04816,0.014561 -0.08654,0.020089 -0.02183,0.00313 -0.0373,0.00664 -0.04625,0.010572 -0.0091,0.0039 -0.0161,0.00963 -0.02091,0.017268 -0.0049,0.00755 -0.0074,0.0159 -0.0074,0.025132 0,0.01419 0.0054,0.025959 0.01607,0.03539 0.01066,0.00935 0.02636,0.014076 0.04696,0.014076 0.0204,0 0.03861,-0.00442 0.05448,-0.013364 0.01587,-0.00895 0.02764,-0.021229 0.03508,-0.036701 0.0057,-0.011968 0.0085,-0.029634 0.0085,-0.052972 l 0,-0.01949 z"
   id="path40"
   style="fill:#2b2a29;fill-rule:nonzero" />
  <g
   id="_310821320">
   <path
   d="m 16.8359,8.8067 c 0.175442,0 0.314353,-0.146035 0.314353,-0.321306 0,-0.175242 -0.138911,-0.313954 -0.314353,-0.313954 -0.1751,0 -0.313441,0.138712 -0.313441,0.313954 0,0.175271 0.138342,0.321306 0.313441,0.321306 z"
   id="_310821248"
   style="fill:#fefefe;stroke:#2b2a29;stroke-width:0.0440812" />
   <path
   d="m 16.8359,8.66066 c 0.09514,0 0.175442,-0.080412 0.175442,-0.175271 0,-0.094973 -0.0803,-0.167976 -0.175442,-0.167976 -0.09472,0 -0.1751,0.073003 -0.1751,0.167976 0,0.094859 0.08038,0.175271 0.1751,0.175271"
   id="_310821344"
   style="fill:none;stroke:#2b2a29;stroke-width:0.0529146" />
  </g>
  <path
   d="m 13.6357,7.27212 0.116201,0 0,0.171709 c 0,0.05565 0.0017,0.092665 0.005,0.110759 0.0032,0.018265 0.01299,0.034023 0.02921,0.047415 0.01621,0.013393 0.04009,0.020089 0.07144,0.020089 0.02493,0 0.04707,-0.00333 0.06648,-0.01003 0.01932,-0.00672 0.03607,-0.016584 0.05026,-0.029663 l 0,-0.310278 0.11623,0 0,0.719575 -0.11623,0 0,-0.289677 c -0.02359,0.01325 -0.04676,0.023109 -0.06956,0.029834 -0.02279,0.0067 -0.04516,0.01003 -0.06713,0.01003 -0.05739,0 -0.105373,-0.016897 -0.143955,-0.050749 -0.03861,-0.034023 -0.0579,-0.092665 -0.0579,-0.176097 l 0,-0.242917 z m 0.815175,0.553708 0.110046,0.022967 c -0.01422,0.050407 -0.03647,0.088789 -0.06702,0.11509 -0.03043,0.026471 -0.06864,0.039551 -0.114463,0.039551 -0.07252,0 -0.126117,-0.029492 -0.160966,-0.088818 -0.02747,-0.047415 -0.04129,-0.107396 -0.04129,-0.179602 0,-0.086453 0.01809,-0.154128 0.05428,-0.203053 0.03605,-0.048925 0.08175,-0.073374 0.136974,-0.073374 0.06206,0 0.110987,0.025617 0.146918,0.076907 0.03576,0.051262 0.05291,0.129679 0.05143,0.235394 l -0.276484,0 c 7.98e-4,0.040861 0.0097,0.07269 0.02667,0.095315 0.01701,0.022796 0.03832,0.034194 0.06366,0.034194 0.0173,0 0.03177,-0.00587 0.04357,-0.01761 0.0118,-0.011882 0.02077,-0.030831 0.02667,-0.056961 z m 0.0063,-0.139396 c -8.26e-4,-0.040035 -0.009,-0.070353 -0.02465,-0.091126 -0.0157,-0.020773 -0.03488,-0.031173 -0.05739,-0.031173 -0.02411,0 -0.04394,0.011056 -0.05964,0.032997 -0.01567,0.021798 -0.02345,0.051604 -0.02317,0.089302 l 0.164842,0 z m 0.196357,-0.215961 0.102923,0 0,0.076565 c 0.01328,-0.026301 0.03134,-0.047558 0.05414,-0.063828 0.0228,-0.016413 0.04813,-0.024619 0.07588,-0.024619 0.04836,0 0.08953,0.023793 0.123154,0.071208 0.03379,0.047415 0.05069,0.11358 0.05069,0.198351 0,0.086966 -0.01704,0.15464 -0.05095,0.20291 -0.03405,0.048241 -0.07534,0.072376 -0.123695,0.072376 -0.02308,0 -0.04397,-0.0057 -0.06274,-0.017097 -0.01861,-0.011569 -0.03833,-0.031173 -0.0591,-0.058984 l 0,0.262721 -0.110303,0 0,-0.719604 z m 0.10922,0.251807 c 0,0.058471 0.0093,0.101868 0.0279,0.129679 0.01846,0.027982 0.04115,0.042058 0.06793,0.042058 0.02562,0 0.04693,-0.012908 0.06394,-0.038525 0.01701,-0.025645 0.02562,-0.067846 0.02562,-0.126317 0,-0.054795 -0.0089,-0.095343 -0.02642,-0.121815 -0.01755,-0.026471 -0.03929,-0.039693 -0.06514,-0.039693 -0.02696,0 -0.04932,0.01288 -0.06716,0.039038 -0.01781,0.025959 -0.02667,0.064483 -0.02667,0.115574 z m 0.380774,-0.251807 0.110046,0 0,0.212941 c 0.01824,-0.00251 0.03123,-0.00955 0.03887,-0.021086 0.0075,-0.011398 0.01675,-0.03653 0.0275,-0.075083 0.01405,-0.051433 0.02961,-0.084259 0.04636,-0.098677 0.01675,-0.01439 0.03872,-0.021599 0.06594,-0.021599 0.0083,0 0.02291,8.263e-4 0.04357,0.00251 l 3.99e-4,0.091297 c -0.02907,0 -0.04773,0.00336 -0.05576,0.01023 -0.0082,0.00721 -0.01687,0.028666 -0.02627,0.064341 -0.01285,0.04807 -0.03134,0.077733 -0.05534,0.088789 0.03471,0.012224 0.0642,0.049923 0.08831,0.113437 0.0012,0.00333 0.0027,0.0067 0.0043,0.010372 l 0.06166,0.143756 -0.118623,0 -0.05497,-0.150623 c -0.01126,-0.030489 -0.02103,-0.050094 -0.02921,-0.058813 -0.0083,-0.00852 -0.02049,-0.01288 -0.03673,-0.01288 l 0,0.222315 -0.110046,0 0,-0.521224 z m 0.489367,0.159 -0.10013,-0.022625 c 0.01128,-0.050407 0.03058,-0.087621 0.05804,-0.111898 0.02761,-0.024135 0.06836,-0.036359 0.122499,-0.036359 0.04935,0 0.08594,0.00738 0.110046,0.021941 0.02399,0.014589 0.041,0.032997 0.05081,0.055451 0.0098,0.022454 0.01473,0.063515 0.01473,0.123496 l -0.0012,0.160995 c 0,0.045734 0.0017,0.079586 0.0054,0.101355 0.0035,0.021627 0.01017,0.045078 0.01983,0.069869 l -0.10922,0 c -0.0028,-0.0092 -0.0064,-0.022796 -0.0106,-0.040719 -0.0017,-0.00821 -0.0031,-0.013564 -0.0039,-0.016242 -0.01889,0.022938 -0.03901,0.040035 -0.06047,0.051604 -0.02146,0.011398 -0.04437,0.017097 -0.06876,0.017097 -0.04288,0 -0.07679,-0.014589 -0.101441,-0.043568 -0.02482,-0.02915 -0.03716,-0.066022 -0.03716,-0.110588 0,-0.029321 0.0056,-0.055622 0.0169,-0.078731 0.01126,-0.023138 0.0271,-0.040719 0.04733,-0.052943 0.02023,-0.012224 0.04958,-0.022967 0.08779,-0.03217 0.05146,-0.012053 0.08722,-0.023451 0.107083,-0.033852 l 0,-0.013734 c 0,-0.026642 -0.0052,-0.045392 -0.01567,-0.05679 -0.01046,-0.011227 -0.03017,-0.016926 -0.05924,-0.016926 -0.01972,0 -0.03499,0.00487 -0.04599,0.014589 -0.011,0.00955 -0.01983,0.026472 -0.02667,0.050749 z m 0.147574,0.111927 c -0.01408,0.00587 -0.03647,0.012908 -0.06716,0.021114 -0.03055,0.00821 -0.05052,0.016242 -0.06004,0.023936 -0.01433,0.012908 -0.02157,0.029008 -0.02157,0.048612 0,0.019433 0.0058,0.036017 0.0173,0.050094 0.01151,0.014048 0.02613,0.021086 0.04394,0.021086 0.01998,0 0.03887,-0.00821 0.05696,-0.024448 0.01342,-0.012395 0.02211,-0.02764 0.02627,-0.045734 0.003,-0.01174 0.0043,-0.034194 0.0043,-0.06719 l 0,-0.027469 z m 0.580892,-0.116771 -0.10885,0.024448 c -0.0036,-0.027127 -0.01194,-0.047586 -0.02493,-0.06132 -0.01299,-0.013734 -0.02975,-0.020602 -0.05038,-0.020602 -0.02761,0 -0.04947,0.011882 -0.06582,0.035504 -0.01636,0.023793 -0.02453,0.063515 -0.02453,0.119136 0,0.061805 0.0083,0.105544 0.02493,0.131018 0.01664,0.025446 0.03887,0.038183 0.06691,0.038183 0.02103,0 0.03807,-0.00735 0.05143,-0.022283 0.01342,-0.014903 0.02279,-0.040548 0.02829,-0.076736 l 0.108451,0.022967 c -0.01128,0.062147 -0.033,0.10922 -0.06488,0.140906 -0.03188,0.031828 -0.07466,0.047586 -0.128425,0.047586 -0.06098,0 -0.109619,-0.023964 -0.145807,-0.072063 -0.03633,-0.048071 -0.05442,-0.114748 -0.05442,-0.199861 0,-0.08594 0.01824,-0.152959 0.05457,-0.200887 0.03645,-0.048071 0.08563,-0.072035 0.147688,-0.072035 0.05081,0 0.09115,0.013734 0.121188,0.041032 0.02986,0.027326 0.05143,0.069043 0.0646,0.125006 z m 0.08081,-0.154156 0.106,0 0,0.327375 0.169686,-0.327375 0.108308,0 0,0.521224 -0.106029,0 0,-0.333245 -0.171965,0.333245 -0.106,0 0,-0.521224 z"
   id="path45"
   style="fill:#2b2a29;fill-rule:nonzero" />
 </g>
</svg>