<?xml version="1.0" encoding="UTF-8" standalone="no"?>
<!-- Created with Inkscape (http://www.inkscape.org/) -->

<svg
   xmlns:svg="http://www.w3.org/2000/svg"
   xmlns="http://www.w3.org/2000/svg"
   version="1.1"
   width="66.783897mm"
   height="33.902401mm"
   viewBox="0 0 72.3639 36.735"
   id="svg2"
   xml:space="preserve"
   style="fill-rule:evenodd">
 <defs
   id="defs4">
  <style
   type="text/css"
   id="style6" />
 </defs>
 <g
   id="Layer_x0020_1">
  
  <polygon
   points="0.275873,35.2123 2.15898,32.5839 1.96502,30.2565 1.30037,28.072 0.774632,25.3854 2.32476,23.1982 3.3498,20.6509 4.5117,21.0947 6.08978,20.0152 6.08978,18.4089 6.754,18.2705 7.28039,18.1869 7.11461,16.886 8.222,15.8064 9.43969,15.8623 10.1876,13.9799 11.7098,12.5966 13.6748,11.1288 15.6409,10.5467 17.6061,10.3258 18.852,10.8515 20.3744,10.9897 21.5372,11.4329 21.3159,9.52259 21.1772,7.55735 21.6207,5.9798 21.2326,4.06961 20.8179,2.18672 20.7341,1.07954 22.6167,0 24.9695,1.07954 26.2715,0.443065 27.4344,1.24533 28.0161,1.96524 28.3204,3.04554 30.1193,3.21165 31.2268,2.68494 31.7246,2.68494 32.6656,1.88235 33.3305,2.02061 33.6898,3.12854 33.773,4.65104 34.4927,5.53652 35.2955,4.37333 35.7391,4.73339 36.3197,5.9798 37.4831,6.92065 38.784,7.14267 39.947,7.72421 41.2756,8.08374 42.4938,7.64002 43.8779,7.33598 44.8466,7.86215 45.6215,9.02513 46.5902,10.27 47.8916,10.9073 49.0544,10.4081 48.9159,8.94213 50.2167,9.30176 51.0206,9.16285 50.8819,8.44315 49.7745,7.41919 49.8576,6.83776 51.1585,7.1975 51.8227,6.83776 51.9617,5.75822 52.9857,6.33943 53.6505,5.2315 54.369,5.2315 55.0901,6.83776 57.055,6.39383 59.0205,6.11904 60.5709,6.33943 62.0929,6.5608 63.1727,6.25643 65.1385,6.39383 65.4435,4.95487 67.8511,5.01111 69.236,5.01111 70.1773,5.45287 71.0353,6.69971 71.4783,7.77796 71.699,8.88611 71.6161,9.96619 71.7832,10.8515 72.3639,11.2113 71.699,11.9314 71.0353,13.399 69.8725,13.399 68.9318,12.8736 68.2117,11.7098 66.8828,11.9314 66.1632,13.9799 64.7787,14.3395 64.114,13.7581 62.3153,14.5606 60.7086,12.2913 59.4079,13.3158 60.1837,14.6172 58.4396,15.0042 56.5566,14.1187 55.754,12.7346 52.5424,12.7346 51.5463,13.6204 53.5668,16.1677 52.709,16.886 50.5221,14.6996 49.0544,16.8038 47.2275,18.5477 47.2275,19.8767 45.2071,20.5135 44.2653,20.0152 43.2411,20.9283 40.3345,21.0115 39.4485,23.8348 34.4927,28.7357 30.4789,28.072 29.9808,29.0123 26.7699,29.2337 24.7485,30.0369 20.07,29.3166 15.7238,29.8142 10.9077,30.1192 9.38411,31.6422 7.55724,33.2481 6.754,34.9085 4.5117,36.6526 0,36.735 "
   id="polygon10"
   style="fill:#ffdf49" />
  <g
   id="_387110752">
   <path
   d="m 9.11344,19.2547 c 0.51122,0 0.935864,-0.403515 0.935864,-0.914843 0,-0.509812 -0.424644,-0.914518 -0.935864,-0.914518 -0.488249,0 -0.892739,0.404707 -0.892739,0.914518 0,0.511328 0.40449,0.914843 0.892739,0.914843 z"
   id="_387110848"
   style="fill:#fefefe;stroke:#2b2a29;stroke-width:0.128401" />
   <path
   d="m 9.12611,18.5582 c 0.118541,0 0.218553,-0.100012 0.218553,-0.218336 0,-0.117891 -0.100012,-0.218336 -0.218553,-0.218336 -0.10933,0 -0.199915,0.100445 -0.199915,0.218336 0,0.118324 0.090585,0.218336 0.199915,0.218336 z"
   id="_387110800"
   style="fill:#2b2a29;stroke:#2b2a29;stroke-width:0.0825667" />
  </g>
  <g
   id="_387110416">
   <path
   d="m 45.1565,10.8204 c 0.510678,0 0.935431,-0.404165 0.935431,-0.914952 0,-0.510028 -0.424753,-0.914193 -0.935431,-0.914193 -0.488466,0 -0.892956,0.404165 -0.892956,0.914193 0,0.510787 0.40449,0.914952 0.892956,0.914952 z"
   id="_387110512"
   style="fill:#fefefe;stroke:#2b2a29;stroke-width:0.128401" />
   <path
   d="m 45.1687,10.1245 c 0.118324,0 0.218769,-0.100229 0.218769,-0.219094 0,-0.117457 -0.100445,-0.217902 -0.218769,-0.217902 -0.109005,0 -0.19959,0.100445 -0.19959,0.217902 0,0.118866 0.09058,0.219094 0.19959,0.219094 z"
   id="_387110464"
   style="fill:#2b2a29;stroke:#2b2a29;stroke-width:0.0825667" />
  </g>
  <path
   d="m 9.88016,21.7336 0,-1.64169 0.616108,0 c 0.125367,0 0.225921,0.0168 0.301661,0.04963 0.07606,0.03327 0.135227,0.08452 0.178028,0.153648 0.04291,0.06881 0.06469,0.141079 0.06469,0.216819 0,0.06989 -0.01918,0.135986 -0.05743,0.197965 -0.03782,0.06187 -0.09546,0.112039 -0.172285,0.15018 0.09936,0.02904 0.175427,0.07877 0.228955,0.148772 0.05342,0.07032 0.08018,0.153214 0.08018,0.248784 0,0.07682 -0.01636,0.148338 -0.04887,0.214435 -0.03251,0.0661 -0.0726,0.117024 -0.120383,0.152889 -0.04778,0.03597 -0.107813,0.06274 -0.179653,0.08105 -0.07195,0.01831 -0.160149,0.02752 -0.264929,0.02752 l -0.6260765,0 z m 0.217469,-0.951793 0.35508,0 c 0.096,0 0.165133,-0.0065 0.207175,-0.01907 0.05504,-0.01647 0.09676,-0.04356 0.124609,-0.08181 0.02796,-0.03825 0.04204,-0.08603 0.04204,-0.143354 0,-0.05429 -0.013,-0.102396 -0.03901,-0.143679 -0.02633,-0.04172 -0.06382,-0.07 -0.111931,-0.08527 -0.04854,-0.01528 -0.131868,-0.02297 -0.249976,-0.02297 l -0.327991,0 0,0.496159 z m 0,0.757945 0.408608,0 c 0.07032,0 0.119624,-0.0026 0.147905,-0.0076 0.05006,-0.0092 0.09178,-0.02406 0.125367,-0.04508 0.0337,-0.0207 0.06122,-0.05125 0.083,-0.09102 0.02135,-0.04009 0.03251,-0.08603 0.03251,-0.13837 0,-0.06111 -0.01571,-0.114315 -0.04703,-0.159824 -0.03142,-0.04508 -0.07498,-0.07682 -0.130785,-0.09514 -0.05537,-0.01799 -0.135661,-0.02709 -0.240007,-0.02709 l -0.379568,0 0,0.564098 z m 1.29582,-0.995351 0.201432,0 0,0.90715 0.558788,-0.90715 0.217144,0 0,1.1892 -0.201432,0 0,-0.901299 -0.558788,0.901299 -0.217144,0 0,-1.1892 z m 1.99991,0 0,0.513821 c 0.06425,0 0.109656,-0.01224 0.135661,-0.03673 0.02601,-0.02481 0.06426,-0.09633 0.114315,-0.215194 0.04703,-0.112798 0.08907,-0.184637 0.126559,-0.215952 0.0363,-0.03056 0.09481,-0.04594 0.174669,-0.04594 l 0.07379,0 0,0.16665 -0.05472,-0.0011 c -0.05385,0 -0.08831,0.008 -0.103154,0.02373 -0.01571,0.01636 -0.03944,0.06534 -0.07152,0.146713 -0.03023,0.07758 -0.05775,0.13111 -0.08289,0.160908 -0.02568,0.03023 -0.06501,0.05743 -0.118974,0.08181 0.08755,0.02341 0.172393,0.104021 0.255393,0.241957 l 0.221695,0.368516 -0.221695,0 -0.215952,-0.368516 c -0.04399,-0.07455 -0.08257,-0.123417 -0.115507,-0.146713 -0.03283,-0.02297 -0.07184,-0.03446 -0.117674,-0.03446 l 0,0.549686 -0.205983,0 0,-0.549686 c -0.04475,0 -0.08333,0.01116 -0.116265,0.03402 -0.03283,0.02254 -0.07151,0.07184 -0.115398,0.147146 l -0.216385,0.368516 -0.221695,0 0.220936,-0.368516 c 0.08333,-0.137936 0.168926,-0.218553 0.256152,-0.241957 -0.0597,-0.02752 -0.101312,-0.05765 -0.125367,-0.09015 -0.02373,-0.03218 -0.0597,-0.109764 -0.107488,-0.232097 -0.01636,-0.04117 -0.03402,-0.06642 -0.05277,-0.07639 -0.01907,-0.0095 -0.04811,-0.01452 -0.08592,-0.01452 -0.01,0 -0.02947,3.25e-4 -0.0597,0.0011 l 0,-0.16665 0.02828,0 c 0.07769,0 0.132302,0.0047 0.16405,0.01376 0.03175,0.0096 0.06003,0.02915 0.08517,0.0597 0.02492,0.03012 0.05743,0.09286 0.09795,0.18843 0.0493,0.117349 0.08668,0.18843 0.112364,0.214002 0.026,0.02525 0.07108,0.03792 0.136094,0.03792 l 0,-0.513821 0.205983,0 z m 0.816457,0 0.201866,0 0,0.495075 0.558788,0 0,-0.495075 0.201432,0 0,1.1892 -0.201432,0 0,-0.527473 -0.558788,0 0,0.527473 -0.201866,0 0,-1.1892 z m 1.26559,0 0.201432,0 0,0.90715 0.558788,-0.90715 0.217144,0 0,1.1892 -0.201432,0 0,-0.901299 -0.558788,0.901299 -0.217144,0 0,-1.1892 z m 1.28433,0 0.201866,0 0,1.02331 0.557705,0 0,-1.02331 0.201432,0 0,1.02331 0.129918,0 0,0.502985 -0.165892,0 0,-0.337093 -0.925029,0 0,-1.1892 z m 2.24685,0 0,1.1892 -0.200674,0 0,-0.463652 -0.116157,0 c -0.07108,0 -0.12385,0.0092 -0.158632,0.02752 -0.03478,0.01831 -0.08528,0.07726 -0.151806,0.176186 l -0.175752,0.259944 -0.249651,0 0.217144,-0.320298 c 0.06653,-0.09784 0.132627,-0.152889 0.198398,-0.165567 -0.115073,-0.01604 -0.200349,-0.05732 -0.256152,-0.124609 -0.05537,-0.06686 -0.08332,-0.144438 -0.08332,-0.231555 0,-0.103263 0.0363,-0.186588 0.10933,-0.250842 0.0726,-0.06415 0.178136,-0.09633 0.316072,-0.09633 l 0.551203,0 z m -0.200674,0.16665 -0.286708,0 c -0.119949,0 -0.197532,0.01875 -0.232314,0.05624 -0.03446,0.03706 -0.05201,0.08105 -0.05201,0.130785 0,0.07108 0.02557,0.122983 0.07682,0.156248 0.05125,0.03327 0.141404,0.05006 0.27143,0.05006 l 0.222778,0 0,-0.39333 z"
   id="path18"
   style="fill:#2b2a29;fill-rule:nonzero" />
  <path
   d="m 42.2705,13.2408 0.635287,-0.855465 -0.55998,-0.786226 0.258319,0 0.298194,0.421177 c 0.06187,0.08712 0.105863,0.154406 0.131868,0.201432 0.03673,-0.05959 0.07986,-0.1219 0.129918,-0.186913 l 0.3307,-0.435697 0.236214,0 -0.576775,0.773657 0.621526,0.868034 -0.268721,0 -0.413267,-0.585552 c -0.0233,-0.0337 -0.04703,-0.07032 -0.07184,-0.109764 -0.03673,0.05959 -0.06263,0.100554 -0.07834,0.123092 l -0.412075,0.572224 -0.261028,0 z m 1.57028,-0.594762 c 0,-0.220178 0.06111,-0.383361 0.183879,-0.489224 0.102071,-0.08798 0.226679,-0.132302 0.373826,-0.132302 0.163616,0 0.297327,0.05353 0.400914,0.160908 0.104021,0.107055 0.155598,0.25496 0.155598,0.443823 0,0.153214 -0.02297,0.273705 -0.06881,0.361148 -0.04583,0.08798 -0.112689,0.156032 -0.200241,0.204575 -0.08798,0.04854 -0.183554,0.0726 -0.287467,0.0726 -0.166325,0 -0.300794,-0.05309 -0.403623,-0.160149 -0.102829,-0.106622 -0.154081,-0.260269 -0.154081,-0.461377 z m 0.207175,0 c 0,0.152456 0.03327,0.266446 0.0998,0.342078 0.06653,0.07606 0.15018,0.113881 0.250734,0.113881 0.10012,0 0.183445,-0.03814 0.249976,-0.114206 0.0661,-0.07606 0.09936,-0.192331 0.09936,-0.348254 0,-0.147146 -0.03327,-0.258752 -0.10012,-0.334493 -0.06686,-0.07563 -0.149855,-0.113448 -0.249217,-0.113448 -0.100554,0 -0.184204,0.03782 -0.250734,0.113123 -0.06653,0.07531 -0.0998,0.189188 -0.0998,0.341319 z m 0.984299,-0.594437 0.966637,0 0,0.16665 -0.383036,0 0,1.02255 -0.200674,0 0,-1.02255 -0.382928,0 0,-0.16665 z m 1.15929,0 0.201432,0 0,0.90715 0.558788,-0.90715 0.217144,0 0,1.1892 -0.201432,0 0,-0.901299 -0.558788,0.901299 -0.217144,0 0,-1.1892 z m 1.28206,0 0.201866,0 0,0.495075 0.558788,0 0,-0.495075 0.201432,0 0,1.1892 -0.201432,0 0,-0.527473 -0.558788,0 0,0.527473 -0.201866,0 0,-1.1892 z"
   id="path20"
   style="fill:#2b2a29;fill-rule:nonzero" />
  <g
   id="_387104416">
   <path
   d="m 29.9673,16.6049 c 0.66606,0 1.22149,-0.556079 1.22149,-1.19462 0,-0.666277 -0.555429,-1.22062 -1.22149,-1.22062 -0.638863,0 -1.19397,0.554346 -1.19397,1.22062 0,0.638538 0.555104,1.19462 1.19397,1.19462 z"
   id="_387104512"
   style="fill:#fefefe;stroke:#2b2a29;stroke-width:0.16762599" />
   <path
   d="m 29.9673,16.0488 c 0.38867,0 0.66606,-0.277281 0.66606,-0.638538 0,-0.360173 -0.277389,-0.666277 -0.66606,-0.666277 -0.361148,0 -0.638863,0.306104 -0.638863,0.666277 0,0.361256 0.277715,0.638538 0.638863,0.638538"
   id="_387104464"
   style="fill:none;stroke:#2b2a29;stroke-width:0.201216" />
  </g>
  <path
   d="m 23.7612,17.3573 0.441873,0 0,0.652949 c 0,0.211618 0.0066,0.352371 0.01885,0.421177 0.01224,0.06946 0.04952,0.129376 0.111173,0.180303 0.06155,0.05093 0.152348,0.07639 0.271647,0.07639 0.0947,0 0.178895,-0.01268 0.252793,-0.03814 0.07336,-0.02557 0.137069,-0.06306 0.191139,-0.112798 l 0,-1.17988 0.441873,0 0,2.7363 -0.441873,0 0,-1.10154 c -0.08972,0.05039 -0.177919,0.08788 -0.264604,0.113448 -0.08658,0.02546 -0.171743,0.03814 -0.255285,0.03814 -0.218228,0 -0.400698,-0.06425 -0.547411,-0.192981 -0.146713,-0.129376 -0.220178,-0.352371 -0.220178,-0.669636 l 0,-0.923729 z m 3.09983,2.10556 0.418468,0.08733 c -0.05407,0.19168 -0.138695,0.337635 -0.254852,0.437647 -0.115723,0.100662 -0.260919,0.150397 -0.435155,0.150397 -0.275764,0 -0.479689,-0.112148 -0.612207,-0.337743 -0.104454,-0.180303 -0.157007,-0.408391 -0.157007,-0.682963 0,-0.32875 0.06881,-0.586094 0.206417,-0.77214 0.137178,-0.186046 0.31098,-0.279015 0.520864,-0.279015 0.236106,0 0.422044,0.09741 0.55868,0.292451 0.135986,0.194931 0.201324,0.493125 0.19569,0.895123 l -1.05137,0 c 0.003,0.155381 0.03662,0.276414 0.101421,0.362448 0.06458,0.08668 0.145629,0.130026 0.241957,0.130026 0.06577,0 0.120816,-0.02232 0.165675,-0.06696 0.04486,-0.04518 0.0791,-0.11724 0.101421,-0.216602 z m 0.02406,-0.530074 c -0.0031,-0.152239 -0.03424,-0.267529 -0.09384,-0.34652 -0.0596,-0.07899 -0.132518,-0.118541 -0.218228,-0.118541 -0.09167,0 -0.167084,0.04204 -0.226679,0.125475 -0.0597,0.08289 -0.08929,0.196231 -0.0882,0.339585 l 0.626944,0 z m 0.746568,-0.821225 0.391488,0 0,0.291151 c 0.05039,-0.100012 0.119191,-0.180845 0.205875,-0.242716 0.08668,-0.06241 0.183012,-0.09362 0.288442,-0.09362 0.183987,0 0.340561,0.09048 0.46842,0.27078 0.128401,0.180303 0.192656,0.431904 0.192656,0.754261 0,0.3307 -0.0648,0.588044 -0.193631,0.771598 -0.129485,0.183445 -0.286491,0.275222 -0.470479,0.275222 -0.08766,0 -0.167192,-0.02167 -0.23849,-0.06501 -0.07086,-0.04399 -0.145846,-0.118541 -0.224837,-0.224295 l 0,0.999036 -0.419443,0 0,-2.7364 z m 0.415434,0.957535 c 0,0.222345 0.03511,0.38737 0.105971,0.493125 0.07032,0.106405 0.156465,0.159932 0.258427,0.159932 0.0973,0 0.178353,-0.04908 0.243149,-0.146496 0.06469,-0.09752 0.0973,-0.257994 0.0973,-0.480339 0,-0.208367 -0.0337,-0.362557 -0.100445,-0.463219 -0.06675,-0.100662 -0.149314,-0.150939 -0.2477,-0.150939 -0.102396,0 -0.187563,0.04898 -0.255285,0.148447 -0.06783,0.09871 -0.101421,0.245208 -0.101421,0.439489 z m 1.44795,-0.957535 0.419985,0 0,0.725655 0.599855,0 0,-0.725655 0.421502,0 0,1.98203 -0.421502,0 0,-0.83271 -0.599855,0 0,0.83271 -0.419985,0 0,-1.98203 z m 1.86382,-0.268829 0,-0.485432 0.419552,0 0,0.485432 -0.419552,0 z m 0,2.25086 0,-1.98203 0.419552,0 0,1.98203 -0.419552,0 z m 0.853731,-1.98203 0.918419,0 c 0.188105,0 0.329292,0.04269 0.422586,0.128726 0.09373,0.08603 0.140537,0.215302 0.140537,0.38802 0,0.110847 -0.0259,0.207067 -0.07682,0.2892 -0.05147,0.08224 -0.115723,0.136961 -0.193739,0.164375 0.109547,0.03381 0.191139,0.09622 0.2451,0.188538 0.05364,0.09243 0.08051,0.193089 0.08051,0.302636 0,0.15419 -0.04529,0.279665 -0.135552,0.375884 -0.09069,0.09622 -0.224729,0.144654 -0.402106,0.144654 l -0.998927,0 0,-1.98203 z m 0.423019,0.823175 0.27013,0 c 0.13046,0 0.224729,-0.02102 0.282916,-0.06176 0.05808,-0.04085 0.08712,-0.105755 0.08712,-0.194389 0,-0.08343 -0.02698,-0.142704 -0.08105,-0.177703 -0.0545,-0.03565 -0.150831,-0.05353 -0.288983,-0.05353 l -0.27013,0 0,0.487382 z m 0,0.823067 0.331242,0 c 0.119299,0 0.206417,-0.01842 0.261461,-0.05407 0.0545,-0.0363 0.08213,-0.101312 0.08213,-0.194389 0,-0.09676 -0.03164,-0.163725 -0.09438,-0.200674 -0.06263,-0.03695 -0.184421,-0.05472 -0.365807,-0.05472 l -0.214652,0 0,0.503852 z m 1.43733,-1.64624 0.419985,0 0,1.55837 0.598229,0 0,-1.55837 0.419985,0 0,1.55837 0.165675,0 0,0.94605 -0.338935,0 0,-0.522381 -1.26494,0 0,-1.98203 z m 1.89492,-0.268829 0,-0.485432 0.419443,0 0,0.485432 -0.419443,0 z m 0,2.25086 0,-1.98203 0.419443,0 0,1.98203 -0.419443,0 z"
   id="path25"
   style="fill:#2b2a29;fill-rule:nonzero" />
 </g>
</svg>