<?xml version="1.0" encoding="UTF-8" standalone="no"?>
<!-- Created with Inkscape (http://www.inkscape.org/) -->

<svg
   xmlns:svg="http://www.w3.org/2000/svg"
   xmlns="http://www.w3.org/2000/svg"
   version="1.1"
   width="69.1092mm"
   height="76.927498mm"
   viewBox="0 0 15.4907 17.2432"
   id="svg2"
   xml:space="preserve"
   style="fill-rule:evenodd">
 <defs
   id="defs4">
  <style
   type="text/css"
   id="style6" />
 </defs>
 <g
   id="Layer_x0020_1">
  
  <path
   d="m 0.286215,9.50057 0.0573147,-0.017215 0.366639,-0.418037 -0.229147,-0.206216 0.257636,-0.332143 -0.0284893,-0.647027 -0.441057,-0.876196 -0.0115885,-0.526995 0.131665,-0.34344 0.109003,-0.377959 0.251965,-0.154707 0.0629857,-0.555417 0.251898,-0.572744 0.25201,-0.389278 0.395286,-0.045861 0.074328,-0.435274 0.389346,-0.257636 0.183264,-0.664331 0.796153,-0.240399 0.480978,0.211708 0.21182,0.21182 0.332053,-0.045681 0.074597,-0.377847 0.332188,-0.223476 1.86675,0.120188 0.996698,-0.045704 0,0.543941 0.343485,0 0,0.011432 0.423865,0.212089 0.749888,-0.601256 0.320711,-0.149036 0.223319,-0.618537 -0.102705,-0.240377 0.326181,-0.211955 0.080312,-0.315018 -0.183174,-0.154595 -0.046085,-0.269269 0.4240207,-0.0457263 0.257591,0.0916767 0.251898,-0.108914 0.996631,0.561223 0.297602,-0.0171249 0.274828,-0.148767 0.315377,0.21182 0.360162,-0.240556 0.361238,-0.486761 0.04564,0.303587 0.240466,-0.0630081 0.183241,-0.492678 0.40665,-0.062896 0.481022,0.194673 0.3607,-0.177413 0.120457,0.240399 -0.149103,0.177503 c 0,0 -0.108734,0.166139 -0.137156,0.406672 -0.02887,0.240556 0.04573,0.257659 0.04573,0.257659 l -0.02858,0.148991 -0.19474,0.108734 0,0.618448 0.206015,-0.062896 0.183331,0.074372 0.378004,0.40665 0.223386,0.034429 -0.01715,0.286305 -0.269269,0.011544 -0.05707,0.211753 -0.183398,0 -0.07451,-0.286417 -0.148969,0 -0.01706,0.103198 -0.257771,0.080043 -0.02842,0.269225 0.16587,0.074597 0.223409,0.091363 0.166027,0.04595 0.0343,0.286282 -0.120233,0.05727 -0.120233,0.166139 -0.09152,0 -0.06285,-0.07444 -0.103332,-0.028534 -0.194987,0.165937 -0.18286,0.045838 -0.103243,0.103063 -0.183465,0.028713 -0.119942,0.183241 -0.137515,0.166027 0,0.314928 -0.240556,0.240646 0.09168,0.257659 0.06301,0.297691 0.297669,0.15473 0.09168,0.206082 -0.223162,0.366438 0.251965,0 0,0.297848 0.16587,0.240578 -0.257771,0 -0.01134,0.21182 0.194897,0.028646 -0.14879,0.349447 -0.19483,0.011342 -0.01724,0.515452 0.269202,0.257636 -0.0919,0.446728 -0.297691,0.017192 -0.269113,-0.452556 0.07484,-0.165959 -0.109115,-0.057292 -0.131822,0.25201 0.343642,0.498282 0.09156,0.286215 -0.228878,0.108914 0.183017,0.148879 -0.01715,0.257659 -0.148722,0.194718 0.02849,0.240466 -0.28626,0.1031984 c 0,0 -0.0572,-0.057382 -0.0572,0.21182 0,0.269157 0.103153,0.120233 0.103153,0.120233 l -0.211977,0.423685 0.200321,0.04597 0.435206,0.343552 -0.04586,0.452376 0.137381,0 0.08619,-0.240399 0.395061,0.269157 -0.0173,0.10869 0.257771,0 0.01706,0.704409 -0.228811,-0.01154 -0.04602,0.269202 0.0631,0.360812 -0.09143,0.183331 0.165646,0.452242 0.297983,0.05736 -0.05729,0.332009 -0.3607,-0.02844 0,0.389234 -0.240309,0 0.02833,0.212044 -0.314996,0.75009 0.09183,0.0802 0.03459,0.0115 0.205791,0.02862 -0.211731,-0.02862 -0.28635,0.51534 -0.228945,-0.08004 -0.04595,0.320599 -0.297848,0.04586 c 0,0 -0.04586,-0.03443 -0.06294,0.269113 -0.01159,0.303587 -0.149036,0.103132 -0.149036,0.103132 l -0.223319,0.06298 -0.120233,0.223274 c 0,0 -0.166184,-0.0858 -0.469344,0.06312 -0.303788,0.148857 -0.120614,-0.13756 -0.120614,-0.13756 l -0.183174,-0.02858 -0.03985,0.103019 -0.424089,-0.01145 -0.103086,0.120368 -0.320711,-0.154595 -0.02849,-0.326562 -0.589891,0.05734 -0.028646,-0.103086 -0.148655,0 -0.017304,0.20606 -0.166184,0.0173 0,0.148947 -0.149036,0.08002 -0.028579,0.177638 -0.166004,0.02869 -0.120413,-0.10322 -0.286237,-0.01713 c 0.02293,0.02304 -0.011207,0 -0.045883,-0.206127 l -0.314749,0.177346 -0.137448,-0.04566 0.240466,-0.481067 -0.314996,0.02858 -0.303407,-0.372131 -0.028646,-0.423752 0.211977,-0.01737 0.057225,0.108891 0.200321,-0.183219 -0.080021,-0.166072 -0.527175,0.02862 -0.326181,-0.372176 -0.080156,-0.360812 -0.326584,-0.01706 -0.034362,0.223162 -0.131575,0 -0.120233,0.320577 -0.28626,-0.04568 -0.062941,0 -0.120457,0.103108 -0.183331,-0.01152 -0.039831,0.314884 -0.349582,-0.120054 -0.091587,0.177346 -0.085871,-0.16587 -0.30334,0.03425 -0.149036,0.177615 -0.154662,0.04582 -0.223476,-0.269157 -0.394994,0.240466 0.017058,-0.22899 -0.297602,-0.07453 -0.045883,-0.223364 -0.498215,-0.06296 -0.028736,-0.297736 0.297848,-0.01726 -0.057539,-0.360767 0.120704,-0.09174 -0.07444,-0.314861 -0.166184,0.0286 -0.04595,-0.240466 -0.21182,-0.211775 0.028669,-0.269202 -0.103175,-0.06316 -0.229102,0.212022 -0.538225,0 -0.561043,-0.148857 0,0.148857 -0.194875,0.04579 0,-0.21182 -0.463651,-0.02865 0,-0.194718 -0.137605,-0.01715 0.017237,-0.177615 0.14879,-0.08004 -0.028422,-0.463897 -0.229304,-0.07449 -0.20597,-0.423708 -0.0115212,-0.435408 -0.229192,-0.04586 -0.0916543,-0.166004 -0.526771,0 L 0.028577,10.846428 0.137491,10.571443 -2e-6,10.256537 0.166114,9.9989014 0.1374903,9.7581884 0.3034493,9.7468017 0.2862123,9.5005747 z"
   id="path10"
   style="fill:#ffdf49" />
  <g
   id="_310452880">
   <path
   d="m 14.3223,3.39793 c 0.105955,0 0.193844,-0.08363 0.193844,-0.189293 0,-0.105619 -0.08789,-0.189159 -0.193844,-0.189159 -0.100844,0 -0.184384,0.08354 -0.184384,0.189159 0,0.105664 0.08354,0.189293 0.184384,0.189293 z"
   id="_310452712"
   style="fill:#fefefe;stroke:#2b2a29;stroke-width:0.0265616" />
   <path
   d="m 14.3249,3.25396 c 0.02457,0 0.04526,-0.020734 0.04526,-0.045323 0,-0.024499 -0.02069,-0.045099 -0.04526,-0.045099 -0.02246,0 -0.04115,0.020599 -0.04115,0.045099 0,0.024589 0.01869,0.045323 0.04115,0.045323 z"
   id="_310452856"
   style="fill:#2b2a29;stroke:#2b2a29;stroke-width:0.0170801" />
  </g>
  <g
   id="_310553872">
   <path
   d="m 9.97566,15.1207 c 0.105776,0 0.193507,-0.08349 0.193507,-0.189271 0,-0.105507 -0.08773,-0.189069 -0.193507,-0.189069 -0.101091,0 -0.184721,0.08356 -0.184721,0.189069 0,0.105776 0.08363,0.189271 0.184721,0.189271 z"
   id="_310452736"
   style="fill:#fefefe;stroke:#2b2a29;stroke-width:0.0265616" />
   <path
   d="m 9.97828,14.9768 c 0.024387,0 0.045166,-0.02078 0.045166,-0.0453 0,-0.02434 -0.02078,-0.04508 -0.045166,-0.04508 -0.022706,0 -0.041535,0.02073 -0.041535,0.04508 0,0.02452 0.018828,0.0453 0.041535,0.0453 z"
   id="_310553968"
   style="fill:#2b2a29;stroke:#2b2a29;stroke-width:0.0170801" />
  </g>
  <g
   id="_178230720">
   <path
   d="m 7.31645,11.4676 c 0.105574,0 0.193844,-0.08361 0.193844,-0.189316 0,-0.105529 -0.08827,-0.189069 -0.193844,-0.189069 -0.101068,0 -0.184541,0.08354 -0.184541,0.189069 0,0.105708 0.083473,0.189316 0.184541,0.189316 z"
   id="_310553680"
   style="fill:#fefefe;stroke:#2b2a29;stroke-width:0.0265616" />
   <path
   d="m 7.31907,11.3235 c 0.02441,0 0.045345,-0.02069 0.045345,-0.04526 0,-0.02437 -0.020936,-0.04512 -0.045345,-0.04512 -0.022527,0 -0.041221,0.02076 -0.041221,0.04512 0,0.02457 0.018694,0.04526 0.041221,0.04526 z"
   id="_178230648"
   style="fill:#2b2a29;stroke:#2b2a29;stroke-width:0.0170801" />
  </g>
  <g
   id="_306597936">
   <path
   d="m 12.3118,10.1948 c 0.105798,0 0.19353,-0.08356 0.19353,-0.189248 0,-0.105507 -0.08773,-0.189136 -0.19353,-0.189136 -0.101068,0 -0.184474,0.08363 -0.184474,0.189136 0,0.105686 0.08341,0.189248 0.184474,0.189248 z"
   id="_306488456"
   style="fill:#fefefe;stroke:#2b2a29;stroke-width:0.0265616" />
   <path
   d="m 12.3145,10.0509 c 0.02448,0 0.0451,-0.02069 0.0451,-0.0453 0,-0.024365 -0.02062,-0.045099 -0.0451,-0.045099 -0.02271,0 -0.04156,0.020734 -0.04156,0.045099 0,0.02461 0.01885,0.0453 0.04156,0.0453 z"
   id="_306488528"
   style="fill:#2b2a29;stroke:#2b2a29;stroke-width:0.0170801" />
  </g>
  <g
   id="_179915848">
   <path
   d="m 1.44338,7.42101 c 0.105865,0 0.193799,-0.083518 0.193799,-0.189204 0,-0.105507 -0.087933,-0.189136 -0.193799,-0.189136 -0.100979,0 -0.184519,0.08363 -0.184519,0.189136 0,0.105686 0.08354,0.189204 0.184519,0.189204 z"
   id="_178170192"
   style="fill:#fefefe;stroke:#2b2a29;stroke-width:0.0265616" />
   <path
   d="m 1.44609,7.27713 c 0.024589,0 0.045211,-0.020756 0.045211,-0.045323 0,-0.024365 -0.020622,-0.045099 -0.045211,-0.045099 -0.022684,0 -0.041355,0.020734 -0.041355,0.045099 0,0.024567 0.018672,0.045323 0.041355,0.045323 z"
   id="_179607984"
   style="fill:#2b2a29;stroke:#2b2a29;stroke-width:0.0170801" />
  </g>
  <path
   d="m 11.9164,2.39626 0,-0.339607 0.04501,0 0,0.139465 0.176472,0 0,-0.139465 0.04501,0 0,0.339607 -0.04501,0 0,-0.160042 -0.176472,0 0,0.160042 -0.04501,0 z m 0.320398,-0.123035 c 0,-0.045547 0.01264,-0.079304 0.03804,-0.101203 0.02111,-0.018201 0.04689,-0.027369 0.07733,-0.027369 0.03385,0 0.06151,0.011073 0.08294,0.033286 0.02152,0.022146 0.03219,0.052742 0.03219,0.091811 0,0.031695 -0.0048,0.05662 -0.01423,0.074709 -0.0095,0.018201 -0.02331,0.032277 -0.04142,0.042319 -0.0182,0.010042 -0.03797,0.015018 -0.05947,0.015018 -0.03441,0 -0.06222,-0.010983 -0.08349,-0.033129 -0.02127,-0.022056 -0.03187,-0.05384 -0.03187,-0.095442 z m 0.04286,0 c 0,0.031538 0.0069,0.055118 0.02064,0.070764 0.01376,0.015735 0.03107,0.023558 0.05187,0.023558 0.02071,0 0.03795,-0.00789 0.05171,-0.023625 0.01367,-0.015735 0.02055,-0.039786 0.02055,-0.072041 0,-0.030439 -0.0069,-0.053527 -0.02071,-0.069195 -0.01383,-0.015646 -0.031,-0.023468 -0.05155,-0.023468 -0.0208,0 -0.0381,0.00782 -0.05187,0.023401 -0.01376,0.015578 -0.02064,0.039136 -0.02064,0.070607 z m 0.236746,-0.122968 0.09616,0 c 0.02363,0 0.0412,0.00199 0.05274,0.00585 0.01145,0.00397 0.02134,0.011163 0.02963,0.021675 0.0082,0.010513 0.01242,0.023087 0.01242,0.037791 0,0.0117 -0.0024,0.021989 -0.0074,0.030686 -0.0048,0.0087 -0.01217,0.016049 -0.0219,0.021899 0.01163,0.00388 0.0212,0.011073 0.02887,0.021675 0.0077,0.01058 0.01145,0.023087 0.01145,0.037634 -0.0015,0.023334 -0.0099,0.040638 -0.02499,0.051868 -0.01517,0.011319 -0.03716,0.016923 -0.06601,0.016923 l -0.111021,0 0,-0.246003 z m 0.04176,0.103512 0.04443,0 c 0.0178,0 0.02997,-8.742e-4 0.0366,-0.00276 0.0067,-0.00182 0.01257,-0.00563 0.01789,-0.01123 0.0052,-0.00563 0.0078,-0.012418 0.0078,-0.020241 0,-0.012978 -0.0046,-0.022079 -0.01376,-0.027122 -0.0092,-0.00516 -0.0249,-0.00769 -0.04712,-0.00769 l -0.04586,0 0,0.069038 z m 0,0.108174 0.05487,0 c 0.02365,0 0.03985,-0.00269 0.04862,-0.00823 0.0089,-0.00545 0.01345,-0.014951 0.01392,-0.02831 0,-0.00791 -0.0025,-0.015175 -0.0077,-0.021899 -0.0051,-0.00672 -0.0117,-0.010983 -0.01984,-0.012732 -0.0082,-0.00182 -0.02136,-0.00269 -0.03947,-0.00269 l -0.05043,0 0,0.073857 z m 0.210318,-0.211686 0.14155,0 0,0.034474 -0.09979,0 0,0.211529 -0.04176,0 0,-0.246003 z m 0.14684,0.122968 c 0,-0.045547 0.01264,-0.079304 0.03804,-0.101203 0.02111,-0.018201 0.04689,-0.027369 0.07733,-0.027369 0.03385,0 0.06151,0.011073 0.08293,0.033286 0.02152,0.022146 0.03219,0.052742 0.03219,0.091811 0,0.031695 -0.0048,0.05662 -0.01423,0.074709 -0.0095,0.018201 -0.02331,0.032277 -0.04142,0.042319 -0.0182,0.010042 -0.03797,0.015018 -0.05947,0.015018 -0.03441,0 -0.06222,-0.010983 -0.0835,-0.033129 -0.02127,-0.022056 -0.03187,-0.05384 -0.03187,-0.095442 z m 0.04286,0 c 0,0.031538 0.0069,0.055118 0.02064,0.070764 0.01376,0.015735 0.03107,0.023558 0.05187,0.023558 0.02071,0 0.03795,-0.00789 0.05171,-0.023625 0.01367,-0.015735 0.02055,-0.039786 0.02055,-0.072041 0,-0.030439 -0.0069,-0.053527 -0.02071,-0.069195 -0.01383,-0.015646 -0.031,-0.023468 -0.05155,-0.023468 -0.0208,0 -0.0381,0.00782 -0.05187,0.023401 -0.01376,0.015578 -0.02064,0.039136 -0.02064,0.070607 z m 0.236589,0.217289 0,-0.340257 0.03795,0 0,0.031964 c 0.0089,-0.012507 0.01905,-0.021922 0.03037,-0.028153 0.01123,-0.00625 0.0249,-0.00941 0.04095,-0.00941 0.02105,0 0.03954,0.00545 0.05559,0.016206 0.01614,0.010826 0.02824,0.026091 0.03638,0.045794 0.0082,0.01968 0.01233,0.041266 0.01233,0.064757 0,0.025149 -0.0045,0.047833 -0.01361,0.068007 -0.009,0.020151 -0.02212,0.035572 -0.03936,0.046331 -0.01724,0.01067 -0.03535,0.016049 -0.05433,0.016049 -0.01392,0 -0.02634,-0.00294 -0.03739,-0.00879 -0.01107,-0.00585 -0.02008,-0.01327 -0.02721,-0.022213 l 0,0.119718 -0.04167,0 z m 0.03772,-0.215877 c 0,0.03165 0.0064,0.055051 0.01921,0.070226 0.0128,0.015108 0.02838,0.022684 0.04658,0.022684 0.01849,0 0.03438,-0.00782 0.04759,-0.023558 0.0132,-0.015646 0.01986,-0.039921 0.01986,-0.072826 0,-0.031381 -0.0065,-0.054782 -0.01939,-0.07045 -0.01289,-0.015578 -0.02829,-0.023401 -0.04617,-0.023401 -0.01778,0 -0.03351,0.00829 -0.04721,0.024903 -0.01367,0.016609 -0.02046,0.040795 -0.02046,0.072422 z m 0.210565,-0.00141 c 0,-0.045547 0.01264,-0.079304 0.03804,-0.101203 0.02111,-0.018201 0.04689,-0.027368 0.07733,-0.027368 0.03385,0 0.06151,0.011073 0.08294,0.033286 0.02152,0.022146 0.03219,0.052742 0.03219,0.091811 0,0.031695 -0.0048,0.05662 -0.01423,0.074709 -0.0095,0.018201 -0.02331,0.032277 -0.04142,0.042319 -0.0182,0.010042 -0.03797,0.015018 -0.05947,0.015018 -0.03441,0 -0.06222,-0.010983 -0.0835,-0.033129 -0.02127,-0.022056 -0.03187,-0.05384 -0.03187,-0.095442 z m 0.04286,0 c 0,0.031538 0.0069,0.055118 0.02064,0.070764 0.01376,0.015735 0.03107,0.023558 0.05187,0.023558 0.02071,0 0.03795,-0.00789 0.05171,-0.023625 0.01367,-0.015735 0.02055,-0.039786 0.02055,-0.072041 0,-0.030439 -0.0069,-0.053527 -0.02071,-0.069195 -0.01383,-0.015646 -0.031,-0.023468 -0.05155,-0.023468 -0.0208,0 -0.03811,0.00782 -0.05187,0.023401 -0.01376,0.015578 -0.02064,0.039136 -0.02064,0.070607 z m 0.259026,-0.122968 0.171429,0 0,0.211686 0.02658,0 0,0.10405 -0.03425,0 0,-0.069733 -0.193642,0 0,0.069733 -0.03432,0 0,-0.10405 0.02199,0 c 0.02932,-0.039854 0.04339,-0.110393 0.04221,-0.211686 z m 0.03472,0.034474 c -0.0031,0.079864 -0.01542,0.13895 -0.03707,0.177212 l 0.13227,0 0,-0.177212 -0.0952,0 z m 0.192924,0.109609 0,-0.041916 0.12819,0 0,0.041916 -0.12819,0 z m -1.81524,0.512851 0.04499,0.011387 c -0.0094,0.03685 -0.02641,0.065003 -0.05084,0.084459 -0.02452,0.019366 -0.0544,0.029027 -0.08982,0.029027 -0.03663,0 -0.06635,-0.00744 -0.08928,-0.022303 -0.02293,-0.014951 -0.04041,-0.036536 -0.05234,-0.064756 -0.01195,-0.02831 -0.01795,-0.058682 -0.01795,-0.091094 0,-0.035348 0.0067,-0.066191 0.02024,-0.092528 0.01352,-0.026315 0.03273,-0.046331 0.05772,-0.060005 0.0249,-0.013673 0.05234,-0.020487 0.08231,-0.020487 0.034,0 0.06256,0.00863 0.08571,0.025934 0.02318,0.017327 0.03932,0.041602 0.04839,0.072983 l -0.0442,0.010445 c -0.0079,-0.024746 -0.01928,-0.0427 -0.03432,-0.053997 -0.01493,-0.01132 -0.03376,-0.016923 -0.05653,-0.016923 -0.02609,0 -0.04783,0.00623 -0.06538,0.018739 -0.01757,0.012575 -0.0299,0.029319 -0.03694,0.050433 -0.0071,0.021047 -0.01067,0.04279 -0.01067,0.06516 0,0.028938 0.0042,0.054087 0.01258,0.075673 0.0084,0.021518 0.02149,0.037635 0.03929,0.048304 0.0178,0.010692 0.03701,0.015982 0.05772,0.015982 0.02515,0 0.04642,-0.00726 0.06391,-0.021742 0.01746,-0.014547 0.02925,-0.036133 0.03542,-0.064689 z m 0.0952,-0.172527 0,-0.04799 0.04176,0 0,0.04799 -0.04176,0 z m 0,0.291617 0,-0.246003 0.04176,0 0,0.246003 -0.04176,0 z m 0.105395,-0.246003 0.09616,0 c 0.02363,0 0.0412,0.00199 0.05274,0.00585 0.01145,0.00397 0.02134,0.011163 0.02963,0.021675 0.0082,0.010513 0.01242,0.023087 0.01242,0.037791 0,0.0117 -0.0024,0.021989 -0.0074,0.030686 -0.0048,0.0087 -0.01217,0.016049 -0.0219,0.021899 0.01163,0.00388 0.0212,0.011073 0.02887,0.021675 0.0077,0.01058 0.01145,0.023087 0.01145,0.037634 -0.0015,0.023334 -0.0099,0.040638 -0.02499,0.051868 -0.01517,0.011319 -0.03716,0.016923 -0.06601,0.016923 l -0.111021,0 0,-0.246003 z m 0.04176,0.103512 0.04443,0 c 0.0178,0 0.02997,-8.742e-4 0.0366,-0.00276 0.0067,-0.00182 0.01258,-0.00563 0.01789,-0.01123 0.0052,-0.00563 0.0078,-0.012418 0.0078,-0.020241 0,-0.012978 -0.0046,-0.022079 -0.01376,-0.027122 -0.0092,-0.00516 -0.0249,-0.00769 -0.04712,-0.00769 l -0.04586,0 0,0.069038 z m 0,0.108174 0.05487,0 c 0.02365,0 0.03985,-0.00269 0.04862,-0.00823 0.0089,-0.00545 0.01345,-0.014951 0.01392,-0.02831 0,-0.00791 -0.0025,-0.015175 -0.0077,-0.021899 -0.0051,-0.00672 -0.0117,-0.010983 -0.01984,-0.012732 -0.0082,-0.00182 -0.02136,-0.00269 -0.03947,-0.00269 l -0.05043,0 0,0.073857 z m 0.373207,-0.044919 0.0431,0.00531 c -0.0068,0.025217 -0.01937,0.04474 -0.03773,0.05866 -0.01842,0.013852 -0.04189,0.020801 -0.07045,0.020801 -0.03598,0 -0.06451,-0.011073 -0.08556,-0.033219 -0.02111,-0.022123 -0.03163,-0.053213 -0.03163,-0.093223 0,-0.041423 0.01067,-0.073543 0.03194,-0.096384 0.02136,-0.022863 0.04895,-0.034317 0.08296,-0.034317 0.03288,0 0.05978,0.01123 0.08056,0.0336 0.02089,0.022392 0.03131,0.05393 0.03131,0.094501 0,0.00253 -6.8e-5,0.00623 -2.25e-4,0.01114 l -0.183443,0 c 0.0015,0.027055 0.0092,0.047766 0.02293,0.062067 0.01376,0.01439 0.03082,0.021586 0.0514,0.021586 0.01526,0 0.02831,-0.00401 0.03914,-0.012082 0.01083,-0.008 0.01937,-0.020801 0.02569,-0.038441 z m -0.136865,-0.067446 0.137358,0 c -0.0018,-0.020644 -0.0071,-0.0362 -0.01573,-0.046488 -0.01329,-0.016049 -0.03053,-0.024118 -0.05164,-0.024118 -0.01914,0 -0.03526,0.00641 -0.0483,0.01921 -0.01307,0.012821 -0.02026,0.029969 -0.02168,0.051397 z m 0.232397,0.240937 0,-0.340257 0.03795,0 0,0.031964 c 0.0089,-0.012507 0.01905,-0.021922 0.03037,-0.028153 0.01123,-0.00625 0.0249,-0.00941 0.04095,-0.00941 0.02105,0 0.03954,0.00545 0.05559,0.016206 0.01614,0.010826 0.02824,0.026091 0.03638,0.045794 0.0082,0.01968 0.01233,0.041266 0.01233,0.064757 0,0.025149 -0.0045,0.047833 -0.01361,0.068007 -0.009,0.020151 -0.02212,0.035572 -0.03936,0.046331 -0.01724,0.01067 -0.03535,0.016049 -0.05433,0.016049 -0.01392,0 -0.02634,-0.00294 -0.03739,-0.00879 -0.01107,-0.00585 -0.02008,-0.01327 -0.02721,-0.022213 l 0,0.119718 -0.04167,0 z m 0.03772,-0.215877 c 0,0.03165 0.0064,0.055051 0.01921,0.070226 0.0128,0.015108 0.02838,0.022684 0.04658,0.022684 0.01849,0 0.03438,-0.00782 0.04759,-0.023558 0.0132,-0.015646 0.01986,-0.039921 0.01986,-0.072826 0,-0.031381 -0.0065,-0.054782 -0.01939,-0.07045 -0.01289,-0.015578 -0.02829,-0.023401 -0.04617,-0.023401 -0.01778,0 -0.03351,0.00829 -0.0472,0.024903 -0.01367,0.016609 -0.02046,0.040795 -0.02046,0.072422 z m 0.386656,0.03147 0.04095,0.00538 c -0.0044,0.028243 -0.01589,0.050366 -0.03438,0.066348 -0.01843,0.015982 -0.04111,0.023961 -0.06801,0.023961 -0.0336,0 -0.06072,-0.010983 -0.08112,-0.032972 -0.02049,-0.021989 -0.03078,-0.053527 -0.03078,-0.094658 0,-0.026562 0.0044,-0.049806 0.01323,-0.069733 0.0089,-0.019927 0.02221,-0.034877 0.04023,-0.04483 0.01795,-0.00997 0.03757,-0.014951 0.05868,-0.014951 0.02672,0 0.04862,0.00679 0.06554,0.02033 0.01701,0.013516 0.02791,0.032658 0.03275,0.057561 l -0.04057,0.00623 c -0.0039,-0.01652 -0.01067,-0.028938 -0.02049,-0.037321 -0.0098,-0.00829 -0.02165,-0.012485 -0.03557,-0.012485 -0.02105,0 -0.03813,0.00751 -0.05124,0.022617 -0.01314,0.015018 -0.0197,0.038823 -0.0197,0.071391 0,0.033062 0.0063,0.057091 0.01907,0.072131 0.01264,0.014928 0.02916,0.022437 0.04956,0.022437 0.01639,0 0.02997,-0.00504 0.04097,-0.015085 0.01098,-0.010042 0.01795,-0.025463 0.02087,-0.046354 z m 0.07599,-0.15585 0.04167,0 0,0.096092 0.05283,0 c 0.03447,0 0.06097,0.0067 0.07955,0.020084 0.01865,0.013359 0.02791,0.031784 0.02791,0.055253 0,0.020487 -0.0078,0.038128 -0.02324,0.052675 -0.01551,0.014614 -0.04032,0.021899 -0.07449,0.021899 l -0.104229,0 0,-0.246003 z m 0.04167,0.211686 0.04382,0 c 0.0264,0 0.04521,-0.00325 0.05653,-0.00973 0.01123,-0.00648 0.01683,-0.016609 0.01683,-0.030282 0,-0.01067 -0.0041,-0.020173 -0.01248,-0.028534 -0.0083,-0.00832 -0.02681,-0.012508 -0.05534,-0.012508 l -0.04936,0 0,0.081052 z m 0.20597,-0.211686 0.04167,0 0,0.106291 c 0.01329,0 0.02262,-0.00253 0.02793,-0.0076 0.0053,-0.00513 0.01311,-0.019927 0.02347,-0.044516 0.0082,-0.019456 0.01488,-0.032255 0.01993,-0.038441 0.0052,-0.00616 0.01101,-0.010356 0.01764,-0.012485 0.0066,-0.00222 0.01733,-0.00325 0.03194,-0.00325 l 0.0084,0 0,0.034474 -0.01161,-2.242e-4 c -0.01092,0 -0.01796,0.00166 -0.02105,0.00491 -0.0032,0.00338 -0.0082,0.013516 -0.01486,0.03035 -0.0063,0.016049 -0.0121,0.027122 -0.01739,0.033286 -0.0052,0.00625 -0.01336,0.01188 -0.02427,0.016923 0.01786,0.00484 0.03551,0.021518 0.05281,0.050052 l 0.04564,0.076233 -0.04586,0 -0.04452,-0.076233 c -0.0091,-0.015265 -0.01708,-0.025374 -0.0238,-0.030193 -0.0068,-0.00491 -0.01495,-0.00728 -0.02436,-0.00728 l 0,0.11371 -0.04167,0 0,-0.246003 z m 0.207808,0 0.04167,0 0,0.187657 0.115593,-0.187657 0.04492,0 0,0.246003 -0.04167,0 0,-0.186447 -0.115593,0.186447 -0.04492,0 0,-0.246003 z m 0.265055,0 0.04167,0 0,0.187657 0.115593,-0.187657 0.04492,0 0,0.246003 -0.04167,0 0,-0.186447 -0.115593,0.186447 -0.04492,0 0,-0.246003 z m 0.144777,-0.093134 0.02847,0 c -0.0023,0.019299 -0.0093,0.03416 -0.02118,0.044426 -0.01179,0.010378 -0.02753,0.015578 -0.04714,0.015578 -0.01977,0 -0.03557,-0.00513 -0.04736,-0.015421 -0.01186,-0.010266 -0.01889,-0.025127 -0.02118,-0.044583 l 0.02847,0 c 0.0021,0.010513 0.0065,0.018335 0.01289,0.023491 0.0064,0.0052 0.01502,0.00773 0.02578,0.00773 0.01258,0 0.02197,-0.00244 0.02838,-0.00751 0.0064,-0.00498 0.01076,-0.012889 0.01289,-0.023715 z"
   id="path27"
   style="fill:#2b2a29;fill-rule:nonzero" />
  <path
   d="m 9.99552,14.2437 0.267118,0 0,0.339607 -0.04523,0 0,-0.299529 -0.176965,0 0,0.299529 -0.044919,0 0,-0.339607 z m 0.335281,0.433862 0,-0.340257 0.03795,0 0,0.03196 c 0.0089,-0.01251 0.01905,-0.02192 0.03037,-0.02815 0.01123,-0.0063 0.0249,-0.0094 0.04095,-0.0094 0.02105,0 0.03954,0.0054 0.05559,0.01621 0.01614,0.01083 0.02824,0.02609 0.03638,0.04579 0.0082,0.01968 0.01233,0.04126 0.01233,0.06476 0,0.02515 -0.0045,0.04783 -0.01361,0.06801 -0.009,0.02015 -0.02212,0.03557 -0.03936,0.04633 -0.01724,0.01067 -0.03535,0.01605 -0.05433,0.01605 -0.01392,0 -0.02634,-0.0029 -0.03739,-0.0088 -0.01107,-0.0059 -0.02008,-0.01327 -0.02721,-0.02221 l 0,0.119718 -0.04167,0 z m 0.03772,-0.215877 c 0,0.03165 0.0064,0.05505 0.01921,0.07023 0.0128,0.01511 0.02838,0.02268 0.04658,0.02268 0.01849,0 0.03438,-0.0078 0.04759,-0.02356 0.0132,-0.01565 0.01986,-0.03992 0.01986,-0.07282 0,-0.03138 -0.0065,-0.05478 -0.01939,-0.07045 -0.01289,-0.01558 -0.02829,-0.0234 -0.04617,-0.0234 -0.01778,0 -0.03351,0.0083 -0.04721,0.0249 -0.01367,0.01661 -0.02046,0.0408 -0.02046,0.07242 z m 0.226143,-0.12438 0.04167,0 0,0.187657 0.115593,-0.187657 0.04492,0 0,0.246003 -0.04167,0 0,-0.186447 -0.115593,0.186447 -0.04492,0 0,-0.246003 z m 0.285386,0 0.193709,0 0,0.246003 -0.04151,0 0,-0.211529 -0.11046,0 0,0.122564 c 0,0.02856 -9.42e-4,0.04745 -0.0028,0.05655 -0.0019,0.0091 -0.007,0.01708 -0.01535,0.02387 -0.0083,0.0068 -0.0204,0.0102 -0.03613,0.0102 -0.0097,0 -0.02096,-6.27e-4 -0.0336,-0.0019 l 0,-0.0347 0.01834,0 c 0.0086,0 0.01479,-9.64e-4 0.01851,-0.0027 0.0037,-0.0018 0.0062,-0.0046 0.0074,-0.0085 0.0013,-0.0039 0.0018,-0.01643 0.0018,-0.03779 l 0,-0.162104 z m 0.254588,0.340728 -0.0047,-0.03914 c 0.0092,0.0024 0.01708,0.0037 0.02389,0.0037 0.0092,0 0.01668,-0.0016 0.02221,-0.0047 0.0056,-0.0031 0.01011,-0.0074 0.01367,-0.01298 0.0027,-0.0041 0.0069,-0.01446 0.01273,-0.031 7.84e-4,-0.0024 0.0021,-0.0057 0.0037,-0.0102 l -0.09331,-0.246474 0.04492,0 0.05124,0.142424 c 0.0066,0.01811 0.01258,0.03707 0.0178,0.057 0.0048,-0.01912 0.01051,-0.03779 0.01715,-0.05606 l 0.05259,-0.143365 0.04167,0 -0.09354,0.250194 c -0.01004,0.02703 -0.01786,0.04561 -0.0234,0.05581 -0.0074,0.01376 -0.01589,0.0238 -0.02546,0.03022 -0.0097,0.0064 -0.02105,0.0096 -0.03432,0.0096 -0.0081,0 -0.01701,-0.0017 -0.0269,-0.0051 z m 0.238875,-0.340728 0.04167,0 0,0.106291 c 0.01329,0 0.02262,-0.0025 0.02793,-0.0076 0.0053,-0.0051 0.01311,-0.01993 0.02347,-0.04452 0.0082,-0.01946 0.01488,-0.03225 0.01993,-0.03844 0.0052,-0.0062 0.01101,-0.01036 0.01764,-0.01248 0.0066,-0.0022 0.01733,-0.0032 0.03194,-0.0032 l 0.0084,0 0,0.03447 -0.01161,-2.24e-4 c -0.01092,0 -0.01795,0.0017 -0.02105,0.0049 -0.0032,0.0034 -0.0082,0.01352 -0.01486,0.03035 -0.0063,0.01605 -0.0121,0.02712 -0.01739,0.03329 -0.0052,0.0063 -0.01336,0.01188 -0.02427,0.01692 0.01786,0.0048 0.03551,0.02152 0.05281,0.05005 l 0.04564,0.07623 -0.04586,0 -0.04452,-0.07623 c -0.0091,-0.01527 -0.01708,-0.02537 -0.0238,-0.03019 -0.0068,-0.0049 -0.01495,-0.0073 -0.02436,-0.0073 l 0,0.11371 -0.04167,0 0,-0.246003 z m 0.207808,0 0.04167,0 0,0.187657 0.115593,-0.187657 0.04492,0 0,0.246003 -0.04167,0 0,-0.186447 -0.115593,0.186447 -0.04492,0 0,-0.246003 z"
   id="path29"
   style="fill:#2b2a29;fill-rule:nonzero" />
  <path
   d="m 7.3819,11.9643 0,-0.339607 0.045009,0 0,0.139465 0.176472,0 0,-0.139465 0.045009,0 0,0.339607 -0.045009,0 0,-0.160042 -0.176472,0 0,0.160042 -0.045009,0 z m 0.336133,-0.291617 0,-0.04799 0.041759,0 0,0.04799 -0.041759,0 z m 0,0.291617 0,-0.246003 0.041759,0 0,0.246003 -0.041759,0 z m 0.253893,-0.246003 0,0.106291 c 0.013292,0 0.022684,-0.0025 0.028063,-0.0076 0.00538,-0.0051 0.013292,-0.01993 0.023648,-0.04452 0.00973,-0.02333 0.018425,-0.03819 0.026181,-0.04467 0.00751,-0.0063 0.019613,-0.0095 0.036133,-0.0095 l 0.015264,0 0,0.03447 -0.011319,-2.24e-4 c -0.01114,0 -0.018268,0.0017 -0.021339,0.0049 -0.00325,0.0034 -0.00816,0.01352 -0.014794,0.03035 -0.00625,0.01605 -0.011947,0.02712 -0.017147,0.03329 -0.00531,0.0063 -0.013449,0.01188 -0.024611,0.01692 0.018111,0.0048 0.035662,0.02152 0.052832,0.05005 l 0.045861,0.07623 -0.045861,0 -0.044673,-0.07623 c -0.0091,-0.01542 -0.01708,-0.02553 -0.023894,-0.03035 -0.00679,-0.0048 -0.014861,-0.0071 -0.024342,-0.0071 l 0,0.11371 -0.042611,0 0,-0.11371 c -0.00926,0 -0.017237,0.0023 -0.024051,0.007 -0.00679,0.0047 -0.014794,0.01486 -0.023872,0.03044 l -0.044762,0.07623 -0.045861,0 0.045704,-0.07623 c 0.017237,-0.02853 0.034945,-0.04521 0.052989,-0.05005 -0.012351,-0.0057 -0.020958,-0.01192 -0.025934,-0.01865 -0.00491,-0.0067 -0.012351,-0.02271 -0.022235,-0.04801 -0.00338,-0.0085 -0.00704,-0.01374 -0.010916,-0.0158 -0.00394,-0.002 -0.00995,-0.003 -0.017775,-0.003 -0.00206,0 -0.0061,6.7e-5 -0.012351,2.24e-4 l 0,-0.03447 0.00585,0 c 0.016071,0 0.027369,9.64e-4 0.033936,0.0028 0.00657,0.002 0.012418,0.006 0.017618,0.01235 0.00516,0.0062 0.01188,0.01921 0.020263,0.03898 0.010199,0.02428 0.017932,0.03898 0.023244,0.04427 0.00538,0.0052 0.014704,0.0078 0.028153,0.0078 l 0,-0.106291 0.042611,0 z m 0.168739,0 0.041669,0 0,0.187657 0.115593,-0.187657 0.044919,0 0,0.246003 -0.041669,0 0,-0.186447 -0.115593,0.186447 -0.044919,0 0,-0.246003 z m 0.265212,0 0.041759,0 0,0.102413 0.115593,0 0,-0.102413 0.041669,0 0,0.246003 -0.041669,0 0,-0.109115 -0.115593,0 0,0.109115 -0.041759,0 0,-0.246003 z"
   id="path31"
   style="fill:#2b2a29;fill-rule:nonzero" />
  <path
   d="m 10.759,9.34914 0.220293,0 0,0.040078 -0.175306,0 0,0.1047 0.08105,0 c 0.02997,0 0.05377,0.00285 0.07148,0.00861 0.01764,0.00569 0.03187,0.016452 0.04245,0.032277 0.01069,0.015802 0.01607,0.034228 0.01607,0.055253 0,0.01717 -0.0039,0.033152 -0.01148,0.04808 -0.0077,0.014861 -0.01905,0.027055 -0.03423,0.036469 -0.01511,0.00939 -0.04088,0.014144 -0.07733,0.014144 l -0.13301,0 0,-0.339607 z m 0.04499,0.301412 0.08984,0 c 0.02428,0 0.04245,-0.00498 0.05456,-0.014861 0.01217,-0.00988 0.01818,-0.024679 0.01818,-0.044449 0,-0.014076 -0.0035,-0.025844 -0.01042,-0.035259 -0.0069,-0.00941 -0.01661,-0.015646 -0.02896,-0.018739 -0.01233,-0.00309 -0.03344,-0.00466 -0.06325,-0.00466 l -0.05994,0 0,0.117969 z m 0.419561,0.00782 c -0.01549,0.013135 -0.03037,0.022392 -0.04458,0.027839 -0.01432,0.00538 -0.02965,0.00807 -0.04604,0.00807 -0.02703,0 -0.04774,-0.00657 -0.06229,-0.01977 -0.01448,-0.013202 -0.02174,-0.030126 -0.02174,-0.050613 0,-0.012082 0.0027,-0.023087 0.0082,-0.033039 0.0055,-0.00997 0.01266,-0.017954 0.02152,-0.023962 0.0089,-0.00601 0.0189,-0.010602 0.03004,-0.013673 0.0082,-0.00215 0.02049,-0.00428 0.03701,-0.00625 0.03369,-0.00403 0.05852,-0.00879 0.07442,-0.01439 1.57e-4,-0.00569 2.24e-4,-0.00932 2.24e-4,-0.010826 0,-0.017013 -0.0039,-0.029027 -0.01186,-0.035909 -0.01058,-0.00948 -0.02647,-0.014144 -0.04743,-0.014144 -0.01961,0 -0.03409,0.00338 -0.04348,0.010266 -0.0093,0.00688 -0.01623,0.019053 -0.02073,0.036536 l -0.04071,-0.00563 c 0.0037,-0.017394 0.0098,-0.031538 0.01825,-0.042207 0.0085,-0.010759 0.0208,-0.019053 0.03685,-0.024836 0.01605,-0.00578 0.03463,-0.0087 0.05584,-0.0087 0.02102,0 0.03804,0.00253 0.05115,0.00744 0.01314,0.00498 0.02277,0.01114 0.02903,0.018649 0.0062,0.00751 0.01045,0.016923 0.01296,0.0284 0.0013,0.00711 0.0021,0.019904 0.0021,0.038419 l 0,0.055589 c 0,0.038823 8.75e-4,0.063344 0.0027,0.073543 0.0017,0.010266 0.0053,0.020151 0.01051,0.029565 l -0.04355,0 c -0.0043,-0.00863 -0.0071,-0.018739 -0.0083,-0.030372 z m -0.0035,-0.093134 c -0.01517,0.00623 -0.03788,0.011454 -0.06807,0.015802 -0.01717,0.00247 -0.02934,0.00522 -0.03638,0.00832 -0.0071,0.00307 -0.01266,0.00758 -0.01645,0.013583 -0.0039,0.00594 -0.0059,0.012507 -0.0059,0.01977 0,0.011163 0.0043,0.02042 0.01264,0.027839 0.0084,0.00735 0.02073,0.011073 0.03694,0.011073 0.01605,0 0.03037,-0.00347 0.04286,-0.010513 0.01248,-0.00704 0.02174,-0.016699 0.02759,-0.02887 0.0045,-0.00941 0.0067,-0.023311 0.0067,-0.041669 l 0,-0.015332 z m 0.07899,0.123506 0.08991,-0.127854 -0.08318,-0.118149 0.05211,0 0.03779,0.057651 c 0.007,0.010983 0.01282,0.020173 0.01708,0.027593 0.0068,-0.010199 0.01304,-0.019209 0.01883,-0.027122 l 0.04142,-0.058122 0.04983,0 -0.08502,0.11584 0.0915,0.130163 -0.05117,0 -0.05052,-0.076457 -0.01343,-0.020644 -0.06462,0.097101 -0.05052,0 z m 0.266154,-0.246003 0.06485,0 0.06469,0.196892 0.07179,-0.196892 0.06001,0 0,0.246003 -0.04167,0 0,-0.19808 -0.07274,0.19808 -0.03732,0 -0.06879,-0.207561 0,0.207561 -0.04082,0 0,-0.246003 z m 0.485595,0.215631 c -0.01549,0.013135 -0.03037,0.022392 -0.04458,0.027839 -0.01432,0.00538 -0.02965,0.00807 -0.04604,0.00807 -0.02703,0 -0.04774,-0.00657 -0.06229,-0.01977 -0.01448,-0.013202 -0.02174,-0.030126 -0.02174,-0.050613 0,-0.012082 0.0027,-0.023087 0.0082,-0.033039 0.0055,-0.00997 0.01266,-0.017954 0.02152,-0.023962 0.0089,-0.00601 0.0189,-0.010602 0.03004,-0.013673 0.0082,-0.00215 0.02049,-0.00428 0.03701,-0.00625 0.03369,-0.00403 0.05853,-0.00879 0.07442,-0.01439 1.57e-4,-0.00569 2.24e-4,-0.00932 2.24e-4,-0.010826 0,-0.017013 -0.0039,-0.029027 -0.01186,-0.035909 -0.01058,-0.00948 -0.02647,-0.014144 -0.04743,-0.014144 -0.01961,0 -0.03409,0.00338 -0.04349,0.010266 -0.0093,0.00688 -0.01623,0.019053 -0.02073,0.036536 l -0.04071,-0.00563 c 0.0037,-0.017394 0.0098,-0.031538 0.01825,-0.042207 0.0085,-0.010759 0.0208,-0.019053 0.03685,-0.024836 0.01605,-0.00578 0.03463,-0.0087 0.05584,-0.0087 0.02102,0 0.03804,0.00253 0.05115,0.00744 0.01314,0.00498 0.02277,0.01114 0.02903,0.018649 0.0062,0.00751 0.01044,0.016923 0.01296,0.0284 0.0013,0.00711 0.0021,0.019904 0.0021,0.038419 l 0,0.055589 c 0,0.038823 8.74e-4,0.063344 0.0027,0.073543 0.0017,0.010266 0.0053,0.020151 0.01051,0.029565 l -0.04355,0 c -0.0043,-0.00863 -0.0071,-0.018739 -0.0083,-0.030372 z m -0.0035,-0.093134 c -0.01517,0.00623 -0.03788,0.011454 -0.06807,0.015802 -0.01717,0.00247 -0.02934,0.00522 -0.03638,0.00832 -0.0071,0.00307 -0.01267,0.00758 -0.01645,0.013583 -0.0039,0.00594 -0.0059,0.012508 -0.0059,0.01977 0,0.011163 0.0043,0.02042 0.01264,0.027839 0.0084,0.00735 0.02073,0.011073 0.03694,0.011073 0.01605,0 0.03037,-0.00347 0.04286,-0.010513 0.01248,-0.00704 0.02174,-0.016699 0.02759,-0.02887 0.0045,-0.00941 0.0067,-0.023311 0.0067,-0.041669 l 0,-0.015332 z m 0.08105,-0.122497 0.04174,0 0,0.046578 c 0,0.020016 0.0012,0.034631 0.0036,0.043642 0.0024,0.00903 0.0081,0.016923 0.01724,0.023648 0.0091,0.00672 0.02055,0.010042 0.03432,0.010042 0.01574,0 0.03613,-0.00419 0.06113,-0.012485 l 0,-0.111424 0.04174,0 0,0.246003 -0.04174,0 0,-0.099163 c -0.02562,0.00807 -0.04958,0.012037 -0.07179,0.012037 -0.01867,0 -0.03519,-0.00475 -0.04942,-0.014233 -0.01432,-0.0095 -0.02403,-0.021115 -0.02909,-0.034878 -0.0052,-0.013673 -0.0077,-0.02887 -0.0077,-0.04539 l 0,-0.064375 z"
   id="path33"
   style="fill:#2b2a29;fill-rule:nonzero" />
  <path
   d="m 0.960229,6.74998 0.0449866,0.011387 c -0.009392,0.03685 -0.0264047,0.065003 -0.0508368,0.084459 -0.0245218,0.019366 -0.0544008,0.029027 -0.0898163,0.029027 -0.0366258,0 -0.0663479,-0.00744 -0.0892783,-0.022303 C 0.7523538,6.8375995 0.7348702,6.816014 0.7229456,6.7877937 0.7109985,6.7594838 0.7049913,6.7291117 0.7049913,6.6966998 c 0,-0.035348 0.006724,-0.066191 0.0202406,-0.092528 0.0135161,-0.026315 0.0327257,-0.046331 0.0577182,-0.060005 0.0249029,-0.013673 0.0523386,-0.020487 0.0823073,-0.020487 0.0340033,0 0.0625598,0.00863 0.0857143,0.025934 0.0231769,0.017327 0.0393156,0.041602 0.0483936,0.072983 l -0.0442021,0.010445 c -0.00789,-0.024746 -0.0192768,-0.0427 -0.0343171,-0.053997 -0.0149283,-0.011319 -0.0337567,-0.016923 -0.0565302,-0.016923 -0.0260909,0 -0.0478333,0.00623 -0.0653841,0.018739 -0.0175732,0.012575 -0.0299014,0.029319 -0.0369397,0.050433 -0.007105,0.021047 -0.0106695,0.04279 -0.0106695,0.06516 0,0.028938 0.004192,0.054087 0.0125747,0.075673 0.00845,0.021518 0.0214958,0.037634 0.0392932,0.048304 0.0177974,0.010692 0.0370069,0.015982 0.0577182,0.015982 0.0251494,0 0.0464211,-0.00726 0.0639047,-0.021742 C 0.9422746,6.800122 0.9540648,6.7785365 0.9602288,6.74998 z m 0.115369,-0.126913 0.193709,0 0,0.246003 -0.041512,0 0,-0.211529 -0.11046,0 0,0.122564 c 0,0.028557 -9.414e-4,0.047452 -0.00276,0.056553 -0.00191,0.00908 -0.00697,0.01708 -0.015354,0.023872 -0.00829,0.00679 -0.020397,0.010199 -0.036133,0.010199 -0.00973,0 -0.020958,-6.276e-4 -0.0336,-0.00191 l 0,-0.034698 0.018335,0 c 0.00863,0 0.014794,-9.638e-4 0.018515,-0.00269 0.00372,-0.00182 0.00616,-0.0046 0.00742,-0.00847 0.00128,-0.00386 0.00184,-0.01643 0.00184,-0.037791 l 0,-0.162104 z m 0.417006,0.215631 c -0.015489,0.013135 -0.030372,0.022392 -0.044583,0.027839 -0.014323,0.00538 -0.029655,0.00807 -0.04604,0.00807 -0.027032,0 -0.047744,-0.00657 -0.062291,-0.01977 -0.01448,-0.013202 -0.021742,-0.030125 -0.021742,-0.050613 0,-0.012082 0.00267,-0.023087 0.0082,-0.03304 0.00547,-0.00997 0.012664,-0.017954 0.021518,-0.023962 0.00894,-0.00601 0.018896,-0.010602 0.030036,-0.013673 0.00816,-0.00215 0.020487,-0.00428 0.037007,-0.00625 0.033689,-0.00403 0.058525,-0.00879 0.074417,-0.01439 1.569e-4,-0.00569 2.242e-4,-0.00932 2.242e-4,-0.010826 0,-0.017013 -0.00395,-0.029027 -0.011857,-0.035909 -0.01058,-0.00948 -0.026472,-0.014144 -0.04743,-0.014144 -0.019613,0 -0.034093,0.00338 -0.043485,0.010266 -0.00935,0.00688 -0.016228,0.019053 -0.020734,0.036536 l -0.040705,-0.00563 c 0.0037,-0.017394 0.0098,-0.031538 0.018246,-0.042207 0.00847,-0.010759 0.020801,-0.019053 0.03685,-0.024836 0.016049,-0.00578 0.034631,-0.0087 0.055835,-0.0087 0.021025,0 0.038038,0.00253 0.051151,0.00744 0.013135,0.00498 0.022774,0.01114 0.029027,0.018649 0.00616,0.00751 0.010445,0.016923 0.012956,0.0284 0.00134,0.00711 0.00206,0.019904 0.00206,0.038419 l 0,0.055589 c 0,0.038823 8.742e-4,0.063344 0.00269,0.073543 0.00175,0.010266 0.00529,0.020151 0.010513,0.029565 l -0.043552,0 c -0.00428,-0.00863 -0.00713,-0.018739 -0.00832,-0.030372 z m -0.00347,-0.093134 c -0.015175,0.00623 -0.037881,0.011454 -0.068074,0.015802 -0.01717,0.00247 -0.029341,0.00522 -0.036379,0.00832 -0.00713,0.00307 -0.012664,0.00758 -0.016452,0.013583 -0.00388,0.00594 -0.00585,0.012507 -0.00585,0.01977 0,0.011163 0.00428,0.02042 0.012642,0.027839 0.00838,0.00735 0.020734,0.011073 0.03694,0.011073 0.016049,0 0.030372,-0.00347 0.042857,-0.010513 0.012485,-0.00704 0.021742,-0.016699 0.027593,-0.02887 0.00451,-0.00941 0.00672,-0.023311 0.00672,-0.041669 l 0,-0.015332 z m 0.106986,-0.122497 0.09616,0 c 0.023625,0 0.041199,0.00199 0.052742,0.00585 0.011454,0.00397 0.021339,0.011163 0.029632,0.021675 0.00823,0.010513 0.012418,0.023087 0.012418,0.037791 0,0.0117 -0.00244,0.021989 -0.00735,0.030686 -0.00482,0.0087 -0.012171,0.016049 -0.021899,0.021899 0.011633,0.00388 0.021204,0.011073 0.02887,0.021675 0.00767,0.01058 0.011454,0.023087 0.011454,0.037634 -0.0015,0.023334 -0.00988,0.040638 -0.024992,0.051868 -0.015175,0.011319 -0.037164,0.016923 -0.066012,0.016923 l -0.111021,0 0,-0.246003 z m 0.041759,0.103512 0.044426,0 c 0.017797,0 0.029969,-8.742e-4 0.036603,-0.00276 0.00666,-0.00182 0.012575,-0.00563 0.017887,-0.01123 0.00522,-0.00563 0.00782,-0.012418 0.00782,-0.020241 0,-0.012978 -0.0046,-0.022079 -0.013763,-0.027122 -0.00917,-0.00516 -0.024903,-0.00769 -0.047116,-0.00769 l -0.045861,0 0,0.069038 z m 0,0.108174 0.054872,0 c 0.023648,0 0.039854,-0.00269 0.048618,-0.00823 0.00885,-0.00545 0.013449,-0.014951 0.01392,-0.02831 0,-0.00791 -0.00253,-0.015175 -0.00767,-0.021899 -0.00507,-0.00672 -0.011701,-0.010983 -0.019837,-0.012732 -0.00823,-0.00182 -0.021361,-0.00269 -0.039473,-0.00269 l -0.050433,0 0,0.073857 z m 0.197811,0.129042 -0.00466,-0.039136 c 0.00917,0.00244 0.01708,0.00372 0.023894,0.00372 0.00923,0 0.016677,-0.00159 0.022213,-0.00466 0.0056,-0.00309 0.010109,-0.00735 0.013673,-0.012978 0.00269,-0.0041 0.00688,-0.014458 0.012732,-0.031 7.845e-4,-0.00238 0.00206,-0.00569 0.00372,-0.010199 l -0.093313,-0.246474 0.044919,0 0.05124,0.142424 c 0.00657,0.018111 0.012575,0.037074 0.017797,0.057001 0.00482,-0.01912 0.010513,-0.037791 0.017147,-0.056059 l 0.052585,-0.143365 0.041669,0 -0.093537,0.250194 c -0.010042,0.027032 -0.017865,0.045614 -0.023401,0.055813 -0.00744,0.013763 -0.015892,0.023805 -0.025463,0.030215 -0.00966,0.00641 -0.021047,0.00964 -0.034317,0.00964 -0.00807,0 -0.017013,-0.00173 -0.026898,-0.00513 z m 0.216595,-0.340728 0.199963,0 0,0.034474 -0.079236,0 0,0.211529 -0.041512,0 0,-0.211529 -0.079214,0 0,-0.034474 z m 0.239816,0 0.041669,0 0,0.187657 0.115593,-0.187657 0.044919,0 0,0.246003 -0.041669,0 0,-0.186447 -0.115593,0.186447 -0.044919,0 0,-0.246003 z m 0.249724,0 0.041736,0 0,0.046578 c 0,0.020016 0.00119,0.034631 0.00356,0.043642 0.00238,0.00903 0.00814,0.016923 0.017237,0.023648 0.0091,0.00672 0.020554,0.010042 0.034317,0.010042 0.015735,0 0.036133,-0.00419 0.061125,-0.012485 l 0,-0.111424 0.041736,0 0,0.246003 -0.041736,0 0,-0.099163 c -0.02562,0.00807 -0.049582,0.012037 -0.071795,0.012037 -0.018672,0 -0.035191,-0.00475 -0.049425,-0.014233 -0.014323,-0.0095 -0.024029,-0.021115 -0.029094,-0.034878 -0.00516,-0.013673 -0.00767,-0.02887 -0.00767,-0.04539 l 0,-0.064375 z"
   id="path35"
   style="fill:#2b2a29;fill-rule:nonzero" />
  <g
   id="_310480000">
   <path
   d="m 4.14405,7.66433 c 0.137986,0 0.25266,-0.108959 0.25266,-0.247034 0,-0.137762 -0.114674,-0.246787 -0.25266,-0.246787 -0.132046,0 -0.24672,0.109026 -0.24672,0.246787 0,0.138075 0.114674,0.247034 0.24672,0.247034 z"
   id="_310480048"
   style="fill:#fefefe;stroke:#2b2a29;stroke-width:0.0346758" />
   <path
   d="m 4.14405,7.54938 c 0.074597,0 0.137986,-0.057337 0.137986,-0.132091 0,-0.074462 -0.063389,-0.137762 -0.137986,-0.137762 -0.074507,0 -0.132046,0.0633 -0.132046,0.137762 0,0.074753 0.057539,0.132091 0.132046,0.132091"
   id="_310480096"
   style="fill:none;stroke:#2b2a29;stroke-width:0.0416244" />
  </g>
  <path
   d="m 4.20401,7.86008 0.09143,0 0,0.135072 c 0,0.043776 0.00134,0.072893 0.00388,0.087126 0.00253,0.014368 0.010244,0.026763 0.022998,0.037298 0.012754,0.010535 0.031515,0.015802 0.056194,0.015802 0.019591,0 0.037007,-0.00262 0.052294,-0.00789 0.015175,-0.00529 0.028355,-0.013045 0.03954,-0.023334 l 0,-0.244075 0.091408,0 0,0.566042 -0.091408,0 0,-0.227869 c -0.01856,0.010423 -0.036805,0.018178 -0.054737,0.023468 -0.01791,0.00527 -0.035527,0.00789 -0.052809,0.00789 -0.045121,0 -0.082868,-0.013292 -0.11324,-0.039921 -0.03035,-0.026763 -0.045547,-0.072893 -0.045547,-0.138524 l 0,-0.191086 z m 0.641244,0.435565 0.086589,0.018066 c -0.011207,0.039652 -0.028691,0.069845 -0.05272,0.090533 -0.023939,0.020823 -0.053997,0.031112 -0.09004,0.031112 -0.057046,0 -0.09923,-0.023199 -0.126644,-0.069867 -0.021608,-0.037298 -0.032479,-0.084481 -0.032479,-0.141281 0,-0.068007 0.014256,-0.121242 0.0427,-0.159728 0.028377,-0.038486 0.064331,-0.057718 0.107748,-0.057718 0.048842,0 0.087328,0.020151 0.115571,0.060498 0.028153,0.040324 0.041647,0.10201 0.040481,0.185169 l -0.217491,0 c 6.276e-4,0.032143 0.00758,0.05718 0.02098,0.074978 0.013382,0.017932 0.030148,0.026898 0.050052,0.026898 0.013628,0 0.025015,-0.00462 0.034272,-0.013852 0.0093,-0.00935 0.016363,-0.024253 0.02098,-0.044807 z m 0.00498,-0.109653 c -6.5e-4,-0.031493 -0.00706,-0.055342 -0.019411,-0.071683 -0.012328,-0.01634 -0.027413,-0.024522 -0.045121,-0.024522 -0.018985,0 -0.034586,0.0087 -0.046914,0.025956 -0.012351,0.017147 -0.018447,0.040593 -0.018246,0.070248 l 0.129692,0 z m 0.154438,-0.169882 0.080985,0 0,0.060229 c 0.010445,-0.020689 0.024656,-0.03741 0.042588,-0.050209 0.017932,-0.012911 0.037859,-0.019366 0.059668,-0.019366 0.03806,0 0.07045,0.018716 0.096899,0.056015 0.026562,0.037298 0.039854,0.089346 0.039854,0.15603 0,0.06841 -0.013382,0.121645 -0.040055,0.159616 -0.026786,0.037948 -0.059265,0.056934 -0.097325,0.056934 -0.018134,0 -0.034586,-0.00448 -0.049335,-0.013449 -0.014659,-0.0091 -0.03017,-0.024522 -0.046511,-0.046399 l 0,0.206665 -0.086768,0 0,-0.566064 z m 0.085939,0.19808 c 0,0.045995 0.00728,0.080133 0.021922,0.10201 0.014547,0.022011 0.032367,0.033084 0.053459,0.033084 0.020129,0 0.036895,-0.010154 0.050299,-0.030305 0.013382,-0.020173 0.020129,-0.05337 0.020129,-0.099365 0,-0.043104 -0.00697,-0.075 -0.020779,-0.095823 -0.013807,-0.020823 -0.030888,-0.031224 -0.051218,-0.031224 -0.021204,0 -0.038823,0.010131 -0.052832,0.030708 -0.014032,0.02042 -0.02098,0.050725 -0.02098,0.090915 z m 0.299529,-0.19808 0.08688,0 0,0.150112 0.124089,0 0,-0.150112 0.087194,0 0,0.410012 -0.087194,0 0,-0.172258 -0.124089,0 0,0.172258 -0.08688,0 0,-0.410012 z m 0.38558,-0.055611 0,-0.100418 0.086768,0 0,0.100418 -0.086768,0 z m 0,0.465623 0,-0.410012 0.086768,0 0,0.410012 -0.086768,0 z m 0.172258,-0.410012 0.221526,0 0,0.087642 -0.134646,0 0,0.32237 -0.08688,0 0,-0.410012 z m 0.266961,-0.055611 0,-0.100418 0.086768,0 0,0.100418 -0.086768,0 z m 0,0.465623 0,-0.410012 0.086768,0 0,0.410012 -0.086768,0 z m 0.176584,-0.410012 0.189988,0 c 0.038912,0 0.068119,0.00883 0.087418,0.026629 0.019389,0.017797 0.029095,0.044538 0.029095,0.080268 0,0.02293 -0.00536,0.042835 -0.015915,0.059825 -0.010647,0.017013 -0.023939,0.028332 -0.040078,0.034003 0.022661,0.00699 0.03954,0.019904 0.050725,0.039002 0.011073,0.01912 0.016654,0.039943 0.016654,0.062605 0,0.031896 -0.00939,0.057853 -0.028041,0.077757 -0.018761,0.019904 -0.046511,0.029924 -0.083204,0.029924 l -0.206642,0 0,-0.410012 z m 0.087507,0.170286 0.055903,0 c 0.026987,0 0.046466,-0.00435 0.058503,-0.012777 0.012014,-0.00845 0.018021,-0.021877 0.018021,-0.040212 0,-0.017259 -0.00558,-0.02952 -0.016766,-0.03676 -0.011275,-0.00737 -0.031201,-0.011073 -0.059758,-0.011073 l -0.055903,0 0,0.100822 z m 0,0.170263 0.068545,0 c 0.024679,0 0.0427,-0.00381 0.054087,-0.011185 0.011275,-0.00751 0.016968,-0.020958 0.016968,-0.040212 0,-0.020016 -0.00655,-0.033869 -0.019501,-0.041512 -0.012978,-0.00764 -0.038172,-0.01132 -0.075695,-0.01132 l -0.044404,0 0,0.104229 z"
   id="path40"
   style="fill:#2b2a29;fill-rule:nonzero" />
 </g>
</svg>