<?xml version="1.0" encoding="UTF-8" standalone="no"?>
<!-- Created with Inkscape (http://www.inkscape.org/) -->

<svg
   xmlns:svg="http://www.w3.org/2000/svg"
   xmlns="http://www.w3.org/2000/svg"
   version="1.1"
   width="98.490501mm"
   height="66.579399mm"
   viewBox="0 0 98.4336 66.541"
   id="svg2"
   xml:space="preserve"
   style="fill-rule:evenodd">
 <defs
   id="defs4">
  <style
   type="text/css"
   id="style6" />
 </defs>
 <g
   id="Layer_x0020_1">
  
  <path
   d="m 92.4081,18.3078 -0.945454,0.102141 -0.203482,-0.53669 -0.945454,0.204782 0,1.20001 -1.19961,0.153911 -2.75891,-2.29827 -2.09339,2.75741 -0.331608,0.995925 0.280938,0.944854 -0.867699,0.331508 -0.894483,-0.663617 -0.586361,0.741072 -0.408664,-0.53729 0.458935,-1.14914 -1.32803,-1.53152 0.53719,-1.02121 -1.76328,-1.66004 -1.40339,-0.816528 0.281337,-0.740672 -0.817428,-0.817728 0.281337,-0.918469 -0.740972,-0.689901 -1.68543,-0.203882 0.127726,-0.868198 -0.868698,-0.204682 0.128126,-0.918969 -0.535091,-0.408364 0.330909,-1.02171 -0.918969,-0.867799 -0.893484,-0.408164 0.690301,-1.40489 -1.22779,-0.995725 -0.918569,1.27656 -0.740672,0.383179 -0.486519,0.689202 -0.737874,0.204782 -0.58766,0.586961 -1.22609,-0.53649 -1.81215,0.204582 -0.409763,-0.868598 -0.996424,0.460434 -0.534991,-0.664416 -3.16667,0.126727 -1.32693,-1.12225 -1.40519,-0.204382 -1.14864,-1.40439 -0.816628,-0.077355 -0.128126,-0.739573 -1.27806,-0.867999 -0.662417,0.535591 -0.612946,-0.535591 0.664216,-0.740572 -1.45676,-1.07308 -2.55243,0.0516701 -0.688602,0.510205 0.07606,0.178897 -1.02191,0 -0.996025,-1.35332 -0.867399,-0.0767557 -0.740572,1.43007 -0.53679,-0.944454 -1.20061,0 -0.407964,0.331409 -0.53609,-0.0760561 -0.945154,1.14854 -0.815729,0.127426 -0.586661,0.613546 -1.5594,0.076156 -1.81275,2.73242 -1.07258,-0.587261 -0.791243,0.331908 -1.27836,-0.945254 0.179996,1.35382 -1.86372,1.27636 0.459035,1.40479 -1.19931,1.81315 0.128126,1.88871 1.14894,1.45536 0.05057,0.893684 -1.40439,0.204382 0.07676,1.20041 0.868398,0.05047 -0.203882,1.48134 -2.22212,-0.05117 -2.88533,-1.35302 -0.58776,-1.20031 -3.03784,-1.88941 -1.7367,-0.331908 0.306823,0.05167 -0.384278,1.22499 -0.739273,0 -0.05167,2.681149 -0.816327,0.07676 -0.127726,-0.868298 -0.408064,0.05047 -0.255752,0.945254 -1.96606,-0.127426 0,-1.14924 -1.32803,0 -0.53669,0.868298 -0.688003,0.07676 -0.742271,-0.408764 0.205481,1.81285 1.68473,1.48114 1.07258,-0.127826 1.76148,1.32823 0.741271,0 c 0,0 0.91867,0.689102 0,0.816328 -0.945153,0.129125 -0.893784,0.205581 -0.893784,0.205581 l -1.20101,1.48054 -2.221519,0.458935 0.127027,1.35332 -1.19881,0.332608 -0.07746,-0.817927 -1.53152,0.204382 -0.945154,2.01644 0.48442,3.16697 -0.407265,0.664416 0.791942,0.867399 -0.05167,0.663816 -0.408064,0.280338 -0.204882,1.35412 0.945854,0.256052 0,0.53579 -0.409364,0 0.07646,0.791942 0.791143,0.331908 0.53689,2.01624 -1.07358,-0.688902 -0.254453,1.43057 -1.35352,0.127027 -0.662817,1.27576 -1.1499401,0.05087 -1.32703,0.614645 0.586361,1.14794 -0.791243,1.32693 -0.740572,-0.254453 0.05127,-1.88951 -0.663417,-0.05067 0.127726,-0.817028 -1.07328,0.07646 0.127726,1.60827 -1.07178,0.333307 0.075756,0.663117 1.14964,-0.204182 0.050571,0.689002 -2.73132,1.07218 -1.68543,0.944754 -0.332308,0.331608 -0.612846,0.255752 0.818427,-0.331209 -0.076756,0.943755 -0.867999,0.740972 0.254753,1.07148 -0.460334,0.408664 1.27706,1.60867 1.27706,-0.409064 0,1.48224 0.408364,1.14934 -0.817428,0.458235 0.280238,3.21794 -2.16945,0.53679 0.739873,5.10645 2.34924,0.07576 -0.255153,0.946253 0.076156,-0.307522 0.178997,-0.177997 1.35352,0.281337 1.48054,-0.204882 0.53609,0.204882 -0.279938,1.27636 1.14894,0 0.613945,0.663417 0.534991,0.868398 -0.739873,0.486119 0.53609,0.38158 0.790543,-0.332008 0.280538,-1.65954 1.4816404,-0.280638 2.27349,-0.203482 -0.205981,-1.89031 0.205981,-0.714687 2.4246,-0.15501 0.331608,1.27846 -0.944854,1.60827 0.613246,0.944454 0.535391,0.128426 0.129125,-0.383978 0.611847,-0.151812 0.740272,0.944155 6.43588,-1.48124 0.740572,0.944454 2.29657,1.35452 2.60579,-1.15143 2.96169,-0.992627 0.612846,2.88323 -0.562275,-2.62878 0.408364,-0.332608 2.83476,-0.817028 2.01663,-0.791543 1.7356,-1.35492 3.09131,0.15501 5.84632,0.995725 1.27806,-1.20031 -0.741272,-0.740572 -0.204182,-0.867699 0.867999,-0.944454 -0.53669,-0.868698 -0.203882,-1.09797 0.818027,-0.178697 0.05027,-2.91052 -1.45566,0.07646 -0.357493,-1.53321 0.741372,-1.02051 -0.05237,-0.53579 -0.07706,-0.791843 -1.14834,-0.07576 -1.12345,0.534691 -0.357394,-2.14436 0.944454,-0.07606 0.280638,-0.792342 1.32863,0.255852 -0.05167,-1.60897 -0.945054,0.127726 -0.127127,-1.48014 -1.02081,-0.179396 -0.05167,-1.35352 0.382479,-0.07606 -0.663417,-3.42172 0.740272,0 0.204482,0.48472 0.53579,-0.07646 0.204182,2.01703 1.86472,-0.280638 2.01663,-0.331908 0.944055,-1.48124 5.31203,-0.127726 2.96149,0.408064 1.27766,0.665516 0.868398,0.407964 0.255153,0.53609 2.22182,-1.7367 2.01634,-1.48124 1.07318,2.01833 1.27466,-0.281238 0.819027,1.14934 3.62501,-1.35422 0.128026,1.02191 -0.128026,0.790843 1.32963,-0.127027 1.01991,-0.663816 0.663117,0.790843 -1.19991,0.689002 0.204882,0.714787 1.12345,0 0.153611,1.22649 1.45396,1.68533 -0.127326,1.86452 -0.611147,0.07606 0,-0.53609 -0.58846,0.203482 0,1.12345 2.68185,-0.05097 0.331908,-0.535391 2.4246,-0.331908 0.256152,1.45546 1.27706,0 -0.205581,-0.996824 2.17155,-0.126727 0.254853,0.459734 2.09509,0 0,-0.409064 1.12215,-0.152212 0,-1.3786 -0.459335,-0.205581 0.127426,-0.943755 0.739873,0 0.07646,-0.409064 0.869398,-0.204482 -0.332608,-1.736 -0.689302,0.204182 -0.253753,-0.996824 0,-1.35212 -0.07815,-1.14964 1.42957,-1.68533 1.81315,0.893384 0.663117,0.53679 1.81315,0 0.462033,0.382179 0.151912,-1.07218 0.995025,-0.534991 0,-1.65994 -0.458235,-1.86412 1.12245,-0.996025 -0.383279,-2.01723 -0.407664,-1.68513 -3.42282,-0.127726 -0.356994,-1.27636 1.35482,0 -0.256152,-2.96289 -0.153511,-1.94028 0.816328,-0.152312 -0.204182,-1.27706 1.48084,-0.178897 -0.278539,-1.88941 -2.35054,-0.128226 -0.459335,-0.945654 -1.02231,0.128826 -0.382179,-0.638231 z"
   id="path10"
   style="fill:#ffdf49" />
  <g
   id="_380421048">
   <path
   d="m 12.6872,33.649 c 0.471028,0 0.862502,-0.373584 0.862502,-0.844212 0,-0.470528 -0.391474,-0.842413 -0.862502,-0.842413 -0.451039,0 -0.823924,0.371885 -0.823924,0.842413 0,0.470628 0.372885,0.844212 0.823924,0.844212 z"
   id="_380421144"
   style="fill:#fefefe;stroke:#2b2a29;stroke-width:0.118432" />
   <path
   d="m 12.6982,33.0055 c 0.109137,0 0.202083,-0.09125 0.202083,-0.200784 0,-0.109537 -0.09295,-0.200984 -0.202083,-0.200984 -0.100842,0 -0.184194,0.09145 -0.184194,0.200984 0,0.109537 0.08335,0.200784 0.184194,0.200784 z"
   id="_380421096"
   style="fill:#2b2a29;stroke:#2b2a29;stroke-width:0.076156" />
  </g>
  <g
   id="_335653256">
   <path
   d="m 54.7499,20.7616 c 0.471328,0 0.863201,-0.373584 0.863201,-0.844812 0,-0.470528 -0.391874,-0.842513 -0.863201,-0.842513 -0.45034,0 -0.823624,0.371985 -0.823624,0.842513 0,0.471228 0.373284,0.844812 0.823624,0.844812 z"
   id="_335653352"
   style="fill:#fefefe;stroke:#2b2a29;stroke-width:0.118432" />
   <path
   d="m 54.7623,20.1187 c 0.108437,0 0.201084,-0.09135 0.201084,-0.201883 0,-0.108637 -0.09265,-0.200184 -0.201084,-0.200184 -0.101941,0 -0.184593,0.09155 -0.184593,0.200184 0,0.110536 0.08265,0.201883 0.184593,0.201883 z"
   id="_335653304"
   style="fill:#2b2a29;stroke:#2b2a29;stroke-width:0.076156" />
  </g>
  <g
   id="_335653088">
   <path
   d="m 40.0117,26.4272 c 0.471628,0 0.863501,-0.373284 0.863501,-0.844612 0,-0.470528 -0.391874,-0.842713 -0.863501,-0.842713 -0.45074,0 -0.823324,0.372185 -0.823324,0.842713 0,0.471328 0.372585,0.844612 0.823324,0.844612 z"
   id="_335653184"
   style="fill:#fefefe;stroke:#2b2a29;stroke-width:0.118432" />
   <path
   d="m 40.023,25.7842 c 0.109537,0 0.201484,-0.09125 0.201484,-0.201584 0,-0.108837 -0.09195,-0.200584 -0.201484,-0.200584 -0.100842,0 -0.184493,0.09175 -0.184493,0.200584 0,0.110336 0.08365,0.201584 0.184493,0.201584 z"
   id="_335653136"
   style="fill:#2b2a29;stroke:#2b2a29;stroke-width:0.076156" />
  </g>
  <g
   id="_335652920">
   <path
   d="m 71.1415,23.8536 c 0.472027,0 0.8652,-0.372385 0.8652,-0.843713 0,-0.470328 -0.393173,-0.843213 -0.8652,-0.843213 -0.44974,0 -0.822925,0.372885 -0.822925,0.843213 0,0.471328 0.373184,0.843713 0.822925,0.843713 z"
   id="_335653016"
   style="fill:#fefefe;stroke:#2b2a29;stroke-width:0.118432" />
   <path
   d="m 71.1532,23.212 c 0.109437,0 0.201683,-0.09275 0.201683,-0.202083 0,-0.108837 -0.09225,-0.200884 -0.201683,-0.200884 -0.100542,0 -0.183494,0.09205 -0.183494,0.200884 0,0.109337 0.08295,0.202083 0.183494,0.202083 z"
   id="_335652968"
   style="fill:#2b2a29;stroke:#2b2a29;stroke-width:0.076156" />
  </g>
  <g
   id="_380842936">
   <path
   d="m 35.78,61.0713 c 0.472127,0 0.862901,-0.371885 0.862901,-0.842913 0,-0.471727 -0.390774,-0.844212 -0.862901,-0.844212 -0.44994,0 -0.822825,0.372485 -0.822825,0.844212 0,0.471028 0.372885,0.842913 0.822825,0.842913 z"
   id="_380843032"
   style="fill:#fefefe;stroke:#2b2a29;stroke-width:0.118432" />
   <path
   d="m 35.7917,60.4298 c 0.109237,0 0.202183,-0.09155 0.202183,-0.201384 0,-0.109437 -0.09295,-0.201384 -0.202183,-0.201384 -0.100142,0 -0.184493,0.09195 -0.184493,0.201384 0,0.109837 0.08435,0.201384 0.184493,0.201384 z"
   id="_380842984"
   style="fill:#2b2a29;stroke:#2b2a29;stroke-width:0.076156" />
  </g>
  <g
   id="_380842768">
   <path
   d="m 9.90338,50.9675 c 0.470628,0 0.862901,-0.372485 0.862901,-0.843912 0,-0.469929 -0.392273,-0.843912 -0.862901,-0.843912 -0.45034,0 -0.822925,0.373984 -0.822925,0.843912 0,0.471428 0.372585,0.843912 0.822925,0.843912 z"
   id="_380842864"
   style="fill:#fefefe;stroke:#2b2a29;stroke-width:0.118432" />
   <path
   d="m 9.91507,50.3257 c 0.109837,0 0.201783,-0.09305 0.201783,-0.202183 0,-0.109137 -0.09195,-0.201384 -0.201783,-0.201384 -0.100542,0 -0.183494,0.09225 -0.183494,0.201384 0,0.109137 0.082952,0.202183 0.183494,0.202183 z"
   id="_380842816"
   style="fill:#2b2a29;stroke:#2b2a29;stroke-width:0.076156" />
  </g>
  <g
   id="_380842600">
   <path
   d="m 40.9392,58.0771 c 0.471628,0 0.864501,-0.372585 0.864501,-0.843513 0,-0.470728 -0.392873,-0.843613 -0.864501,-0.843613 -0.45004,0 -0.822625,0.372885 -0.822625,0.843613 0,0.470928 0.372585,0.843513 0.822625,0.843513 z"
   id="_380842696"
   style="fill:#fefefe;stroke:#2b2a29;stroke-width:0.118432" />
   <path
   d="m 40.9516,57.435 c 0.109137,0 0.200684,-0.09265 0.200684,-0.201384 0,-0.109237 -0.09155,-0.201783 -0.200684,-0.201783 -0.101242,0 -0.184294,0.09255 -0.184294,0.201783 0,0.108737 0.08305,0.201384 0.184294,0.201384 z"
   id="_380842648"
   style="fill:#2b2a29;stroke:#2b2a29;stroke-width:0.076156" />
  </g>
  <path
   d="m 15.1939,34.0744 0,0.663117 c 0.09834,0 0.166004,-0.01799 0.202683,-0.05427 0.03708,-0.03598 0.08395,-0.12093 0.141019,-0.254553 0.04198,-0.09904 0.07656,-0.169202 0.10404,-0.210179 0.02708,-0.04088 0.06596,-0.07536 0.115933,-0.10324 0.05047,-0.02788 0.105439,-0.04198 0.165404,-0.04198 0.06526,0 0.106139,6.99e-4 0.12203,0.0021 l 0,0.1735 c -0.0064,0 -0.01949,-3.99e-4 -0.03958,-0.0011 -0.02179,-6.99e-4 -0.03518,-9.99e-4 -0.04018,-9.99e-4 -0.06416,0 -0.111336,0.01549 -0.142418,0.04647 -0.03168,0.03108 -0.06806,0.09734 -0.108537,0.198485 -0.04407,0.109337 -0.08215,0.184094 -0.114634,0.223571 -0.03238,0.03948 -0.07935,0.07266 -0.140619,0.09874 0.09934,0.02748 0.195287,0.117732 0.288333,0.270344 l 0.31202,0.504209 -0.248157,0 -0.252854,-0.411063 c -0.06766,-0.108937 -0.124428,-0.185493 -0.170601,-0.230267 -0.04617,-0.04477 -0.110736,-0.06736 -0.193888,-0.06736 l 0,0.708691 -0.205581,0 0,-0.708691 c -0.06626,0 -0.124828,0.01769 -0.175199,0.05217 -0.05077,0.03498 -0.109637,0.109737 -0.176998,0.22467 l -0.01269,0.02079 -0.252754,0.411063 -0.248956,0 0.31172,-0.504209 c 0.09515,-0.153311 0.191389,-0.243559 0.289433,-0.270344 -0.05467,-0.02229 -0.09914,-0.05147 -0.133323,-0.08855 -0.03448,-0.03668 -0.07546,-0.114534 -0.123029,-0.233765 -0.04337,-0.108237 -0.08035,-0.175898 -0.111436,-0.203383 -0.03098,-0.02788 -0.07715,-0.04158 -0.13852,-0.04158 l -0.08035,0.0021 0,-0.1735 c 0.0074,-0.0014 0.04577,-0.0021 0.115633,-0.0021 0.06586,0 0.123329,0.01379 0.171701,0.04088 0.04867,0.02719 0.08675,0.06137 0.114234,0.102241 0.02748,0.04098 0.06306,0.111835 0.106439,0.212277 0.05787,0.135722 0.104739,0.220673 0.141019,0.255253 0.03598,0.03418 0.10364,0.05217 0.203083,0.05357 l 0,-0.663117 0.205581,0 z m 0.920168,0.965642 c 0,-0.203083 0.05637,-0.353596 0.169602,-0.451239 0.09415,-0.08115 0.209079,-0.12203 0.344801,-0.12203 0.150913,0 0.274242,0.04937 0.369786,0.148414 0.09595,0.09874 0.143517,0.235164 0.143517,0.409364 0,0.141318 -0.02119,0.252454 -0.06346,0.333108 -0.04228,0.08115 -0.10394,0.143917 -0.184693,0.188691 -0.08115,0.04477 -0.169302,0.06696 -0.265147,0.06696 -0.153411,0 -0.27744,-0.04897 -0.372285,-0.147715 -0.09484,-0.09834 -0.142118,-0.240061 -0.142118,-0.425554 z m 0.19109,0 c 0,0.140619 0.03068,0.245758 0.09205,0.315518 0.06136,0.07016 0.13852,0.105039 0.231266,0.105039 0.09235,0 0.169202,-0.03518 0.230567,-0.105339 0.06096,-0.07016 0.09165,-0.177398 0.09165,-0.321214 0,-0.135722 -0.03068,-0.238662 -0.09235,-0.308522 -0.06166,-0.06976 -0.13822,-0.10464 -0.229867,-0.10464 -0.09275,0 -0.169902,0.03488 -0.231266,0.10434 -0.06136,0.06946 -0.09205,0.174499 -0.09205,0.314818 z m 1.05559,-0.548283 0.428752,0 c 0.105339,0 0.183694,0.0089 0.235164,0.02608 0.05107,0.01769 0.09514,0.04977 0.132124,0.09664 0.03668,0.04687 0.05537,0.102941 0.05537,0.168503 0,0.05217 -0.01089,0.09804 -0.03278,0.136821 -0.02149,0.03878 -0.05427,0.07156 -0.09764,0.09764 0.05187,0.01729 0.09455,0.04937 0.128726,0.09664 0.03418,0.04717 0.05107,0.102941 0.05107,0.167803 -0.0067,0.10404 -0.04407,0.181195 -0.111436,0.231266 -0.06766,0.05047 -0.165704,0.07546 -0.29433,0.07546 l -0.495014,0 0,-1.09687 z m 0.186192,0.461533 0.198086,0 c 0.07935,0 0.133623,-0.0039 0.163206,-0.01229 0.02968,-0.0081 0.05607,-0.02508 0.07975,-0.05007 0.02329,-0.02509 0.03488,-0.05537 0.03488,-0.09025 0,-0.05787 -0.02049,-0.09844 -0.06137,-0.12093 -0.04088,-0.02299 -0.111036,-0.03428 -0.210079,-0.03428 l -0.204482,0 0,0.307822 z m 0,0.482321 0.244659,0 c 0.105439,0 0.177697,-0.01199 0.216775,-0.03668 0.03948,-0.02429 0.05997,-0.06666 0.06206,-0.126227 0,-0.03528 -0.01129,-0.06766 -0.03418,-0.09764 -0.02259,-0.02998 -0.05217,-0.04897 -0.08845,-0.05677 -0.03668,-0.0081 -0.09524,-0.01199 -0.175998,-0.01199 l -0.22487,0 0,0.32931 z m 0.790044,-0.943855 0.891585,0 0,0.153711 -0.353296,0 0,0.943155 -0.185093,0 0,-0.943155 -0.353196,0 0,-0.153711 z m 1.06998,-0.203383 0,-0.213976 0.186192,0 0,0.213976 -0.186192,0 z m 0,1.30025 0,-1.09687 0.186192,0 0,1.09687 -0.186192,0 z m 1.07218,0 0,-1.51423 0.568272,0 c 0.115633,0 0.20838,0.01549 0.278239,0.04577 0.07016,0.03068 0.124728,0.07796 0.164205,0.141718 0.03958,0.06346 0.05966,0.130125 0.05966,0.199984 0,0.06446 -0.01769,0.125428 -0.05297,0.182595 -0.03488,0.05707 -0.08805,0.10334 -0.158908,0.13852 0.09165,0.02678 0.161807,0.07266 0.211178,0.137221 0.04927,0.06486 0.07396,0.141318 0.07396,0.229467 0,0.07086 -0.01509,0.136821 -0.04507,0.197786 -0.02998,0.06096 -0.06696,0.107938 -0.111036,0.141019 -0.04407,0.03318 -0.09944,0.05787 -0.165704,0.07476 -0.06636,0.01689 -0.147715,0.02539 -0.244359,0.02539 l -0.577466,0 z m 0.200584,-0.877893 0.327511,0 c 0.08855,0 0.152312,-0.006 0.19109,-0.01759 0.05077,-0.01519 0.08925,-0.04018 0.114934,-0.07546 0.02578,-0.03528 0.03878,-0.07935 0.03878,-0.132224 0,-0.05007 -0.01199,-0.09445 -0.03598,-0.132523 -0.02429,-0.03848 -0.05887,-0.06456 -0.10324,-0.07865 -0.04477,-0.01409 -0.12163,-0.02119 -0.230567,-0.02119 l -0.302525,0 0,0.457636 z m 0,0.699096 0.376882,0 c 0.06486,0 0.110336,-0.0024 0.136421,-0.007 0.04617,-0.0085 0.08465,-0.02219 0.115633,-0.04158 0.03108,-0.01909 0.05647,-0.04727 0.07656,-0.08395 0.01969,-0.03698 0.02998,-0.07935 0.02998,-0.127626 0,-0.05637 -0.01449,-0.105439 -0.04337,-0.147415 -0.02898,-0.04158 -0.06916,-0.07086 -0.12063,-0.08775 -0.05107,-0.01659 -0.125128,-0.02498 -0.221372,-0.02498 l -0.350098,0 0,0.520299 z m 1.12575,-0.369786 c 0,-0.203083 0.05637,-0.353596 0.169602,-0.451239 0.09415,-0.08115 0.209079,-0.12203 0.344801,-0.12203 0.150913,0 0.274242,0.04937 0.369786,0.148414 0.09595,0.09874 0.143517,0.235164 0.143517,0.409364 0,0.141318 -0.02119,0.252454 -0.06346,0.333108 -0.04228,0.08115 -0.10394,0.143917 -0.184693,0.188691 -0.08115,0.04477 -0.169302,0.06696 -0.265147,0.06696 -0.153411,0 -0.27744,-0.04897 -0.372285,-0.147715 -0.09485,-0.09834 -0.142118,-0.240061 -0.142118,-0.425554 z m 0.19109,0 c 0,0.140619 0.03068,0.245758 0.09205,0.315518 0.06136,0.07016 0.13852,0.105039 0.231266,0.105039 0.09235,0 0.169202,-0.03518 0.230567,-0.105339 0.06096,-0.07016 0.09165,-0.177398 0.09165,-0.321214 0,-0.135722 -0.03068,-0.238662 -0.09235,-0.308522 -0.06166,-0.06976 -0.13822,-0.10464 -0.229867,-0.10464 -0.09275,0 -0.169902,0.03488 -0.231266,0.10434 -0.06136,0.06946 -0.09205,0.174499 -0.09205,0.314818 z m 1.15493,-0.548283 0.764358,0 0,0.943855 0.118532,0 0,0.463932 -0.152712,0 0,-0.31092 -0.863401,0 0,0.31092 -0.153012,0 0,-0.463932 0.09804,0 c 0.130724,-0.177697 0.193488,-0.492216 0.188191,-0.943855 z m 0.154811,0.153711 c -0.01369,0.356094 -0.06876,0.619542 -0.165305,0.790144 l 0.589759,0 0,-0.790144 -0.424455,0 z m 0.932861,-0.153711 0.185793,0 0,0.836717 0.515402,-0.836717 0.200284,0 0,1.09687 -0.185793,0 0,-0.83132 -0.515402,0.83132 -0.200284,0 0,-1.09687 z"
   id="path33"
   style="fill:#2b2a29;fill-rule:nonzero" />
  <path
   d="m 31.3711,22.14 0.921268,0 0,1.33543 0.136421,0 0,0.532093 -0.178697,0 0,-0.353296 -1.00092,0 0,0.353296 -0.178797,0 0,-0.532093 0.117732,0 c 0.12203,-0.183594 0.182994,-0.555279 0.182994,-1.11436 l 0,-0.221072 z m 0.720684,0.178697 -0.527795,0 0,0.07756 c 0,0.128726 -0.01129,0.304624 -0.03458,0.528195 -0.02289,0.223471 -0.06836,0.407165 -0.135722,0.550982 l 0.698097,0 0,-1.15673 z m 0.551381,0.238662 0.186192,0 0,0.456636 0.515402,0 0,-0.456636 0.185793,0 0,1.09687 -0.185793,0 0,-0.486519 -0.515402,0 0,0.486519 -0.186192,0 0,-1.09687 z m 1.16803,-0.203383 0,-0.213976 0.186192,0 0,0.213976 -0.186192,0 z m 0,1.30025 0,-1.09687 0.186192,0 0,1.09687 -0.186192,0 z m 0.469929,-1.09687 0.8659,0 0,1.09687 -0.186192,0 0,-0.943155 -0.493515,0 0,0.943155 -0.186192,0 0,-1.09687 z m 1.14474,1.51712 0,-1.51712 0.169202,0 0,0.142518 c 0.03988,-0.05577 0.08495,-0.09774 0.135422,-0.125527 0.05007,-0.02788 0.111036,-0.04198 0.182595,-0.04198 0.09385,0 0.176298,0.02429 0.247857,0.07226 0.07196,0.04827 0.125927,0.116333 0.162206,0.204182 0.03668,0.08775 0.05497,0.183994 0.05497,0.288733 0,0.112135 -0.02009,0.213277 -0.06066,0.303225 -0.04018,0.08985 -0.09864,0.158608 -0.175499,0.206581 -0.07686,0.04757 -0.157609,0.07156 -0.24226,0.07156 -0.06206,0 -0.117432,-0.01309 -0.166704,-0.03918 -0.04937,-0.02608 -0.08955,-0.05917 -0.12133,-0.09904 l 0,0.533792 -0.185793,0 z m 0.168203,-0.962544 c 0,0.141118 0.02848,0.245458 0.08565,0.313119 0.05707,0.06736 0.126527,0.101142 0.20768,0.101142 0.08245,0 0.153311,-0.03488 0.212177,-0.105039 0.05887,-0.06976 0.08855,-0.177997 0.08855,-0.324712 0,-0.139919 -0.02888,-0.244259 -0.08645,-0.314119 -0.05747,-0.06946 -0.126127,-0.10434 -0.205881,-0.10434 -0.07925,0 -0.149414,0.03698 -0.210478,0.111036 -0.06096,0.07406 -0.09125,0.181895 -0.09125,0.322913 z m 0.938858,-0.0063 c 0,-0.203083 0.05637,-0.353596 0.169602,-0.451239 0.09415,-0.08115 0.209079,-0.12203 0.344801,-0.12203 0.150913,0 0.274242,0.04937 0.369786,0.148414 0.09595,0.09874 0.143517,0.235164 0.143517,0.409364 0,0.141318 -0.02119,0.252454 -0.06346,0.333108 -0.04228,0.08115 -0.10394,0.143917 -0.184693,0.188691 -0.08115,0.04477 -0.169302,0.06696 -0.265147,0.06696 -0.153411,0 -0.27744,-0.04897 -0.372285,-0.147715 -0.09485,-0.09834 -0.142118,-0.240061 -0.142118,-0.425554 z m 0.19109,0 c 0,0.140619 0.03068,0.245758 0.09205,0.315518 0.06136,0.07016 0.13852,0.105039 0.231266,0.105039 0.09235,0 0.169202,-0.03518 0.230567,-0.105339 0.06096,-0.07016 0.09165,-0.177398 0.09165,-0.321214 0,-0.135722 -0.03068,-0.238662 -0.09235,-0.308522 -0.06166,-0.06976 -0.13822,-0.10464 -0.229867,-0.10464 -0.09275,0 -0.169902,0.03488 -0.231266,0.10434 -0.06136,0.06946 -0.09205,0.174499 -0.09205,0.314818 z m 1.15493,-0.548283 0.764358,0 0,0.943855 0.118532,0 0,0.463932 -0.152712,0 0,-0.31092 -0.863401,0 0,0.31092 -0.153012,0 0,-0.463932 0.09804,0 c 0.130724,-0.177697 0.193488,-0.492216 0.188191,-0.943855 z m 0.154811,0.153711 c -0.01369,0.356094 -0.06876,0.619542 -0.165305,0.790144 l 0.589759,0 0,-0.790144 -0.424455,0 z m 1.17542,0.447442 0,-0.145616 c 0.07865,-7e-4 0.131824,-0.0039 0.160807,-0.0095 0.02848,-0.0053 0.05527,-0.02189 0.08105,-0.04937 0.02539,-0.02748 0.03808,-0.06206 0.03808,-0.10334 0,-0.05037 -0.01659,-0.09055 -0.05007,-0.12053 -0.03348,-0.02998 -0.07646,-0.04477 -0.129725,-0.04477 -0.104739,0 -0.178097,0.06166 -0.219973,0.184693 l -0.176698,-0.02888 c 0.05507,-0.205881 0.187891,-0.308822 0.39877,-0.308822 0.117032,0 0.208679,0.03208 0.275341,0.09624 0.06626,0.06386 0.09974,0.140319 0.09974,0.229168 0,0.08955 -0.04367,0.160807 -0.130425,0.213976 0.05537,0.02968 0.09665,0.06736 0.124128,0.112835 0.02748,0.04587 0.04128,0.100142 0.04128,0.162906 0,0.09834 -0.03568,0.178397 -0.107538,0.239761 -0.07156,0.06096 -0.171701,0.09165 -0.300426,0.09165 -0.249956,0 -0.394872,-0.111036 -0.435049,-0.333507 l 0.174899,-0.03708 c 0.01589,0.07016 0.04797,0.124528 0.09654,0.162906 0.04837,0.03878 0.10404,0.05787 0.166804,0.05787 0.06236,0 0.114534,-0.01769 0.15651,-0.05287 0.04158,-0.03568 0.06246,-0.08075 0.06246,-0.136121 0,-0.04267 -0.01309,-0.07965 -0.03948,-0.111436 -0.02619,-0.03168 -0.05397,-0.05147 -0.08365,-0.05927 -0.02958,-0.0081 -0.08315,-0.01189 -0.161107,-0.01189 -0.006,0 -0.02039,3e-4 -0.04228,10e-4 z m 1.45436,0.142418 0.192189,0.02369 c -0.03028,0.112435 -0.08635,0.199485 -0.168203,0.261549 -0.08215,0.06176 -0.186792,0.09275 -0.314119,0.09275 -0.160407,0 -0.287634,-0.04937 -0.38148,-0.148114 -0.09415,-0.09864 -0.141019,-0.237263 -0.141019,-0.41566 0,-0.184693 0.04757,-0.327911 0.142418,-0.429752 0.09524,-0.101941 0.218274,-0.153012 0.369886,-0.153012 0.146615,0 0.266546,0.05007 0.359192,0.149813 0.09315,0.09984 0.139619,0.240461 0.139619,0.421357 0,0.01129 -3e-4,0.02778 -9.99e-4,0.04967 l -0.817927,0 c 0.0067,0.12063 0.04088,0.212977 0.102241,0.27674 0.06136,0.06416 0.137421,0.09624 0.229168,0.09624 0.06806,0 0.126227,-0.01789 0.174499,-0.05387 0.04827,-0.03568 0.08635,-0.09275 0.114534,-0.171401 z m -0.610247,-0.300726 0.612446,0 c -0.0082,-0.09205 -0.03178,-0.161407 -0.07016,-0.20728 -0.05927,-0.07156 -0.136122,-0.107538 -0.230267,-0.107538 -0.08535,0 -0.157209,0.02858 -0.215376,0.08565 -0.05827,0.05717 -0.09035,0.133623 -0.09664,0.229168 z m 1.0362,1.07428 0,-1.51712 0.169202,0 0,0.142518 c 0.03988,-0.05577 0.08495,-0.09774 0.135422,-0.125527 0.05007,-0.02788 0.111036,-0.04198 0.182595,-0.04198 0.09385,0 0.176298,0.02429 0.247857,0.07226 0.07196,0.04827 0.125927,0.116333 0.162206,0.204182 0.03668,0.08775 0.05497,0.183994 0.05497,0.288733 0,0.112135 -0.02009,0.213277 -0.06067,0.303225 -0.04018,0.08985 -0.09864,0.158608 -0.175499,0.206581 -0.07685,0.04757 -0.157609,0.07156 -0.24226,0.07156 -0.06206,0 -0.117432,-0.01309 -0.166704,-0.03918 -0.04937,-0.02609 -0.08955,-0.05917 -0.12133,-0.09904 l 0,0.533792 -0.185793,0 z m 0.168203,-0.962544 c 0,0.141118 0.02848,0.245458 0.08565,0.313119 0.05707,0.06736 0.126527,0.101142 0.20768,0.101142 0.08245,0 0.153311,-0.03488 0.212177,-0.105039 0.05887,-0.06976 0.08855,-0.177997 0.08855,-0.324712 0,-0.139919 -0.02888,-0.244259 -0.08645,-0.314119 -0.05747,-0.06946 -0.126127,-0.10434 -0.205881,-0.10434 -0.07925,0 -0.149414,0.03698 -0.210478,0.111036 -0.06097,0.07406 -0.09125,0.181895 -0.09125,0.322913 z m 1.67113,-0.55458 0,0.473926 c 0.05927,0 0.101142,-0.01129 0.125128,-0.03388 0.02399,-0.02289 0.05927,-0.08885 0.105439,-0.198485 0.04338,-0.10404 0.08215,-0.170302 0.116733,-0.199185 0.03348,-0.02818 0.08745,-0.04237 0.161107,-0.04237 l 0.06806,0 0,0.153711 -0.05047,-0.001 c -0.04967,0 -0.08145,0.0074 -0.09515,0.02189 -0.01449,0.01509 -0.03638,0.06026 -0.06596,0.135322 -0.02788,0.07156 -0.05327,0.12093 -0.07646,0.148414 -0.02369,0.02788 -0.05996,0.05297 -0.109737,0.07546 0.08075,0.02159 0.159008,0.09595 0.235564,0.223171 l 0.204482,0.339904 -0.204482,0 -0.199185,-0.339904 c -0.04058,-0.06876 -0.07616,-0.113834 -0.106538,-0.135322 -0.03028,-0.02119 -0.06626,-0.03178 -0.108537,-0.03178 l 0,0.507007 -0.18999,0 0,-0.507007 c -0.04128,0 -0.07686,0.01029 -0.107238,0.03138 -0.03028,0.02079 -0.06596,0.06626 -0.106439,0.135722 l -0.199585,0.339904 -0.204482,0 0.203782,-0.339904 c 0.07686,-0.127226 0.15581,-0.201584 0.236264,-0.223171 -0.05507,-0.02538 -0.09345,-0.05317 -0.115633,-0.08315 -0.02189,-0.02968 -0.05507,-0.101242 -0.09914,-0.214076 -0.01509,-0.03798 -0.03138,-0.06126 -0.04867,-0.07046 -0.01759,-0.0088 -0.04438,-0.01339 -0.07926,-0.01339 -0.0092,0 -0.02718,3e-4 -0.05507,9.99e-4 l 0,-0.153711 0.02609,0 c 0.07166,0 0.12203,0.0043 0.151313,0.01269 0.02928,0.0089 0.05537,0.02688 0.07855,0.05507 0.02299,0.02778 0.05297,0.08565 0.09035,0.1738 0.04547,0.108237 0.07995,0.1738 0.10364,0.197386 0.02399,0.02329 0.06556,0.03498 0.125527,0.03498 l 0,-0.473926 0.18999,0 z m 0.752365,0 0.185793,0 0,0.836717 0.515402,-0.836717 0.200284,0 0,1.09687 -0.185793,0 0,-0.83132 -0.515402,0.83132 -0.200284,0 0,-1.09687 z m 1.18252,0 0.186192,0 0,0.456636 0.515402,0 0,-0.456636 0.185793,0 0,1.09687 -0.185793,0 0,-0.486519 -0.515402,0 0,0.486519 -0.186192,0 0,-1.09687 z m 1.88301,0.694899 0.182595,0.02399 c -0.01969,0.125927 -0.07086,0.22457 -0.153311,0.295829 -0.08215,0.07126 -0.183294,0.106838 -0.303225,0.106838 -0.149813,0 -0.270744,-0.04897 -0.361691,-0.147015 -0.09135,-0.09804 -0.137221,-0.238662 -0.137221,-0.422056 0,-0.118432 0.01979,-0.222072 0.05897,-0.31092 0.03948,-0.08885 0.09904,-0.15551 0.179396,-0.199885 0.08005,-0.04447 0.167503,-0.06666 0.261649,-0.06666 0.119131,0 0.216775,0.03028 0.292231,0.09065 0.07586,0.06027 0.124428,0.145616 0.146016,0.256652 l -0.180895,0.02778 c -0.01729,-0.07366 -0.04757,-0.129025 -0.09135,-0.166404 -0.04368,-0.03698 -0.09654,-0.05567 -0.158608,-0.05567 -0.09385,0 -0.170002,0.03348 -0.228468,0.100842 -0.05857,0.06696 -0.08785,0.1731 -0.08785,0.318316 0,0.147415 0.02828,0.254553 0.08505,0.321614 0.05637,0.06656 0.130025,0.100042 0.220972,0.100042 0.07306,0 0.133623,-0.02249 0.182694,-0.06726 0.04897,-0.04477 0.08005,-0.113534 0.09305,-0.206681 z m 0.338804,-0.694899 0.185793,0 0,0.428452 0.235564,0 c 0.153711,0 0.271843,0.02988 0.354695,0.08955 0.08315,0.05957 0.124428,0.141718 0.124428,0.246358 0,0.09135 -0.03458,0.170002 -0.10364,0.234864 -0.06916,0.06516 -0.179796,0.09764 -0.332108,0.09764 l -0.464732,0 0,-1.09687 z m 0.185793,0.943855 0.195387,0 c 0.117732,0 0.201584,-0.01449 0.252054,-0.04338 0.05007,-0.02888 0.07506,-0.07406 0.07506,-0.135022 0,-0.04757 -0.01829,-0.08995 -0.05567,-0.127226 -0.03698,-0.03708 -0.119531,-0.05577 -0.246757,-0.05577 l -0.220073,0 0,0.361391 z m 0.918369,-0.943855 0.185793,0 0,0.473926 c 0.05927,0 0.100842,-0.01129 0.124528,-0.03388 0.02359,-0.02289 0.05847,-0.08885 0.10464,-0.198485 0.03668,-0.08675 0.06636,-0.143817 0.08885,-0.171401 0.02299,-0.02748 0.04907,-0.04617 0.07865,-0.05567 0.02958,-0.0099 0.07726,-0.01449 0.142418,-0.01449 l 0.03738,0 0,0.153711 -0.05177,-0.001 c -0.04867,0 -0.08005,0.0074 -0.09385,0.02189 -0.01439,0.01509 -0.03668,0.06026 -0.06626,0.135322 -0.02818,0.07156 -0.05397,0.12093 -0.07755,0.148414 -0.02329,0.02788 -0.05957,0.05297 -0.108237,0.07546 0.07965,0.02159 0.158309,0.09595 0.235464,0.223171 l 0.203482,0.339904 -0.204482,0 -0.198485,-0.339904 c -0.04058,-0.06806 -0.07616,-0.113135 -0.106139,-0.134622 -0.03028,-0.02189 -0.06666,-0.03248 -0.108637,-0.03248 l 0,0.507007 -0.185793,0 0,-1.09687 z"
   id="path35"
   style="fill:#2b2a29;fill-rule:nonzero" />
  <path
   d="m 66.0777,19.9609 1.19101,0 0,1.51423 -0.201683,0 0,-1.33553 -0.789044,0 0,1.33553 -0.200284,0 0,-1.51423 z m 2.21062,1.3788 c -0.06906,0.05857 -0.135422,0.09984 -0.198785,0.124128 -0.06386,0.02399 -0.132224,0.03598 -0.205281,0.03598 -0.12053,0 -0.212877,-0.02928 -0.27774,-0.08815 -0.06456,-0.05887 -0.09694,-0.134322 -0.09694,-0.22567 0,-0.05387 0.01189,-0.102941 0.03658,-0.147315 0.02439,-0.04447 0.05647,-0.08005 0.09595,-0.106838 0.03988,-0.02678 0.08425,-0.04727 0.133922,-0.06096 0.03638,-0.0096 0.09135,-0.01909 0.165005,-0.02788 0.150213,-0.01799 0.260949,-0.03918 0.331808,-0.06416 7e-4,-0.02539 0.001,-0.04158 0.001,-0.04827 0,-0.07586 -0.01759,-0.129425 -0.05287,-0.160108 -0.04717,-0.04228 -0.118032,-0.06306 -0.211478,-0.06306 -0.08745,0 -0.152012,0.01509 -0.193888,0.04577 -0.04168,0.03068 -0.07236,0.08495 -0.09245,0.162906 l -0.181495,-0.02509 c 0.01649,-0.07756 0.04368,-0.140619 0.08135,-0.188191 0.03778,-0.04797 0.09275,-0.08495 0.164305,-0.110736 0.07156,-0.02579 0.154411,-0.03878 0.248956,-0.03878 0.09375,0 0.169602,0.01129 0.228068,0.03318 0.05857,0.02219 0.101541,0.04967 0.129425,0.08315 0.02748,0.03348 0.04657,0.07546 0.05777,0.126627 0.006,0.03168 0.0092,0.08875 0.0092,0.171301 l 0,0.247857 c 0,0.1731 0.0039,0.282437 0.01199,0.327911 0.0078,0.04577 0.02359,0.08985 0.04687,0.131824 l -0.194188,0 c -0.01909,-0.03848 -0.03178,-0.08355 -0.03708,-0.135422 z m -0.01549,-0.41526 c -0.06766,0.02778 -0.168902,0.05107 -0.303525,0.07046 -0.07656,0.01099 -0.130824,0.02329 -0.162206,0.03708 -0.03178,0.01369 -0.05647,0.03378 -0.07336,0.06057 -0.01729,0.02649 -0.02608,0.05577 -0.02608,0.08815 0,0.04977 0.01909,0.09105 0.05637,0.124128 0.03738,0.03278 0.09245,0.04937 0.164705,0.04937 0.07156,0 0.135422,-0.01549 0.19109,-0.04687 0.05567,-0.03138 0.09694,-0.07446 0.123029,-0.128726 0.02009,-0.04198 0.02998,-0.10394 0.02998,-0.185793 l 0,-0.06836 z m 0.477024,-0.546184 0.428752,0 c 0.105339,0 0.183694,0.0089 0.235164,0.02608 0.05107,0.01769 0.09515,0.04977 0.132124,0.09664 0.03668,0.04687 0.05537,0.102941 0.05537,0.168503 0,0.05217 -0.01089,0.09804 -0.03278,0.136821 -0.02149,0.03878 -0.05427,0.07156 -0.09764,0.09764 0.05187,0.01729 0.09455,0.04937 0.128726,0.09664 0.03418,0.04717 0.05107,0.102941 0.05107,0.167803 -0.0067,0.10404 -0.04407,0.181195 -0.111436,0.231266 -0.06766,0.05047 -0.165704,0.07546 -0.29433,0.07546 l -0.495014,0 0,-1.09687 z m 0.186192,0.461533 0.198086,0 c 0.07935,0 0.133623,-0.0039 0.163206,-0.01229 0.02968,-0.0081 0.05607,-0.02509 0.07975,-0.05007 0.02329,-0.02509 0.03488,-0.05537 0.03488,-0.09025 0,-0.05787 -0.02049,-0.09844 -0.06136,-0.12093 -0.04088,-0.02299 -0.111036,-0.03428 -0.210079,-0.03428 l -0.204482,0 0,0.307822 z m 0,0.482321 0.244659,0 c 0.105439,0 0.177697,-0.01199 0.216775,-0.03668 0.03948,-0.02429 0.05996,-0.06666 0.06206,-0.126227 0,-0.03528 -0.01129,-0.06766 -0.03418,-0.09764 -0.02259,-0.02998 -0.05217,-0.04897 -0.08845,-0.05677 -0.03668,-0.0081 -0.09524,-0.01199 -0.175998,-0.01199 l -0.22487,0 0,0.32931 z m 0.979034,-0.943855 0.863701,0 0,1.09687 -0.185093,0 0,-0.943155 -0.492515,0 0,0.546484 c 0,0.127326 -0.0042,0.211578 -0.01229,0.252154 -0.0085,0.04048 -0.03108,0.07616 -0.06846,0.106439 -0.03698,0.03028 -0.09095,0.04547 -0.161107,0.04547 -0.04337,0 -0.09345,-0.0028 -0.149813,-0.0085 l 0,-0.154711 0.08175,0 c 0.03848,0 0.06596,-0.0043 0.08255,-0.01199 0.01659,-0.0081 0.02748,-0.02049 0.03308,-0.03778 0.0057,-0.01719 0.0082,-0.07326 0.0082,-0.168503 l 0,-0.722782 z m 1.09777,0.548283 c 0,-0.203083 0.05637,-0.353596 0.169602,-0.451239 0.09414,-0.08115 0.209079,-0.12203 0.344801,-0.12203 0.150913,0 0.274242,0.04937 0.369786,0.148414 0.09594,0.09874 0.143517,0.235164 0.143517,0.409364 0,0.141318 -0.02119,0.252454 -0.06346,0.333108 -0.04228,0.08115 -0.10394,0.143917 -0.184693,0.188691 -0.08115,0.04477 -0.169302,0.06696 -0.265147,0.06696 -0.153411,0 -0.27744,-0.04897 -0.372285,-0.147715 -0.09485,-0.09834 -0.142118,-0.240061 -0.142118,-0.425554 z m 0.19109,0 c 0,0.140619 0.03068,0.245758 0.09205,0.315518 0.06136,0.07016 0.13852,0.105039 0.231266,0.105039 0.09235,0 0.169202,-0.03518 0.230567,-0.105339 0.06096,-0.07016 0.09165,-0.177398 0.09165,-0.321214 0,-0.135722 -0.03068,-0.238662 -0.09235,-0.308522 -0.06166,-0.06976 -0.13822,-0.10464 -0.229867,-0.10464 -0.09275,0 -0.169902,0.03488 -0.231266,0.10434 -0.06136,0.06946 -0.09205,0.174499 -0.09205,0.314818 z m 1.05559,-0.548283 0.631135,0 0,0.153711 -0.444943,0 0,0.943155 -0.186192,0 0,-1.09687 z m 0.770755,1.51712 0,-1.51712 0.169202,0 0,0.142518 c 0.03988,-0.05577 0.08495,-0.09774 0.135422,-0.125527 0.05007,-0.02788 0.111036,-0.04198 0.182595,-0.04198 0.09385,0 0.176298,0.02429 0.247857,0.07226 0.07196,0.04827 0.125927,0.116333 0.162206,0.204182 0.03668,0.08775 0.05497,0.183994 0.05497,0.288733 0,0.112135 -0.02009,0.213277 -0.06067,0.303225 -0.04018,0.08985 -0.09864,0.158608 -0.175499,0.206581 -0.07686,0.04757 -0.157609,0.07156 -0.24226,0.07156 -0.06206,0 -0.117432,-0.01309 -0.166704,-0.03918 -0.04937,-0.02608 -0.08955,-0.05917 -0.12133,-0.09904 l 0,0.533792 -0.185793,0 z m 0.168203,-0.962544 c 0,0.141118 0.02848,0.245458 0.08565,0.313119 0.05707,0.06736 0.126527,0.101142 0.20768,0.101142 0.08245,0 0.153311,-0.03488 0.212177,-0.105039 0.05887,-0.06976 0.08855,-0.177997 0.08855,-0.324712 0,-0.139919 -0.02888,-0.244259 -0.08645,-0.314119 -0.05747,-0.06946 -0.126127,-0.10434 -0.205881,-0.10434 -0.07925,0 -0.149414,0.03698 -0.210478,0.111036 -0.06096,0.07406 -0.09125,0.181895 -0.09125,0.322913 z m 1.724,0.406865 c -0.06906,0.05857 -0.135422,0.09984 -0.198785,0.124128 -0.06386,0.02399 -0.132224,0.03598 -0.205281,0.03598 -0.12053,0 -0.212877,-0.02928 -0.27774,-0.08815 -0.06456,-0.05887 -0.09694,-0.134322 -0.09694,-0.22567 0,-0.05387 0.01189,-0.102941 0.03658,-0.147315 0.02439,-0.04447 0.05647,-0.08005 0.09594,-0.106838 0.03988,-0.02678 0.08425,-0.04727 0.133923,-0.06096 0.03638,-0.0096 0.09135,-0.01909 0.165005,-0.02788 0.150213,-0.01799 0.260949,-0.03918 0.331808,-0.06416 7e-4,-0.02538 10e-4,-0.04158 10e-4,-0.04827 0,-0.07586 -0.01759,-0.129425 -0.05287,-0.160108 -0.04717,-0.04228 -0.118032,-0.06306 -0.211478,-0.06306 -0.08745,0 -0.152012,0.01509 -0.193888,0.04577 -0.04168,0.03068 -0.07236,0.08495 -0.09245,0.162906 l -0.181495,-0.02509 c 0.01649,-0.07756 0.04367,-0.140619 0.08135,-0.188191 0.03778,-0.04797 0.09275,-0.08495 0.164305,-0.110736 0.07156,-0.02579 0.154411,-0.03878 0.248956,-0.03878 0.09375,0 0.169602,0.01129 0.228068,0.03318 0.05857,0.02219 0.101541,0.04967 0.129425,0.08315 0.02748,0.03348 0.04657,0.07546 0.05777,0.126627 0.006,0.03168 0.0092,0.08875 0.0092,0.171301 l 0,0.247857 c 0,0.1731 0.0039,0.282437 0.01199,0.327911 0.0078,0.04577 0.02359,0.08985 0.04687,0.131824 l -0.194188,0 c -0.01909,-0.03848 -0.03178,-0.08355 -0.03708,-0.135422 z m -0.01549,-0.41526 c -0.06766,0.02778 -0.168902,0.05107 -0.303525,0.07046 -0.07656,0.01099 -0.130824,0.02329 -0.162206,0.03708 -0.03178,0.01369 -0.05647,0.03378 -0.07336,0.06056 -0.01729,0.02649 -0.02609,0.05577 -0.02609,0.08815 0,0.04977 0.01909,0.09105 0.05637,0.124128 0.03738,0.03278 0.09245,0.04937 0.164705,0.04937 0.07156,0 0.135422,-0.01549 0.19109,-0.04687 0.05567,-0.03138 0.09694,-0.07446 0.123029,-0.128726 0.02009,-0.04198 0.02998,-0.10394 0.02998,-0.185793 l 0,-0.06836 z m 0.62294,-0.546184 0.764358,0 0,0.943855 0.118532,0 0,0.463932 -0.152712,0 0,-0.31092 -0.863401,0 0,0.31092 -0.153012,0 0,-0.463932 0.09804,0 c 0.130724,-0.177697 0.193488,-0.492216 0.188191,-0.943855 z m 0.154811,0.153711 c -0.01369,0.356094 -0.06876,0.619542 -0.165305,0.790144 l 0.589759,0 0,-0.790144 -0.424455,0 z"
   id="path37"
   style="fill:#2b2a29;fill-rule:nonzero" />
  <path
   d="m 47.4402,18.1722 0,-1.51423 0.200684,0 0,0.621841 0.786845,0 0,-0.621841 0.200684,0 0,1.51423 -0.200684,0 0,-0.713588 -0.786845,0 0,0.713588 -0.200684,0 z m 1.42857,-0.548583 c 0,-0.203083 0.05637,-0.353596 0.169602,-0.451239 0.09415,-0.08115 0.209079,-0.12203 0.344801,-0.12203 0.150913,0 0.274242,0.04937 0.369786,0.148414 0.09595,0.09874 0.143517,0.235164 0.143517,0.409364 0,0.141318 -0.02119,0.252454 -0.06346,0.333108 -0.04228,0.08115 -0.10394,0.143917 -0.184693,0.188691 -0.08115,0.04477 -0.169302,0.06696 -0.265147,0.06696 -0.153411,0 -0.27744,-0.04897 -0.372285,-0.147715 -0.09485,-0.09834 -0.142118,-0.240061 -0.142118,-0.425554 z m 0.19109,0 c 0,0.140619 0.03068,0.245758 0.09205,0.315518 0.06136,0.07016 0.13852,0.105039 0.231266,0.105039 0.09235,0 0.169202,-0.03518 0.230567,-0.105339 0.06097,-0.07016 0.09165,-0.177398 0.09165,-0.321214 0,-0.135722 -0.03068,-0.238662 -0.09235,-0.308522 -0.06166,-0.06976 -0.13822,-0.10464 -0.229867,-0.10464 -0.09275,0 -0.169902,0.03488 -0.231266,0.10434 -0.06136,0.06946 -0.09205,0.174499 -0.09205,0.314818 z m 1.05559,-0.548283 0.428752,0 c 0.105339,0 0.183694,0.0089 0.235164,0.02608 0.05107,0.01769 0.09514,0.04977 0.132124,0.09664 0.03668,0.04687 0.05537,0.102941 0.05537,0.168503 0,0.05217 -0.01089,0.09804 -0.03278,0.136821 -0.02149,0.03878 -0.05427,0.07156 -0.09764,0.09764 0.05187,0.01729 0.09455,0.04937 0.128726,0.09664 0.03418,0.04717 0.05107,0.102941 0.05107,0.167803 -0.0067,0.10404 -0.04407,0.181195 -0.111436,0.231266 -0.06766,0.05047 -0.165704,0.07546 -0.29433,0.07546 l -0.495014,0 0,-1.09687 z m 0.186192,0.461533 0.198086,0 c 0.07935,0 0.133623,-0.0039 0.163206,-0.01229 0.02968,-0.0081 0.05607,-0.02509 0.07975,-0.05007 0.02329,-0.02509 0.03488,-0.05537 0.03488,-0.09025 0,-0.05787 -0.02049,-0.09844 -0.06137,-0.12093 -0.04088,-0.02299 -0.111036,-0.03428 -0.210079,-0.03428 l -0.204482,0 0,0.307822 z m 0,0.482321 0.244659,0 c 0.105439,0 0.177697,-0.01199 0.216775,-0.03668 0.03948,-0.02429 0.05997,-0.06666 0.06206,-0.126227 0,-0.03528 -0.01129,-0.06766 -0.03418,-0.09764 -0.02259,-0.02998 -0.05217,-0.04897 -0.08845,-0.05677 -0.03668,-0.0081 -0.09524,-0.01199 -0.175998,-0.01199 l -0.22487,0 0,0.32931 z m 0.844012,-0.395571 c 0,-0.203083 0.05637,-0.353596 0.169602,-0.451239 0.09415,-0.08115 0.209079,-0.12203 0.344801,-0.12203 0.150913,0 0.274242,0.04937 0.369786,0.148414 0.09595,0.09874 0.143517,0.235164 0.143517,0.409364 0,0.141318 -0.02119,0.252454 -0.06346,0.333108 -0.04228,0.08115 -0.10394,0.143917 -0.184693,0.188691 -0.08115,0.04477 -0.169302,0.06696 -0.265147,0.06696 -0.153411,0 -0.27744,-0.04897 -0.372285,-0.147715 -0.09485,-0.09834 -0.142118,-0.240061 -0.142118,-0.425554 z m 0.19109,0 c 0,0.140619 0.03068,0.245758 0.09205,0.315518 0.06136,0.07016 0.13852,0.105039 0.231266,0.105039 0.09235,0 0.169202,-0.03518 0.230567,-0.105339 0.06096,-0.07016 0.09165,-0.177398 0.09165,-0.321214 0,-0.135722 -0.03068,-0.238662 -0.09235,-0.308522 -0.06166,-0.06976 -0.13822,-0.10464 -0.229867,-0.10464 -0.09275,0 -0.169902,0.03488 -0.231266,0.10434 -0.06136,0.06946 -0.09205,0.174499 -0.09205,0.314818 z m 1.05979,-0.548283 0.289133,0 0.288433,0.877893 0.320115,-0.877893 0.267545,0 0,1.09687 -0.185793,0 0,-0.88319 -0.324313,0.88319 -0.166404,0 -0.306723,-0.925465 0,0.925465 -0.181995,0 0,-1.09687 z m 1.38,0.548283 c 0,-0.203083 0.05637,-0.353596 0.169602,-0.451239 0.09415,-0.08115 0.209079,-0.12203 0.344801,-0.12203 0.150913,0 0.274242,0.04937 0.369786,0.148414 0.09595,0.09874 0.143517,0.235164 0.143517,0.409364 0,0.141318 -0.02119,0.252454 -0.06346,0.333108 -0.04228,0.08115 -0.10394,0.143917 -0.184693,0.188691 -0.08115,0.04477 -0.169302,0.06696 -0.265147,0.06696 -0.153411,0 -0.27744,-0.04897 -0.372285,-0.147715 -0.09485,-0.09834 -0.142118,-0.240061 -0.142118,-0.425554 z m 0.19109,0 c 0,0.140619 0.03068,0.245758 0.09205,0.315518 0.06136,0.07016 0.13852,0.105039 0.231266,0.105039 0.09235,0 0.169202,-0.03518 0.230567,-0.105339 0.06097,-0.07016 0.09165,-0.177398 0.09165,-0.321214 0,-0.135722 -0.03068,-0.238662 -0.09235,-0.308522 -0.06166,-0.06976 -0.13822,-0.10464 -0.229867,-0.10464 -0.09275,0 -0.169902,0.03488 -0.231266,0.10434 -0.06136,0.06946 -0.09205,0.174499 -0.09205,0.314818 z m 1.77058,0.146615 0.182595,0.02399 c -0.01969,0.125927 -0.07086,0.22457 -0.153311,0.295829 -0.08215,0.07126 -0.183294,0.106838 -0.303225,0.106838 -0.149813,0 -0.270744,-0.04897 -0.361691,-0.147015 -0.09135,-0.09804 -0.137221,-0.238662 -0.137221,-0.422056 0,-0.118432 0.01979,-0.222072 0.05897,-0.31092 0.03948,-0.08885 0.09904,-0.15551 0.179396,-0.199885 0.08005,-0.04447 0.167503,-0.06666 0.261649,-0.06666 0.119131,0 0.216775,0.03028 0.292231,0.09065 0.07586,0.06027 0.124428,0.145616 0.146016,0.256652 l -0.180895,0.02778 c -0.01729,-0.07366 -0.04757,-0.129025 -0.09135,-0.166404 -0.04368,-0.03698 -0.09654,-0.05567 -0.158608,-0.05567 -0.09385,0 -0.170002,0.03348 -0.228468,0.100842 -0.05857,0.06696 -0.08785,0.1731 -0.08785,0.318316 0,0.147415 0.02828,0.254553 0.08505,0.321614 0.05637,0.06656 0.130025,0.100042 0.220972,0.100042 0.07306,0 0.133623,-0.02249 0.182694,-0.06726 0.04897,-0.04477 0.08005,-0.113534 0.09305,-0.206681 z m 0.340903,-0.694899 0.185793,0 0,0.473926 c 0.05927,0 0.100842,-0.01129 0.124528,-0.03388 0.02359,-0.02289 0.05847,-0.08885 0.10464,-0.198485 0.03668,-0.08675 0.06636,-0.143817 0.08885,-0.171401 0.02299,-0.02748 0.04907,-0.04617 0.07865,-0.05567 0.02958,-0.0099 0.07726,-0.01449 0.142418,-0.01449 l 0.03738,0 0,0.153711 -0.05177,-9.99e-4 c -0.04867,0 -0.08005,0.0074 -0.09385,0.02189 -0.01439,0.01509 -0.03668,0.06026 -0.06626,0.135322 -0.02818,0.07156 -0.05397,0.12093 -0.07755,0.148414 -0.02329,0.02788 -0.05957,0.05297 -0.108237,0.07546 0.07965,0.02159 0.158309,0.09594 0.235464,0.223171 l 0.203482,0.339904 -0.204482,0 -0.198485,-0.339904 c -0.04058,-0.06806 -0.07616,-0.113135 -0.106139,-0.134622 -0.03028,-0.02189 -0.06666,-0.03248 -0.108637,-0.03248 l 0,0.507007 -0.185793,0 0,-1.09687 z m 0.880691,0.548283 c 0,-0.203083 0.05637,-0.353596 0.169602,-0.451239 0.09415,-0.08115 0.209079,-0.12203 0.344801,-0.12203 0.150913,0 0.274242,0.04937 0.369786,0.148414 0.09595,0.09874 0.143517,0.235164 0.143517,0.409364 0,0.141318 -0.02119,0.252454 -0.06346,0.333108 -0.04228,0.08115 -0.10394,0.143917 -0.184693,0.188691 -0.08115,0.04477 -0.169302,0.06696 -0.265147,0.06696 -0.153411,0 -0.27744,-0.04897 -0.372285,-0.147715 -0.09485,-0.09834 -0.142118,-0.240061 -0.142118,-0.425554 z m 0.19109,0 c 0,0.140619 0.03068,0.245758 0.09205,0.315518 0.06136,0.07016 0.13852,0.105039 0.231266,0.105039 0.09235,0 0.169202,-0.03518 0.230567,-0.105339 0.06096,-0.07016 0.09165,-0.177398 0.09165,-0.321214 0,-0.135722 -0.03068,-0.238662 -0.09235,-0.308522 -0.06166,-0.06976 -0.13822,-0.10464 -0.229867,-0.10464 -0.09275,0 -0.169902,0.03488 -0.231266,0.10434 -0.06136,0.06946 -0.09205,0.174499 -0.09205,0.314818 z m 1.05559,-0.548283 0.428752,0 c 0.105339,0 0.183694,0.0089 0.235164,0.02608 0.05107,0.01769 0.09515,0.04977 0.132124,0.09664 0.03668,0.04687 0.05537,0.102941 0.05537,0.168503 0,0.05217 -0.01089,0.09804 -0.03278,0.136821 -0.02149,0.03878 -0.05427,0.07156 -0.09764,0.09764 0.05187,0.01729 0.09455,0.04937 0.128726,0.09664 0.03418,0.04717 0.05107,0.102941 0.05107,0.167803 -0.0067,0.10404 -0.04407,0.181195 -0.111436,0.231266 -0.06766,0.05047 -0.165704,0.07546 -0.29433,0.07546 l -0.495014,0 0,-1.09687 z m 0.186192,0.461533 0.198086,0 c 0.07935,0 0.133623,-0.0039 0.163206,-0.01229 0.02968,-0.0081 0.05607,-0.02509 0.07975,-0.05007 0.02329,-0.02509 0.03488,-0.05537 0.03488,-0.09025 0,-0.05787 -0.02049,-0.09844 -0.06136,-0.12093 -0.04088,-0.02299 -0.111036,-0.03428 -0.210079,-0.03428 l -0.204482,0 0,0.307822 z m 0,0.482321 0.244659,0 c 0.105439,0 0.177697,-0.01199 0.216775,-0.03668 0.03948,-0.02429 0.05996,-0.06666 0.06206,-0.126227 0,-0.03528 -0.01129,-0.06766 -0.03418,-0.09764 -0.02259,-0.02998 -0.05217,-0.04897 -0.08845,-0.05677 -0.03668,-0.0081 -0.09525,-0.01199 -0.175998,-0.01199 l -0.22487,0 0,0.32931 z m 1.62916,-0.248956 0.182595,0.02399 c -0.01969,0.125927 -0.07086,0.22457 -0.153311,0.295829 -0.08215,0.07126 -0.183294,0.106838 -0.303225,0.106838 -0.149813,0 -0.270744,-0.04897 -0.361691,-0.147015 -0.09135,-0.09804 -0.137221,-0.238662 -0.137221,-0.422056 0,-0.118432 0.01979,-0.222072 0.05897,-0.31092 0.03948,-0.08885 0.09904,-0.15551 0.179396,-0.199885 0.08005,-0.04447 0.167503,-0.06666 0.261649,-0.06666 0.119131,0 0.216775,0.03028 0.292231,0.09065 0.07586,0.06027 0.124428,0.145616 0.146016,0.256652 l -0.180895,0.02778 c -0.01729,-0.07366 -0.04757,-0.129025 -0.09135,-0.166404 -0.04368,-0.03698 -0.09654,-0.05567 -0.158608,-0.05567 -0.09385,0 -0.170002,0.03348 -0.228468,0.100842 -0.05857,0.06696 -0.08785,0.1731 -0.08785,0.318316 0,0.147415 0.02828,0.254553 0.08505,0.321614 0.05637,0.06656 0.130025,0.100042 0.220972,0.100042 0.07306,0 0.133623,-0.02249 0.182694,-0.06726 0.04897,-0.04477 0.08005,-0.113534 0.09305,-0.206681 z m 0.338804,-0.694899 0.185793,0 0,0.428452 0.235564,0 c 0.153711,0 0.271843,0.02988 0.354695,0.08955 0.08315,0.05957 0.124428,0.141718 0.124428,0.246358 0,0.09135 -0.03458,0.170002 -0.10364,0.234864 -0.06916,0.06516 -0.179796,0.09764 -0.332108,0.09764 l -0.464732,0 0,-1.09687 z m 0.185793,0.943855 0.195387,0 c 0.117732,0 0.201584,-0.01449 0.252054,-0.04337 0.05007,-0.02888 0.07506,-0.07406 0.07506,-0.135022 0,-0.04757 -0.01829,-0.08995 -0.05567,-0.127226 -0.03698,-0.03708 -0.119531,-0.05577 -0.246757,-0.05577 l -0.220073,0 0,0.361391 z m 0.918369,-0.943855 0.185793,0 0,0.473926 c 0.05927,0 0.100842,-0.01129 0.124528,-0.03388 0.02359,-0.02289 0.05847,-0.08885 0.10464,-0.198485 0.03668,-0.08675 0.06636,-0.143817 0.08885,-0.171401 0.02299,-0.02749 0.04907,-0.04617 0.07865,-0.05567 0.02958,-0.0099 0.07726,-0.01449 0.142418,-0.01449 l 0.03738,0 0,0.153711 -0.05177,-9.99e-4 c -0.04867,0 -0.08005,0.0074 -0.09385,0.02189 -0.01439,0.01509 -0.03668,0.06027 -0.06626,0.135322 -0.02818,0.07156 -0.05397,0.12093 -0.07756,0.148414 -0.02329,0.02788 -0.05957,0.05297 -0.108237,0.07546 0.07965,0.02159 0.158309,0.09594 0.235464,0.223171 l 0.203482,0.339904 -0.204482,0 -0.198485,-0.339904 c -0.04058,-0.06806 -0.07616,-0.113135 -0.106139,-0.134622 -0.03028,-0.02189 -0.06666,-0.03248 -0.108637,-0.03248 l 0,0.507007 -0.185793,0 0,-1.09687 z"
   id="path39"
   style="fill:#2b2a29;fill-rule:nonzero" />
  <path
   d="m 4.93065,51.6365 0.200284,0 0,0.663117 c 0.091647,0 0.15581,-0.01759 0.193188,-0.05317 0.036979,-0.03568 0.084651,-0.12063 0.142418,-0.255652 0.041976,-0.09904 0.076556,-0.169202 0.10404,-0.210179 0.027084,-0.04088 0.065862,-0.07536 0.115933,-0.10324 0.050471,-0.02788 0.105839,-0.04198 0.166404,-0.04198 0.077255,0 0.117832,7e-4 0.12203,0.0021 l 0,0.1735 c -0.0071,0 -0.020488,-4e-4 -0.040577,-0.0011 -0.021787,-6.99e-4 -0.03518,-9.99e-4 -0.040177,-9.99e-4 -0.064163,0 -0.111436,0.01549 -0.142418,0.04647 -0.031682,0.03108 -0.068061,0.09734 -0.108637,0.198485 -0.050771,0.128026 -0.093746,0.208779 -0.129025,0.24226 -0.03518,0.03318 -0.077155,0.05997 -0.125827,0.08005 0.097644,0.02678 0.193888,0.117032 0.289133,0.270344 l 0.31202,0.504209 -0.248956,0 -0.253154,-0.411063 c -0.06946,-0.113534 -0.127926,-0.191489 -0.174499,-0.234165 -0.046873,-0.04228 -0.107538,-0.06346 -0.181895,-0.06346 l 0,0.708691 -0.200284,0 0,-1.51423 z m 1.2054,1.93448 0,-1.51712 0.169202,0 0,0.142518 c 0.039877,-0.05577 0.084951,-0.09774 0.135422,-0.125527 0.050071,-0.02788 0.111036,-0.04198 0.182595,-0.04198 0.093846,0 0.176298,0.02429 0.247857,0.07226 0.071958,0.04827 0.125927,0.116333 0.162206,0.204182 0.036679,0.08775 0.054968,0.183994 0.054968,0.288733 0,0.112135 -0.020088,0.213277 -0.060665,0.303225 -0.040177,0.08985 -0.098643,0.158608 -0.175499,0.206581 -0.076856,0.04757 -0.157609,0.07156 -0.24226,0.07156 -0.062064,0 -0.117432,-0.01309 -0.166704,-0.03918 -0.049372,-0.02608 -0.089548,-0.05917 -0.12133,-0.09904 l 0,0.533792 -0.185793,0 z m 0.168203,-0.962544 c 0,0.141118 0.028484,0.245458 0.08565,0.313119 0.057067,0.06736 0.126527,0.101142 0.20768,0.101142 0.082452,0 0.153311,-0.03488 0.212177,-0.105039 0.058866,-0.06976 0.088549,-0.177997 0.088549,-0.324712 0,-0.139919 -0.028883,-0.244259 -0.08645,-0.314119 -0.057467,-0.06946 -0.126127,-0.10434 -0.205881,-0.10434 -0.079254,0 -0.149414,0.03698 -0.210478,0.111036 -0.060965,0.07406 -0.091247,0.181895 -0.091247,0.322913 z m 1.00832,-0.55458 0.185793,0 0,0.836717 0.515402,-0.836717 0.200284,0 0,1.09687 -0.185793,0 0,-0.83132 -0.515402,0.83132 -0.200284,0 0,-1.09687 z m 1.18252,0 0.428752,0 c 0.105339,0 0.183694,0.0089 0.235164,0.02608 0.051071,0.01769 0.095145,0.04977 0.132124,0.09664 0.036679,0.04687 0.055368,0.102941 0.055368,0.168503 0,0.05217 -0.010894,0.09804 -0.032781,0.136821 -0.021488,0.03878 -0.054269,0.07156 -0.097644,0.09764 0.05187,0.01729 0.094545,0.04937 0.128726,0.09664 0.03418,0.04717 0.05107,0.102941 0.05107,0.167803 -0.0067,0.10404 -0.044074,0.181195 -0.111436,0.231266 -0.067661,0.05047 -0.165704,0.07546 -0.29433,0.07546 l -0.495014,0 0,-1.09687 z m 0.186192,0.461533 0.198086,0 c 0.079354,0 0.133623,-0.0039 0.163206,-0.01229 0.029683,-0.0081 0.056068,-0.02508 0.079754,-0.05007 0.023287,-0.02509 0.03488,-0.05537 0.03488,-0.09025 0,-0.05787 -0.020488,-0.09844 -0.061364,-0.12093 -0.040876,-0.02299 -0.111036,-0.03428 -0.210079,-0.03428 l -0.204482,0 0,0.307822 z m 0,0.482321 0.244659,0 c 0.105439,0 0.177697,-0.01199 0.216775,-0.03668 0.039477,-0.02429 0.059965,-0.06666 0.062064,-0.126227 0,-0.03528 -0.011294,-0.06766 -0.03418,-0.09764 -0.022587,-0.02998 -0.05217,-0.04897 -0.088449,-0.05677 -0.036679,-0.0081 -0.095245,-0.01199 -0.175998,-0.01199 l -0.22487,0 0,0.32931 z m 0.937059,-0.943855 0.185793,0 0,0.836717 0.515402,-0.836717 0.200284,0 0,1.09687 -0.185793,0 0,-0.83132 -0.515402,0.83132 -0.200284,0 0,-1.09687 z m 1.18182,0 0.185793,0 0,0.836717 0.515402,-0.836717 0.200284,0 0,1.09687 -0.185793,0 0,-0.83132 -0.515402,0.83132 -0.200284,0 0,-1.09687 z m 0.645527,-0.41526 0.126927,0 c -0.01019,0.08605 -0.04158,0.152312 -0.09445,0.198086 -0.05257,0.04627 -0.122729,0.06946 -0.210179,0.06946 -0.08815,0 -0.158608,-0.02289 -0.211178,-0.06876 -0.05287,-0.04577 -0.08425,-0.112035 -0.09445,-0.198785 l 0.126927,0 c 0.0095,0.04687 0.02888,0.08175 0.05747,0.104739 0.02848,0.02319 0.06696,0.03448 0.114934,0.03448 0.05607,0 0.09794,-0.01089 0.126527,-0.03348 0.02858,-0.02219 0.04797,-0.05747 0.05747,-0.105739 z m 1.14764,1.51213 0,-1.51423 0.57117,0 c 0.100542,0 0.177398,0.0049 0.230267,0.01439 0.07436,0.01239 0.136721,0.03598 0.187192,0.07086 0.05007,0.03458 0.09055,0.08355 0.12123,0.146016 0.03068,0.06276 0.04587,0.131524 0.04587,0.206581 0,0.128726 -0.04088,0.237963 -0.122729,0.327211 -0.08215,0.08885 -0.230167,0.133623 -0.444143,0.133623 l -0.388576,0 0,0.615544 -0.200284,0 z m 0.200284,-0.794341 0.391674,0 c 0.129425,0 0.221472,-0.02399 0.275741,-0.07226 0.05427,-0.04827 0.08145,-0.116033 0.08145,-0.203383 0,-0.06346 -0.01589,-0.117832 -0.04797,-0.162906 -0.03208,-0.04517 -0.07406,-0.07476 -0.126527,-0.08925 -0.03388,-0.0088 -0.09595,-0.01339 -0.186892,-0.01339 l -0.387476,0 0,0.541187 z m 1.18781,-0.505908 0,-0.213976 0.186192,0 0,0.213976 -0.186192,0 z m 0,1.30025 0,-1.09687 0.186192,0 0,1.09687 -0.186192,0 z m 0.469929,-1.09687 0.631135,0 0,0.153711 -0.444943,0 0,0.943155 -0.186192,0 0,-1.09687 z"
   id="path41"
   style="fill:#2b2a29;fill-rule:nonzero" />
  <path
   d="m 35.8004,55.508 0,-1.51423 0.301726,0 0.358293,1.07208 c 0.03308,0.09984 0.05747,0.174599 0.07226,0.22427 0.01729,-0.05497 0.04407,-0.136121 0.08075,-0.24296 l 0.362391,-1.05339 0.269744,0 0,1.51423 -0.193188,0 0,-1.26747 -0.440046,1.26747 -0.180895,0 -0.437847,-1.28896 0,1.28896 -0.193188,0 z m 2.48406,-0.135422 c -0.06906,0.05857 -0.135422,0.09984 -0.198785,0.124128 -0.06386,0.02399 -0.132224,0.03598 -0.205281,0.03598 -0.12053,0 -0.212877,-0.02928 -0.27774,-0.08815 -0.06456,-0.05887 -0.09694,-0.134322 -0.09694,-0.22567 0,-0.05387 0.01189,-0.102941 0.03658,-0.147315 0.02439,-0.04447 0.05647,-0.08005 0.09595,-0.106838 0.03988,-0.02678 0.08425,-0.04727 0.133923,-0.06097 0.03638,-0.0096 0.09135,-0.01909 0.165005,-0.02788 0.150213,-0.01799 0.260949,-0.03918 0.331808,-0.06416 6.99e-4,-0.02538 9.99e-4,-0.04158 9.99e-4,-0.04827 0,-0.07586 -0.01759,-0.129425 -0.05287,-0.160108 -0.04717,-0.04228 -0.118032,-0.06306 -0.211478,-0.06306 -0.08745,0 -0.152012,0.01509 -0.193888,0.04577 -0.04167,0.03068 -0.07236,0.08495 -0.09245,0.162906 l -0.181495,-0.02508 c 0.01649,-0.07756 0.04368,-0.140619 0.08135,-0.188191 0.03778,-0.04797 0.09275,-0.08495 0.164305,-0.110736 0.07156,-0.02578 0.154411,-0.03878 0.248956,-0.03878 0.09375,0 0.169602,0.01129 0.228068,0.03318 0.05857,0.02219 0.101541,0.04967 0.129425,0.08315 0.02748,0.03348 0.04657,0.07546 0.05777,0.126627 0.006,0.03168 0.0092,0.08875 0.0092,0.171301 l 0,0.247857 c 0,0.1731 0.0039,0.282437 0.01199,0.327911 0.0078,0.04577 0.02359,0.08985 0.04687,0.131824 l -0.194188,0 c -0.01909,-0.03848 -0.03178,-0.08355 -0.03708,-0.135422 z m -0.01549,-0.41526 c -0.06766,0.02778 -0.168902,0.05107 -0.303525,0.07046 -0.07656,0.01099 -0.130824,0.02329 -0.162206,0.03708 -0.03178,0.01369 -0.05647,0.03378 -0.07336,0.06057 -0.01729,0.02648 -0.02609,0.05577 -0.02609,0.08815 0,0.04977 0.01909,0.09105 0.05637,0.124128 0.03738,0.03278 0.09245,0.04937 0.164705,0.04937 0.07156,0 0.135422,-0.01549 0.19109,-0.04687 0.05567,-0.03138 0.09694,-0.07446 0.123029,-0.128726 0.02009,-0.04198 0.02998,-0.10394 0.02998,-0.185793 l 0,-0.06836 z m 0.476325,0.970939 0,-1.51712 0.169202,0 0,0.142518 c 0.03988,-0.05577 0.08495,-0.09774 0.135422,-0.125527 0.05007,-0.02788 0.111036,-0.04198 0.182595,-0.04198 0.09385,0 0.176298,0.02429 0.247857,0.07226 0.07196,0.04827 0.125927,0.116333 0.162206,0.204182 0.03668,0.08775 0.05497,0.183994 0.05497,0.288733 0,0.112135 -0.02009,0.213277 -0.06067,0.303225 -0.04018,0.08985 -0.09864,0.158608 -0.175499,0.206581 -0.07686,0.04757 -0.157609,0.07156 -0.24226,0.07156 -0.06206,0 -0.117432,-0.01309 -0.166704,-0.03918 -0.04937,-0.02609 -0.08955,-0.05917 -0.12133,-0.09904 l 0,0.533792 -0.185793,0 z m 0.168203,-0.962544 c 0,0.141118 0.02848,0.245458 0.08565,0.313119 0.05707,0.06736 0.126527,0.101142 0.20768,0.101142 0.08245,0 0.153311,-0.03488 0.212177,-0.105039 0.05887,-0.06976 0.08855,-0.177997 0.08855,-0.324712 0,-0.139919 -0.02888,-0.244259 -0.08645,-0.314119 -0.05747,-0.06946 -0.126127,-0.10434 -0.205881,-0.10434 -0.07925,0 -0.149414,0.03698 -0.210478,0.111036 -0.06097,0.07406 -0.09125,0.181895 -0.09125,0.322913 z m 1.00902,-0.55458 0.631135,0 0,0.153711 -0.444943,0 0,0.943155 -0.186192,0 0,-1.09687 z m 1.43987,0.961445 c -0.06906,0.05857 -0.135422,0.09984 -0.198785,0.124128 -0.06386,0.02399 -0.132224,0.03598 -0.205281,0.03598 -0.12053,0 -0.212877,-0.02928 -0.27774,-0.08815 -0.06456,-0.05887 -0.09694,-0.134322 -0.09694,-0.22567 0,-0.05387 0.01189,-0.102941 0.03658,-0.147315 0.02439,-0.04447 0.05647,-0.08005 0.09594,-0.106838 0.03988,-0.02678 0.08425,-0.04727 0.133923,-0.06097 0.03638,-0.0096 0.09135,-0.01909 0.165005,-0.02788 0.150213,-0.01799 0.260949,-0.03918 0.331808,-0.06416 7e-4,-0.02538 10e-4,-0.04158 10e-4,-0.04827 0,-0.07586 -0.01759,-0.129425 -0.05287,-0.160108 -0.04717,-0.04228 -0.118032,-0.06306 -0.211478,-0.06306 -0.08745,0 -0.152012,0.01509 -0.193888,0.04577 -0.04168,0.03068 -0.07236,0.08495 -0.09245,0.162906 l -0.181495,-0.02508 c 0.01649,-0.07756 0.04368,-0.140619 0.08135,-0.188191 0.03778,-0.04797 0.09275,-0.08495 0.164305,-0.110736 0.07156,-0.02578 0.154411,-0.03878 0.248956,-0.03878 0.09375,0 0.169602,0.01129 0.228068,0.03318 0.05857,0.02219 0.101541,0.04967 0.129425,0.08315 0.02748,0.03348 0.04657,0.07546 0.05777,0.126627 0.006,0.03168 0.0092,0.08875 0.0092,0.171301 l 0,0.247857 c 0,0.1731 0.0039,0.282437 0.01199,0.327911 0.0078,0.04577 0.02359,0.08985 0.04687,0.131824 l -0.194188,0 c -0.01909,-0.03848 -0.03178,-0.08355 -0.03708,-0.135422 z m -0.01549,-0.41526 c -0.06766,0.02778 -0.168902,0.05107 -0.303525,0.07046 -0.07656,0.01099 -0.130824,0.02329 -0.162206,0.03708 -0.03178,0.01369 -0.05647,0.03378 -0.07336,0.06057 -0.01729,0.02648 -0.02608,0.05577 -0.02608,0.08815 0,0.04977 0.01909,0.09105 0.05637,0.124128 0.03738,0.03278 0.09245,0.04937 0.164705,0.04937 0.07156,0 0.135422,-0.01549 0.19109,-0.04687 0.05567,-0.03138 0.09694,-0.07446 0.123029,-0.128726 0.02009,-0.04198 0.02998,-0.10394 0.02998,-0.185793 l 0,-0.06836 z m 0.477024,-0.546184 0.186192,0 0,0.456636 0.515402,0 0,-0.456636 0.185793,0 0,1.09687 -0.185793,0 0,-0.486519 -0.515402,0 0,0.486519 -0.186192,0 0,-1.09687 z m 1.91789,0.74357 0.192189,0.02369 c -0.03028,0.112435 -0.08635,0.199485 -0.168203,0.261549 -0.08215,0.06176 -0.186792,0.09275 -0.314119,0.09275 -0.160407,0 -0.287634,-0.04937 -0.38148,-0.148114 -0.09415,-0.09864 -0.141019,-0.237263 -0.141019,-0.41566 0,-0.184693 0.04757,-0.327911 0.142418,-0.429752 0.09524,-0.101941 0.218274,-0.153012 0.369886,-0.153012 0.146615,0 0.266546,0.05007 0.359192,0.149813 0.09315,0.09984 0.139619,0.240461 0.139619,0.421357 0,0.01129 -3e-4,0.02778 -10e-4,0.04967 l -0.817927,0 c 0.0067,0.12063 0.04088,0.212977 0.102241,0.27674 0.06137,0.06416 0.137421,0.09624 0.229168,0.09624 0.06806,0 0.126227,-0.01789 0.174499,-0.05387 0.04827,-0.03568 0.08635,-0.09275 0.114534,-0.171401 z m -0.610247,-0.300726 0.612446,0 c -0.0082,-0.09205 -0.03178,-0.161407 -0.07016,-0.20728 -0.05926,-0.07156 -0.136121,-0.107538 -0.230267,-0.107538 -0.08535,0 -0.157209,0.02858 -0.215376,0.08565 -0.05827,0.05717 -0.09035,0.133623 -0.09664,0.229168 z m 1.039,-0.442844 0.186192,0 0,0.943855 0.514403,0 0,-0.943855 0.185793,0 0,0.943855 0.119831,0 0,0.463932 -0.153012,0 0,-0.31092 -0.853207,0 0,-1.09687 z m 1.2058,0 0.185793,0 0,0.428452 0.235564,0 c 0.153711,0 0.271843,0.02988 0.354695,0.08955 0.08315,0.05957 0.124428,0.141718 0.124428,0.246358 0,0.09135 -0.03458,0.170002 -0.10364,0.234864 -0.06916,0.06516 -0.179796,0.09764 -0.332108,0.09764 l -0.464732,0 0,-1.09687 z m 0.185793,0.943855 0.195387,0 c 0.117732,0 0.201584,-0.01449 0.252054,-0.04338 0.05007,-0.02888 0.07506,-0.07406 0.07506,-0.135022 0,-0.04757 -0.01829,-0.08995 -0.05567,-0.127226 -0.03698,-0.03708 -0.119531,-0.05577 -0.246757,-0.05577 l -0.220073,0 0,0.361391 z"
   id="path43"
   style="fill:#2b2a29;fill-rule:nonzero" />
  <path
   d="m 23.1277,58.2344 c 0,-0.251355 0.06736,-0.448141 0.202383,-0.590159 0.135022,-0.142118 0.309221,-0.213277 0.522798,-0.213277 0.139619,0 0.265846,0.03348 0.377982,0.100042 0.112135,0.06706 0.197786,0.160108 0.256652,0.279638 0.05887,0.119131 0.08815,0.254853 0.08815,0.406165 0,0.153711 -0.03068,0.291232 -0.09275,0.412162 -0.06196,0.12123 -0.149813,0.212877 -0.263348,0.275341 -0.113834,0.06236 -0.236164,0.09345 -0.367688,0.09345 -0.142817,0 -0.270044,-0.03428 -0.382179,-0.10334 -0.112435,-0.06876 -0.197486,-0.162906 -0.255253,-0.282037 -0.05787,-0.118831 -0.08675,-0.245058 -0.08675,-0.377982 z m 0.206581,0.0032 c 0,0.182595 0.04907,0.326112 0.147015,0.431151 0.09834,0.105039 0.221472,0.157609 0.369487,0.157609 0.150913,0 0.275041,-0.05287 0.372285,-0.159008 0.09734,-0.106139 0.146315,-0.256652 0.146315,-0.451639 0,-0.123029 -0.02109,-0.230567 -0.06266,-0.322614 -0.04168,-0.09195 -0.102641,-0.163206 -0.182694,-0.213976 -0.08035,-0.05037 -0.170302,-0.07576 -0.270044,-0.07576 -0.142118,0 -0.264047,0.04857 -0.366288,0.146315 -0.102241,0.09724 -0.153411,0.26015 -0.153411,0.487918 z m 1.47625,1.15463 0,-1.51712 0.169202,0 0,0.142518 c 0.03988,-0.05577 0.08495,-0.09774 0.135422,-0.125527 0.05007,-0.02788 0.111036,-0.04198 0.182595,-0.04198 0.09385,0 0.176298,0.02429 0.247857,0.07226 0.07196,0.04827 0.125927,0.116333 0.162206,0.204182 0.03668,0.08775 0.05497,0.183994 0.05497,0.288733 0,0.112135 -0.02009,0.213277 -0.06067,0.303225 -0.04018,0.08985 -0.09864,0.158608 -0.175499,0.206581 -0.07686,0.04757 -0.157609,0.07156 -0.24226,0.07156 -0.06206,0 -0.117432,-0.01309 -0.166704,-0.03918 -0.04937,-0.02609 -0.08955,-0.05917 -0.12133,-0.09904 l 0,0.533792 -0.185793,0 z m 0.168203,-0.962544 c 0,0.141118 0.02848,0.245458 0.08565,0.313119 0.05707,0.06736 0.126527,0.101142 0.20768,0.101142 0.08245,0 0.153311,-0.03488 0.212177,-0.105039 0.05887,-0.06976 0.08855,-0.177997 0.08855,-0.324712 0,-0.139919 -0.02888,-0.244259 -0.08645,-0.314119 -0.05747,-0.06946 -0.126127,-0.10434 -0.205881,-0.10434 -0.07925,0 -0.149414,0.03698 -0.210478,0.111036 -0.06096,0.07406 -0.09125,0.181895 -0.09125,0.322913 z m 1.10626,-0.55458 0.764358,0 0,0.943855 0.118532,0 0,0.463932 -0.152712,0 0,-0.31092 -0.863401,0 0,0.31092 -0.153012,0 0,-0.463932 0.09804,0 c 0.130724,-0.177697 0.193488,-0.492216 0.188191,-0.943855 z m 0.154811,0.153711 c -0.01369,0.356094 -0.06876,0.619542 -0.165305,0.790144 l 0.589759,0 0,-0.790144 -0.424455,0 z m 1.59568,-0.153711 0,0.473926 c 0.05927,0 0.101142,-0.01129 0.125128,-0.03388 0.02399,-0.02289 0.05927,-0.08885 0.105439,-0.198485 0.04338,-0.10404 0.08215,-0.170302 0.116733,-0.199185 0.03348,-0.02818 0.08745,-0.04238 0.161107,-0.04238 l 0.06806,0 0,0.153711 -0.05047,-9.99e-4 c -0.04967,0 -0.08145,0.0074 -0.09514,0.02189 -0.01449,0.01509 -0.03638,0.06027 -0.06596,0.135322 -0.02788,0.07156 -0.05327,0.12093 -0.07646,0.148414 -0.02369,0.02788 -0.05997,0.05297 -0.109737,0.07546 0.08075,0.02159 0.159008,0.09594 0.235564,0.223171 l 0.204482,0.339904 -0.204482,0 -0.199185,-0.339904 c -0.04058,-0.06876 -0.07616,-0.113834 -0.106538,-0.135322 -0.03028,-0.02119 -0.06626,-0.03178 -0.108537,-0.03178 l 0,0.507007 -0.18999,0 0,-0.507007 c -0.04128,0 -0.07686,0.01029 -0.107238,0.03138 -0.03028,0.02079 -0.06596,0.06626 -0.106439,0.135722 l -0.199585,0.339904 -0.204482,0 0.203782,-0.339904 c 0.07686,-0.127226 0.15581,-0.201584 0.236264,-0.223171 -0.05507,-0.02538 -0.09345,-0.05317 -0.115633,-0.08315 -0.02189,-0.02968 -0.05507,-0.101242 -0.09914,-0.214076 -0.01509,-0.03798 -0.03138,-0.06126 -0.04867,-0.07046 -0.01759,-0.0088 -0.04437,-0.01339 -0.07925,-0.01339 -0.0092,0 -0.02718,3e-4 -0.05507,10e-4 l 0,-0.153711 0.02608,0 c 0.07166,0 0.12203,0.0043 0.151313,0.01269 0.02928,0.0089 0.05537,0.02689 0.07855,0.05507 0.02299,0.02778 0.05297,0.08565 0.09035,0.1738 0.04547,0.108237 0.07995,0.1738 0.10364,0.197386 0.02399,0.02329 0.06556,0.03498 0.125527,0.03498 l 0,-0.473926 0.18999,0 z m 0.682905,0.548283 c 0,-0.203083 0.05637,-0.353596 0.169602,-0.451239 0.09415,-0.08115 0.209079,-0.12203 0.344801,-0.12203 0.150913,0 0.274242,0.04937 0.369786,0.148414 0.09595,0.09874 0.143517,0.235164 0.143517,0.409364 0,0.141318 -0.02119,0.252454 -0.06346,0.333108 -0.04228,0.08115 -0.10394,0.143917 -0.184693,0.188691 -0.08115,0.04477 -0.169302,0.06696 -0.265147,0.06696 -0.153411,0 -0.27744,-0.04897 -0.372285,-0.147715 -0.09484,-0.09834 -0.142118,-0.240061 -0.142118,-0.425554 z m 0.19109,0 c 0,0.140619 0.03068,0.245758 0.09205,0.315518 0.06136,0.07016 0.13852,0.105039 0.231266,0.105039 0.09235,0 0.169202,-0.03518 0.230567,-0.105339 0.06097,-0.07016 0.09165,-0.177398 0.09165,-0.321214 0,-0.135722 -0.03068,-0.238662 -0.09235,-0.308522 -0.06166,-0.06976 -0.13822,-0.10464 -0.229867,-0.10464 -0.09275,0 -0.169902,0.03488 -0.231266,0.10434 -0.06136,0.06946 -0.09205,0.174499 -0.09205,0.314818 z m 1.05559,-0.548283 0.186192,0 0,0.456636 0.515402,0 0,-0.456636 0.185793,0 0,1.09687 -0.185793,0 0,-0.486519 -0.515402,0 0,0.486519 -0.186192,0 0,-1.09687 z m 1.16803,-0.203383 0,-0.213976 0.186192,0 0,0.213976 -0.186192,0 z m 0,1.30025 0,-1.09687 0.186192,0 0,1.09687 -0.186192,0 z m 0.46813,-1.09687 0.185793,0 0,0.473926 c 0.05927,0 0.100842,-0.01129 0.124528,-0.03388 0.02359,-0.02289 0.05847,-0.08885 0.10464,-0.198485 0.03668,-0.08675 0.06636,-0.143817 0.08885,-0.171401 0.02299,-0.02748 0.04907,-0.04617 0.07865,-0.05567 0.02958,-0.0099 0.07726,-0.01449 0.142418,-0.01449 l 0.03738,0 0,0.153711 -0.05177,-9.99e-4 c -0.04867,0 -0.08005,0.0074 -0.09385,0.02189 -0.01439,0.01509 -0.03668,0.06027 -0.06626,0.135322 -0.02818,0.07156 -0.05397,0.12093 -0.07755,0.148414 -0.02329,0.02788 -0.05957,0.05297 -0.108237,0.07546 0.07965,0.02159 0.158309,0.09594 0.235464,0.223171 l 0.203482,0.339904 -0.204482,0 -0.198485,-0.339904 c -0.04058,-0.06806 -0.07616,-0.113135 -0.106139,-0.134622 -0.03028,-0.02189 -0.06666,-0.03248 -0.108637,-0.03248 l 0,0.507007 -0.185793,0 0,-1.09687 z m 0.927264,-0.203383 0,-0.213976 0.186192,0 0,0.213976 -0.186192,0 z m 0,1.30025 0,-1.09687 0.186192,0 0,1.09687 -0.186192,0 z m 0.615844,-1.09687 0.764358,0 0,0.943855 0.118532,0 0,0.463932 -0.152712,0 0,-0.31092 -0.863401,0 0,0.31092 -0.153012,0 0,-0.463932 0.09804,0 c 0.130724,-0.177697 0.193488,-0.492216 0.188191,-0.943855 z m 0.154811,0.153711 c -0.01369,0.356094 -0.06876,0.619542 -0.165305,0.790144 l 0.589759,0 0,-0.790144 -0.424455,0 z m 1.17542,0.447442 0,-0.145616 c 0.07865,-6.99e-4 0.131824,-0.0039 0.160807,-0.0095 0.02848,-0.0053 0.05527,-0.02189 0.08105,-0.04937 0.02538,-0.02748 0.03808,-0.06206 0.03808,-0.10334 0,-0.05037 -0.01659,-0.09055 -0.05007,-0.12053 -0.03348,-0.02998 -0.07646,-0.04477 -0.129725,-0.04477 -0.104739,0 -0.178097,0.06166 -0.219973,0.184693 l -0.176698,-0.02888 c 0.05507,-0.205881 0.187891,-0.308822 0.39877,-0.308822 0.117032,0 0.208679,0.03208 0.275341,0.09624 0.06626,0.06386 0.09974,0.140319 0.09974,0.229168 0,0.08955 -0.04367,0.160807 -0.130425,0.213976 0.05537,0.02968 0.09665,0.06736 0.124128,0.112835 0.02748,0.04587 0.04128,0.100142 0.04128,0.162906 0,0.09834 -0.03568,0.178397 -0.107538,0.239761 -0.07156,0.06096 -0.171701,0.09165 -0.300426,0.09165 -0.249956,0 -0.394872,-0.111036 -0.435049,-0.333507 l 0.174899,-0.03708 c 0.01589,0.07016 0.04797,0.124528 0.09654,0.162906 0.04837,0.03878 0.10404,0.05787 0.166804,0.05787 0.06236,0 0.114534,-0.01769 0.15651,-0.05287 0.04158,-0.03568 0.06246,-0.08075 0.06246,-0.136121 0,-0.04268 -0.01309,-0.07965 -0.03948,-0.111436 -0.02619,-0.03168 -0.05397,-0.05147 -0.08365,-0.05927 -0.02958,-0.0081 -0.08315,-0.01189 -0.161107,-0.01189 -0.006,0 -0.02039,3e-4 -0.04228,9.99e-4 z m 1.45436,0.142418 0.192189,0.02369 c -0.03028,0.112435 -0.08635,0.199485 -0.168203,0.261549 -0.08215,0.06177 -0.186792,0.09275 -0.314119,0.09275 -0.160407,0 -0.287634,-0.04937 -0.38148,-0.148114 -0.09415,-0.09864 -0.141019,-0.237263 -0.141019,-0.41566 0,-0.184693 0.04757,-0.327911 0.142418,-0.429752 0.09524,-0.101941 0.218274,-0.153012 0.369886,-0.153012 0.146615,0 0.266546,0.05007 0.359192,0.149813 0.09315,0.09984 0.139619,0.240461 0.139619,0.421357 0,0.01129 -3e-4,0.02778 -9.99e-4,0.04967 l -0.817927,0 c 0.0067,0.12063 0.04088,0.212977 0.102241,0.27674 0.06136,0.06416 0.137421,0.09624 0.229168,0.09624 0.06806,0 0.126227,-0.01789 0.174499,-0.05387 0.04827,-0.03568 0.08635,-0.09275 0.114534,-0.171401 z m -0.610247,-0.300726 0.612446,0 c -0.0082,-0.09205 -0.03178,-0.161407 -0.07016,-0.20728 -0.05926,-0.07156 -0.136121,-0.107538 -0.230267,-0.107538 -0.08535,0 -0.157209,0.02858 -0.215376,0.08565 -0.05827,0.05717 -0.09035,0.133623 -0.09664,0.229168 z"
   id="path45"
   style="fill:#2b2a29;fill-rule:nonzero" />
  <g
   id="_189903736">
   <path
   d="m 50.1667,28.8116 c 0.614945,0 1.10076,-0.485819 1.10076,-1.10146 0,-0.614745 -0.485819,-1.12595 -1.10076,-1.12595 -0.614245,0 -1.12585,0.511205 -1.12585,1.12595 0,0.615644 0.511604,1.10146 1.12585,1.10146 z"
   id="_189913776"
   style="fill:#fefefe;stroke:#2b2a29;stroke-width:0.15461101" />
   <path
   d="m 50.1667,28.3001 c 0.333607,0 0.590159,-0.257651 0.590159,-0.589959 0,-0.332408 -0.256552,-0.614745 -0.590159,-0.614745 -0.331908,0 -0.614245,0.282337 -0.614245,0.614745 0,0.332308 0.282337,0.589959 0.614245,0.589959"
   id="_332917032"
   style="fill:none;stroke:#2b2a29;stroke-width:0.18559299" />
  </g>
  <path
   d="m 38.4823,29.5071 1.39529,0 0,2.10019 0.177697,0 0,0.974237 -0.338904,0 0,-0.550582 -1.27127,0 0,0.550582 -0.338904,0 0,-0.974237 0.171101,0 c 0.08325,-0.215675 0.13872,-0.466031 0.165005,-0.751566 0.02678,-0.285035 0.03998,-0.645827 0.03998,-1.08187 l 0,-0.266746 z m 0.388376,0.423655 c 0,0.766257 -0.05547,1.32573 -0.166504,1.67653 l 0.767257,0 0,-1.67653 -0.600753,0 z m 1.44037,0.272043 0.387376,0 0,0.669313 0.55328,0 0,-0.669313 0.388775,0 0,1.82814 -0.388775,0 0,-0.768056 -0.55328,0 0,0.768056 -0.387376,0 0,-1.82814 z m 1.71921,-0.247957 0,-0.447741 0.386876,0 0,0.447741 -0.386876,0 z m 0,2.0761 0,-1.82814 0.386876,0 0,1.82814 -0.386876,0 z m 0.768056,-1.82814 1.29895,0 0,1.82814 -0.386876,0 0,-1.43737 -0.524697,0 0,1.43737 -0.387376,0 0,-1.82814 z m 1.70791,0 0.361091,0 0,0.268545 c 0.04647,-0.09225 0.109936,-0.166804 0.18989,-0.223871 0.07995,-0.05757 0.168802,-0.08635 0.266046,-0.08635 0.169702,0 0.314119,0.08345 0.43205,0.249756 0.118432,0.166304 0.177697,0.39837 0.177697,0.695698 0,0.305024 -0.05977,0.542387 -0.178597,0.711689 -0.119431,0.169202 -0.264247,0.253853 -0.433949,0.253853 -0.08085,0 -0.154211,-0.01999 -0.219973,-0.05997 -0.06536,-0.04058 -0.134522,-0.109337 -0.20738,-0.20688 l 0,0.921468 -0.386876,0 0,-2.52394 z m 0.383179,0.88319 c 0,0.205082 0.03238,0.357294 0.09774,0.454837 0.06486,0.09814 0.144317,0.147515 0.238363,0.147515 0.08975,0 0.164504,-0.04527 0.224269,-0.135122 0.05967,-0.08995 0.08975,-0.237963 0.08975,-0.443044 0,-0.192189 -0.03108,-0.334407 -0.09265,-0.427253 -0.06156,-0.09285 -0.13772,-0.13922 -0.228468,-0.13922 -0.09445,0 -0.173,0.04517 -0.235464,0.136921 -0.06256,0.09105 -0.09355,0.226169 -0.09355,0.405366 z m 1.26127,0.0048 c 0,-0.160507 0.03198,-0.316217 0.09494,-0.46663 0.06346,-0.149813 0.153311,-0.265047 0.269344,-0.343801 0.116133,-0.07925 0.245858,-0.119231 0.389275,-0.119231 0.220972,0 0.402368,0.08985 0.543886,0.269744 0.141518,0.179796 0.212077,0.406565 0.212077,0.681007 0,0.27624 -0.07156,0.505408 -0.213976,0.687503 -0.142917,0.182195 -0.322514,0.272742 -0.539188,0.272742 -0.134422,0 -0.261849,-0.03768 -0.383578,-0.113434 -0.12173,-0.07586 -0.214376,-0.186892 -0.277839,-0.333207 -0.06296,-0.146315 -0.09495,-0.324413 -0.09495,-0.534691 z m 0.396771,0.02578 c 0,0.181595 0.03428,0.320315 0.10334,0.416659 0.06876,0.09634 0.153811,0.144517 0.254853,0.144517 0.101042,0 0.185693,-0.04817 0.253853,-0.144517 0.06856,-0.09634 0.102941,-0.236264 0.102941,-0.420157 0,-0.178597 -0.03438,-0.316717 -0.102941,-0.413061 -0.06816,-0.09644 -0.152812,-0.144616 -0.253853,-0.144616 -0.101042,0 -0.186092,0.04817 -0.254853,0.144616 -0.06906,0.09634 -0.10334,0.235564 -0.10334,0.416559 z m 1.40039,-0.913772 1.29895,0 0,1.82814 -0.386876,0 0,-1.43737 -0.524697,0 0,1.43737 -0.387376,0 0,-1.82814 z m 2.56582,1.24638 0.385977,0.08055 c -0.04987,0.176798 -0.127926,0.31142 -0.235064,0.403667 -0.106738,0.09285 -0.240761,0.13872 -0.401468,0.13872 -0.254253,0 -0.442344,-0.10344 -0.564574,-0.31152 -0.09634,-0.166304 -0.144816,-0.376682 -0.144816,-0.629936 0,-0.303225 0.06346,-0.540588 0.19039,-0.712189 0.126427,-0.171601 0.286734,-0.257351 0.480422,-0.257351 0.217674,0 0.389275,0.08985 0.515302,0.269744 0.125428,0.179796 0.185693,0.454837 0.180496,0.825623 l -0.96984,0 c 0.0028,0.143317 0.03388,0.254953 0.09355,0.334307 0.05967,0.07995 0.134422,0.119931 0.223271,0.119931 0.06067,0 0.111436,-0.02059 0.152812,-0.06176 0.04138,-0.04168 0.07286,-0.108138 0.09355,-0.199785 z m 0.02209,-0.488918 c -0.0028,-0.140419 -0.03148,-0.246757 -0.08645,-0.319615 -0.05507,-0.07286 -0.122229,-0.109337 -0.201284,-0.109337 -0.08455,0 -0.154111,0.03878 -0.209179,0.115733 -0.05497,0.07646 -0.08225,0.180995 -0.08125,0.313219 l 0.578166,0 z m 0.489417,-0.757462 1.32334,0 0,0.390774 -0.468229,0 0,1.43737 -0.386876,0 0,-1.43737 -0.468229,0 0,-0.390774 z m 1.54331,0 0.361091,0 0,0.268545 c 0.04647,-0.09225 0.109936,-0.166804 0.18989,-0.223871 0.07995,-0.05757 0.168703,-0.08635 0.266046,-0.08635 0.169702,0 0.314019,0.08345 0.43195,0.249756 0.118532,0.166304 0.177797,0.39837 0.177797,0.695698 0,0.305024 -0.05977,0.542387 -0.178597,0.711689 -0.119531,0.169202 -0.264247,0.253853 -0.433949,0.253853 -0.08095,0 -0.154211,-0.01999 -0.220073,-0.05997 -0.06526,-0.04058 -0.134422,-0.109337 -0.20728,-0.20688 l 0,0.921468 -0.386876,0 0,-2.52394 z m 0.383079,0.88319 c 0,0.205082 0.03248,0.357294 0.09784,0.454837 0.06486,0.09814 0.144317,0.147515 0.238362,0.147515 0.08975,0 0.164505,-0.04527 0.22427,-0.135122 0.05957,-0.08995 0.08975,-0.237963 0.08975,-0.443044 0,-0.192189 -0.03108,-0.334407 -0.09265,-0.427253 -0.06156,-0.09285 -0.13782,-0.13922 -0.228468,-0.13922 -0.09445,0 -0.173,0.04517 -0.235564,0.136921 -0.06246,0.09105 -0.09355,0.226169 -0.09355,0.405366 z m 1.26127,0.0048 c 0,-0.160507 0.03198,-0.316217 0.09504,-0.46663 0.06346,-0.149813 0.153211,-0.265047 0.269344,-0.343801 0.116133,-0.07925 0.245858,-0.119231 0.389175,-0.119231 0.221072,0 0.402467,0.08985 0.543986,0.269744 0.141518,0.179796 0.211978,0.406565 0.211978,0.681007 0,0.27624 -0.07146,0.505408 -0.213876,0.687503 -0.142917,0.182195 -0.322514,0.272742 -0.539188,0.272742 -0.134422,0 -0.261849,-0.03768 -0.383578,-0.113434 -0.12183,-0.07586 -0.214376,-0.186892 -0.277839,-0.333207 -0.06306,-0.146315 -0.09504,-0.324413 -0.09504,-0.534691 z m 0.396871,0.02578 c 0,0.181595 0.03428,0.320315 0.10334,0.416659 0.06866,0.09634 0.153811,0.144517 0.254853,0.144517 0.101042,0 0.185593,-0.04817 0.253853,-0.144517 0.06856,-0.09634 0.102941,-0.236264 0.102941,-0.420157 0,-0.178597 -0.03438,-0.316717 -0.102941,-0.413061 -0.06826,-0.09644 -0.152812,-0.144616 -0.253853,-0.144616 -0.101042,0 -0.186192,0.04817 -0.254853,0.144616 -0.06906,0.09634 -0.10334,0.235564 -0.10334,0.416559 z m 1.41968,-0.913772 0.847111,0 c 0.1735,0 0.303725,0.03938 0.389775,0.118731 0.08635,0.07935 0.129625,0.198585 0.129625,0.357893 0,0.102241 -0.02389,0.19099 -0.07086,0.266746 -0.04757,0.07586 -0.106738,0.126327 -0.178697,0.151612 0.101042,0.03118 0.176298,0.08875 0.226069,0.1739 0.04937,0.08525 0.07426,0.178097 0.07426,0.279139 0,0.142218 -0.04178,0.257951 -0.125028,0.3467 -0.08365,0.08875 -0.20728,0.133423 -0.370886,0.133423 l -0.921368,0 0,-1.82814 z m 0.390175,0.759261 0.249156,0 c 0.12033,0 0.20728,-0.01939 0.260949,-0.05697 0.05357,-0.03768 0.08035,-0.09754 0.08035,-0.179296 0,-0.07696 -0.02489,-0.131624 -0.07476,-0.163905 -0.05037,-0.03288 -0.13912,-0.04937 -0.266546,-0.04937 l -0.249156,0 0,0.44954 z m 0,0.759161 0.305523,0 c 0.110036,0 0.19039,-0.01699 0.241161,-0.04987 0.05027,-0.03348 0.07576,-0.09345 0.07576,-0.179296 0,-0.08925 -0.02918,-0.151013 -0.08705,-0.185093 -0.05777,-0.03408 -0.170102,-0.05047 -0.337505,-0.05047 l -0.197886,0 0,0.464732 z m 2.54513,-0.977735 -0.381779,0.08575 c -0.01259,-0.09515 -0.04178,-0.166904 -0.08735,-0.215076 -0.04567,-0.04817 -0.10444,-0.07226 -0.176798,-0.07226 -0.09684,0 -0.1735,0.04168 -0.230867,0.124528 -0.05727,0.08345 -0.08605,0.222771 -0.08605,0.417859 0,0.216775 0.02918,0.370186 0.08755,0.459535 0.05827,0.08925 0.136321,0.133923 0.234564,0.133923 0.07376,0 0.133523,-0.02578 0.180396,-0.07815 0.04707,-0.05227 0.07995,-0.142218 0.09924,-0.269145 l 0.38038,0.08055 c -0.03948,0.217974 -0.115733,0.383079 -0.227569,0.494214 -0.111835,0.111636 -0.261849,0.166904 -0.45034,0.166904 -0.213876,0 -0.384578,-0.08405 -0.511504,-0.252754 -0.127326,-0.168603 -0.19089,-0.402467 -0.19089,-0.700995 0,-0.301426 0.06396,-0.53649 0.191389,-0.704593 0.127826,-0.168603 0.300326,-0.252654 0.518001,-0.252654 0.178197,0 0.319715,0.04817 0.425054,0.143917 0.104839,0.09584 0.180396,0.24216 0.226569,0.438447 z m 0.301226,-0.540688 0.386976,0 0,0.759261 0.388775,0 c 0.152312,0 0.269344,0.01349 0.351197,0.04108 0.08175,0.02768 0.149414,0.08705 0.203482,0.178097 0.05457,0.09105 0.08135,0.197486 0.08135,0.317916 0,0.176298 -0.04847,0.309621 -0.145316,0.39837 -0.09674,0.08875 -0.24206,0.133423 -0.435748,0.133423 l -0.83072,0 0,-1.82814 z m 0.386976,1.52202 0.360991,0 c 0.112835,0 0.185193,-0.02349 0.216675,-0.06936 0.03198,-0.04587 0.04797,-0.100542 0.04797,-0.163406 0,-0.08815 -0.02768,-0.149214 -0.08225,-0.182694 -0.05447,-0.03288 -0.151313,-0.04997 -0.291032,-0.04997 l -0.252354,0 0,0.465431 z m 1.32324,-1.52202 0.385977,0 0,0.746869 c 0.06396,-0.0088 0.109537,-0.03348 0.136321,-0.07396 0.02639,-0.03998 0.05877,-0.128126 0.09645,-0.263348 0.04927,-0.180396 0.10384,-0.295529 0.162606,-0.3461 0.05877,-0.05047 0.135822,-0.07576 0.231266,-0.07576 0.02918,0 0.08035,0.0029 0.152811,0.0088 l 0.0014,0.320215 c -0.101941,0 -0.167403,0.01179 -0.195587,0.03588 -0.02858,0.02529 -0.05917,0.100542 -0.09215,0.22567 -0.04507,0.168603 -0.109936,0.272642 -0.194088,0.31142 0.12173,0.04288 0.22517,0.175099 0.309721,0.39787 0.0043,0.01169 0.0095,0.02349 0.01509,0.03638 l 0.216275,0.504209 -0.41606,0 -0.192789,-0.528295 c -0.03948,-0.106938 -0.07376,-0.175698 -0.102441,-0.206281 -0.02908,-0.02988 -0.07186,-0.04517 -0.128826,-0.04517 l 0,0.77975 -0.385977,0 0,-1.82814 z"
   id="path50"
   style="fill:#2b2a29;fill-rule:nonzero" />
 </g>
</svg>