<?xml version="1.0" encoding="UTF-8" standalone="no"?>
<!-- Created with Inkscape (http://www.inkscape.org/) -->

<svg
   xmlns:svg="http://www.w3.org/2000/svg"
   xmlns="http://www.w3.org/2000/svg"
   version="1.1"
   width="64.024696mm"
   height="88.756401mm"
   viewBox="0 0 66.319 91.9369"
   id="svg2"
   xml:space="preserve"
   style="fill-rule:evenodd">
 <defs
   id="defs4">
  <style
   type="text/css"
   id="style6" />
 </defs>
 <g
   id="Layer_x0020_1">
  
  <path
   d="m 2.35487,25.9614 0,-0.688208 -0.397139,0 -0.158483,-1.26993 c 0,0 0.555621,-0.42407 0.635588,-0.47638 0.079552,-0.08007 -0.847519,-1.61476 -0.847519,-1.61476 l -0.688415,-0.555414 -0.211932,-1.16428 0.900347,-0.979899 0.635899,0.21245 0.555932,-0.42407 0.766932,1.03242 0.978138,-0.05303 0.213382,-1.19028 1.74569,-0.132587 0.609174,0.555104 0.423656,-0.555104 1.79924,2.09093 0.502794,-0.555932 -1.40211,-1.535 0.766517,-1.11124 1.11124,0.476069 0.424381,-1.95866 0.900347,0.07945 0,1.19131 1.61331,0.476277 0,-2.14345 0.819345,-1.53521 1.06018,-0.211932 0.34369,-0.423138 1.79924,0.291069 0.132069,-0.555414 -1.79966,-1.27066 0,-0.688001 0.846794,0.07965 0.68914,-0.979588 1.11197,0.132172 0.13124,-1.8782796 1.87859,-1.032 -0.34369,-1.27076 0.132069,-0.608656 1.87911,-0.370621 1.19017,-0.952553 -2.72528,-1.27055 0.768278,-1.72052 0.421792,-0.634448 1.74828,-0.0790341 0.131655,-0.42376 3.89008,0.847002 1.40345,0.131862 0.556036,-1.24383 1.05842,0.423242 0.475344,0.899933 -0.423967,1.11135 2.77883,1.32411 0.848245,-1.19162 1.11093,0.079241 -0.846898,2.99014 1.40314,1.95949 -1.32286,0.396828 -0.212657,1.11155 -0.477105,0 0,0.714622 1.03314,0.2111034 -1.03314,0.820173 0.345451,0.847209 1.11093,-0.423449 1.40169,-0.635381 1.11124,-0.264552 1.457,-0.8470024 0.21131,1.6147604 0.475966,1.879 0.980003,0.05241 0.211207,1.11197 1.45493,0.158483 -0.132069,0.768071 -0.898897,0.132483 0.13238,0.978242 -0.686965,0.821209 0.820795,0.767035 0.976688,-0.211621 0.291587,1.66686 -0.555621,0.847002 -0.767967,0.13238 -0.925621,0.899415 0.290759,0.555621 0.847519,0.159518 0.396103,3.25469 1.82576,1.27045 0.133415,2.35466 0.344001,0.979381 1.66655,-0.635173 0.687276,0.292623 -0.05179,1.74517 1.66655,0.264966 0.344001,0.899622 -0.899311,0.636002 -0.07955,1.87776 1.53448,0.556864 1.9599,0.476691 c 0,0 1.32172,2.301 1.74642,2.38024 0.395689,0.05386 1.16366,0.556139 1.16366,0.556139 l 2.16966,0.555621 2.356,0.820381 -0.34369,1.694 0.978552,0.609485 -0.131344,1.42779 2.64459,-0.264138 2.62149,-0.07955 -0.05459,2.16997 1.74714,0 -0.635173,2.22321 0.688726,1.24373 -1.032,0 -4.81684,0.767139 -2.01055,5.16198 0.34369,1.66541 -1.53448,0.08028 -1.032,0.820484 -0.423553,1.45555 -3.75811,0.712965 -0.820381,0.980313 -1.694,-0.502069 -0.953175,1.66614 -0.846069,0.900347 -0.635277,1.32286 0,1.82669 0.714104,0.263413 0.212346,3.62604 -2.24994,1.79955 0,1.11197 4.12801,0 -2.85766,3.41401 0,3.54535 -0.290448,0.847934 c -0.319037,0.476794 -1.82669,2.91194 -2.85911,3.12242 -0.369378,0.105966 0.397139,-0.714726 0.423553,-1.11197 0.132794,-2.51366 -1.66759,-1.50838 -3.20166,-1.24321 -1.21721,0.211207 -2.46125,-0.07997 -3.62604,0.13269 -0.580999,0.105655 -1.08483,0.527447 -1.6679,0.713793 -0.845448,0.264345 -1.71938,0.555621 -2.64645,0.688001 -1.00455,0.13238 -2.40666,-0.634138 -3.33373,-0.291277 -0.609485,0.238035 -0.979278,0.901486 -1.37569,1.40356 -0.898897,1.0581 -1.77428,2.16893 -2.51438,3.33476 -0.92645,1.42779 -1.26973,3.28028 -2.51438,4.44507 -0.476069,0.450277 0.02776,-1.29718 -0.131655,-1.93173 -0.635277,-2.56721 -3.75811,0.529622 -4.73656,1.11166 -0.134555,0.0781 -1.74756,0.926346 -1.74756,0.926346 l -0.211621,-0.239071 -1.11331,-1.45452 0.769728,-1.74683 1.74642,0.343275 0.899208,-0.899208 -1.11083,-0.899311 0.687587,-1.24331 -1.37559,-0.926346 -0.846794,0.766103 -1.37642,-1.66614 -0.979588,-1.16542 -1.45566,-0.979278 -1.66686,-1.11124 2.356,-0.766828 -1.03314,-1.27118 -0.979485,-2.35342 0.345451,-0.425003 0.686862,0.555207 1.32431,-0.422102 0.422517,0.845655 2.989,-1.58721 -0.131655,-2.30204 0.821831,-0.159208 0.554896,1.40097 0.926036,-0.421792 -0.07924,-1.5348 0.636002,-2.6218 -0.847209,0 -0.132069,-0.712343 -0.767242,0 -0.424588,1.0581 -3.54576,-3.14956 -0.555621,0.555932 -2.17111,-1.5869 -1.03128,1.2429 -1.8788996,-2.5669 -1.457,0.979278 -1.61259,-2.17038 1.61259,-0.476069 -0.342654,-0.847519 -2.46114,0.08069 0,-0.847519 0.767553,-0.212035 0,-0.819656 -1.16511,-0.07955 -0.289101,-1.87994 -2.0119,0.133415 -0.079241,-0.820691 0.898586,-0.688105 -0.263723,-0.714415 -1.19225,0.34369 -0.210896,0.05386 0,-1.42883 -0.476069,-0.213071 0.132069,-0.978138 0.766828,0 0.0792413,-0.423967 0.901072,-0.211932 -0.344726,-1.79924 -0.714415,0.211621 -0.262998,-1.03314 0,-1.40138 -0.0810022,-1.19152 1.48166,-1.74673 1.87921,0.925932 0.687276,0.556347 1.87921,0 0.478866,0.396103 0.157447,-1.11124 1.03128,-0.554482 0,-1.72042 -0.47493,-1.93204 1.16335,-1.03231 -0.397242,-2.09073 -0.422517,-1.74652 -3.54752,-0.13238 -0.37,-1.32286 1.40418,0 -0.265484,-3.07083 -0.159104,-2.01097 0.846069,-0.157861 -0.211621,-1.32359 1.5348,-0.185414 -0.288687,-1.95824 -2.43618,-0.132898 -0.476069,-0.980106 -1.05955,0.133519 -0.555621,-0.899622 z"
   id="path10"
   style="fill:#ffdf49" />
  <g
   id="_335765136">
   <path
   d="m 28.8774,83.2364 c 0.488603,0 0.895375,-0.385434 0.895375,-0.873208 0,-0.487774 -0.406772,-0.874244 -0.895375,-0.874244 -0.466022,0 -0.852491,0.38647 -0.852491,0.874244 0,0.487774 0.38647,0.873208 0.852491,0.873208 z"
   id="_335765232"
   style="fill:#fefefe;stroke:#2b2a29;stroke-width:0.122746" />
   <path
   d="m 28.8895,82.5716 c 0.114253,0 0.209135,-0.09675 0.209135,-0.20841 0,-0.112699 -0.09488,-0.209135 -0.209135,-0.209135 -0.10493,0 -0.19049,0.09644 -0.19049,0.209135 0,0.111663 0.08556,0.20841 0.19049,0.20841 z"
   id="_335765184"
   style="fill:#2b2a29;stroke:#2b2a29;stroke-width:0.0789306" />
  </g>
  <g
   id="_335764968">
   <path
   d="m 23.7494,16.1334 c 0.487878,0 0.89465,-0.386677 0.89465,-0.874866 0,-0.487981 -0.406772,-0.873933 -0.89465,-0.873933 -0.467472,0 -0.853942,0.385952 -0.853942,0.873933 0,0.488189 0.38647,0.874866 0.853942,0.874866 z"
   id="_335765064"
   style="fill:#fefefe;stroke:#2b2a29;stroke-width:0.122746" />
   <path
   d="m 23.7615,15.4677 c 0.113113,0 0.209135,-0.0955 0.209135,-0.209135 0,-0.112699 -0.09602,-0.20841 -0.209135,-0.20841 -0.10493,0 -0.191629,0.09571 -0.191629,0.20841 0,0.113631 0.0867,0.209135 0.191629,0.209135 z"
   id="_335765016"
   style="fill:#2b2a29;stroke:#2b2a29;stroke-width:0.0789306" />
  </g>
  <g
   id="_335764800">
   <path
   d="m 34.6481,25.2155 c 0.48881,0 0.893925,-0.386055 0.893925,-0.874762 0,-0.487671 -0.405115,-0.87383 -0.893925,-0.87383 -0.467472,0 -0.853631,0.386159 -0.853631,0.87383 0,0.488707 0.386159,0.874762 0.853631,0.874762 z"
   id="_335764896"
   style="fill:#fefefe;stroke:#2b2a29;stroke-width:0.122746" />
   <path
   d="m 34.6599,24.55 c 0.11301,0 0.209446,-0.09592 0.209446,-0.209238 0,-0.112492 -0.09644,-0.208306 -0.209446,-0.208306 -0.104308,0 -0.190593,0.09581 -0.190593,0.208306 0,0.11332 0.08628,0.209238 0.190593,0.209238 z"
   id="_335764848"
   style="fill:#2b2a29;stroke:#2b2a29;stroke-width:0.0789306" />
  </g>
  <g
   id="_331333560">
   <path
   d="m 37.9604,33.8707 c 0.489328,0 0.896411,-0.386366 0.896411,-0.874658 0,-0.487567 -0.407083,-0.873933 -0.896411,-0.873933 -0.466747,0 -0.852906,0.386366 -0.852906,0.873933 0,0.488292 0.386159,0.874658 0.852906,0.874658 z"
   id="_335764728"
   style="fill:#fefefe;stroke:#2b2a29;stroke-width:0.122746" />
   <path
   d="m 37.9722,33.2055 c 0.113527,0 0.209446,-0.09582 0.209446,-0.209446 0,-0.112284 -0.09592,-0.208306 -0.209446,-0.208306 -0.103894,0 -0.190904,0.09602 -0.190904,0.208306 0,0.113631 0.08701,0.209446 0.190904,0.209446 z"
   id="_331333584"
   style="fill:#2b2a29;stroke:#2b2a29;stroke-width:0.0789306" />
  </g>
  <g
   id="_331333392">
   <path
   d="m 27.5963,28.8483 c 0.487878,0 0.894339,-0.386055 0.894339,-0.874451 0,-0.487671 -0.406461,-0.87414 -0.894339,-0.87414 -0.466747,0 -0.853942,0.38647 -0.853942,0.87414 0,0.488396 0.387195,0.874451 0.853942,0.874451 z"
   id="_331333488"
   style="fill:#fefefe;stroke:#2b2a29;stroke-width:0.122746" />
   <path
   d="m 27.6077,28.183 c 0.114253,0 0.209549,-0.09581 0.209549,-0.209135 0,-0.112699 -0.0953,-0.208513 -0.209549,-0.208513 -0.104516,0 -0.19049,0.09581 -0.19049,0.208513 0,0.11332 0.08597,0.209135 0.19049,0.209135 z"
   id="_331333440"
   style="fill:#2b2a29;stroke:#2b2a29;stroke-width:0.0789306" />
  </g>
  <g
   id="_331333224">
   <path
   d="m 48.8595,44.663 c 0.488914,0 0.895375,-0.386159 0.895375,-0.875073 0,-0.487774 -0.406461,-0.873519 -0.895375,-0.873519 -0.466333,0 -0.852802,0.385745 -0.852802,0.873519 0,0.488914 0.38647,0.875073 0.852802,0.875073 z"
   id="_331333320"
   style="fill:#fefefe;stroke:#2b2a29;stroke-width:0.122746" />
   <path
   d="m 48.8717,43.9975 c 0.113735,0 0.209756,-0.09602 0.209756,-0.209549 0,-0.112802 -0.09602,-0.209031 -0.209756,-0.209031 -0.104308,0 -0.190283,0.09623 -0.190283,0.209031 0,0.113527 0.08597,0.209549 0.190283,0.209549 z"
   id="_331333272"
   style="fill:#2b2a29;stroke:#2b2a29;stroke-width:0.0789306" />
  </g>
  <g
   id="_380436432">
   <path
   d="m 40.5787,46.2117 c 0.488499,0 0.894236,-0.386055 0.894236,-0.874658 0,-0.487464 -0.405736,-0.873933 -0.894236,-0.873933 -0.468197,0 -0.853942,0.38647 -0.853942,0.873933 0,0.488603 0.385745,0.874658 0.853942,0.874658 z"
   id="_333988256"
   style="fill:#fefefe;stroke:#2b2a29;stroke-width:0.122746" />
   <path
   d="m 40.5908,45.5469 c 0.112802,0 0.20841,-0.09602 0.20841,-0.20986 0,-0.112388 -0.09561,-0.207995 -0.20841,-0.207995 -0.10493,0 -0.192044,0.09561 -0.192044,0.207995 0,0.113838 0.08711,0.20986 0.192044,0.20986 z"
   id="_333988544"
   style="fill:#2b2a29;stroke:#2b2a29;stroke-width:0.0789306" />
  </g>
  <g
   id="_332313080">
   <path
   d="m 40.3699,39.1022 c 0.487153,0 0.89465,-0.386366 0.89465,-0.874348 0,-0.487981 -0.407497,-0.873519 -0.89465,-0.873519 -0.467368,0 -0.853217,0.385537 -0.853217,0.873519 0,0.487981 0.385848,0.874348 0.853217,0.874348 z"
   id="_334495400"
   style="fill:#fefefe;stroke:#2b2a29;stroke-width:0.122746" />
   <path
   d="m 40.3821,38.4368 c 0.112388,0 0.208721,-0.09592 0.208721,-0.208928 0,-0.112802 -0.09633,-0.20841 -0.208721,-0.20841 -0.105655,0 -0.191319,0.09561 -0.191319,0.20841 0,0.11301 0.08566,0.208928 0.191319,0.208928 z"
   id="_191669704"
   style="fill:#2b2a29;stroke:#2b2a29;stroke-width:0.0789306" />
  </g>
  <g
   id="_385435040">
   <path
   d="m 17.7699,58.3359 c 0.487774,0 0.89465,-0.386884 0.89465,-0.874348 0,-0.488189 -0.406876,-0.874658 -0.89465,-0.874658 -0.467161,0 -0.853631,0.38647 -0.853631,0.874658 0,0.487464 0.38647,0.874348 0.853631,0.874348 z"
   id="_332312984"
   style="fill:#fefefe;stroke:#2b2a29;stroke-width:0.122746" />
   <path
   d="m 17.7813,57.6695 c 0.113838,0 0.209549,-0.09519 0.209549,-0.207995 0,-0.113113 -0.09571,-0.208721 -0.209549,-0.208721 -0.104101,0 -0.190179,0.09561 -0.190179,0.208721 0,0.112802 0.08608,0.207995 0.190179,0.207995 z"
   id="_332312792"
   style="fill:#2b2a29;stroke:#2b2a29;stroke-width:0.0789306" />
  </g>
  <path
   d="m 23.769,80.2886 0,-1.56939 0.312718,0 0.371347,1.11114 c 0.03429,0.10348 0.05956,0.18096 0.07489,0.232441 0.01792,-0.05697 0.04568,-0.141081 0.08369,-0.251811 l 0.375593,-1.09177 0.279572,0 0,1.56939 -0.200227,0 0,-1.31364 -0.456078,1.31364 -0.187486,0 -0.453799,-1.33592 0,1.33592 -0.200227,0 z m 2.57457,-0.140356 c -0.07158,0.0607 -0.140356,0.10348 -0.206027,0.128651 -0.06619,0.02486 -0.137041,0.03729 -0.21276,0.03729 -0.124922,0 -0.220633,-0.03035 -0.287858,-0.09136 -0.06692,-0.06101 -0.100476,-0.139216 -0.100476,-0.233891 0,-0.05583 0.01233,-0.106691 0.03791,-0.152682 0.02528,-0.04609 0.05853,-0.08297 0.09944,-0.110731 0.04133,-0.02776 0.08732,-0.049 0.138802,-0.06319 0.0377,-0.0099 0.09468,-0.01978 0.171016,-0.0289 0.155686,-0.01865 0.270456,-0.0406 0.343897,-0.0665 7.25e-4,-0.02631 0.001,-0.04309 0.001,-0.05003 0,-0.07862 -0.01823,-0.134141 -0.0548,-0.165941 -0.04889,-0.04381 -0.122332,-0.06536 -0.219183,-0.06536 -0.09064,0 -0.15755,0.01564 -0.200952,0.04744 -0.04319,0.0318 -0.075,0.08805 -0.09582,0.168841 l -0.188107,-0.026 c 0.01709,-0.08038 0.04527,-0.145742 0.08432,-0.195048 0.03916,-0.04972 0.09613,-0.08805 0.170291,-0.11477 0.07417,-0.02672 0.160036,-0.04019 0.258026,-0.04019 0.09716,0 0.175781,0.0117 0.236377,0.03439 0.0607,0.023 0.105241,0.05148 0.134141,0.08618 0.02848,0.0347 0.04827,0.0782 0.05987,0.13124 0.0062,0.03284 0.0095,0.09198 0.0095,0.177542 l 0,0.256887 c 0,0.179406 0.004,0.292727 0.01243,0.339857 0.0081,0.04744 0.02445,0.09312 0.04858,0.136627 l -0.201263,0 c -0.01978,-0.03988 -0.03294,-0.0866 -0.03843,-0.140356 z m -0.01606,-0.430389 c -0.07013,0.0288 -0.175056,0.05293 -0.314583,0.07303 -0.07935,0.01139 -0.135591,0.02414 -0.168116,0.03843 -0.03294,0.01419 -0.05853,0.03501 -0.07603,0.06277 -0.01792,0.02745 -0.02704,0.0578 -0.02704,0.09136 0,0.05158 0.01978,0.09436 0.05842,0.128651 0.03874,0.03397 0.09582,0.05117 0.170705,0.05117 0.07417,0 0.140356,-0.01605 0.198051,-0.04858 0.0577,-0.03252 0.100476,-0.07717 0.127511,-0.133415 0.02082,-0.0435 0.03108,-0.107727 0.03108,-0.192562 l 0,-0.07085 z m 0.493679,1.00631 0,-1.5724 0.175367,0 0,0.14771 c 0.04133,-0.0578 0.08805,-0.101305 0.140356,-0.130101 0.05189,-0.0289 0.115081,-0.04351 0.189247,-0.04351 0.09726,0 0.182721,0.02517 0.256887,0.07489 0.07458,0.05003 0.130515,0.120571 0.168116,0.211621 0.03802,0.09095 0.05697,0.190697 0.05697,0.299252 0,0.116221 -0.02082,0.221047 -0.06288,0.314272 -0.04164,0.09312 -0.102237,0.164387 -0.181892,0.214107 -0.07965,0.04931 -0.163351,0.07417 -0.251086,0.07417 -0.06432,0 -0.121711,-0.01357 -0.172777,-0.0406 -0.05117,-0.02703 -0.09281,-0.06132 -0.12575,-0.102651 l 0,0.553239 -0.192562,0 z m 0.174331,-0.997612 c 0,0.14626 0.02952,0.254401 0.08877,0.324527 0.05915,0.06982 0.131137,0.104826 0.215246,0.104826 0.08546,0 0.158897,-0.03615 0.219908,-0.108866 0.06101,-0.0723 0.09178,-0.184482 0.09178,-0.336543 0,-0.145017 -0.02994,-0.253158 -0.0896,-0.325563 -0.05956,-0.07199 -0.130722,-0.108141 -0.213382,-0.108141 -0.08214,0 -0.154857,0.03833 -0.218147,0.115081 -0.06319,0.07676 -0.09457,0.188522 -0.09457,0.334678 z m 1.04578,-0.785577 0,-0.221772 0.192976,0 0,0.221772 -0.192976,0 z m 0,1.34762 0,-1.13683 0.192976,0 0,1.13683 -0.192976,0 z m 0.47752,0.437744 -0.02155,-0.180857 c 0.04237,0.01129 0.07893,0.0172 0.11042,0.0172 0.04268,0 0.07707,-0.0074 0.102651,-0.02155 0.0259,-0.01429 0.04672,-0.03397 0.06319,-0.05997 0.01243,-0.01896 0.0318,-0.06681 0.05884,-0.143256 0.0036,-0.01098 0.0095,-0.02631 0.01719,-0.04713 l -0.431218,-1.139 0.207581,0 0.236792,0.658169 c 0.03035,0.0837 0.05811,0.171327 0.08225,0.263413 0.02227,-0.08836 0.04858,-0.174642 0.07924,-0.259062 l 0.243007,-0.66252 0.192562,0 -0.432254,1.1562 c -0.04641,0.124922 -0.08256,0.210792 -0.108141,0.257923 -0.03439,0.0636 -0.07344,0.110006 -0.117671,0.13963 -0.04465,0.02963 -0.09727,0.04454 -0.158586,0.04454 -0.03729,0 -0.07862,-0.008 -0.1243,-0.02372 z m 1.10575,-1.57457 0.897447,0 0,1.13683 -0.192976,0 0,-0.977517 -0.511495,0 0,0.977517 -0.192976,0 0,-1.13683 z m 1.11445,0.568259 c 0,-0.210481 0.05842,-0.366478 0.175781,-0.467679 0.09758,-0.08411 0.216696,-0.126475 0.357363,-0.126475 0.156411,0 0.284233,0.05117 0.383259,0.153821 0.09944,0.10234 0.148746,0.243732 0.148746,0.424278 0,0.146467 -0.02196,0.261652 -0.06578,0.345244 -0.04382,0.08411 -0.107727,0.14916 -0.191422,0.195565 -0.08411,0.04641 -0.17547,0.0694 -0.274807,0.0694 -0.159001,0 -0.287548,-0.05076 -0.385848,-0.153096 -0.0983,-0.101926 -0.147296,-0.248807 -0.147296,-0.441058 z m 0.198051,0 c 0,0.145742 0.0318,0.254712 0.0954,0.327013 0.0636,0.07272 0.143567,0.108866 0.239692,0.108866 0.09571,0 0.175367,-0.03646 0.238967,-0.109177 0.06319,-0.07272 0.09499,-0.183861 0.09499,-0.332917 0,-0.140666 -0.0318,-0.247357 -0.09571,-0.319762 -0.06391,-0.0723 -0.143256,-0.108452 -0.238242,-0.108452 -0.09613,0 -0.176092,0.03615 -0.239692,0.108141 -0.0636,0.07199 -0.0954,0.180857 -0.0954,0.326288 z m 1.139,-0.568259 0.895168,0 0,1.13683 -0.191836,0 0,-0.977517 -0.510459,0 0,0.566394 c 0,0.131965 -0.0044,0.219286 -0.01274,0.261341 -0.0088,0.04195 -0.03222,0.07893 -0.07095,0.110316 -0.03833,0.03139 -0.09426,0.04713 -0.166976,0.04713 -0.04495,0 -0.09685,-0.0029 -0.155272,-0.0088 l 0,-0.160347 0.08473,0 c 0.03988,0 0.06837,-0.0045 0.08556,-0.01243 0.0172,-0.0084 0.02849,-0.02124 0.03429,-0.03915 0.0059,-0.01782 0.0085,-0.07593 0.0085,-0.174642 l 0,-0.749115 z m 1.18199,0 0.192562,0 0,0.444062 0.244146,0 c 0.159311,0 0.281747,0.03097 0.367618,0.09281 0.08618,0.06173 0.128961,0.146881 0.128961,0.255333 0,0.09467 -0.03584,0.176195 -0.107416,0.243421 -0.07168,0.06754 -0.186347,0.101201 -0.344208,0.101201 l -0.481663,0 0,-1.13683 z m 0.192562,0.978242 0.202506,0 c 0.122021,0 0.208928,-0.01502 0.261237,-0.04495 0.05189,-0.02994 0.07779,-0.07676 0.07779,-0.139941 0,-0.04931 -0.01896,-0.09323 -0.0577,-0.131862 -0.03833,-0.03843 -0.123886,-0.0578 -0.255747,-0.0578 l -0.228091,0 0,0.374558 z"
   id="path39"
   style="fill:#2b2a29;fill-rule:nonzero" />
  <path
   d="m 19.4073,13.0696 0.207892,0.05262 c -0.0434,0.170291 -0.122021,0.300392 -0.234927,0.390302 -0.11332,0.0895 -0.251397,0.134141 -0.415059,0.134141 -0.169255,0 -0.306607,-0.03439 -0.412573,-0.103065 -0.105966,-0.06909 -0.186761,-0.168841 -0.241867,-0.299252 -0.05521,-0.130826 -0.08297,-0.271181 -0.08297,-0.420963 0,-0.163351 0.03107,-0.305882 0.09354,-0.427592 0.06246,-0.121607 0.151232,-0.214107 0.266727,-0.277293 0.115081,-0.06319 0.241867,-0.09468 0.380358,-0.09468 0.157136,0 0.289101,0.03988 0.396103,0.119846 0.107105,0.08007 0.181685,0.192251 0.223637,0.337268 l -0.204266,0.04827 c -0.03646,-0.114356 -0.08908,-0.197326 -0.158586,-0.249532 -0.06899,-0.05231 -0.155997,-0.0782 -0.261237,-0.0782 -0.120571,0 -0.221047,0.0288 -0.302153,0.08659 -0.08121,0.05811 -0.13818,0.135487 -0.170705,0.233063 -0.03284,0.09727 -0.04931,0.197741 -0.04931,0.301117 0,0.133726 0.01937,0.249947 0.05811,0.349698 0.03905,0.09944 0.09934,0.173917 0.181582,0.223222 0.08225,0.04941 0.171016,0.07386 0.266727,0.07386 0.116221,0 0.214521,-0.03356 0.295316,-0.100476 0.08069,-0.06723 0.135176,-0.166976 0.163662,-0.298942 z m 0.533144,-0.586489 0.895168,0 0,1.13683 -0.191836,0 0,-0.977517 -0.510459,0 0,0.566394 c 0,0.131965 -0.0044,0.219286 -0.01274,0.261341 -0.0088,0.04195 -0.03221,0.07893 -0.07095,0.110316 -0.03833,0.03139 -0.09426,0.04713 -0.166976,0.04713 -0.04496,0 -0.09685,-0.0029 -0.155272,-0.0088 l 0,-0.160347 0.08473,0 c 0.03988,0 0.06837,-0.0045 0.08556,-0.01243 0.01719,-0.0084 0.02848,-0.02123 0.03429,-0.03915 0.0059,-0.01782 0.0085,-0.07593 0.0085,-0.174642 l 0,-0.749115 z m 1.13776,0.568259 c 0,-0.210481 0.05842,-0.366478 0.175781,-0.467679 0.09758,-0.08411 0.216696,-0.126475 0.357363,-0.126475 0.156411,0 0.284233,0.05117 0.383259,0.153821 0.09944,0.10234 0.148746,0.243732 0.148746,0.424278 0,0.146467 -0.02196,0.261652 -0.06578,0.345244 -0.04382,0.08411 -0.107727,0.14916 -0.191422,0.195565 -0.08411,0.04641 -0.17547,0.0694 -0.274807,0.0694 -0.159001,0 -0.287548,-0.05076 -0.385848,-0.153096 -0.0983,-0.101926 -0.147296,-0.248807 -0.147296,-0.441058 z m 0.198051,0 c 0,0.145742 0.0318,0.254712 0.0954,0.327013 0.0636,0.07272 0.143567,0.108866 0.239692,0.108866 0.09571,0 0.175367,-0.03646 0.238967,-0.109177 0.06319,-0.07272 0.09499,-0.183861 0.09499,-0.332917 0,-0.140666 -0.0318,-0.247357 -0.09571,-0.319762 -0.06391,-0.0723 -0.143256,-0.108452 -0.238242,-0.108452 -0.09612,0 -0.176092,0.03615 -0.239692,0.108141 -0.0636,0.07199 -0.0954,0.180857 -0.0954,0.326288 z m 1.09405,-0.568259 0.444373,0 c 0.109177,0 0.190386,0.0092 0.243732,0.02704 0.05293,0.01833 0.09861,0.05158 0.136937,0.100165 0.03801,0.04858 0.05739,0.106691 0.05739,0.174642 0,0.05407 -0.01129,0.101615 -0.03398,0.141806 -0.02227,0.04019 -0.05625,0.07417 -0.101201,0.101201 0.05376,0.01792 0.09799,0.05117 0.133415,0.100165 0.03543,0.04889 0.05293,0.106691 0.05293,0.173917 -0.0069,0.10783 -0.04568,0.187797 -0.115496,0.239692 -0.07013,0.05231 -0.171741,0.07821 -0.305053,0.07821 l -0.513049,0 0,-1.13683 z m 0.192976,0.478348 0.205302,0 c 0.08225,0 0.138491,-0.004 0.169152,-0.01274 0.03076,-0.0084 0.05811,-0.026 0.08266,-0.0519 0.02413,-0.026 0.03615,-0.05739 0.03615,-0.09354 0,-0.05997 -0.02123,-0.10203 -0.0636,-0.125336 -0.04237,-0.02382 -0.115081,-0.03553 -0.217732,-0.03553 l -0.211932,0 0,0.319037 z m 0,0.499894 0.253572,0 c 0.109281,0 0.184171,-0.01243 0.224672,-0.03802 0.04091,-0.02517 0.06215,-0.06909 0.06433,-0.130826 0,-0.03656 -0.0117,-0.07013 -0.03543,-0.101201 -0.02341,-0.03108 -0.05407,-0.05076 -0.09167,-0.05884 -0.03802,-0.0084 -0.09871,-0.01243 -0.18241,-0.01243 l -0.233063,0 0,0.341307 z m 0.971923,-0.855081 -0.049,-0.293348 0,-0.262377 0.219286,0 0,0.262377 -0.05117,0.293348 -0.119121,0 z m 1.31292,-0.123161 0,1.13683 -0.191836,0 0,-0.443233 -0.111041,0 c -0.06795,0 -0.118396,0.0088 -0.151646,0.02631 -0.03325,0.01751 -0.08152,0.07386 -0.14512,0.168427 l -0.168012,0.248497 -0.238656,0 0.207581,-0.306193 c 0.0636,-0.09354 0.126786,-0.146156 0.189661,-0.158275 -0.110006,-0.01533 -0.191526,-0.0548 -0.244871,-0.119121 -0.05293,-0.06391 -0.07966,-0.138077 -0.07966,-0.221358 0,-0.09872 0.0347,-0.178371 0.104516,-0.239796 0.0694,-0.06132 0.170291,-0.09209 0.302153,-0.09209 l 0.526929,0 z m -0.191836,0.159311 -0.274082,0 c -0.114667,0 -0.188833,0.01792 -0.222083,0.05376 -0.03294,0.03543 -0.04972,0.07748 -0.04972,0.125025 0,0.06795 0.02445,0.117567 0.07344,0.149367 0.04899,0.0318 0.135176,0.04786 0.259476,0.04786 l 0.212967,0 0,-0.376008 z m 0.484874,-0.159311 0.192976,0 0,0.473273 0.53418,0 0,-0.473273 0.192562,0 0,1.13683 -0.192562,0 0,-0.504244 -0.53418,0 0,0.504244 -0.192976,0 0,-1.13683 z m 1.95162,0.720215 0.189247,0.02486 c -0.02041,0.130515 -0.07344,0.232752 -0.158897,0.306607 -0.08515,0.07386 -0.189972,0.110731 -0.314272,0.110731 -0.155272,0 -0.280607,-0.05076 -0.374868,-0.152371 -0.09467,-0.101615 -0.14222,-0.247357 -0.14222,-0.437433 0,-0.122746 0.02051,-0.230162 0.06111,-0.322248 0.04092,-0.09209 0.102651,-0.161176 0.185932,-0.207167 0.08297,-0.0461 0.173606,-0.06909 0.271181,-0.06909 0.123471,0 0.224672,0.03139 0.302878,0.09395 0.07862,0.06246 0.128961,0.150921 0.151335,0.266002 l -0.187486,0.0288 c -0.01792,-0.07634 -0.04931,-0.133726 -0.09468,-0.172466 -0.04527,-0.03833 -0.100062,-0.0577 -0.164387,-0.0577 -0.09727,0 -0.176195,0.0347 -0.236792,0.104516 -0.0607,0.0694 -0.09105,0.179406 -0.09105,0.329913 0,0.152786 0.02931,0.263827 0.08815,0.333331 0.05842,0.06899 0.134762,0.103687 0.229023,0.103687 0.07572,0 0.138491,-0.02331 0.18935,-0.06971 0.05076,-0.04641 0.08297,-0.117671 0.09644,-0.21421 z m 0.351148,-0.720215 0.192562,0 0,0.444062 0.244146,0 c 0.159311,0 0.281747,0.03097 0.367618,0.09281 0.08618,0.06174 0.128961,0.146881 0.128961,0.255333 0,0.09468 -0.03584,0.176195 -0.107416,0.243421 -0.07168,0.06754 -0.186347,0.101201 -0.344208,0.101201 l -0.481663,0 0,-1.13683 z m 0.192562,0.978242 0.202506,0 c 0.122021,0 0.208928,-0.01502 0.261237,-0.04496 0.05189,-0.02994 0.07779,-0.07676 0.07779,-0.139941 0,-0.04931 -0.01896,-0.09323 -0.0577,-0.131862 -0.03833,-0.03843 -0.123886,-0.0578 -0.255747,-0.0578 l -0.228091,0 0,0.374558 z m 0.951828,-0.978242 0.192562,0 0,0.491193 c 0.06143,0 0.104516,-0.0117 0.129065,-0.03511 0.02445,-0.02372 0.0606,-0.09209 0.108452,-0.205717 0.03802,-0.08991 0.06878,-0.149057 0.09209,-0.177646 0.02382,-0.02848 0.05086,-0.04786 0.08152,-0.0577 0.03066,-0.01025 0.08007,-0.01502 0.147606,-0.01502 l 0.03874,0 0,0.159311 -0.05366,-0.001 c -0.05044,0 -0.08297,0.0077 -0.09727,0.02268 -0.01492,0.01564 -0.03801,0.06246 -0.06868,0.140252 -0.02921,0.07417 -0.05593,0.125336 -0.08038,0.153821 -0.02413,0.0289 -0.06173,0.0549 -0.112181,0.0782 0.08256,0.02237 0.164076,0.09944 0.244043,0.231302 l 0.210896,0.352287 -0.211932,0 -0.205717,-0.352287 c -0.04205,-0.07054 -0.07893,-0.117256 -0.110006,-0.139527 -0.03139,-0.02268 -0.06909,-0.03366 -0.112595,-0.03366 l 0,0.525479 -0.192562,0 0,-1.13683 z"
   id="path41"
   style="fill:#2b2a29;fill-rule:nonzero" />
  <path
   d="m 26.5154,21.0995 1.2344,0 0,1.56939 -0.209031,0 0,-1.38419 -0.817791,0 0,1.38419 -0.207581,0 0,-1.56939 z m 2.32731,1.20322 0.199191,0.02455 c -0.03139,0.116531 -0.0895,0.206752 -0.174331,0.271078 -0.08515,0.06402 -0.193597,0.09613 -0.325563,0.09613 -0.166251,0 -0.298113,-0.05117 -0.395378,-0.153511 -0.09758,-0.102237 -0.146156,-0.245907 -0.146156,-0.430803 0,-0.191422 0.04931,-0.339857 0.147606,-0.445409 0.09872,-0.105655 0.226226,-0.158586 0.383362,-0.158586 0.151957,0 0.276257,0.0519 0.372279,0.155272 0.09654,0.10348 0.144706,0.249222 0.144706,0.436708 0,0.0117 -3.11e-4,0.0288 -0.001,0.05148 l -0.847727,0 c 0.0069,0.125025 0.04237,0.220736 0.105966,0.286822 0.0636,0.0665 0.142427,0.09975 0.237517,0.09975 0.07054,0 0.130826,-0.01854 0.180857,-0.05583 0.05003,-0.03698 0.0895,-0.09613 0.118707,-0.177646 z m -0.63248,-0.311682 0.634759,0 c -0.0085,-0.0954 -0.03294,-0.167287 -0.07272,-0.214832 -0.06142,-0.07417 -0.141081,-0.111456 -0.238656,-0.111456 -0.08846,0 -0.162937,0.02962 -0.223222,0.08877 -0.06039,0.05925 -0.09364,0.138491 -0.100165,0.237517 z m 1.07395,1.11342 0,-1.5724 0.175367,0 0,0.14771 c 0.04133,-0.0578 0.08805,-0.101305 0.140356,-0.130101 0.05189,-0.0289 0.115081,-0.0435 0.189247,-0.0435 0.09727,0 0.182721,0.02517 0.256887,0.07489 0.07458,0.05003 0.130515,0.120571 0.168116,0.211621 0.03802,0.09095 0.05697,0.190697 0.05697,0.299252 0,0.116221 -0.02082,0.221047 -0.06288,0.314272 -0.04164,0.09312 -0.102237,0.164387 -0.181892,0.214107 -0.07966,0.04931 -0.163351,0.07417 -0.251086,0.07417 -0.06433,0 -0.121711,-0.01357 -0.172777,-0.0406 -0.05117,-0.02704 -0.09281,-0.06132 -0.12575,-0.102651 l 0,0.553239 -0.192562,0 z m 0.174331,-0.997612 c 0,0.14626 0.02952,0.254401 0.08877,0.324527 0.05915,0.06981 0.131137,0.104826 0.215246,0.104826 0.08546,0 0.158897,-0.03615 0.219908,-0.108866 0.06101,-0.0723 0.09177,-0.184482 0.09177,-0.336543 0,-0.145017 -0.02994,-0.253158 -0.0896,-0.325563 -0.05956,-0.07199 -0.130722,-0.108141 -0.213382,-0.108141 -0.08214,0 -0.154857,0.03833 -0.218147,0.115081 -0.06319,0.07676 -0.09457,0.188522 -0.09457,0.334678 z m 1.04578,-0.574784 0.444373,0 c 0.109177,0 0.190386,0.0092 0.243732,0.02704 0.05293,0.01834 0.09861,0.05158 0.136937,0.100165 0.03802,0.04858 0.05739,0.106691 0.05739,0.174642 0,0.05407 -0.01129,0.101615 -0.03397,0.141806 -0.02227,0.04019 -0.05625,0.07417 -0.101201,0.101201 0.05376,0.01792 0.09799,0.05117 0.133415,0.100165 0.03543,0.04889 0.05293,0.106691 0.05293,0.173917 -0.0069,0.10783 -0.04568,0.187797 -0.115496,0.239692 -0.07013,0.05231 -0.171741,0.07821 -0.305053,0.07821 l -0.513049,0 0,-1.13683 z m 0.192976,0.478348 0.205302,0 c 0.08225,0 0.138491,-0.004 0.169152,-0.01274 0.03076,-0.0084 0.05811,-0.026 0.08266,-0.05189 0.02413,-0.026 0.03615,-0.05739 0.03615,-0.09354 0,-0.05998 -0.02123,-0.10203 -0.0636,-0.125336 -0.04237,-0.02382 -0.115081,-0.03553 -0.217732,-0.03553 l -0.211932,0 0,0.319037 z m 0,0.499894 0.253572,0 c 0.109281,0 0.184171,-0.01243 0.224672,-0.03802 0.04091,-0.02517 0.06215,-0.06909 0.06433,-0.130826 0,-0.03656 -0.0117,-0.07013 -0.03543,-0.101201 -0.02341,-0.03108 -0.05407,-0.05076 -0.09167,-0.05884 -0.03802,-0.0084 -0.09871,-0.01243 -0.18241,-0.01243 l -0.233063,0 0,0.341307 z m 0.874762,-0.409983 c 0,-0.210481 0.05842,-0.366478 0.175781,-0.467679 0.09758,-0.08411 0.216696,-0.126475 0.357363,-0.126475 0.156411,0 0.284233,0.05117 0.383259,0.153821 0.09944,0.10234 0.148746,0.243732 0.148746,0.424278 0,0.146467 -0.02196,0.261652 -0.06578,0.345244 -0.04382,0.08411 -0.107727,0.14916 -0.191422,0.195565 -0.08411,0.04641 -0.17547,0.0694 -0.274808,0.0694 -0.159001,0 -0.287548,-0.05076 -0.385848,-0.153096 -0.0983,-0.101926 -0.147296,-0.248807 -0.147296,-0.441058 z m 0.198051,0 c 0,0.145742 0.0318,0.254712 0.0954,0.327013 0.0636,0.07272 0.143567,0.108866 0.239692,0.108866 0.09571,0 0.175367,-0.03646 0.238967,-0.109177 0.06319,-0.07272 0.09499,-0.183861 0.09499,-0.332917 0,-0.140666 -0.0318,-0.247357 -0.09571,-0.319762 -0.06391,-0.0723 -0.143256,-0.108452 -0.238242,-0.108452 -0.09613,0 -0.176092,0.03615 -0.239692,0.108141 -0.0636,0.07199 -0.0954,0.180857 -0.0954,0.326288 z m 1.0984,-0.568259 0.299667,0 0.298942,0.909877 0.331778,-0.909877 0.277293,0 0,1.13683 -0.192562,0 0,-0.915367 -0.336128,0.915367 -0.172466,0 -0.317897,-0.959182 0,0.959182 -0.188625,0 0,-1.13683 z m 2.24403,0.996472 c -0.07158,0.0607 -0.140356,0.10348 -0.206027,0.128651 -0.06619,0.02486 -0.137041,0.03729 -0.21276,0.03729 -0.124922,0 -0.220633,-0.03035 -0.287858,-0.09136 -0.06692,-0.06101 -0.100476,-0.139216 -0.100476,-0.233891 0,-0.05583 0.01233,-0.106691 0.03791,-0.152682 0.02528,-0.04609 0.05853,-0.08297 0.09944,-0.110731 0.04133,-0.02776 0.08732,-0.049 0.138802,-0.06319 0.0377,-0.0099 0.09467,-0.01978 0.171016,-0.0289 0.155686,-0.01864 0.270456,-0.0406 0.343897,-0.0665 7.25e-4,-0.02631 0.001,-0.04309 0.001,-0.05003 0,-0.07862 -0.01823,-0.134141 -0.05479,-0.165941 -0.04889,-0.04382 -0.122332,-0.06536 -0.219183,-0.06536 -0.09064,0 -0.15755,0.01564 -0.200952,0.04744 -0.04319,0.0318 -0.07499,0.08805 -0.09581,0.168841 l -0.188107,-0.026 c 0.01709,-0.08038 0.04527,-0.145742 0.08432,-0.195048 0.03916,-0.04972 0.09613,-0.08805 0.170291,-0.11477 0.07417,-0.02672 0.160036,-0.04019 0.258026,-0.04019 0.09716,0 0.175781,0.0117 0.236377,0.03439 0.0607,0.023 0.105241,0.05148 0.134141,0.08618 0.02848,0.0347 0.04827,0.07821 0.05987,0.13124 0.0062,0.03284 0.0095,0.09198 0.0095,0.177542 l 0,0.256887 c 0,0.179406 0.004,0.292727 0.01243,0.339857 0.0081,0.04744 0.02445,0.09312 0.04858,0.136627 l -0.201263,0 c -0.01978,-0.03988 -0.03294,-0.0866 -0.03843,-0.140356 z m -0.01606,-0.430389 c -0.07013,0.0288 -0.175056,0.05293 -0.314583,0.07303 -0.07934,0.01139 -0.135591,0.02413 -0.168116,0.03843 -0.03294,0.01419 -0.05853,0.03501 -0.07603,0.06277 -0.01792,0.02745 -0.02704,0.0578 -0.02704,0.09136 0,0.05158 0.01979,0.09436 0.05842,0.128651 0.03874,0.03397 0.09582,0.05117 0.170705,0.05117 0.07417,0 0.140356,-0.01606 0.198051,-0.04858 0.0577,-0.03253 0.100476,-0.07717 0.127511,-0.133415 0.02082,-0.0435 0.03107,-0.107727 0.03107,-0.192562 l 0,-0.07085 z m 0.493679,-0.566083 0.192562,0 0,0.8672 0.53418,-0.8672 0.207581,0 0,1.13683 -0.192562,0 0,-0.861607 -0.53418,0.861607 -0.207581,0 0,-1.13683 z m 0.669045,-0.430389 0.131551,0 c -0.01057,0.08918 -0.04309,0.157861 -0.09789,0.205302 -0.05448,0.04796 -0.1272,0.07199 -0.217836,0.07199 -0.09136,0 -0.164387,-0.02372 -0.218872,-0.07127 -0.05479,-0.04744 -0.08732,-0.116117 -0.09789,-0.206027 l 0.131551,0 c 0.0098,0.04858 0.02994,0.08473 0.05956,0.108555 0.02952,0.02403 0.0694,0.03574 0.119121,0.03574 0.05811,0 0.101512,-0.01129 0.131137,-0.0347 0.02962,-0.023 0.04972,-0.05956 0.05956,-0.109591 z m 1.29759,1.1506 0.189247,0.02486 c -0.02041,0.130515 -0.07344,0.232752 -0.158897,0.306607 -0.08515,0.07386 -0.189972,0.110731 -0.314272,0.110731 -0.155272,0 -0.280607,-0.05076 -0.374868,-0.152371 -0.09468,-0.101615 -0.14222,-0.247357 -0.14222,-0.437433 0,-0.122746 0.02051,-0.230162 0.06111,-0.322248 0.04091,-0.09209 0.102651,-0.161176 0.185932,-0.207167 0.08297,-0.04609 0.173606,-0.06909 0.271181,-0.06909 0.123471,0 0.224672,0.03139 0.302878,0.09395 0.07862,0.06246 0.128961,0.150921 0.151335,0.266002 l -0.187486,0.0288 c -0.01792,-0.07634 -0.04931,-0.133726 -0.09467,-0.172466 -0.04527,-0.03833 -0.100062,-0.0577 -0.164387,-0.0577 -0.09726,0 -0.176195,0.0347 -0.236792,0.104516 -0.0607,0.0694 -0.09105,0.179406 -0.09105,0.329913 0,0.152786 0.02931,0.263827 0.08815,0.333331 0.05842,0.06899 0.134762,0.103687 0.229023,0.103687 0.07572,0 0.138491,-0.02331 0.18935,-0.06971 0.05076,-0.04641 0.08297,-0.117671 0.09644,-0.21421 z m 0.351148,-0.720215 0.192562,0 0,0.444062 0.244146,0 c 0.159311,0 0.281747,0.03097 0.367618,0.09281 0.08618,0.06174 0.128961,0.146881 0.128961,0.255333 0,0.09468 -0.03584,0.176195 -0.107416,0.243421 -0.07168,0.06754 -0.186347,0.101201 -0.344208,0.101201 l -0.481663,0 0,-1.13683 z m 0.192562,0.978242 0.202506,0 c 0.122021,0 0.208928,-0.01502 0.261237,-0.04496 0.0519,-0.02994 0.07779,-0.07675 0.07779,-0.139941 0,-0.04931 -0.01896,-0.09323 -0.0577,-0.131862 -0.03833,-0.03843 -0.123886,-0.0578 -0.255747,-0.0578 l -0.228091,0 0,0.374558 z m 0.951828,-0.978242 0.192562,0 0,0.491193 c 0.06142,0 0.104516,-0.0117 0.129065,-0.03511 0.02445,-0.02372 0.0606,-0.09209 0.108452,-0.205717 0.03802,-0.08991 0.06878,-0.149057 0.09209,-0.177646 0.02382,-0.02848 0.05086,-0.04786 0.08152,-0.0577 0.03066,-0.01026 0.08007,-0.01502 0.147606,-0.01502 l 0.03874,0 0,0.159311 -0.05366,-0.001 c -0.05044,0 -0.08297,0.0077 -0.09726,0.02269 -0.01492,0.01564 -0.03802,0.06246 -0.06868,0.140252 -0.02921,0.07417 -0.05593,0.125336 -0.08038,0.153821 -0.02414,0.0289 -0.06174,0.0549 -0.112181,0.07821 0.08256,0.02237 0.164076,0.09944 0.244043,0.231302 l 0.210896,0.352287 -0.211932,0 -0.205717,-0.352287 c -0.04205,-0.07054 -0.07893,-0.117256 -0.110006,-0.139527 -0.03139,-0.02269 -0.06909,-0.03367 -0.112595,-0.03367 l 0,0.525479 -0.192562,0 0,-1.13683 z"
   id="path43"
   style="fill:#2b2a29;fill-rule:nonzero" />
  <path
   d="m 12.5209,29.3153 0.207581,0 0,0.687276 c 0.09499,0 0.161487,-0.01823 0.200227,-0.05511 0.03833,-0.03698 0.08774,-0.125025 0.147606,-0.264966 0.0435,-0.102651 0.07935,-0.175367 0.10783,-0.217836 0.02807,-0.04237 0.06826,-0.0781 0.120157,-0.107002 0.05231,-0.0289 0.109695,-0.0435 0.172466,-0.0435 0.08007,0 0.122125,7.25e-4 0.126475,0.0022 l 0,0.179821 c -0.0074,0 -0.02123,-4.14e-4 -0.04205,-0.0011 -0.02258,-7.25e-4 -0.03646,-0.001 -0.04164,-0.001 -0.0665,0 -0.115496,0.01606 -0.147606,0.04817 -0.03284,0.03221 -0.07054,0.10089 -0.112595,0.205717 -0.05262,0.13269 -0.09716,0.216386 -0.133726,0.251086 -0.03646,0.03439 -0.07997,0.06215 -0.130412,0.08297 0.101201,0.02776 0.200952,0.121296 0.299667,0.280193 l 0.323387,0.522578 -0.258026,0 -0.262377,-0.426039 c -0.07199,-0.117671 -0.132587,-0.198466 -0.180857,-0.242696 -0.04858,-0.04382 -0.111456,-0.06577 -0.188522,-0.06577 l 0,0.73451 -0.207581,0 0,-1.56939 z m 1.17733,1.00082 c 0,-0.210481 0.05842,-0.366478 0.175781,-0.467679 0.09758,-0.08411 0.216696,-0.126475 0.357363,-0.126475 0.156411,0 0.284233,0.05117 0.383259,0.153821 0.09944,0.10234 0.148746,0.243732 0.148746,0.424278 0,0.146467 -0.02196,0.261652 -0.06578,0.345244 -0.04382,0.08411 -0.107727,0.14916 -0.191422,0.195565 -0.08411,0.04641 -0.17547,0.0694 -0.274807,0.0694 -0.159001,0 -0.287548,-0.05076 -0.385848,-0.153096 -0.0983,-0.101926 -0.147296,-0.248807 -0.147296,-0.441058 z m 0.198051,0 c 0,0.145742 0.0318,0.254712 0.0954,0.327013 0.0636,0.07272 0.143567,0.108866 0.239692,0.108866 0.09571,0 0.175367,-0.03646 0.238967,-0.109177 0.06319,-0.07272 0.09499,-0.183861 0.09499,-0.332917 0,-0.140666 -0.0318,-0.247357 -0.09571,-0.319762 -0.06391,-0.0723 -0.143256,-0.108452 -0.238242,-0.108452 -0.09612,0 -0.176092,0.03615 -0.239692,0.108141 -0.0636,0.07199 -0.0954,0.180857 -0.0954,0.326288 z m 1.09405,-0.568259 0.192976,0 0,0.473273 0.53418,0 0,-0.473273 0.192562,0 0,1.13683 -0.192562,0 0,-0.504244 -0.53418,0 0,0.504244 -0.192976,0 0,-1.13683 z m 1.95162,0.720215 0.189247,0.02486 c -0.02041,0.130515 -0.07344,0.232752 -0.158897,0.306607 -0.08515,0.07386 -0.189972,0.110731 -0.314272,0.110731 -0.155272,0 -0.280607,-0.05076 -0.374868,-0.152371 -0.09467,-0.101615 -0.14222,-0.247357 -0.14222,-0.437433 0,-0.122746 0.02051,-0.230162 0.06111,-0.322248 0.04092,-0.09209 0.102651,-0.161176 0.185932,-0.207167 0.08297,-0.0461 0.173606,-0.06909 0.271181,-0.06909 0.123471,0 0.224672,0.03139 0.302878,0.09395 0.07862,0.06246 0.128961,0.150921 0.151335,0.266002 l -0.187486,0.0288 c -0.01792,-0.07634 -0.04931,-0.133726 -0.09468,-0.172466 -0.04527,-0.03833 -0.100062,-0.0577 -0.164387,-0.0577 -0.09727,0 -0.176195,0.0347 -0.236792,0.104516 -0.0607,0.0694 -0.09105,0.179406 -0.09105,0.329913 0,0.152786 0.02931,0.263827 0.08815,0.333331 0.05842,0.06899 0.134762,0.103687 0.229023,0.103687 0.07572,0 0.138491,-0.02331 0.18935,-0.06971 0.05076,-0.04641 0.08297,-0.117671 0.09644,-0.21421 z m 0.250361,-0.720215 0.924068,0 0,0.159311 -0.366167,0 0,0.977517 -0.191836,0 0,-0.977517 -0.366064,0 0,-0.159311 z m 2.0031,0 0,1.13683 -0.191836,0 0,-0.443233 -0.111041,0 c -0.06795,0 -0.118396,0.0088 -0.151646,0.02631 -0.03325,0.01751 -0.08152,0.07386 -0.14512,0.168427 l -0.168012,0.248497 -0.238656,0 0.207581,-0.306193 c 0.0636,-0.09354 0.126786,-0.146156 0.189661,-0.158275 -0.110006,-0.01533 -0.191526,-0.0548 -0.244871,-0.119121 -0.05293,-0.06391 -0.07966,-0.138077 -0.07966,-0.221358 0,-0.09871 0.0347,-0.178371 0.104516,-0.239796 0.0694,-0.06132 0.170291,-0.09209 0.302153,-0.09209 l 0.526929,0 z m -0.191836,0.159311 -0.274082,0 c -0.114667,0 -0.188833,0.01792 -0.222083,0.05376 -0.03294,0.03543 -0.04972,0.07748 -0.04972,0.125025 0,0.06795 0.02445,0.117567 0.07344,0.149367 0.049,0.0318 0.135176,0.04786 0.259476,0.04786 l 0.212967,0 0,-0.376008 z m 0.484874,-0.159311 0.192976,0 0,0.473273 0.53418,0 0,-0.473273 0.192562,0 0,1.13683 -0.192562,0 0,-0.504244 -0.53418,0 0,0.504244 -0.192976,0 0,-1.13683 z m 1.10575,0 0.924068,0 0,0.159311 -0.366167,0 0,0.977517 -0.191836,0 0,-0.977517 -0.366064,0 0,-0.159311 z m 1.10824,0 0.192562,0 0,0.8672 0.53418,-0.8672 0.207581,0 0,1.13683 -0.192562,0 0,-0.861607 -0.53418,0.861607 -0.207581,0 0,-1.13683 z m 1.2256,0 0.192976,0 0,0.473273 0.53418,0 0,-0.473273 0.192562,0 0,1.13683 -0.192562,0 0,-0.504244 -0.53418,0 0,0.504244 -0.192976,0 0,-1.13683 z m 1.21058,-0.210792 0,-0.221772 0.192976,0 0,0.221772 -0.192976,0 z m 0,1.34762 0,-1.13683 0.192976,0 0,1.13683 -0.192976,0 z m 0.487049,-1.13683 0.444373,0 c 0.109177,0 0.190386,0.0092 0.243732,0.02704 0.05293,0.01834 0.09861,0.05158 0.136937,0.100165 0.03802,0.04858 0.05739,0.106691 0.05739,0.174642 0,0.05407 -0.01129,0.101615 -0.03397,0.141806 -0.02227,0.04019 -0.05625,0.07417 -0.101201,0.101201 0.05376,0.01792 0.09799,0.05117 0.133415,0.100165 0.03543,0.04889 0.05293,0.106691 0.05293,0.173917 -0.0069,0.10783 -0.04568,0.187797 -0.115496,0.239692 -0.07013,0.05231 -0.171741,0.07821 -0.305053,0.07821 l -0.513049,0 0,-1.13683 z m 0.192976,0.478348 0.205302,0 c 0.08225,0 0.138491,-0.004 0.169152,-0.01274 0.03076,-0.0084 0.05811,-0.026 0.08266,-0.0519 0.02413,-0.026 0.03615,-0.05739 0.03615,-0.09354 0,-0.05997 -0.02123,-0.10203 -0.0636,-0.125336 -0.04237,-0.02382 -0.115081,-0.03553 -0.217732,-0.03553 l -0.211932,0 0,0.319037 z m 0,0.499894 0.253572,0 c 0.109281,0 0.184171,-0.01243 0.224672,-0.03802 0.04091,-0.02517 0.06215,-0.06909 0.06433,-0.130826 0,-0.03656 -0.0117,-0.07013 -0.03543,-0.101201 -0.02341,-0.03108 -0.05407,-0.05076 -0.09167,-0.05883 -0.03802,-0.0084 -0.09871,-0.01243 -0.18241,-0.01243 l -0.233063,0 0,0.341307 z m 0.970059,-0.978242 0.192562,0 0,0.491193 c 0.06142,0 0.104516,-0.0117 0.129065,-0.03512 0.02445,-0.02372 0.0606,-0.09209 0.108452,-0.205717 0.03802,-0.08991 0.06878,-0.149057 0.09209,-0.177646 0.02382,-0.02848 0.05086,-0.04786 0.08152,-0.0577 0.03066,-0.01026 0.08007,-0.01502 0.147606,-0.01502 l 0.03874,0 0,0.159311 -0.05366,-0.001 c -0.05045,0 -0.08297,0.0077 -0.09727,0.02268 -0.01492,0.01564 -0.03802,0.06246 -0.06868,0.140252 -0.02921,0.07417 -0.05594,0.125336 -0.08038,0.153821 -0.02413,0.0289 -0.06173,0.0549 -0.112181,0.0782 0.08256,0.02237 0.164076,0.09944 0.244043,0.231302 l 0.210896,0.352287 -0.211932,0 -0.205717,-0.352287 c -0.04205,-0.07054 -0.07893,-0.117256 -0.110006,-0.139527 -0.03139,-0.02268 -0.06909,-0.03366 -0.112595,-0.03366 l 0,0.525479 -0.192562,0 0,-1.13683 z m 1.75035,0.996472 c -0.07158,0.0607 -0.140356,0.10348 -0.206027,0.128651 -0.06619,0.02486 -0.137041,0.03729 -0.21276,0.03729 -0.124922,0 -0.220633,-0.03035 -0.287858,-0.09136 -0.06691,-0.06101 -0.100476,-0.139216 -0.100476,-0.233891 0,-0.05583 0.01233,-0.106691 0.03791,-0.152682 0.02527,-0.04609 0.05852,-0.08297 0.09944,-0.110731 0.04133,-0.02776 0.08732,-0.049 0.138802,-0.06319 0.0377,-0.0099 0.09467,-0.01978 0.171016,-0.0289 0.155686,-0.01864 0.270456,-0.0406 0.343897,-0.0665 7.25e-4,-0.02631 0.001,-0.04309 0.001,-0.05003 0,-0.07862 -0.01823,-0.134141 -0.0548,-0.165941 -0.04889,-0.04382 -0.122332,-0.06536 -0.219183,-0.06536 -0.09064,0 -0.15755,0.01564 -0.200952,0.04744 -0.04319,0.0318 -0.075,0.08805 -0.09582,0.168841 l -0.188107,-0.026 c 0.01709,-0.08038 0.04527,-0.145742 0.08432,-0.195048 0.03916,-0.04972 0.09613,-0.08805 0.170291,-0.11477 0.07417,-0.02673 0.160036,-0.04019 0.258026,-0.04019 0.09716,0 0.175781,0.0117 0.236377,0.03439 0.0607,0.023 0.105241,0.05148 0.134141,0.08618 0.02848,0.0347 0.04827,0.07821 0.05987,0.13124 0.0062,0.03284 0.0095,0.09198 0.0095,0.177542 l 0,0.256887 c 0,0.179406 0.004,0.292727 0.01243,0.339857 0.0081,0.04744 0.02445,0.09312 0.04858,0.136627 l -0.201263,0 c -0.01978,-0.03988 -0.03294,-0.0866 -0.03843,-0.140356 z m -0.01606,-0.430389 c -0.07013,0.0288 -0.175056,0.05293 -0.314583,0.07303 -0.07935,0.01139 -0.135591,0.02414 -0.168116,0.03843 -0.03294,0.01419 -0.05852,0.03501 -0.07603,0.06277 -0.01792,0.02745 -0.02704,0.0578 -0.02704,0.09136 0,0.05158 0.01978,0.09436 0.05842,0.128651 0.03874,0.03398 0.09582,0.05117 0.170705,0.05117 0.07417,0 0.140356,-0.01605 0.198051,-0.04858 0.0577,-0.03252 0.100476,-0.07717 0.127511,-0.133415 0.02082,-0.0435 0.03108,-0.107727 0.03108,-0.192562 l 0,-0.07085 z"
   id="path45"
   style="fill:#2b2a29;fill-rule:nonzero" />
  <path
   d="m 33.9199,29.8019 1.0147,0 0,0.185207 -0.807122,0 0,1.38419 -0.207581,0 0,-1.56939 z m 0.940848,1.00082 c 0,-0.210481 0.05842,-0.366478 0.175781,-0.467679 0.09758,-0.08411 0.216696,-0.126475 0.357363,-0.126475 0.156411,0 0.284233,0.05117 0.383259,0.153821 0.09944,0.10234 0.148746,0.243732 0.148746,0.424278 0,0.146467 -0.02196,0.261652 -0.06578,0.345244 -0.04382,0.08411 -0.107727,0.14916 -0.191422,0.195565 -0.08411,0.04641 -0.17547,0.0694 -0.274808,0.0694 -0.159001,0 -0.287548,-0.05076 -0.385848,-0.153096 -0.0983,-0.101926 -0.147296,-0.248807 -0.147296,-0.441058 z m 0.198051,0 c 0,0.145742 0.0318,0.254712 0.0954,0.327013 0.0636,0.07272 0.143567,0.108866 0.239692,0.108866 0.09571,0 0.175367,-0.03646 0.238967,-0.109177 0.06319,-0.07272 0.09499,-0.183861 0.09499,-0.332917 0,-0.140666 -0.0318,-0.247357 -0.09571,-0.319762 -0.06391,-0.0723 -0.143256,-0.108452 -0.238242,-0.108452 -0.09613,0 -0.176092,0.03615 -0.239692,0.108141 -0.0636,0.07199 -0.0954,0.180857 -0.0954,0.326288 z m 1.09332,1.00414 0,-1.5724 0.175367,0 0,0.14771 c 0.04133,-0.0578 0.08805,-0.101305 0.140356,-0.130101 0.0519,-0.0289 0.115081,-0.0435 0.189247,-0.0435 0.09727,0 0.182721,0.02517 0.256887,0.07489 0.07458,0.05003 0.130515,0.120571 0.168116,0.211621 0.03801,0.09095 0.05697,0.190697 0.05697,0.299252 0,0.116221 -0.02082,0.221047 -0.06287,0.314272 -0.04164,0.09312 -0.102237,0.164387 -0.181892,0.214107 -0.07966,0.04931 -0.163351,0.07416 -0.251086,0.07416 -0.06433,0 -0.121711,-0.01357 -0.172777,-0.0406 -0.05117,-0.02704 -0.09281,-0.06132 -0.12575,-0.102651 l 0,0.553239 -0.192562,0 z m 0.174331,-0.997612 c 0,0.14626 0.02952,0.254401 0.08877,0.324527 0.05915,0.06981 0.131137,0.104826 0.215246,0.104826 0.08546,0 0.158897,-0.03615 0.219908,-0.108866 0.06101,-0.0723 0.09177,-0.184482 0.09177,-0.336543 0,-0.145017 -0.02994,-0.253158 -0.0896,-0.325563 -0.05956,-0.07199 -0.130722,-0.108141 -0.213382,-0.108141 -0.08214,0 -0.154857,0.03833 -0.218147,0.115081 -0.06319,0.07676 -0.09457,0.188522 -0.09457,0.334678 z m 1.06411,-0.574784 0.895168,0 0,1.13683 -0.191836,0 0,-0.977517 -0.510459,0 0,0.566394 c 0,0.131965 -0.0044,0.219286 -0.01274,0.261341 -0.0088,0.04195 -0.03221,0.07893 -0.07095,0.110316 -0.03833,0.03139 -0.09426,0.04713 -0.166976,0.04713 -0.04496,0 -0.09685,-0.0029 -0.155272,-0.0088 l 0,-0.160347 0.08473,0 c 0.03988,0 0.06837,-0.0045 0.08556,-0.01243 0.01719,-0.0084 0.02849,-0.02124 0.03429,-0.03916 0.0059,-0.01782 0.0085,-0.07593 0.0085,-0.174642 l 0,-0.749115 z m 1.18603,-0.210792 0,-0.221772 0.192976,0 0,0.221772 -0.192976,0 z m 0,1.34762 0,-1.13683 0.192976,0 0,1.13683 -0.192976,0 z m 0.487049,-1.13683 0.444373,0 c 0.109177,0 0.190386,0.0092 0.243732,0.02703 0.05293,0.01834 0.09861,0.05159 0.136937,0.100165 0.03802,0.04858 0.05739,0.106691 0.05739,0.174642 0,0.05407 -0.01129,0.101615 -0.03398,0.141806 -0.02227,0.04019 -0.05625,0.07417 -0.101201,0.101201 0.05376,0.01792 0.09799,0.05117 0.133415,0.100165 0.03543,0.04889 0.05293,0.106691 0.05293,0.173917 -0.0069,0.10783 -0.04568,0.187797 -0.115496,0.239692 -0.07013,0.05231 -0.171741,0.07821 -0.305053,0.07821 l -0.513049,0 0,-1.13683 z m 0.192976,0.478348 0.205302,0 c 0.08225,0 0.138491,-0.004 0.169152,-0.01274 0.03076,-0.0084 0.05811,-0.026 0.08266,-0.05189 0.02414,-0.026 0.03615,-0.05739 0.03615,-0.09354 0,-0.05998 -0.02123,-0.10203 -0.0636,-0.125336 -0.04237,-0.02382 -0.115081,-0.03553 -0.217732,-0.03553 l -0.211932,0 0,0.319037 z m 0,0.499894 0.253572,0 c 0.109281,0 0.184171,-0.01243 0.224672,-0.03801 0.04091,-0.02517 0.06215,-0.06909 0.06432,-0.130826 0,-0.03657 -0.0117,-0.07013 -0.03542,-0.101201 -0.02341,-0.03107 -0.05407,-0.05076 -0.09167,-0.05883 -0.03801,-0.0084 -0.09871,-0.01243 -0.18241,-0.01243 l -0.233063,0 0,0.341307 z m 0.970059,-0.978242 0.192562,0 0,0.491193 c 0.06142,0 0.104516,-0.0117 0.129065,-0.03512 0.02445,-0.02372 0.0606,-0.09209 0.108452,-0.205717 0.03802,-0.08991 0.06878,-0.149057 0.09209,-0.177646 0.02382,-0.02848 0.05086,-0.04785 0.08152,-0.0577 0.03066,-0.01026 0.08007,-0.01502 0.147606,-0.01502 l 0.03874,0 0,0.159311 -0.05366,-0.001 c -0.05044,0 -0.08297,0.0077 -0.09727,0.02268 -0.01492,0.01564 -0.03801,0.06246 -0.06868,0.140252 -0.02921,0.07417 -0.05593,0.125336 -0.08038,0.153821 -0.02414,0.0289 -0.06174,0.0549 -0.112181,0.07821 0.08256,0.02237 0.164076,0.09944 0.244043,0.231302 l 0.210895,0.352287 -0.211931,0 -0.205717,-0.352287 c -0.04206,-0.07054 -0.07893,-0.117256 -0.110006,-0.139527 -0.03139,-0.02268 -0.06909,-0.03366 -0.112595,-0.03366 l 0,0.525479 -0.192562,0 0,-1.13683 z m 1.75035,0.996472 c -0.07158,0.0607 -0.140356,0.10348 -0.206027,0.128651 -0.06619,0.02486 -0.137041,0.03729 -0.21276,0.03729 -0.124922,0 -0.220633,-0.03035 -0.287858,-0.09136 -0.06692,-0.06101 -0.100476,-0.139216 -0.100476,-0.233891 0,-0.05583 0.01233,-0.106691 0.03791,-0.152682 0.02528,-0.04609 0.05853,-0.08297 0.09944,-0.110731 0.04133,-0.02776 0.08732,-0.04899 0.138802,-0.06319 0.0377,-0.0099 0.09467,-0.01978 0.171016,-0.0289 0.155686,-0.01865 0.270456,-0.04061 0.343897,-0.0665 7.25e-4,-0.02631 0.001,-0.04309 0.001,-0.05003 0,-0.07862 -0.01823,-0.134141 -0.05479,-0.165941 -0.04889,-0.04382 -0.122332,-0.06536 -0.219183,-0.06536 -0.09064,0 -0.15755,0.01564 -0.200952,0.04744 -0.04319,0.0318 -0.07499,0.08805 -0.09581,0.168841 l -0.188107,-0.026 c 0.01709,-0.08038 0.04527,-0.145742 0.08432,-0.195048 0.03916,-0.04972 0.09613,-0.08805 0.170291,-0.11477 0.07417,-0.02672 0.160036,-0.04019 0.258026,-0.04019 0.09716,0 0.175781,0.0117 0.236377,0.03439 0.0607,0.023 0.105241,0.05148 0.134141,0.08618 0.02848,0.0347 0.04827,0.07821 0.05987,0.13124 0.0062,0.03284 0.0095,0.09198 0.0095,0.177542 l 0,0.256887 c 0,0.179406 0.004,0.292727 0.01243,0.339857 0.0081,0.04744 0.02445,0.09312 0.04858,0.136627 l -0.201263,0 c -0.01978,-0.03988 -0.03294,-0.0866 -0.03843,-0.140356 z m -0.01606,-0.430389 c -0.07013,0.0288 -0.175056,0.05293 -0.314583,0.07303 -0.07934,0.01139 -0.135591,0.02414 -0.168116,0.03843 -0.03294,0.01419 -0.05853,0.03501 -0.07603,0.06277 -0.01792,0.02745 -0.02704,0.0578 -0.02704,0.09136 0,0.05158 0.01979,0.09436 0.05842,0.128651 0.03874,0.03398 0.09582,0.05117 0.170705,0.05117 0.07417,0 0.140356,-0.01606 0.198051,-0.04858 0.0577,-0.03252 0.100476,-0.07717 0.127511,-0.133415 0.02082,-0.0435 0.03107,-0.107727 0.03107,-0.192562 l 0,-0.07085 z"
   id="path47"
   style="fill:#2b2a29;fill-rule:nonzero" />
  <path
   d="m 48.7754,45.5756 0.207581,0 0,1.38408 0.521439,0 0,-1.38408 0.207478,0 0,1.38408 0.521439,0 0,-1.38408 0.207581,0 0,1.56939 -1.66552,0 0,-1.56939 z m 2.72342,1.42904 c -0.07158,0.0607 -0.140356,0.10348 -0.206027,0.128651 -0.06619,0.02486 -0.137041,0.03729 -0.21276,0.03729 -0.124922,0 -0.220633,-0.03035 -0.287858,-0.09136 -0.06692,-0.06101 -0.100476,-0.139216 -0.100476,-0.233891 0,-0.05583 0.01233,-0.106691 0.03791,-0.152682 0.02528,-0.04609 0.05852,-0.08297 0.09944,-0.110731 0.04133,-0.02776 0.08732,-0.04899 0.138802,-0.06319 0.0377,-0.0099 0.09468,-0.01978 0.171016,-0.0289 0.155686,-0.01864 0.270456,-0.0406 0.343897,-0.0665 7.25e-4,-0.02631 0.001,-0.04309 0.001,-0.05003 0,-0.07862 -0.01823,-0.134141 -0.05479,-0.165941 -0.04889,-0.04382 -0.122332,-0.06536 -0.219183,-0.06536 -0.09064,0 -0.15755,0.01564 -0.200952,0.04744 -0.04319,0.0318 -0.075,0.08805 -0.09582,0.168841 l -0.188107,-0.026 c 0.01709,-0.08038 0.04527,-0.145742 0.08432,-0.195048 0.03916,-0.04972 0.09613,-0.08805 0.170291,-0.11477 0.07417,-0.02672 0.160036,-0.04019 0.258026,-0.04019 0.09716,0 0.175781,0.0117 0.236377,0.03439 0.0607,0.023 0.105241,0.05148 0.134141,0.08618 0.02849,0.0347 0.04827,0.0782 0.05987,0.13124 0.0062,0.03284 0.0095,0.09198 0.0095,0.177542 l 0,0.256887 c 0,0.179406 0.004,0.292727 0.01243,0.339857 0.0081,0.04744 0.02445,0.09312 0.04858,0.136627 l -0.201263,0 c -0.01978,-0.03988 -0.03294,-0.0866 -0.03843,-0.140356 z m -0.01606,-0.430389 c -0.07013,0.0288 -0.175056,0.05293 -0.314583,0.07303 -0.07935,0.0114 -0.135591,0.02413 -0.168116,0.03843 -0.03294,0.01419 -0.05852,0.03501 -0.07603,0.06277 -0.01792,0.02745 -0.02704,0.0578 -0.02704,0.09136 0,0.05158 0.01978,0.09436 0.05842,0.128651 0.03874,0.03397 0.09582,0.05117 0.170705,0.05117 0.07417,0 0.140356,-0.01606 0.198051,-0.04858 0.0577,-0.03252 0.100476,-0.07717 0.127511,-0.133415 0.02082,-0.0435 0.03108,-0.107727 0.03108,-0.192562 l 0,-0.07085 z m 0.365028,0.570745 0.415473,-0.59084 -0.384398,-0.545988 0.240831,0 0.174642,0.266417 c 0.03252,0.05076 0.05925,0.09322 0.07893,0.127511 0.03139,-0.04713 0.06029,-0.08877 0.08701,-0.125336 l 0.191422,-0.268592 0.230266,0 -0.392892,0.535319 0.422827,0.601509 -0.236481,0 -0.233477,-0.353323 -0.06205,-0.0954 -0.298631,0.448723 -0.233477,0 z m 1.09633,-1.13683 0.924068,0 0,0.159311 -0.366167,0 0,0.977517 -0.191836,0 0,-0.977517 -0.366064,0 0,-0.159311 z m 1.82555,0.996472 c -0.07158,0.0607 -0.140356,0.10348 -0.206027,0.128651 -0.06619,0.02486 -0.137041,0.03729 -0.21276,0.03729 -0.124922,0 -0.220633,-0.03035 -0.287858,-0.09136 -0.06692,-0.06101 -0.100476,-0.139216 -0.100476,-0.233891 0,-0.05583 0.01233,-0.106691 0.03791,-0.152682 0.02527,-0.04609 0.05852,-0.08297 0.09944,-0.110731 0.04133,-0.02776 0.08732,-0.04899 0.138802,-0.06319 0.0377,-0.0099 0.09467,-0.01978 0.171016,-0.0289 0.155686,-0.01864 0.270456,-0.0406 0.343897,-0.0665 7.25e-4,-0.02631 0.001,-0.04309 0.001,-0.05003 0,-0.07862 -0.01823,-0.134141 -0.0548,-0.165941 -0.04889,-0.04381 -0.122332,-0.06536 -0.219183,-0.06536 -0.09063,0 -0.15755,0.01564 -0.200952,0.04744 -0.04319,0.0318 -0.07499,0.08805 -0.09581,0.168841 l -0.188107,-0.026 c 0.01709,-0.08038 0.04527,-0.145742 0.08432,-0.195048 0.03915,-0.04972 0.09612,-0.08805 0.170291,-0.11477 0.07417,-0.02672 0.160036,-0.04019 0.258026,-0.04019 0.09716,0 0.175781,0.0117 0.236377,0.03439 0.0607,0.023 0.105241,0.05148 0.134141,0.08618 0.02848,0.0347 0.04827,0.07821 0.05987,0.13124 0.0062,0.03284 0.0095,0.09198 0.0095,0.177542 l 0,0.256887 c 0,0.179406 0.004,0.292727 0.01243,0.339857 0.0081,0.04744 0.02445,0.09312 0.04858,0.136627 l -0.201263,0 c -0.01978,-0.03988 -0.03294,-0.0866 -0.03843,-0.140356 z m -0.01606,-0.430389 c -0.07013,0.0288 -0.175056,0.05293 -0.314583,0.07303 -0.07934,0.0114 -0.135591,0.02414 -0.168116,0.03843 -0.03294,0.01419 -0.05852,0.03501 -0.07603,0.06277 -0.01792,0.02745 -0.02703,0.0578 -0.02703,0.09136 0,0.05158 0.01978,0.09436 0.05842,0.128651 0.03874,0.03397 0.09581,0.05117 0.170705,0.05117 0.07417,0 0.140356,-0.01606 0.198051,-0.04858 0.0577,-0.03252 0.100476,-0.07717 0.127511,-0.133415 0.02082,-0.04351 0.03108,-0.107727 0.03108,-0.192562 l 0,-0.07085 z m 0.493679,1.00631 0,-1.5724 0.175367,0 0,0.14771 c 0.04133,-0.0578 0.08805,-0.101305 0.140356,-0.130101 0.0519,-0.0289 0.115081,-0.0435 0.189247,-0.0435 0.09727,0 0.182721,0.02517 0.256887,0.07489 0.07458,0.05003 0.130515,0.120571 0.168116,0.211621 0.03801,0.09095 0.05697,0.190697 0.05697,0.299252 0,0.116221 -0.02082,0.221047 -0.06287,0.314272 -0.04164,0.09312 -0.102237,0.164387 -0.181892,0.214107 -0.07966,0.0493 -0.163351,0.07417 -0.251086,0.07417 -0.06433,0 -0.121711,-0.01357 -0.172777,-0.0406 -0.05117,-0.02704 -0.09281,-0.06132 -0.12575,-0.102651 l 0,0.553239 -0.192562,0 z m 0.174331,-0.997612 c 0,0.14626 0.02952,0.254401 0.08877,0.324527 0.05915,0.06981 0.131137,0.104826 0.215246,0.104826 0.08546,0 0.158897,-0.03615 0.219908,-0.108866 0.06101,-0.0723 0.09177,-0.184482 0.09177,-0.336543 0,-0.145017 -0.02994,-0.253158 -0.0896,-0.325563 -0.05956,-0.07199 -0.130722,-0.108141 -0.213382,-0.108141 -0.08214,0 -0.154857,0.03833 -0.218147,0.115081 -0.06319,0.07675 -0.09457,0.188522 -0.09457,0.334678 z m 1.78681,0.145431 0.189247,0.02486 c -0.02041,0.130515 -0.07344,0.232752 -0.158897,0.306607 -0.08515,0.07385 -0.189972,0.110731 -0.314272,0.110731 -0.155272,0 -0.280607,-0.05076 -0.374868,-0.152371 -0.09468,-0.101615 -0.14222,-0.247357 -0.14222,-0.437433 0,-0.122746 0.02051,-0.230162 0.06111,-0.322248 0.04092,-0.09209 0.102651,-0.161176 0.185932,-0.207167 0.08297,-0.0461 0.173606,-0.06909 0.271181,-0.06909 0.123471,0 0.224672,0.03139 0.302878,0.09395 0.07862,0.06246 0.128961,0.150921 0.151335,0.266002 l -0.187486,0.0288 c -0.01792,-0.07634 -0.0493,-0.133726 -0.09467,-0.172466 -0.04527,-0.03833 -0.100062,-0.0577 -0.164387,-0.0577 -0.09727,0 -0.176195,0.0347 -0.236792,0.104516 -0.0607,0.0694 -0.09105,0.179406 -0.09105,0.329913 0,0.152786 0.02931,0.263827 0.08815,0.333331 0.05842,0.06899 0.134762,0.103687 0.229023,0.103687 0.07572,0 0.138491,-0.02331 0.18935,-0.06971 0.05076,-0.04641 0.08297,-0.117671 0.09644,-0.21421 z m 0.351148,-0.720215 0.192562,0 0,0.444062 0.244146,0 c 0.159311,0 0.281747,0.03097 0.367618,0.09281 0.08618,0.06173 0.128961,0.146881 0.128961,0.255333 0,0.09467 -0.03584,0.176195 -0.107416,0.243421 -0.07168,0.06754 -0.186347,0.101201 -0.344208,0.101201 l -0.481663,0 0,-1.13683 z m 0.192562,0.978242 0.202506,0 c 0.122021,0 0.208928,-0.01502 0.261237,-0.04495 0.0519,-0.02994 0.07779,-0.07676 0.07779,-0.139941 0,-0.04931 -0.01895,-0.09323 -0.0577,-0.131862 -0.03833,-0.03843 -0.123886,-0.0578 -0.255747,-0.0578 l -0.228091,0 0,0.374558 z m 0.951828,-0.978242 0.192562,0 0,0.491193 c 0.06142,0 0.104516,-0.0117 0.129065,-0.03511 0.02445,-0.02372 0.0606,-0.09209 0.108452,-0.205717 0.03802,-0.08991 0.06878,-0.149057 0.09209,-0.177646 0.02382,-0.02848 0.05086,-0.04785 0.08152,-0.0577 0.03066,-0.01026 0.08007,-0.01502 0.147606,-0.01502 l 0.03874,0 0,0.159311 -0.05366,-0.001 c -0.05045,0 -0.08297,0.0077 -0.09727,0.02269 -0.01492,0.01564 -0.03802,0.06246 -0.06868,0.140252 -0.02921,0.07417 -0.05593,0.125336 -0.08038,0.153821 -0.02414,0.0289 -0.06174,0.0549 -0.112181,0.0782 0.08256,0.02237 0.164076,0.09944 0.244043,0.231302 l 0.210896,0.352287 -0.211932,0 -0.205717,-0.352287 c -0.04205,-0.07054 -0.07893,-0.117256 -0.110006,-0.139527 -0.03139,-0.02269 -0.06909,-0.03366 -0.112595,-0.03366 l 0,0.525479 -0.192562,0 0,-1.13683 z"
   id="path49"
   style="fill:#2b2a29;fill-rule:nonzero" />
  <path
   d="m 35.8506,48.2239 0.60731,-0.817791 -0.535319,-0.751601 0.246943,0 0.285062,0.402629 c 0.05915,0.08328 0.101201,0.147606 0.126061,0.192562 0.03511,-0.05697 0.07634,-0.116531 0.124197,-0.178681 l 0.316137,-0.416509 0.225812,0 -0.551375,0.739586 0.594154,0.829807 -0.256887,0 -0.395067,-0.559765 c -0.02227,-0.03221 -0.04496,-0.06723 -0.06868,-0.10493 -0.03512,0.05697 -0.05987,0.09613 -0.07489,0.117671 l -0.393928,0.547024 -0.249532,0 z m 2.33933,-0.140356 c -0.07158,0.0607 -0.140356,0.10348 -0.206027,0.128651 -0.06619,0.02486 -0.137041,0.03729 -0.21276,0.03729 -0.124922,0 -0.220633,-0.03035 -0.287858,-0.09136 -0.06692,-0.06101 -0.100476,-0.139216 -0.100476,-0.233891 0,-0.05583 0.01233,-0.106691 0.03791,-0.152682 0.02528,-0.04609 0.05852,-0.08297 0.09944,-0.110731 0.04133,-0.02776 0.08732,-0.04899 0.138802,-0.06319 0.0377,-0.0099 0.09468,-0.01978 0.171016,-0.0289 0.155686,-0.01864 0.270456,-0.0406 0.343897,-0.0665 7.25e-4,-0.02631 0.001,-0.04309 0.001,-0.05003 0,-0.07862 -0.01823,-0.134141 -0.05479,-0.165941 -0.04889,-0.04382 -0.122332,-0.06536 -0.219183,-0.06536 -0.09064,0 -0.15755,0.01564 -0.200952,0.04744 -0.04319,0.0318 -0.075,0.08805 -0.09582,0.168841 l -0.188107,-0.026 c 0.01709,-0.08038 0.04527,-0.145742 0.08432,-0.195048 0.03915,-0.04972 0.09613,-0.08805 0.170291,-0.11477 0.07417,-0.02672 0.160036,-0.04019 0.258026,-0.04019 0.09716,0 0.175781,0.0117 0.236377,0.03439 0.0607,0.023 0.105241,0.05148 0.134141,0.08618 0.02849,0.0347 0.04827,0.0782 0.05987,0.13124 0.0062,0.03284 0.0095,0.09198 0.0095,0.177542 l 0,0.256887 c 0,0.179406 0.004,0.292727 0.01243,0.339857 0.0081,0.04744 0.02445,0.09312 0.04858,0.136627 l -0.201263,0 c -0.01978,-0.03988 -0.03294,-0.0866 -0.03843,-0.140356 z m -0.01605,-0.430389 c -0.07013,0.0288 -0.175056,0.05293 -0.314583,0.07303 -0.07935,0.0114 -0.135591,0.02414 -0.168116,0.03843 -0.03294,0.01419 -0.05852,0.03501 -0.07603,0.06277 -0.01792,0.02745 -0.02703,0.0578 -0.02703,0.09136 0,0.05158 0.01978,0.09436 0.05842,0.128651 0.03874,0.03398 0.09581,0.05117 0.170705,0.05117 0.07417,0 0.140356,-0.01606 0.198051,-0.04858 0.0577,-0.03252 0.100476,-0.07717 0.127511,-0.133415 0.02082,-0.0435 0.03108,-0.107727 0.03108,-0.192562 l 0,-0.07085 z m 0.493679,1.00631 0,-1.5724 0.175367,0 0,0.14771 c 0.04133,-0.0578 0.08805,-0.101305 0.140356,-0.130101 0.0519,-0.0289 0.115081,-0.04351 0.189247,-0.04351 0.09726,0 0.182721,0.02517 0.256887,0.07489 0.07458,0.05003 0.130515,0.120571 0.168116,0.211621 0.03802,0.09095 0.05697,0.190697 0.05697,0.299252 0,0.116221 -0.02082,0.221047 -0.06287,0.314272 -0.04164,0.09312 -0.102237,0.164387 -0.181892,0.214107 -0.07966,0.04931 -0.163351,0.07417 -0.251086,0.07417 -0.06433,0 -0.121711,-0.01357 -0.172777,-0.0406 -0.05117,-0.02704 -0.09281,-0.06132 -0.12575,-0.102651 l 0,0.553239 -0.192562,0 z m 0.174331,-0.997612 c 0,0.14626 0.02952,0.254401 0.08877,0.324527 0.05915,0.06982 0.131137,0.104826 0.215246,0.104826 0.08546,0 0.158897,-0.03615 0.219908,-0.108866 0.06101,-0.0723 0.09177,-0.184482 0.09177,-0.336543 0,-0.145017 -0.02993,-0.253158 -0.0896,-0.325563 -0.05956,-0.07199 -0.130722,-0.108141 -0.213382,-0.108141 -0.08214,0 -0.154857,0.03833 -0.218147,0.115081 -0.06319,0.07675 -0.09457,0.188522 -0.09457,0.334678 z m 1.04795,-0.574784 0.192976,0 0,0.978242 0.533144,0 0,-0.978242 0.192562,0 0,0.978242 0.124197,0 0,0.480834 -0.158586,0 0,-0.322248 -0.884292,0 0,-1.13683 z m 1.25305,0 0.192562,0 0,0.8672 0.53418,-0.8672 0.207581,0 0,1.13683 -0.192562,0 0,-0.861607 -0.53418,0.861607 -0.207581,0 0,-1.13683 z m 1.47627,0.623054 0,-0.150921 c 0.08152,-7.25e-4 0.136627,-0.004 0.166666,-0.0098 0.02952,-0.0055 0.05728,-0.02269 0.08401,-0.05117 0.02631,-0.02848 0.03946,-0.06432 0.03946,-0.107105 0,-0.05221 -0.0172,-0.09385 -0.0519,-0.124922 -0.0347,-0.03108 -0.07924,-0.04641 -0.134451,-0.04641 -0.108555,0 -0.184586,0.06391 -0.227987,0.191422 l -0.183135,-0.02994 c 0.05707,-0.213382 0.194737,-0.320073 0.413298,-0.320073 0.121296,0 0.216282,0.03325 0.285372,0.09975 0.06868,0.06619 0.103376,0.145431 0.103376,0.237517 0,0.09281 -0.04527,0.166666 -0.135176,0.221772 0.05739,0.03076 0.100165,0.06981 0.128651,0.116946 0.02848,0.04754 0.04278,0.103791 0.04278,0.168841 0,0.101926 -0.03698,0.184896 -0.111456,0.248497 -0.07417,0.06319 -0.177956,0.09499 -0.311372,0.09499 -0.259062,0 -0.409258,-0.115081 -0.450899,-0.345658 l 0.181271,-0.03843 c 0.01647,0.07272 0.04972,0.129065 0.100062,0.168841 0.05013,0.04019 0.10783,0.05998 0.172881,0.05998 0.06464,0 0.118707,-0.01834 0.162212,-0.0548 0.04309,-0.03698 0.06474,-0.08369 0.06474,-0.141081 0,-0.04423 -0.01357,-0.08256 -0.04091,-0.115496 -0.02714,-0.03284 -0.05594,-0.05335 -0.0867,-0.06142 -0.03066,-0.0084 -0.08618,-0.01233 -0.166976,-0.01233 -0.0062,0 -0.02113,3.1e-4 -0.04382,0.001 z m 0.750565,-0.623054 0.192562,0 0,0.444062 0.244146,0 c 0.159311,0 0.281747,0.03097 0.367618,0.09281 0.08618,0.06173 0.128961,0.146881 0.128961,0.255333 0,0.09468 -0.03584,0.176195 -0.107416,0.243421 -0.07168,0.06754 -0.186347,0.101201 -0.344208,0.101201 l -0.481663,0 0,-1.13683 z m 0.192562,0.978242 0.202506,0 c 0.122021,0 0.208928,-0.01502 0.261237,-0.04496 0.0519,-0.02994 0.07779,-0.07675 0.07779,-0.139941 0,-0.04931 -0.01896,-0.09322 -0.0577,-0.131862 -0.03833,-0.03843 -0.123886,-0.0578 -0.255747,-0.0578 l -0.228091,0 0,0.374558 z m 0.951828,-0.978242 0.192562,0 0,0.491193 c 0.06142,0 0.104516,-0.0117 0.129065,-0.03512 0.02445,-0.02372 0.0606,-0.09208 0.108452,-0.205717 0.03802,-0.08991 0.06878,-0.149057 0.09208,-0.177646 0.02383,-0.02849 0.05086,-0.04785 0.08152,-0.0577 0.03066,-0.01026 0.08007,-0.01502 0.147606,-0.01502 l 0.03874,0 0,0.159311 -0.05366,-0.001 c -0.05045,0 -0.08297,0.0077 -0.09726,0.02268 -0.01492,0.01564 -0.03801,0.06246 -0.06868,0.140252 -0.02921,0.07417 -0.05593,0.125336 -0.08038,0.153821 -0.02414,0.0289 -0.06174,0.0549 -0.112181,0.0782 0.08256,0.02237 0.164076,0.09944 0.244043,0.231302 l 0.210896,0.352287 -0.211932,0 -0.205717,-0.352287 c -0.04205,-0.07054 -0.07893,-0.117256 -0.110006,-0.139527 -0.03139,-0.02268 -0.06909,-0.03366 -0.112595,-0.03366 l 0,0.525479 -0.192562,0 0,-1.13683 z"
   id="path51"
   style="fill:#2b2a29;fill-rule:nonzero" />
  <path
   d="m 36.8292,40.2754 0,0.185207 -0.583589,0 c 0.0081,0.176506 0.05666,0.315411 0.146571,0.416923 0.09022,0.101926 0.205302,0.152786 0.346072,0.152786 0.249532,0 0.406254,-0.133001 0.469854,-0.398278 l 0.200227,0.05221 c -0.09064,0.347108 -0.309093,0.520403 -0.655165,0.520403 -0.247772,0 -0.431839,-0.07976 -0.552825,-0.239381 -0.121296,-0.159311 -0.177646,-0.355913 -0.16998,-0.589079 0,-0.142842 0.02714,-0.272942 0.08079,-0.390924 0.05407,-0.117671 0.136627,-0.214521 0.248082,-0.290137 0.111145,-0.07562 0.244146,-0.11332 0.397967,-0.11332 0.162937,0 0.298942,0.04019 0.408533,0.120985 0.109591,0.08069 0.183757,0.192562 0.222186,0.336128 l -0.203541,0.05335 c -0.05925,-0.218872 -0.201677,-0.328463 -0.427903,-0.328463 -0.152786,0 -0.272632,0.04599 -0.359227,0.138077 -0.08691,0.09209 -0.134451,0.216696 -0.142842,0.373522 l 0.574784,0 z m 0.803911,-0.234306 0.192976,0 0,0.473273 0.53418,0 0,-0.473273 0.192562,0 0,1.13683 -0.192562,0 0,-0.504244 -0.53418,0 0,0.504244 -0.192976,0 0,-1.13683 z m 1.95162,0.996472 c -0.07158,0.0607 -0.140356,0.10348 -0.206027,0.128651 -0.06619,0.02486 -0.137041,0.03729 -0.21276,0.03729 -0.124922,0 -0.220633,-0.03035 -0.287858,-0.09136 -0.06692,-0.06101 -0.100476,-0.139216 -0.100476,-0.233891 0,-0.05583 0.01233,-0.106691 0.03791,-0.152682 0.02528,-0.04609 0.05853,-0.08297 0.09944,-0.110731 0.04133,-0.02776 0.08732,-0.049 0.138802,-0.06319 0.0377,-0.0099 0.09468,-0.01978 0.171016,-0.0289 0.155686,-0.01864 0.270456,-0.0406 0.343897,-0.0665 7.25e-4,-0.02631 0.001,-0.04309 0.001,-0.05003 0,-0.07862 -0.01823,-0.134141 -0.0548,-0.165941 -0.04889,-0.04382 -0.122332,-0.06536 -0.219183,-0.06536 -0.09064,0 -0.15755,0.01564 -0.200952,0.04744 -0.04319,0.0318 -0.075,0.08805 -0.09582,0.168841 l -0.188107,-0.026 c 0.01709,-0.08038 0.04527,-0.145742 0.08432,-0.195048 0.03916,-0.04972 0.09613,-0.08805 0.170291,-0.11477 0.07417,-0.02672 0.160036,-0.04019 0.258026,-0.04019 0.09716,0 0.175781,0.0117 0.236377,0.03439 0.0607,0.023 0.105241,0.05148 0.134141,0.08618 0.02848,0.0347 0.04827,0.0782 0.05987,0.13124 0.0062,0.03284 0.0095,0.09198 0.0095,0.177542 l 0,0.256887 c 0,0.179406 0.004,0.292727 0.01243,0.339857 0.0081,0.04744 0.02445,0.09312 0.04858,0.136627 l -0.201263,0 c -0.01978,-0.03988 -0.03294,-0.0866 -0.03843,-0.140356 z m -0.01605,-0.430389 c -0.07013,0.0288 -0.175056,0.05293 -0.314583,0.07303 -0.07934,0.01139 -0.135591,0.02414 -0.168116,0.03843 -0.03294,0.01419 -0.05853,0.03501 -0.07603,0.06277 -0.01792,0.02745 -0.02703,0.0578 -0.02703,0.09136 0,0.05158 0.01978,0.09436 0.05842,0.128651 0.03874,0.03397 0.09582,0.05117 0.170705,0.05117 0.07417,0 0.140356,-0.01606 0.198051,-0.04858 0.0577,-0.03252 0.100476,-0.07717 0.127511,-0.133415 0.02082,-0.04351 0.03108,-0.107727 0.03108,-0.192562 l 0,-0.07085 z m 0.492539,-0.566083 0.192562,0 0,0.491193 c 0.06142,0 0.104516,-0.0117 0.129065,-0.03511 0.02445,-0.02372 0.0606,-0.09208 0.108452,-0.205717 0.03801,-0.08991 0.06878,-0.149057 0.09208,-0.177646 0.02382,-0.02849 0.05086,-0.04786 0.08152,-0.0577 0.03066,-0.01026 0.08007,-0.01502 0.147606,-0.01502 l 0.03874,0 0,0.159311 -0.05366,-0.001 c -0.05045,0 -0.08297,0.0077 -0.09726,0.02269 -0.01492,0.01564 -0.03802,0.06246 -0.06868,0.140252 -0.02921,0.07417 -0.05594,0.125336 -0.08038,0.153821 -0.02414,0.0289 -0.06174,0.0549 -0.112181,0.07821 0.08256,0.02237 0.164076,0.09944 0.244043,0.231302 l 0.210896,0.352287 -0.211932,0 -0.205717,-0.352287 c -0.04205,-0.07054 -0.07893,-0.117256 -0.110006,-0.139527 -0.03139,-0.02269 -0.06909,-0.03366 -0.112595,-0.03366 l 0,0.525479 -0.192562,0 0,-1.13683 z m 0.961047,-0.210792 0,-0.221772 0.192976,0 0,0.221772 -0.192976,0 z m 0,1.34762 0,-1.13683 0.192976,0 0,1.13683 -0.192976,0 z m 1.02786,-0.661794 0,0.158586 -0.401593,0 c 0.01243,0.123575 0.04423,0.215971 0.09612,0.277707 0.05148,0.06184 0.123471,0.09281 0.215557,0.09281 0.162626,0 0.258751,-0.09426 0.287962,-0.282783 l 0.188522,0.02486 c -0.02009,0.124611 -0.07199,0.225398 -0.155997,0.301842 -0.08369,0.07634 -0.193287,0.114356 -0.329292,0.114356 -0.161072,0.0095 -0.286097,-0.04164 -0.374454,-0.153511 -0.08846,-0.111767 -0.130515,-0.258648 -0.126475,-0.440644 0,-0.184896 0.0461,-0.330017 0.13818,-0.435568 0.09198,-0.105655 0.217732,-0.158586 0.376733,-0.158586 0.127097,0 0.229748,0.03398 0.308368,0.101201 0.07852,0.06764 0.126372,0.154546 0.143567,0.260927 l -0.187382,0.02994 c -0.03149,-0.154961 -0.121711,-0.232338 -0.270767,-0.232338 -0.08556,0 -0.155686,0.03139 -0.210481,0.09457 -0.05448,0.06329 -0.08773,0.145431 -0.100165,0.246632 l 0.401593,0 z m 0.578099,-0.475034 0.444373,0 c 0.109177,0 0.190386,0.0092 0.243732,0.02703 0.05293,0.01834 0.09861,0.05159 0.136937,0.100165 0.03802,0.04858 0.05739,0.106691 0.05739,0.174642 0,0.05407 -0.01129,0.101615 -0.03398,0.141806 -0.02227,0.04019 -0.05625,0.07417 -0.101201,0.101201 0.05376,0.01792 0.09799,0.05117 0.133415,0.100165 0.03543,0.04889 0.05293,0.106691 0.05293,0.173917 -0.0069,0.10783 -0.04568,0.187797 -0.115496,0.239692 -0.07013,0.05231 -0.171741,0.07821 -0.305053,0.07821 l -0.513049,0 0,-1.13683 z m 0.192976,0.478348 0.205302,0 c 0.08225,0 0.138491,-0.004 0.169152,-0.01274 0.03076,-0.0084 0.05811,-0.026 0.08266,-0.0519 0.02414,-0.026 0.03615,-0.05738 0.03615,-0.09354 0,-0.05997 -0.02124,-0.10203 -0.0636,-0.125336 -0.04237,-0.02382 -0.115081,-0.03553 -0.217732,-0.03553 l -0.211932,0 0,0.319037 z m 0,0.499894 0.253572,0 c 0.109281,0 0.184171,-0.01243 0.224672,-0.03802 0.04091,-0.02517 0.06215,-0.06909 0.06432,-0.130826 0,-0.03657 -0.0117,-0.07013 -0.03543,-0.101201 -0.02341,-0.03108 -0.05407,-0.05076 -0.09167,-0.05884 -0.03802,-0.0084 -0.09871,-0.01243 -0.18241,-0.01243 l -0.233063,0 0,0.341307 z m 1.72466,-0.207581 0.199191,0.02455 c -0.03139,0.116531 -0.0895,0.206752 -0.174331,0.271078 -0.08515,0.06401 -0.193597,0.09613 -0.325563,0.09613 -0.166251,0 -0.298113,-0.05117 -0.395378,-0.153511 C 43.7522,40.94776 43.70362,40.80409 43.70362,40.619194 c 0,-0.191422 0.0493,-0.339857 0.147606,-0.445409 0.09872,-0.105655 0.226226,-0.158586 0.383362,-0.158586 0.151957,0 0.276257,0.05189 0.372279,0.155272 0.09654,0.10348 0.144706,0.249222 0.144706,0.436708 0,0.0117 -3.11e-4,0.0288 -0.001,0.05148 l -0.847727,0 c 0.0069,0.125025 0.04236,0.220736 0.105966,0.286822 0.0636,0.0665 0.142427,0.09975 0.237517,0.09975 0.07054,0 0.130826,-0.01854 0.180857,-0.05583 0.05003,-0.03698 0.0895,-0.09613 0.118707,-0.177646 z m -0.63248,-0.311682 0.634759,0 c -0.0085,-0.0954 -0.03294,-0.167287 -0.07272,-0.214832 -0.06142,-0.07417 -0.141081,-0.111456 -0.238656,-0.111456 -0.08846,0 -0.162937,0.02962 -0.223222,0.08877 -0.06039,0.05925 -0.09364,0.138491 -0.100165,0.237517 z"
   id="path53"
   style="fill:#2b2a29;fill-rule:nonzero" />
  <path
   d="m 13.2678,60.4056 0,-1.56939 0.588975,0 c 0.119846,0 0.215971,0.01606 0.288376,0.04744 0.07272,0.0318 0.129272,0.0808 0.170188,0.146881 0.04102,0.06578 0.06184,0.134866 0.06184,0.20727 0,0.06681 -0.01833,0.129997 -0.0549,0.189247 -0.03615,0.05915 -0.09126,0.107105 -0.164698,0.143567 0.09499,0.02776 0.167702,0.07531 0.218872,0.14222 0.05107,0.06723 0.07665,0.146467 0.07665,0.237828 0,0.07344 -0.01564,0.141806 -0.04672,0.204992 -0.03108,0.06319 -0.0694,0.11187 -0.115081,0.146156 -0.04568,0.03439 -0.103065,0.05998 -0.171741,0.07748 -0.06878,0.0175 -0.153096,0.02631 -0.253261,0.02631 l -0.598505,0 z m 0.207892,-0.909877 0.339443,0 c 0.09178,0 0.157861,-0.0062 0.198051,-0.01823 0.05262,-0.01574 0.0925,-0.04164 0.119121,-0.0782 0.02672,-0.03657 0.04019,-0.08225 0.04019,-0.137041 0,-0.0519 -0.01243,-0.09789 -0.03729,-0.137352 -0.02517,-0.03988 -0.06101,-0.06691 -0.107002,-0.08152 -0.04641,-0.01461 -0.126061,-0.02196 -0.238967,-0.02196 l -0.313547,0 0,0.474308 z m 0,0.724566 0.390613,0 c 0.06723,0 0.114356,-0.0025 0.141391,-0.0073 0.04786,-0.0088 0.08774,-0.02299 0.119846,-0.04309 0.03221,-0.01978 0.05852,-0.04899 0.07935,-0.08701 0.02041,-0.03833 0.03107,-0.08225 0.03107,-0.132276 0,-0.05842 -0.01502,-0.109281 -0.04495,-0.152786 -0.03004,-0.04309 -0.07168,-0.07344 -0.125025,-0.09095 -0.05293,-0.0172 -0.129686,-0.0259 -0.229437,-0.0259 l -0.362853,0 0,0.539255 z m 1.2055,0.623054 -0.02154,-0.180857 c 0.04237,0.01129 0.07893,0.0172 0.11042,0.0172 0.04268,0 0.07707,-0.0074 0.102651,-0.02155 0.0259,-0.01429 0.04672,-0.03397 0.06319,-0.05997 0.01243,-0.01896 0.0318,-0.06681 0.05883,-0.143256 0.0036,-0.01098 0.0095,-0.02631 0.0172,-0.04713 l -0.431218,-1.139 0.207581,0 0.236792,0.658169 c 0.03035,0.0837 0.05811,0.171327 0.08225,0.263413 0.02227,-0.08836 0.04858,-0.174642 0.07924,-0.259062 l 0.243007,-0.66252 0.192562,0 -0.432254,1.1562 c -0.04641,0.124922 -0.08256,0.210792 -0.108141,0.257923 -0.03439,0.0636 -0.07344,0.110006 -0.117671,0.13963 -0.04464,0.02962 -0.09727,0.04454 -0.158586,0.04454 -0.03729,0 -0.07862,-0.008 -0.1243,-0.02372 z m 1.10575,-1.57457 0.654129,0 0,0.159311 -0.461153,0 0,0.977517 -0.192976,0 0,-1.13683 z m 0.844516,0 0.895168,0 0,1.13683 -0.191836,0 0,-0.977517 -0.510459,0 0,0.566394 c 0,0.131965 -0.0044,0.219286 -0.01274,0.261341 -0.0088,0.04195 -0.03221,0.07893 -0.07095,0.110316 -0.03833,0.03139 -0.09426,0.04713 -0.166976,0.04713 -0.04496,0 -0.09685,-0.0029 -0.155272,-0.0088 l 0,-0.160347 0.08473,0 c 0.03988,0 0.06837,-0.0045 0.08556,-0.01243 0.01719,-0.0084 0.02848,-0.02124 0.03429,-0.03916 0.0059,-0.01782 0.0085,-0.07593 0.0085,-0.174642 l 0,-0.749115 z m 1.96322,0.770661 0.199191,0.02455 c -0.03139,0.116531 -0.0895,0.206752 -0.174331,0.271078 -0.08515,0.06401 -0.193597,0.09613 -0.325563,0.09613 -0.166251,0 -0.298113,-0.05117 -0.395378,-0.153511 -0.09758,-0.102237 -0.146156,-0.245907 -0.146156,-0.430803 0,-0.191422 0.04931,-0.339857 0.147606,-0.445409 0.09871,-0.105655 0.226226,-0.158586 0.383362,-0.158586 0.151957,0 0.276257,0.0519 0.372279,0.155272 0.09654,0.10348 0.144706,0.249222 0.144706,0.436708 0,0.01171 -3.11e-4,0.0288 -0.001,0.05148 l -0.847727,0 c 0.0069,0.125025 0.04237,0.220736 0.105966,0.286822 0.0636,0.0665 0.142427,0.09975 0.237517,0.09975 0.07054,0 0.130826,-0.01854 0.180857,-0.05583 0.05003,-0.03698 0.0895,-0.09613 0.118707,-0.177646 z m -0.63248,-0.311682 0.634759,0 c -0.0085,-0.0954 -0.03294,-0.167287 -0.07272,-0.214832 -0.06142,-0.07417 -0.141081,-0.111456 -0.238656,-0.111456 -0.08846,0 -0.162937,0.02963 -0.223222,0.08877 -0.06039,0.05925 -0.09364,0.138491 -0.100165,0.237517 z m 1.17764,-0.458978 0.792206,0 0,0.978242 0.12285,0 0,0.480834 -0.158275,0 0,-0.322248 -0.894857,0 0,0.322248 -0.158586,0 0,-0.480834 0.101615,0 c 0.135487,-0.184171 0.200537,-0.510148 0.195048,-0.978242 z m 0.160451,0.159311 c -0.01419,0.369068 -0.07127,0.642114 -0.171327,0.81893 l 0.611246,0 0,-0.81893 -0.439919,0 z m 1.70861,0.837161 c -0.07158,0.0607 -0.140356,0.10348 -0.206027,0.128651 -0.06619,0.02486 -0.137041,0.03729 -0.21276,0.03729 -0.124922,0 -0.220633,-0.03035 -0.287858,-0.09136 -0.06692,-0.06101 -0.100476,-0.139216 -0.100476,-0.233891 0,-0.05583 0.01233,-0.106691 0.03791,-0.152682 0.02528,-0.04609 0.05853,-0.08297 0.09944,-0.110731 0.04133,-0.02776 0.08732,-0.049 0.138802,-0.06319 0.0377,-0.0099 0.09468,-0.01978 0.171016,-0.0289 0.155686,-0.01864 0.270456,-0.0406 0.343897,-0.0665 7.25e-4,-0.02631 0.001,-0.04309 0.001,-0.05003 0,-0.07862 -0.01823,-0.134141 -0.0548,-0.165941 -0.04889,-0.04382 -0.122332,-0.06536 -0.219183,-0.06536 -0.09064,0 -0.15755,0.01564 -0.200952,0.04744 -0.04319,0.0318 -0.075,0.08805 -0.09582,0.168841 l -0.188107,-0.026 c 0.01709,-0.08038 0.04527,-0.145742 0.08432,-0.195048 0.03916,-0.04972 0.09613,-0.08805 0.170291,-0.11477 0.07417,-0.02672 0.160036,-0.04019 0.258026,-0.04019 0.09716,0 0.175781,0.0117 0.236377,0.03439 0.0607,0.023 0.105241,0.05148 0.134141,0.08618 0.02848,0.0347 0.04827,0.0782 0.05987,0.13124 0.0062,0.03284 0.0095,0.09198 0.0095,0.177542 l 0,0.256887 c 0,0.179406 0.004,0.292727 0.01243,0.339857 0.0081,0.04744 0.02445,0.09312 0.04858,0.136627 l -0.201263,0 c -0.01978,-0.03988 -0.03294,-0.0866 -0.03843,-0.140356 z m -0.01605,-0.430389 c -0.07013,0.0288 -0.175056,0.05293 -0.314583,0.07303 -0.07935,0.0114 -0.135591,0.02414 -0.168116,0.03843 -0.03294,0.01419 -0.05853,0.03501 -0.07603,0.06277 -0.01792,0.02745 -0.02704,0.0578 -0.02704,0.09136 0,0.05158 0.01978,0.09436 0.05842,0.128651 0.03874,0.03397 0.09582,0.05117 0.170705,0.05117 0.07417,0 0.140356,-0.01605 0.198051,-0.04858 0.0577,-0.03252 0.100476,-0.07717 0.127511,-0.133415 0.02082,-0.0435 0.03108,-0.107727 0.03108,-0.192562 l 0,-0.07085 z m 0.493679,1.00631 0,-1.5724 0.175367,0 0,0.14771 c 0.04133,-0.0578 0.08805,-0.101305 0.140356,-0.130101 0.05189,-0.0289 0.115081,-0.0435 0.189247,-0.0435 0.09726,0 0.182721,0.02517 0.256887,0.07489 0.07458,0.05003 0.130515,0.120571 0.168116,0.211621 0.03802,0.09095 0.05697,0.190697 0.05697,0.299252 0,0.116221 -0.02082,0.221047 -0.06287,0.314272 -0.04164,0.09312 -0.102237,0.164387 -0.181892,0.214107 -0.07965,0.04931 -0.163351,0.07417 -0.251086,0.07417 -0.06433,0 -0.121711,-0.01357 -0.172777,-0.0406 -0.05117,-0.02704 -0.09281,-0.06132 -0.12575,-0.102651 l 0,0.553239 -0.192562,0 z m 0.174331,-0.997612 c 0,0.14626 0.02952,0.254401 0.08877,0.324527 0.05915,0.06981 0.131137,0.104826 0.215246,0.104826 0.08546,0 0.158897,-0.03615 0.219908,-0.108866 0.06101,-0.0723 0.09177,-0.184482 0.09177,-0.336543 0,-0.145017 -0.02993,-0.253158 -0.0896,-0.325563 -0.05956,-0.07199 -0.130722,-0.108141 -0.213382,-0.108141 -0.08214,0 -0.154857,0.03833 -0.218147,0.115081 -0.06319,0.07675 -0.09457,0.188522 -0.09457,0.334678 z"
   id="path55"
   style="fill:#2b2a29;fill-rule:nonzero" />
  <g
   id="_333988784">
   <path
   d="m 32.4549,49.028 c 0.637038,0 1.13983,-0.530969 1.13983,-1.14232 0,-0.636624 -0.502794,-1.16583 -1.13983,-1.16583 -0.637349,0 -1.16832,0.529208 -1.16832,1.16583 0,0.611349 0.530969,1.14232 1.16832,1.14232 z"
   id="_333988856"
   style="fill:#fefefe;stroke:#2b2a29;stroke-width:0.160244" />
   <path
   d="m 32.4549,48.497 c 0.34514,0 0.609588,-0.265899 0.609588,-0.611349 0,-0.344001 -0.264448,-0.636624 -0.609588,-0.636624 -0.345036,0 -0.637349,0.292623 -0.637349,0.636624 0,0.345451 0.292312,0.611349 0.637349,0.611349"
   id="_333988904"
   style="fill:none;stroke:#2b2a29;stroke-width:0.19235399" />
  </g>
  <path
   d="m 26.6492,49.4015 1.44613,0 0,2.1767 0.184068,0 0,1.00973 -0.351251,0 0,-0.570641 -1.31748,0 0,0.570641 -0.351251,0 0,-1.00973 0.177335,0 c 0.08629,-0.223533 0.143774,-0.483009 0.171016,-0.778947 0.02776,-0.29542 0.04143,-0.669356 0.04143,-1.12129 l 0,-0.276464 z m 0.402525,0.43909 c 0,0.794174 -0.05759,1.37403 -0.17257,1.73761 l 0.79521,0 0,-1.73761 -0.62264,0 z m 1.45141,1.20229 c 0,-0.166355 0.03315,-0.327738 0.0984,-0.483631 0.06578,-0.155272 0.158897,-0.274703 0.279157,-0.356327 0.120364,-0.08214 0.254815,-0.123575 0.403457,-0.123575 0.229023,0 0.417027,0.09312 0.563701,0.279572 0.146674,0.186347 0.219804,0.421377 0.219804,0.705817 0,0.286305 -0.07417,0.523821 -0.221772,0.71255 -0.148124,0.188833 -0.334264,0.282679 -0.558833,0.282679 -0.13932,0 -0.271389,-0.03905 -0.397553,-0.117567 -0.126165,-0.07862 -0.222186,-0.193701 -0.287962,-0.345347 -0.06526,-0.151646 -0.0984,-0.336232 -0.0984,-0.554171 z m 0.411226,0.02672 c 0,0.188211 0.03553,0.331985 0.107105,0.431839 0.07127,0.09985 0.159415,0.149782 0.264138,0.149782 0.104723,0 0.192458,-0.04993 0.263102,-0.149782 0.07106,-0.09985 0.106691,-0.244871 0.106691,-0.435465 0,-0.185104 -0.03563,-0.328256 -0.106691,-0.42811 -0.07064,-0.09996 -0.158379,-0.149885 -0.263102,-0.149885 -0.104723,0 -0.192872,0.04993 -0.264138,0.149885 -0.07158,0.09986 -0.107105,0.244146 -0.107105,0.431736 z m 1.45141,-0.947063 0.401489,0 0,0.693698 0.573438,0 0,-0.693698 0.402939,0 0,1.89475 -0.402939,0 0,-0.796039 -0.573438,0 0,0.796039 -0.401489,0 0,-1.89475 z m 2.6593,1.29179 0.400039,0.08349 c -0.05169,0.183239 -0.132587,0.322766 -0.243628,0.418373 -0.110627,0.09623 -0.249532,0.143774 -0.416095,0.143774 -0.263516,0 -0.45846,-0.107209 -0.585143,-0.322869 -0.09985,-0.172363 -0.150092,-0.390406 -0.150092,-0.652886 0,-0.314272 0.06578,-0.560283 0.197326,-0.738135 0.131033,-0.177853 0.297181,-0.266727 0.497925,-0.266727 0.225605,0 0.403457,0.09312 0.534076,0.279572 0.129997,0.186347 0.192458,0.471408 0.187072,0.855703 l -1.00517,0 c 0.0029,0.148539 0.03511,0.264241 0.09695,0.346487 0.06184,0.08287 0.13932,0.1243 0.231405,0.1243 0.06287,0 0.115496,-0.02134 0.158379,-0.06401 0.04288,-0.04319 0.07551,-0.112077 0.09695,-0.207063 z m 0.02289,-0.50673 c -0.0029,-0.145535 -0.03263,-0.255747 -0.0896,-0.33126 -0.05707,-0.07551 -0.126683,-0.11332 -0.208617,-0.11332 -0.08763,0 -0.159726,0.04019 -0.2168,0.11995 -0.05697,0.07924 -0.08525,0.18759 -0.08421,0.32463 l 0.59923,0 z m 0.710893,-0.785058 0.401489,0 0,1.489739 0.571884,0 0,-1.489739 0.401489,0 0,1.489739 0.158379,0 0,0.904387 -0.324009,0 0,-0.499376 -1.20923,0 0,-1.89475 z m 1.81975,0 0.400971,0 0,0.786923 0.402939,0 c 0.157861,0 0.279261,0.01398 0.363992,0.04257 0.08473,0.02869 0.154857,0.09022 0.210999,0.184586 0.05645,0.09437 0.08421,0.204681 0.08421,0.329499 0,0.182721 -0.05013,0.320901 -0.150507,0.412883 -0.100372,0.09198 -0.250983,0.138284 -0.451727,0.138284 l -0.860882,0 0,-1.89475 z m 0.400971,1.577469 0.374247,0 c 0.116946,0 0.19194,-0.02434 0.224569,-0.07189 0.03315,-0.04754 0.04972,-0.104205 0.04972,-0.169359 0,-0.09136 -0.0288,-0.15465 -0.08525,-0.18935 -0.05656,-0.03408 -0.156929,-0.05179 -0.301635,-0.05179 l -0.261652,0 0,0.482388 z m 1.37155,-1.577469 0.399936,0 0,0.774079 c 0.06629,-0.0091 0.113527,-0.0347 0.141288,-0.07665 0.02735,-0.04143 0.06091,-0.132794 0.09996,-0.272942 0.05117,-0.186968 0.107623,-0.306296 0.16853,-0.358709 0.06091,-0.05231 0.140873,-0.07852 0.239796,-0.07852 0.03014,0 0.08328,0.003 0.158379,0.0091 l 0.0013,0.331881 c -0.105655,0 -0.173399,0.01222 -0.202713,0.03719 -0.02962,0.02621 -0.06132,0.104205 -0.0954,0.233891 -0.04672,0.174745 -0.114045,0.282576 -0.201263,0.322766 0.126268,0.04444 0.233373,0.181478 0.321109,0.412366 0.0044,0.01212 0.0097,0.02434 0.01564,0.0377 l 0.224051,0.522578 -0.431114,0 -0.199812,-0.547542 c -0.04091,-0.110834 -0.07655,-0.1821 -0.106277,-0.213796 -0.03014,-0.03097 -0.07448,-0.04682 -0.133519,-0.04682 l 0,0.808158 -0.399936,0 0,-1.89475 z"
   id="path60"
   style="fill:#2b2a29;fill-rule:nonzero" />
 </g>
</svg>