<?xml version="1.0" encoding="UTF-8" standalone="no"?>
<!-- Created with Inkscape (http://www.inkscape.org/) -->

<svg
   xmlns:svg="http://www.w3.org/2000/svg"
   xmlns="http://www.w3.org/2000/svg"
   version="1.1"
   width="51.735901mm"
   height="69.134903mm"
   viewBox="0 0 52.4962 70.1509"
   id="svg2"
   xml:space="preserve"
   style="fill-rule:evenodd">
 <defs
   id="defs4">
  <style
   type="text/css"
   id="style6" />
 </defs>
 <g
   id="Layer_x0020_1">
  
  <path
   d="m 52.2374,35.4645 0.258849,-0.673961 -0.803538,-1.03743 0.466557,-0.59583 -0.05195,-0.830021 -3.68101,-2.92902 -0.363363,-1.42595 -0.543979,-0.07783 -0.596134,0.881466 -1.63356,-0.337488 -0.958888,-0.62211 -0.959497,-0.258443 -1.1671,0.258443 -0.128866,-0.881568 0.751281,-1.08846 -0.622415,-0.804147 -0.958685,0.93352 -0.207708,1.29698 -0.544283,-0.881466 -0.259356,-0.881872 0.259356,-0.958989 -0.05134,-0.596337 -0.07773,-1.65913 -1.29597,0 -1.55604,-0.181225 -0.492432,-0.700039 -0.129272,-0.959192 -0.415011,-0.336981 -1.63295,-0.05175 0.07722,-0.907849 1.42534,0 0.959801,0.622212 0.415417,-0.337386 -0.622922,-0.958786 0,-1.08917 -1.71098,-0.466253 -0.414808,-1.08857 -0.673758,-1.24432 2.25577,-1.89332 -2.17794,-0.699126 -0.622313,-2.6446997 0.544486,-0.544283 -0.674468,-1.03631 -0.336981,-0.545501 -0.492026,0 -0.337386,-1.63305 0.414808,-0.336676 -0.492229,-1.50327 -0.05246,-0.959091 -0.829514,0 -2.8515,-1.50439 -1.16599,0.544993 -0.674874,-0.596844 0.259762,-0.881263 -1.29638,-0.362754 -0.802726,2.87758 -0.208622,1.63305 -0.751585,0.958989 0.674367,1.29638 -1.29668,0.752499 -0.595525,1.01094 -0.493244,-0.467369 -1.34853,1.21865 1.08968,0.415619 0.12978,1.6322397 0.881263,0.622009 1.42565,0.208114 0.829007,0.259052 -0.413793,1.97013 -0.804147,-0.05185 -0.544283,-0.829007 -0.622212,-0.05215 -0.415011,0.803741 -2.51462,0.07742 -0.673961,0.336575 -0.82921,-0.336575 -0.958685,0.596743 -0.959801,-0.337183 -0.59654,-0.544892 -1.24412,0.129272 -1.01125,0.907747 -1.21835,-0.907747 -1.16649,0.907747 -1.08907,-0.362855 -1.2441201,0.492229 -1.55512,-1.08836 -0.751687,0 -0.129881,0.596134 -1.29617,0.958989 0,1.63346 -1.08877,0 -1.58151,1.65852 0.077421,0.67457 -0.881466,2.04827 0.933216,1.14052 -1.21824,0.414402 -1.50337,4.84842 0,0.285028 0,-0.02638 1.50337,1.37441 1.16649,2.17815 1.97024,0.621197 0.751382,-0.750875 0.752499,0.258849 -0.415011,1.99621 0.752296,1.14052 0.129577,1.11444 1.5813,-0.07732 0.75189,0.803335 -0.960105,1.71118 0.285941,0.75189 1.01023,0.128866 0.544993,-1.34741 1.0113498,0.259559 1.50337,0.155553 0.829311,-1.03743 0.674468,0.414706 -0.259356,0.881263 0.673657,0.7526 -0.751585,1.42484 0.467166,0.543979 0.206592,2.04898 2.87768,1.5809 0.467572,-0.958279 -0.260371,-1.1667 1.89342,0.336473 -0.467876,1.50398 0.882075,0.284521 0.674671,0.05226 1.16538,1.50358 0.285333,2.33299 1.42616,1.21906 -2.12528,2.25455 3.42125,3.57772 -1.08796,1.50317 -0.208013,1.76324 c -0.07752,0.05205 -0.155553,0.07793 -0.207302,0.103803 l 0.07823,0.103499 2.02127,1.08897 0.414706,2.04847 1.03763,2.04674 2.98077,1.3738 -0.05155,2.17957 0.959192,1.71047 1.01043,-0.07864 0,-1.42595 c 0,0 1.84157,-2.17602 1.84157,-2.33228 0,-0.129069 -0.545196,-3.13714 -0.545196,-3.13714 l -0.751179,-2.85282 0.07742,-1.03611 1.42534,-1.76222 0.960004,-2.46307 0.751382,0.493244 1.63386,-0.80435 0.05124,-1.71088 1.167,-0.181326 0,-1.37481 0.881162,-1.08765 0.959497,0.206694 0.958786,-1.7884 1.08867,-1.01094 1.08917,-0.959395 1.1666,-0.803132 2.17805,-0.362652 1.55492,0 2.33299,0.414199 1.01155,0.337995 -0.20781,-2.72314 0.07793,-1.29638 0.337183,-1.14032 -0.544486,-2.67007 -0.259052,-1.91879 1.76273,-0.75189 -0.129475,-0.466151 z"
   id="path10"
   style="fill:#ffdf49" />
  <g
   id="_386680608">
   <path
   d="m 36.865,41.7224 c 0.478429,0 0.8769,-0.378177 0.8769,-0.856809 0,-0.47782 -0.398471,-0.856403 -0.8769,-0.856403 -0.457425,0 -0.835805,0.378583 -0.835805,0.856403 0,0.478632 0.37838,0.856809 0.835805,0.856809 z"
   id="_386680704"
   style="fill:#fefefe;stroke:#2b2a29;stroke-width:0.120241" />
   <path
   d="m 36.8768,41.0702 c 0.111109,0 0.205172,-0.09345 0.205172,-0.204664 0,-0.110297 -0.09406,-0.203954 -0.205172,-0.203954 -0.102484,0 -0.186907,0.09366 -0.186907,0.203954 0,0.111211 0.08442,0.204664 0.186907,0.204664 z"
   id="_386680656"
   style="fill:#2b2a29;stroke:#2b2a29;stroke-width:0.0773198" />
  </g>
  <g
   id="_386680440">
   <path
   d="m 29.1194,7.70438 c 0.478531,0 0.876697,-0.378482 0.876697,-0.856708 0,-0.477922 -0.398167,-0.856809 -0.876697,-0.856809 -0.457323,0 -0.835704,0.378887 -0.835704,0.856809 0,0.478226 0.37838,0.856708 0.835704,0.856708 z"
   id="_386680536"
   style="fill:#fefefe;stroke:#2b2a29;stroke-width:0.120241" />
   <path
   d="m 29.1313,7.05214 c 0.111109,0 0.205374,-0.093859 0.205374,-0.204461 0,-0.110805 -0.09427,-0.204664 -0.205374,-0.204664 -0.102078,0 -0.187211,0.093859 -0.187211,0.204664 0,0.110602 0.08513,0.204461 0.187211,0.204461 z"
   id="_386680488"
   style="fill:#2b2a29;stroke:#2b2a29;stroke-width:0.0773198" />
  </g>
  <g
   id="_387112096">
   <path
   d="m 24.8325,44.2302 c 0.478328,0 0.876494,-0.37838 0.876494,-0.856606 0,-0.47782 -0.398167,-0.856403 -0.876494,-0.856403 -0.457323,0 -0.836211,0.378583 -0.836211,0.856403 0,0.478226 0.378887,0.856606 0.836211,0.856606 z"
   id="_387112192"
   style="fill:#fefefe;stroke:#2b2a29;stroke-width:0.120241" />
   <path
   d="m 24.8441,43.5779 c 0.111312,0 0.204867,-0.09335 0.204867,-0.20436 0,-0.110602 -0.09356,-0.204258 -0.204867,-0.204258 -0.101875,0 -0.186806,0.09366 -0.186806,0.204258 0,0.111008 0.08493,0.20436 0.186806,0.20436 z"
   id="_387112144"
   style="fill:#2b2a29;stroke:#2b2a29;stroke-width:0.0773198" />
  </g>
  <g
   id="_387111928">
   <path
   d="m 21.269,21.8345 c 0.478734,0 0.876697,-0.378279 0.876697,-0.856505 0,-0.47782 -0.397964,-0.856099 -0.876697,-0.856099 -0.457222,0 -0.835501,0.378279 -0.835501,0.856099 0,0.478226 0.378279,0.856505 0.835501,0.856505 z"
   id="_387112024"
   style="fill:#fefefe;stroke:#2b2a29;stroke-width:0.120241" />
   <path
   d="m 21.2806,21.1828 c 0.111312,0 0.205679,-0.09356 0.205679,-0.204766 0,-0.110602 -0.09437,-0.204157 -0.205679,-0.204157 -0.102078,0 -0.186704,0.09356 -0.186704,0.204157 0,0.111211 0.08463,0.204766 0.186704,0.204766 z"
   id="_387111976"
   style="fill:#2b2a29;stroke:#2b2a29;stroke-width:0.0773198" />
  </g>
  <path
   d="m 38.4227,38.841 0.203345,0 0,0.673251 c 0.09305,0 0.158191,-0.01786 0.196141,-0.05398 0.03754,-0.03622 0.08594,-0.122474 0.144594,-0.259559 0.04262,-0.100556 0.07773,-0.171788 0.10563,-0.213391 0.0275,-0.0415 0.06687,-0.07651 0.117705,-0.104818 0.05124,-0.02831 0.107456,-0.04262 0.168947,-0.04262 0.07844,0 0.119633,7.1e-4 0.123894,0.0021 l 0,0.176151 c -0.0072,0 -0.0208,-4.06e-4 -0.0412,-0.0011 -0.02212,-7.11e-4 -0.03572,-0.001 -0.04079,-0.001 -0.06514,0 -0.113139,0.01573 -0.144594,0.04718 -0.03216,0.03156 -0.0691,0.09883 -0.110297,0.201519 -0.05155,0.129983 -0.09518,0.21197 -0.130997,0.245962 -0.03572,0.03369 -0.07833,0.06088 -0.12775,0.08128 0.09914,0.02719 0.196851,0.118821 0.293552,0.274475 l 0.316788,0.511914 -0.252761,0 -0.257023,-0.417344 c -0.07052,-0.115269 -0.129881,-0.194416 -0.177166,-0.237743 -0.04759,-0.04292 -0.109181,-0.06443 -0.184675,-0.06443 l 0,0.719521 -0.203345,0 0,-1.53737 z m 1.1533,0.980399 c 0,-0.206186 0.05723,-0.358999 0.172194,-0.458135 0.09558,-0.08239 0.212274,-0.123894 0.35007,-0.123894 0.153219,0 0.278433,0.05013 0.375438,0.150682 0.09741,0.100252 0.14571,0.238758 0.14571,0.415619 0,0.143478 -0.02151,0.256312 -0.06443,0.338198 -0.04292,0.08239 -0.105528,0.146116 -0.187516,0.191575 -0.08239,0.04546 -0.17189,0.06799 -0.269199,0.06799 -0.155756,0 -0.28168,-0.04972 -0.377974,-0.149972 -0.09629,-0.09985 -0.14429,-0.24373 -0.14429,-0.432058 z m 0.19401,0 c 0,0.142768 0.03115,0.249514 0.09345,0.32034 0.0623,0.07123 0.140636,0.106645 0.2348,0.106645 0.09376,0 0.171788,-0.03572 0.23409,-0.106949 0.0619,-0.07123 0.09305,-0.180109 0.09305,-0.326123 0,-0.137796 -0.03115,-0.242309 -0.09376,-0.313237 -0.06261,-0.07083 -0.140332,-0.106239 -0.23338,-0.106239 -0.09416,0 -0.172498,0.03541 -0.234801,0.105934 -0.0623,0.07052 -0.09345,0.177166 -0.09345,0.319629 z m 1.11576,-0.556662 0.8769,0 0,1.11363 -0.187922,0 0,-0.957569 -0.500042,0 0,0.554836 c 0,0.129272 -0.0043,0.214811 -0.01248,0.256008 -0.0086,0.04109 -0.03156,0.07732 -0.06951,0.108065 -0.03754,0.03075 -0.09234,0.04617 -0.16357,0.04617 -0.04404,0 -0.09487,-0.0028 -0.152102,-0.0086 l 0,-0.157075 0.083,0 c 0.03907,0 0.06697,-0.0044 0.08381,-0.01218 0.01684,-0.0082 0.0279,-0.0208 0.03359,-0.03836 0.0058,-0.01745 0.0083,-0.07438 0.0083,-0.171078 l 0,-0.733828 z m 1.11454,0.556662 c 0,-0.206186 0.05723,-0.358999 0.172194,-0.458135 0.09558,-0.08239 0.212274,-0.123894 0.35007,-0.123894 0.153219,0 0.278433,0.05013 0.375438,0.150682 0.09741,0.100252 0.14571,0.238758 0.14571,0.415619 0,0.143478 -0.02151,0.256312 -0.06443,0.338198 -0.04292,0.08239 -0.105528,0.146116 -0.187516,0.191575 -0.08239,0.04546 -0.17189,0.06799 -0.269199,0.06799 -0.155756,0 -0.28168,-0.04972 -0.377974,-0.149972 -0.09629,-0.09985 -0.14429,-0.24373 -0.14429,-0.432058 z m 0.19401,0 c 0,0.142768 0.03115,0.249514 0.09345,0.32034 0.0623,0.07123 0.140637,0.106645 0.234801,0.106645 0.09376,0 0.171788,-0.03572 0.23409,-0.106949 0.0619,-0.07123 0.09305,-0.180109 0.09305,-0.326123 0,-0.137796 -0.03115,-0.242309 -0.09376,-0.313237 -0.06261,-0.07083 -0.140332,-0.106239 -0.23338,-0.106239 -0.09416,0 -0.172498,0.03541 -0.234801,0.105934 -0.0623,0.07052 -0.09345,0.177166 -0.09345,0.319629 z m 1.07598,-0.556662 0.293552,0 0.292841,0.891309 0.325007,-0.891309 0.271634,0 0,1.11363 -0.188632,0 0,-0.896687 -0.329269,0.896687 -0.168947,0 -0.31141,-0.939609 0,0.939609 -0.184776,0 0,-1.11363 z m 1.47161,0 0.188632,0 0,0.849504 0.523279,-0.849504 0.203345,0 0,1.11363 -0.188632,0 0,-0.844024 -0.523279,0.844024 -0.203345,0 0,-1.11363 z m 2.07647,0 0,1.11363 -0.187922,0 0,-0.434188 -0.108775,0 c -0.06656,0 -0.11598,0.0086 -0.148551,0.02577 -0.03257,0.01715 -0.07986,0.07235 -0.142159,0.16499 l -0.164584,0.243426 -0.233786,0 0.203345,-0.299944 c 0.0623,-0.09163 0.124199,-0.143174 0.185791,-0.155046 -0.107761,-0.01502 -0.187617,-0.05368 -0.239874,-0.11669 -0.05185,-0.06261 -0.07803,-0.135259 -0.07803,-0.216841 0,-0.0967 0.03399,-0.174731 0.102383,-0.234902 0.06799,-0.06007 0.166816,-0.09021 0.295987,-0.09021 l 0.516176,0 z m -0.187922,0.15606 -0.268489,0 c -0.112327,0 -0.184979,0.01755 -0.217551,0.05266 -0.03227,0.0347 -0.0487,0.0759 -0.0487,0.122474 0,0.06656 0.02395,0.115168 0.07194,0.146319 0.048,0.03115 0.132418,0.04688 0.254181,0.04688 l 0.208622,0 0,-0.368335 z"
   id="path24"
   style="fill:#2b2a29;fill-rule:nonzero" />
  <path
   d="m 24.6086,10.0301 0,-1.53737 0.579899,0 c 0.102078,0 0.180109,0.00497 0.233786,0.014612 0.07549,0.012582 0.13881,0.036529 0.190053,0.071942 0.05084,0.035108 0.09193,0.084829 0.123083,0.148247 0.03115,0.063723 0.04657,0.133534 0.04657,0.209738 0,0.130693 -0.0415,0.241599 -0.124605,0.332211 -0.08341,0.090207 -0.233684,0.135665 -0.450931,0.135665 l -0.394514,0 0,0.6249505 -0.203345,0 z m 0.203345,-0.80648 0.397659,0 c 0.131403,0 0.224857,-0.024353 0.279955,-0.073362 0.0551,-0.04901 0.0827,-0.117806 0.0827,-0.206491 0,-0.064433 -0.01613,-0.119633 -0.04871,-0.165395 -0.03257,-0.045864 -0.07519,-0.075899 -0.128461,-0.090612 -0.0344,-0.00893 -0.09741,-0.013597 -0.189748,-0.013597 l -0.393398,0 0,0.549458 z m 1.04027,0.249514 c 0,-0.206186 0.05723,-0.358999 0.172194,-0.458135 0.09558,-0.082393 0.212274,-0.123894 0.35007,-0.123894 0.153219,0 0.278433,0.050126 0.375438,0.150682 0.09741,0.100252 0.14571,0.238758 0.14571,0.415619 0,0.143478 -0.02151,0.256312 -0.06443,0.338198 -0.04292,0.082393 -0.105528,0.146116 -0.187516,0.191575 -0.08239,0.045458 -0.17189,0.067985 -0.269199,0.067985 -0.155756,0 -0.28168,-0.04972 -0.377974,-0.1499724 -0.09629,-0.099846 -0.14429,-0.24373 -0.14429,-0.432058 z m 0.19401,0 c 0,0.142768 0.03115,0.249514 0.09345,0.32034 0.0623,0.071232 0.140637,0.106645 0.234801,0.106645 0.09376,0 0.171788,-0.035717 0.23409,-0.106949 0.0619,-0.071232 0.09305,-0.180109 0.09305,-0.326123 0,-0.137796 -0.03115,-0.242309 -0.09376,-0.313237 -0.06261,-0.070826 -0.140332,-0.106239 -0.23338,-0.106239 -0.09416,0 -0.172498,0.035413 -0.234801,0.105934 -0.0623,0.070521 -0.09345,0.177166 -0.09345,0.319629 z m 1.07172,-0.556662 0.640781,0 0,0.15606 -0.451743,0 0,0.957569 -0.189038,0 0,-1.11363 z m 1.46187,0.976138 c -0.07012,0.059461 -0.137491,0.101368 -0.201823,0.126025 -0.06484,0.02435 -0.134244,0.03653 -0.208419,0.03653 -0.122372,0 -0.21613,-0.02973 -0.281984,-0.089496 -0.06555,-0.059766 -0.09843,-0.136375 -0.09843,-0.229118 0,-0.054692 0.01208,-0.104514 0.03714,-0.149566 0.02476,-0.045154 0.05733,-0.081277 0.09741,-0.108471 0.04049,-0.027194 0.08554,-0.047995 0.135969,-0.061896 0.03693,-0.00974 0.09274,-0.019381 0.167526,-0.02831 0.152509,-0.018264 0.264937,-0.039776 0.336879,-0.065143 7.1e-4,-0.025773 0.001,-0.042211 0.001,-0.04901 0,-0.077015 -0.01786,-0.131403 -0.05368,-0.162554 -0.04789,-0.042922 -0.119836,-0.064027 -0.21471,-0.064027 -0.08879,0 -0.154335,0.015322 -0.196851,0.046473 -0.04231,0.031151 -0.07346,0.086249 -0.09386,0.165395 L 27.821734,9.233971 c 0.01674,-0.07874 0.04434,-0.142768 0.0826,-0.191067 0.03836,-0.048705 0.09416,-0.086249 0.166816,-0.112428 0.07265,-0.026179 0.156771,-0.03937 0.252761,-0.03937 0.09518,0 0.172194,0.011466 0.231554,0.033688 0.05946,0.022526 0.103093,0.05043 0.131403,0.084423 0.0279,0.033992 0.04728,0.076609 0.05865,0.128562 0.0061,0.032166 0.0093,0.090105 0.0093,0.173919 l 0,0.251645 c 0,0.175745 0.004,0.286753 0.01218,0.332922 0.0079,0.046473 0.02395,0.091221 0.04759,0.1338376 l -0.197155,0 c -0.01938,-0.039065 -0.03227,-0.084828 -0.03765,-0.1374906 z m -0.01573,-0.421606 c -0.0687,0.028208 -0.171484,0.051851 -0.308163,0.071536 -0.07773,0.011162 -0.132824,0.023642 -0.164685,0.037645 -0.03227,0.013901 -0.05733,0.034297 -0.07448,0.061491 -0.01755,0.026889 -0.02648,0.05662 -0.02648,0.089496 0,0.050532 0.01938,0.092439 0.05723,0.126025 0.03795,0.033282 0.09386,0.050126 0.167222,0.050126 0.07265,0 0.137491,-0.015728 0.19401,-0.047589 0.05652,-0.031861 0.09842,-0.075595 0.124909,-0.130693 0.0204,-0.042617 0.03044,-0.105528 0.03044,-0.188632 l 0,-0.069405 z m 0.334342,-0.554531 0.90521,0 0,0.15606 -0.358695,0 0,0.957569 -0.187922,0 0,-0.957569 -0.358594,0 0,-0.15606 z m 1.08562,0 0.188632,0 0,0.849504 0.523279,-0.849504 0.203345,0 0,1.11363 -0.188632,0 0,-0.844024 -0.523279,0.844024 -0.203345,0 0,-1.11363 z m 1.20059,0 0.189038,0 0,0.463615 0.523279,0 0,-0.463615 0.188632,0 0,1.11363 -0.188632,0 0,-0.493954 -0.523279,0 0,0.493954 -0.189038,0 0,-1.11363 z"
   id="path26"
   style="fill:#2b2a29;fill-rule:nonzero" />
  <path
   d="m 13.595,17.9632 0.203345,0 0,0.673251 c 0.09305,0 0.158191,-0.01786 0.196141,-0.05398 0.03754,-0.03622 0.08595,-0.122474 0.144594,-0.259559 0.04262,-0.100556 0.07773,-0.171788 0.10563,-0.213391 0.0275,-0.0415 0.06687,-0.07651 0.117705,-0.104818 0.05124,-0.02831 0.107456,-0.04262 0.168947,-0.04262 0.07844,0 0.119633,7.1e-4 0.123894,0.0021 l 0,0.176151 c -0.0072,0 -0.0208,-4.06e-4 -0.0412,-0.0011 -0.02212,-7.11e-4 -0.03572,-0.001 -0.04079,-0.001 -0.06514,0 -0.113139,0.01573 -0.144594,0.04718 -0.03217,0.03156 -0.0691,0.09883 -0.110297,0.201519 -0.05155,0.129983 -0.09518,0.21197 -0.130997,0.245962 -0.03572,0.03369 -0.07834,0.06088 -0.12775,0.08128 0.09914,0.02719 0.196851,0.118821 0.293552,0.274475 l 0.316788,0.511914 -0.252761,0 -0.257023,-0.417344 c -0.07052,-0.115269 -0.129881,-0.194416 -0.177166,-0.237743 -0.04759,-0.04292 -0.109181,-0.06443 -0.184675,-0.06443 l 0,0.719521 -0.203345,0 0,-1.53737 z m 1.95045,1.39987 c -0.07012,0.05946 -0.137491,0.101368 -0.201823,0.126025 -0.06484,0.02435 -0.134244,0.03653 -0.208419,0.03653 -0.122372,0 -0.21613,-0.02973 -0.281984,-0.0895 -0.06555,-0.05977 -0.09843,-0.136375 -0.09843,-0.229118 0,-0.05469 0.01207,-0.104514 0.03714,-0.149566 0.02476,-0.04515 0.05733,-0.08128 0.09741,-0.108471 0.04049,-0.02719 0.08554,-0.048 0.135969,-0.0619 0.03693,-0.0097 0.09274,-0.01938 0.167526,-0.02831 0.152509,-0.01826 0.264937,-0.03978 0.336879,-0.06514 7.1e-4,-0.02577 0.001,-0.04221 0.001,-0.04901 0,-0.07701 -0.01786,-0.131403 -0.05368,-0.162554 -0.04789,-0.04292 -0.119836,-0.06403 -0.21471,-0.06403 -0.08879,0 -0.154335,0.01532 -0.196851,0.04647 -0.04231,0.03115 -0.07346,0.08625 -0.09386,0.165395 l -0.184269,-0.02547 c 0.01674,-0.07874 0.04434,-0.142768 0.0826,-0.191067 0.03836,-0.0487 0.09416,-0.08625 0.166816,-0.112428 0.07265,-0.02618 0.156771,-0.03937 0.252761,-0.03937 0.09518,0 0.172194,0.01147 0.231554,0.03369 0.05946,0.02253 0.103093,0.05043 0.131403,0.08442 0.0279,0.03399 0.04728,0.07661 0.05865,0.128562 0.0061,0.03217 0.0093,0.09011 0.0093,0.173919 l 0,0.251645 c 0,0.175745 0.004,0.286753 0.01218,0.332922 0.0079,0.04647 0.02395,0.09122 0.04759,0.133838 l -0.197155,0 c -0.01938,-0.03906 -0.03227,-0.08483 -0.03765,-0.137491 z m -0.01573,-0.421606 c -0.06869,0.02821 -0.171484,0.05185 -0.308163,0.07154 -0.07772,0.01116 -0.132824,0.02364 -0.164685,0.03764 -0.03227,0.0139 -0.05733,0.0343 -0.07448,0.06149 -0.01755,0.02689 -0.02648,0.05662 -0.02648,0.0895 0,0.05053 0.01938,0.09244 0.05723,0.126025 0.03795,0.03328 0.09386,0.05013 0.167222,0.05013 0.07265,0 0.137491,-0.01573 0.19401,-0.04759 0.05652,-0.03186 0.09842,-0.07559 0.124909,-0.130693 0.0204,-0.04262 0.03044,-0.105528 0.03044,-0.188632 l 0,-0.0694 z m 0.575637,-0.554531 0.8769,0 0,1.11363 -0.187922,0 0,-0.957569 -0.500042,0 0,0.554836 c 0,0.129272 -0.0043,0.214811 -0.01248,0.256008 -0.0086,0.0411 -0.03156,0.07732 -0.06951,0.108065 -0.03754,0.03074 -0.09234,0.04617 -0.163569,0.04617 -0.04404,0 -0.09487,-0.0028 -0.152103,-0.0086 l 0,-0.157075 0.083,0 c 0.03907,0 0.06697,-0.0044 0.08381,-0.01218 0.01684,-0.0082 0.0279,-0.0208 0.03359,-0.03835 0.0058,-0.01745 0.0083,-0.07438 0.0083,-0.171078 l 0,-0.733828 z m 1.15249,1.54244 -0.02111,-0.177166 c 0.0415,0.01106 0.07732,0.01684 0.108167,0.01684 0.04181,0 0.07549,-0.0072 0.100557,-0.02111 0.02537,-0.014 0.04576,-0.03328 0.0619,-0.05875 0.01218,-0.01857 0.03115,-0.06545 0.05763,-0.140332 0.0036,-0.01075 0.0093,-0.02577 0.01684,-0.04617 l -0.422418,-1.11576 0.203345,0 0.23196,0.644738 c 0.02973,0.08199 0.05692,0.167831 0.08057,0.258037 0.02182,-0.08655 0.04759,-0.171078 0.07762,-0.253775 l 0.238048,-0.649 0.188632,0 -0.423433,1.1326 c -0.04546,0.122372 -0.08087,0.206491 -0.105934,0.252659 -0.03369,0.0623 -0.07194,0.107761 -0.115269,0.136781 -0.04373,0.02902 -0.09528,0.04363 -0.15535,0.04363 -0.03653,0 -0.07702,-0.0078 -0.121764,-0.02324 z m 1.08857,-1.54244 0.188632,0 0,0.957163 0.430231,0 0,-0.957163 0.188632,0 0,0.957163 0.431043,0 0,-0.957163 0.187516,0 0,1.11363 -1.42605,0 0,-1.11363 z"
   id="path28"
   style="fill:#2b2a29;fill-rule:nonzero" />
  <path
   d="m 26.6998,46.4155 0,-1.53737 -0.68147,0 c -0.137085,0 -0.241295,0.0139 -0.312526,0.0415 -0.07123,0.0276 -0.128156,0.0762 -0.171078,0.146015 -0.04262,0.07022 -0.06372,0.147537 -0.06372,0.23196 0,0.109181 0.03511,0.200808 0.105934,0.275591 0.07052,0.07489 0.179703,0.122474 0.327138,0.142869 -0.05398,0.02577 -0.09487,0.05114 -0.122778,0.07661 -0.05936,0.05439 -0.115574,0.122778 -0.168947,0.20436 l -0.267372,0.418461 0.255906,0 0.203345,-0.320035 c 0.05946,-0.09193 0.108471,-0.162859 0.147131,-0.211564 0.03825,-0.04901 0.07265,-0.08341 0.103093,-0.102687 0.03044,-0.01969 0.06119,-0.03328 0.09274,-0.0412 0.02324,-0.0047 0.06078,-0.0071 0.113443,-0.0071 l 0.235917,0 0,0.682586 0.203244,0 z m -0.203244,-0.858737 -0.437435,0 c -0.09274,0 -0.165801,-0.0096 -0.218058,-0.02902 -0.05256,-0.01928 -0.09234,-0.05002 -0.119531,-0.09234 -0.02719,-0.04221 -0.04079,-0.08808 -0.04079,-0.137796 0,-0.07265 0.02618,-0.132418 0.07915,-0.179297 0.05256,-0.04688 0.135968,-0.07022 0.250223,-0.07022 l 0.486445,0 0,0.508667 z m 0.513944,1.28542 0,-1.54031 0.171788,0 0,0.144696 c 0.04049,-0.05662 0.08625,-0.09924 0.137491,-0.127446 0.05084,-0.02831 0.112733,-0.04262 0.185385,-0.04262 0.09528,0 0.178992,0.02466 0.251645,0.07336 0.07306,0.04901 0.127852,0.118111 0.164685,0.207302 0.03724,0.08909 0.05581,0.186806 0.05581,0.293146 0,0.113849 -0.0204,0.216536 -0.06159,0.307859 -0.04079,0.09122 -0.10015,0.161032 -0.178181,0.209738 -0.07803,0.0483 -0.160018,0.07265 -0.245962,0.07265 -0.06301,0 -0.119227,-0.01329 -0.169251,-0.03978 -0.05013,-0.02648 -0.09092,-0.06007 -0.123184,-0.100556 l 0,0.541949 -0.188632,0 z m 0.170773,-0.977254 c 0,0.143275 0.02892,0.249209 0.08696,0.317904 0.05794,0.06839 0.128461,0.102687 0.210854,0.102687 0.08371,0 0.155654,-0.03541 0.21542,-0.106645 0.05977,-0.07083 0.0899,-0.180717 0.0899,-0.329675 0,-0.142057 -0.02933,-0.247992 -0.08777,-0.318919 -0.05834,-0.07052 -0.128055,-0.105934 -0.209027,-0.105934 -0.08047,0 -0.151697,0.03754 -0.213695,0.112733 -0.0619,0.07519 -0.09264,0.184675 -0.09264,0.327848 z m 1.78576,0.191879 0.195126,0.02405 c -0.03074,0.114153 -0.08767,0.202533 -0.170773,0.265546 -0.08341,0.06271 -0.189647,0.09416 -0.318919,0.09416 -0.162859,0 -0.29203,-0.05013 -0.387309,-0.150378 -0.09558,-0.10015 -0.143174,-0.240889 -0.143174,-0.422012 0,-0.187516 0.0483,-0.332922 0.144594,-0.436319 0.0967,-0.103499 0.22161,-0.15535 0.375539,-0.15535 0.148856,0 0.270619,0.05084 0.364682,0.152103 0.09457,0.101368 0.141753,0.244136 0.141753,0.427796 0,0.01147 -3.04e-4,0.02821 -0.001,0.05043 l -0.830427,0 c 0.0068,0.122474 0.0415,0.216232 0.103803,0.280969 0.0623,0.06514 0.139521,0.09772 0.23267,0.09772 0.0691,0 0.128156,-0.01816 0.177166,-0.05469 0.04901,-0.03623 0.08767,-0.09416 0.116284,-0.17402 z m -0.619573,-0.305322 0.621806,0 c -0.0083,-0.09345 -0.03227,-0.163873 -0.07123,-0.210448 -0.06017,-0.07265 -0.138202,-0.109181 -0.233786,-0.109181 -0.08666,0 -0.159612,0.02902 -0.218667,0.08696 -0.05916,0.05804 -0.09173,0.135665 -0.09812,0.23267 z m 1.05701,-0.449612 0.293552,0 0.292841,0.891309 0.325007,-0.891309 0.271634,0 0,1.11363 -0.188632,0 0,-0.896687 -0.329269,0.896687 -0.168947,0 -0.31141,-0.939609 0,0.939609 -0.184776,0 0,-1.11363 z m 1.40221,0 0.188936,0 0,0.210854 c 0,0.09061 0.0054,0.156771 0.01613,0.197561 0.01075,0.04089 0.03683,0.07661 0.07803,0.10705 0.0412,0.03044 0.09305,0.04546 0.15535,0.04546 0.07123,0 0.163569,-0.01897 0.276708,-0.05652 l 0,-0.504405 0.188936,0 0,1.11363 -0.188936,0 0,-0.448902 c -0.11598,0.03653 -0.224451,0.05449 -0.325007,0.05449 -0.08452,0 -0.159307,-0.02151 -0.22374,-0.06443 -0.06484,-0.04302 -0.108775,-0.09558 -0.131708,-0.157887 -0.02334,-0.0619 -0.0347,-0.130693 -0.0347,-0.205476 l 0,-0.291421 z m 1.91493,0.976138 c -0.07012,0.05946 -0.137491,0.101368 -0.201823,0.126025 -0.06484,0.02435 -0.134244,0.03653 -0.208419,0.03653 -0.122372,0 -0.21613,-0.02973 -0.281984,-0.0895 -0.06555,-0.05977 -0.09843,-0.136375 -0.09843,-0.229118 0,-0.05469 0.01207,-0.104514 0.03714,-0.149566 0.02476,-0.04515 0.05733,-0.08128 0.09741,-0.108471 0.04049,-0.02719 0.08554,-0.048 0.135969,-0.0619 0.03693,-0.0097 0.09274,-0.01938 0.167526,-0.02831 0.152509,-0.01826 0.264937,-0.03978 0.336879,-0.06514 7.1e-4,-0.02577 0.001,-0.04221 0.001,-0.04901 0,-0.07701 -0.01786,-0.131403 -0.05368,-0.162554 -0.04789,-0.04292 -0.119836,-0.06403 -0.21471,-0.06403 -0.08879,0 -0.154335,0.01532 -0.196851,0.04647 -0.04231,0.03115 -0.07346,0.08625 -0.09386,0.165395 l -0.184269,-0.02547 c 0.01674,-0.07874 0.04434,-0.142768 0.0826,-0.191067 0.03836,-0.0487 0.09416,-0.08625 0.166816,-0.112428 0.07265,-0.02618 0.156771,-0.03937 0.252761,-0.03937 0.09518,0 0.172194,0.01147 0.231554,0.03369 0.05946,0.02253 0.103093,0.05043 0.131403,0.08442 0.0279,0.03399 0.04728,0.07661 0.05865,0.128562 0.0061,0.03217 0.0093,0.0901 0.0093,0.173919 l 0,0.251645 c 0,0.175745 0.004,0.286753 0.01218,0.332922 0.0079,0.04647 0.02395,0.09122 0.04759,0.133838 l -0.197155,0 c -0.01938,-0.03907 -0.03227,-0.08483 -0.03765,-0.137491 z m -0.01573,-0.421606 c -0.0687,0.02821 -0.171484,0.05185 -0.308163,0.07154 -0.07773,0.01116 -0.132824,0.02364 -0.164685,0.03764 -0.03227,0.0139 -0.05733,0.0343 -0.07448,0.06149 -0.01755,0.02689 -0.02648,0.05662 -0.02648,0.0895 0,0.05053 0.01938,0.09244 0.05723,0.126025 0.03795,0.03328 0.09386,0.05013 0.167222,0.05013 0.07265,0 0.137491,-0.01573 0.19401,-0.04759 0.05652,-0.03186 0.09842,-0.07559 0.124909,-0.130693 0.0204,-0.04262 0.03044,-0.105528 0.03044,-0.188632 l 0,-0.06941 z"
   id="path30"
   style="fill:#2b2a29;fill-rule:nonzero" />
  <g
   id="_387104752">
   <path
   d="m 29.1965,26.0781 c 0.623734,0 1.14387,-0.494563 1.14387,-1.11809 0,-0.623226 -0.520133,-1.11738 -1.14387,-1.11738 -0.623937,0 -1.11789,0.494157 -1.11789,1.11738 0,0.623531 0.493954,1.11809 1.11789,1.11809 z"
   id="_387104848"
   style="fill:#fefefe;stroke:#2b2a29;stroke-width:0.156973" />
   <path
   d="m 29.1965,25.5835 c 0.337386,0 0.623734,-0.284724 0.623734,-0.623531 0,-0.337792 -0.286347,-0.597149 -0.623734,-0.597149 -0.337792,0 -0.598569,0.259356 -0.598569,0.597149 0,0.338807 0.260777,0.623531 0.598569,0.623531"
   id="_387104800"
   style="fill:none;stroke:#2b2a29;stroke-width:0.188429" />
  </g>
  <path
   d="m 25.1927,28.9162 0,-2.56241 0.413793,0 0,2.56241 -0.413793,0 z m 0.809423,-1.85608 0.860056,0 c 0.176151,0 0.308366,0.03998 0.395731,0.120546 0.08777,0.08057 0.131708,0.20162 0.131708,0.363363 0,0.103803 -0.02425,0.193908 -0.07204,0.270822 -0.0482,0.07701 -0.10837,0.128258 -0.181428,0.153929 0.102586,0.03166 0.178992,0.09011 0.229626,0.176557 0.05013,0.08655 0.07539,0.180819 0.07539,0.283405 0,0.144391 -0.04252,0.261893 -0.126938,0.351998 -0.08493,0.0901 -0.210549,0.135462 -0.376655,0.135462 l -0.935448,0 0,-1.85608 z m 0.396137,0.770865 0.253065,0 c 0.122169,0 0.210346,-0.01968 0.264836,-0.05784 0.05439,-0.03825 0.08158,-0.09903 0.08158,-0.182036 0,-0.07813 -0.02527,-0.133635 -0.0759,-0.16641 -0.05104,-0.03338 -0.141246,-0.05013 -0.270518,-0.05013 l -0.253065,0 0,0.45641 z m 0,0.770763 0.310294,0 c 0.111718,0 0.1933,-0.01725 0.244846,-0.05063 0.05104,-0.03399 0.07681,-0.09487 0.07681,-0.182036 0,-0.09061 -0.02963,-0.153321 -0.08828,-0.187922 -0.05875,-0.0346 -0.172803,-0.05124 -0.342663,-0.05124 l -0.201011,0 0,0.471834 z m 1.61611,-0.975427 -0.356463,-0.08057 c 0.04008,-0.1795 0.108877,-0.312019 0.206694,-0.398471 0.09822,-0.08595 0.243426,-0.129475 0.436218,-0.129475 0.175644,0 0.305931,0.02628 0.391774,0.07813 0.08554,0.05195 0.146116,0.117502 0.181022,0.19746 0.0348,0.07996 0.05236,0.226176 0.05236,0.439769 l -0.0043,0.573303 c 0,0.162859 0.0063,0.283405 0.01918,0.360927 0.01228,0.07701 0.03623,0.160525 0.07062,0.248803 l -0.389034,0 c -0.01005,-0.03277 -0.02283,-0.08118 -0.03775,-0.145 -0.0062,-0.02922 -0.01096,-0.0483 -0.0138,-0.05784 -0.06727,0.08168 -0.138912,0.142565 -0.215217,0.183761 -0.07641,0.04059 -0.157988,0.06088 -0.244846,0.06088 -0.152813,0 -0.273461,-0.05195 -0.361333,-0.155147 -0.08828,-0.103803 -0.132215,-0.235105 -0.132215,-0.393804 0,-0.104412 0.01999,-0.198069 0.06017,-0.280361 0.04008,-0.08239 0.0964,-0.145 0.16844,-0.188531 0.07204,-0.04353 0.176557,-0.08179 0.312628,-0.114559 0.183356,-0.04292 0.3107,-0.08351 0.381424,-0.120546 l 0,-0.04891 c 0,-0.09487 -0.01867,-0.161641 -0.05591,-0.202229 -0.03724,-0.03998 -0.107355,-0.06027 -0.210955,-0.06027 -0.07012,0 -0.124605,0.01735 -0.163772,0.05195 -0.03907,0.03399 -0.07062,0.09427 -0.09497,0.180717 z m 0.525613,0.398573 c -0.05023,0.0209 -0.129881,0.04597 -0.239164,0.07519 -0.108877,0.02922 -0.180007,0.05784 -0.213796,0.08523 -0.05114,0.04597 -0.07691,0.103296 -0.07691,0.173108 0,0.0692 0.0205,0.128257 0.06159,0.178384 0.04099,0.05002 0.09305,0.07509 0.156568,0.07509 0.07103,0 0.138405,-0.02922 0.202838,-0.08706 0.04769,-0.04414 0.07874,-0.09842 0.09345,-0.162859 0.01055,-0.04181 0.01542,-0.121764 0.01542,-0.239265 l 0,-0.09782 z m 0.757775,-0.964773 0.393296,0 0,0.679542 0.561736,0 0,-0.679542 0.394818,0 0,1.85608 -0.394818,0 0,-0.779794 -0.561736,0 0,0.779794 -0.393296,0 0,-1.85608 z m 1.65436,0.901557 c 0,-0.16296 0.03247,-0.32105 0.0964,-0.473762 0.06443,-0.152103 0.155654,-0.269097 0.273461,-0.349055 0.117908,-0.08047 0.249615,-0.121053 0.395224,-0.121053 0.224349,0 0.408517,0.09122 0.552198,0.273866 0.143681,0.182544 0.215318,0.412778 0.215318,0.691414 0,0.280462 -0.07265,0.513132 -0.217246,0.698009 -0.145102,0.184979 -0.327442,0.276911 -0.547429,0.276911 -0.136477,0 -0.26585,-0.03825 -0.38944,-0.115168 -0.12359,-0.07701 -0.217652,-0.189748 -0.282085,-0.3383 -0.06393,-0.148551 -0.0964,-0.32937 -0.0964,-0.542862 z m 0.402834,0.02618 c 0,0.18437 0.0348,0.32521 0.10492,0.423027 0.06981,0.09782 0.156162,0.146725 0.258747,0.146725 0.102586,0 0.188531,-0.04891 0.257733,-0.146725 0.06961,-0.09782 0.104514,-0.239874 0.104514,-0.426578 0,-0.181326 -0.03491,-0.321557 -0.104514,-0.419374 -0.0692,-0.09792 -0.155147,-0.146827 -0.257733,-0.146827 -0.102586,0 -0.188936,0.04891 -0.258747,0.146827 -0.07012,0.09782 -0.10492,0.239164 -0.10492,0.422925 z m 1.39267,0.244643 0,-0.491011 0.771778,0 0,0.491011 -0.771778,0 z m -10.1642,3.48883 0,0.298929 -0.405168,0 0,-0.298929 c -0.327442,-0.01492 -0.558489,-0.116284 -0.693037,-0.30309 -0.134549,-0.187313 -0.201925,-0.4212 -0.201925,-0.70217 0,-0.295885 0.07022,-0.533324 0.210955,-0.711708 0.14084,-0.178992 0.368943,-0.276302 0.684007,-0.291218 l 0,-0.253573 0.405168,0 0,0.253573 c 0.325514,0.01492 0.556053,0.115168 0.691515,0.300756 0.135563,0.184878 0.203345,0.419983 0.203345,0.703996 0,0.282187 -0.06727,0.516074 -0.20233,0.70217 -0.135563,0.185588 -0.366102,0.286347 -0.69253,0.301263 z m 0,-0.431956 c 0.108268,0 0.201417,-0.02263 0.279143,-0.06798 0.07793,-0.04536 0.13323,-0.106746 0.1657,-0.183153 0.03237,-0.07691 0.04911,-0.189748 0.04911,-0.337691 0,-0.370466 -0.164584,-0.556053 -0.493954,-0.556053 l 0,1.14488 z m -0.405168,0 0,-1.14488 c -0.174223,0 -0.300249,0.04891 -0.377568,0.146218 -0.07732,0.09721 -0.11598,0.244643 -0.11598,0.441494 0,0.371683 0.164178,0.55717 0.493548,0.55717 z m 1.61895,-1.1252 0.36661,0 0,0.272649 c 0.04718,-0.09366 0.111617,-0.169353 0.192792,-0.227292 0.08118,-0.05845 0.171281,-0.08767 0.270112,-0.08767 0.172295,0 0.318817,0.08473 0.438552,0.253573 0.120343,0.168845 0.180514,0.404458 0.180514,0.70633 0,0.309685 -0.06068,0.550676 -0.181326,0.722565 -0.121358,0.171788 -0.268286,0.257733 -0.440581,0.257733 -0.08219,0 -0.156568,-0.02029 -0.223436,-0.06088 -0.06626,-0.0412 -0.136477,-0.111008 -0.210448,-0.210042 l 0,0.93555 -0.392789,0 0,-2.56251 z m 0.388933,0.896687 c 0,0.208216 0.03298,0.362754 0.09934,0.461788 0.06585,0.09964 0.146522,0.149769 0.242005,0.149769 0.09112,0 0.167019,-0.04597 0.227698,-0.137187 0.06048,-0.09132 0.09112,-0.241599 0.09112,-0.449815 0,-0.195126 -0.03156,-0.339517 -0.09406,-0.433783 -0.06251,-0.09427 -0.139927,-0.141347 -0.23196,-0.141347 -0.09589,0 -0.175644,0.04586 -0.239164,0.139013 -0.06342,0.09244 -0.09498,0.229626 -0.09498,0.411561 z m 1.66532,-0.330486 -0.356564,-0.08057 c 0.04008,-0.1795 0.108877,-0.312019 0.206694,-0.398471 0.09832,-0.08594 0.243426,-0.129475 0.436218,-0.129475 0.175644,0 0.305931,0.02628 0.391876,0.07813 0.08544,0.05195 0.146015,0.117502 0.18092,0.19746 0.0348,0.07996 0.05246,0.226176 0.05246,0.439769 l -0.0044,0.573303 c 0,0.162859 0.0063,0.283405 0.01918,0.360927 0.01238,0.07701 0.03622,0.160525 0.07062,0.248803 l -0.389034,0 c -0.01005,-0.03278 -0.02283,-0.08118 -0.03775,-0.145 -0.0061,-0.02922 -0.01096,-0.0483 -0.0138,-0.05784 -0.06727,0.08168 -0.13881,0.142565 -0.215217,0.183761 -0.07641,0.04059 -0.157988,0.06088 -0.244846,0.06088 -0.152813,0 -0.273461,-0.05195 -0.361333,-0.155147 -0.08828,-0.103803 -0.132215,-0.235105 -0.132215,-0.393804 0,-0.104412 0.02009,-0.198069 0.06017,-0.280361 0.04008,-0.08239 0.0964,-0.145 0.168541,-0.188531 0.07194,-0.04353 0.176557,-0.08179 0.312526,-0.114559 0.183356,-0.04292 0.3107,-0.08351 0.381424,-0.120546 l 0,-0.04891 c 0,-0.09487 -0.01867,-0.161641 -0.05591,-0.202229 -0.03724,-0.03998 -0.107355,-0.06027 -0.210955,-0.06027 -0.07012,0 -0.124605,0.01735 -0.16367,0.05195 -0.03917,0.03399 -0.07062,0.09427 -0.09498,0.180717 z m 0.525511,0.398573 c -0.05023,0.0209 -0.129881,0.04597 -0.239164,0.07519 -0.108877,0.02922 -0.180007,0.05784 -0.213796,0.08524 -0.05104,0.04596 -0.07691,0.103296 -0.07691,0.173107 0,0.0692 0.0206,0.128258 0.06159,0.178384 0.04099,0.05002 0.09305,0.07509 0.156568,0.07509 0.07113,0 0.138405,-0.02922 0.202838,-0.08706 0.04769,-0.04414 0.07874,-0.09843 0.09356,-0.162859 0.01055,-0.04181 0.01532,-0.121764 0.01532,-0.239265 l 0,-0.09782 z m 0.757876,-0.964773 0.393296,0 0,0.679542 0.561736,0 0,-0.679542 0.394717,0 0,1.85608 -0.394717,0 0,-0.779794 -0.561736,0 0,0.779794 -0.393296,0 0,-1.85608 z m 1.72965,0 0.391876,0 0,0.758282 c 0.06494,-0.0089 0.111211,-0.03399 0.138405,-0.07509 0.02679,-0.04059 0.05966,-0.130084 0.09782,-0.267372 0.05013,-0.183153 0.105528,-0.300046 0.165193,-0.351389 0.05966,-0.05124 0.137897,-0.07691 0.234801,-0.07691 0.02953,0 0.08158,0.0029 0.155147,0.0089 l 0.0013,0.325109 c -0.103499,0 -0.16986,0.01197 -0.198475,0.03643 -0.02912,0.02567 -0.06007,0.102078 -0.09356,0.229118 -0.04576,0.171179 -0.111718,0.276809 -0.197054,0.316179 0.12359,0.04353 0.22851,0.177775 0.314454,0.40395 0.0043,0.01187 0.0095,0.02385 0.01532,0.03693 l 0.219479,0.511914 -0.422316,0 -0.195735,-0.536368 c -0.04008,-0.108572 -0.07488,-0.178384 -0.104108,-0.209433 -0.02953,-0.03034 -0.07296,-0.04586 -0.130693,-0.04586 l 0,0.791666 -0.391876,0 0,-1.85608 z m 1.44909,-0.251746 0,-0.454584 0.392789,0 0,0.454584 -0.392789,0 z m 0,2.10783 0,-1.85608 0.392789,0 0,1.85608 -0.392789,0 z m 0.799378,-1.85608 0.860056,0 c 0.176151,0 0.308366,0.03998 0.395731,0.120546 0.08777,0.08057 0.131708,0.20162 0.131708,0.363363 0,0.103803 -0.02425,0.193908 -0.07204,0.270822 -0.0482,0.07702 -0.10837,0.128258 -0.181428,0.153929 0.102586,0.03166 0.178992,0.09011 0.229626,0.176557 0.05013,0.08655 0.07539,0.180819 0.07539,0.283405 0,0.144391 -0.04252,0.261893 -0.126938,0.351998 -0.08493,0.0901 -0.210549,0.135462 -0.376655,0.135462 l -0.935448,0 0,-1.85608 z m 0.396137,0.770865 0.253065,0 c 0.122169,0 0.210346,-0.01969 0.264836,-0.05784 0.05439,-0.03825 0.08158,-0.09903 0.08158,-0.182036 0,-0.07813 -0.02527,-0.133635 -0.0759,-0.16641 -0.05104,-0.03338 -0.141246,-0.05012 -0.270518,-0.05012 l -0.253065,0 0,0.45641 z m 0,0.770763 0.310294,0 c 0.111718,0 0.1933,-0.01725 0.244846,-0.05063 0.05104,-0.03399 0.07681,-0.09487 0.07681,-0.182036 0,-0.09061 -0.02963,-0.153321 -0.08828,-0.187922 -0.05875,-0.0346 -0.172803,-0.05124 -0.342663,-0.05124 l -0.201011,0 0,0.471834 z m 2.58413,-0.992677 -0.387614,0.08706 c -0.01289,-0.0966 -0.04252,-0.169454 -0.08879,-0.218363 -0.04637,-0.04891 -0.106036,-0.07336 -0.1795,-0.07336 -0.09822,0 -0.176151,0.04231 -0.234293,0.126431 -0.05824,0.08473 -0.08736,0.226176 -0.08736,0.424244 0,0.220088 0.02963,0.375843 0.08879,0.466557 0.05916,0.09061 0.138405,0.135969 0.238149,0.135969 0.07499,0 0.135563,-0.02618 0.183254,-0.07935 0.04769,-0.05307 0.08117,-0.144391 0.100759,-0.273258 l 0.386092,0.08179 c -0.04008,0.221305 -0.1174,0.388933 -0.230945,0.501767 -0.113646,0.113342 -0.26585,0.169454 -0.457323,0.169454 -0.217145,0 -0.390354,-0.08534 -0.51922,-0.256617 -0.129374,-0.171179 -0.193807,-0.408618 -0.193807,-0.711708 0,-0.306032 0.06494,-0.544689 0.194213,-0.715361 0.129881,-0.171179 0.305018,-0.256515 0.526018,-0.256515 0.18092,0 0.324601,0.04891 0.431449,0.146116 0.106442,0.09731 0.183254,0.245861 0.230133,0.445147 z m 0.305829,-0.548951 0.392789,0 0,0.770865 0.394818,0 c 0.15464,0 0.273461,0.0137 0.356463,0.0417 0.0831,0.02811 0.151697,0.08838 0.206694,0.180819 0.0554,0.09244 0.0826,0.200504 0.0826,0.322775 0,0.178992 -0.04921,0.314353 -0.147537,0.404458 -0.09832,0.09011 -0.245759,0.135462 -0.442509,0.135462 l -0.843314,0 0,-1.85608 z m 0.392789,1.54528 0.36661,0 c 0.114559,0 0.188023,-0.02384 0.219986,-0.07042 0.03247,-0.04657 0.04871,-0.102078 0.04871,-0.165903 0,-0.0895 -0.02821,-0.151494 -0.08351,-0.185486 -0.0554,-0.03338 -0.153726,-0.05073 -0.295479,-0.05073 l -0.256312,0 0,0.472544 z m 1.34356,-1.54528 0.391876,0 0,0.758282 c 0.06494,-0.0089 0.111211,-0.03399 0.138405,-0.07509 0.02679,-0.04059 0.05966,-0.130084 0.09782,-0.267372 0.05013,-0.183153 0.105528,-0.300046 0.165193,-0.351389 0.05966,-0.05124 0.137897,-0.07691 0.234801,-0.07691 0.02953,0 0.08158,0.0029 0.155147,0.0089 l 0.0013,0.325109 c -0.103499,0 -0.16986,0.01197 -0.198475,0.03643 -0.02912,0.02567 -0.06007,0.102078 -0.09356,0.229118 -0.04576,0.171179 -0.111718,0.276809 -0.197054,0.316179 0.12359,0.04353 0.22851,0.177775 0.314454,0.40395 0.0043,0.01187 0.0095,0.02384 0.01532,0.03693 l 0.219479,0.511914 -0.422316,0 -0.195735,-0.536368 c -0.04008,-0.108572 -0.07489,-0.178384 -0.104108,-0.209433 -0.02953,-0.03034 -0.07296,-0.04587 -0.130693,-0.04587 l 0,0.791666 -0.391876,0 0,-1.85608 z"
   id="path35"
   style="fill:#2b2a29;fill-rule:nonzero" />
 </g>
</svg>