<?xml version="1.0" encoding="UTF-8" standalone="no"?>
<!-- Created with Inkscape (http://www.inkscape.org/) -->

<svg
   xmlns:svg="http://www.w3.org/2000/svg"
   xmlns="http://www.w3.org/2000/svg"
   version="1.1"
   width="78.562302mm"
   height="73.836403mm"
   viewBox="0 0 77.5582 72.8927"
   id="svg2"
   xml:space="preserve"
   style="fill-rule:evenodd">
 <defs
   id="defs4">
  <style
   type="text/css"
   id="style6" />
 </defs>
 <g
   id="Layer_x0020_1">
  
  <path
   d="m 1.41143,15.8394 0.858683,-1.26097 1.58903,-0.126364 0.12587,0.807446 1.13461,-0.07552 0.201985,-1.91708 1.31211,-1.26107 1.79101,0.530038 0.60635,-1.33709 1.86486,-0.403674 -0.605067,-0.9078473 0.12587,-0.88287 1.46276,0.680786 0.07651,-1.33669 1.05948,-0.252531 2.11778,2.1187703 0.605461,-0.2774093 -0.479591,-1.05909 1.13491,0.327855 c 0,0 0,-0.932922 0.656106,-0.983961 0.68128,-0.075325 0.731924,0 0.731924,0 l -0.12587,0.732122 1.26147,-0.404069 0.326868,-1.33689 1.387931,-0.12587 0.731528,-1.05899 0.276619,-1.26196 1.59031,-0.604474 0.780495,-1.11082 2.47219,-0.201195 3.37965,0.8574 1.46257,1.18516 1.18624,1.33798 -0.201689,1.46247 2.26991,0.857202 2.24503,-1.53898 3.50542,1.21092 0.806064,2.1190703 1.38833,-0.327855 0.40239,-1.6648503 5.97899,-3.78332 2.44574,0.529939 1.79101,-1.05968 1.992311,-0.125278 1.66514,-1.58952 0.529248,-1.05929 1.79101,-0.076016 1.43729,-1.18535 1.08456,0.252531 -0.201689,1.13491 -0.730838,0 0.125179,1.86594 2.52225,1.91718 1.1352,-0.655711 0.781877,0.782075 -0.251938,3.17746 0.73222,1.1354 1.63859,1.3875402 0.327558,1.21073 1.21112,0.856906 2.39638,0.529742 2.8504,2.64891 0.781285,-0.202182 1.00874,1.05879 0.832917,0.883857 -0.908735,0.78089 0.984257,1.51351 0.680589,0.731529 -1.58903,0.202084 -0.277211,0.933712 1.53868,0.806064 -1.41281,1.38764 -1.38625,0.126364 0.402983,1.05938 0.983271,0.12587 0.327163,1.41281 0.481269,0.781384 -0.07651,0.730838 -0.857795,0.328744 -0.655711,2.79965 -1.33561,-0.07542 -0.201985,0.806755 1.0584,0.126265 -1.71549,0.983665 -0.07552,3.12731 0.605067,0.126364 0,1.05889 0.808039,0.681082 -0.07651,2.04265 0.656106,0.47969 1.26078,0.126759 -0.05035,0.730147 -1.13461,0.126759 0.201689,0.807249 -0.730937,0.731529 -0.07651,0.579892 0.02557,0.25184 -0.352733,0.807249 -1.33758,-0.125673 -3.7075,-0.807249 -0.125476,0.403871 -1.66623,0.07532 -0.401996,0.604672 -0.73222,1.63977 2.59737,1.21092 -1.13431,0.907847 -1.79091,0.353227 -0.12587,0.58009 0.327558,1.21112 -1.790419,0.983566 -0.125082,1.79012 -1.059779,-0.125969 -0.656797,0.933613 -0.807052,-0.07592 0,0.655711 1.71519,1.21102 -0.12587,0.529347 -1.7148,-0.277409 -0.327559,0.403279 -1.01042,0.201985 -0.78089,1.46316 0,2.04285 -1.53759,-0.453923 0,-1.1354 -0.858091,-0.07572 -0.404464,1.86673 -1.05909,-0.453726 -0.730542,1.05909 1.3363,1.46296 -0.479196,0.52984 -1.7148,-1.9928 -0.403773,0.529051 -0.580584,-0.529051 -1.66376,0.126364 -0.203367,1.13441 -0.932231,0.05055 -0.730937,-0.983961 -0.52984,0.404167 -0.606054,-0.202479 -0.858091,0.933909 0.201985,1.10963 0.656106,0.529347 c 0,0 0.883561,1.46266 0.807743,1.53898 -0.07621,0.04985 -0.605758,0.454022 -0.605758,0.454022 l 0.151045,1.21033 0.3785,0 0,0.655908 0.529544,0.8574 -0.377513,-0.630438 -0.933909,0.100894 -0.200998,-0.530137 -0.933909,0.202281 0,1.18535 -1.18496,0.152032 -2.72522,-2.27021 -2.06783,2.72374 -0.327559,0.983764 0.277507,0.933317 -0.857104,0.327461 -0.883561,-0.655513 -0.579201,0.732023 -0.403674,-0.530729 0.453331,-1.1351 -1.31182,-1.51281 0.53063,-1.00874 -1.74175,-1.63977 -1.38625,-0.806558 0.277902,-0.731628 -0.807446,-0.807743 0.277902,-0.907254 -0.731924,-0.681477 -1.66485,-0.201393 0.126167,-0.857597 -0.858091,-0.202182 0.126561,-0.907748 -0.528557,-0.403378 0.326868,-1.00923 -0.907748,-0.857202 -0.882574,-0.40318 0.681872,-1.38773 -1.2128,-0.983566 -0.907353,1.26097 -0.731628,0.3785 -0.480578,0.680786 -0.728864,0.202281 -0.580485,0.579794 -1.21112,-0.529939 -1.79003,0.202084 -0.40476,-0.857992 -0.984257,0.454812 -0.528458,-0.656303 -3.128,0.125179 -1.31073,-1.10855 -1.38803,-0.201886 -1.13461,-1.38724 -0.806657,-0.07641 -0.126561,-0.730542 -1.26246,-0.8574 -0.654329,0.529051 -0.605461,-0.529051 0.656106,-0.731529 -1.4389705,-1.05998 -2.52126,0.05104 -0.680194,0.503975 0.075127,0.176712 -0.202972,-0.403871 -0.529248,-1.53828 -0.52984,-0.177107 -0.529248,-1.41261 0.983863,-3.10155 4.51357,0.933021 1.1357001,-0.151341 0.07513,0.479394 1.06077,-0.479394 -0.201689,-1.18545 1.84136,-2.26952 -0.781877,-0.176613 0.04936,-2.2706 -0.78168,-0.05015 0.32825,-1.66445 3.25308,0.454516 0.454022,-1.26147 -1.46345,-0.327855 -0.781581,-1.26147 2.04374,-0.327954 -1.59031,-3.50581 -1.25811,0.251938 -1.91984,-0.251938 -0.856709,-1.33719 -0.9329217,-0.402884 -0.404069,-3.98501 -2.11788,-0.580189 -2.24503,0.125673 0,-0.529347 0.933317,-0.857597 -1.1356,-0.07532 -0.806064,0.806657 -2.04344,-1.46276 -0.731529,-0.201985 -0.328547,-1.26097 -0.528853,-0.07602 -0.151637,-0.731233 0.731134,-1.51311 0.530235,-1.86624 0.479196,-1.11023 -0.151242,-1.3361 -0.353128,-0.177008 0.175231,-0.227159 z"
   id="path10"
   style="fill:#ffdf49" />
  <g
   id="_380436192">
   <path
   d="m 64.9701,27.8438 c 0.46498,0 0.85276,-0.367739 0.85276,-0.833509 0,-0.465079 -0.38778,-0.832917 -0.85276,-0.832917 -0.444446,0 -0.813863,0.367838 -0.813863,0.832917 0,0.46577 0.369417,0.833509 0.813863,0.833509 z"
   id="_380436288"
   style="fill:#fefefe;stroke:#2b2a29;stroke-width:0.116985" />
   <path
   d="m 64.9813,27.2098 c 0.108495,0 0.199023,-0.09171 0.199023,-0.199517 0,-0.107409 -0.09053,-0.198727 -0.199023,-0.198727 -0.09961,0 -0.182636,0.09132 -0.182636,0.198727 0,0.107804 0.08302,0.199517 0.182636,0.199517 z"
   id="_380436240"
   style="fill:#2b2a29;stroke:#2b2a29;stroke-width:0.0752261" />
  </g>
  <g
   id="_380434968">
   <path
   d="m 59.6791,46.9851 c 0.464585,0 0.852661,-0.368331 0.852661,-0.833608 0,-0.465079 -0.388076,-0.833213 -0.852661,-0.833213 -0.445236,0 -0.813863,0.368134 -0.813863,0.833213 0,0.465276 0.368628,0.833608 0.813863,0.833608 z"
   id="_380436120"
   style="fill:#fefefe;stroke:#2b2a29;stroke-width:0.116985" />
   <path
   d="m 59.6899,46.3508 c 0.108199,0 0.19932,-0.09132 0.19932,-0.19932 0,-0.107409 -0.09112,-0.199122 -0.19932,-0.199122 -0.100301,0 -0.181253,0.09171 -0.181253,0.199122 0,0.108002 0.08095,0.19932 0.181253,0.19932 z"
   id="_380436048"
   style="fill:#2b2a29;stroke:#2b2a29;stroke-width:0.0752261" />
  </g>
  <g
   id="_380434800">
   <path
   d="m 37.4736,60.7375 c 0.46498,0 0.852661,-0.368134 0.852661,-0.833509 0,-0.46498 -0.387681,-0.832917 -0.852661,-0.832917 -0.444545,0 -0.812185,0.367937 -0.812185,0.832917 0,0.465375 0.36764,0.833509 0.812185,0.833509 z"
   id="_380434896"
   style="fill:#fefefe;stroke:#2b2a29;stroke-width:0.116985" />
   <path
   d="m 37.4848,60.1036 c 0.108792,0 0.199912,-0.09132 0.199912,-0.199616 0,-0.107212 -0.09112,-0.198628 -0.199912,-0.198628 -0.09902,0 -0.180957,0.09142 -0.180957,0.198628 0,0.108298 0.08194,0.199616 0.180957,0.199616 z"
   id="_380434848"
   style="fill:#2b2a29;stroke:#2b2a29;stroke-width:0.0752261" />
  </g>
  <path
   d="m 60.5831,23.9224 0.197839,0 0,0.65502 c 0.09053,0 0.153907,-0.01738 0.190829,-0.05252 0.03653,-0.03524 0.08362,-0.119157 0.140679,-0.252531 0.04146,-0.09783 0.07562,-0.167136 0.10277,-0.207612 0.02675,-0.04038 0.06506,-0.07444 0.114517,-0.10198 0.04986,-0.02754 0.104546,-0.04146 0.164372,-0.04146 0.07631,0 0.116393,6.91e-4 0.120539,0.0021 l 0,0.171381 c -0.007,0 -0.02024,-3.95e-4 -0.04008,-0.0011 -0.02152,-6.91e-4 -0.03475,-9.87e-4 -0.03969,-9.87e-4 -0.06338,0 -0.110075,0.0153 -0.140679,0.04591 -0.0313,0.0307 -0.06723,0.09616 -0.107311,0.196062 -0.05015,0.126463 -0.0926,0.20623 -0.12745,0.239302 -0.03475,0.03278 -0.07621,0.05923 -0.124291,0.07908 0.09645,0.02646 0.19152,0.115603 0.285602,0.267043 l 0.30821,0.498052 -0.245916,0 -0.250063,-0.406043 c -0.06861,-0.112148 -0.126364,-0.189151 -0.172368,-0.231305 -0.0463,-0.04176 -0.106225,-0.06269 -0.179674,-0.06269 l 0,0.700037 -0.197839,0 0,-1.49574 z m 1.18229,1.91293 -0.02053,-0.172368 c 0.04038,0.01076 0.07523,0.01639 0.105238,0.01639 0.04067,0 0.07345,-0.007 0.09783,-0.02053 0.02468,-0.01362 0.04452,-0.03238 0.06022,-0.05716 0.01185,-0.01807 0.03031,-0.06368 0.05607,-0.136532 0.0035,-0.01046 0.0091,-0.02508 0.01639,-0.04492 l -0.410979,-1.08555 0.197839,0 0.225678,0.627279 c 0.02893,0.07977 0.05538,0.163286 0.07839,0.25105 0.02123,-0.08421 0.0463,-0.166445 0.07552,-0.246903 l 0.231602,-0.631425 0.183524,0 -0.411967,1.10193 c -0.04423,0.119059 -0.07868,0.200899 -0.103066,0.245818 -0.03278,0.06062 -0.06999,0.104843 -0.112148,0.133077 -0.04255,0.02824 -0.0927,0.04245 -0.151143,0.04245 -0.03554,0 -0.07493,-0.0076 -0.118466,-0.02261 z m 1.05386,-1.50067 0.855327,0 0,1.08347 -0.183919,0 0,-0.931639 -0.487489,0 0,0.931639 -0.183919,0 0,-1.08347 z m 1.13145,0.11738 -0.04669,-0.27958 0,-0.250063 0.208994,0 0,0.250063 -0.04877,0.27958 -0.11353,0 z m 1.2513,-0.11738 0,1.08347 -0.182833,0 0,-0.422431 -0.10583,0 c -0.06476,0 -0.112839,0.0084 -0.144529,0.02508 -0.03169,0.01668 -0.07769,0.07039 -0.138309,0.160522 l -0.160127,0.236834 -0.227455,0 0.197839,-0.291822 c 0.06062,-0.08915 0.120836,-0.139297 0.18076,-0.150847 -0.104843,-0.01461 -0.182537,-0.05222 -0.233379,-0.11353 -0.05045,-0.06091 -0.07592,-0.131596 -0.07592,-0.210969 0,-0.09408 0.03307,-0.169999 0.09961,-0.228541 0.06614,-0.05844 0.162299,-0.08776 0.287972,-0.08776 l 0.502198,0 z m -0.182833,0.151834 -0.261218,0 c -0.109285,0 -0.17997,0.01708 -0.21166,0.05124 -0.03139,0.03376 -0.04739,0.07384 -0.04739,0.119157 0,0.06476 0.0233,0.112049 0.06999,0.142357 0.0467,0.03031 0.128832,0.04561 0.247298,0.04561 l 0.202972,0 0,-0.358361 z m 0.462117,-0.151834 0.183919,0 0,0.45106 0.509109,0 0,-0.45106 0.183524,0 0,1.08347 -0.183524,0 0,-0.480578 -0.509109,0 0,0.480578 -0.183919,0 0,-1.08347 z m 1.86002,0.686413 0.180365,0.02369 c -0.01945,0.12439 -0.06999,0.221828 -0.151439,0.292217 -0.08115,0.07039 -0.181056,0.105534 -0.299522,0.105534 -0.147984,0 -0.267438,-0.04837 -0.357275,-0.14522 -0.09023,-0.09685 -0.135545,-0.235748 -0.135545,-0.416903 0,-0.116985 0.01955,-0.21936 0.05825,-0.307124 0.03899,-0.08776 0.09783,-0.153611 0.177206,-0.197444 0.07908,-0.04393 0.165458,-0.06585 0.258454,-0.06585 0.117677,0 0.214128,0.02991 0.288663,0.08954 0.07493,0.05953 0.122909,0.143838 0.144233,0.253518 l -0.178687,0.02744 c -0.01708,-0.07276 -0.04699,-0.12745 -0.09023,-0.164372 -0.04314,-0.03653 -0.09537,-0.05499 -0.156672,-0.05499 -0.0927,0 -0.167926,0.03307 -0.225678,0.09961 -0.05785,0.06614 -0.08678,0.170986 -0.08678,0.314429 0,0.145615 0.02794,0.251445 0.08401,0.317687 0.05568,0.06575 0.128437,0.09882 0.218274,0.09882 0.07217,0 0.131991,-0.02221 0.180464,-0.06644 0.04837,-0.04423 0.07908,-0.112148 0.09191,-0.204157 z m 0.334667,-0.686413 0.183524,0 0,0.423221 0.232688,0 c 0.151834,0 0.268524,0.02952 0.350364,0.08845 0.08214,0.05884 0.122909,0.139988 0.122909,0.243349 0,0.09023 -0.03416,0.167926 -0.102375,0.231996 -0.06832,0.06437 -0.177601,0.09645 -0.328053,0.09645 l -0.459057,0 0,-1.08347 z m 0.183524,0.93233 0.193001,0 c 0.116294,0 0.199122,-0.01431 0.248977,-0.04284 0.04946,-0.02853 0.07414,-0.07315 0.07414,-0.133373 0,-0.04699 -0.01807,-0.08885 -0.05499,-0.125673 -0.03653,-0.03663 -0.118071,-0.05509 -0.243744,-0.05509 l -0.217386,0 0,0.356978 z m 0.907156,-0.93233 0.183524,0 0,0.468139 c 0.05854,0 0.09961,-0.01116 0.123007,-0.03347 0.0233,-0.02261 0.05775,-0.08776 0.103362,-0.196062 0.03623,-0.08569 0.06555,-0.142061 0.08776,-0.169308 0.02271,-0.02715 0.04847,-0.04561 0.07769,-0.05499 0.02922,-0.0098 0.07631,-0.01431 0.140679,-0.01431 l 0.03692,0 0,0.151834 -0.05114,-9.87e-4 c -0.04808,0 -0.07908,0.0073 -0.0927,0.02162 -0.01422,0.01491 -0.03623,0.05953 -0.06545,0.133669 -0.02784,0.07069 -0.05331,0.119454 -0.07661,0.146602 -0.023,0.02754 -0.05884,0.05232 -0.106916,0.07454 0.07868,0.02132 0.156375,0.09477 0.232589,0.220446 l 0.200998,0.335753 -0.201985,0 -0.196062,-0.335753 c -0.04008,-0.06723 -0.07523,-0.111753 -0.104843,-0.132978 -0.02991,-0.02162 -0.06585,-0.03208 -0.107311,-0.03208 l 0,0.500816 -0.183524,0 0,-1.08347 z"
   id="path21"
   style="fill:#2b2a29;fill-rule:nonzero" />
  <path
   d="m 57.7053,48.9987 0,-1.49574 0.197839,0 0,1.49574 -0.197839,0 z m 0.76312,-0.489661 0,-0.143838 c 0.07769,-6.91e-4 0.130214,-0.0038 0.158844,-0.0094 0.02814,-0.0052 0.05459,-0.02162 0.08006,-0.04877 0.02508,-0.02715 0.03761,-0.06131 0.03761,-0.102078 0,-0.04976 -0.01639,-0.08944 -0.04946,-0.119059 -0.03307,-0.02962 -0.07552,-0.04423 -0.128141,-0.04423 -0.103461,0 -0.175922,0.06091 -0.217287,0.182438 l -0.17454,-0.02853 c 0.0544,-0.203367 0.185597,-0.305051 0.3939,-0.305051 0.115603,0 0.206131,0.03169 0.271979,0.09507 0.06545,0.06308 0.09852,0.138606 0.09852,0.226369 0,0.08845 -0.04314,0.158844 -0.128832,0.211364 0.05469,0.02932 0.09546,0.06654 0.122613,0.111457 0.02715,0.04531 0.04077,0.09892 0.04077,0.160917 0,0.09714 -0.03524,0.176219 -0.106225,0.236834 -0.07068,0.06022 -0.169604,0.09053 -0.296758,0.09053 -0.246903,0 -0.39005,-0.10968 -0.429736,-0.329435 l 0.172763,-0.03663 c 0.0157,0.0693 0.04739,0.123007 0.09537,0.160917 0.04778,0.0383 0.10277,0.05716 0.164767,0.05716 0.0616,0 0.113135,-0.01747 0.154599,-0.05222 0.04107,-0.03524 0.0617,-0.07977 0.0617,-0.134459 0,-0.04215 -0.01293,-0.07868 -0.03899,-0.110075 -0.02586,-0.03129 -0.05331,-0.05084 -0.08263,-0.05854 -0.02922,-0.008 -0.08214,-0.01175 -0.15914,-0.01175 -0.0059,0 -0.02014,2.96e-4 -0.04176,9.88e-4 z m 0.720275,-0.593812 0.18382,0 0,0.452739 0.222223,0 c 0.01639,-0.154895 0.06476,-0.273361 0.145516,-0.354807 0.08046,-0.08154 0.185301,-0.122613 0.313837,-0.122613 0.109384,0 0.195667,0.02231 0.259046,0.06654 0.06338,0.04423 0.115307,0.105139 0.15677,0.182438 0.04107,0.07769 0.0616,0.182142 0.0616,0.313442 0,0.187078 -0.04245,0.328744 -0.12745,0.425195 -0.08529,0.09685 -0.200603,0.144924 -0.346119,0.144924 -0.13515,0 -0.243843,-0.04492 -0.325289,-0.134459 -0.08154,-0.08984 -0.12745,-0.213141 -0.137915,-0.369516 l -0.222223,0 0,0.479591 -0.18382,0 0,-1.08347 z m 0.875466,0.131695 c -0.08984,0 -0.159535,0.03445 -0.209685,0.103461 -0.05005,0.06891 -0.07483,0.165754 -0.07483,0.290045 0,0.14907 0.02508,0.258454 0.07523,0.327757 0.05055,0.0693 0.117677,0.104053 0.20238,0.104053 0.08352,0 0.15213,-0.03238 0.20544,-0.09645 0.05331,-0.06437 0.08006,-0.167827 0.08006,-0.310579 0,-0.139691 -0.0233,-0.244139 -0.0693,-0.313837 -0.0463,-0.0696 -0.1159,-0.104448 -0.20929,-0.104448 z m 0.671506,-0.131695 0.285602,0 0.284911,0.867173 0.316206,-0.867173 0.264279,0 0,1.08347 -0.183524,0 0,-0.872405 -0.320353,0.872405 -0.164372,0 -0.302978,-0.914165 0,0.914165 -0.179773,0 0,-1.08347 z"
   id="path23"
   style="fill:#2b2a29;fill-rule:nonzero" />
  <path
   d="m 34.3802,56.8019 0.936871,0 0,1.49574 -0.198135,0 0,-1.31922 -0.540502,0 0,0.770327 c 0,0.156375 -0.0073,0.270992 -0.02202,0.34375 -0.01461,0.07276 -0.04561,0.129523 -0.09221,0.169999 -0.04709,0.04038 -0.10662,0.06061 -0.178687,0.06061 -0.04354,0 -0.09576,-0.0081 -0.157067,-0.02438 l 0.03347,-0.175528 c 0.03268,0.01353 0.06052,0.02053 0.08391,0.02053 0.04492,0 0.07839,-0.01708 0.100993,-0.05055 0.02231,-0.03376 0.03337,-0.113135 0.03337,-0.238216 l 0,-1.05307 z m 1.17055,0.953851 c 0,-0.200603 0.05568,-0.349278 0.167531,-0.445729 0.093,-0.08016 0.206526,-0.120539 0.340591,-0.120539 0.14907,0 0.270893,0.04877 0.365271,0.146602 0.09477,0.09754 0.141765,0.232293 0.141765,0.404365 0,0.139593 -0.02093,0.249372 -0.06269,0.32904 -0.04176,0.08016 -0.102671,0.14216 -0.182438,0.186387 -0.08016,0.04423 -0.167235,0.06614 -0.261909,0.06614 -0.151538,0 -0.274052,-0.04837 -0.367739,-0.145911 -0.09369,-0.09714 -0.140383,-0.23713 -0.140383,-0.420358 z m 0.188756,0 c 0,0.138902 0.03031,0.242757 0.09092,0.311665 0.06061,0.0693 0.136829,0.103757 0.228442,0.103757 0.09122,0 0.167136,-0.03475 0.227751,-0.104053 0.06022,-0.0693 0.09053,-0.175231 0.09053,-0.317292 0,-0.134064 -0.03031,-0.235748 -0.09122,-0.304755 -0.06091,-0.06891 -0.136532,-0.103362 -0.22706,-0.103362 -0.09161,0 -0.167827,0.03445 -0.228442,0.103066 -0.06062,0.06861 -0.09092,0.172368 -0.09092,0.310974 z m 1.25831,0.05222 0,-0.143838 c 0.07769,-6.91e-4 0.130214,-0.0038 0.158844,-0.0094 0.02814,-0.0052 0.05459,-0.02162 0.08006,-0.04877 0.02508,-0.02715 0.03761,-0.06131 0.03761,-0.102078 0,-0.04976 -0.01639,-0.08944 -0.04946,-0.119059 -0.03307,-0.02962 -0.07552,-0.04423 -0.128141,-0.04423 -0.103461,0 -0.175922,0.06091 -0.217287,0.182438 l -0.17454,-0.02853 c 0.0544,-0.203367 0.185597,-0.305051 0.3939,-0.305051 0.115603,0 0.206131,0.03169 0.271979,0.09507 0.06545,0.06308 0.09852,0.138606 0.09852,0.226369 0,0.08846 -0.04314,0.158844 -0.128832,0.211364 0.05469,0.02932 0.09546,0.06654 0.122613,0.111457 0.02715,0.04531 0.04077,0.09892 0.04077,0.160917 0,0.09714 -0.03524,0.176219 -0.106225,0.236834 -0.07068,0.06022 -0.169604,0.09053 -0.296758,0.09053 -0.246903,0 -0.39005,-0.10968 -0.429736,-0.329435 l 0.172763,-0.03663 c 0.0157,0.0693 0.04739,0.123007 0.09537,0.160917 0.04778,0.0383 0.10277,0.05716 0.164767,0.05716 0.0616,0 0.113135,-0.01747 0.154599,-0.05222 0.04107,-0.03524 0.0617,-0.07977 0.0617,-0.134459 0,-0.04215 -0.01293,-0.07868 -0.03899,-0.110075 -0.02586,-0.0313 -0.05331,-0.05084 -0.08263,-0.05854 -0.02922,-0.008 -0.08214,-0.01175 -0.15914,-0.01175 -0.0059,0 -0.02014,2.96e-4 -0.04176,9.87e-4 z m 0.626588,-0.05222 c 0,-0.200603 0.05568,-0.349278 0.167531,-0.445729 0.093,-0.08016 0.206526,-0.120539 0.340591,-0.120539 0.14907,0 0.270893,0.04877 0.365271,0.146602 0.09477,0.09754 0.141765,0.232293 0.141765,0.404365 0,0.139593 -0.02093,0.249372 -0.06269,0.32904 -0.04176,0.08016 -0.102671,0.14216 -0.182438,0.186387 -0.08016,0.04423 -0.167235,0.06614 -0.261909,0.06614 -0.151538,0 -0.274052,-0.04837 -0.367739,-0.145911 -0.09369,-0.09714 -0.140383,-0.23713 -0.140383,-0.420358 z m 0.188756,0 c 0,0.138902 0.03031,0.242757 0.09092,0.311665 0.06061,0.0693 0.136829,0.103757 0.228442,0.103757 0.09122,0 0.167136,-0.03475 0.227751,-0.104053 0.06022,-0.0693 0.09053,-0.175231 0.09053,-0.317292 0,-0.134064 -0.03031,-0.235748 -0.09122,-0.304755 -0.06091,-0.06891 -0.136532,-0.103362 -0.22706,-0.103362 -0.09161,0 -0.167827,0.03445 -0.228442,0.103066 -0.06061,0.06861 -0.09092,0.172368 -0.09092,0.310974 z m 1.0427,-0.541588 0.423517,0 c 0.104053,0 0.181451,0.0088 0.232293,0.02577 0.05045,0.01747 0.09398,0.04916 0.13051,0.09547 0.03623,0.0463 0.05469,0.101684 0.05469,0.166445 0,0.05153 -0.01076,0.09685 -0.03238,0.13515 -0.02123,0.0383 -0.05361,0.07068 -0.09645,0.09645 0.05124,0.01708 0.09339,0.04877 0.127154,0.09546 0.03376,0.0466 0.05045,0.101684 0.05045,0.165754 -0.0066,0.10277 -0.04354,0.178983 -0.110075,0.228442 -0.06683,0.04986 -0.163681,0.07453 -0.290736,0.07453 l -0.48897,0 0,-1.08347 z m 0.183919,0.455898 0.195667,0 c 0.07838,0 0.131991,-0.0038 0.161213,-0.01214 0.02932,-0.008 0.05538,-0.02478 0.07878,-0.04946 0.023,-0.02478 0.03445,-0.05469 0.03445,-0.08915 0,-0.05716 -0.02024,-0.09724 -0.06061,-0.119454 -0.04038,-0.02271 -0.10968,-0.03386 -0.207513,-0.03386 l -0.201985,0 0,0.304063 z m 0,0.476432 0.241671,0 c 0.104152,0 0.175528,-0.01185 0.214128,-0.03623 0.03899,-0.02399 0.05923,-0.06585 0.06131,-0.124686 0,-0.03485 -0.01115,-0.06684 -0.03376,-0.09645 -0.02231,-0.02962 -0.05153,-0.04837 -0.08737,-0.05607 -0.03623,-0.008 -0.09408,-0.01185 -0.173849,-0.01185 l -0.222124,0 0,0.325289 z m 1.60927,0.01738 c -0.06822,0.05785 -0.133768,0.09862 -0.196358,0.122613 -0.06308,0.02369 -0.130609,0.03554 -0.202775,0.03554 -0.119059,0 -0.210278,-0.02893 -0.274348,-0.08707 -0.06377,-0.05815 -0.09576,-0.132682 -0.09576,-0.222914 0,-0.05321 0.01175,-0.101684 0.03613,-0.145516 0.02409,-0.04393 0.05578,-0.07908 0.09477,-0.105534 0.03939,-0.02646 0.08322,-0.04669 0.132287,-0.06022 0.03594,-0.0095 0.09023,-0.01886 0.16299,-0.02754 0.148379,-0.01777 0.257763,-0.0387 0.327757,-0.06338 6.91e-4,-0.02508 9.87e-4,-0.04107 9.87e-4,-0.04768 0,-0.07493 -0.01738,-0.127845 -0.05222,-0.158152 -0.0466,-0.04176 -0.116591,-0.06229 -0.208896,-0.06229 -0.08638,0 -0.150156,0.01491 -0.19152,0.04521 -0.04117,0.03031 -0.07147,0.08391 -0.09132,0.160917 l -0.179279,-0.02478 c 0.01629,-0.07661 0.04314,-0.138902 0.08036,-0.185893 0.03732,-0.04739 0.09161,-0.08391 0.162299,-0.109384 0.07068,-0.02547 0.152525,-0.0383 0.245916,-0.0383 0.0926,0 0.167531,0.01116 0.225283,0.03278 0.05785,0.02192 0.100301,0.04906 0.127845,0.08214 0.02715,0.03307 0.04601,0.07454 0.05706,0.125081 0.0059,0.0313 0.0091,0.08767 0.0091,0.169209 l 0,0.24483 c 0,0.170986 0.0038,0.278988 0.01185,0.323907 0.0077,0.04521 0.0233,0.08875 0.0463,0.130214 l -0.191817,0 c -0.01886,-0.03801 -0.03139,-0.08253 -0.03663,-0.133768 z m -0.0153,-0.41019 c -0.06683,0.02745 -0.16684,0.05045 -0.299818,0.0696 -0.07562,0.01086 -0.129227,0.023 -0.160226,0.03663 -0.03139,0.01352 -0.05578,0.03337 -0.07246,0.05982 -0.01708,0.02616 -0.02577,0.05509 -0.02577,0.08707 0,0.04916 0.01886,0.08994 0.05568,0.122613 0.03692,0.03238 0.09132,0.04877 0.162694,0.04877 0.07069,0 0.133768,-0.0153 0.188756,-0.0463 0.05499,-0.031 0.09576,-0.07355 0.121527,-0.127154 0.01984,-0.04146 0.02962,-0.102671 0.02962,-0.183524 l 0,-0.06753 z"
   id="path25"
   style="fill:#2b2a29;fill-rule:nonzero" />
  <g
   id="_380434240">
   <path
   d="m 32.8022,19.9737 c 0.605659,0 1.08594,-0.506048 1.08594,-1.11319 0,-0.581867 -0.480282,-1.08742 -1.08594,-1.08742 -0.606844,0 -1.08841,0.505555 -1.08841,1.08742 0,0.60714 0.481565,1.11319 1.08841,1.11319 z"
   id="_380434360"
   style="fill:#fefefe;stroke:#2b2a29;stroke-width:0.152723" />
   <path
   d="m 32.8022,19.4677 c 0.328843,0 0.605659,-0.278396 0.605659,-0.60714 0,-0.328843 -0.276816,-0.581867 -0.605659,-0.581867 -0.329238,0 -0.606844,0.253024 -0.606844,0.581867 0,0.328744 0.277606,0.60714 0.606844,0.60714"
   id="_380434312"
   style="fill:none;stroke:#2b2a29;stroke-width:0.183327" />
  </g>
  <path
   d="m 28.3599,23.2181 0.681675,-1.30076 -0.617604,-1.19226 0.47041,0 0.400317,0.80103 0.391432,-0.80103 0.466658,0 -0.620368,1.21082 0.681675,1.2822 -0.485712,0 -0.442077,-0.861941 -0.443459,0.861941 -0.482948,0 z m 2.34405,-1.25495 -0.346909,-0.07838 c 0.03909,-0.174639 0.105929,-0.30357 0.201097,-0.387681 0.09566,-0.08362 0.236834,-0.125969 0.424405,-0.125969 0.170986,0 0.297745,0.02557 0.381264,0.07602 0.08312,0.05054 0.142061,0.11432 0.176021,0.192113 0.03386,0.07779 0.05104,0.220051 0.05104,0.427861 l -0.0041,0.557779 c 0,0.158449 0.006,0.27573 0.01856,0.351154 0.01204,0.07493 0.03524,0.156178 0.06871,0.242066 l -0.378401,0 c -0.0098,-0.03189 -0.02231,-0.07898 -0.03673,-0.141074 -0.006,-0.02843 -0.01066,-0.04699 -0.01343,-0.05627 -0.06545,0.07947 -0.13515,0.138704 -0.209488,0.178785 -0.07434,0.03949 -0.15371,0.05923 -0.238216,0.05923 -0.148576,0 -0.266056,-0.05054 -0.35145,-0.150946 -0.08599,-0.100993 -0.128733,-0.228739 -0.128733,-0.38314 0,-0.101585 0.01955,-0.192705 0.05854,-0.272769 0.039,-0.08016 0.09389,-0.141074 0.163977,-0.183425 0.07009,-0.04235 0.171776,-0.07957 0.304162,-0.111457 0.178292,-0.04176 0.302188,-0.08125 0.370997,-0.117282 l 0,-0.04758 c 0,-0.0923 -0.01816,-0.157264 -0.0543,-0.196753 -0.03623,-0.0389 -0.104546,-0.05864 -0.205243,-0.05864 -0.06832,0 -0.12123,0.01688 -0.159337,0.05055 -0.03811,0.03307 -0.06871,0.09171 -0.0924,0.175824 z m 0.511281,0.38778 c -0.04877,0.02034 -0.126364,0.04472 -0.232688,0.07315 -0.10583,0.02843 -0.175034,0.05627 -0.208007,0.08293 -0.04966,0.04472 -0.07473,0.100499 -0.07473,0.16842 0,0.06733 0.01994,0.124784 0.05992,0.173553 0.03988,0.04867 0.09053,0.07305 0.152229,0.07305 0.0692,0 0.134657,-0.02843 0.197345,-0.0847 0.0465,-0.04294 0.07661,-0.09576 0.09102,-0.158449 0.01027,-0.04067 0.01491,-0.118466 0.01491,-0.232786 l 0,-0.09517 z m 0.7415,-0.938648 0.356682,0 0,0.265266 c 0.046,-0.09112 0.108594,-0.164767 0.187572,-0.221137 0.07898,-0.05686 0.166741,-0.0853 0.262896,-0.0853 0.167531,0 0.310184,0.08243 0.426676,0.246706 0.117084,0.164273 0.175528,0.393506 0.175528,0.687203 0,0.301299 -0.05894,0.535764 -0.176416,0.702999 -0.117973,0.167136 -0.261021,0.250754 -0.428552,0.250754 -0.07997,0 -0.152427,-0.01974 -0.217386,-0.05923 -0.06456,-0.04008 -0.13288,-0.108002 -0.204749,-0.204354 l 0,0.910216 -0.382251,0 0,-2.49312 z m 0.3785,0.872405 c 0,0.202577 0.03209,0.352931 0.09655,0.449283 0.06407,0.09695 0.142554,0.145714 0.235452,0.145714 0.08875,0 0.162595,-0.04472 0.221532,-0.133472 0.05894,-0.08885 0.08875,-0.235057 0.08875,-0.437634 0,-0.189842 -0.0308,-0.330323 -0.09161,-0.422036 -0.06081,-0.09171 -0.136039,-0.13752 -0.22558,-0.13752 -0.09339,0 -0.170888,0.04462 -0.232688,0.135249 -0.0618,0.08994 -0.0924,0.223408 -0.0924,0.400416 z m 1.31922,-0.872405 0.381264,0 0,0.737749 c 0.06318,-0.0087 0.108199,-0.03307 0.134657,-0.07305 0.02606,-0.03949 0.05805,-0.126561 0.09527,-0.260132 0.04867,-0.178193 0.102572,-0.291921 0.160621,-0.341874 0.05805,-0.04986 0.134163,-0.07483 0.228442,-0.07483 0.02873,0 0.07937,0.0029 0.150946,0.0087 l 0.0014,0.316305 c -0.100696,0 -0.165359,0.01165 -0.193199,0.03544 -0.02833,0.02498 -0.05844,0.09932 -0.09102,0.222914 -0.04452,0.166544 -0.108693,0.269313 -0.191718,0.307617 0.120243,0.04235 0.22242,0.172961 0.305939,0.393012 0.0041,0.01155 0.0093,0.0232 0.01491,0.03594 l 0.213535,0.498052 -0.410881,0 -0.190435,-0.521844 c -0.03899,-0.105632 -0.07286,-0.173553 -0.10119,-0.203762 -0.02883,-0.02952 -0.07108,-0.04462 -0.127253,-0.04462 l 0,0.770228 -0.381264,0 0,-1.80582 z m 1.40985,-0.244929 0,-0.442274 0.382152,0 0,0.442274 -0.382152,0 z m 0,2.05075 0,-1.80582 0.382152,0 0,1.80582 -0.382152,0 z m 0.777731,-1.80582 0.836767,0 c 0.171381,0 0.300115,0.0389 0.385015,0.117282 0.08539,0.07838 0.128141,0.19616 0.128141,0.353523 0,0.100993 -0.02359,0.188658 -0.07009,0.263489 -0.04689,0.07493 -0.105435,0.124784 -0.176515,0.149761 0.09991,0.0308 0.174145,0.08767 0.223408,0.171776 0.04877,0.08421 0.07335,0.175922 0.07335,0.27573 0,0.140481 -0.04127,0.254801 -0.123501,0.342466 -0.08263,0.08766 -0.204848,0.131794 -0.366357,0.131794 l -0.910216,0 0,-1.80582 z m 0.38541,0.74999 0.246212,0 c 0.118861,0 0.204749,-0.01915 0.257664,-0.05627 0.05291,-0.03722 0.07937,-0.09635 0.07937,-0.177107 0,-0.07601 -0.02448,-0.130017 -0.07384,-0.161904 -0.04966,-0.03248 -0.137421,-0.04877 -0.263193,-0.04877 l -0.246212,0 0,0.444051 z m 0,0.749892 0.301892,0 c 0.108693,0 0.188065,-0.01678 0.238216,-0.04926 0.04966,-0.03307 0.07473,-0.0923 0.07473,-0.177107 0,-0.08816 -0.02883,-0.149169 -0.08589,-0.182833 -0.05706,-0.03366 -0.168025,-0.04986 -0.333384,-0.04986 l -0.195568,0 0,0.459057 z"
   id="path30"
   style="fill:#2b2a29;fill-rule:nonzero" />
 </g>
</svg>