<?xml version="1.0" encoding="UTF-8" standalone="no"?>
<!-- Created with Inkscape (http://www.inkscape.org/) -->

<svg
   xmlns:svg="http://www.w3.org/2000/svg"
   xmlns="http://www.w3.org/2000/svg"
   version="1.1"
   width="93.593102mm"
   height="59.146801mm"
   viewBox="0 0 93.5932 59.1469"
   id="svg2"
   xml:space="preserve"
   style="fill-rule:evenodd">
 <defs
   id="defs4">
  <style
   type="text/css"
   id="style6" />
 </defs>
 <g
   id="Layer_x0020_1">
  
  <g
   id="_328287504">
   <path
   d="m 0.4426,46.0919 c -0.766201,-0.1798 -0.3321,1.8129 -0.2033,2.0954 1.8897,3.678 7.17961,4.4445 10.8066,4.3677 0.256,0 -1.2778,-0.562301 -1.8135,-0.664301 -1.4311,-0.2821 -3.0148,-0.1794 -4.4204,-0.485701 -1.1744,-0.255 0.767201,-0.791701 -0.613201,-0.945401 -1.3019,-0.1264 -2.4274,-0.714501 -3.0906,-1.9402 -0.2057,-0.3835 -0.307,-2.3258 -0.665601,-2.4275 z"
   id="_327946424"
   style="fill:#ffdf49" />
   <path
   d="m 12.5283,53.1683 c 1.6099,0.639101 3.2949,1.1241 4.98171,1.4559 0.1526,0.0506 0.2049,-0.4076 0.0771,-0.4603 -1.6106,-0.638401 -3.2959,-1.1479 -4.98331,-1.4803 -0.1533,-0.0262 -0.2036,0.4079 -0.0755,0.484701 z"
   id="_328366656"
   style="fill:#ffdf49" />
   <path
   d="m 27.9851,57.2562 c -0.2818,0.3828 4.0363,0.996701 4.1648,0.996701 1.481,0.0775 2.0936,0.2811 2.0936,0.2811 0.537701,-0.0258 1.0734,-0.1299 1.6105,-0.0765 0.638101,0.0765 1.252,0.3315 1.8914,0.4086 0.995301,0.1017 2.9121,-0.0771 3.8058,-0.3321 0.2308,-0.0517 -0.3831,-0.2036 -0.588401,-0.2811 -0.995301,-0.3583 -0.944701,0.4082 -1.8128,-0.052 -0.4093,-0.2029 -0.715601,-0.637701 -1.1497,-0.740401 -0.1794,-0.0506 -0.2305,0.2811 -0.4096,0.3321 -0.2294,0.051 -1.0986,-0.1274 -1.2774,-0.2808 -0.153,-0.1019 -0.05,-0.537001 -0.2546,-0.537001 -0.3831,0.0517 -0.614301,0.485701 -0.946401,0.690401 -0.792301,0.4341 -1.3026,0.0506 -2.2217,0.0506 -1.1503,0 -1.7891,-0.0255 -2.9645,-0.204 -0.638101,-0.0764 -1.5314,-0.792001 -1.941,-0.2556 z"
   id="_328366584"
   style="fill:#ffdf49" />
   <path
   d="m 92.9569,45.0178 -0.742001,-2.1456 0.894301,-0.4083 -0.921201,-2.4029 -0.560901,-1.5576 -0.3586,0 -1.2513,-0.0499 -1.1506,-0.945701 -1.2751,0.4072 -0.1553,-0.3565 -0.2543,-0.537501 0.2543,-0.1523 0,-0.920101 -0.1785,-0.4607 -2.5039,0.945701 -0.3831,-1.1493 -0.868801,0.0769 -0.4083,-1.5586 0.868201,-0.4096 -0.3318,-1.9417 -1.2275,0.1289 -0.2542,-0.461 -1.1496,0.2036 -0.2047,-1.2251 3.0417,-1.4049 -0.3338,-2.683 1.4049,-0.3321 -0.153,-1.4821 -1.5324,0.2057 -0.4096,-2.096 -0.866701,0 -0.256,-0.536401 -0.690401,0.0761 -0.1285,-0.535701 -1.2003,-0.2046 -0.3586,-1.4049 -0.867501,0.1278 -0.740401,-3.2188 -0.920501,0 -0.690001,-2.8876 -0.3325,-1.4814 0.664901,-0.2054 0.0754,-0.868501 -0.664201,-0.2811 0.2564,-2.1459999 -1.2778,0.3329 -0.537101,1.2766999 -1.1221,0.2053 -0.741701,-0.2053 -1.1,0.3332 -0.3821,-1.7377999 -0.740701,-0.537101 -0.484701,-0.944901 0.3572,-1.5335 -0.613201,-2.8849 -2.9634,0.993201 -2.6073,1.1521 -2.2979,-1.3553 -0.741001,-0.945001 -6.43961,1.4821 -0.740701,-0.944701 -0.612201,0.1519 -0.1292,0.3842 -0.535701,-0.1285 -0.613601,-0.945001 0.945401,-1.6092 -0.3318,-1.2792 -2.426,0.1551 -0.2061,0.715101 0.2061,1.8914 -2.2748,0.2036 -1.4825,0.2808 -0.2807,1.6605 -0.791001,0.3322 -0.536401,-0.3818 0.740301,-0.486401 -0.535301,-0.868901 -0.614301,-0.663801 -1.1496,0 0.2801,-1.2771 -0.536401,-0.205 -1.4814,0.205 -1.3543,-0.2815 -0.1791,0.1781 -0.0762,0.3077 0.205,1.0728 0.868501,-0.0762 -0.0758,2.1449 0.484401,2.0192 -1.4311,0.3314 -0.3321,-2.4777 -1.1255,0.2033 -0.2029,1.8145 0.2029,1.4814 1.9427,-0.204 0.946001,2.2738 -1.3543,0.485401 0.537101,1.8149 2.2989,0.868501 -0.485401,0.612501 -0.2559,0.715601 -0.536401,0.0761 -0.612601,-0.3317 -0.741401,0.0768 -0.613201,0.996701 -2.2231,-0.2054 -1.6092,3.0413 4.5744,2.7331 -1.202,1.5585 -1.7632,-0.535701 0,1.4807 0.945701,0.2553 -0.1272,0.486101 -1.5341,0 -0.2801,0.919501 -1.9426,0.2039 0,1.1507 1.6105,0 0.946101,-0.4603 0.0503,0.996401 -2.887,0.4602 -0.588101,0.689701 -0.946401,0.2036 -0.2029,-0.484701 -1.0735,0 -0.0761,0.536701 -0.792401,0.0758 -0.2043,-1.2757 -2.3506,0.0751 -0.485701,-0.944301 -0.995301,0.1275 -0.0779,1.6099 -1.481,0.2797 -0.4606,-0.688701 -2.2735,0.3322 0.051,0.892901 -0.944601,0.0524 -0.2046,-1.0735 -1.7374,0.1282 -0.2043,0.945301 -0.868201,0.2808 -0.0775,0.997001 -1.2013,0.484001 -0.1271,0.740701 -1.4817,0.1795 -0.0762,-0.3824 -1.6609,0.4599 0,0.536401 0.662901,0.1268 0.206,1.0215 -2.1456,0.588101 c 0.2546,0.869501 0.662501,1.635 1.6591,2.377 0.536801,0.3821 1.405,0.0762 1.8911,0.535801 0.4341,0.4089 0,1.4559 0.536401,1.7366 1.2778,0.639801 2.6317,-3.064 4.4458,-0.534601 0.588101,0.842601 -0.486101,1.7363 -0.4096,2.5531 0.0259,0.4351 1.201,0.868201 0.793101,1.0742 -0.664601,0.3562 -1.5086,-0.1798 -2.2734,-0.2815 -1.253,-0.1533 -2.5043,-0.433 -3.7566,-0.537101 -0.586701,-0.0248 -1.1751,0.2567 -1.7618,0.1547 -1.2282,-0.2301 -2.3768,-0.818201 -3.6287003,-1.0738 -0.2553,-0.0758 -0.536801,0.1533 -0.791401,0.1271 -0.0254,0 -0.0254,0 -0.0254,0 l -0.0527,0.0517 -0.612201,1.5589 c 0.0496,0.1526 1.1499,0.714201 2.1714004,0.945701 0.817501,0.1777 1.7108,-0.3587 2.5297,-0.1282 0.3821,0.0765 2.0692,1.941 1.8907,2.2731 -0.512601,0.945301 -1.5341,1.6612 -2.5552,2.0185 -1.0222,0.3583 -2.1711,-0.2553 -3.2198004,0 -0.893001,0.2046 -1.8903,0.587401 -2.4271,1.3291 -0.0255,0.0772 -0.051,0.1275 -0.051,0.2036 l 0,0.1027 c 0.0255,0.3579 0.3842,0.792001 0.741401,0.919501 0.409,0.1533 0.765501,-0.535401 1.2017,-0.535401 0.4085,0 0.715201,0.713801 1.0717,0.535401 0.409,-0.2302 -0.0503,-1.3798 0.409,-1.3536 0.9973015,0.1013 1.6353005,1.1999 2.5549005,1.6085 0.563201,0.255 2.1983,-0.0765 2.4008,0.155 0.409,0.3817 0.256,1.1238 0.537501,1.6085 0.4347,0.741101 1.9165,1.1752 2.7071,1.2017 0.3342,0.0241 0.666001,-0.614301 0.920201,-0.4096 0.869201,0.664201 -0.2808,2.1962 -0.1271,2.2996 1.3532,0.664901 2.9886,0.637701 4.4455,1.0731 1.3536,0.409 2.6049,1.3033 4.036,1.4811 0.3324,0.0262 0.1026,-0.791001 0.3831,-0.944301 0.818201,-0.4599 1.7894,-0.612901 2.7092,-0.818901 0.510901,-0.1003 1.0983,0.0771 1.609199,-0.1261 0.357301,-0.1547 0.383401,-0.970201 0.792401,-0.945701 0.4599,0.05 0.893601,0.2294 1.3529,0.2808 1.1251,0.1274 4.4462,0.536001 5.23791,0 0.562201,-0.3838 -0.2288,-1.5586 0.2556,-2.0192 0.562301,-0.509901 1.940601,3.3483 3.9092,0.536401 0.3076,-0.4585 0.0258,-1.1241 0.2559,-1.6089 0.2043,-0.3579 0.690101,-0.971501 0.945701,-0.690001 0.764501,0.894301 -0.765801,2.0695 -0.793401,2.7089 -0.0258,0.3827 0.1285,0.995601 0.537801,1.0728 0.3569,0.0768 0.4341,-0.715201 0.790601,-0.817201 0.153,-0.052 1.6103,0.3831 1.6103,0.536401 0.0513,0.485101 -0.664601,0.894701 -0.536401,1.3539 0.1013,0.3063 0.690001,0.3063 0.944302,0.1275 0.331699,-0.2036 0.1794,-0.919501 0.537401,-1.0732 0.5109,-0.2308 1.2264,-0.2308 1.6099,0.1275 0.2549,0.2301 -0.640101,2.0967 0.817501,2.6827 0.3318,0.153 0.3318,-0.842701 0.664201,-0.792401 0.535001,0.0762 0.714901,1.253 1.2265,1.0746 0.4589,-0.1799 -0.691501,-2.0957 0.2549,-2.3007 0.537101,-0.102 1.3794,0.919901 1.6099,0.41 0.3828,-0.741401 -1.4311,-2.2486 -0.792401,-2.8119 0.561901,-0.510901 1.099,-0.1781 1.5586,0.41 l 0.3834,-0.3573 0.4097,-0.3321 -0.869601,-2.6076 1.3291,-0.536001 1.1497,0.945601 5.44221,0.1275 1.4032,1.2774 2.1473,1.4053 4.1124,1.891 4.957809,0.256 2.017201,3.3717 1.5599,-0.0772 1.5313,-1.2009 0.435199,-0.1272 c -0.0514,-0.0764 -0.0514,-0.1784 -0.0262,-0.2811 0.256,-1.2767 1.2013,-2.3502 1.4824,-3.6266 0.1526,-0.716601 -0.4075,-1.4573 -0.2811,-2.1474 0.638701,-3.372 3.1677,0.2298 4.1644,-0.4089 0.639101,-0.4086 0.486401,-2.0949 1.2003,-2.5549 l 0.0255,0 c 1.1241,-0.665201 2.5814,-0.6135 3.7562,-1.2006 l 0.0506,-0.0248 c 0.3324,-0.179499 0.639401,-0.384099 0.919501,-0.6143 0.613601,-0.484701 1.1,-1.097901 1.4052,-1.8134 l -0.636301,-0.0517 z"
   id="_328366512"
   style="fill:#ffdf49" />
   <g
   id="g15">
    <path
   d="m 50.3198,30.577 c 0.472601,0 0.863601,-0.3731 0.863601,-0.843401 0,-0.472601 -0.391,-0.844701 -0.863601,-0.844701 -0.45,0 -0.823101,0.3721 -0.823101,0.844701 0,0.470301 0.3731,0.843401 0.823101,0.843401 z"
   id="_328366440"
   style="fill:#fefefe;stroke:#2b2a29;stroke-width:0.1185" />
    <path
   d="m 50.3315,29.9348 c 0.1095,0 0.2025,-0.093 0.2025,-0.2012 0,-0.1102 -0.093,-0.2026 -0.2025,-0.2026 -0.1003,0 -0.1847,0.0924 -0.1847,0.2026 0,0.1082 0.0844,0.2012 0.1847,0.2012 z"
   id="_328366392"
   style="fill:#2b2a29;stroke:#2b2a29;stroke-width:0.0762001" />
   </g>
   <g
   id="g19">
    <path
   d="m 29.8957,37.5922 c 0.471001,0 0.863401,-0.3734 0.863401,-0.844701 0,-0.471701 -0.3924,-0.844401 -0.863401,-0.844401 -0.4513,0 -0.825001,0.3727 -0.825001,0.844401 0,0.471301 0.3737,0.844701 0.825001,0.844701 z"
   id="_328366272"
   style="fill:#fefefe;stroke:#2b2a29;stroke-width:0.1185" />
    <path
   d="m 29.9058,36.9497 c 0.1109,0 0.2029,-0.0933 0.2029,-0.2022 0,-0.1092 -0.092,-0.2015 -0.2029,-0.2015 -0.1,0 -0.183,0.0923 -0.183,0.2015 0,0.1089 0.083,0.2022 0.183,0.2022 z"
   id="_328366200"
   style="fill:#2b2a29;stroke:#2b2a29;stroke-width:0.0762001" />
   </g>
   <path
   d="m 50.5727,26.8583 0.2004,0 0,0.663501 c 0.0917,0 0.1559,-0.0176 0.1933,-0.0532 0.037,-0.0357 0.0847,-0.1207 0.1425,-0.2558 0.042,-0.0991 0.0766,-0.1693 0.1041,-0.2103 0.0271,-0.0409 0.0659,-0.0754 0.116,-0.1033 0.0505,-0.0279 0.1059,-0.042 0.1665,-0.042 0.0773,0 0.1179,7e-4 0.1221,0.0021 l 0,0.1736 c -0.0071,0 -0.0205,-4e-4 -0.0406,-0.0011 -0.0218,-7e-4 -0.0352,-0.001 -0.0402,-0.001 -0.0642,0 -0.1115,0.0155 -0.1425,0.0465 -0.0317,0.0311 -0.0681,0.0974 -0.1087,0.1986 -0.0508,0.1281 -0.0938,0.2089 -0.1291,0.2424 -0.0352,0.0332 -0.0772,0.06 -0.1259,0.0801 0.0977,0.0268 0.194,0.1171 0.2893,0.2705 l 0.3122,0.504501 -0.2491,0 -0.2533,-0.4113 c -0.0695,-0.1136 -0.128,-0.1916 -0.1746,-0.2343 -0.0469,-0.0423 -0.1076,-0.0635 -0.182,-0.0635 l 0,0.709101 -0.2004,0 0,-1.5151 z m 1.9222,1.3796 c -0.0691,0.0586 -0.1355,0.0999 -0.1989,0.1242 -0.0639,0.024 -0.1323,0.036 -0.2054,0.036 -0.1206,0 -0.213,-0.0293 -0.2779,-0.0882 -0.0646,-0.0589 -0.097,-0.1344 -0.097,-0.2258 0,-0.0539 0.0119,-0.103 0.0366,-0.1474 0.0244,-0.0445 0.0565,-0.0801 0.096,-0.1069 0.0399,-0.0268 0.0843,-0.0473 0.134,-0.061 0.0364,-0.0096 0.0914,-0.0191 0.1651,-0.0279 0.1503,-0.018 0.2611,-0.0392 0.332,-0.0642 7e-4,-0.0254 0.001,-0.0416 0.001,-0.0483 0,-0.0759 -0.0176,-0.1295 -0.0529,-0.1602 -0.0472,-0.0423 -0.1181,-0.0631 -0.2116,-0.0631 -0.0875,0 -0.1521,0.0151 -0.194,0.0458 -0.0417,0.0307 -0.0724,0.085 -0.0925,0.163 l -0.1816,-0.0251 c 0.0165,-0.0776 0.0437,-0.140699 0.0814,-0.1883 0.0378,-0.048 0.0928,-0.085 0.1644,-0.1108 0.0716,-0.0258 0.1545,-0.0388 0.2491,-0.0388 0.0938,0 0.1697,0.0113 0.2282,0.0332 0.0586,0.0222 0.1016,0.0497 0.1295,0.0832 0.0275,0.0335 0.0466,0.0755 0.0578,0.1267 0.006,0.0317 0.0092,0.0888 0.0092,0.1714 l 0,0.248 c 0,0.1732 0.0039,0.2826 0.012,0.3281 0.0078,0.0458 0.0236,0.0899 0.0469,0.1319 l -0.1943,0 c -0.0191,-0.0385 -0.0318,-0.0836 -0.0371,-0.1355 z m -0.0155,-0.4155 c -0.0677,0.0278 -0.169,0.0511 -0.3037,0.0705 -0.0766,0.011 -0.1309,0.0233 -0.1623,0.0371 -0.0318,0.0137 -0.0565,0.0338 -0.0734,0.0606 -0.0173,0.0265 -0.0261,0.0558 -0.0261,0.0882 0,0.0498 0.0191,0.0911 0.0564,0.1242 0.0374,0.0328 0.0925,0.0494 0.1648,0.0494 0.0716,0 0.1355,-0.0155 0.1912,-0.0469 0.0557,-0.0314 0.097,-0.0745 0.1231,-0.1288 0.0201,-0.042 0.03,-0.104 0.03,-0.1859 l 0,-0.0684 z m 0.3524,0.551001 0.4011,-0.570401 -0.3711,-0.527101 0.2325,0 0.1686,0.2572 c 0.0314,0.049 0.0572,0.09 0.0762,0.1231 0.0303,-0.0455 0.0582,-0.0857 0.084,-0.121 l 0.1848,-0.2593 0.2223,0 -0.3793,0.516801 0.4082,0.580701 -0.2283,0 -0.2254,-0.3411 -0.0599,-0.0921 -0.2883,0.4332 -0.2254,0 z M 53.9212,27.8245 c 0,-0.2032 0.0564,-0.3538 0.1697,-0.4515 0.0942,-0.0812 0.2092,-0.1221 0.345,-0.1221 0.151,0 0.2744,0.0494 0.37,0.1485 0.096,0.0988 0.1436,0.2353 0.1436,0.4096 0,0.1414 -0.0212,0.2526 -0.0635,0.3333 -0.0423,0.0812 -0.104,0.144 -0.1848,0.1888 -0.0812,0.0448 -0.1694,0.067 -0.2653,0.067 -0.1535,0 -0.2776,-0.049 -0.3725,-0.1478 -0.0949,-0.0984 -0.1422,-0.2402 -0.1422,-0.4258 z m 0.1912,0 c 0,0.1407 0.0307,0.2459 0.0921,0.3157 0.0614,0.0702 0.1386,0.1051 0.2314,0.1051 0.0924,0 0.1693,-0.0352 0.2307,-0.1054 0.061,-0.0702 0.0917,-0.1775 0.0917,-0.3214 0,-0.1358 -0.0307,-0.2388 -0.0924,-0.3087 -0.0617,-0.0698 -0.1383,-0.1047 -0.23,-0.1047 -0.0928,0 -0.17,0.0349 -0.2314,0.1044 -0.0614,0.0695 -0.0921,0.1746 -0.0921,0.315 z m 1.0562,-0.548601 0.429,0 c 0.1054,0 0.1838,0.0089 0.2353,0.0261 0.0511,0.0177 0.0952,0.0498 0.1322,0.0967 0.0367,0.0469 0.0554,0.103 0.0554,0.1686 0,0.0522 -0.0109,0.0981 -0.0328,0.1369 -0.0215,0.0388 -0.0543,0.0716 -0.0977,0.0977 0.0519,0.0173 0.0946,0.0494 0.1288,0.0967 0.0342,0.0472 0.0511,0.103 0.0511,0.1679 -0.0067,0.1041 -0.0441,0.1813 -0.1115,0.2314 -0.0677,0.0505 -0.1658,0.0755 -0.2945,0.0755 l -0.495301,0 0,-1.0975 z m 0.1863,0.4618 0.1982,0 c 0.0794,0 0.1337,-0.0039 0.1633,-0.0123 0.0297,-0.0081 0.0561,-0.0251 0.0798,-0.0501 0.0233,-0.0251 0.0349,-0.0554 0.0349,-0.0903 0,-0.0579 -0.0205,-0.0985 -0.0614,-0.121 -0.0409,-0.023 -0.1111,-0.0343 -0.2102,-0.0343 l -0.2046,0 0,0.308 z m 0,0.482601 0.2448,0 c 0.1055,0 0.1778,-0.012 0.2169,-0.0367 0.0395,-0.0243 0.06,-0.0667 0.0621,-0.1263 0,-0.0353 -0.0113,-0.0677 -0.0342,-0.0977 -0.0226,-0.03 -0.0522,-0.049 -0.0885,-0.0568 -0.0367,-0.0081 -0.0953,-0.012 -0.1761,-0.012 l -0.225,0 0,0.3295 z m 0.936501,-0.944401 0.1859,0 0,0.474201 c 0.0593,0 0.1009,-0.0113 0.1246,-0.0339 0.0236,-0.0229 0.0585,-0.0889 0.1047,-0.1986 0.0367,-0.0868 0.0664,-0.1439 0.0889,-0.1715 0.023,-0.0275 0.0491,-0.0462 0.0787,-0.0557 0.0296,-0.0099 0.0773,-0.0145 0.1425,-0.0145 l 0.0374,0 0,0.1538 -0.0518,-0.001 c -0.0487,0 -0.0801,0.0074 -0.0939,0.0219 -0.0144,0.0151 -0.0367,0.0603 -0.0663,0.1354 -0.0282,0.0716 -0.054,0.121 -0.0776,0.1485 -0.0233,0.0279 -0.0596,0.053 -0.1083,0.0755 0.0797,0.0216 0.1584,0.096 0.2356,0.2233 l 0.2036,0.3401 -0.2046,0 -0.1986,-0.3401 c -0.0406,-0.0681 -0.0762,-0.1132 -0.1062,-0.1347 -0.0303,-0.0219 -0.0667,-0.0325 -0.1087,-0.0325 l 0,0.507301 -0.1859,0 0,-1.0975 z m 1.6898,0.962001 c -0.0691,0.0586 -0.1355,0.0999 -0.1989,0.1242 -0.0639,0.024 -0.1323,0.036 -0.2054,0.036 -0.1206,0 -0.213,-0.0293 -0.2779,-0.0882 -0.0646,-0.0589 -0.097,-0.1344 -0.097,-0.2258 0,-0.0539 0.0119,-0.103 0.0366,-0.1474 0.0244,-0.0445 0.0565,-0.0801 0.096,-0.1069 0.0399,-0.0268 0.0843,-0.0473 0.134,-0.061 0.0364,-0.0096 0.0914,-0.0191 0.1651,-0.0279 0.1503,-0.018 0.2611,-0.0392 0.332,-0.0642 7e-4,-0.0254 10e-4,-0.0416 10e-4,-0.0483 0,-0.0759 -0.0176,-0.1295 -0.0529,-0.1602 -0.0472,-0.0423 -0.1181,-0.0631 -0.2116,-0.0631 -0.0875,0 -0.1521,0.0151 -0.194,0.0458 -0.0417,0.0307 -0.0724,0.085 -0.0925,0.163 l -0.1816,-0.0251 c 0.0165,-0.0776 0.0437,-0.1407 0.0814,-0.1883 0.0378,-0.048 0.0928,-0.085 0.1644,-0.1108 0.0716,-0.0258 0.1545,-0.0388 0.2491,-0.0388 0.0938,0 0.1697,0.0113 0.2282,0.0332 0.0586,0.0222 0.1016,0.0497 0.1295,0.0832 0.0275,0.0335 0.0466,0.0755 0.0578,0.1267 0.006,0.0317 0.0092,0.0888 0.0092,0.1714 l 0,0.248 c 0,0.1732 0.0039,0.2826 0.012,0.3281 0.0078,0.0458 0.0236,0.0899 0.0469,0.1319 l -0.1943,0 c -0.0191,-0.0385 -0.0318,-0.0836 -0.0371,-0.1355 z m -0.0155,-0.4155 c -0.0677,0.0278 -0.169,0.0511 -0.3037,0.0705 -0.0766,0.011 -0.1309,0.0233 -0.1623,0.0371 -0.0318,0.0137 -0.0565,0.0338 -0.0734,0.0606 -0.0173,0.0265 -0.0261,0.0558 -0.0261,0.0882 0,0.0498 0.0191,0.0911 0.0564,0.1242 0.0374,0.0328 0.0925,0.0494 0.1648,0.0494 0.0716,0 0.1355,-0.0155 0.1912,-0.0469 0.0557,-0.0314 0.097,-0.0745 0.1231,-0.1288 0.0201,-0.042 0.03,-0.104 0.03,-0.1859 l 0,-0.0684 z"
   id="_328288768"
   style="fill:#2b2a29;fill-rule:nonzero" />
   <path
   d="m 29.9306,38.2278 0.2004,0 0,1.3362 0.789501,0 0,-1.3362 0.2017,0 0,1.3362 0.1383,0 0,0.599401 -0.1778,0 0,-0.4205 -1.1521,0 0,-1.5151 z m 1.5427,0.4176 0.1862,0 0,0.4586 0.2251,0 c 0.0166,-0.1569 0.0656,-0.2769 0.1474,-0.3594 0.0815,-0.0826 0.1877,-0.1242 0.3179,-0.1242 0.1108,0 0.1982,0.0226 0.2624,0.0674 0.0642,0.0448 0.1168,0.1065 0.1588,0.1848 0.0416,0.0787 0.0624,0.1845 0.0624,0.3175 0,0.1895 -0.043,0.333 -0.1291,0.4307 -0.0864,0.0981 -0.2032,0.1468 -0.3506,0.1468 -0.1369,0 -0.247,-0.0455 -0.3295,-0.1362 -0.0826,-0.091 -0.1291,-0.2159 -0.1397,-0.3743 l -0.2251,0 0,0.485801 -0.1862,0 0,-1.0975 z m 0.886801,0.1334 c -0.091,0 -0.1616,0.0349 -0.2124,0.1048 -0.0507,0.0698 -0.0758,0.1679 -0.0758,0.2938 0,0.151 0.0254,0.2618 0.0762,0.332 0.0512,0.0702 0.1192,0.1054 0.205,0.1054 0.0846,0 0.1541,-0.0328 0.2081,-0.0977 0.054,-0.0652 0.0811,-0.17 0.0811,-0.3146 0,-0.1415 -0.0236,-0.2473 -0.0702,-0.3179 -0.0469,-0.0705 -0.1174,-0.1058 -0.212,-0.1058 z m 0.698901,1.3846 0,-1.518 0.1693,0 0,0.1426 c 0.0399,-0.0558 0.085,-0.0978 0.1355,-0.1256 0.0501,-0.0279 0.1111,-0.042 0.1827,-0.042 0.0939,0 0.1764,0.0243 0.248,0.0723 0.072,0.0483 0.126,0.1164 0.1623,0.2043 0.0367,0.0878 0.055,0.1841 0.055,0.2889 0,0.1122 -0.0201,0.2134 -0.0607,0.3034 -0.0402,0.0899 -0.0987,0.1587 -0.1756,0.2067 -0.0769,0.0476 -0.1577,0.0716 -0.2424,0.0716 -0.0621,0 -0.1175,-0.0131 -0.1668,-0.0392 -0.0494,-0.0261 -0.0896,-0.0592 -0.1214,-0.0991 l 0,0.534101 -0.1859,0 z m 0.1683,-0.963101 c 0,0.1412 0.0285,0.2456 0.0857,0.3133 0.0571,0.0674 0.1266,0.1012 0.2078,0.1012 0.0825,0 0.1534,-0.0349 0.2123,-0.1051 0.0589,-0.0698 0.0886,-0.1781 0.0886,-0.3249 0,-0.14 -0.0289,-0.2444 -0.0865,-0.3143 -0.0575,-0.0695 -0.1262,-0.1044 -0.206,-0.1044 -0.0793,0 -0.1495,0.037 -0.2106,0.1111 -0.061,0.0741 -0.0913,0.182 -0.0913,0.3231 z m 0.976801,0.965201 -0.0208,-0.1746 c 0.0409,0.0109 0.0762,0.0166 0.1066,0.0166 0.0412,0 0.0744,-0.0071 0.0991,-0.0208 0.025,-0.0138 0.0451,-0.0328 0.061,-0.0579 0.012,-0.0183 0.0307,-0.0645 0.0568,-0.1383 0.0035,-0.0106 0.0092,-0.0254 0.0166,-0.0455 l -0.4163,-1.0996 0.2004,0 0.2286,0.635401 c 0.0293,0.0808 0.0561,0.1654 0.0794,0.2543 0.0215,-0.0853 0.0469,-0.1686 0.0765,-0.2501 l 0.2346,-0.639601 0.1859,0 -0.4173,1.1162 c -0.0448,0.1206 -0.0797,0.2035 -0.1044,0.249 -0.0332,0.0614 -0.0709,0.1062 -0.113599,0.1348 -0.0431,0.0286 -0.0939,0.043 -0.153101,0.043 -0.036,0 -0.0759,-0.0077 -0.119999,-0.0229 z m 1.0675,-1.5201 0.866401,0 0,1.0975 -0.1863,0 0,-0.943701 -0.493801,0 0,0.943701 -0.1863,0 0,-1.0975 z m 1.1461,-0.2035 0,-0.2141 0.1863,0 0,0.2141 -0.1863,0 z m 0,1.301 0,-1.0975 0.1863,0 0,1.0975 -0.1863,0 z m 0.470201,-1.0975 0.1863,0 0,0.4569 0.515701,0 0,-0.4569 0.1859,0 0,1.0975 -0.1859,0 0,-0.486801 -0.515701,0 0,0.486801 -0.1863,0 0,-1.0975 z m 1.8841,0.695301 0.1827,0.024 c -0.0197,0.126 -0.0709,0.2247 -0.1534,0.296 -0.0822,0.0713 -0.1834,0.1069 -0.3034,0.1069 -0.1499,0 -0.2709,-0.049 -0.3619,-0.1471 -0.0914,-0.0981 -0.1373,-0.2388 -0.1373,-0.4223 0,-0.1185 0.0198,-0.2222 0.059,-0.3111 0.0395,-0.0889 0.0991,-0.1556 0.1795,-0.2 0.0801,-0.0445 0.1676,-0.0667 0.2618,-0.0667 0.1192,0 0.2169,0.0303 0.2924,0.0907 0.0759,0.0603 0.1245,0.1457 0.1461,0.2568 l -0.181,0.0278 c -0.0173,-0.0737 -0.0476,-0.1291 -0.0914,-0.1665 -0.0437,-0.037 -0.0966,-0.0557 -0.1587,-0.0557 -0.0939,0 -0.1701,0.0335 -0.2286,0.1009 -0.0586,0.067 -0.0879,0.1732 -0.0879,0.3185 0,0.1475 0.0283,0.2547 0.0851,0.3218 0.0564,0.0666 0.1301,0.1001 0.2211,0.1001 0.0731,0 0.1337,-0.0225 0.1828,-0.0673 0.049,-0.0448 0.0801,-0.1136 0.0931,-0.2068 z m 0.339,-0.695301 0.1859,0 0,0.4287 0.2357,0 c 0.1538,0 0.272,0.0299 0.3549,0.0896 0.0832,0.0596 0.1245,0.1418 0.1245,0.2465 0,0.0914 -0.0346,0.1701 -0.1037,0.235 -0.0692,0.0652 -0.1799,0.0977 -0.3323,0.0977 l -0.465,0 0,-1.0975 z m 0.1859,0.944401 0.1955,0 c 0.1178,0 0.2017,-0.0145 0.2522,-0.0434 0.0501,-0.0289 0.0751,-0.0741 0.0751,-0.1351 0,-0.0476 -0.0183,-0.09 -0.0557,-0.1273 -0.037,-0.0371 -0.1196,-0.0558 -0.2469,-0.0558 l -0.2202,0 0,0.3616 z m 0.918901,-0.944401 0.1859,0 0,0.474201 c 0.0593,0 0.1009,-0.0113 0.1246,-0.0339 0.0236,-0.0229 0.0585,-0.0889 0.1047,-0.1986 0.0367,-0.0868 0.0664,-0.1439 0.0889,-0.1715 0.023,-0.0275 0.0491,-0.0462 0.0787,-0.0557 0.0296,-0.0099 0.0773,-0.0145 0.1425,-0.0145 l 0.0374,0 0,0.1538 -0.0518,-10e-4 c -0.0487,0 -0.0801,0.0074 -0.0939,0.0219 -0.0144,0.0151 -0.0367,0.0603 -0.0663,0.1354 -0.0282,0.0716 -0.054,0.121 -0.0776,0.1485 -0.0233,0.0279 -0.0596,0.053 -0.1083,0.0755 0.0797,0.0216 0.1584,0.096 0.2356,0.2233 l 0.2036,0.3401 -0.2046,0 -0.1986,-0.3401 c -0.0406,-0.0681 -0.0762,-0.1132 -0.1062,-0.1347 -0.0303,-0.0219 -0.0667,-0.0325 -0.1087,-0.0325 l 0,0.507301 -0.1859,0 0,-1.0975 z"
   id="_328288696"
   style="fill:#2b2a29;fill-rule:nonzero" />
   <g
   id="g25">
    <path
   d="m 28.3024,35.6061 c 0.614601,0 1.1276,-0.486101 1.1276,-1.101 0,-0.615701 -0.513001,-1.1025 -1.1276,-1.1025 -0.614301,0 -1.1021,0.486801 -1.1021,1.1025 0,0.614901 0.487801,1.101 1.1021,1.101 z"
   id="_328288624"
   style="fill:#fefefe;stroke:#2b2a29;stroke-width:0.1547" />
    <path
   d="m 28.3024,35.0949 c 0.3335,0 0.614601,-0.257 0.614601,-0.589801 0,-0.3335 -0.2811,-0.615701 -0.614601,-0.615701 -0.3328,0 -0.589801,0.2822 -0.589801,0.615701 0,0.3328 0.257,0.589801 0.589801,0.589801"
   id="_328288576"
   style="fill:none;stroke:#2b2a29;stroke-width:0.1857" />
   </g>
   <path
   d="m 16.6053,35.1724 0.690501,-1.3176 -0.625601,-1.2077 0.476501,0 0.4055,0.811401 0.3965,-0.811401 0.472701,0 -0.628401,1.2265 0.690601,1.2988 -0.492101,0 -0.4478,-0.873101 -0.4492,0.873101 -0.489201,0 z m 2.9323,-0.582101 0.3862,0.0806 c -0.0499,0.1769 -0.128,0.3116 -0.2352,0.4039 -0.1068,0.0929 -0.2409,0.1388 -0.4017,0.1388 -0.2545,0 -0.4426,-0.1035 -0.564901,-0.3117 -0.0964,-0.1664 -0.1449,-0.3769 -0.1449,-0.630301 0,-0.3034 0.0635,-0.540901 0.1905,-0.712601 0.1265,-0.1717 0.2869,-0.2575 0.480701,-0.2575 0.2178,0 0.3895,0.0899 0.515601,0.2699 0.1255,0.1799 0.1857,0.4551 0.1805,0.826101 l -0.970301,0 c 0.0028,0.1434 0.0339,0.2551 0.0936,0.3345 0.0597,0.08 0.1345,0.12 0.2234,0.12 0.0607,0 0.1115,-0.0206 0.1529,-0.0618 0.0414,-0.0417 0.0729,-0.1082 0.0936,-0.1999 z m 0.0221,-0.489201 c -0.0029,-0.1405 -0.0315,-0.2469 -0.0865,-0.3198 -0.0551,-0.0729 -0.1224,-0.1094 -0.2014,-0.1094 -0.0846,0 -0.1542,0.0388 -0.2093,0.1158 -0.055,0.0765 -0.0823,0.1811 -0.0813,0.3134 l 0.578501,0 z m 0.689101,-0.757901 0.3612,0 0,0.2687 c 0.0466,-0.0923 0.11,-0.1669 0.19,-0.224 0.08,-0.0576 0.1689,-0.0864 0.2663,-0.0864 0.1697,0 0.3142,0.0835 0.4322,0.2499 0.1186,0.1664 0.1779,0.3986 0.1779,0.696101 0,0.3052 -0.0598,0.542701 -0.1788,0.712101 -0.1195,0.1693 -0.2644,0.254 -0.4341,0.254 -0.081,0 -0.1543,-0.02 -0.2202,-0.06 -0.0653,-0.0406 -0.1345,-0.1094 -0.2074,-0.207 l 0,0.922001 -0.3871,0 0,-2.5254 z m 0.3833,0.883701 c 0,0.2052 0.0325,0.3575 0.0979,0.4551 0.0648,0.0982 0.1444,0.1476 0.2384,0.1476 0.0899,0 0.1647,-0.0453 0.2244,-0.1352 0.0597,-0.09 0.0899,-0.2381 0.0899,-0.4433 0,-0.1923 -0.0311,-0.3346 -0.0927,-0.4275 -0.0616,-0.0929 -0.1379,-0.1393 -0.2286,-0.1393 -0.0946,0 -0.1731,0.0452 -0.2357,0.137 -0.0625,0.0911 -0.0936,0.2263 -0.0936,0.4056 z m 2.628,-0.3427 -0.382,0.0858 c -0.0126,-0.0952 -0.0418,-0.167 -0.0874,-0.2152 -0.0457,-0.0482 -0.1045,-0.0723 -0.1769,-0.0723 -0.0969,0 -0.1736,0.0417 -0.231,0.1246 -0.0573,0.0835 -0.086,0.2229 -0.086,0.4181 0,0.2169 0.0292,0.3704 0.0875,0.4598 0.0583,0.0893 0.1364,0.134 0.2347,0.134 0.0738,0 0.1336,-0.0258 0.1806,-0.0782 0.047,-0.0523 0.08,-0.1423 0.0992,-0.2693 l 0.3806,0.0806 c -0.0395,0.2181 -0.1158,0.3833 -0.2277,0.494501 -0.1119,0.1117 -0.262,0.167 -0.4506,0.167 -0.214,0 -0.3847,-0.0841 -0.511801,-0.2529 -0.1274,-0.1687 -0.1909,-0.4027 -0.1909,-0.701401 0,-0.3016 0.064,-0.536801 0.1914,-0.705001 0.1279,-0.1687 0.3006,-0.2528 0.518301,-0.2528 0.1783,0 0.3199,0.0482 0.4253,0.144 0.1049,0.0959 0.1806,0.2423 0.2267,0.4387 z m 0.2036,0.3475 c 0,-0.1606 0.032,-0.3164 0.0951,-0.4669 0.0635,-0.1499 0.1533,-0.2652 0.2695,-0.344 0.1161,-0.0793 0.246,-0.1193 0.3894,-0.1193 0.2211,0 0.4027,0.0899 0.544301,0.2699 0.1416,0.1799 0.2121,0.4068 0.2121,0.681401 0,0.2764 -0.0715,0.505701 -0.2141,0.687901 -0.1429,0.1823 -0.3226,0.2729 -0.539401,0.2729 -0.1346,0 -0.262,-0.0377 -0.3838,-0.1135 -0.1219,-0.0759 -0.2145,-0.187 -0.278,-0.3334 -0.0631,-0.1464 -0.0951,-0.3246 -0.0951,-0.535001 z m 0.3971,0.0258 c 0,0.1817 0.0343,0.3205 0.1034,0.4169 0.0687,0.0964 0.1538,0.1446 0.255,0.1446 0.1011,0 0.1857,-0.0482 0.254,-0.1446 0.0686,-0.0964 0.103,-0.2364 0.103,-0.4204 0,-0.1787 -0.0344,-0.3169 -0.103,-0.4133 -0.0683,-0.0965 -0.1529,-0.1447 -0.254,-0.1447 -0.1012,0 -0.1863,0.0482 -0.255,0.1447 -0.0691,0.0964 -0.1034,0.2357 -0.1034,0.4168 z m 1.4012,-0.914301 0.3876,0 0,0.669701 0.553601,0 0,-0.669701 0.389,0 0,1.8292 -0.389,0 0,-0.768501 -0.553601,0 0,0.768501 -0.3876,0 0,-1.8292 z"
   id="_328288432"
   style="fill:#2b2a29;fill-rule:nonzero" />
  </g>
 </g>
</svg>