<?xml version="1.0" encoding="UTF-8" standalone="no"?>
<!-- Created with Inkscape (http://www.inkscape.org/) -->

<svg
   xmlns:svg="http://www.w3.org/2000/svg"
   xmlns="http://www.w3.org/2000/svg"
   version="1.1"
   width="42.6665mm"
   height="78.281197mm"
   viewBox="0 0 44.2097 81.1125"
   id="svg2"
   xml:space="preserve"
   style="fill-rule:evenodd">
 <defs
   id="defs4">
  <style
   type="text/css"
   id="style6" />
 </defs>
 <g
   id="Layer_x0020_1">
  
  <polygon
   points="4.3947,13.7923 4.3947,13.8185 "
   id="polygon10"
   style="fill:#fefefe" />
  <polygon
   points="4.44806,13.6595 4.44806,13.687 4.3947,13.6338 "
   id="polygon12"
   style="fill:#fefefe" />
  <polygon
   points="4.23606,14.6665 4.18353,15.248 4.3947,15.4598 4.3947,14.6135 "
   id="polygon14"
   style="fill:#fefefe" />
  <path
   d="m 43.5212,53.554 -0.635171,0.07906 -0.131904,-0.767075 0.476016,-0.502749 c 0,0 -0.76749,-1.66813 -0.344111,-1.80076 0.423482,-0.131697 0.50306,-0.899808 0.50306,-0.899808 l -0.766868,-0.635171 -0.371259,-1.40308 1.48245,-1.93214 -0.979282,-0.344422 -0.688637,0.132008 -0.423378,-0.556319 -0.63486,0.133044 -0.212414,-0.344526 1.05876,-1.40194 0,-0.610096 -1.19076,0.05305 0.07906,-0.979801 0.820645,-0.555593 0,-0.899601 0.635171,-1.24402 -0.291267,-0.556319 0.76749,-0.767801 0.424414,0.34463 0.344008,-0.979386 -1.45571,-1.37686 0.264326,-0.847378 1.5357,0 -0.133355,-0.07958 0.133355,-0.740757 -0.662526,-0.476845 -0.0258,0.05274 -1.1919,0.344111 -0.608749,-0.846653 -1.82594,-2.43582 -0.979904,-2.2232 0.07979,-1.45592 -1.58865,-0.07979 0.344111,-3.12343 -0.767904,-0.900637 0.264534,-0.767386 1.48286,0.900119 0.741067,-0.68843 1.82645,-0.07916 -0.503267,-0.688637 0.211689,-0.714645 -1.45561,-0.687912 0.13263,-2.30382 1.19087,-0.344111 0,-1.74719 -1.03223,0.847067 c 0,0 -0.07927,-0.264534 -0.07927,-1.24392 0,-0.980422 -0.688534,-0.635585 -0.688534,-0.635585 l 0.265052,-1.19097 -0.688119,-0.264948 -0.344422,0.608852 -0.634653,-0.132215 -0.477881,0.291578 -0.555801,0.132422 -0.158223,-0.979904 -1.03223,0 -0.900326,-0.90043 0.05305,-0.846549 -0.687912,-0.476741 -1.66844,-0.555904 0.132422,-1.8002404 -1.66761,-1.27013 1.87971,-3.75974 -0.979386,0 -0.212622,-0.820645 -0.952238,-0.344111 -0.344422,-1.24402 -0.370741,0.105378 -0.899912,-0.344215 -0.212207,-0.979075 -1.11108,0 -1.03254,1.13865 -0.979386,-0.079681 -0.635378,0.979593 -1.88054,-0.899912 -1.87826,0.555593 -0.132526,0.608438 -1.05907,0 -0.952964,0.979904 -0.635896,1.8794 -0.344215,0.688119 -0.979282,0 -0.344526,1.6158 -1.11098,-0.079474 -1.95888,2.6465798 -0.477466,0 -0.555282,0.635482 -0.846964,0.05243 -0.556526,0.424311 -1.9593902,0 -2.35511,2.72647 -2.01255,0.741793 0,0.846342 1.24423,1.11181 -0.211378,0.635482 -1.03285,0.212104 -0.423067,0.07875 0.07906,1.58865 -0.423793,0.899498 0.423793,0.503578 -0.635482,0.979386 -0.978868,0.05357 0,1.11108 -0.423689,1.32402 0.714956,1.53488 -0.291267,1.19159 1.1116,1.24423 0.212207,3.33605 -0.980422,0.634549 1.11222,0.90043 0.424,1.27117 -0.132422,1.24423 -0.635585,0 -0.768215,1.19097 0,1.1117 -1.03213,0 -0.635275,0.688741 0.131593,1.32339 0.636311,0.635275 0,1.72066 0.767282,2.72647 -0.264326,1.88002 0.820438,1.11212 -0.423896,1.66688 -0.899498,0.503267 -0.079267,0.900326 -0.344526,1.03213 0.211689,0.76749 -0.424207,1.4037 -0.184438,1.11139 -0.370326,2.09151 0.370326,1.5357 -0.291267,1.29718 -0.63486,0.07927 -0.133355,0.344111 0.635275,0.768215 -0.343801,1.40256 0.900326,-0.132526 -0.556526,2.83226 1.16569,0.768319 -0.132837,0.635793 -0.899912,0.343386 0.211689,1.61549 -0.0793705,1.66709 -0.424,0.556319 0.0798886,0.978972 1.05855,0.344215 0.82137,1.16507 -0.423689,0.714749 0.555282,0.979075 0.926438,0.344215 -0.211275,0.820541 0.688534,0.55549 0.423067,-0.02518 0.344319,-0.02684 0.423689,0.688948 0.026422,0.397163 0.582534,-0.133148 0.926334,0.503163 0.740964,1.11212 0.926334,1.19045 1.24454,0.60937 1.1119101,-0.477363 -0.132422,-1.40183 1.24392,0.343904 0.768733,-0.132837 -0.13263,-0.688223 -1.05896,-0.979179 0.07947,-0.556008 1.24402,0.344008 0.635171,-0.344008 0.132837,-1.03233 0.979282,0.555801 0.635689,-1.05948 0.687083,0 0.68957,1.53602 1.87899,-0.424518 1.87951,-0.262772 1.48265,0.210757 1.4554,0.211689 1.03265,-0.29106 1.87982,0.131386 0.291681,-1.37603 2.30226,0.05378 1.32433,0 0.211171,0.105275 0.185474,-1.82604 0.635585,-1.48307 -0.423586,-1.03202 1.05917,-1.3236 -0.502956,-3.28268 -0.609578,-0.768215 0.05336,-2.43541 0.767904,-0.687912 -0.344319,-1.11233 0.635585,-1.24361 1.32329,-1.48276 1.03265,-0.132733 -0.13294,-1.58813 0.768422,-0.635482 0.979282,-0.290542 0.47643,0.502645 0.688016,-0.212104 0,-1.3236 1.61528,0.07937 0.423378,0.953689 1.1116,-0.132422 c 0.264741,0.343386 1.80024,-0.211896 1.80024,-0.211896 l -0.211689,-0.900637 1.40308,-0.476119 0.423482,0.555593 0.820541,-0.290542 -0.68843,-1.24485 z"
   id="path16"
   style="fill:#ffdf49" />
  <polygon
   points="4.31595,13.5806 4.3947,13.6338 "
   id="polygon18"
   style="fill:#fefefe" />
  <g
   id="_386681112">
   <path
   d="m 26.9866,33.4603 c 0.488139,0 0.895146,-0.386076 0.895146,-0.874733 0,-0.488139 -0.407007,-0.874733 -0.895146,-0.874733 -0.467415,0 -0.853906,0.386594 -0.853906,0.874733 0,0.488657 0.386491,0.874733 0.853906,0.874733 z"
   id="_386681208"
   style="fill:#fefefe;stroke:#2b2a29;stroke-width:0.122786" />
   <path
   d="m 26.9986,32.7943 c 0.113046,0 0.208891,-0.09543 0.208891,-0.208788 0,-0.112631 -0.09585,-0.20827 -0.208891,-0.20827 -0.105378,0 -0.191069,0.09564 -0.191069,0.20827 0,0.113357 0.08569,0.208788 0.191069,0.208788 z"
   id="_386681160"
   style="fill:#2b2a29;stroke:#2b2a29;stroke-width:0.078956" />
  </g>
  <g
   id="_386680944">
   <path
   d="m 9.13165,73.4404 c 0.488346,0 0.894731,-0.386076 0.894731,-0.874837 0,-0.487932 -0.406385,-0.874319 -0.894731,-0.874319 -0.467415,0 -0.853699,0.386387 -0.853699,0.874319 0,0.48876 0.386283,0.874837 0.853699,0.874837 z"
   id="_386681040"
   style="fill:#fefefe;stroke:#2b2a29;stroke-width:0.122786" />
   <path
   d="m 9.14346,72.7747 c 0.11315,0 0.209202,-0.09564 0.209202,-0.209202 0,-0.112631 -0.096053,-0.208373 -0.209202,-0.208373 -0.104446,0 -0.190966,0.09574 -0.190966,0.208373 0,0.113564 0.08652,0.209202 0.190966,0.209202 z"
   id="_386680992"
   style="fill:#2b2a29;stroke:#2b2a29;stroke-width:0.078956" />
  </g>
  <g
   id="_387111088">
   <path
   d="m 24.1003,16.3589 c 0.488346,0 0.895042,-0.387009 0.895042,-0.875458 0,-0.487517 -0.406696,-0.874422 -0.895042,-0.874422 -0.467105,0 -0.853388,0.386905 -0.853388,0.874422 0,0.48845 0.386283,0.875458 0.853388,0.875458 z"
   id="_387111184"
   style="fill:#fefefe;stroke:#2b2a29;stroke-width:0.122786" />
   <path
   d="m 24.1123,15.6928 c 0.113357,0 0.20941,-0.09543 0.20941,-0.209306 0,-0.112321 -0.09605,-0.208166 -0.20941,-0.208166 -0.104549,0 -0.191277,0.09585 -0.191277,0.208166 0,0.113875 0.08673,0.209306 0.191277,0.209306 z"
   id="_387111136"
   style="fill:#2b2a29;stroke:#2b2a29;stroke-width:0.078956" />
  </g>
  <path
   d="m 19.1159,16.8757 0.207648,0 0,1.38453 0.521607,0 0,-1.38453 0.207544,0 0,1.38453 0.521607,0 0,-1.38453 0.207648,0 0,1.5699 -1.66605,0 0,-1.5699 z m 2.76046,1.20361 0.199255,0.02456 c -0.0314,0.116569 -0.08952,0.206819 -0.174387,0.271165 -0.08517,0.06404 -0.19366,0.09616 -0.325668,0.09616 -0.166305,0 -0.298209,-0.05119 -0.395505,-0.15356 -0.09761,-0.10227 -0.146203,-0.245986 -0.146203,-0.430942 0,-0.191484 0.04932,-0.339967 0.147654,-0.445552 0.09875,-0.105689 0.226299,-0.158637 0.383486,-0.158637 0.152006,0 0.276346,0.05191 0.372399,0.155322 0.09657,0.103513 0.144753,0.249302 0.144753,0.436848 0,0.01171 -3.11e-4,0.02881 -0.001,0.0515 l -0.848,0 c 0.0069,0.125065 0.04238,0.220807 0.106,0.286915 0.06362,0.06652 0.142473,0.09978 0.237593,0.09978 0.07056,0 0.130868,-0.01855 0.180915,-0.05585 0.05005,-0.03699 0.08953,-0.09616 0.118745,-0.177703 z m -0.632684,-0.311783 0.634964,0 c -0.0085,-0.09543 -0.03295,-0.167341 -0.07274,-0.214901 -0.06144,-0.07419 -0.141126,-0.111492 -0.238733,-0.111492 -0.08849,0 -0.162989,0.02963 -0.223294,0.0888 -0.06041,0.05927 -0.09367,0.138536 -0.100197,0.237593 z m 1.07502,-0.459126 0.897736,0 0,1.13719 -0.193038,0 0,-0.977832 -0.51166,0 0,0.977832 -0.193038,0 0,-1.13719 z m 1.96499,0.770909 0.199255,0.02456 c -0.0314,0.116569 -0.08953,0.206819 -0.174387,0.271165 -0.08517,0.06404 -0.19366,0.09616 -0.325668,0.09616 -0.166305,0 -0.298209,-0.05119 -0.395505,-0.15356 -0.09761,-0.10227 -0.146203,-0.245986 -0.146203,-0.430942 0,-0.191484 0.04932,-0.339967 0.147654,-0.445552 0.09875,-0.105689 0.226299,-0.158637 0.383486,-0.158637 0.152006,0 0.276346,0.05191 0.372399,0.155322 0.09657,0.103513 0.144753,0.249302 0.144753,0.436848 0,0.01171 -3.11e-4,0.02881 -0.001,0.0515 l -0.848,0 c 0.0069,0.125065 0.04238,0.220807 0.106,0.286915 0.06362,0.06652 0.142473,0.09978 0.237593,0.09978 0.07056,0 0.130868,-0.01855 0.180915,-0.05585 0.05005,-0.03699 0.08953,-0.09616 0.118745,-0.177703 z m -0.632684,-0.311783 0.634964,0 c -0.0085,-0.09543 -0.03295,-0.167341 -0.07274,-0.214901 -0.06144,-0.07419 -0.141126,-0.111492 -0.238733,-0.111492 -0.08849,0 -0.162989,0.02963 -0.223294,0.0888 -0.06041,0.05927 -0.09367,0.138536 -0.100197,0.237593 z m 0.897425,-0.459126 0.924366,0 0,0.159363 -0.366285,0 0,0.977832 -0.191898,0 0,-0.977832 -0.366182,0 0,-0.159363 z m 1.10932,-0.21086 0,-0.221844 0.193038,0 0,0.221844 -0.193038,0 z m 0,1.34805 0,-1.13719 0.193038,0 0,1.13719 -0.193038,0 z m 0.487206,-1.13719 0.444516,0 c 0.109212,0 0.190448,0.0092 0.24381,0.02704 0.05295,0.01834 0.09864,0.0516 0.136981,0.100197 0.03803,0.0486 0.0574,0.106725 0.0574,0.174698 0,0.05409 -0.0113,0.101648 -0.03399,0.141851 -0.02228,0.0402 -0.05626,0.07419 -0.101234,0.101234 0.05378,0.01793 0.09802,0.05119 0.133458,0.100197 0.03544,0.04891 0.05295,0.106725 0.05295,0.173973 -0.0069,0.107865 -0.04569,0.187857 -0.115533,0.239769 -0.07015,0.05233 -0.171797,0.07823 -0.305151,0.07823 l -0.513214,0 0,-1.13719 z m 0.193038,0.478502 0.205369,0 c 0.08227,0 0.138536,-0.004 0.169206,-0.01274 0.03077,-0.0084 0.05813,-0.02601 0.08269,-0.05191 0.02414,-0.02601 0.03616,-0.0574 0.03616,-0.09357 0,-0.05999 -0.02124,-0.102063 -0.06362,-0.125376 -0.04238,-0.02383 -0.115118,-0.03554 -0.217803,-0.03554 l -0.212,0 0,0.31914 z m 0,0.500055 0.253654,0 c 0.109316,0 0.184231,-0.01243 0.224745,-0.03803 0.04093,-0.02518 0.06217,-0.06911 0.06435,-0.130868 0,-0.03658 -0.01171,-0.07015 -0.03544,-0.101234 -0.02342,-0.03109 -0.05409,-0.05077 -0.0917,-0.05886 -0.03803,-0.0084 -0.09875,-0.01243 -0.182469,-0.01243 l -0.233138,0 0,0.341417 z m 0.970371,-0.978557 0.192624,0 0,0.491351 c 0.06144,0 0.104549,-0.01171 0.129107,-0.03513 0.02445,-0.02373 0.06062,-0.09211 0.108487,-0.205783 0.03803,-0.08994 0.0688,-0.149105 0.09211,-0.177703 0.02383,-0.02849 0.05088,-0.04787 0.08155,-0.05771 0.03067,-0.01026 0.0801,-0.01502 0.147654,-0.01502 l 0.03875,0 0,0.159363 -0.05367,-0.001 c -0.05046,0 -0.083,0.0077 -0.0973,0.02269 -0.01492,0.01565 -0.03803,0.06248 -0.0687,0.140297 -0.02922,0.07419 -0.05595,0.125376 -0.08041,0.153871 -0.02414,0.02891 -0.06175,0.05492 -0.112217,0.07823 0.08258,0.02238 0.164129,0.09947 0.244121,0.231376 l 0.210964,0.352401 -0.212,0 -0.205783,-0.352401 c -0.04207,-0.07056 -0.07896,-0.117294 -0.110041,-0.139572 -0.0314,-0.02269 -0.06911,-0.03368 -0.112631,-0.03368 l 0,0.525648 -0.192624,0 0,-1.13719 z m 1.75092,0.996794 c -0.0716,0.06072 -0.140401,0.103513 -0.206094,0.128692 -0.06621,0.02487 -0.137085,0.0373 -0.212829,0.0373 -0.124962,0 -0.220704,-0.03036 -0.287951,-0.09139 -0.06694,-0.06103 -0.100508,-0.139261 -0.100508,-0.233967 0,-0.05585 0.01233,-0.106725 0.03792,-0.152731 0.02528,-0.04611 0.05854,-0.083 0.09947,-0.110766 0.04134,-0.02777 0.08735,-0.04901 0.138847,-0.06321 0.03772,-0.0099 0.09471,-0.01979 0.171071,-0.02891 0.155736,-0.01865 0.270543,-0.04062 0.344008,-0.06652 7.25e-4,-0.02632 0.001,-0.04311 0.001,-0.05005 0,-0.07864 -0.01824,-0.134184 -0.05481,-0.165994 -0.04891,-0.04383 -0.122371,-0.06538 -0.219253,-0.06538 -0.09067,0 -0.157601,0.01565 -0.201017,0.04746 -0.04321,0.03181 -0.07502,0.08807 -0.09585,0.168895 l -0.188168,-0.02601 c 0.0171,-0.08041 0.04528,-0.145789 0.08434,-0.19511 0.03917,-0.04974 0.09616,-0.08807 0.170346,-0.114807 0.07419,-0.02673 0.160088,-0.0402 0.258109,-0.0402 0.09719,0 0.175838,0.01171 0.236454,0.0344 0.06072,0.023 0.105275,0.0515 0.134184,0.08621 0.02849,0.03471 0.04829,0.07823 0.05989,0.131282 0.0062,0.03285 0.0095,0.09201 0.0095,0.177599 l 0,0.25697 c 0,0.179464 0.004,0.292821 0.01243,0.339967 0.0081,0.04746 0.02445,0.09315 0.0486,0.136671 l -0.201327,0 c -0.01979,-0.03989 -0.03295,-0.08662 -0.03844,-0.140401 z m -0.01606,-0.430528 c -0.07015,0.02881 -0.175112,0.05295 -0.314684,0.07305 -0.07937,0.0114 -0.135634,0.02414 -0.16817,0.03844 -0.03295,0.0142 -0.05854,0.03502 -0.07605,0.06279 -0.01793,0.02746 -0.02704,0.05782 -0.02704,0.09139 0,0.0516 0.01979,0.0944 0.05844,0.128692 0.03875,0.03399 0.09585,0.05119 0.17076,0.05119 0.07419,0 0.140401,-0.01606 0.198115,-0.0486 0.05771,-0.03254 0.100508,-0.0772 0.127552,-0.133458 0.02083,-0.04352 0.03108,-0.107761 0.03108,-0.192624 l 0,-0.07087 z"
   id="path29"
   style="fill:#2b2a29;fill-rule:nonzero" />
  <path
   d="m 19.3296,35.129 0.207959,0.05264 c -0.04342,0.170346 -0.122061,0.300489 -0.235003,0.390428 -0.113357,0.08952 -0.251478,0.134184 -0.415193,0.134184 -0.16931,0 -0.306706,-0.0344 -0.412706,-0.103099 -0.106,-0.06911 -0.186821,-0.168895 -0.241945,-0.299349 -0.05523,-0.130868 -0.083,-0.271269 -0.083,-0.421099 0,-0.163404 0.03109,-0.30598 0.09357,-0.42773 0.06248,-0.121646 0.151281,-0.214176 0.266813,-0.277382 0.115118,-0.06321 0.241945,-0.09471 0.380481,-0.09471 0.157187,0 0.289195,0.03989 0.396231,0.119885 0.10714,0.0801 0.181744,0.192313 0.223709,0.337376 l -0.204332,0.04829 c -0.03647,-0.114393 -0.08911,-0.19739 -0.158637,-0.249613 -0.06901,-0.05233 -0.156047,-0.07823 -0.261322,-0.07823 -0.12061,0 -0.221118,0.02881 -0.30225,0.08662 -0.08124,0.05813 -0.138225,0.135531 -0.17076,0.233138 -0.03285,0.0973 -0.04932,0.197804 -0.04932,0.301214 0,0.133769 0.01938,0.250027 0.05813,0.34981 0.03906,0.09947 0.09937,0.173973 0.18164,0.223294 0.08227,0.04942 0.171071,0.07388 0.266813,0.07388 0.116258,0 0.21459,-0.03357 0.295412,-0.100508 0.08072,-0.06725 0.13522,-0.16703 0.163715,-0.299038 z m 0.3352,-0.586678 0.924366,0 0,0.159363 -0.366285,0 0,0.977832 -0.191898,0 0,-0.977832 -0.366182,0 0,-0.159363 z m 1.82614,0.996794 c -0.0716,0.06072 -0.140401,0.103513 -0.206094,0.128692 -0.06621,0.02487 -0.137085,0.0373 -0.212829,0.0373 -0.124962,0 -0.220704,-0.03036 -0.287951,-0.09139 -0.06694,-0.06103 -0.100508,-0.139261 -0.100508,-0.233967 0,-0.05585 0.01233,-0.106725 0.03792,-0.152731 0.02528,-0.04611 0.05854,-0.083 0.09947,-0.110766 0.04134,-0.02777 0.08735,-0.04901 0.138847,-0.06321 0.03772,-0.0099 0.09471,-0.01979 0.171071,-0.02891 0.155736,-0.01865 0.270543,-0.04062 0.344008,-0.06652 7.25e-4,-0.02632 0.001,-0.04311 0.001,-0.05005 0,-0.07865 -0.01824,-0.134184 -0.05481,-0.165994 -0.04891,-0.04383 -0.122371,-0.06538 -0.219253,-0.06538 -0.09067,0 -0.157601,0.01565 -0.201017,0.04746 -0.04321,0.03181 -0.07502,0.08807 -0.09585,0.168895 l -0.188168,-0.02601 c 0.0171,-0.08041 0.04528,-0.145789 0.08434,-0.19511 0.03917,-0.04974 0.09616,-0.08807 0.170346,-0.114807 0.07419,-0.02673 0.160088,-0.0402 0.258109,-0.0402 0.09719,0 0.175838,0.01171 0.236454,0.0344 0.06072,0.023 0.105275,0.0515 0.134184,0.08621 0.02849,0.03471 0.04829,0.07823 0.05989,0.131282 0.0062,0.03285 0.0095,0.09201 0.0095,0.177599 l 0,0.25697 c 0,0.179464 0.004,0.292821 0.01243,0.339967 0.0081,0.04746 0.02445,0.09315 0.0486,0.136671 l -0.201327,0 c -0.01979,-0.03989 -0.03295,-0.08662 -0.03844,-0.140401 z m -0.01606,-0.430528 c -0.07015,0.02881 -0.175112,0.05295 -0.314684,0.07305 -0.07937,0.0114 -0.135634,0.02414 -0.16817,0.03844 -0.03295,0.01419 -0.05854,0.03502 -0.07605,0.06279 -0.01793,0.02746 -0.02704,0.05782 -0.02704,0.09139 0,0.0516 0.01979,0.0944 0.05844,0.128692 0.03875,0.03399 0.09585,0.05119 0.17076,0.05119 0.07419,0 0.140401,-0.01606 0.198115,-0.0486 0.05771,-0.03254 0.100508,-0.0772 0.127552,-0.133458 0.02083,-0.04352 0.03109,-0.107761 0.03109,-0.192624 l 0,-0.07087 z m 0.493838,1.00664 0,-1.5729 0.175423,0 0,0.147758 c 0.04134,-0.05782 0.08807,-0.101337 0.140401,-0.130143 0.05191,-0.02891 0.115118,-0.04352 0.189308,-0.04352 0.0973,0 0.18278,0.02518 0.25697,0.07491 0.0746,0.05005 0.130557,0.12061 0.16817,0.211689 0.03803,0.09098 0.05699,0.190759 0.05699,0.299349 0,0.116258 -0.02083,0.221118 -0.0629,0.314373 -0.04165,0.09315 -0.10227,0.16444 -0.181951,0.214176 -0.07968,0.04932 -0.163404,0.07419 -0.251167,0.07419 -0.06435,0 -0.12175,-0.01357 -0.172833,-0.04062 -0.05119,-0.02704 -0.09284,-0.06134 -0.125791,-0.102684 l 0,0.553417 -0.192624,0 z m 0.174387,-0.997933 c 0,0.146307 0.02953,0.254483 0.0888,0.324631 0.05917,0.06984 0.131179,0.10486 0.215316,0.10486 0.08548,0 0.158948,-0.03616 0.219978,-0.108901 0.06103,-0.07232 0.0918,-0.184542 0.0918,-0.336651 0,-0.145064 -0.02994,-0.253239 -0.08963,-0.325668 -0.05958,-0.07201 -0.130764,-0.108176 -0.213451,-0.108176 -0.08217,0 -0.154907,0.03834 -0.218217,0.115118 -0.06321,0.07678 -0.0946,0.188583 -0.0946,0.334786 z m 0.973376,-0.0065 c 0,-0.210549 0.05844,-0.366596 0.175838,-0.46783 0.09761,-0.08414 0.216766,-0.126516 0.357478,-0.126516 0.156461,0 0.284325,0.05119 0.383382,0.153871 0.09947,0.102373 0.148794,0.24381 0.148794,0.424414 0,0.146514 -0.02197,0.261736 -0.0658,0.345355 -0.04383,0.08414 -0.107761,0.149208 -0.191484,0.195629 -0.08414,0.04642 -0.175527,0.06942 -0.274895,0.06942 -0.159052,0 -0.28764,-0.05077 -0.385973,-0.153146 -0.09833,-0.101959 -0.147343,-0.248888 -0.147343,-0.4412 z m 0.198115,0 c 0,0.145789 0.03181,0.254794 0.09543,0.327118 0.06362,0.07274 0.143613,0.108901 0.239769,0.108901 0.09574,0 0.175423,-0.03647 0.239044,-0.109212 0.06321,-0.07274 0.09502,-0.18392 0.09502,-0.333024 0,-0.140712 -0.03181,-0.247437 -0.09574,-0.319865 -0.06393,-0.07232 -0.143302,-0.108487 -0.238319,-0.108487 -0.09616,0 -0.176149,0.03616 -0.239769,0.108176 -0.06362,0.07201 -0.09543,0.180915 -0.09543,0.326393 z m 1.09254,-0.568442 0.192624,0 0,0.491351 c 0.06145,0 0.104549,-0.01171 0.129107,-0.03513 0.02445,-0.02373 0.06062,-0.09211 0.108487,-0.205783 0.03803,-0.08994 0.0688,-0.149105 0.09212,-0.177703 0.02383,-0.02849 0.05088,-0.04787 0.08155,-0.05771 0.03067,-0.01026 0.0801,-0.01502 0.147654,-0.01502 l 0.03875,0 0,0.159363 -0.05367,-0.001 c -0.05046,0 -0.083,0.0077 -0.0973,0.02269 -0.01492,0.01565 -0.03803,0.06248 -0.0687,0.140297 -0.02922,0.07419 -0.05595,0.125376 -0.08041,0.153871 -0.02414,0.02891 -0.06176,0.05492 -0.112217,0.07823 0.08258,0.02238 0.164129,0.09947 0.244121,0.231376 l 0.210964,0.352401 -0.212,0 -0.205783,-0.352401 c -0.04207,-0.07056 -0.07896,-0.117294 -0.110041,-0.139572 -0.0314,-0.02269 -0.06911,-0.03368 -0.112631,-0.03368 l 0,0.525648 -0.192624,0 0,-1.13719 z m 0.913071,0.568442 c 0,-0.210549 0.05844,-0.366596 0.175838,-0.46783 0.09761,-0.08414 0.216766,-0.126516 0.357478,-0.126516 0.156461,0 0.284325,0.05119 0.383382,0.153871 0.09947,0.102373 0.148794,0.24381 0.148794,0.424414 0,0.146514 -0.02197,0.261736 -0.0658,0.345355 -0.04383,0.08414 -0.107761,0.149208 -0.191484,0.195629 -0.08414,0.04642 -0.175527,0.06942 -0.274895,0.06942 -0.159052,0 -0.28764,-0.05077 -0.385973,-0.153146 -0.09833,-0.101959 -0.147343,-0.248888 -0.147343,-0.4412 z m 0.198115,0 c 0,0.145789 0.03181,0.254794 0.09543,0.327118 0.06362,0.07274 0.143613,0.108901 0.239769,0.108901 0.09574,0 0.175423,-0.03647 0.239044,-0.109212 0.06321,-0.07274 0.09502,-0.18392 0.09502,-0.333024 0,-0.140712 -0.03181,-0.247437 -0.09574,-0.319865 -0.06393,-0.07232 -0.143302,-0.108487 -0.238319,-0.108487 -0.09616,0 -0.176149,0.03616 -0.239769,0.108176 -0.06362,0.07201 -0.09543,0.180915 -0.09543,0.326393 z m 1.83568,0.152006 0.189308,0.02487 c -0.02041,0.130557 -0.07346,0.232827 -0.158948,0.306706 -0.08517,0.07388 -0.190033,0.110766 -0.314373,0.110766 -0.155322,0 -0.280698,-0.05077 -0.374989,-0.15242 -0.0947,-0.101648 -0.142266,-0.247437 -0.142266,-0.437574 0,-0.122786 0.02052,-0.230237 0.06113,-0.322352 0.04093,-0.09211 0.102684,-0.161228 0.185992,-0.207234 0.083,-0.04611 0.173662,-0.06911 0.271269,-0.06911 0.123511,0 0.224745,0.0314 0.302976,0.09398 0.07865,0.06248 0.129003,0.15097 0.151384,0.266088 l -0.187546,0.02881 c -0.01793,-0.07637 -0.04932,-0.133769 -0.09471,-0.172522 -0.04528,-0.03834 -0.100094,-0.05772 -0.16444,-0.05772 -0.0973,0 -0.176252,0.03471 -0.236868,0.104549 -0.06072,0.06942 -0.09108,0.179464 -0.09108,0.33002 0,0.152835 0.02932,0.263912 0.08818,0.333439 0.05844,0.06901 0.134805,0.10372 0.229097,0.10372 0.07574,0 0.138536,-0.02331 0.189412,-0.06973 0.05077,-0.04642 0.083,-0.117709 0.09647,-0.21428 z m 0.250442,-0.720448 0.924366,0 0,0.159363 -0.366285,0 0,0.977832 -0.191898,0 0,-0.977832 -0.366182,0 0,-0.159363 z m 2.00374,0 0,1.13719 -0.191898,0 0,-0.443376 -0.111077,0 c -0.06797,0 -0.118434,0.0088 -0.151695,0.02632 -0.03326,0.01751 -0.08155,0.07388 -0.145167,0.168481 l -0.168066,0.248577 -0.238733,0 0.207648,-0.306291 c 0.06362,-0.09357 0.126827,-0.146203 0.189722,-0.158326 -0.110041,-0.01534 -0.191587,-0.05481 -0.24495,-0.119159 -0.05295,-0.06393 -0.07968,-0.138121 -0.07968,-0.221429 0,-0.09875 0.03471,-0.178428 0.104549,-0.239873 0.06942,-0.06134 0.170346,-0.09211 0.30225,-0.09211 l 0.527099,0 z m -0.191898,0.159363 -0.27417,0 c -0.114704,0 -0.188893,0.01793 -0.222154,0.05378 -0.03295,0.03544 -0.04974,0.07751 -0.04974,0.125065 0,0.06797 0.02445,0.117605 0.07346,0.149415 0.04901,0.03181 0.13522,0.04787 0.25956,0.04787 l 0.213036,0 0,-0.376129 z m 0.48503,-0.159363 0.193038,0 0,0.473425 0.534352,0 0,-0.473425 0.192624,0 0,1.13719 -0.192624,0 0,-0.504407 -0.534352,0 0,0.504407 -0.193038,0 0,-1.13719 z m 1.10611,0 0.924366,0 0,0.159363 -0.366285,0 0,0.977832 -0.191898,0 0,-0.977832 -0.366182,0 0,-0.159363 z m 1.1086,0 0.192624,0 0,0.86748 0.534352,-0.86748 0.207648,0 0,1.13719 -0.192624,0 0,-0.861885 -0.534352,0.861885 -0.207648,0 0,-1.13719 z m 1.22599,0 0.193038,0 0,0.473425 0.534352,0 0,-0.473425 0.192624,0 0,1.13719 -0.192624,0 0,-0.504407 -0.534352,0 0,0.504407 -0.193038,0 0,-1.13719 z m 1.21097,-0.21086 0,-0.221844 0.193038,0 0,0.221844 -0.193038,0 z m 0,1.34805 0,-1.13719 0.193038,0 0,1.13719 -0.193038,0 z m 0.487206,-1.13719 0.444516,0 c 0.109212,0 0.190448,0.0092 0.24381,0.02704 0.05295,0.01834 0.09864,0.0516 0.136981,0.100197 0.03803,0.0486 0.0574,0.106725 0.0574,0.174698 0,0.05409 -0.01129,0.101648 -0.03399,0.141851 -0.02228,0.0402 -0.05626,0.07419 -0.101234,0.101234 0.05378,0.01793 0.09802,0.05119 0.133458,0.100197 0.03544,0.04891 0.05295,0.106725 0.05295,0.173973 -0.0069,0.107865 -0.0457,0.187857 -0.115533,0.239769 -0.07015,0.05233 -0.171797,0.07823 -0.305151,0.07823 l -0.513214,0 0,-1.13719 z m 0.193038,0.478502 0.205369,0 c 0.08227,0 0.138536,-0.004 0.169206,-0.01274 0.03077,-0.0084 0.05813,-0.02601 0.08269,-0.05191 0.02414,-0.02601 0.03616,-0.0574 0.03616,-0.09357 0,-0.05999 -0.02124,-0.102063 -0.06362,-0.125376 -0.04238,-0.02383 -0.115118,-0.03554 -0.217803,-0.03554 l -0.212,0 0,0.31914 z m 0,0.500055 0.253654,0 c 0.109316,0 0.184231,-0.01243 0.224745,-0.03803 0.04093,-0.02518 0.06217,-0.06911 0.06435,-0.130868 0,-0.03658 -0.01171,-0.07015 -0.03544,-0.101234 -0.02342,-0.03109 -0.05409,-0.05077 -0.0917,-0.05886 -0.03803,-0.0084 -0.09875,-0.01243 -0.182469,-0.01243 l -0.233138,0 0,0.341417 z"
   id="path31"
   style="fill:#2b2a29;fill-rule:nonzero" />
  <path
   d="m 11.2562,68.3612 0.207648,0 0,0.687498 c 0.09502,0 0.161539,-0.01824 0.200291,-0.05512 0.03834,-0.03699 0.08776,-0.125065 0.147654,-0.265052 0.04352,-0.102684 0.07937,-0.175423 0.107865,-0.217906 0.02808,-0.04238 0.06828,-0.07813 0.120195,-0.107036 0.05233,-0.02891 0.10973,-0.04352 0.172522,-0.04352 0.0801,0 0.122164,7.25e-4 0.126516,0.0022 l 0,0.179879 c -0.0074,0 -0.02124,-4.15e-4 -0.04207,-0.0011 -0.02259,-7.25e-4 -0.03647,-0.001 -0.04165,-0.001 -0.06652,0 -0.115533,0.01606 -0.147654,0.04818 -0.03285,0.03222 -0.07056,0.100923 -0.112631,0.205783 -0.05264,0.132733 -0.09719,0.216456 -0.133769,0.251167 -0.03647,0.0344 -0.07999,0.06217 -0.130454,0.083 0.101234,0.02777 0.201017,0.121335 0.299763,0.280283 l 0.323492,0.522747 -0.258109,0 -0.262461,-0.426176 c -0.07201,-0.117709 -0.13263,-0.19853 -0.180915,-0.242774 -0.0486,-0.04383 -0.111492,-0.0658 -0.188583,-0.0658 l 0,0.734747 -0.207648,0 0,-1.5699 z m 1.99172,1.4295 c -0.0716,0.06072 -0.140401,0.103513 -0.206094,0.128692 -0.06621,0.02487 -0.137085,0.0373 -0.212829,0.0373 -0.124962,0 -0.220704,-0.03036 -0.287951,-0.09139 -0.06694,-0.06103 -0.100508,-0.139261 -0.100508,-0.233967 0,-0.05585 0.01233,-0.106725 0.03792,-0.152731 0.02528,-0.04611 0.05854,-0.083 0.09947,-0.110766 0.04134,-0.02777 0.08735,-0.04901 0.138847,-0.06321 0.03772,-0.0099 0.09471,-0.01979 0.171071,-0.02891 0.155736,-0.01865 0.270543,-0.04062 0.344008,-0.06652 7.25e-4,-0.02632 0.001,-0.0431 0.001,-0.05005 0,-0.07864 -0.01824,-0.134184 -0.05481,-0.165994 -0.04891,-0.04383 -0.122371,-0.06538 -0.219253,-0.06538 -0.09067,0 -0.157601,0.01565 -0.201017,0.04746 -0.04321,0.03181 -0.07502,0.08807 -0.09585,0.168895 l -0.188168,-0.02601 c 0.0171,-0.08041 0.04528,-0.145789 0.08434,-0.19511 0.03917,-0.04974 0.09616,-0.08807 0.170346,-0.114807 0.07419,-0.02673 0.160088,-0.0402 0.258109,-0.0402 0.09719,0 0.175838,0.01171 0.236454,0.0344 0.06072,0.023 0.105275,0.0515 0.134184,0.08621 0.02849,0.03471 0.04829,0.07823 0.05989,0.131282 0.0062,0.03285 0.0095,0.09201 0.0095,0.177599 l 0,0.25697 c 0,0.179464 0.004,0.292821 0.01243,0.339967 0.0081,0.04746 0.02445,0.09315 0.0486,0.136671 l -0.201327,0 c -0.01979,-0.03989 -0.03295,-0.08662 -0.03844,-0.140401 z m -0.01606,-0.430528 c -0.07015,0.02881 -0.175112,0.05295 -0.314684,0.07305 -0.07937,0.0114 -0.135634,0.02414 -0.16817,0.03844 -0.03295,0.0142 -0.05854,0.03502 -0.07605,0.06279 -0.01793,0.02746 -0.02704,0.05782 -0.02704,0.09139 0,0.0516 0.01979,0.0944 0.05844,0.128692 0.03875,0.03399 0.09584,0.05119 0.17076,0.05119 0.07419,0 0.140401,-0.01606 0.198115,-0.0486 0.05771,-0.03254 0.100508,-0.07719 0.127552,-0.133458 0.02083,-0.04352 0.03109,-0.107761 0.03109,-0.192624 l 0,-0.07087 z m 0.498915,-0.566266 0.299763,0 0.299038,0.91017 0.331885,-0.91017 0.277382,0 0,1.13719 -0.192624,0 0,-0.915662 -0.336237,0.915662 -0.172522,0 -0.318,-0.959492 0,0.959492 -0.188686,0 0,-1.13719 z m 1.50348,0.1232 -0.04901,-0.293443 0,-0.262461 0.219357,0 0,0.262461 -0.05119,0.293443 -0.119159,0 z m 1.31334,-0.1232 0,1.13719 -0.191898,0 0,-0.443376 -0.111077,0 c -0.06797,0 -0.118434,0.0088 -0.151695,0.02632 -0.03326,0.01751 -0.08155,0.07388 -0.145167,0.168481 l -0.168066,0.248577 -0.238733,0 0.207648,-0.306291 c 0.06362,-0.09357 0.126827,-0.146203 0.189722,-0.158326 -0.110041,-0.01534 -0.191587,-0.05481 -0.24495,-0.119159 -0.05295,-0.06393 -0.07968,-0.138121 -0.07968,-0.221429 0,-0.09875 0.03471,-0.178428 0.104549,-0.239873 0.06942,-0.06134 0.170346,-0.09212 0.30225,-0.09212 l 0.527099,0 z m -0.191898,0.159363 -0.27417,0 c -0.114704,0 -0.188893,0.01793 -0.222154,0.05378 -0.03295,0.03544 -0.04974,0.07751 -0.04974,0.125065 0,0.06797 0.02445,0.117605 0.07347,0.149415 0.04901,0.03181 0.13522,0.04787 0.25956,0.04787 l 0.213036,0 0,-0.376129 z m 0.48503,-0.159363 0.193038,0 0,0.473425 0.534352,0 0,-0.473425 0.192624,0 0,1.13719 -0.192624,0 0,-0.504407 -0.534352,0 0,0.504407 -0.193038,0 0,-1.13719 z m 1.98841,0.770909 0.199255,0.02456 c -0.03139,0.116569 -0.08952,0.206819 -0.174387,0.271165 -0.08517,0.06404 -0.19366,0.09616 -0.325668,0.09616 -0.166305,0 -0.298209,-0.05119 -0.395505,-0.15356 -0.09761,-0.10227 -0.146203,-0.245986 -0.146203,-0.430942 0,-0.191484 0.04932,-0.339967 0.147654,-0.445552 0.09875,-0.105689 0.226299,-0.158637 0.383486,-0.158637 0.152006,0 0.276346,0.05191 0.372399,0.155322 0.09657,0.103513 0.144753,0.249302 0.144753,0.436848 0,0.01171 -3.1e-4,0.0288 -0.001,0.0515 l -0.848,0 c 0.0069,0.125065 0.04238,0.220807 0.106,0.286915 0.06362,0.06652 0.142473,0.09978 0.237593,0.09978 0.07056,0 0.130868,-0.01855 0.180915,-0.05585 0.05005,-0.03699 0.08953,-0.09616 0.118745,-0.177703 z m -0.632684,-0.311783 0.634964,0 c -0.0085,-0.09543 -0.03295,-0.167341 -0.07274,-0.214901 -0.06144,-0.07419 -0.141126,-0.111492 -0.238733,-0.111492 -0.08849,0 -0.162989,0.02963 -0.223294,0.0888 -0.06041,0.05927 -0.09367,0.138536 -0.100197,0.237593 z m 1.0772,-0.459126 0.193038,0 0,0.978557 0.533316,0 0,-0.978557 0.192624,0 0,0.978557 0.124237,0 0,0.480989 -0.158637,0 0,-0.322352 -0.884577,0 0,-1.13719 z m 1.25014,0 0.192624,0 0,0.444205 0.244225,0 c 0.159363,0 0.281838,0.03098 0.367736,0.09284 0.08621,0.06176 0.129003,0.146929 0.129003,0.255415 0,0.09471 -0.03585,0.176252 -0.107451,0.243499 -0.0717,0.06756 -0.186407,0.101234 -0.344319,0.101234 l -0.481818,0 0,-1.13719 z m 0.192624,0.978557 0.202571,0 c 0.122061,0 0.208995,-0.01502 0.261322,-0.04497 0.05191,-0.02994 0.07782,-0.07678 0.07782,-0.139986 0,-0.04932 -0.01896,-0.09325 -0.05772,-0.131904 -0.03834,-0.03844 -0.123926,-0.05782 -0.25583,-0.05782 l -0.228164,0 0,0.374678 z m 0.877945,-0.312508 0,-0.193763 0.592585,0 0,0.193763 -0.592585,0 z m -10.3393,1.35137 1.2348,0 0,1.5699 -0.209099,0 0,-1.38463 -0.818055,0 0,1.38463 -0.207648,0 0,-1.5699 z m 1.47789,1.00115 c 0,-0.210549 0.05844,-0.366596 0.175838,-0.46783 0.09761,-0.08414 0.216766,-0.126516 0.357478,-0.126516 0.156461,0 0.284325,0.05119 0.383382,0.153871 0.09947,0.102373 0.148794,0.24381 0.148794,0.424414 0,0.146514 -0.02197,0.261736 -0.0658,0.345355 -0.04383,0.08414 -0.107761,0.149208 -0.191484,0.195629 -0.08414,0.04642 -0.175527,0.06942 -0.274895,0.06942 -0.159052,0 -0.28764,-0.05077 -0.385973,-0.153146 -0.09833,-0.101959 -0.147343,-0.248888 -0.147343,-0.4412 z m 0.198115,0 c 0,0.145789 0.03181,0.254794 0.09543,0.327118 0.06362,0.07274 0.143613,0.108901 0.239769,0.108901 0.09574,0 0.175423,-0.03647 0.239044,-0.109212 0.06321,-0.07274 0.09502,-0.18392 0.09502,-0.333024 0,-0.140712 -0.03181,-0.247437 -0.09574,-0.319865 -0.06393,-0.07232 -0.143302,-0.108487 -0.238319,-0.108487 -0.09616,0 -0.176149,0.03616 -0.239769,0.108176 -0.06362,0.07201 -0.09543,0.180915 -0.09543,0.326393 z m 1.1974,-0.568442 0.792461,0 0,0.978557 0.12289,0 0,0.480989 -0.158326,0 0,-0.322352 -0.895146,0 0,0.322352 -0.158637,0 0,-0.480989 0.101648,0 c 0.135531,-0.184231 0.200602,-0.510313 0.19511,-0.978557 z m 0.160502,0.159363 c -0.0142,0.369187 -0.07129,0.642321 -0.171382,0.819194 l 0.611443,0 0,-0.819194 -0.440061,0 z m 0.967885,-0.370223 0,-0.221844 0.193038,0 0,0.221844 -0.193038,0 z m 0,1.34805 0,-1.13719 0.193038,0 0,1.13719 -0.193038,0 z m 0.580461,-1.13719 0.895456,0 0,1.13719 -0.191898,0 0,-0.977832 -0.510624,0 0,0.566577 c 0,0.132008 -0.0044,0.219357 -0.01274,0.261425 -0.0088,0.04197 -0.03222,0.07896 -0.07098,0.110352 -0.03834,0.0314 -0.09429,0.04715 -0.16703,0.04715 -0.04497,0 -0.09688,-0.0029 -0.155322,-0.0088 l 0,-0.160399 0.08476,0 c 0.03989,0 0.06839,-0.0045 0.08559,-0.01243 0.0172,-0.0084 0.02849,-0.02124 0.0343,-0.03917 0.0059,-0.01782 0.0085,-0.07595 0.0085,-0.174698 l 0,-0.749357 z m 1.18237,0 0.192624,0 0,0.444205 0.244225,0 c 0.159363,0 0.281838,0.03098 0.367736,0.09284 0.08621,0.06175 0.129003,0.146929 0.129003,0.255415 0,0.0947 -0.03585,0.176252 -0.107451,0.243499 -0.0717,0.06756 -0.186407,0.101234 -0.344319,0.101234 l -0.481818,0 0,-1.13719 z m 0.192624,0.978557 0.202571,0 c 0.122061,0 0.208995,-0.01502 0.261322,-0.04497 0.05191,-0.02994 0.07782,-0.07678 0.07782,-0.139986 0,-0.04932 -0.01896,-0.09325 -0.05771,-0.131904 -0.03834,-0.03844 -0.123926,-0.05782 -0.25583,-0.05782 l -0.228164,0 0,0.374678 z m 1.69527,-0.258109 0.189308,0.02487 c -0.02041,0.130557 -0.07346,0.232827 -0.158948,0.306706 -0.08517,0.07388 -0.190033,0.110766 -0.314373,0.110766 -0.155322,0 -0.280698,-0.05077 -0.374989,-0.15242 -0.09471,-0.101648 -0.142266,-0.247437 -0.142266,-0.437574 0,-0.122786 0.02052,-0.230237 0.06113,-0.322352 0.04093,-0.09211 0.102684,-0.161228 0.185992,-0.207234 0.083,-0.04611 0.173662,-0.06911 0.271269,-0.06911 0.123511,0 0.224745,0.0314 0.302976,0.09398 0.07865,0.06248 0.129003,0.15097 0.151384,0.266088 l -0.187546,0.02881 c -0.01792,-0.07637 -0.04932,-0.133769 -0.0947,-0.172522 -0.04528,-0.03834 -0.100094,-0.05772 -0.16444,-0.05772 -0.0973,0 -0.176252,0.03471 -0.236868,0.104549 -0.06072,0.06942 -0.09108,0.179464 -0.09108,0.33002 0,0.152835 0.02932,0.263912 0.08818,0.333439 0.05844,0.06901 0.134805,0.10372 0.229097,0.10372 0.07574,0 0.138536,-0.02331 0.189412,-0.06973 0.05077,-0.04642 0.083,-0.117709 0.09647,-0.21428 z m 0.351261,-0.720448 0.192624,0 0,0.444205 0.244225,0 c 0.159363,0 0.281838,0.03098 0.367736,0.09284 0.08621,0.06175 0.129003,0.146929 0.129003,0.255415 0,0.0947 -0.03585,0.176252 -0.107451,0.243499 -0.0717,0.06756 -0.186407,0.101234 -0.344319,0.101234 l -0.481818,0 0,-1.13719 z m 0.192624,0.978557 0.202571,0 c 0.122061,0 0.208995,-0.01502 0.261322,-0.04497 0.05191,-0.02994 0.07782,-0.07678 0.07782,-0.139986 0,-0.04932 -0.01896,-0.09325 -0.05771,-0.131904 -0.03834,-0.03844 -0.123926,-0.05782 -0.25583,-0.05782 l -0.228164,0 0,0.374678 z m 0.952135,-0.978557 0.192624,0 0,0.491351 c 0.06144,0 0.104549,-0.01171 0.129107,-0.03513 0.02445,-0.02373 0.06062,-0.09212 0.108487,-0.205783 0.03803,-0.08994 0.0688,-0.149105 0.09212,-0.177703 0.02383,-0.0285 0.05088,-0.04787 0.08155,-0.05772 0.03067,-0.01026 0.0801,-0.01502 0.147654,-0.01502 l 0.03875,0 0,0.159363 -0.05367,-0.001 c -0.05046,0 -0.083,0.0077 -0.0973,0.02269 -0.01492,0.01565 -0.03803,0.06248 -0.0687,0.140297 -0.02922,0.07419 -0.05595,0.125376 -0.08041,0.153871 -0.02414,0.02891 -0.06176,0.05492 -0.112217,0.07823 0.08258,0.02238 0.164129,0.09947 0.244121,0.231376 l 0.210964,0.352401 -0.212,0 -0.205783,-0.352401 c -0.04207,-0.07056 -0.07896,-0.117294 -0.110041,-0.139572 -0.0314,-0.02269 -0.06911,-0.03368 -0.112631,-0.03368 l 0,0.525648 -0.192624,0 0,-1.13719 z m 0.960631,0 0.192624,0 0,0.86748 0.534352,-0.86748 0.207648,0 0,1.13719 -0.192624,0 0,-0.861885 -0.534352,0.861885 -0.207648,0 0,-1.13719 z m 1.22527,0 0.192624,0 0,0.86748 0.534352,-0.86748 0.207648,0 0,1.13719 -0.192624,0 0,-0.861885 -0.534352,0.861885 -0.207648,0 0,-1.13719 z m 0.669261,-0.430528 0.131593,0 c -0.01057,0.08921 -0.0431,0.157912 -0.09792,0.205369 -0.0545,0.04798 -0.127241,0.07201 -0.217906,0.07201 -0.09139,0 -0.164439,-0.02373 -0.218941,-0.07129 -0.05481,-0.04746 -0.08735,-0.116154 -0.09792,-0.206094 l 0.131593,0 c 0.0098,0.0486 0.02995,0.08476 0.05958,0.10859 0.02953,0.02404 0.06942,0.03575 0.119159,0.03575 0.05813,0 0.101544,-0.01129 0.131179,-0.03471 0.02964,-0.023 0.04974,-0.05958 0.05958,-0.109627 z"
   id="path33"
   style="fill:#2b2a29;fill-rule:nonzero" />
  <g
   id="_387104920">
   <path
   d="m 21.2398,45.9722 c 0.636414,0 1.16776,-0.504925 1.16776,-1.14155 0,-0.637243 -0.531347,-1.14175 -1.16776,-1.14175 -0.637036,0 -1.14113,0.50451 -1.14113,1.14175 0,0.636622 0.504096,1.14155 1.14113,1.14155 z"
   id="_387105016"
   style="fill:#fefefe;stroke:#2b2a29;stroke-width:0.16029499" />
   <path
   d="m 21.2398,45.4673 c 0.345148,0 0.636414,-0.291267 0.636414,-0.636622 0,-0.344837 -0.291267,-0.637243 -0.636414,-0.637243 -0.345251,0 -0.61051,0.292407 -0.61051,0.637243 0,0.345355 0.265259,0.636622 0.61051,0.636622"
   id="_387104968"
   style="fill:none;stroke:#2b2a29;stroke-width:0.192416" />
  </g>
  <path
   d="m 10.6161,48.9638 0.715474,-1.36526 -0.648227,-1.25138 0.493734,0 0.420166,0.840747 0.410841,-0.840747 0.489797,0 -0.651128,1.27086 0.715578,1.34578 -0.509898,0 -0.463996,-0.904678 -0.465447,0.904678 -0.506893,0 z m 2.17181,-1.89536 0.497153,0 0.376751,1.3208 0.379652,-1.3208 0.495599,0 0,1.89536 -0.341107,0 0,-1.24775 -0.369912,1.24775 -0.342661,0 -0.352815,-1.24775 0,1.24775 -0.342661,0 0,-1.89536 z m 3.02955,1.29221 0.400168,0.08351 c -0.05171,0.183298 -0.13263,0.32287 -0.243707,0.418508 -0.110663,0.09626 -0.249509,0.14382 -0.416125,0.14382 -0.263705,0 -0.458712,-0.107243 -0.585435,-0.322974 -0.09989,-0.172418 -0.150141,-0.390532 -0.150141,-0.653097 0,-0.314373 0.0658,-0.560463 0.19739,-0.738373 0.131179,-0.17791 0.29738,-0.266813 0.498086,-0.266813 0.225781,0 0.403587,0.09315 0.534248,0.279662 0.130039,0.186407 0.19252,0.47156 0.187132,0.855978 l -1.00539,0 c 0.0029,0.148587 0.03502,0.264326 0.09699,0.346598 0.06176,0.08289 0.139261,0.12434 0.231376,0.12434 0.0629,0 0.115533,-0.02134 0.15843,-0.06403 0.0429,-0.04321 0.07564,-0.112113 0.09699,-0.20713 z m 0.023,-0.506893 c -0.003,-0.145582 -0.03274,-0.25583 -0.08973,-0.331367 -0.05699,-0.07554 -0.126723,-0.113357 -0.208684,-0.113357 -0.08766,0 -0.159777,0.0402 -0.216766,0.119988 -0.05709,0.07927 -0.08538,0.18765 -0.08434,0.324735 l 0.599527,0 z m 0.833804,-0.785312 1.34381,0 0,1.89536 -0.399754,0 0,-1.48835 -0.54689,0 0,0.851108 c 0,0.21687 -0.01989,0.368565 -0.05989,0.456328 -0.04,0.08714 -0.08434,0.144338 -0.133044,0.171797 -0.04828,0.02736 -0.126205,0.04145 -0.233967,0.04145 -0.06383,0 -0.148172,-0.01098 -0.252929,-0.03233 l 0,-0.369187 c 0.0088,0 0.03119,6.22e-4 0.06725,0.003 0.04186,0.0037 0.07409,0.0055 0.09698,0.0055 0.05409,0 0.08776,-0.02186 0.09989,-0.06704 0.01274,-0.04445 0.01855,-0.168688 0.01855,-0.372192 l 0,-1.09544 z m 1.75796,0 0.401101,0 0,0.787177 0.403173,0 c 0.157912,0 0.279247,0.01399 0.364006,0.04259 0.08486,0.0287 0.155011,0.09025 0.211067,0.184645 0.05657,0.09439 0.08434,0.204747 0.08434,0.329605 0,0.18278 -0.05025,0.321005 -0.150659,0.413017 -0.100405,0.09201 -0.25096,0.138328 -0.451873,0.138328 l -0.861159,0 0,-1.89536 z m 0.401101,1.57798 0.374368,0 c 0.116983,0 0.192002,-0.02435 0.224641,-0.07191 0.03316,-0.04756 0.04974,-0.104239 0.04974,-0.169413 0,-0.09139 -0.0287,-0.1547 -0.08528,-0.189412 -0.05657,-0.03409 -0.156876,-0.05181 -0.301732,-0.05181 l -0.261736,0 0,0.482543 z m 1.37199,-1.57798 0.401619,0 0,0.693922 0.573623,0 0,-0.693922 0.403173,0 0,1.89536 -0.403173,0 0,-0.796295 -0.573623,0 0,0.796295 -0.401619,0 0,-1.89536 z m 1.77216,0 0.385455,0 0,1.19045 0.617142,-1.19045 0.393744,0 0,1.89536 -0.385455,0 0,-1.2118 -0.625431,1.2118 -0.385455,0 0,-1.89536 z m 1.79309,0 0.401619,0 0,1.49022 0.572172,0 0,-1.49022 0.401619,0 0,1.49022 0.15843,0 0,0.904678 -0.324113,0 0,-0.499537 -1.20973,0 0,-1.89536 z m 1.82034,0 0.401101,0 0,0.787177 0.403173,0 c 0.157912,0 0.279247,0.01399 0.364006,0.04259 0.08486,0.0287 0.155011,0.09025 0.211067,0.184645 0.05657,0.09439 0.08434,0.204747 0.08434,0.329605 0,0.18278 -0.05025,0.321005 -0.150659,0.413017 -0.100405,0.09201 -0.25096,0.138328 -0.451873,0.138328 l -0.861159,0 0,-1.89536 z m 0.401101,1.57798 0.374368,0 c 0.116983,0 0.192002,-0.02435 0.224641,-0.07191 0.03316,-0.04756 0.04974,-0.104239 0.04974,-0.169413 0,-0.09139 -0.0287,-0.1547 -0.08528,-0.189412 -0.05657,-0.03409 -0.156876,-0.05181 -0.301732,-0.05181 l -0.261736,0 0,0.482543 z m 1.37199,-1.57798 0.400168,0 0,0.774328 c 0.06631,-0.0091 0.113564,-0.03471 0.141333,-0.07668 0.02736,-0.04145 0.06093,-0.132837 0.09999,-0.27303 0.05108,-0.187028 0.107658,-0.306395 0.168585,-0.358825 0.06093,-0.05233 0.140815,-0.07854 0.239769,-0.07854 0.03015,0 0.08331,0.003 0.15843,0.0091 l 0.0015,0.331988 c -0.105689,0 -0.173558,0.01223 -0.202778,0.0372 -0.02974,0.02622 -0.06134,0.104239 -0.09554,0.233967 -0.04673,0.174802 -0.114082,0.282667 -0.201224,0.32287 0.126205,0.04445 0.233449,0.181537 0.321108,0.412499 0.0044,0.01212 0.0097,0.02435 0.01565,0.03772 l 0.224123,0.522747 -0.431253,0 -0.199877,-0.547718 c -0.04093,-0.11087 -0.07647,-0.182158 -0.106207,-0.213865 -0.03026,-0.03098 -0.0746,-0.04684 -0.133562,-0.04684 l 0,0.808418 -0.400168,0 0,-1.89536 z m 1.4696,0 0.385455,0 0,1.19045 0.617038,-1.19045 0.393847,0 0,1.89536 -0.385558,0 0,-1.2118 -0.625327,1.2118 -0.385455,0 0,-1.89536 z m 1.79744,0 0.385455,0 0,1.19045 0.617038,-1.19045 0.393847,0 0,1.89536 -0.385558,0 0,-1.2118 -0.625327,1.2118 -0.385455,0 0,-1.89536 z m 0.961046,-0.769458 0.195421,0 c -0.01119,0.161435 -0.05647,0.28878 -0.135945,0.380792 -0.07999,0.09263 -0.18278,0.138328 -0.309503,0.138328 -0.126723,0 -0.229511,-0.04569 -0.308985,-0.138328 -0.07947,-0.09201 -0.124755,-0.219357 -0.136463,-0.380792 l 0.195939,0 c 0.0063,0.08476 0.03015,0.148068 0.07118,0.191898 0.04093,0.04331 0.100301,0.06528 0.178325,0.06528 0.07802,0 0.1375,-0.02197 0.178428,-0.06528 0.04093,-0.04383 0.06476,-0.10714 0.0716,-0.191898 z"
   id="path38"
   style="fill:#2b2a29;fill-rule:nonzero" />
 </g>
</svg>