<?xml version="1.0" encoding="UTF-8" standalone="no"?>
<!-- Created with Inkscape (http://www.inkscape.org/) -->

<svg
   xmlns:svg="http://www.w3.org/2000/svg"
   xmlns="http://www.w3.org/2000/svg"
   version="1.1"
   width="105.286mm"
   height="54.112mm"
   viewBox="0 0 48.3474 24.8482"
   id="svg2"
   xml:space="preserve"
   style="fill-rule:evenodd">
 <defs
   id="defs4">
  <style
   type="text/css"
   id="style6" />
 </defs>
 <g
   id="Layer_x0020_1">
  
  <path
   d="m 48.3474,4.91587 -0.176562,0.562841 -0.33967,0 -0.02374,1.2319 -0.375075,0.035267 -0.05869,-0.398953 -0.187491,0.02319 -0.117509,0.434311 -0.903338,-0.058548 0,-0.528034 -0.610185,0 -0.24659,0.398953 -0.316113,0.035267 -0.341048,-0.187813 0.09441,0.832943 0.774073,0.680534 0.492813,-0.058732 0.80934,0.610277 0.340589,0 c 0,0 0.422097,0.316618 0,0.375075 -0.434265,0.059329 -0.410663,0.094457 -0.410663,0.094457 l -0.551821,0.680259 -1.02071,0.210865 0.05836,0.6218035 -0.55081,0.152822 -0.03559,-0.375809 -0.703678,0.09391 -0.434265,0.926482 0.222574,1.45511 -0.187124,0.305276 0.36387,0.39854 -0.02374,0.305001 -0.187491,0.128806 -0.09414,0.62217 0.434587,0.117647 0,0.246177 -0.188088,0 0.03513,0.36387 0.363503,0.1525 0.246682,0.92639 -0.493273,-0.316527 -0.116912,0.657299 -0.621894,0.05836 -0.304541,0.586169 -0.528355,0.02337 -0.609726,0.282408 0.269413,0.527436 -0.363549,0.609681 -0.340267,-0.116912 0.02356,-0.868163 -0.304817,-0.02328 0.05869,-0.375396 -0.493135,0.03513 0.05869,0.738945 -0.492446,0.153143 0.03481,0.304679 0.528218,-0.09381 0.02323,0.316572 -1.25495,0.49263 -0.774395,0.434082 -0.152684,0.152363 -0.281581,0.117509 -0.1525,-0.363686 -0.433944,0.246177 -0.187445,-0.339808 -0.73945,0.305138 0.281306,0.985259 -0.715525,0.222896 -0.245856,-0.340267 -1.26735,0.305322 0,0.375258 0.65684,-0.09432 0.1525,0.340313 -1.17303,0.246636 0.09363,0.363824 0.246636,-0.02388 -0.03495,0.423199 -0.246774,0.03481 0.05882,0.398677 -0.210727,0.492767 -0.833678,0.340451 -0.680764,0.09349 -0.703494,0.153143 -0.129265,-0.340772 -1.11416,0.434082 -0.762685,-0.704137 -0.715847,0.21137 0,0.492767 -0.363089,0.09381 0,0.398815 -0.622491,0.07058 -0.586123,-1.17289 -1.02071,-0.09446 -1.19663,0.797952 -0.739587,0 -0.09349,-0.304863 0.363732,-0.305001 0,-0.434265 0.375396,-0.09363 -0.05823,-0.399458 -0.281581,-0.680259 -0.152684,-0.680213 -0.903476,0.05869 -0.49263,-1.11471 0.585985,-0.738945 -0.304863,-0.645589 -0.739266,0.339992 -0.246131,-0.492171 -0.37558,0.09363 0,-0.246131 -0.609863,0.1525 0.09381,0.339624 -0.563163,-0.128622 0.03495,0.434265 -0.77343,-0.0585 0.187124,-0.282087 0,-0.516049 -0.891583,0.08178 -0.03513,-0.738623 -0.340451,0.468889 -0.797171,0.152822 -0.188226,-0.375212 -0.37512,0.188088 -0.422694,-0.493135 -0.562704,-0.246453 -0.117877,-0.739128 -1.39606,-0.05901 -0.0231,-0.433623 -0.985627,0.152546 0.02356,0.644946 -0.492767,0 -0.153005,0.129265 -0.550994,0.02388 -0.129173,-0.211691 -0.586444,0.05855 0.05869,0.31671 -0.36387,0 -0.09363,-0.410525 -0.492722,0 -0.128852,-0.304817 -0.997612,0.281398 0,0.458006 -0.492676,0.09349 -0.5865363,-0.340129 -0.246269,0.281122 -0.527942,-0.340267 -0.586444,0.188364 -0.305506,-0.246774 -0.375304,0 -0.246177,0.340129 -0.422234,0.106167 c 0.011067,-0.04762 -0.094274,-0.01217 -0.082243,-0.02342 l -1.16168,0 -0.985489,0.07007 -0.492308,-0.340267 -0.985673,-1.02103 -0.31671,0.211691 -0.187996,-0.211691 -0.363778,0.340589 0.058594,0.305047 -0.433944,0.03527 -0.304909,-0.680902 -0.703862,-0.03495 -0.058686,-0.01157 -0.035175,0.351196 0.09386,-0.855673 -0.469211,-0.657161 0.96184,-1.37232 0.398631,-0.281765 -0.034899,-0.340589 0.563117,-0.328098 0.49263,0.08215 0.833126,-0.762593 -0.31671,-0.222804 0.269734,0.187308 0.258024,-0.304541 0.246544,0.02356 0.093998,0.4924 0.457179,0.316894 0.833126,-0.962254 0.621573,0.46944 0.457822,-0.09381 0.281627,-0.46944 1.05556,-0.33967 0.152684,-0.763144 0.762915,0 0.339854,0.363457 0.9619321,-0.117234 0.152592,-0.469211 -0.7389451,-0.6803969 0.4574551,-0.609542 0.49263,0 0.246223,-0.680902 -0.210865,-0.281673 0.187583,-0.398861 1.27896,-0.527942 1.07875,0.492813 0.716122,0 0.527896,-0.176103 0.833402,0.246499 c 0,0 0.796987,0.398723 1.10213,0.363595 0.317032,-0.023327 0.774211,-0.304771 0.774211,-0.304771 l 0.645589,-0.058823 0.738807,0.058823 0.34091,0.3399 0.469073,-0.035129 0.492492,-0.211737 -0.03531,-0.374707 1.02085,-0.434174 0.03563,-0.398815 0.457317,-0.187996 -0.152638,-1.38417 0.434082,-0.211278 0.270377,0.211278 0.527437,-0.211278 0.375212,0.269964 0.51637,0.093723 c 0,0 0.469394,-0.79786 0.410708,-0.433852 -0.07007,0.375166 0.644809,-0.270193 0.644809,-0.270193 l 0.516508,0.399137 0.527896,0.457409 -0.211186,0.410617 0.340451,0.152592 0.457042,-0.926895 1.07953,0.117463 0.528401,-0.211186 0.586307,-0.058778 0.03541,-0.340359 -0.257841,-0.128714 0,-0.246682 0.867888,-0.116912 0.304817,-1.30247 0.586444,-0.586261 0.962162,0.034807 0.03527,0.68058 0.516049,-0.035129 0.222942,-0.340451 0.703816,0.586674 -0.02356,0.305184 0.328879,0.680167 0.24581,0 0,-0.3399 0.340772,0.035129 0.187308,0.211002 0.927217,0.316894 0.09427,-0.223125 -0.211645,-0.175782 0.363549,-0.246682 0.188088,0.516279 0.210727,0.152638 0.1525,-0.210956 0.258484,-0.058594 0.117693,-0.187629 0.985122,-0.094044 0.05869,-0.246223 -0.305506,-0.058778 0.05901,-1.23199 -0.270055,-0.093815 0,-0.410525 0.211048,-0.305001 -0.610323,-0.434174 0.434725,-0.938513 0.644992,0.199247 0.516187,-0.117096 0.223539,0.516141 1.38407,0.164118 1.32557,0.492813 0.129081,-0.715617 0.398999,-0.152363 0.151995,0.375166 0.434128,-0.0349451 0.211645,0.339808 -0.45796,0.457685 0.551775,0.926803 -0.492767,0.187996 1.36098,1.75942 0,-0.4924 0.739266,-0.058778 0,0.398907 0.950131,-0.093906 0.09331,0.434174 0.563071,0 0.117831,-0.868163 0.245993,-0.21114 0.739266,0.305184 0.493273,0.034945 0.903338,0.211278 0.891123,0.832851 0.140974,0.023741 z m -48.2887,11.9308 0,0 L 6.02e-5,16.905402 0.0587,16.84667 z"
   id="path10"
   style="fill:#ffdf49" />
  <g
   id="_379774632">
   <path
   d="m 2.1187,14.6859 c 0.216237,0 0.396381,-0.17119 0.396381,-0.387427 0,-0.216559 -0.180144,-0.387703 -0.396381,-0.387703 -0.207329,0 -0.378335,0.171144 -0.378335,0.387703 0,0.216237 0.171006,0.387427 0.378335,0.387427 z"
   id="_379774728"
   style="fill:#fefefe;stroke:#2b2a29;stroke-width:0.0544152" />
   <path
   d="m 2.12375,14.3911 c 0.050237,0 0.092713,-0.04289 0.092713,-0.09271 0,-0.05001 -0.042476,-0.09258 -0.092713,-0.09258 -0.046287,0 -0.084539,0.04257 -0.084539,0.09258 0,0.04982 0.038251,0.09271 0.084539,0.09271 z"
   id="_379774680"
   style="fill:#2b2a29;stroke:#2b2a29;stroke-width:0.034991" />
  </g>
  <g
   id="_379774464">
   <path
   d="m 34.14,8.62309 c 0.216237,0 0.396749,-0.171649 0.396749,-0.388208 0,-0.216099 -0.180512,-0.387289 -0.396749,-0.387289 -0.206778,0 -0.377967,0.17119 -0.377967,0.387289 0,0.216559 0.17119,0.388208 0.377967,0.388208 z"
   id="_379774560"
   style="fill:#fefefe;stroke:#2b2a29;stroke-width:0.0544152" />
   <path
   d="m 34.1454,8.32764 c 0.05047,0 0.09253,-0.042292 0.09253,-0.092758 0,-0.050007 -0.04206,-0.092345 -0.09253,-0.092345 -0.04638,0 -0.08495,0.042338 -0.08495,0.092345 0,0.050466 0.03857,0.092758 0.08495,0.092758 z"
   id="_379774512"
   style="fill:#2b2a29;stroke:#2b2a29;stroke-width:0.034991" />
  </g>
  <g
   id="_379774296">
   <path
   d="m 39.1617,9.0968 c 0.21564,0 0.396152,-0.171695 0.396152,-0.388116 0,-0.216099 -0.180512,-0.387106 -0.396152,-0.387106 -0.207237,0 -0.378381,0.171006 -0.378381,0.387106 0,0.216421 0.171144,0.388116 0.378381,0.388116 z"
   id="_379774392"
   style="fill:#fefefe;stroke:#2b2a29;stroke-width:0.0544152" />
   <path
   d="m 39.1669,8.80121 c 0.05015,0 0.09239,-0.041925 0.09239,-0.092529 0,-0.050053 -0.04225,-0.092253 -0.09239,-0.092253 -0.04666,0 -0.08509,0.0422 -0.08509,0.092253 0,0.050604 0.03843,0.092529 0.08509,0.092529 z"
   id="_379774344"
   style="fill:#2b2a29;stroke:#2b2a29;stroke-width:0.034991" />
  </g>
  <path
   d="m 2.27667,14.9861 0.449832,0 0,0.08211 -0.357809,0 0,0.613629 -0.092024,0 0,-0.695734 z m 0.788217,0.633512 c -0.031731,0.02691 -0.062222,0.04587 -0.091335,0.05703 -0.029343,0.01102 -0.060752,0.01653 -0.09432,0.01653 -0.055379,0 -0.09781,-0.01345 -0.127612,-0.0405 -0.029664,-0.02705 -0.044542,-0.06172 -0.044542,-0.103687 0,-0.02475 0.00546,-0.0473 0.016807,-0.06769 0.011204,-0.02043 0.025945,-0.03678 0.044083,-0.04909 0.018322,-0.01231 0.038711,-0.02172 0.061533,-0.02801 0.016715,-0.0044 0.041971,-0.0088 0.075814,-0.01281 0.069018,-0.0083 0.119897,-0.018 0.152454,-0.02948 3.214e-4,-0.01166 4.592e-4,-0.0191 4.592e-4,-0.02218 0,-0.03485 -0.00808,-0.05947 -0.024292,-0.07356 -0.021674,-0.01942 -0.054232,-0.02898 -0.097167,-0.02898 -0.04018,0 -0.069844,0.0069 -0.089085,0.02103 -0.019149,0.0141 -0.033246,0.03903 -0.042476,0.07485 l -0.083391,-0.01153 c 0.00758,-0.03563 0.020067,-0.06461 0.037379,-0.08647 0.017358,-0.02204 0.042614,-0.03903 0.075493,-0.05088 0.032879,-0.01185 0.070946,-0.01782 0.114387,-0.01782 0.043073,0 0.077926,0.0052 0.104789,0.01525 0.026909,0.01019 0.046655,0.02282 0.059466,0.03821 0.012628,0.01538 0.021399,0.03467 0.026542,0.05818 0.00276,0.01456 0.00422,0.04078 0.00422,0.07871 l 0,0.113882 c 0,0.07953 0.00179,0.12977 0.00551,0.150664 0.00358,0.02103 0.010837,0.04128 0.021537,0.06057 l -0.089223,0 c -0.00877,-0.01768 -0.014603,-0.03839 -0.017036,-0.06222 z m -0.00712,-0.190798 c -0.031088,0.01277 -0.077605,0.02347 -0.139459,0.03237 -0.035175,0.0051 -0.060109,0.0107 -0.074528,0.01704 -0.014603,0.0063 -0.025945,0.01552 -0.033705,0.02783 -0.00794,0.01217 -0.011985,0.02562 -0.011985,0.0405 0,0.02287 0.00877,0.04183 0.025899,0.05703 0.017174,0.01506 0.042476,0.02268 0.075676,0.02268 0.032879,0 0.062222,-0.0071 0.087799,-0.02154 0.025577,-0.01442 0.044542,-0.03421 0.056528,-0.05914 0.00923,-0.01929 0.013776,-0.04776 0.013776,-0.08537 l 0,-0.03141 z m 0.218855,-0.250953 0.085365,0 0,0.384442 0.236809,-0.384442 0.092024,0 0,0.503972 -0.085365,0 0,-0.381963 -0.236809,0.381963 -0.092024,0 0,-0.503972 z m 0.296597,-0.190798 0.058318,0 c -0.00468,0.03954 -0.019103,0.06998 -0.043394,0.09101 -0.024154,0.02126 -0.05639,0.03192 -0.09657,0.03192 -0.040501,0 -0.072875,-0.01052 -0.097029,-0.03159 -0.024292,-0.02103 -0.038711,-0.05148 -0.043394,-0.09134 l 0.058318,0 c 0.00436,0.02154 0.013271,0.03756 0.026404,0.04812 0.013087,0.01065 0.030766,0.01584 0.052808,0.01584 0.025761,0 0.045002,-0.005 0.058135,-0.01538 0.013133,-0.01019 0.022042,-0.0264 0.026404,-0.04858 z m 0.246728,0.190798 0.196997,0 c 0.0484,0 0.084401,0.0041 0.10805,0.01198 0.023465,0.0081 0.043716,0.02287 0.060706,0.04441 0.016853,0.02154 0.02544,0.0473 0.02544,0.07742 0,0.02397 -0.00501,0.04505 -0.015062,0.06286 -0.00987,0.01782 -0.024935,0.03288 -0.044864,0.04486 0.023833,0.0079 0.04344,0.02269 0.059145,0.04441 0.015705,0.02167 0.023465,0.0473 0.023465,0.0771 -0.00308,0.0478 -0.020251,0.08325 -0.051201,0.106259 -0.031088,0.02319 -0.076135,0.03467 -0.135234,0.03467 l -0.227442,0 0,-0.503972 z m 0.085549,0.212059 0.091013,0 c 0.036461,0 0.061395,-0.0018 0.074987,-0.0056 0.013638,-0.0037 0.025761,-0.01153 0.036644,-0.02301 0.010699,-0.01153 0.016026,-0.02544 0.016026,-0.04147 0,-0.02659 -0.00941,-0.04523 -0.028195,-0.05556 -0.018781,-0.01056 -0.051017,-0.01575 -0.096524,-0.01575 l -0.093952,0 0,0.141434 z m 0,0.22161 0.112412,0 c 0.048446,0 0.081646,-0.0055 0.099601,-0.01685 0.018138,-0.01116 0.027552,-0.03063 0.028516,-0.058 0,-0.01621 -0.00519,-0.03109 -0.015705,-0.04486 -0.010378,-0.01378 -0.02397,-0.0225 -0.040639,-0.02608 -0.016853,-0.0037 -0.043762,-0.0055 -0.080865,-0.0055 l -0.10332,0 0,0.151306 z m 0.387794,-0.181751 c 0,-0.09331 0.025899,-0.162465 0.077926,-0.207329 0.043257,-0.03729 0.096065,-0.05607 0.158424,-0.05607 0.069339,0 0.126004,0.02268 0.169904,0.06819 0.044083,0.04537 0.065941,0.10805 0.065941,0.188088 0,0.06493 -0.00974,0.115994 -0.029159,0.153051 -0.019424,0.03729 -0.047757,0.06613 -0.08486,0.0867 -0.037287,0.02057 -0.077789,0.03077 -0.121826,0.03077 -0.070487,0 -0.127474,-0.0225 -0.171052,-0.06787 -0.043578,-0.04519 -0.065298,-0.1103 -0.065298,-0.195527 z m 0.087799,0 c 0,0.06461 0.014097,0.112917 0.042292,0.144969 0.028195,0.03224 0.063645,0.04826 0.106259,0.04826 0.04243,0 0.077743,-0.01616 0.105937,-0.0484 0.028011,-0.03224 0.042109,-0.08151 0.042109,-0.147587 0,-0.06236 -0.014097,-0.109657 -0.04243,-0.141755 -0.028333,-0.03205 -0.063507,-0.04808 -0.105616,-0.04808 -0.042614,0 -0.078064,0.01603 -0.106259,0.04794 -0.028195,0.03191 -0.042292,0.08018 -0.042292,0.144648 z m 0.484686,0.445148 0,-0.697066 0.077743,0 0,0.06548 c 0.018322,-0.02562 0.039032,-0.04491 0.062222,-0.05768 0.023006,-0.01281 0.051017,-0.01929 0.083896,-0.01929 0.043119,0 0.081003,0.01116 0.113882,0.0332 0.033062,0.02218 0.057859,0.05345 0.074528,0.09381 0.016853,0.04032 0.025256,0.08454 0.025256,0.132663 0,0.05152 -0.00923,0.09799 -0.027873,0.139321 -0.01846,0.04128 -0.045323,0.07287 -0.080635,0.09492 -0.035312,0.02186 -0.072416,0.03288 -0.11131,0.03288 -0.028516,0 -0.053956,-0.006 -0.076595,-0.018 -0.022684,-0.01199 -0.041144,-0.02718 -0.055747,-0.04551 l 0,0.245259 -0.085365,0 z m 0.077283,-0.442255 c 0,0.06484 0.013087,0.11278 0.039353,0.143867 0.02622,0.03095 0.058135,0.04647 0.095422,0.04647 0.037884,0 0.070441,-0.01603 0.097488,-0.04826 0.027047,-0.03205 0.040685,-0.08178 0.040685,-0.149194 0,-0.06429 -0.013271,-0.112228 -0.039721,-0.144327 -0.026404,-0.03191 -0.057951,-0.04794 -0.094595,-0.04794 -0.036415,0 -0.06865,0.01699 -0.096708,0.05102 -0.028011,0.03403 -0.041925,0.08357 -0.041925,0.148368 z m 0.431372,-0.0029 c 0,-0.09331 0.025899,-0.162465 0.077926,-0.207329 0.043257,-0.03729 0.096065,-0.05607 0.158424,-0.05607 0.069339,0 0.126004,0.02268 0.169904,0.06819 0.044083,0.04537 0.065941,0.10805 0.065941,0.188088 0,0.06493 -0.00974,0.115994 -0.029159,0.153051 -0.019424,0.03729 -0.047757,0.06613 -0.08486,0.0867 -0.037287,0.02057 -0.077789,0.03077 -0.121826,0.03077 -0.070487,0 -0.127474,-0.0225 -0.171052,-0.06787 -0.043578,-0.04519 -0.065298,-0.1103 -0.065298,-0.195527 z m 0.087799,0 c 0,0.06461 0.014097,0.112917 0.042292,0.144969 0.028195,0.03224 0.063645,0.04826 0.106259,0.04826 0.04243,0 0.077743,-0.01616 0.105937,-0.0484 0.028011,-0.03224 0.042109,-0.08151 0.042109,-0.147587 0,-0.06236 -0.014097,-0.109657 -0.04243,-0.141755 -0.028333,-0.03205 -0.063507,-0.04808 -0.105616,-0.04808 -0.042614,0 -0.078064,0.01603 -0.106259,0.04794 -0.028195,0.03191 -0.042292,0.08018 -0.042292,0.144648 z m 0.485007,-0.251917 0.085549,0 0,0.209808 0.236809,0 0,-0.209808 0.085365,0 0,0.503972 -0.085365,0 0,-0.223539 -0.236809,0 0,0.223539 -0.085549,0 0,-0.503972 z"
   id="path21"
   style="fill:#2b2a29;fill-rule:nonzero" />
  <path
   d="m 29.6315,7.42154 0.0878,-0.022822 c 0.0066,0.033843 0.02429,0.067686 0.05327,0.101529 0.02902,0.033889 0.06741,0.050879 0.115213,0.050879 0.04858,0 0.08711,-0.01249 0.115167,-0.037563 0.0282,-0.024981 0.04225,-0.055104 0.04225,-0.090554 0,-0.038251 -0.01488,-0.068696 -0.04454,-0.091381 -0.0298,-0.022685 -0.0703,-0.034027 -0.121458,-0.034027 l -0.04422,0 0,-0.080176 c 0.04243,0 0.0748,-0.00243 0.09735,-0.0073 0.0225,-0.00482 0.04225,-0.017312 0.0596,-0.037563 0.01717,-0.020113 0.02576,-0.042935 0.02576,-0.068513 0,-0.030307 -0.01166,-0.056711 -0.03531,-0.079212 -0.02351,-0.022547 -0.05542,-0.033705 -0.0956,-0.033705 -0.03513,0 -0.06512,0.00872 -0.08986,0.02622 -0.02498,0.017679 -0.04216,0.040823 -0.05152,0.069844 -0.0096,0.028976 -0.01428,0.050512 -0.01428,0.064793 l -0.08826,-0.019929 c 0.02186,-0.147725 0.103504,-0.22161 0.244937,-0.22161 0.06787,0 0.12178,0.018965 0.161822,0.056711 0.03986,0.037746 0.05974,0.081967 0.05974,0.132663 0,0.064793 -0.03077,0.115167 -0.09216,0.150801 0.0355,0.00987 0.06511,0.029802 0.08908,0.060109 0.02383,0.030307 0.03582,0.0664 0.03582,0.108371 0,0.059926 -0.02314,0.109978 -0.06948,0.150342 -0.04633,0.040318 -0.107912,0.060431 -0.184507,0.060431 -0.131561,0 -0.217064,-0.069339 -0.256601,-0.208339 z m 0.61441,-0.30748 0.08555,0 0,0.209808 0.236809,0 0,-0.209808 0.08536,0 0,0.503972 -0.08536,0 0,-0.223539 -0.236809,0 0,0.223539 -0.08555,0 0,-0.503972 z m 0.865179,0.44175 c -0.03173,0.026909 -0.06222,0.045874 -0.09134,0.057033 -0.02934,0.011021 -0.06075,0.016531 -0.09432,0.016531 -0.05538,0 -0.09781,-0.013455 -0.127612,-0.040501 -0.02966,-0.027047 -0.04454,-0.061716 -0.04454,-0.103687 0,-0.024751 0.0055,-0.047298 0.01681,-0.067686 0.0112,-0.020434 0.02595,-0.036782 0.04408,-0.049088 0.01832,-0.012307 0.03871,-0.02172 0.06153,-0.028011 0.01671,-0.00441 0.04197,-0.00877 0.07581,-0.012812 0.06902,-0.00827 0.119897,-0.018001 0.152454,-0.029481 3.21e-4,-0.011664 4.59e-4,-0.019103 4.59e-4,-0.022179 0,-0.034853 -0.0081,-0.059466 -0.02429,-0.073564 -0.02167,-0.019424 -0.05423,-0.028975 -0.09717,-0.028975 -0.04018,0 -0.06984,0.00693 -0.08908,0.021031 -0.01915,0.014097 -0.03325,0.039032 -0.04248,0.07485 l -0.08339,-0.011526 c 0.0076,-0.035634 0.02007,-0.064609 0.03738,-0.086467 0.01736,-0.022042 0.04261,-0.039032 0.07549,-0.050879 0.03288,-0.011847 0.07095,-0.017817 0.114387,-0.017817 0.04307,0 0.07793,0.00519 0.104789,0.015245 0.02691,0.010194 0.04666,0.022822 0.05947,0.038205 0.01263,0.015383 0.0214,0.03467 0.02654,0.058181 0.0028,0.014557 0.0042,0.040777 0.0042,0.078707 l 0,0.113882 c 0,0.079533 0.0018,0.12977 0.0055,0.150664 0.0036,0.021031 0.01084,0.041282 0.02154,0.060568 l -0.08922,0 c -0.0088,-0.017679 -0.0146,-0.038389 -0.01704,-0.062222 z m -0.0071,-0.190798 c -0.03109,0.012766 -0.0776,0.023465 -0.139459,0.032374 -0.03517,0.00505 -0.06011,0.010699 -0.07453,0.017036 -0.0146,0.00629 -0.02595,0.015521 -0.0337,0.027827 -0.0079,0.012169 -0.01198,0.025623 -0.01198,0.040501 0,0.022868 0.0088,0.041833 0.0259,0.057033 0.01717,0.015062 0.04248,0.022684 0.07568,0.022684 0.03288,0 0.06222,-0.00712 0.0878,-0.021536 0.02558,-0.014419 0.04454,-0.03421 0.05653,-0.059145 0.0092,-0.019286 0.01378,-0.047757 0.01378,-0.085365 l 0,-0.031409 z m 0.221105,-0.250953 0.132847,0 0.132525,0.403361 0.147082,-0.403361 0.122928,0 0,0.503972 -0.08537,0 0,-0.405795 -0.14901,0.405795 -0.07646,0 -0.140928,-0.425219 0,0.425219 -0.08362,0 0,-0.503972 z m 0.666299,0.054599 -0.02172,-0.130045 0,-0.116315 0.09721,0 0,0.116315 -0.02269,0.130045 -0.05281,0 z m 0.582036,-0.054599 0,0.503972 -0.08504,0 0,-0.196492 -0.04923,0 c -0.03012,0 -0.05249,0.0039 -0.06723,0.011664 -0.01474,0.00776 -0.03614,0.032741 -0.06433,0.074666 l -0.07448,0.110162 -0.1058,0 0.09202,-0.13574 c 0.0282,-0.041466 0.05621,-0.064793 0.08408,-0.070166 -0.04877,-0.0068 -0.08491,-0.024292 -0.108555,-0.052808 -0.02347,-0.028333 -0.03531,-0.061211 -0.03531,-0.098131 0,-0.043762 0.01538,-0.079074 0.04633,-0.106305 0.03077,-0.027185 0.07549,-0.040823 0.133949,-0.040823 l 0.233595,0 z m -0.08504,0.070625 -0.121504,0 c -0.05083,0 -0.08371,0.00794 -0.09845,0.023833 -0.0146,0.015705 -0.02204,0.034348 -0.02204,0.055425 0,0.030124 0.01084,0.052119 0.03256,0.066217 0.02172,0.014097 0.05992,0.021215 0.11503,0.021215 l 0.09441,0 0,-0.16669 z m 0.214951,-0.070625 0.08555,0 0,0.209808 0.236809,0 0,-0.209808 0.08536,0 0,0.503972 -0.08536,0 0,-0.223539 -0.236809,0 0,0.223539 -0.08555,0 0,-0.503972 z m 0.53584,0 0.08536,0 0,0.217753 c 0.02723,0 0.04633,-0.00519 0.05722,-0.015567 0.01084,-0.010516 0.02686,-0.040823 0.04808,-0.091197 0.01685,-0.039859 0.03049,-0.066079 0.04082,-0.078753 0.01056,-0.012628 0.02255,-0.021215 0.03614,-0.025577 0.01359,-0.00455 0.0355,-0.00666 0.06544,-0.00666 l 0.01717,0 0,0.070625 -0.02379,-4.592e-4 c -0.02236,0 -0.03678,0.0034 -0.04312,0.010057 -0.0066,0.00693 -0.01685,0.02769 -0.03045,0.062176 -0.01295,0.032879 -0.0248,0.055563 -0.03563,0.068191 -0.0107,0.012812 -0.02737,0.024338 -0.04973,0.03467 0.0366,0.00992 0.07274,0.044083 0.108188,0.102539 l 0.09349,0.156174 -0.09395,0 -0.0912,-0.156174 c -0.01864,-0.031271 -0.03499,-0.051981 -0.04877,-0.061854 -0.01391,-0.010057 -0.03063,-0.014924 -0.04992,-0.014924 l 0,0.232952 -0.08536,0 0,-0.503972 z m 0.775956,0.44175 c -0.03173,0.026909 -0.06222,0.045874 -0.09134,0.057033 -0.02934,0.011021 -0.06075,0.016531 -0.09432,0.016531 -0.05538,0 -0.09781,-0.013455 -0.127612,-0.040501 -0.02966,-0.027047 -0.04454,-0.061717 -0.04454,-0.103687 0,-0.024751 0.0055,-0.047298 0.01681,-0.067686 0.0112,-0.020434 0.02595,-0.036782 0.04408,-0.049088 0.01832,-0.012307 0.03871,-0.02172 0.06153,-0.028011 0.01671,-0.00441 0.04197,-0.00877 0.07581,-0.012812 0.06902,-0.00827 0.119897,-0.018001 0.152454,-0.029481 3.22e-4,-0.011664 4.59e-4,-0.019103 4.59e-4,-0.022179 0,-0.034853 -0.0081,-0.059466 -0.02429,-0.073564 -0.02167,-0.019424 -0.05423,-0.028976 -0.09717,-0.028976 -0.04018,0 -0.06984,0.00693 -0.08909,0.021031 -0.01915,0.014097 -0.03325,0.039032 -0.04248,0.07485 l -0.08339,-0.011526 c 0.0076,-0.035634 0.02007,-0.064609 0.03738,-0.086467 0.01736,-0.022042 0.04261,-0.039032 0.07549,-0.050879 0.03288,-0.011847 0.07095,-0.017817 0.114387,-0.017817 0.04307,0 0.07793,0.00519 0.104789,0.015245 0.02691,0.010194 0.04666,0.022822 0.05947,0.038205 0.01263,0.015383 0.0214,0.03467 0.02654,0.058181 0.0028,0.014557 0.0042,0.040777 0.0042,0.078707 l 0,0.113882 c 0,0.079533 0.0018,0.12977 0.0055,0.150664 0.0036,0.021031 0.01084,0.041282 0.02154,0.060569 l -0.08922,0 c -0.0088,-0.017679 -0.0146,-0.038389 -0.01704,-0.062222 z m -0.0071,-0.190798 c -0.03109,0.012766 -0.07761,0.023465 -0.139459,0.032374 -0.03518,0.00505 -0.06011,0.010699 -0.07453,0.017036 -0.0146,0.00629 -0.02595,0.015521 -0.03371,0.027828 -0.0079,0.012169 -0.01198,0.025623 -0.01198,0.040501 0,0.022868 0.0088,0.041833 0.0259,0.057033 0.01717,0.015062 0.04248,0.022685 0.07568,0.022685 0.03288,0 0.06222,-0.00712 0.0878,-0.021537 0.02558,-0.014419 0.04454,-0.03421 0.05653,-0.059145 0.0092,-0.019286 0.01378,-0.047757 0.01378,-0.085365 l 0,-0.031409 z"
   id="path23"
   style="fill:#2b2a29;fill-rule:nonzero" />
  <path
   d="m 39.095,7.68806 c 0,-0.115489 0.03095,-0.205905 0.09299,-0.271158 0.06204,-0.065298 0.142076,-0.097993 0.240207,-0.097993 0.06415,0 0.122147,0.015383 0.173669,0.045966 0.05152,0.030812 0.09088,0.073564 0.117923,0.128484 0.02705,0.054737 0.0405,0.117096 0.0405,0.186619 0,0.070625 -0.0141,0.133811 -0.04261,0.189374 -0.02847,0.055701 -0.06883,0.09781 -0.120999,0.12651 -0.0523,0.028654 -0.108509,0.042935 -0.16894,0.042935 -0.06562,0 -0.124076,-0.015751 -0.175598,-0.047481 -0.05166,-0.031593 -0.09074,-0.07485 -0.11728,-0.129586 -0.02659,-0.054599 -0.03986,-0.112596 -0.03986,-0.173669 z m 0.09492,0.00147 c 0,0.083896 0.02255,0.149837 0.06755,0.198099 0.04518,0.048262 0.101759,0.072416 0.169766,0.072416 0.06934,0 0.126372,-0.024292 0.171052,-0.073059 0.04473,-0.048767 0.06723,-0.117923 0.06723,-0.207512 0,-0.056528 -0.0097,-0.105937 -0.02879,-0.14823 -0.01915,-0.042246 -0.04716,-0.074987 -0.08394,-0.098315 -0.03692,-0.023144 -0.07825,-0.034807 -0.124076,-0.034807 -0.0653,0 -0.121321,0.022317 -0.168297,0.067227 -0.04698,0.04468 -0.07049,0.11953 -0.07049,0.224181 z m 0.709097,-0.166552 0.396841,0 0,0.503972 -0.08504,0 0,-0.433347 -0.226294,0 0,0.251091 c 0,0.058502 -0.0019,0.097213 -0.0056,0.115856 -0.0039,0.018598 -0.01428,0.034991 -0.03146,0.048905 -0.01699,0.013914 -0.04179,0.020894 -0.07402,0.020894 -0.01993,0 -0.04293,-0.00129 -0.06883,-0.0039 l 0,-0.071084 0.03756,0 c 0.01768,0 0.03031,-0.00197 0.03793,-0.00551 0.0076,-0.00372 0.01263,-0.00941 0.0152,-0.017358 0.0026,-0.0079 0.0038,-0.033659 0.0038,-0.077421 l 0,-0.332093 z m 0.870322,0.341645 0.0883,0.010883 c -0.01391,0.05166 -0.03968,0.091656 -0.07728,0.120173 -0.03775,0.028379 -0.08582,0.042614 -0.144327,0.042614 -0.0737,0 -0.132158,-0.022685 -0.175277,-0.068053 -0.04326,-0.045323 -0.06479,-0.109014 -0.06479,-0.190981 0,-0.08486 0.02186,-0.150664 0.06544,-0.197456 0.04376,-0.046838 0.100289,-0.070303 0.16995,-0.070303 0.06736,0 0.122469,0.023006 0.165036,0.068834 0.0428,0.045874 0.06415,0.110484 0.06415,0.193599 0,0.00519 -1.37e-4,0.012766 -4.59e-4,0.022822 l -0.375809,0 c 0.0031,0.055425 0.01878,0.097856 0.04698,0.127152 0.02819,0.029481 0.06314,0.044221 0.105295,0.044221 0.03127,0 0.058,-0.00822 0.08018,-0.024751 0.02218,-0.016393 0.03968,-0.042614 0.05262,-0.078753 z m -0.280387,-0.138173 0.281398,0 c -0.0038,-0.042292 -0.0146,-0.074161 -0.03224,-0.095238 -0.02723,-0.032879 -0.06254,-0.04941 -0.1058,-0.04941 -0.03922,0 -0.07223,0.013133 -0.09896,0.039353 -0.02677,0.026266 -0.04151,0.061395 -0.0444,0.105295 z m 0.475593,-0.203471 0.08536,0 0,0.217753 c 0.02723,0 0.04633,-0.00519 0.05722,-0.015567 0.01084,-0.010516 0.02686,-0.040823 0.04808,-0.091197 0.01685,-0.039859 0.03049,-0.066079 0.04082,-0.078753 0.01056,-0.012628 0.02255,-0.021215 0.03614,-0.025577 0.01359,-0.00455 0.0355,-0.00666 0.06544,-0.00666 l 0.01717,0 0,0.070625 -0.02379,-4.592e-4 c -0.02236,0 -0.03678,0.0034 -0.04312,0.010057 -0.0066,0.00693 -0.01685,0.02769 -0.03045,0.062176 -0.01295,0.032879 -0.0248,0.055563 -0.03563,0.068191 -0.0107,0.012812 -0.02737,0.024338 -0.04973,0.03467 0.0366,0.00992 0.07274,0.044083 0.108188,0.102539 l 0.09349,0.156174 -0.09395,0 -0.0912,-0.156174 c -0.01864,-0.031271 -0.03499,-0.051981 -0.04877,-0.061854 -0.01391,-0.010057 -0.03063,-0.014924 -0.04992,-0.014924 l 0,0.232952 -0.08536,0 0,-0.503972 z m 0.765394,0.319282 0.08389,0.011021 c -0.009,0.057859 -0.03256,0.103182 -0.07044,0.135923 -0.03775,0.032741 -0.08422,0.049088 -0.139321,0.049088 -0.06883,0 -0.124397,-0.022501 -0.166184,-0.067548 -0.04197,-0.045047 -0.06305,-0.109657 -0.06305,-0.19392 0,-0.054415 0.0091,-0.102034 0.02709,-0.142857 0.01814,-0.040823 0.04551,-0.071452 0.08243,-0.09184 0.03678,-0.020434 0.07696,-0.030629 0.120219,-0.030629 0.05474,0 0.0996,0.013914 0.13427,0.041649 0.03485,0.02769 0.05717,0.066905 0.06709,0.117923 l -0.08311,0.012766 c -0.0079,-0.033843 -0.02186,-0.059283 -0.04197,-0.076457 -0.02007,-0.01699 -0.04436,-0.025577 -0.07287,-0.025577 -0.04312,0 -0.07811,0.015383 -0.104973,0.046333 -0.02691,0.030766 -0.04036,0.079533 -0.04036,0.146255 0,0.067732 0.013,0.116958 0.03908,0.147771 0.0259,0.030583 0.05974,0.045966 0.101529,0.045966 0.03357,0 0.06139,-0.010332 0.08394,-0.030904 0.0225,-0.020572 0.03678,-0.052165 0.04275,-0.094963 z m 0.485971,0.122469 c -0.03173,0.026909 -0.06222,0.045874 -0.09134,0.057033 -0.02934,0.011021 -0.06075,0.016531 -0.09432,0.016531 -0.05538,0 -0.09781,-0.013455 -0.127612,-0.040501 -0.02966,-0.027047 -0.04454,-0.061717 -0.04454,-0.103687 0,-0.024751 0.0055,-0.047298 0.01681,-0.067686 0.0112,-0.020434 0.02595,-0.036782 0.04408,-0.049088 0.01832,-0.012307 0.03871,-0.02172 0.06153,-0.028011 0.01672,-0.00441 0.04197,-0.00877 0.07581,-0.012812 0.06902,-0.00827 0.119897,-0.018001 0.152454,-0.029481 3.22e-4,-0.011664 4.59e-4,-0.019103 4.59e-4,-0.022179 0,-0.034853 -0.0081,-0.059466 -0.02429,-0.073564 -0.02167,-0.019424 -0.05423,-0.028975 -0.09717,-0.028975 -0.04018,0 -0.06984,0.00693 -0.08909,0.021031 -0.01915,0.014097 -0.03325,0.039032 -0.04248,0.07485 l -0.08339,-0.011526 c 0.0076,-0.035634 0.02007,-0.064609 0.03738,-0.086467 0.01736,-0.022042 0.04261,-0.039032 0.07549,-0.050879 0.03288,-0.011847 0.07095,-0.017817 0.114387,-0.017817 0.04307,0 0.07793,0.00519 0.104789,0.015245 0.02691,0.010194 0.04666,0.022822 0.05947,0.038205 0.01263,0.015383 0.0214,0.03467 0.02654,0.058181 0.0028,0.014557 0.0042,0.040777 0.0042,0.078707 l 0,0.113882 c 0,0.079533 0.0018,0.12977 0.0055,0.150664 0.0036,0.021031 0.01084,0.041282 0.02154,0.060569 l -0.08922,0 c -0.0088,-0.017679 -0.0146,-0.038389 -0.01704,-0.062222 z m -0.0071,-0.190798 c -0.03109,0.012766 -0.07761,0.023465 -0.139459,0.032374 -0.03518,0.00505 -0.06011,0.010699 -0.07453,0.017036 -0.0146,0.00629 -0.02595,0.015521 -0.03371,0.027827 -0.0079,0.012169 -0.01198,0.025623 -0.01198,0.040501 0,0.022868 0.0088,0.041833 0.0259,0.057033 0.01717,0.015062 0.04248,0.022684 0.07568,0.022684 0.03288,0 0.06222,-0.00712 0.0878,-0.021536 0.02558,-0.014419 0.04454,-0.03421 0.05653,-0.059145 0.0092,-0.019286 0.01378,-0.047757 0.01378,-0.085365 l 0,-0.031409 z m 0.219176,-0.250953 0.08555,0 0,0.209808 0.236809,0 0,-0.209808 0.08536,0 0,0.503972 -0.08536,0 0,-0.223539 -0.236809,0 0,0.223539 -0.08555,0 0,-0.503972 z m 0.60371,0 0.351196,0 0,0.433668 0.05446,0 0,0.213161 -0.07017,0 0,-0.142857 -0.396703,0 0,0.142857 -0.0703,0 0,-0.213161 0.04505,0 c 0.06006,-0.081646 0.0889,-0.226156 0.08647,-0.433668 z m 0.07113,0.070625 c -0.0063,0.163613 -0.03159,0.284658 -0.07595,0.363043 l 0.270974,0 0,-0.363043 -0.195022,0 z m 0.428617,0.626441 0,-0.697066 0.07774,0 0,0.065482 c 0.01832,-0.025623 0.03903,-0.04491 0.06222,-0.057676 0.02301,-0.012812 0.05102,-0.019286 0.0839,-0.019286 0.04312,0 0.081,0.011159 0.113882,0.0332 0.03306,0.022179 0.05786,0.053451 0.07453,0.093815 0.01685,0.040318 0.02526,0.084539 0.02526,0.132663 0,0.051522 -0.0092,0.097993 -0.02787,0.139321 -0.01846,0.041282 -0.04532,0.072875 -0.08064,0.094917 -0.03531,0.021858 -0.07241,0.032879 -0.11131,0.032879 -0.02852,0 -0.05396,-0.00602 -0.07659,-0.018001 -0.02269,-0.011985 -0.04114,-0.027185 -0.05575,-0.045507 l 0,0.245259 -0.08537,0 z m 0.07728,-0.442255 c 0,0.064839 0.01309,0.11278 0.03935,0.143867 0.02622,0.03095 0.05814,0.046471 0.09542,0.046471 0.03788,0 0.07044,-0.016026 0.09749,-0.048262 0.02705,-0.032052 0.04068,-0.081784 0.04068,-0.149194 0,-0.064288 -0.01327,-0.112228 -0.03972,-0.144327 -0.0264,-0.031914 -0.05795,-0.047941 -0.09459,-0.047941 -0.03641,0 -0.06865,0.01699 -0.09671,0.051017 -0.02801,0.034027 -0.04192,0.083574 -0.04192,0.148368 z m 0.463608,-0.348257 0,-0.098315 0.08555,0 0,0.098315 -0.08555,0 z m 0,0.597419 0,-0.503972 0.08555,0 0,0.503972 -0.08555,0 z m 0.612297,-0.503972 0,0.503972 -0.08504,0 0,-0.196492 -0.04923,0 c -0.03012,0 -0.05249,0.0039 -0.06723,0.011664 -0.01474,0.00776 -0.03614,0.032741 -0.06433,0.074666 l -0.07448,0.110162 -0.1058,0 0.09202,-0.13574 c 0.0282,-0.041466 0.05621,-0.064793 0.08408,-0.070166 -0.04877,-0.0068 -0.08491,-0.024292 -0.108555,-0.052808 -0.02347,-0.028333 -0.03531,-0.061211 -0.03531,-0.098131 0,-0.043762 0.01538,-0.079074 0.04633,-0.106305 0.03077,-0.027185 0.07549,-0.040823 0.133949,-0.040823 l 0.233595,0 z m -0.08504,0.070625 -0.121504,0 c -0.05083,0 -0.08371,0.00794 -0.09845,0.023833 -0.0146,0.015705 -0.02204,0.034348 -0.02204,0.055425 0,0.030124 0.01084,0.052119 0.03256,0.066217 0.02172,0.014097 0.05992,0.021215 0.11503,0.021215 l 0.09441,0 0,-0.16669 z"
   id="path25"
   style="fill:#2b2a29;fill-rule:nonzero" />
  <g
   id="_306488480">
   <path
   d="m 29.6854,12.4871 c 0.282546,0 0.517794,-0.235248 0.517794,-0.517564 0,-0.282546 -0.235248,-0.505992 -0.517794,-0.505992 -0.270377,0 -0.506084,0.223447 -0.506084,0.505992 0,0.282316 0.235707,0.517564 0.506084,0.517564 z"
   id="_178947968"
   style="fill:#fefefe;stroke:#2b2a29;stroke-width:0.0710382" />
   <path
   d="m 29.6854,12.2519 c 0.164669,0 0.282546,-0.129265 0.282546,-0.282316 0,-0.152914 -0.117877,-0.270469 -0.282546,-0.270469 -0.153327,0 -0.270377,0.117555 -0.270377,0.270469 0,0.153051 0.11705,0.282316 0.270377,0.282316"
   id="_310452640"
   style="fill:none;stroke:#2b2a29;stroke-width:0.0852734" />
  </g>
  <path
   d="m 29.8395,12.9316 0.187216,0 0,0.493548 c 0.04192,-0.0051 0.07021,-0.01864 0.08491,-0.04023 0.01469,-0.02163 0.03761,-0.08183 0.06828,-0.180374 0.03885,-0.125545 0.07797,-0.203563 0.11705,-0.234054 0.03889,-0.03081 0.101529,-0.04592 0.187905,-0.04592 0.0044,0 0.01341,-2.75e-4 0.02723,-8.26e-4 l 0,0.173072 -0.02654,-7.81e-4 c -0.03825,0 -0.06631,0.0059 -0.08403,0.01782 -0.01772,0.01185 -0.03219,0.02994 -0.04298,0.05423 -0.01102,0.02434 -0.02723,0.07398 -0.04881,0.149607 -0.01148,0.03995 -0.02379,0.07343 -0.03696,0.100427 -0.01336,0.02673 -0.03692,0.05212 -0.07062,0.07586 0.04169,0.01488 0.07623,0.04454 0.103458,0.08936 0.02723,0.04482 0.05703,0.108279 0.08941,0.189833 l 0.126601,0.318042 -0.220095,0 -0.110805,-0.299674 c -0.0017,-0.0044 -0.0052,-0.01244 -0.01079,-0.02457 -0.002,-0.0044 -0.0099,-0.02241 -0.02333,-0.05455 -0.02402,-0.05699 -0.04385,-0.09262 -0.05919,-0.106948 -0.01534,-0.01428 -0.03889,-0.02158 -0.07067,-0.02213 l 0,0.507875 -0.187216,0 0,-1.15962 z m 0.78661,0.205722 0,-0.205722 0.177756,0 0,0.205722 -0.177756,0 z m 0,0.953896 0,-0.839969 0.177756,0 0,0.839969 -0.177756,0 z m 0.35487,-0.839969 0.165909,0 0,0.123387 c 0.0214,-0.04238 0.05051,-0.07664 0.08725,-0.102861 0.03674,-0.02645 0.07756,-0.03967 0.122239,-0.03967 0.07797,0 0.144327,0.03834 0.198512,0.114754 0.05442,0.07641 0.08165,0.183037 0.08165,0.319649 0,0.140148 -0.02741,0.249208 -0.08206,0.326996 -0.05487,0.07774 -0.121412,0.116637 -0.199385,0.116637 -0.03715,0 -0.07086,-0.0092 -0.10107,-0.02755 -0.03003,-0.01864 -0.06181,-0.05024 -0.09528,-0.09505 l 0,0.423382 -0.177756,0 0,-1.15966 z m 0.176057,0.405795 c 0,0.09423 0.01492,0.164164 0.04491,0.208982 0.0298,0.04509 0.06631,0.06778 0.109519,0.06778 0.04124,0 0.07558,-0.0208 0.103044,-0.06208 0.02741,-0.04133 0.04124,-0.109336 0.04124,-0.203563 0,-0.0883 -0.01428,-0.153648 -0.04257,-0.196308 -0.02829,-0.04266 -0.06328,-0.06397 -0.104927,-0.06397 -0.04344,0 -0.07953,0.02076 -0.108233,0.06291 -0.02875,0.04183 -0.04298,0.103917 -0.04298,0.186252 z m 0.57951,0.0022 c 0,-0.07375 0.01469,-0.145291 0.04362,-0.2144 0.02916,-0.06883 0.07044,-0.12178 0.123754,-0.157965 0.05336,-0.03641 0.112963,-0.05478 0.178858,-0.05478 0.101529,0 0.184874,0.04128 0.249897,0.123938 0.06502,0.08261 0.09744,0.186803 0.09744,0.312899 0,0.126923 -0.03283,0.232217 -0.09831,0.315884 -0.06567,0.08371 -0.148139,0.125316 -0.247692,0.125316 -0.06181,0 -0.12031,-0.01731 -0.176287,-0.05212 -0.05593,-0.03485 -0.0985,-0.08587 -0.127658,-0.153097 -0.02893,-0.06723 -0.04362,-0.149056 -0.04362,-0.245672 z m 0.182302,0.01185 c 0,0.08344 0.01575,0.147174 0.04753,0.19144 0.03155,0.04427 0.07062,0.0664 0.11705,0.0664 0.04642,0 0.08532,-0.02213 0.116637,-0.0664 0.03155,-0.04427 0.04734,-0.108555 0.04734,-0.193048 0,-0.08206 -0.0158,-0.14552 -0.04734,-0.189787 -0.03132,-0.04431 -0.07021,-0.06645 -0.116637,-0.06645 -0.04643,0 -0.0855,0.02213 -0.11705,0.06645 -0.03178,0.04427 -0.04753,0.108233 -0.04753,0.191395 z m 0.652294,-0.419847 0.389218,0 c 0.07972,0 0.139551,0.01809 0.179088,0.05455 0.03972,0.03646 0.0596,0.09124 0.0596,0.16444 0,0.04698 -0.01102,0.08775 -0.0326,0.12256 -0.02181,0.03485 -0.04904,0.05804 -0.0821,0.06966 0.04642,0.01433 0.081,0.04078 0.103871,0.0799 0.02273,0.03917 0.03417,0.08183 0.03417,0.128255 0,0.06534 -0.01924,0.11852 -0.05749,0.159296 -0.03839,0.04078 -0.09524,0.0613 -0.170409,0.0613 l -0.423336,0 0,-0.839969 z m 0.179272,0.348854 0.114524,0 c 0.05529,0 0.09519,-0.0089 0.119851,-0.02618 0.02461,-0.01731 0.03692,-0.04482 0.03692,-0.08238 0,-0.03536 -0.01143,-0.06048 -0.03435,-0.07531 -0.0231,-0.01511 -0.06392,-0.02268 -0.122423,-0.02268 l -0.114524,0 0,0.206548 z m 0,0.348808 0.140423,0 c 0.05051,0 0.08743,-0.0078 0.110759,-0.02292 0.02314,-0.01538 0.03481,-0.04293 0.03481,-0.08238 0,-0.04101 -0.01341,-0.06939 -0.03995,-0.08504 -0.02659,-0.01566 -0.0782,-0.02319 -0.155072,-0.02319 l -0.09097,0 0,0.213528 z M 33.3077,13.659248 c 0,-0.07375 0.01469,-0.145291 0.04362,-0.2144 0.02921,-0.06883 0.07044,-0.12178 0.1238,-0.157965 0.05331,-0.03641 0.112963,-0.05478 0.178812,-0.05478 0.101529,0 0.184874,0.04128 0.249897,0.123938 0.06502,0.08261 0.09744,0.186803 0.09744,0.312899 0,0.126923 -0.03283,0.232217 -0.09831,0.315884 -0.06562,0.08371 -0.148138,0.125316 -0.247692,0.125316 -0.06181,0 -0.12031,-0.01731 -0.176287,-0.05212 -0.05593,-0.03485 -0.09845,-0.08587 -0.127658,-0.153097 -0.02893,-0.06723 -0.04362,-0.149056 -0.04362,-0.245672 z m 0.182302,0.01185 c 0,0.08344 0.0158,0.147174 0.04753,0.19144 0.03155,0.04427 0.07062,0.0664 0.11705,0.0664 0.04647,0 0.08532,-0.02213 0.116637,-0.0664 0.03155,-0.04427 0.04734,-0.108555 0.04734,-0.193048 0,-0.08206 -0.0158,-0.14552 -0.04734,-0.189787 -0.03132,-0.04431 -0.07017,-0.06645 -0.116637,-0.06645 -0.04642,0 -0.0855,0.02213 -0.11705,0.06645 -0.03173,0.04427 -0.04753,0.108233 -0.04753,0.191395 z m 0.643431,-0.419847 0.453827,0 0,0.179547 -0.275841,0 0,0.660421 -0.177986,0 0,-0.839969 z m 0.541718,0 0.165909,0 0,0.123387 c 0.0214,-0.04238 0.05051,-0.07664 0.08725,-0.102861 0.03674,-0.02645 0.07756,-0.03968 0.122239,-0.03968 0.07797,0 0.144327,0.03834 0.198512,0.114754 0.05441,0.07641 0.08165,0.183037 0.08165,0.319649 0,0.140148 -0.02741,0.249208 -0.08206,0.326996 -0.05488,0.07774 -0.121412,0.116637 -0.199385,0.116637 -0.03715,0 -0.07086,-0.0092 -0.10107,-0.02755 -0.03003,-0.01864 -0.06181,-0.05024 -0.09528,-0.09505 l 0,0.423382 -0.177756,0 0,-1.15966 z m 0.176057,0.405795 c 0,0.09423 0.01492,0.164164 0.04491,0.208982 0.0298,0.04509 0.06631,0.06778 0.109519,0.06778 0.04124,0 0.07558,-0.0208 0.103044,-0.06208 0.02741,-0.04133 0.04124,-0.109336 0.04124,-0.203563 0,-0.0883 -0.01428,-0.153648 -0.04257,-0.196308 -0.02829,-0.04266 -0.06328,-0.06397 -0.104927,-0.06397 -0.04344,0 -0.07953,0.02076 -0.108233,0.06291 -0.02875,0.04183 -0.04298,0.103917 -0.04298,0.186252 z m 0.753593,-0.149561 -0.161363,-0.03646 c 0.01818,-0.08123 0.04927,-0.141204 0.09354,-0.180328 0.0445,-0.03889 0.110162,-0.05859 0.19741,-0.05859 0.07953,0 0.138495,0.01189 0.177343,0.03536 0.03867,0.02351 0.06608,0.05318 0.08188,0.08936 0.01575,0.03618 0.02374,0.102356 0.02374,0.199017 l -0.0019,0.259448 c 0,0.0737 0.0028,0.128255 0.0086,0.163337 0.0056,0.03485 0.01639,0.07265 0.03196,0.112596 l -0.176011,0 c -0.0045,-0.01483 -0.01038,-0.03674 -0.01708,-0.06562 -0.0028,-0.01323 -0.005,-0.02186 -0.0062,-0.02618 -0.03045,0.03697 -0.06286,0.06452 -0.09744,0.08316 -0.03458,0.01837 -0.0715,0.02755 -0.110805,0.02755 -0.06911,0 -0.123754,-0.02351 -0.163475,-0.07021 -0.04,-0.04698 -0.05988,-0.106397 -0.05988,-0.178216 0,-0.04725 0.0091,-0.08964 0.02723,-0.126877 0.01814,-0.03729 0.04367,-0.06562 0.07627,-0.08532 0.0326,-0.0197 0.0799,-0.03701 0.14148,-0.05184 0.08293,-0.01942 0.140561,-0.03779 0.172567,-0.05455 l 0,-0.02213 c 0,-0.04293 -0.0084,-0.07315 -0.02526,-0.09152 -0.01685,-0.01809 -0.04863,-0.02728 -0.09547,-0.02728 -0.03178,0 -0.05639,0.0079 -0.07411,0.02351 -0.01773,0.01538 -0.03196,0.04266 -0.04298,0.08178 z m 0.23782,0.180374 c -0.02268,0.0095 -0.05878,0.0208 -0.108233,0.03403 -0.04923,0.01323 -0.08142,0.02617 -0.09675,0.03857 -0.0231,0.0208 -0.03476,0.04675 -0.03476,0.07834 0,0.03132 0.0093,0.05804 0.02787,0.08073 0.01855,0.02264 0.04211,0.03398 0.07081,0.03398 0.03219,0 0.06264,-0.01323 0.09179,-0.0394 0.02163,-0.01998 0.03563,-0.04454 0.04234,-0.0737 0.0048,-0.01892 0.0069,-0.0551 0.0069,-0.108279 l 0,-0.04427 z m 0.90568,0.403361 -0.508931,0 0,0.22138 -0.144235,0 0,-0.403361 0.07274,0 c 0.03049,-0.04211 0.05552,-0.108004 0.0754,-0.19764 0.01988,-0.08964 0.03173,-0.243238 0.0354,-0.460348 l 0.542361,0 0,0.657988 0.07219,0 0,0.403361 -0.144924,0 0,-0.22138 z m -0.103274,-0.181981 6.43e-4,-0.475456 -0.215135,0 c -0.0071,0.232217 -0.03674,0.390687 -0.08853,0.475456 l 0.303026,0 z"
   id="path30"
   style="fill:#2b2a29;fill-rule:nonzero" />
 </g>
</svg>