<?xml version="1.0" encoding="UTF-8" standalone="no"?>
<!-- Created with Inkscape (http://www.inkscape.org/) -->

<svg
   xmlns:svg="http://www.w3.org/2000/svg"
   xmlns="http://www.w3.org/2000/svg"
   version="1.1"
   width="68.778mm"
   height="87.019501mm"
   viewBox="0 0 77.6728 98.2734"
   id="svg2"
   xml:space="preserve"
   style="fill-rule:evenodd">
 <defs
   id="defs4">
  <style
   type="text/css"
   id="style6" />
 </defs>
 <g
   id="Layer_x0020_1">
  
  <polygon
   points="75.1038,55.7732 74.5844,55.7732 74.2677,55.0802 73.0553,54.9358 72.7667,56.8973 72.0753,57.9647 72.5352,58.7445 71.3815,59.3508 71.1494,60.9952 72.8235,61.3989 72.8235,62.3799 71.1494,62.9859 70.7183,64.1972 71.094,65.4096 70.7758,66.6211 69.7962,65.9294 68.813,65.8712 67.5151,67.9193 67.9773,68.7567 66.6778,68.8139 66.5343,70.4301 63.4195,70.4878 63.4195,68.2079 61.7457,68.2944 61.2247,69.3623 58.8599,68.9012 58.6289,65.7851 57.9652,64.4285 54.4741,64.2834 55.7435,66.0151 55.4545,66.7078 56.293,67.0828 56.0607,68.1511 54.0994,68.9012 53.5516,69.9684 52.2529,69.045 51.5036,70.113 52.1078,70.9487 51.0406,73.3155 51.8179,74.2096 51.6475,76.3454 52.426,76.778 50.8087,78.9126 49.8275,81.3361 50.3764,81.7981 49.3959,82.9521 47.3489,84.539 45.9049,85.982 46.0488,87.1929 44.8371,87.4243 43.6827,87.8572 43.9141,90.2225 41.1145,90.9729 40.4228,91.5214 38.6908,91.8972 37.0469,90.3094 36.066,90.7428 35.0559,90.2225 32.8633,92.4156 31.5075,90.6844 30.353,90.8297 30.353,91.579 29.834,92.0408 30.2087,92.7909 29.373,93.3966 29.5165,95.8498 28.7656,95.9074 28.708,95.1564 26.8038,94.233 23.6012,93.8583 23.7749,91.81 22.3321,91.4347 21.6391,92.5892 21.8704,93.6274 21.12,94.3205 20.3412,94.0024 20.0523,92.7335 20.1966,91.7524 18.2928,91.81 18.1479,92.5892 16.7922,92.5892 16.7922,94.7818 15.9553,94.9264 15.2637,96.7431 14.7434,97.6672 13.6755,98.1862 12.9266,97.9552 11.7721,98.2734 11.1661,97.8109 11.0217,95.9939 10.9353,95.9939 10.9353,95.0709 10.2431,95.2438 9.7235,95.7631 8.19371,95.3011 7.99179,93.6274 7.90596,92.7335 6.08775,92.5892 5.48209,90.4534 4.50048,89.9055 4.64503,88.4921 6.31858,88.4054 6.75168,86.8764 6.08775,85.2892 6.54964,84.597 5.39581,83.0102 4.32848,80.9035 5.48209,79.6628 4.38529,78.4214 4.50048,78.3932 3.89516,77.932 3.95253,75.9697 3.20311,75.9697 3.43326,73.4597 2.82738,71.7863 3.43326,71.4109 3.95253,71.8725 4.50048,71.7863 4.55853,70.8055 7.53012,69.7374 7.44339,68.6697 9.86749,67.6025 10.1845,66.9967 11.6848,66.4771 9.80944,62.8993 10.3296,62.2362 9.20423,58.427 10.0983,58.1385 10.1845,57.446 9.63654,57.1289 8.97374,56.0037 10.6462,53.8106 9.43518,52.743 9.95388,51.7622 9.86749,49.9442 7.99179,49.6268 9.03054,48.502 7.99179,47.492 7.76129,46.4528 7.15485,45.7605 4.50048,46.1356 4.09708,45.6737 5.39581,45.1551 5.16441,44.6064 3.80854,44.3188 4.09708,43.3956 5.94353,43.7117 5.71315,41.8947 5.1067,41.7213 4.70364,40.8267 5.85657,40.6818 5.85657,39.0095 4.27043,37.8549 5.33742,36.1817 7.15485,34.6812 8.28022,33.2387 7.67468,30.7284 5.25125,31.1039 5.16441,30.6705 6.00135,30.2668 5.33742,29.8342 5.53968,29.0553 6.75168,29.4301 6.98251,28.7664 5.85657,28.3909 6.6069,26.9498 5.16441,25.4192 4.55853,23.5152 3.72203,23.5152 3.66399,22.0731 5.02053,21.9282 5.25125,20.1959 6.92492,19.0435 6.08775,17.5419 5.02053,17.6865 2.59689,14.4267 2.13477,14.4267 1.9045,15.7826 1.52922,16.0131 0.836718,13.648 0,9.95456 1.75972,8.94438 2.51004,10.0118 3.66399,8.19507 3.95253,6.00192 2.88532,5.91451 2.74054,4.84729 2.62534,4.87666 2.65437,4.84729 3.95253,3.86625 6.46291,4.47191 7.90596,1.81889 9.20423,2.13556 10.3296,0.462459 13.2146,0 13.4461,2.13556 14.4264,2.97205 16.5611,2.97205 17.6284,1.81889 18.8986,1.76028 19.5916,2.27954 21.0338,0.837282 24.9861,0.606109 26.4864,1.29873 28.3914,4.0108 29.3144,4.18359 29.1415,6.29012 28.3044,7.67547 30.2952,8.80027 32.2575,9.26228 32.4014,9.72372 34.1613,10.9354 34.2482,12.3779 33.412,12.4352 33.5562,13.648 32.7193,14.9461 33.412,16.5327 32.8633,17.9181 33.0074,20.4855 35.6614,20.4855 36.1232,21.3219 37.2779,21.553 37.336,23.7467 38.3737,25.8814 39.529,26.2567 39.6722,28.594 38.9226,28.9973 38.8357,29.8921 39.529,29.9785 39.529,30.9596 41.865,31.1039 41.865,32.1711 42.8469,31.9404 42.8469,31.1904 45.6736,31.9404 48.3853,31.9404 49.5396,30.8722 50.0594,31.1904 49.915,32.5467 50.9822,33.6137 51.2137,34.8253 52.051,34.6812 52.426,36.2675 51.8179,36.7298 52.1078,38.5474 50.6071,38.6344 50.7519,40.1344 53.2621,40.4517 53.4932,41.577 54.9927,41.9525 54.9067,43.1063 56.8968,41.8947 58.0227,43.2508 58.802,43.02 59.5529,42.1251 61.0812,41.9525 61.5138,42.7883 61.9753,41.8947 63.7366,42.4996 63.9373,40.9131 64.8609,40.9712 65.4678,40.4517 65.7849,40.4517 67.2272,40.6818 67.833,39.0667 68.4959,39.0667 68.669,37.9423 70.3144,38.0283 70.7183,39.8461 72.3617,41.7213 75.0178,41.577 75.4209,42.4138 74.4116,43.3369 74.1233,42.7883 73.0553,42.8758 73.1997,45.0108 74.7283,46.8857 76.3153,46.7417 75.1038,49.1654 75.7963,49.3955 77.3821,48.502 77.6728,49.5405 77.6133,49.5405 77.528,51.214 75.4784,52.5125 76.055,54.6769 "
   id="polygon10"
   style="fill:#ffdf49" />
  <g
   id="_310480504">
   <path
   d="m 41.2741,43.1814 c 0.5318,0 0.974721,-0.420787 0.974721,-0.953377 0,-0.531687 -0.442922,-0.952587 -0.974721,-0.952587 -0.509552,0 -0.930678,0.4209 -0.930678,0.952587 0,0.53259 0.421126,0.953377 0.930678,0.953377 z"
   id="_310480600"
   style="fill:#fefefe;stroke:#2b2a29;stroke-width:0.133825" />
   <path
   d="m 41.287,42.4563 c 0.122984,0 0.22722,-0.104689 0.22722,-0.22835 0,-0.122758 -0.104237,-0.227446 -0.22722,-0.227446 -0.114401,0 -0.208699,0.104689 -0.208699,0.227446 0,0.123661 0.0943,0.22835 0.208699,0.22835 z"
   id="_310480552"
   style="fill:#2b2a29;stroke:#2b2a29;stroke-width:0.0860547" />
  </g>
  <g
   id="_310480336">
   <path
   d="m 25.6629,43.1814 c 0.532364,0 0.975286,-0.420787 0.975286,-0.953377 0,-0.531687 -0.442922,-0.952587 -0.975286,-0.952587 -0.508536,0 -0.930339,0.4209 -0.930339,0.952587 0,0.53259 0.421803,0.953377 0.930339,0.953377 z"
   id="_310480432"
   style="fill:#fefefe;stroke:#2b2a29;stroke-width:0.133825" />
   <path
   d="m 25.6759,42.4563 c 0.124113,0 0.227898,-0.104689 0.227898,-0.22835 0,-0.122758 -0.103785,-0.227446 -0.227898,-0.227446 -0.114288,0 -0.208361,0.104689 -0.208361,0.227446 0,0.123661 0.09407,0.22835 0.208361,0.22835 z"
   id="_310480384"
   style="fill:#2b2a29;stroke:#2b2a29;stroke-width:0.0860547" />
  </g>
  <g
   id="_310480168">
   <path
   d="m 16.9311,61.5825 c 0.532251,0 0.975738,-0.4209 0.975738,-0.953377 0,-0.531687 -0.443486,-0.952813 -0.975738,-0.952813 -0.509665,0 -0.930678,0.421126 -0.930678,0.952813 0,0.532477 0.421013,0.953377 0.930678,0.953377 z"
   id="_310480264"
   style="fill:#fefefe;stroke:#2b2a29;stroke-width:0.133825" />
   <path
   d="m 16.9437,60.8571 c 0.123887,0 0.228011,-0.104237 0.228011,-0.228011 0,-0.122532 -0.104124,-0.227333 -0.228011,-0.227333 -0.114175,0 -0.207796,0.104801 -0.207796,0.227333 0,0.123774 0.09362,0.228011 0.207796,0.228011 z"
   id="_310480216"
   style="fill:#2b2a29;stroke:#2b2a29;stroke-width:0.0860547" />
  </g>
  <g
   id="_310480000">
   <path
   d="m 58.1652,61.5876 c 0.53259,0 0.975738,-0.4209 0.975738,-0.953038 0,-0.532251 -0.443148,-0.953151 -0.975738,-0.953151 -0.507745,0 -0.929887,0.4209 -0.929887,0.953151 0,0.532139 0.422142,0.953038 0.929887,0.953038 z"
   id="_310480096"
   style="fill:#fefefe;stroke:#2b2a29;stroke-width:0.133825" />
   <path
   d="m 58.1787,60.8623 c 0.123322,0 0.227672,-0.104576 0.227672,-0.227785 0,-0.123322 -0.10435,-0.227559 -0.227672,-0.227559 -0.113949,0 -0.208135,0.104237 -0.208135,0.227559 0,0.123209 0.09419,0.227785 0.208135,0.227785 z"
   id="_310480048"
   style="fill:#2b2a29;stroke:#2b2a29;stroke-width:0.0860547" />
  </g>
  <g
   id="_310479832">
   <path
   d="m 44.6515,50.754 c 0.533042,0 0.975738,-0.421577 0.975738,-0.953603 0,-0.531687 -0.442696,-0.952813 -0.975738,-0.952813 -0.508987,0 -0.930113,0.421126 -0.930113,0.952813 0,0.532026 0.421126,0.953603 0.930113,0.953603 z"
   id="_310479928"
   style="fill:#fefefe;stroke:#2b2a29;stroke-width:0.133825" />
   <path
   d="m 44.6647,50.0286 c 0.123322,0 0.227559,-0.104463 0.227559,-0.228237 0,-0.122532 -0.104237,-0.22722 -0.227559,-0.22722 -0.114401,0 -0.208135,0.104689 -0.208135,0.22722 0,0.123774 0.09373,0.228237 0.208135,0.228237 z"
   id="_310479880"
   style="fill:#2b2a29;stroke:#2b2a29;stroke-width:0.0860547" />
  </g>
  <g
   id="_306597984">
   <path
   d="m 20.8867,5.78689 c 0.532251,0 0.97506,-0.421916 0.97506,-0.953942 0,-0.531687 -0.442809,-0.952813 -0.97506,-0.952813 -0.509213,0 -0.930452,0.421126 -0.930452,0.952813 0,0.532026 0.421239,0.953942 0.930452,0.953942 z"
   id="_310479760"
   style="fill:#fefefe;stroke:#2b2a29;stroke-width:0.133825" />
   <path
   d="m 20.8992,5.06051 c 0.123887,0 0.228124,-0.104237 0.228124,-0.227559 0,-0.123097 -0.104237,-0.227785 -0.228124,-0.227785 -0.11361,0 -0.207796,0.104689 -0.207796,0.227785 0,0.123322 0.09419,0.227559 0.207796,0.227559 z"
   id="_179915848"
   style="fill:#2b2a29;stroke:#2b2a29;stroke-width:0.0860547" />
  </g>
  <g
   id="_179607984">
   <path
   d="m 21.7024,73.3545 c 0.532477,0 0.975399,-0.421352 0.975399,-0.953829 0,-0.532026 -0.442922,-0.952587 -0.975399,-0.952587 -0.509439,0 -0.930452,0.420561 -0.930452,0.952587 0,0.532477 0.421013,0.953829 0.930452,0.953829 z"
   id="_178170192"
   style="fill:#fefefe;stroke:#2b2a29;stroke-width:0.133825" />
   <path
   d="m 21.7152,72.6284 c 0.123435,0 0.227785,-0.104689 0.227785,-0.227785 0,-0.123097 -0.10435,-0.226995 -0.227785,-0.226995 -0.113836,0 -0.208135,0.103898 -0.208135,0.226995 0,0.123097 0.0943,0.227785 0.208135,0.227785 z"
   id="_306597936"
   style="fill:#2b2a29;stroke:#2b2a29;stroke-width:0.0860547" />
  </g>
  <path
   d="m 40.5635,38.2712 1.1099,0 0,0.201924 -0.883246,0 0,0.527508 0.408364,0 c 0.150991,0 0.270925,0.01434 0.360142,0.04337 0.08888,0.02868 0.16059,0.08289 0.213894,0.162623 0.05387,0.07962 0.08097,0.172448 0.08097,0.278379 0,0.08651 -0.01954,0.167027 -0.05782,0.24224 -0.03862,0.07487 -0.09599,0.13631 -0.172448,0.183741 -0.07612,0.04732 -0.205989,0.07126 -0.389618,0.07126 l -0.670142,0 0,-1.71104 z m 0.226656,1.5186 0.452634,0 c 0.122306,0 0.213894,-0.02507 0.274878,-0.07487 0.06132,-0.0498 0.09159,-0.124339 0.09159,-0.223945 0,-0.07092 -0.0175,-0.130211 -0.05251,-0.177643 -0.03467,-0.04743 -0.08368,-0.07883 -0.145909,-0.09441 -0.06211,-0.01559 -0.168495,-0.02349 -0.318696,-0.02349 l -0.301982,0 0,0.594364 z m 1.30516,0.667319 0,-1.71432 0.191195,0 0,0.161042 c 0.04506,-0.06302 0.09599,-0.110448 0.153024,-0.141843 0.05658,-0.03151 0.125468,-0.04743 0.206328,-0.04743 0.106044,0 0.199213,0.02744 0.280073,0.08165 0.08131,0.05455 0.142295,0.131454 0.18329,0.230721 0.04145,0.09915 0.06211,0.207909 0.06211,0.326262 0,0.12671 -0.0227,0.240998 -0.06855,0.342638 -0.0454,0.101526 -0.111464,0.179224 -0.19831,0.233432 -0.08685,0.05376 -0.178095,0.08086 -0.273749,0.08086 -0.07013,0 -0.132696,-0.01479 -0.188372,-0.04427 -0.05579,-0.02948 -0.101188,-0.06686 -0.1371,-0.111916 l 0,0.603173 -0.209942,0 z m 0.190066,-1.08765 c 0,0.159461 0.03219,0.277363 0.09678,0.353818 0.06448,0.07612 0.142973,0.114288 0.234674,0.114288 0.09317,0 0.173239,-0.03941 0.239756,-0.118692 0.06652,-0.07883 0.100058,-0.201133 0.100058,-0.366918 0,-0.158106 -0.03264,-0.276007 -0.09769,-0.354947 -0.06494,-0.07849 -0.142521,-0.117902 -0.232641,-0.117902 -0.08956,0 -0.168834,0.04178 -0.237836,0.125468 -0.06889,0.08368 -0.103107,0.205537 -0.103107,0.364885 z m 1.06089,-0.0071 c 0,-0.229479 0.06369,-0.399556 0.191647,-0.509891 0.106383,-0.0917 0.236255,-0.137891 0.389618,-0.137891 0.170528,0 0.309887,0.05579 0.417851,0.167705 0.108415,0.111577 0.162171,0.26573 0.162171,0.462572 0,0.159687 -0.02394,0.285268 -0.07171,0.376404 -0.04777,0.0917 -0.11745,0.162623 -0.208699,0.213217 -0.0917,0.05059 -0.191308,0.07567 -0.29961,0.07567 -0.173352,0 -0.313501,-0.05534 -0.420674,-0.166914 -0.107173,-0.111126 -0.16059,-0.271264 -0.16059,-0.480867 z m 0.215927,0 c 0,0.158896 0.03467,0.277701 0.104011,0.356528 0.06934,0.07928 0.156525,0.118692 0.261326,0.118692 0.10435,0 0.191195,-0.03975 0.260536,-0.119031 0.06889,-0.07928 0.103559,-0.200455 0.103559,-0.362965 0,-0.153363 -0.03467,-0.269683 -0.10435,-0.348623 -0.06968,-0.07883 -0.156186,-0.11824 -0.259745,-0.11824 -0.104801,0 -0.191985,0.03941 -0.261326,0.117902 -0.06934,0.07849 -0.104011,0.19718 -0.104011,0.355738 z m 1.19279,-0.619548 0.484481,0 c 0.119031,0 0.20757,0.01005 0.26573,0.02948 0.05771,0.01999 0.107512,0.05624 0.149297,0.109206 0.04145,0.05297 0.06256,0.116321 0.06256,0.190404 0,0.05895 -0.01231,0.110787 -0.03704,0.154605 -0.02428,0.04382 -0.06132,0.08086 -0.110335,0.110335 0.05861,0.01954 0.106834,0.05579 0.145457,0.109206 0.03862,0.0533 0.05771,0.116321 0.05771,0.189614 -0.0076,0.117563 -0.0498,0.204747 -0.12592,0.261326 -0.07645,0.05703 -0.187242,0.08526 -0.332587,0.08526 l -0.559355,0 0,-1.23944 z m 0.210393,0.521523 0.223832,0 c 0.08967,0 0.150991,-0.0044 0.184419,-0.01389 0.03354,-0.0091 0.06336,-0.02835 0.09012,-0.05658 0.02631,-0.02835 0.03941,-0.06256 0.03941,-0.101978 0,-0.06539 -0.02315,-0.111239 -0.06934,-0.136648 -0.04619,-0.02597 -0.125468,-0.03874 -0.237384,-0.03874 l -0.23106,0 0,0.347832 z m 0,0.545013 0.276459,0 c 0.119144,0 0.200794,-0.01355 0.244951,-0.04145 0.04461,-0.02744 0.06776,-0.07533 0.07013,-0.142634 0,-0.03986 -0.01276,-0.07646 -0.03862,-0.110335 -0.02552,-0.03388 -0.05895,-0.05534 -0.09995,-0.06415 -0.04145,-0.0091 -0.107625,-0.01355 -0.198874,-0.01355 l -0.254098,0 0,0.372113 z m 1.84091,0.01988 c -0.07804,0.06618 -0.153024,0.11282 -0.224623,0.140262 -0.07216,0.0271 -0.14941,0.04066 -0.231964,0.04066 -0.136197,0 -0.240546,-0.03309 -0.31384,-0.09961 -0.07295,-0.06652 -0.109545,-0.151781 -0.109545,-0.255002 0,-0.06087 0.01344,-0.116321 0.04133,-0.166463 0.02756,-0.05025 0.06381,-0.09046 0.108415,-0.120725 0.04506,-0.03026 0.0952,-0.05342 0.15133,-0.06889 0.04111,-0.01084 0.10322,-0.02157 0.186452,-0.03151 0.169738,-0.02033 0.294867,-0.04427 0.374936,-0.0725 7.91e-4,-0.02868 0.0011,-0.04698 0.0011,-0.05455 0,-0.08572 -0.01988,-0.146248 -0.05974,-0.180918 -0.0533,-0.04777 -0.133373,-0.07126 -0.238965,-0.07126 -0.09882,0 -0.171771,0.01705 -0.219089,0.05172 -0.04709,0.03467 -0.08176,0.09599 -0.104463,0.18408 l -0.205086,-0.02835 c 0.01863,-0.08764 0.04935,-0.158896 0.09193,-0.212652 0.04269,-0.05421 0.104801,-0.09599 0.185661,-0.125129 0.08086,-0.02914 0.174481,-0.04382 0.281315,-0.04382 0.105931,0 0.191647,0.01276 0.257712,0.03749 0.06618,0.02507 0.11474,0.05613 0.146248,0.09396 0.03106,0.03783 0.05263,0.08526 0.06528,0.143086 0.0068,0.0358 0.01039,0.100284 0.01039,0.193567 l 0,0.280073 c 0,0.195599 0.0044,0.319148 0.01355,0.370532 0.0088,0.05172 0.02665,0.101526 0.05297,0.148958 l -0.219428,0 c -0.02157,-0.04348 -0.03591,-0.09441 -0.0419,-0.153024 z m -0.0175,-0.469235 c -0.07645,0.0314 -0.190856,0.05771 -0.342976,0.07962 -0.08651,0.01242 -0.147829,0.02631 -0.18329,0.0419 -0.03591,0.01547 -0.06381,0.03817 -0.08289,0.06844 -0.01954,0.02993 -0.02947,0.06302 -0.02947,0.09961 0,0.05624 0.02157,0.102882 0.06369,0.140262 0.04224,0.03704 0.104464,0.05579 0.186113,0.05579 0.08086,0 0.153024,-0.0175 0.215927,-0.05297 0.0629,-0.03546 0.109545,-0.08414 0.139021,-0.145457 0.0227,-0.04743 0.03388,-0.11745 0.03388,-0.209942 l 0,-0.07725 z m 0.538237,1.09714 0,-1.71432 0.191195,0 0,0.161042 c 0.04506,-0.06302 0.09599,-0.110448 0.153024,-0.141843 0.05658,-0.03151 0.125468,-0.04743 0.206328,-0.04743 0.106044,0 0.199213,0.02744 0.280073,0.08165 0.08131,0.05455 0.142295,0.131454 0.18329,0.230721 0.04145,0.09916 0.06211,0.207909 0.06211,0.326262 0,0.12671 -0.0227,0.240998 -0.06855,0.342638 -0.0454,0.101526 -0.111464,0.179224 -0.19831,0.233432 -0.08684,0.05376 -0.178095,0.08086 -0.273749,0.08086 -0.07013,0 -0.132696,-0.01479 -0.188372,-0.04427 -0.05579,-0.02948 -0.101188,-0.06686 -0.1371,-0.111916 l 0,0.603173 -0.209942,0 z m 0.190066,-1.08765 c 0,0.159461 0.03219,0.277363 0.09678,0.353818 0.06448,0.07612 0.142973,0.114288 0.234674,0.114288 0.09317,0 0.173239,-0.03941 0.239756,-0.118692 0.06652,-0.07883 0.100058,-0.201133 0.100058,-0.366918 0,-0.158106 -0.03264,-0.276007 -0.09769,-0.354947 -0.06494,-0.07849 -0.142521,-0.117902 -0.232641,-0.117902 -0.08956,0 -0.168834,0.04178 -0.237836,0.125468 -0.06889,0.08368 -0.103107,0.205537 -0.103107,0.364885 z m 1.13938,-0.626663 0.209942,0 0,0.945472 0.582394,-0.945472 0.226317,0 0,1.23944 -0.209942,0 0,-0.939374 -0.582394,0.939374 -0.226317,0 0,-1.23944 z"
   id="path33"
   style="fill:#2b2a29;fill-rule:nonzero" />
  <path
   d="m 44.7795,51.7681 1.1099,0 0,0.201924 -0.883246,0 0,0.527508 0.408364,0 c 0.150991,0 0.270925,0.01434 0.360142,0.04337 0.08888,0.02869 0.16059,0.08289 0.213894,0.162623 0.05387,0.07962 0.08097,0.172448 0.08097,0.278379 0,0.08651 -0.01954,0.167027 -0.05782,0.24224 -0.03862,0.07487 -0.09599,0.13631 -0.172448,0.183741 -0.07612,0.04732 -0.205989,0.07126 -0.389618,0.07126 l -0.670142,0 0,-1.71104 z m 0.226656,1.5186 0.452634,0 c 0.122306,0 0.213894,-0.02507 0.274878,-0.07487 0.06132,-0.0498 0.09159,-0.124339 0.09159,-0.223945 0,-0.07092 -0.0175,-0.130211 -0.05251,-0.177643 -0.03467,-0.04743 -0.08368,-0.07883 -0.145909,-0.09441 -0.06211,-0.01559 -0.168495,-0.02349 -0.318696,-0.02349 l -0.301982,0 0,0.594364 z m 1.22667,-0.42745 c 0,-0.229479 0.06369,-0.399556 0.191647,-0.509891 0.106383,-0.0917 0.236255,-0.137891 0.389618,-0.137891 0.170528,0 0.309887,0.05579 0.417851,0.167705 0.108415,0.111577 0.162171,0.26573 0.162171,0.462572 0,0.159687 -0.02394,0.285268 -0.07171,0.376404 -0.04777,0.0917 -0.11745,0.162623 -0.208699,0.213217 -0.0917,0.05059 -0.191308,0.07567 -0.29961,0.07567 -0.173352,0 -0.313501,-0.05534 -0.420674,-0.166914 -0.107173,-0.111126 -0.16059,-0.271264 -0.16059,-0.480867 z m 0.215927,0 c 0,0.158896 0.03467,0.277701 0.104011,0.356528 0.06934,0.07928 0.156525,0.118692 0.261326,0.118692 0.10435,0 0.191195,-0.03975 0.260536,-0.119031 0.06889,-0.07928 0.103559,-0.200455 0.103559,-0.362965 0,-0.153363 -0.03467,-0.269683 -0.10435,-0.348623 -0.06968,-0.07883 -0.156186,-0.11824 -0.259745,-0.11824 -0.104801,0 -0.191985,0.03941 -0.261326,0.117902 -0.06934,0.07849 -0.104011,0.19718 -0.104011,0.355738 z m 1.192,1.09477 0,-1.71432 0.191195,0 0,0.161042 c 0.04506,-0.06302 0.09599,-0.110448 0.153024,-0.141843 0.05658,-0.03151 0.125468,-0.04743 0.206328,-0.04743 0.106044,0 0.199213,0.02744 0.280073,0.08165 0.08131,0.05455 0.142295,0.131454 0.18329,0.230721 0.04145,0.09915 0.06211,0.207909 0.06211,0.326262 0,0.12671 -0.0227,0.240998 -0.06855,0.342638 -0.0454,0.101526 -0.111464,0.179224 -0.19831,0.233432 -0.08685,0.05376 -0.178095,0.08086 -0.273749,0.08086 -0.07013,0 -0.132696,-0.01479 -0.188372,-0.04427 -0.05579,-0.02948 -0.101188,-0.06686 -0.1371,-0.111916 l 0,0.603173 -0.209942,0 z m 0.190066,-1.08765 c 0,0.159461 0.03219,0.277363 0.09678,0.353818 0.06448,0.07612 0.142973,0.114288 0.234674,0.114288 0.09317,0 0.173239,-0.03941 0.239756,-0.118692 0.06652,-0.07883 0.100058,-0.201133 0.100058,-0.366918 0,-0.158106 -0.03264,-0.276007 -0.09769,-0.354947 -0.06494,-0.07849 -0.142521,-0.117902 -0.232641,-0.117902 -0.08956,0 -0.168834,0.04179 -0.237836,0.125468 -0.06889,0.08368 -0.103107,0.205537 -0.103107,0.364885 z m 1.13938,-0.626663 0.209942,0 0,0.945472 0.582394,-0.945472 0.226317,0 0,1.23944 -0.209942,0 0,-0.939374 -0.582394,0.939374 -0.226317,0 0,-1.23944 z m 2.14414,0.785221 0.206328,0.0271 c -0.02225,0.142295 -0.08007,0.25376 -0.173239,0.334281 -0.09283,0.08052 -0.207118,0.120725 -0.342638,0.120725 -0.169286,0 -0.305934,-0.05534 -0.408703,-0.166124 -0.10322,-0.110787 -0.155056,-0.269683 -0.155056,-0.476914 0,-0.133825 0.02236,-0.250936 0.06663,-0.351333 0.04461,-0.100397 0.111916,-0.175723 0.202714,-0.225865 0.09046,-0.05025 0.189275,-0.07533 0.295658,-0.07533 0.134616,0 0.244951,0.03422 0.330215,0.10243 0.08572,0.0681 0.140601,0.164543 0.164995,0.290011 l -0.204408,0.03139 c -0.01954,-0.08323 -0.05376,-0.145796 -0.10322,-0.188033 -0.04935,-0.04179 -0.109093,-0.0629 -0.179224,-0.0629 -0.106044,0 -0.192098,0.03783 -0.258164,0.113949 -0.06618,0.07567 -0.09927,0.195599 -0.09927,0.35969 0,0.166576 0.03196,0.287639 0.09611,0.363417 0.06369,0.07521 0.146925,0.113046 0.249694,0.113046 0.08255,0 0.150991,-0.02541 0.206441,-0.076 0.05534,-0.05059 0.09046,-0.128291 0.10514,-0.233545 z m 0.387246,-0.785221 0.978448,0 0,1.23944 -0.210393,0 0,-1.06575 -0.557661,0 0,1.06575 -0.210393,0 0,-1.23944 z m 1.29432,-0.229818 0,-0.241789 0.210393,0 0,0.241789 -0.210393,0 z m 0,1.46925 0,-1.23944 0.210393,0 0,1.23944 -0.210393,0 z m 0.632649,-1.23944 0.975964,0 0,1.23944 -0.209151,0 0,-1.06575 -0.556532,0 0,0.617516 c 0,0.143876 -0.0047,0.239078 -0.01389,0.284929 -0.0096,0.04574 -0.03512,0.08605 -0.07736,0.120273 -0.04179,0.03422 -0.102769,0.05138 -0.182047,0.05138 -0.04901,0 -0.105592,-0.0032 -0.169286,-0.0096 l 0,-0.17482 0.09238,0 c 0.04348,0 0.07454,-0.0049 0.09328,-0.01355 0.01875,-0.0091 0.03106,-0.02315 0.03738,-0.04269 0.0064,-0.01942 0.0093,-0.08278 0.0093,-0.190404 l 0,-0.816729 z m 1.28867,0 0.209942,0 0,0.484142 0.266182,0 c 0.17369,0 0.307177,0.03377 0.400798,0.101188 0.09396,0.06731 0.140601,0.160138 0.140601,0.278379 0,0.10322 -0.03907,0.192098 -0.117111,0.265392 -0.07815,0.07363 -0.203166,0.110335 -0.375275,0.110335 l -0.525137,0 0,-1.23944 z m 0.209942,1.06654 0.220783,0 c 0.133035,0 0.227785,-0.01637 0.284816,-0.04901 0.05658,-0.03264 0.08481,-0.08368 0.08481,-0.152572 0,-0.05376 -0.02067,-0.101639 -0.0629,-0.143763 -0.04178,-0.0419 -0.135067,-0.06302 -0.278831,-0.06302 l -0.248678,0 0,0.408364 z"
   id="path35"
   style="fill:#2b2a29;fill-rule:nonzero" />
  <path
   d="m 19.6533,40.6038 0,-1.71104 0.226317,0 0,1.71104 -0.226317,0 z m 0.598882,0.474882 0,-1.71432 0.191195,0 0,0.161042 c 0.04506,-0.06302 0.09599,-0.110448 0.153024,-0.141843 0.05658,-0.03151 0.125468,-0.04743 0.206328,-0.04743 0.106044,0 0.199213,0.02744 0.280073,0.08165 0.08131,0.05455 0.142295,0.131454 0.18329,0.230721 0.04145,0.09915 0.06211,0.207909 0.06211,0.326262 0,0.12671 -0.0227,0.240998 -0.06855,0.342638 -0.0454,0.101526 -0.111464,0.179224 -0.19831,0.233432 -0.08685,0.05376 -0.178095,0.08086 -0.273749,0.08086 -0.07013,0 -0.132696,-0.01479 -0.188372,-0.04427 -0.05579,-0.02948 -0.101188,-0.06686 -0.1371,-0.111916 l 0,0.603173 -0.209942,0 z m 0.190066,-1.08765 c 0,0.159461 0.03219,0.277363 0.09678,0.353818 0.06448,0.07612 0.142973,0.114288 0.234674,0.114288 0.09317,0 0.173239,-0.03941 0.239756,-0.118692 0.06652,-0.07883 0.100058,-0.201133 0.100058,-0.366918 0,-0.158106 -0.03264,-0.276007 -0.09769,-0.354947 -0.06494,-0.07849 -0.142521,-0.117902 -0.232641,-0.117902 -0.08956,0 -0.168834,0.04179 -0.237836,0.125468 -0.06889,0.08368 -0.103107,0.205537 -0.103107,0.364885 z m 1.14017,-0.626663 0.978448,0 0,1.23944 -0.210393,0 0,-1.06575 -0.557661,0 0,1.06575 -0.210393,0 0,-1.23944 z m 1.29432,-0.229818 0,-0.241789 0.210393,0 0,0.241789 -0.210393,0 z m 0,1.46925 0,-1.23944 0.210393,0 0,1.23944 -0.210393,0 z m 0.531009,-1.23944 0.210393,0 0,0.515989 0.582394,0 0,-0.515989 0.209942,0 0,1.23944 -0.209942,0 0,-0.549756 -0.582394,0 0,0.549756 -0.210393,0 0,-1.23944 z m 1.31544,0 0.209942,0 0,0.484142 0.266182,0 c 0.17369,0 0.307177,0.03377 0.400798,0.101188 0.09396,0.06731 0.140601,0.160138 0.140601,0.278379 0,0.10322 -0.03908,0.192098 -0.117111,0.265392 -0.07815,0.07363 -0.203166,0.110335 -0.375275,0.110335 l -0.525137,0 0,-1.23944 z m 0.209942,1.06654 0.220783,0 c 0.133035,0 0.227785,-0.01637 0.284816,-0.04901 0.05658,-0.03264 0.08481,-0.08368 0.08481,-0.152572 0,-0.05376 -0.02067,-0.101639 -0.0629,-0.143763 -0.04178,-0.0419 -0.135067,-0.06302 -0.278831,-0.06302 l -0.248678,0 0,0.408364 z"
   id="path37"
   style="fill:#2b2a29;fill-rule:nonzero" />
  <path
   d="m 16.3935,6.50876 1.34582,0 0,1.71104 -0.227898,0 0,-1.50912 -0.891603,0 0,1.50912 -0.226317,0 0,-1.71104 z m 1.68925,2.18592 0,-1.71432 0.191195,0 0,0.161042 c 0.04506,-0.063016 0.09599,-0.110448 0.153024,-0.141843 0.05658,-0.031508 0.125468,-0.047432 0.206328,-0.047432 0.106044,0 0.199213,0.027443 0.280073,0.08165 0.08131,0.054547 0.142295,0.131454 0.18329,0.230721 0.04145,0.099155 0.06211,0.207909 0.06211,0.326262 0,0.12671 -0.0227,0.240998 -0.06855,0.342638 -0.0454,0.101526 -0.111464,0.179224 -0.19831,0.233432 -0.08685,0.053756 -0.178095,0.08086 -0.273749,0.08086 -0.07013,0 -0.132696,-0.014794 -0.188372,-0.04427 -0.05579,-0.029475 -0.101188,-0.066856 -0.1371,-0.111916 l 0,0.603173 -0.209942,0 z m 0.190066,-1.08765 c 0,0.159461 0.03219,0.277363 0.09678,0.353818 0.06448,0.076117 0.142973,0.114288 0.234674,0.114288 0.09317,0 0.173239,-0.039414 0.239756,-0.118692 0.06652,-0.078827 0.100058,-0.201133 0.100058,-0.366918 0,-0.158106 -0.03264,-0.276007 -0.09769,-0.354947 -0.06494,-0.078488 -0.142521,-0.117902 -0.232641,-0.117902 -0.08956,0 -0.168834,0.041785 -0.237836,0.125468 -0.06889,0.083683 -0.103107,0.205537 -0.103107,0.364885 z m 1.13938,-0.626663 0.209942,0 0,0.945472 0.582394,-0.945472 0.226317,0 0,1.23944 -0.209942,0 0,-0.939374 -0.582394,0.939374 -0.226317,0 0,-1.23944 z m 1.33622,0 0.978448,0 0,1.23944 -0.210393,0 0,-1.06575 -0.557661,0 0,1.06575 -0.210393,0 0,-1.23944 z m 1.29432,0.134277 -0.05342,-0.319825 0,-0.286058 0.239078,0 0,0.286058 -0.05579,0.319825 -0.129873,0 z m 1.43142,-0.134277 0,1.23944 -0.209151,0 0,-0.483239 -0.121064,0 c -0.07408,0 -0.129082,0.0096 -0.165333,0.028685 -0.03625,0.019086 -0.08888,0.080521 -0.158219,0.183628 l -0.183177,0.270925 -0.260197,0 0.226317,-0.333829 c 0.06934,-0.101978 0.13823,-0.159348 0.20678,-0.172561 -0.119934,-0.016714 -0.208812,-0.059741 -0.266973,-0.129873 -0.05771,-0.069679 -0.08685,-0.150539 -0.08685,-0.241337 0,-0.107625 0.03783,-0.19447 0.113949,-0.261439 0.07566,-0.066856 0.185661,-0.100397 0.329424,-0.100397 l 0.574488,0 z m -0.209151,0.17369 -0.29882,0 c -0.125016,0 -0.205876,0.019537 -0.242128,0.058612 -0.03591,0.038623 -0.05421,0.084474 -0.05421,0.13631 0,0.074084 0.02665,0.128179 0.08007,0.162849 0.05342,0.03467 0.147377,0.052175 0.282896,0.052175 l 0.232189,0 0,-0.409945 z m 0.41435,-0.17369 1.00747,0 0,0.17369 -0.399217,0 0,1.06575 -0.209151,0 0,-1.06575 -0.399104,0 0,-0.17369 z m 1.20465,0 0.209942,0 0,0.484142 0.266182,0 c 0.17369,0 0.307177,0.033767 0.400798,0.101188 0.09396,0.067308 0.140601,0.160138 0.140601,0.278379 0,0.10322 -0.03908,0.192098 -0.117111,0.265392 -0.07815,0.073632 -0.203166,0.110335 -0.375275,0.110335 l -0.525137,0 0,-1.23944 z m 0.209942,1.06654 0.220783,0 c 0.133035,0 0.227785,-0.016375 0.284816,-0.049013 0.05658,-0.032637 0.08481,-0.083683 0.08481,-0.152572 0,-0.053756 -0.02067,-0.101639 -0.0629,-0.143763 -0.04179,-0.041898 -0.135067,-0.063016 -0.278831,-0.063016 l -0.248678,0 0,0.408364 z"
   id="path39"
   style="fill:#2b2a29;fill-rule:nonzero" />
  <path
   d="m 17.6587,62.5114 0,-0.219541 0.212313,0 0,0.219541 c 0.21796,0.01152 0.389618,0.07725 0.515876,0.19639 0.12592,0.119483 0.188823,0.268102 0.188823,0.445406 0,0.17369 -0.06087,0.321067 -0.183177,0.442244 -0.121967,0.121516 -0.295996,0.188372 -0.521523,0.200794 l 0,0.22067 -0.212313,0 0,-0.22067 c -0.202375,-0.0076 -0.370871,-0.06934 -0.505599,-0.184871 -0.134616,-0.11553 -0.201924,-0.268102 -0.201924,-0.458168 0,-0.190404 0.06731,-0.342976 0.201585,-0.457377 0.134164,-0.11474 0.302772,-0.176062 0.505938,-0.184419 z m 0.212313,0.193567 0,0.896459 c 0.146248,-0.0072 0.261326,-0.04946 0.345461,-0.127162 0.08402,-0.07804 0.125807,-0.184871 0.125807,-0.321067 0,-0.133825 -0.04099,-0.239869 -0.123435,-0.317905 -0.08255,-0.07849 -0.198423,-0.121516 -0.347832,-0.130324 z m -0.212313,0.0012 c -0.141053,0.0063 -0.255002,0.04777 -0.342186,0.124678 -0.0873,0.07736 -0.130776,0.184419 -0.130776,0.32231 0,0.136197 0.04303,0.243031 0.129082,0.321067 0.08605,0.0777 0.200455,0.119596 0.34388,0.12592 l 0,-0.893975 z m 1.98073,1.15767 c -0.07804,0.06618 -0.153024,0.11282 -0.224623,0.140262 -0.07216,0.0271 -0.14941,0.04066 -0.231964,0.04066 -0.136197,0 -0.240546,-0.03309 -0.31384,-0.09961 -0.07296,-0.06652 -0.109545,-0.151781 -0.109545,-0.255002 0,-0.06087 0.01344,-0.116321 0.04133,-0.166463 0.02756,-0.05025 0.06381,-0.09046 0.108415,-0.120725 0.04506,-0.03027 0.0952,-0.05342 0.15133,-0.06889 0.04111,-0.01084 0.10322,-0.02157 0.186452,-0.03151 0.169738,-0.02033 0.294867,-0.04427 0.374936,-0.0725 7.91e-4,-0.02868 0.0011,-0.04698 0.0011,-0.05455 0,-0.08572 -0.01988,-0.146248 -0.05974,-0.180918 -0.0533,-0.04777 -0.133373,-0.07126 -0.238965,-0.07126 -0.09882,0 -0.171771,0.01705 -0.219089,0.05172 -0.04709,0.03467 -0.08176,0.09599 -0.104463,0.18408 l -0.205086,-0.02835 c 0.01863,-0.08764 0.04935,-0.158896 0.09193,-0.212652 0.04269,-0.05421 0.104801,-0.09599 0.185661,-0.125129 0.08086,-0.02914 0.174481,-0.04382 0.281315,-0.04382 0.105931,0 0.191647,0.01276 0.257712,0.03749 0.06618,0.02507 0.11474,0.05613 0.146248,0.09396 0.03106,0.03783 0.05263,0.08526 0.06528,0.143086 0.0068,0.0358 0.01039,0.100284 0.01039,0.193567 l 0,0.280073 c 0,0.195599 0.0044,0.319148 0.01355,0.370532 0.0088,0.05172 0.02665,0.101526 0.05297,0.148958 l -0.219428,0 c -0.02157,-0.04348 -0.03591,-0.09441 -0.0419,-0.153024 z m -0.0175,-0.469235 c -0.07645,0.0314 -0.190856,0.05771 -0.342976,0.07962 -0.08651,0.01242 -0.147829,0.02631 -0.18329,0.0419 -0.03591,0.01547 -0.06381,0.03817 -0.08289,0.06844 -0.01954,0.02993 -0.02948,0.06302 -0.02948,0.09961 0,0.05624 0.02157,0.102882 0.06369,0.140262 0.04224,0.03704 0.104463,0.05579 0.186113,0.05579 0.08086,0 0.153024,-0.0175 0.215927,-0.05297 0.0629,-0.03546 0.109545,-0.08414 0.13902,-0.145457 0.0227,-0.04743 0.03388,-0.11745 0.03388,-0.209942 l 0,-0.07725 z m 1.34695,0.168044 0.206328,0.0271 c -0.02225,0.142295 -0.08007,0.25376 -0.173239,0.334281 -0.09283,0.08052 -0.207118,0.120725 -0.342638,0.120725 -0.169286,0 -0.305934,-0.05534 -0.408703,-0.166124 -0.10322,-0.110787 -0.155056,-0.269683 -0.155056,-0.476914 0,-0.133825 0.02236,-0.250936 0.06663,-0.351333 0.04461,-0.100397 0.111916,-0.175723 0.202714,-0.225865 0.09046,-0.05025 0.189275,-0.07533 0.295658,-0.07533 0.134616,0 0.244951,0.03422 0.330215,0.10243 0.08572,0.0681 0.140601,0.164543 0.164995,0.290011 l -0.204408,0.03139 c -0.01954,-0.08323 -0.05376,-0.145796 -0.10322,-0.188033 -0.04935,-0.04178 -0.109093,-0.0629 -0.179224,-0.0629 -0.106044,0 -0.192098,0.03783 -0.258164,0.113949 -0.06618,0.07567 -0.09927,0.195599 -0.09927,0.35969 0,0.166576 0.03196,0.287639 0.0961,0.363417 0.06369,0.07521 0.146925,0.113046 0.249694,0.113046 0.08255,0 0.150991,-0.02541 0.206442,-0.076 0.05534,-0.05059 0.09046,-0.128291 0.105139,-0.233545 z m 0.272958,-0.785221 1.00747,0 0,0.17369 -0.399217,0 0,1.06575 -0.209151,0 0,-1.06575 -0.399104,0 0,-0.17369 z m 1.20906,-0.229818 0,-0.241789 0.210393,0 0,0.241789 -0.210393,0 z m 0,1.46925 0,-1.23944 0.210393,0 0,1.23944 -0.210393,0 z m 0.531009,-1.23944 0.484481,0 c 0.119031,0 0.20757,0.01005 0.26573,0.02948 0.05771,0.01999 0.107512,0.05624 0.149297,0.109206 0.04145,0.05296 0.06256,0.116321 0.06256,0.190404 0,0.05895 -0.01231,0.110787 -0.03704,0.154605 -0.02428,0.04382 -0.06132,0.08086 -0.110335,0.110335 0.05861,0.01954 0.106834,0.05579 0.145457,0.109206 0.03862,0.0533 0.05771,0.116321 0.05771,0.189614 -0.0076,0.117563 -0.0498,0.204747 -0.12592,0.261326 -0.07646,0.05703 -0.187242,0.08526 -0.332587,0.08526 l -0.559355,0 0,-1.23944 z m 0.210393,0.521523 0.223832,0 c 0.08967,0 0.150991,-0.0044 0.184419,-0.01389 0.03354,-0.0091 0.06336,-0.02835 0.09012,-0.05658 0.02631,-0.02835 0.03941,-0.06256 0.03941,-0.101978 0,-0.06539 -0.02315,-0.111239 -0.06934,-0.136648 -0.04619,-0.02597 -0.125469,-0.03874 -0.237384,-0.03874 l -0.23106,0 0,0.347832 z m 0,0.545013 0.276459,0 c 0.119144,0 0.200794,-0.01355 0.244951,-0.04145 0.04461,-0.02744 0.06776,-0.07533 0.07013,-0.142634 0,-0.03986 -0.01276,-0.07645 -0.03862,-0.110335 -0.02552,-0.03388 -0.05895,-0.05534 -0.09995,-0.06415 -0.04145,-0.0091 -0.107625,-0.01355 -0.198874,-0.01355 l -0.254098,0 0,0.372113 z"
   id="path41"
   style="fill:#2b2a29;fill-rule:nonzero" />
  <path
   d="m 21.919,74.186 1.1099,0 0,0.201924 -0.883246,0 0,0.527508 0.408364,0 c 0.150991,0 0.270925,0.01434 0.360142,0.04337 0.08888,0.02868 0.16059,0.08289 0.213894,0.162623 0.05387,0.07962 0.08097,0.172448 0.08097,0.278379 0,0.08651 -0.01954,0.167027 -0.05782,0.24224 -0.03862,0.07487 -0.09599,0.13631 -0.172448,0.183741 -0.07612,0.04732 -0.205989,0.07126 -0.389618,0.07126 l -0.670142,0 0,-1.71104 z m 0.226656,1.5186 0.452634,0 c 0.122306,0 0.213894,-0.02507 0.274878,-0.07487 0.06132,-0.0498 0.09159,-0.124339 0.09159,-0.223945 0,-0.07092 -0.0175,-0.130211 -0.05251,-0.177643 -0.03467,-0.04743 -0.08368,-0.07883 -0.145909,-0.09441 -0.06211,-0.01559 -0.168495,-0.02349 -0.318696,-0.02349 l -0.301982,0 0,0.594364 z m 1.30595,-1.27682 0,-0.241789 0.210393,0 0,0.241789 -0.210393,0 z m 0,1.46925 0,-1.23944 0.210393,0 0,1.23944 -0.210393,0 z m 0.632649,-1.23944 0.975964,0 0,1.23944 -0.209151,0 0,-1.06575 -0.556532,0 0,0.617516 c 0,0.143876 -0.0047,0.239078 -0.01389,0.284929 -0.0096,0.04574 -0.03512,0.08605 -0.07736,0.120273 -0.04178,0.03422 -0.102768,0.05138 -0.182047,0.05138 -0.04901,0 -0.105592,-0.0032 -0.169286,-0.0096 l 0,-0.17482 0.09238,0 c 0.04348,0 0.07454,-0.0049 0.09328,-0.01355 0.01875,-0.0091 0.03106,-0.02315 0.03738,-0.04269 0.0064,-0.01942 0.0093,-0.08278 0.0093,-0.190404 l 0,-0.816729 z m 2.101,1.08641 c -0.07804,0.06618 -0.153024,0.11282 -0.224623,0.140262 -0.07216,0.0271 -0.14941,0.04066 -0.231964,0.04066 -0.136197,0 -0.240546,-0.03309 -0.31384,-0.09961 -0.07296,-0.06652 -0.109545,-0.151781 -0.109545,-0.255002 0,-0.06087 0.01344,-0.116321 0.04133,-0.166463 0.02756,-0.05026 0.06381,-0.09046 0.108415,-0.120725 0.04506,-0.03027 0.0952,-0.05342 0.15133,-0.06889 0.04111,-0.01084 0.10322,-0.02157 0.186452,-0.03151 0.169738,-0.02033 0.294867,-0.04427 0.374936,-0.0725 7.91e-4,-0.02868 0.0011,-0.04698 0.0011,-0.05455 0,-0.08572 -0.01988,-0.146248 -0.05974,-0.180918 -0.0533,-0.04777 -0.133373,-0.07126 -0.238965,-0.07126 -0.09882,0 -0.171771,0.01705 -0.219089,0.05172 -0.04709,0.03467 -0.08176,0.09599 -0.104463,0.18408 l -0.205086,-0.02835 c 0.01863,-0.08764 0.04935,-0.158896 0.09193,-0.212652 0.04269,-0.05421 0.104801,-0.09599 0.185661,-0.125129 0.08086,-0.02914 0.174481,-0.04382 0.281315,-0.04382 0.105931,0 0.191647,0.01276 0.257712,0.03749 0.06618,0.02507 0.11474,0.05613 0.146248,0.09396 0.03106,0.03783 0.05263,0.08526 0.06528,0.143086 0.0068,0.0358 0.01039,0.100284 0.01039,0.193567 l 0,0.280073 c 0,0.195599 0.0044,0.319148 0.01355,0.370532 0.0088,0.05172 0.02665,0.101526 0.05297,0.148958 l -0.219428,0 c -0.02157,-0.04348 -0.03591,-0.09441 -0.0419,-0.153024 z m -0.0175,-0.469235 c -0.07646,0.0314 -0.190856,0.05771 -0.342976,0.07962 -0.08651,0.01242 -0.147829,0.02631 -0.18329,0.0419 -0.03591,0.01547 -0.06381,0.03817 -0.08289,0.06844 -0.01954,0.02993 -0.02948,0.06302 -0.02948,0.09961 0,0.05624 0.02157,0.102882 0.0637,0.140262 0.04224,0.03704 0.104463,0.05579 0.186112,0.05579 0.08086,0 0.153024,-0.0175 0.215928,-0.05297 0.0629,-0.03546 0.109545,-0.08413 0.139019,-0.145457 0.0227,-0.04743 0.03388,-0.11745 0.03388,-0.209942 l 0,-0.07725 z m 1.23029,-1.08878 0.226317,0 0,1.50901 0.891603,0 0,-1.50901 0.227785,0 0,1.50901 0.156186,0 0,0.676918 -0.200794,0 0,-0.474882 -1.3011,0 0,-1.71104 z m 2.5883,1.31183 0.217169,0.02676 c -0.03422,0.127049 -0.09757,0.225414 -0.190066,0.295545 -0.09283,0.06979 -0.211071,0.104801 -0.354947,0.104801 -0.181257,0 -0.32502,-0.05579 -0.431064,-0.167366 -0.106383,-0.111464 -0.159348,-0.268102 -0.159348,-0.469687 0,-0.208699 0.05376,-0.370532 0.160929,-0.48561 0.107625,-0.115191 0.246645,-0.1729 0.417964,-0.1729 0.165672,0 0.301191,0.05658 0.40588,0.169286 0.105253,0.11282 0.157767,0.271716 0.157767,0.476124 0,0.01276 -3.38e-4,0.0314 -0.0011,0.05613 l -0.924241,0 c 0.0076,0.13631 0.04619,0.240659 0.11553,0.31271 0.06934,0.0725 0.155282,0.108754 0.258955,0.108754 0.07691,0 0.142634,-0.02021 0.19718,-0.06087 0.05455,-0.04032 0.09757,-0.104801 0.129421,-0.193679 z m -0.689567,-0.339814 0.692051,0 c -0.0093,-0.104011 -0.03591,-0.182386 -0.07928,-0.234222 -0.06697,-0.08086 -0.153814,-0.121516 -0.260197,-0.121516 -0.09644,0 -0.177643,0.0323 -0.24337,0.09678 -0.06584,0.0646 -0.102091,0.150991 -0.109206,0.258955 z m 1.17089,1.21391 0,-1.71432 0.191195,0 0,0.161042 c 0.04506,-0.06302 0.09599,-0.110448 0.153024,-0.141843 0.05658,-0.03151 0.125468,-0.04743 0.206328,-0.04743 0.106044,0 0.199213,0.02744 0.280073,0.08165 0.08131,0.05455 0.142295,0.131454 0.18329,0.230721 0.04145,0.09915 0.06211,0.207909 0.06211,0.326262 0,0.12671 -0.0227,0.240998 -0.06855,0.342638 -0.0454,0.101526 -0.111464,0.179224 -0.19831,0.233432 -0.08685,0.05376 -0.178095,0.08086 -0.273749,0.08086 -0.07013,0 -0.132696,-0.01479 -0.188372,-0.04427 -0.05579,-0.02948 -0.101188,-0.06686 -0.1371,-0.111916 l 0,0.603173 -0.209942,0 z m 0.190066,-1.08765 c 0,0.159461 0.03219,0.277363 0.09678,0.353818 0.06448,0.07612 0.142973,0.114288 0.234674,0.114288 0.09317,0 0.173239,-0.03941 0.239756,-0.118692 0.06652,-0.07883 0.100058,-0.201133 0.100058,-0.366918 0,-0.158106 -0.03264,-0.276007 -0.09769,-0.354947 -0.06494,-0.07849 -0.142521,-0.117902 -0.232641,-0.117902 -0.08956,0 -0.168834,0.04179 -0.237836,0.125468 -0.06889,0.08368 -0.103107,0.205537 -0.103107,0.364885 z m 1.13813,-0.626663 0.209942,0 0,0.535526 c 0.06697,0 0.113949,-0.01276 0.140714,-0.03828 0.02665,-0.02586 0.06607,-0.100397 0.11824,-0.224284 0.04145,-0.09803 0.07499,-0.16251 0.100397,-0.193679 0.02597,-0.03106 0.05545,-0.05218 0.08888,-0.0629 0.03343,-0.01118 0.0873,-0.01638 0.160929,-0.01638 l 0.04224,0 0,0.17369 -0.0585,-0.0011 c -0.055,0 -0.09046,0.0084 -0.106044,0.02473 -0.01626,0.01705 -0.04145,0.0681 -0.07487,0.152911 -0.03185,0.08086 -0.06098,0.136648 -0.08764,0.167705 -0.02631,0.03151 -0.06731,0.05985 -0.122306,0.08526 0.09001,0.02439 0.178885,0.108415 0.266069,0.252179 l 0.229931,0.384084 -0.23106,0 -0.224284,-0.384084 c -0.04585,-0.07691 -0.08606,-0.12784 -0.119934,-0.15212 -0.03422,-0.02473 -0.07533,-0.0367 -0.122758,-0.0367 l 0,0.572907 -0.209942,0 0,-1.23944 z m 1.04779,0 0.484481,0 c 0.119031,0 0.20757,0.01005 0.26573,0.02948 0.05771,0.01999 0.107512,0.05624 0.149297,0.109206 0.04145,0.05297 0.06257,0.116321 0.06257,0.190404 0,0.05895 -0.01231,0.110787 -0.03704,0.154605 -0.02428,0.04382 -0.06132,0.08086 -0.110335,0.110335 0.05861,0.01954 0.106834,0.05579 0.145457,0.109206 0.03862,0.05331 0.05771,0.116321 0.05771,0.189614 -0.0076,0.117563 -0.0498,0.204747 -0.12592,0.261326 -0.07646,0.05703 -0.187242,0.08527 -0.332587,0.08527 l -0.559355,0 0,-1.23944 z m 0.210393,0.521523 0.223832,0 c 0.08967,0 0.150991,-0.0044 0.184419,-0.01389 0.03354,-0.0091 0.06336,-0.02835 0.09012,-0.05658 0.02631,-0.02835 0.03941,-0.06256 0.03941,-0.101978 0,-0.06539 -0.02315,-0.111239 -0.06934,-0.136648 -0.04619,-0.02597 -0.125468,-0.03874 -0.237384,-0.03874 l -0.23106,0 0,0.347832 z m 0,0.545013 0.276459,0 c 0.119144,0 0.200794,-0.01355 0.244951,-0.04145 0.04461,-0.02744 0.06776,-0.07533 0.07013,-0.142634 0,-0.03986 -0.01276,-0.07646 -0.03862,-0.110335 -0.02552,-0.03388 -0.05895,-0.05534 -0.09995,-0.06415 -0.04145,-0.0091 -0.107625,-0.01355 -0.198874,-0.01355 l -0.254098,0 0,0.372113 z m 1.84091,0.01988 c -0.07804,0.06618 -0.153024,0.11282 -0.224623,0.140262 -0.07216,0.0271 -0.14941,0.04066 -0.231964,0.04066 -0.136197,0 -0.240546,-0.03309 -0.31384,-0.09961 -0.07295,-0.06652 -0.109545,-0.151781 -0.109545,-0.255002 0,-0.06087 0.01344,-0.116321 0.04133,-0.166463 0.02755,-0.05026 0.06381,-0.09046 0.108415,-0.120725 0.04506,-0.03027 0.0952,-0.05342 0.15133,-0.06889 0.04111,-0.01084 0.10322,-0.02157 0.186452,-0.03151 0.169738,-0.02033 0.294867,-0.04427 0.374936,-0.0725 7.9e-4,-0.02868 0.0011,-0.04698 0.0011,-0.05455 0,-0.08572 -0.01988,-0.146248 -0.05974,-0.180918 -0.05331,-0.04777 -0.133373,-0.07126 -0.238965,-0.07126 -0.09882,0 -0.171771,0.01705 -0.219089,0.05172 -0.04709,0.03467 -0.08176,0.09599 -0.104463,0.18408 l -0.205086,-0.02835 c 0.01863,-0.08764 0.04935,-0.158896 0.09193,-0.212652 0.04269,-0.05421 0.104801,-0.09599 0.185661,-0.125129 0.08086,-0.02914 0.174481,-0.04382 0.281315,-0.04382 0.105931,0 0.191647,0.01276 0.257712,0.03749 0.06618,0.02507 0.11474,0.05613 0.146248,0.09396 0.03106,0.03783 0.05263,0.08526 0.06527,0.143086 0.0068,0.0358 0.01039,0.100284 0.01039,0.193567 l 0,0.280073 c 0,0.195599 0.0044,0.319148 0.01355,0.370532 0.0088,0.05172 0.02665,0.101526 0.05297,0.148958 l -0.219428,0 c -0.02157,-0.04348 -0.03591,-0.09441 -0.0419,-0.153024 z m -0.0175,-0.469235 c -0.07646,0.03139 -0.190856,0.05771 -0.342976,0.07962 -0.08651,0.01242 -0.147829,0.02631 -0.18329,0.0419 -0.03591,0.01547 -0.06381,0.03817 -0.08289,0.06844 -0.01954,0.02993 -0.02948,0.06302 -0.02948,0.09961 0,0.05624 0.02157,0.102882 0.06369,0.140262 0.04224,0.03704 0.104463,0.05579 0.186113,0.05579 0.08086,0 0.153024,-0.0175 0.215927,-0.05297 0.0629,-0.03546 0.109545,-0.08414 0.13902,-0.145457 0.0227,-0.04743 0.03388,-0.11745 0.03388,-0.209942 l 0,-0.07725 z"
   id="path43"
   style="fill:#2b2a29;fill-rule:nonzero" />
  <path
   d="m 43.2691,59.465 1.34582,0 0,1.71104 -0.227898,0 0,-1.50912 -0.891603,0 0,1.50912 -0.226317,0 0,-1.71104 z m 2.53737,1.31183 0.217169,0.02677 c -0.03422,0.127049 -0.09757,0.225414 -0.190066,0.295545 -0.09283,0.06979 -0.211071,0.104801 -0.354947,0.104801 -0.181257,0 -0.32502,-0.05579 -0.431064,-0.167366 -0.106383,-0.111464 -0.159348,-0.268102 -0.159348,-0.469687 0,-0.208699 0.05376,-0.370532 0.160929,-0.48561 0.107625,-0.115191 0.246645,-0.1729 0.417964,-0.1729 0.165672,0 0.301191,0.05658 0.40588,0.169286 0.105253,0.11282 0.157767,0.271716 0.157767,0.476124 0,0.01276 -3.39e-4,0.0314 -0.0011,0.05613 l -0.924241,0 c 0.0076,0.136311 0.04619,0.240659 0.11553,0.312711 0.06934,0.0725 0.155282,0.108753 0.258955,0.108753 0.07691,0 0.142634,-0.02021 0.19718,-0.06087 0.05455,-0.04032 0.09757,-0.104801 0.129421,-0.193679 z m -0.689567,-0.339814 0.692051,0 c -0.0093,-0.104011 -0.03591,-0.182386 -0.07928,-0.234222 -0.06697,-0.08086 -0.153814,-0.121516 -0.260197,-0.121516 -0.09644,0 -0.177643,0.0323 -0.24337,0.09678 -0.06584,0.0646 -0.102091,0.150991 -0.109206,0.258955 z m 1.17089,1.21391 0,-1.71432 0.191195,0 0,0.161042 c 0.04506,-0.06302 0.09599,-0.110448 0.153024,-0.141843 0.05658,-0.03151 0.125468,-0.04743 0.206328,-0.04743 0.106044,0 0.199213,0.02744 0.280073,0.08165 0.08131,0.05455 0.142295,0.131454 0.18329,0.230721 0.04145,0.09915 0.06211,0.207909 0.06211,0.326262 0,0.12671 -0.0227,0.240998 -0.06855,0.342638 -0.0454,0.101526 -0.111464,0.179224 -0.19831,0.233432 -0.08684,0.05376 -0.178095,0.08086 -0.273749,0.08086 -0.07013,0 -0.132696,-0.01479 -0.188372,-0.04427 -0.05579,-0.02948 -0.101188,-0.06686 -0.1371,-0.111916 l 0,0.603173 -0.209942,0 z m 0.190066,-1.08765 c 0,0.159461 0.03219,0.277363 0.09678,0.353818 0.06449,0.07612 0.142973,0.114288 0.234674,0.114288 0.09317,0 0.173239,-0.03941 0.239756,-0.118692 0.06652,-0.07883 0.100058,-0.201133 0.100058,-0.366918 0,-0.158106 -0.03264,-0.276007 -0.09769,-0.354947 -0.06494,-0.07849 -0.142521,-0.117902 -0.232641,-0.117902 -0.08956,0 -0.168834,0.04178 -0.237836,0.125468 -0.06889,0.08368 -0.103107,0.205537 -0.103107,0.364885 z m 1.9875,0.213556 0.217169,0.02677 c -0.03422,0.127049 -0.09757,0.225414 -0.190066,0.295545 -0.09283,0.06979 -0.211071,0.104801 -0.354947,0.104801 -0.181257,0 -0.32502,-0.05579 -0.431064,-0.167366 -0.106383,-0.111464 -0.159348,-0.268102 -0.159348,-0.469687 0,-0.208699 0.05376,-0.370532 0.160929,-0.48561 0.107625,-0.115191 0.246645,-0.1729 0.417964,-0.1729 0.165672,0 0.301191,0.05658 0.40588,0.169286 0.105253,0.11282 0.157767,0.271716 0.157767,0.476124 0,0.01276 -3.39e-4,0.0314 -0.0011,0.05613 l -0.924241,0 c 0.0076,0.13631 0.04619,0.240659 0.11553,0.31271 0.06934,0.0725 0.155282,0.108754 0.258955,0.108754 0.07691,0 0.142634,-0.02021 0.19718,-0.06087 0.05455,-0.04032 0.09757,-0.104801 0.129421,-0.193679 z m -0.689567,-0.339814 0.692051,0 c -0.0093,-0.104011 -0.03591,-0.182386 -0.07928,-0.234222 -0.06697,-0.08086 -0.153814,-0.121516 -0.260197,-0.121516 -0.09644,0 -0.177643,0.0323 -0.24337,0.09678 -0.06584,0.0646 -0.102091,0.150991 -0.109206,0.258955 z m 2.14651,-0.500404 0,1.23944 -0.209151,0 0,-0.483239 -0.121064,0 c -0.07408,0 -0.129082,0.0096 -0.165333,0.02868 -0.03625,0.01909 -0.08888,0.08052 -0.158219,0.183628 l -0.183177,0.270925 -0.260197,0 0.226317,-0.333829 c 0.06934,-0.101978 0.13823,-0.159348 0.20678,-0.172561 -0.119934,-0.01671 -0.208812,-0.05974 -0.266973,-0.129873 -0.05771,-0.06968 -0.08684,-0.150539 -0.08684,-0.241337 0,-0.107625 0.03783,-0.19447 0.113949,-0.261439 0.07567,-0.06686 0.185661,-0.100397 0.329424,-0.100397 l 0.574488,0 z m -0.209151,0.17369 -0.29882,0 c -0.125016,0 -0.205876,0.01954 -0.242128,0.05861 -0.03591,0.03862 -0.05421,0.08447 -0.05421,0.13631 0,0.07408 0.02665,0.128179 0.08007,0.162849 0.05342,0.03467 0.147377,0.05217 0.282896,0.05217 l 0.232189,0 0,-0.409945 z m 1.33656,0.61153 0.206328,0.0271 c -0.02225,0.142295 -0.08007,0.25376 -0.173239,0.334281 -0.09283,0.08052 -0.207118,0.120725 -0.342638,0.120725 -0.169286,0 -0.305934,-0.05534 -0.408703,-0.166124 -0.10322,-0.110787 -0.155056,-0.269683 -0.155056,-0.476914 0,-0.133825 0.02236,-0.250936 0.06663,-0.351333 0.04461,-0.100397 0.111916,-0.175723 0.202714,-0.225865 0.09046,-0.05025 0.189275,-0.07533 0.295658,-0.07533 0.134616,0 0.244951,0.03422 0.330215,0.10243 0.08572,0.0681 0.140601,0.164543 0.164995,0.290011 l -0.204408,0.03139 c -0.01954,-0.08323 -0.05376,-0.145796 -0.10322,-0.188033 -0.04935,-0.04178 -0.109093,-0.0629 -0.179224,-0.0629 -0.106044,0 -0.192098,0.03783 -0.258164,0.113948 -0.06618,0.07567 -0.09927,0.1956 -0.09927,0.359691 0,0.166575 0.03196,0.287638 0.09611,0.363416 0.06369,0.07521 0.146925,0.113046 0.249694,0.113046 0.08255,0 0.150991,-0.02541 0.206441,-0.076 0.05534,-0.05059 0.09046,-0.128291 0.10514,-0.233545 z m 0.488885,-0.785221 0.975964,0 0,1.23944 -0.209151,0 0,-1.06575 -0.556532,0 0,0.617516 c 0,0.143876 -0.0047,0.239078 -0.01389,0.284929 -0.0096,0.04574 -0.03512,0.08605 -0.07736,0.120273 -0.04179,0.03422 -0.102769,0.05138 -0.182047,0.05138 -0.04901,0 -0.105592,-0.0032 -0.169286,-0.0096 l 0,-0.17482 0.09238,0 c 0.04348,0 0.07454,-0.0049 0.09328,-0.01355 0.01875,-0.0091 0.03106,-0.02315 0.03738,-0.04269 0.0064,-0.01942 0.0093,-0.08278 0.0093,-0.190404 l 0,-0.816729 z m 2.101,1.08641 c -0.07804,0.06618 -0.153024,0.11282 -0.224623,0.140262 -0.07216,0.0271 -0.14941,0.04066 -0.231964,0.04066 -0.136197,0 -0.240546,-0.03309 -0.31384,-0.09961 -0.07295,-0.06652 -0.109545,-0.151781 -0.109545,-0.255002 0,-0.06087 0.01344,-0.116321 0.04133,-0.166463 0.02756,-0.05025 0.06381,-0.09046 0.108415,-0.120725 0.04506,-0.03027 0.0952,-0.05342 0.15133,-0.06889 0.04111,-0.01084 0.10322,-0.02157 0.186452,-0.03151 0.169738,-0.02033 0.294867,-0.04427 0.374936,-0.0725 7.91e-4,-0.02868 0.0011,-0.04698 0.0011,-0.05455 0,-0.08572 -0.01988,-0.146248 -0.05974,-0.180918 -0.0533,-0.04777 -0.133373,-0.07126 -0.238965,-0.07126 -0.09882,0 -0.171771,0.01705 -0.219089,0.05172 -0.04709,0.03467 -0.08176,0.09599 -0.104463,0.18408 l -0.205086,-0.02835 c 0.01863,-0.08764 0.04935,-0.158896 0.09193,-0.212652 0.04269,-0.05421 0.104801,-0.09599 0.185661,-0.125129 0.08086,-0.02914 0.174481,-0.04382 0.281315,-0.04382 0.105931,0 0.191647,0.01276 0.257712,0.03749 0.06618,0.02507 0.11474,0.05613 0.146248,0.09396 0.03106,0.03783 0.05263,0.08526 0.06528,0.143086 0.0068,0.0358 0.01039,0.100284 0.01039,0.193567 l 0,0.280073 c 0,0.195599 0.0044,0.319148 0.01355,0.370532 0.0088,0.05172 0.02665,0.101526 0.05297,0.148958 l -0.219428,0 c -0.02157,-0.04348 -0.03591,-0.09441 -0.0419,-0.153024 z m -0.0175,-0.469235 c -0.07645,0.0314 -0.190856,0.05771 -0.342976,0.07962 -0.08651,0.01242 -0.147829,0.02631 -0.18329,0.0419 -0.03591,0.01547 -0.06381,0.03817 -0.08289,0.06844 -0.01954,0.02993 -0.02947,0.06302 -0.02947,0.09961 0,0.05624 0.02157,0.102882 0.06369,0.140262 0.04224,0.03704 0.104463,0.05579 0.186113,0.05579 0.08086,0 0.153024,-0.0175 0.215927,-0.05297 0.0629,-0.03546 0.109545,-0.08413 0.13902,-0.145457 0.0227,-0.04743 0.03388,-0.11745 0.03388,-0.209942 l 0,-0.07725 z m 0.539027,-0.617177 0.484481,0 c 0.119031,0 0.20757,0.01005 0.26573,0.02947 0.05771,0.01999 0.107512,0.05624 0.149297,0.109206 0.04145,0.05297 0.06256,0.116321 0.06256,0.190404 0,0.05895 -0.01231,0.110787 -0.03704,0.154605 -0.02428,0.04382 -0.06132,0.08086 -0.110335,0.110335 0.05861,0.01954 0.106834,0.05579 0.145457,0.109206 0.03862,0.05331 0.05771,0.116321 0.05771,0.189614 -0.0076,0.117563 -0.0498,0.204747 -0.12592,0.261326 -0.07646,0.05703 -0.187242,0.08526 -0.332587,0.08526 l -0.559355,0 0,-1.23944 z m 0.210393,0.521523 0.223832,0 c 0.08967,0 0.150991,-0.0044 0.184419,-0.01389 0.03354,-0.0091 0.06336,-0.02835 0.09012,-0.05658 0.02631,-0.02835 0.03941,-0.06256 0.03941,-0.101978 0,-0.06539 -0.02315,-0.111239 -0.06934,-0.136648 -0.04619,-0.02597 -0.125468,-0.03874 -0.237384,-0.03874 l -0.23106,0 0,0.347832 z m 0,0.545013 0.276459,0 c 0.119144,0 0.200794,-0.01355 0.244951,-0.04145 0.04461,-0.02744 0.06776,-0.07533 0.07013,-0.142634 0,-0.03986 -0.01276,-0.07646 -0.03862,-0.110335 -0.02552,-0.03388 -0.05895,-0.05534 -0.09995,-0.06415 -0.04145,-0.0091 -0.107625,-0.01355 -0.198874,-0.01355 l -0.254098,0 0,0.372113 z m 0.976754,-0.340605 0,-0.211184 0.645862,0 0,0.211184 -0.645862,0 z m -12.2556,3.18391 0.662124,-0.891603 -0.583636,-0.819439 0.269231,0 0.310791,0.438969 c 0.06448,0.0908 0.110335,0.160929 0.137439,0.209942 0.03829,-0.06211 0.08323,-0.127049 0.135406,-0.194809 l 0.34467,-0.454102 0.246193,0 -0.60114,0.806339 0.647782,0.904703 -0.280073,0 -0.430725,-0.610288 c -0.02428,-0.03512 -0.04901,-0.07329 -0.07487,-0.114401 -0.03828,0.06211 -0.06527,0.104801 -0.08165,0.128291 l -0.429483,0.596397 -0.272055,0 z m 1.74729,-1.23944 0.326714,0 0.325924,0.992 0.361723,-0.992 0.302321,0 0,1.23944 -0.209942,0 0,-0.997986 -0.366466,0.997986 -0.188033,0 -0.34659,-1.04576 0,1.04576 -0.20565,0 0,-1.23944 z m 2.48599,0.840219 0.217169,0.02676 c -0.03422,0.127049 -0.09757,0.225414 -0.190066,0.295545 -0.09283,0.06979 -0.211071,0.104801 -0.354947,0.104801 -0.181257,0 -0.32502,-0.05579 -0.431064,-0.167366 -0.106383,-0.111464 -0.159348,-0.268102 -0.159348,-0.469687 0,-0.208699 0.05376,-0.370532 0.160929,-0.48561 0.107625,-0.115191 0.246645,-0.1729 0.417964,-0.1729 0.165672,0 0.301191,0.05658 0.40588,0.169286 0.105253,0.11282 0.157767,0.271716 0.157767,0.476124 0,0.01276 -3.38e-4,0.03139 -0.0011,0.05613 l -0.924241,0 c 0.0076,0.13631 0.04619,0.240659 0.11553,0.31271 0.06934,0.0725 0.155282,0.108754 0.258955,0.108754 0.07691,0 0.142634,-0.02021 0.19718,-0.06087 0.05455,-0.04032 0.09757,-0.104801 0.129421,-0.193679 z m -0.689567,-0.339814 0.692051,0 c -0.0093,-0.104011 -0.03591,-0.182386 -0.07928,-0.234222 -0.06697,-0.08086 -0.153814,-0.121516 -0.260197,-0.121516 -0.09645,0 -0.177643,0.0323 -0.24337,0.09678 -0.06584,0.0646 -0.102091,0.150991 -0.109206,0.258955 z m 1.19404,-0.500404 0.975964,0 0,1.23944 -0.209151,0 0,-1.06575 -0.556532,0 0,0.617516 c 0,0.143876 -0.0047,0.239078 -0.01389,0.284929 -0.0096,0.04574 -0.03512,0.08605 -0.07736,0.120273 -0.04178,0.03422 -0.102769,0.05138 -0.182047,0.05138 -0.04901,0 -0.105592,-0.0032 -0.169286,-0.0096 l 0,-0.17482 0.09238,0 c 0.04348,0 0.07453,-0.0049 0.09328,-0.01355 0.01875,-0.0091 0.03106,-0.02315 0.03738,-0.04269 0.0064,-0.01942 0.0093,-0.08278 0.0093,-0.190404 l 0,-0.816729 z m 1.28867,0 0.209942,0 0,0.484142 0.266182,0 c 0.17369,0 0.307177,0.03377 0.400798,0.101188 0.09396,0.06731 0.140601,0.160138 0.140601,0.278379 0,0.10322 -0.03907,0.192098 -0.117111,0.265392 -0.07815,0.07363 -0.203166,0.110335 -0.375275,0.110335 l -0.525137,0 0,-1.23944 z m 0.209942,1.06654 0.220783,0 c 0.133035,0 0.227785,-0.01637 0.284816,-0.04901 0.05658,-0.03264 0.08481,-0.08368 0.08481,-0.152572 0,-0.05376 -0.02067,-0.101639 -0.0629,-0.143763 -0.04178,-0.0419 -0.135067,-0.06302 -0.278831,-0.06302 l -0.248678,0 0,0.408364 z m 1.03977,-1.06654 0.210393,0 0,0.515989 0.582394,0 0,-0.515989 0.209942,0 0,1.23944 -0.209942,0 0,-0.549756 -0.582394,0 0,0.549756 -0.210393,0 0,-1.23944 z m 1.31905,0 0.209942,0 0,0.945472 0.582394,-0.945472 0.226317,0 0,1.23944 -0.209942,0 0,-0.939374 -0.582394,0.939374 -0.226317,0 0,-1.23944 z m 1.33859,0 0.210393,0 0,1.06654 0.581264,0 0,-1.06654 0.209942,0 0,1.06654 0.135406,0 0,0.524233 -0.1729,0 0,-0.351333 -0.964106,0 0,-1.23944 z m 1.36253,0 0.209942,0 0,0.484142 0.266182,0 c 0.17369,0 0.307177,0.03377 0.400798,0.101188 0.09396,0.06731 0.140601,0.160138 0.140601,0.278379 0,0.10322 -0.03907,0.192098 -0.117111,0.265392 -0.07815,0.07363 -0.203166,0.110335 -0.375275,0.110335 l -0.525137,0 0,-1.23944 z m 0.209942,1.06654 0.220783,0 c 0.133035,0 0.227785,-0.01637 0.284816,-0.04901 0.05658,-0.03264 0.08481,-0.08368 0.08481,-0.152572 0,-0.05376 -0.02067,-0.101639 -0.0629,-0.143763 -0.04179,-0.0419 -0.135067,-0.06302 -0.278831,-0.06302 l -0.248678,0 0,0.408364 z m 1.03774,-1.06654 0.209942,0 0,0.535526 c 0.06697,0 0.113949,-0.01276 0.140714,-0.03828 0.02665,-0.02586 0.06607,-0.100397 0.11824,-0.224284 0.04145,-0.09803 0.07499,-0.16251 0.100397,-0.193679 0.02598,-0.03106 0.05545,-0.05217 0.08888,-0.0629 0.03343,-0.01118 0.0873,-0.01637 0.160929,-0.01637 l 0.04224,0 0,0.17369 -0.0585,-0.0011 c -0.055,0 -0.09046,0.0084 -0.106044,0.02473 -0.01626,0.01705 -0.04145,0.0681 -0.07487,0.152911 -0.03185,0.08086 -0.06098,0.136648 -0.08764,0.167705 -0.02631,0.03151 -0.06731,0.05985 -0.122306,0.08526 0.09001,0.02439 0.178885,0.108415 0.266069,0.252179 l 0.229931,0.384084 -0.23106,0 -0.224284,-0.384084 c -0.04585,-0.07691 -0.08606,-0.12784 -0.119934,-0.15212 -0.03422,-0.02473 -0.07533,-0.0367 -0.122758,-0.0367 l 0,0.572907 -0.209942,0 0,-1.23944 z m 1.047,0 0.209942,0 0,0.945472 0.582394,-0.945472 0.226317,0 0,1.23944 -0.209942,0 0,-0.939374 -0.582394,0.939374 -0.226317,0 0,-1.23944 z m 1.33543,0 0.209942,0 0,0.945472 0.582394,-0.945472 0.226317,0 0,1.23944 -0.209942,0 0,-0.939374 -0.582394,0.939374 -0.226317,0 0,-1.23944 z m 0.729432,-0.469235 0.143424,0 c -0.01152,0.09724 -0.04698,0.172109 -0.106721,0.223832 -0.0594,0.05229 -0.138681,0.07849 -0.237497,0.07849 -0.09961,0 -0.179224,-0.02586 -0.238627,-0.0777 -0.05974,-0.05172 -0.0952,-0.126597 -0.106721,-0.224623 l 0.143424,0 c 0.01073,0.05297 0.03264,0.09238 0.06494,0.118353 0.03219,0.0262 0.07567,0.03896 0.129873,0.03896 0.06336,0 0.110674,-0.01231 0.142973,-0.03783 0.0323,-0.02507 0.05421,-0.06494 0.06494,-0.119483 z"
   id="path45"
   style="fill:#2b2a29;fill-rule:nonzero" />
  <g
   id="_310452736">
   <path
   d="m 34.6486,45.5439 c 0.664721,0 1.24361,-0.577876 1.24361,-1.27252 0,-0.664947 -0.578893,-1.24384 -1.24361,-1.24384 -0.694874,0 -1.27298,0.578893 -1.27298,1.24384 0,0.694649 0.578102,1.27252 1.27298,1.27252 z"
   id="_310452880"
   style="fill:#fefefe;stroke:#2b2a29;stroke-width:0.174707" />
   <path
   d="m 34.6486,44.966 c 0.37584,0 0.664721,-0.318696 0.664721,-0.694649 0,-0.376291 -0.288882,-0.664947 -0.664721,-0.664947 -0.376969,0 -0.694874,0.288656 -0.694874,0.664947 0,0.375953 0.317905,0.694649 0.694874,0.694649"
   id="_310452856"
   style="fill:none;stroke:#2b2a29;stroke-width:0.20971601" />
  </g>
  <path
   d="m 31.6028,46.5073 0.460539,0 0,1.2138 c 0.102995,-0.01265 0.172561,-0.04585 0.208699,-0.09893 0.03614,-0.05319 0.09249,-0.201246 0.167931,-0.443599 0.09554,-0.308758 0.19176,-0.50063 0.287865,-0.575618 0.09565,-0.07578 0.249694,-0.112933 0.46212,-0.112933 0.01073,0 0.03298,-6.78e-4 0.06697,-0.002 l 0,0.425643 -0.06527,-0.0019 c -0.09407,0 -0.163075,0.01457 -0.206667,0.04382 -0.04359,0.02914 -0.07917,0.07363 -0.105705,0.133373 -0.0271,0.05986 -0.06697,0.181934 -0.120047,0.367934 -0.02823,0.09825 -0.0585,0.180579 -0.09091,0.246984 -0.03286,0.06573 -0.0908,0.128179 -0.173577,0.186565 0.10243,0.03659 0.187468,0.109545 0.254324,0.219767 0.06697,0.110222 0.140262,0.266295 0.219993,0.466863 l 0.311242,0.782171 -0.541286,0 -0.272506,-0.736998 c -0.0043,-0.01073 -0.01276,-0.0306 -0.02654,-0.06042 -0.0049,-0.01073 -0.02439,-0.05511 -0.05737,-0.134164 -0.05906,-0.140149 -0.107851,-0.227785 -0.14557,-0.26302 -0.03772,-0.03512 -0.09554,-0.05308 -0.17369,-0.05443 l 0,1.24903 -0.460539,0 0,-2.85189 z m 1.92347,0.786124 0.420109,0 0,1.29748 0.672514,-1.29748 0.429257,0 0,2.06576 -0.420222,0 0,-1.32075 -0.681548,1.32075 -0.420109,0 0,-2.06576 z m 1.97022,2.06576 0,-2.06576 0.437162,0 0,2.06576 -0.437162,0 z m -0.303337,-2.43155 0,-0.468783 0.375049,0 0,0.468783 -0.375049,0 z m 0.668787,0 0,-0.468783 0.37663,0 0,0.468783 -0.37663,0 z m 0.535414,0.365789 0.957217,0 c 0.196051,0 0.343202,0.0445 0.440437,0.134164 0.09769,0.08967 0.146587,0.224397 0.146587,0.404412 0,0.11553 -0.02699,0.215814 -0.08018,0.301417 -0.05364,0.08572 -0.120612,0.142747 -0.201924,0.171319 0.114175,0.03524 0.199213,0.100284 0.255567,0.196503 0.05579,0.09633 0.08391,0.201246 0.08391,0.315421 0,0.160703 -0.04732,0.291479 -0.141279,0.391763 -0.09453,0.100284 -0.234335,0.150765 -0.419206,0.150765 l -1.04113,0 0,-2.06576 z m 0.440889,0.857949 0.281654,0 c 0.135971,0 0.234109,-0.02191 0.294754,-0.06437 0.06053,-0.04258 0.0908,-0.110222 0.0908,-0.202601 0,-0.08696 -0.02812,-0.148732 -0.08447,-0.18521 -0.0568,-0.03715 -0.157202,-0.05579 -0.301078,-0.05579 l -0.281654,0 0,0.507971 z m 0,0.857836 0.345348,0 c 0.124339,0 0.215137,-0.0192 0.272506,-0.05635 0.0568,-0.03783 0.08549,-0.105592 0.08549,-0.202601 0,-0.100849 -0.03298,-0.170641 -0.09825,-0.209151 -0.06539,-0.03851 -0.192324,-0.05703 -0.381373,-0.05703 l -0.22372,0 0,0.525137 z"
   id="path50"
   style="fill:#2b2a29;fill-rule:nonzero" />
 </g>
</svg>