<?xml version="1.0" encoding="UTF-8" standalone="no"?>
<!-- Created with Inkscape (http://www.inkscape.org/) -->

<svg
   xmlns:svg="http://www.w3.org/2000/svg"
   xmlns="http://www.w3.org/2000/svg"
   version="1.1"
   width="58.813301mm"
   height="81.067001mm"
   viewBox="0 0 58.4216 80.5271"
   id="svg2"
   xml:space="preserve"
   style="fill-rule:evenodd">
 <defs
   id="defs4">
  <style
   type="text/css"
   id="style6" />
 </defs>
 <g
   id="Layer_x0020_1">
  
  <path
   d="m 3.1467,6.801 0.99036,1.52289 0.684809,0.736065 -1.59888,0.203337 -0.27893,0.939501 1.54822,0.811062 -1.42157,1.39624 -1.39485,0.127148 0.405482,1.06595 0.989367,0.126651 0.329193,1.42157 0.484253,0.786229 -0.076984,0.73537 -0.863113,0.330782 -0.659777,2.81701 -1.34389,-0.07589 -0.203237,0.811758 1.06496,0.127048 -1.72613,0.989764 -0.0759905,3.1467 0.608818,0.127148 0,1.06546 0.813049,0.685306 -0.076984,2.05532 0.660174,0.482664 1.2686,0.127545 -0.05066,0.734675 -1.14165,0.127545 0.202939,0.812254 -0.735469,0.736065 -0.076984,0.583488 0.025728,0.253401 0.178305,-0.380549 1.015,0.405879 0.455844,0.863014 -0.406574,1.06575 2.66483,1.26979 0.813446,-1.14274 1.06536,0.07599 -0.812155,2.86748 1.34558,1.8791 -1.2686,0.380549 -0.203933,1.06595 -0.457533,0 0,0.685306 0.990758,0.202443 -0.990758,0.786527 0.331279,0.812453 1.06536,-0.406078 1.34419,-0.609315 1.06566,-0.253699 1.3972301,-0.812254 0.202641,1.54852 0.45644,1.80192 0.939799,0.05026 0.202542,1.06635 1.39525,0.151981 -0.126651,0.736562 -0.862021,0.127048 0.126949,0.938111 -0.658783,0.78752 0.787123,0.735569 0.936621,-0.202939 0.279625,1.59848 -0.532828,0.812254 -0.736463,0.126949 -0.887649,0.862517 0.278831,0.532828 0.812751,0.152974 0.379853,3.12117 1.75086,1.21833 0.127942,2.25806 0.329888,0.939203 1.59819,-0.609116 0.659081,0.280619 -0.04967,1.67358 1.59819,0.254096 0.329888,0.862716 -0.862418,0.609911 -0.07629,1.80073 1.47153,0.53402 1.8795,0.457135 c 0,0 1.2675,2.20661 1.67477,2.2826 0.379456,0.05165 1.11592,0.533324 1.11592,0.533324 l 2.08065,0.532828 2.25935,0.786726 -0.32959,1.62451 0.938409,0.584481 -0.125956,1.36922 2.5361,-0.253302 2.51395,-0.07629 -0.05235,2.08095 1.67547,0 -0.609116,2.13201 0.660472,1.1927 -0.176517,0 0.378761,0.203237 1.67686,0.940097 0.531834,-0.661863 3.1477,-0.735767 1.11592,-0.862418 1.14165,0.254295 0.330882,1.72583 1.0144,0.07559 0.659777,-1.06566 2.00536,0 1.52349,-0.456241 2.40955,0.456241 0.25499,-0.659777 1.42058,-0.330286 -0.355616,-3.02005 0.813844,-2.18157 -0.458228,-1.60047 0.989665,-1.64944 0.609116,-1.47084 0.329888,-2.13221 0.328597,-2.41034 1.54951,-1.34578 -0.151882,-1.92857 -3.52765,0.532927 -0.203535,-0.658883 2.74112,-1.8788 -1.26929,-0.736065 -2.74112,-2.66483 0,-2.4617 -1.2686,-1.9544 -3.60285,-0.05116 0.405482,-2.2069 0,-2.53828 0.329888,-2.05552 1.72543,-1.9542 3.47729,0.40568 0.862418,0.279228 1.14125,-2.61398 0,-1.72563 -0.81136,-0.07559 -0.989665,1.34508 -2.46229,-0.736264 -1.75106,0.203237 -1.11701,-1.67537 -2.28359,-1.87751 0.07629,-1.26909 1.59948,-0.584581 0.812751,-0.887649 2.7894,-0.863213 0.329193,-1.47203 2.94655,-3.80668 1.06526,-1.52239 1.72623,-0.609116 0,-0.862517 -1.85417,-0.609514 0.05165,-1.52279 -4.00972,-3.19756 0.0742,-3.27425 3.14909,-1.54772 -0.202542,-1.1929 -4.46735,0.07579 -1.34449,2.1325 -2.94416,0.329491 -1.52279,-1.14145 -3.27504,-1.06595 -0.609116,-1.80261 0.07698,-1.6746703 -4.46725,-0.583488 -2.00396,1.06566 -2.94486,-1.59878 -0.938309,-2.94406 -1.2676,0.126651 -0.585475,2.1323 -2.00506,0.202741 -1.80112,1.39624 -0.862319,-0.583687 -0.60852,-2.20879 -4.341,-1.47084 -0.330882,-2.46259 -1.34419,-0.27893 -0.252308,1.21784 -1.47283,0.05076 -2.28359,0.86361 -1.26959,-1.24376 -1.97943,0.583587 -1.34558,-3.32441 -3.4013,0.456837 0.331279,4.46695 -1.54892,0.532629 -1.52279,1.34459 z"
   id="path10"
   style="fill:#ffdf49" />
  <g
   id="_382295232">
   <path
   d="m 26.5843,58.1538 c 0.468559,0 0.859041,-0.36992 0.859041,-0.838578 0,-0.467764 -0.390482,-0.83828 -0.859041,-0.83828 -0.447202,0 -0.817519,0.370516 -0.817519,0.83828 0,0.468658 0.370317,0.838578 0.817519,0.838578 z"
   id="_382295328"
   style="fill:#fefefe;stroke:#2b2a29;stroke-width:0.117711" />
   <path
   d="m 26.5963,57.5158 c 0.108175,0 0.201251,-0.09188 0.201251,-0.200555 0,-0.108075 -0.09308,-0.19986 -0.201251,-0.19986 -0.09993,0 -0.183371,0.09178 -0.183371,0.19986 0,0.108671 0.08344,0.200555 0.183371,0.200555 z"
   id="_382295280"
   style="fill:#2b2a29;stroke:#2b2a29;stroke-width:0.0756925" />
  </g>
  <g
   id="_382295064">
   <path
   d="m 35.3974,71.3716 c 0.468161,0 0.857551,-0.369622 0.857551,-0.838081 0,-0.467863 -0.389389,-0.838479 -0.857551,-0.838479 -0.448295,0 -0.81891,0.370615 -0.81891,0.838479 0,0.468459 0.370615,0.838081 0.81891,0.838081 z"
   id="_382295160"
   style="fill:#fefefe;stroke:#2b2a29;stroke-width:0.117711" />
   <path
   d="m 35.4083,70.7347 c 0.108473,0 0.200853,-0.09268 0.200853,-0.201151 0,-0.108175 -0.09238,-0.19986 -0.200853,-0.19986 -0.100923,0 -0.183073,0.09168 -0.183073,0.19986 0,0.108473 0.08215,0.201151 0.183073,0.201151 z"
   id="_382295112"
   style="fill:#2b2a29;stroke:#2b2a29;stroke-width:0.0756925" />
  </g>
  <g
   id="_382294896">
   <path
   d="m 52.3041,62.3547 c 0.467466,0 0.857948,-0.370615 0.857948,-0.838578 0,-0.467963 -0.390482,-0.838181 -0.857948,-0.838181 -0.446904,0 -0.818512,0.370218 -0.818512,0.838181 0,0.467963 0.371609,0.838578 0.818512,0.838578 z"
   id="_382294992"
   style="fill:#fefefe;stroke:#2b2a29;stroke-width:0.117711" />
   <path
   d="m 52.3159,61.7166 c 0.109069,0 0.199761,-0.09218 0.199761,-0.200555 0,-0.108274 -0.09069,-0.200357 -0.199761,-0.200357 -0.101321,0 -0.18347,0.09208 -0.18347,0.200357 0,0.108373 0.08215,0.200555 0.18347,0.200555 z"
   id="_382294944"
   style="fill:#2b2a29;stroke:#2b2a29;stroke-width:0.0756925" />
  </g>
  <g
   id="_382294728">
   <path
   d="m 17.9773,41.5538 c 0.469155,0 0.858643,-0.370615 0.858643,-0.839075 0,-0.467168 -0.389489,-0.837883 -0.858643,-0.837883 -0.447699,0 -0.818612,0.370715 -0.818612,0.837883 0,0.468459 0.370913,0.839075 0.818612,0.839075 z"
   id="_382294824"
   style="fill:#fefefe;stroke:#2b2a29;stroke-width:0.117711" />
   <path
   d="m 17.9893,40.9156 c 0.107777,0 0.200158,-0.09238 0.200158,-0.200853 0,-0.107579 -0.09238,-0.199661 -0.200158,-0.199661 -0.100327,0 -0.183768,0.09208 -0.183768,0.199661 0,0.108473 0.08344,0.200853 0.183768,0.200853 z"
   id="_382294776"
   style="fill:#2b2a29;stroke:#2b2a29;stroke-width:0.0756925" />
  </g>
  <g
   id="_382294560">
   <path
   d="m 15.8247,44.3212 c 0.469155,0 0.858941,-0.370615 0.858941,-0.839571 0,-0.467168 -0.389787,-0.837585 -0.858941,-0.837585 -0.446904,0 -0.817519,0.370417 -0.817519,0.837585 0,0.468956 0.370615,0.839571 0.817519,0.839571 z"
   id="_382294656"
   style="fill:#fefefe;stroke:#2b2a29;stroke-width:0.117711" />
   <path
   d="m 15.8367,43.6825 c 0.108473,0 0.200853,-0.09198 0.200853,-0.200953 0,-0.107678 -0.09238,-0.200059 -0.200853,-0.200059 -0.09963,0 -0.182079,0.09238 -0.182079,0.200059 0,0.108969 0.08245,0.200953 0.182079,0.200953 z"
   id="_382294608"
   style="fill:#2b2a29;stroke:#2b2a29;stroke-width:0.0756925" />
  </g>
  <g
   id="_382294392">
   <path
   d="m 27.1992,28.6426 c 0.468857,0 0.858643,-0.370119 0.858643,-0.838578 0,-0.467963 -0.389787,-0.83828 -0.858643,-0.83828 -0.447897,0 -0.818214,0.370317 -0.818214,0.83828 0,0.468459 0.370317,0.838578 0.818214,0.838578 z"
   id="_382294488"
   style="fill:#fefefe;stroke:#2b2a29;stroke-width:0.117711" />
   <path
   d="m 27.2109,28.0046 c 0.10887,0 0.200953,-0.09228 0.200953,-0.200555 0,-0.107976 -0.09208,-0.200059 -0.200953,-0.200059 -0.100228,0 -0.183768,0.09208 -0.183768,0.200059 0,0.108274 0.08354,0.200555 0.183768,0.200555 z"
   id="_382294440"
   style="fill:#2b2a29;stroke:#2b2a29;stroke-width:0.0756925" />
  </g>
  <path
   d="m 22.0913,60.182 0.578223,-1.50501 0.214462,0 0.61597,1.50501 -0.226978,0 -0.175623,-0.455844 -0.62938,0 -0.164994,0.455844 -0.211681,0 z m 0.434189,-0.618156 0.510577,0 -0.157345,-0.416607 c -0.04768,-0.126552 -0.08344,-0.230554 -0.106486,-0.312207 -0.01937,0.09665 -0.04629,0.192311 -0.08135,0.287671 l -0.165391,0.441142 z m 1.20025,-0.472035 0.858445,0 0,1.09019 -0.183967,0 0,-0.937415 -0.489518,0 0,0.543159 c 0,0.126552 -0.0042,0.21029 -0.01222,0.25062 -0.0084,0.04023 -0.03089,0.07569 -0.06804,0.105791 -0.03675,0.0301 -0.09039,0.0452 -0.160126,0.0452 -0.04311,0 -0.09288,-0.0028 -0.148902,-0.0084 l 0,-0.153769 0.08126,0 c 0.03824,0 0.06556,-0.0043 0.08205,-0.01192 0.01649,-0.008 0.02732,-0.02036 0.03288,-0.03755 0.0057,-0.01709 0.0081,-0.07281 0.0081,-0.167477 l 0,-0.718384 z m 1.02245,0 0.18496,0 0,0.206416 c 0,0.0887 0.0053,0.153471 0.01579,0.193403 0.01053,0.04003 0.03606,0.075 0.07639,0.104797 0.04033,0.0298 0.09109,0.0445 0.15208,0.0445 0.06973,0 0.160126,-0.01858 0.270884,-0.05533 l 0,-0.493789 0.18496,0 0,1.09019 -0.18496,0 0,-0.439454 c -0.113539,0.03576 -0.219727,0.05334 -0.318167,0.05334 -0.08274,0 -0.155954,-0.02106 -0.219032,-0.06308 -0.06347,-0.04212 -0.106486,-0.09357 -0.128936,-0.154564 -0.02285,-0.06059 -0.03397,-0.127942 -0.03397,-0.201151 l 0,-0.285287 z m 1.9093,0.739045 0.191019,0.02354 c -0.0301,0.111751 -0.08582,0.198271 -0.167179,0.259957 -0.08165,0.06139 -0.185655,0.09218 -0.312207,0.09218 -0.159431,0 -0.285883,-0.04907 -0.379158,-0.147213 -0.09357,-0.09804 -0.14016,-0.235819 -0.14016,-0.41313 0,-0.183569 0.04728,-0.325915 0.141551,-0.427136 0.09467,-0.101321 0.216946,-0.15208 0.367635,-0.15208 0.145723,0 0.264924,0.04977 0.357007,0.148902 0.09258,0.09924 0.13877,0.238998 0.13877,0.418792 0,0.01123 -2.98e-4,0.02761 -9.93e-4,0.04937 l -0.81295,0 c 0.0067,0.119896 0.04063,0.211681 0.101619,0.275056 0.06099,0.06377 0.136584,0.09566 0.227773,0.09566 0.06765,0 0.125459,-0.01778 0.173437,-0.05354 0.04798,-0.03546 0.08582,-0.09218 0.113837,-0.170358 z m -0.606534,-0.298896 0.608719,0 c -0.0081,-0.09149 -0.03159,-0.160424 -0.06973,-0.206019 -0.0589,-0.07112 -0.135293,-0.106883 -0.228866,-0.106883 -0.08483,0 -0.156252,0.02841 -0.214065,0.08513 -0.05791,0.05682 -0.0898,0.13281 -0.09606,0.227773 z m 1.03059,-0.440149 0.426143,0 c 0.104698,0 0.182576,0.0088 0.233733,0.02593 0.05076,0.01758 0.09457,0.04947 0.13132,0.09606 0.03646,0.04659 0.05503,0.102314 0.05503,0.167477 0,0.05185 -0.01083,0.09745 -0.03258,0.135988 -0.02136,0.03854 -0.05394,0.07112 -0.09705,0.09705 0.05155,0.01718 0.09397,0.04907 0.127942,0.09606 0.03397,0.04688 0.05076,0.102314 0.05076,0.166782 -0.0067,0.103407 -0.04381,0.180093 -0.110757,0.229859 -0.06725,0.05016 -0.164696,0.075 -0.292539,0.075 l -0.492001,0 0,-1.09019 z m 0.185059,0.458725 0.19688,0 c 0.07887,0 0.13281,-0.0039 0.162212,-0.01222 0.0295,-0.008 0.05573,-0.02493 0.07927,-0.04977 0.02314,-0.02493 0.03467,-0.05503 0.03467,-0.0897 0,-0.05751 -0.02036,-0.09784 -0.06099,-0.120194 -0.04063,-0.02285 -0.11036,-0.03407 -0.2088,-0.03407 l -0.203237,0 0,0.305949 z m 0,0.479386 0.24317,0 c 0.104797,0 0.176616,-0.01192 0.215456,-0.03646 0.03924,-0.02414 0.0596,-0.06626 0.06169,-0.125459 0,-0.03506 -0.01122,-0.06725 -0.03397,-0.09705 -0.02245,-0.0298 -0.05185,-0.04867 -0.08791,-0.05642 -0.03646,-0.008 -0.09467,-0.01192 -0.174927,-0.01192 l -0.223502,0 0,0.327306 z m 1.61924,-0.247441 0.181483,0.02384 c -0.01957,0.125161 -0.07043,0.223204 -0.152378,0.294029 -0.08165,0.07083 -0.182179,0.106188 -0.301379,0.106188 -0.148902,0 -0.269096,-0.04867 -0.35949,-0.14612 -0.09079,-0.09745 -0.136386,-0.23721 -0.136386,-0.419488 0,-0.117711 0.01967,-0.22072 0.05861,-0.309028 0.03924,-0.08831 0.09844,-0.154564 0.178305,-0.198668 0.07957,-0.0442 0.166484,-0.06626 0.260057,-0.06626 0.118406,0 0.215456,0.0301 0.290453,0.0901 0.0754,0.0599 0.123671,0.14473 0.145127,0.25509 l -0.179795,0.02761 c -0.01719,-0.07321 -0.04728,-0.12824 -0.09079,-0.165391 -0.04341,-0.03675 -0.09596,-0.05533 -0.157643,-0.05533 -0.09327,0 -0.168967,0.03328 -0.227078,0.100228 -0.05821,0.06655 -0.08732,0.172047 -0.08732,0.316379 0,0.146518 0.02811,0.253004 0.08453,0.319657 0.05602,0.06616 0.129234,0.09943 0.219628,0.09943 0.07261,0 0.13281,-0.02235 0.181583,-0.06685 0.04867,-0.0445 0.07957,-0.112843 0.09248,-0.205423 z m 0.336742,-0.69067 0.184662,0 0,0.425845 0.23413,0 c 0.152776,0 0.270189,0.0297 0.352537,0.089 0.08265,0.0592 0.123671,0.140856 0.123671,0.244858 0,0.09079 -0.03437,0.168967 -0.103009,0.233435 -0.06874,0.06477 -0.178702,0.09705 -0.330087,0.09705 l -0.461903,0 0,-1.09019 z m 0.184662,0.938111 0.194198,0 c 0.117015,0 0.200357,-0.0144 0.25052,-0.04311 0.04977,-0.02871 0.0746,-0.07361 0.0746,-0.1342 0,-0.04728 -0.01818,-0.0894 -0.05533,-0.126452 -0.03675,-0.03685 -0.118804,-0.05543 -0.245256,-0.05543 l -0.218734,0 0,0.359192 z m 0.91278,-0.938111 0.184662,0 0,0.471042 c 0.0589,0 0.100228,-0.01123 0.12377,-0.03367 0.02344,-0.02275 0.05811,-0.08831 0.104003,-0.197277 0.03646,-0.08622 0.06596,-0.142942 0.08831,-0.170358 0.02285,-0.02732 0.04877,-0.04589 0.07818,-0.05533 0.0294,-0.0098 0.07679,-0.0144 0.141551,-0.0144 l 0.03715,0 0,0.152776 -0.05146,-9.93e-4 c -0.04838,0 -0.07957,0.0074 -0.09328,0.02175 -0.0143,0.015 -0.03645,0.0599 -0.06586,0.134498 -0.02801,0.07112 -0.05364,0.120194 -0.07708,0.147511 -0.02314,0.02771 -0.0592,0.05265 -0.107579,0.075 0.07917,0.02146 0.157345,0.09536 0.234031,0.221813 l 0.202244,0.337835 -0.203237,0 -0.197277,-0.337835 c -0.04033,-0.06765 -0.07569,-0.112446 -0.105493,-0.133803 -0.0301,-0.02175 -0.06626,-0.03228 -0.107976,-0.03228 l 0,0.503922 -0.184662,0 0,-1.09019 z"
   id="path30"
   style="fill:#2b2a29;fill-rule:nonzero" />
  <path
   d="m 36.4923,73.174 0.578223,-1.50501 0.214462,0 0.61597,1.50501 -0.226978,0 -0.175623,-0.455844 -0.62938,0 -0.164994,0.455844 -0.211681,0 z m 0.434189,-0.618156 0.510577,0 -0.157345,-0.416607 c -0.04768,-0.126552 -0.08344,-0.230554 -0.106486,-0.312207 -0.01937,0.09665 -0.04629,0.192311 -0.08135,0.287671 l -0.165391,0.441142 z m 1.11085,-0.472035 0.185059,0 0,0.453857 0.512266,0 0,-0.453857 0.184662,0 0,1.09019 -0.184662,0 0,-0.483558 -0.512266,0 0,0.483558 -0.185059,0 0,-1.09019 z m 1.06039,0 0.886159,0 0,0.152776 -0.351146,0 0,0.937415 -0.183967,0 0,-0.937415 -0.351046,0 0,-0.152776 z m 1.06277,1.50789 0,-1.50789 0.168173,0 0,0.14165 c 0.03963,-0.05543 0.08443,-0.09715 0.134598,-0.124764 0.04977,-0.02771 0.11036,-0.04172 0.181483,-0.04172 0.09327,0 0.175225,0.02414 0.246348,0.07182 0.07152,0.04798 0.125161,0.115625 0.161219,0.202939 0.03646,0.08722 0.05463,0.182874 0.05463,0.286976 0,0.111453 -0.01997,0.211979 -0.0603,0.301379 -0.03993,0.0893 -0.09804,0.157643 -0.174431,0.205323 -0.07639,0.04728 -0.15665,0.07112 -0.240786,0.07112 -0.06169,0 -0.116717,-0.01301 -0.165689,-0.03894 -0.04907,-0.02593 -0.089,-0.05881 -0.120592,-0.09844 l 0,0.530543 -0.184662,0 z m 0.167179,-0.956686 c 0,0.14026 0.02831,0.243964 0.08513,0.311214 0.05672,0.06695 0.125757,0.100526 0.206416,0.100526 0.08195,0 0.152378,-0.03467 0.210886,-0.1044 0.05851,-0.06933 0.08801,-0.176914 0.08801,-0.322736 0,-0.139068 -0.02871,-0.242772 -0.08592,-0.312207 -0.05712,-0.06904 -0.12536,-0.103705 -0.204628,-0.103705 -0.07877,0 -0.148504,0.03675 -0.209197,0.11036 -0.06059,0.07361 -0.09069,0.180788 -0.09069,0.320948 z m 1.71351,0.404389 c -0.06864,0.05821 -0.134598,0.09924 -0.197575,0.123373 -0.06347,0.02384 -0.131419,0.03576 -0.204032,0.03576 -0.119797,0 -0.211582,-0.02911 -0.276049,-0.08761 -0.06417,-0.05851 -0.09635,-0.133505 -0.09635,-0.224296 0,-0.05354 0.01182,-0.102314 0.03636,-0.146418 0.02424,-0.0442 0.05612,-0.07957 0.09536,-0.106188 0.03963,-0.02662 0.08374,-0.04699 0.133108,-0.06059 0.03616,-0.0095 0.09079,-0.01897 0.164,-0.02771 0.149299,-0.01788 0.259361,-0.03894 0.329789,-0.06377 6.95e-4,-0.02523 9.93e-4,-0.04132 9.93e-4,-0.04798 0,-0.0754 -0.01748,-0.128638 -0.05255,-0.159133 -0.04689,-0.04202 -0.117313,-0.06268 -0.210191,-0.06268 -0.08692,0 -0.151087,0.015 -0.192708,0.0455 -0.04142,0.0305 -0.07192,0.08443 -0.09188,0.161914 l -0.180391,-0.02493 c 0.01639,-0.07708 0.04341,-0.139763 0.08086,-0.187046 0.03755,-0.04768 0.09218,-0.08443 0.163305,-0.110062 0.07112,-0.02563 0.153471,-0.03854 0.247441,-0.03854 0.09318,0 0.16857,0.01122 0.22668,0.03298 0.05821,0.02205 0.100923,0.04937 0.128638,0.08265 0.02732,0.03328 0.04629,0.075 0.05741,0.125856 0.006,0.03149 0.0091,0.08821 0.0091,0.170259 l 0,0.246348 c 0,0.172047 0.0039,0.280718 0.01192,0.325915 0.0077,0.0455 0.02344,0.0893 0.04659,0.131022 l -0.193006,0 c -0.01897,-0.03824 -0.03159,-0.08304 -0.03685,-0.134598 z m -0.0154,-0.412733 c -0.06725,0.02761 -0.167875,0.05076 -0.301677,0.07003 -0.07609,0.01093 -0.130028,0.02314 -0.161219,0.03685 -0.03159,0.01361 -0.05612,0.03357 -0.07291,0.0602 -0.01718,0.02632 -0.02593,0.05543 -0.02593,0.08761 0,0.04947 0.01897,0.09049 0.05602,0.123373 0.03715,0.03258 0.09188,0.04907 0.163702,0.04907 0.07112,0 0.134598,-0.0154 0.189927,-0.04659 0.05533,-0.03119 0.09635,-0.074 0.12228,-0.127942 0.01997,-0.04172 0.0298,-0.103307 0.0298,-0.184662 l 0,-0.06794 z m 0.476207,-0.542861 0.185059,0 0,0.938111 0.511272,0 0,-0.938111 0.184662,0 0,0.938111 0.119102,0 0,0.461109 -0.15208,0 0,-0.309028 -0.848015,0 0,-1.09019 z m 1.20164,0 0.184662,0 0,0.831625 0.512266,-0.831625 0.199065,0 0,1.09019 -0.184662,0 0,-0.826261 -0.512266,0.826261 -0.199065,0 0,-1.09019 z m 1.07479,0 0.886159,0 0,0.152776 -0.351146,0 0,0.937415 -0.183967,0 0,-0.937415 -0.351046,0 0,-0.152776 z"
   id="path32"
   style="fill:#2b2a29;fill-rule:nonzero" />
  <path
   d="m 45.1911,63.2492 0.199065,0 0,0.659081 c 0.09109,0 0.154862,-0.01748 0.192013,-0.05285 0.03675,-0.03546 0.08414,-0.119896 0.141551,-0.254096 0.04172,-0.09844 0.07609,-0.168173 0.103407,-0.208899 0.02692,-0.04063 0.06546,-0.0749 0.115227,-0.102612 0.05016,-0.02771 0.105195,-0.04172 0.165391,-0.04172 0.07679,0 0.117115,6.95e-4 0.121287,0.0021 l 0,0.172444 c -0.0071,0 -0.02036,-3.97e-4 -0.04033,-0.0011 -0.02165,-6.95e-4 -0.03496,-9.93e-4 -0.03993,-9.93e-4 -0.06377,0 -0.110757,0.0154 -0.141551,0.04619 -0.03149,0.03089 -0.06765,0.09675 -0.107976,0.197277 -0.05046,0.127247 -0.09317,0.207509 -0.12824,0.240786 -0.03497,0.03298 -0.07669,0.0596 -0.125062,0.07957 0.09705,0.02662 0.192708,0.11632 0.287373,0.268699 l 0.310121,0.50114 -0.247441,0 -0.251613,-0.408561 c -0.06904,-0.112843 -0.127148,-0.190324 -0.173437,-0.23274 -0.04659,-0.04202 -0.106883,-0.06308 -0.180788,-0.06308 l 0,0.704378 -0.199065,0 0,-1.50501 z m 1.19807,1.92271 0,-1.50789 0.168173,0 0,0.14165 c 0.03963,-0.05543 0.08443,-0.09715 0.134598,-0.124764 0.04977,-0.02771 0.11036,-0.04172 0.181483,-0.04172 0.09327,0 0.175225,0.02414 0.246348,0.07182 0.07152,0.04798 0.125161,0.115625 0.161219,0.202939 0.03646,0.08722 0.05463,0.182874 0.05463,0.286976 0,0.111453 -0.01997,0.211979 -0.0603,0.301379 -0.03993,0.0893 -0.09804,0.157643 -0.174431,0.205323 -0.07639,0.04728 -0.15665,0.07112 -0.240786,0.07112 -0.06169,0 -0.116717,-0.01301 -0.165689,-0.03894 -0.04907,-0.02593 -0.089,-0.05881 -0.120592,-0.09844 l 0,0.530543 -0.184662,0 z m 0.167179,-0.956686 c 0,0.14026 0.02831,0.243964 0.08513,0.311214 0.05672,0.06695 0.125757,0.100526 0.206416,0.100526 0.08195,0 0.152378,-0.03467 0.210886,-0.1044 0.05851,-0.06934 0.08801,-0.176914 0.08801,-0.322736 0,-0.139068 -0.02871,-0.242772 -0.08592,-0.312207 -0.05712,-0.06904 -0.12536,-0.103705 -0.204628,-0.103705 -0.07877,0 -0.148504,0.03675 -0.209197,0.11036 -0.06059,0.07361 -0.09069,0.180788 -0.09069,0.320948 z m 1.71351,0.404389 c -0.06864,0.05821 -0.134598,0.09923 -0.197575,0.123373 -0.06348,0.02384 -0.131419,0.03576 -0.204032,0.03576 -0.119797,0 -0.211582,-0.02911 -0.276049,-0.08761 -0.06417,-0.05851 -0.09635,-0.133505 -0.09635,-0.224296 0,-0.05354 0.01182,-0.102314 0.03636,-0.146418 0.02424,-0.0442 0.05612,-0.07957 0.09536,-0.106188 0.03963,-0.02662 0.08374,-0.04698 0.133108,-0.06059 0.03616,-0.0095 0.09079,-0.01897 0.164,-0.02771 0.149299,-0.01788 0.259361,-0.03894 0.329789,-0.06377 6.95e-4,-0.02523 9.93e-4,-0.04132 9.93e-4,-0.04798 0,-0.0754 -0.01748,-0.128638 -0.05255,-0.159133 -0.04689,-0.04202 -0.117313,-0.06268 -0.210191,-0.06268 -0.08692,0 -0.151087,0.015 -0.192708,0.04549 -0.04142,0.0305 -0.07192,0.08443 -0.09188,0.161914 l -0.180391,-0.02493 c 0.01639,-0.07708 0.04341,-0.139763 0.08086,-0.187046 0.03755,-0.04768 0.09218,-0.08443 0.163305,-0.110062 0.07112,-0.02563 0.153471,-0.03854 0.247441,-0.03854 0.09317,0 0.16857,0.01122 0.22668,0.03298 0.05821,0.02205 0.100923,0.04937 0.128638,0.08265 0.02732,0.03328 0.04629,0.075 0.05741,0.125856 0.006,0.03149 0.0091,0.08821 0.0091,0.170259 l 0,0.246347 c 0,0.172048 0.0039,0.280718 0.01192,0.325915 0.0077,0.0455 0.02344,0.0893 0.04659,0.131022 l -0.193006,0 c -0.01897,-0.03824 -0.03159,-0.08304 -0.03685,-0.134598 z m -0.0154,-0.412733 c -0.06725,0.02761 -0.167875,0.05076 -0.301677,0.07003 -0.07609,0.01093 -0.130028,0.02314 -0.161219,0.03685 -0.03159,0.01361 -0.05612,0.03357 -0.07291,0.0602 -0.01718,0.02632 -0.02593,0.05543 -0.02593,0.08761 0,0.04947 0.01897,0.09049 0.05602,0.123373 0.03715,0.03258 0.09188,0.04907 0.163702,0.04907 0.07112,0 0.134598,-0.0154 0.189927,-0.04659 0.05533,-0.03119 0.09635,-0.074 0.12228,-0.127942 0.01997,-0.04172 0.0298,-0.103307 0.0298,-0.184662 l 0,-0.06795 z m 1.18476,0.147809 0.181483,0.02384 c -0.01957,0.125161 -0.07043,0.223204 -0.152378,0.294029 -0.08165,0.07082 -0.182179,0.106188 -0.301379,0.106188 -0.148902,0 -0.269096,-0.04867 -0.35949,-0.14612 -0.09079,-0.09745 -0.136386,-0.23721 -0.136386,-0.419488 0,-0.117711 0.01967,-0.22072 0.05861,-0.309028 0.03924,-0.08831 0.09844,-0.154564 0.178305,-0.198668 0.07957,-0.0442 0.166484,-0.06626 0.260057,-0.06626 0.118406,0 0.215456,0.0301 0.290453,0.0901 0.0754,0.0599 0.123671,0.14473 0.145127,0.25509 l -0.179795,0.02762 c -0.01718,-0.07321 -0.04728,-0.12824 -0.09079,-0.165391 -0.04341,-0.03675 -0.09596,-0.05533 -0.157643,-0.05533 -0.09328,0 -0.168967,0.03328 -0.227078,0.100228 -0.05821,0.06655 -0.08732,0.172047 -0.08732,0.316379 0,0.146518 0.02811,0.253004 0.08453,0.319657 0.05602,0.06616 0.129234,0.09943 0.219628,0.09943 0.07261,0 0.13281,-0.02235 0.181583,-0.06685 0.04867,-0.0445 0.07957,-0.112843 0.09248,-0.205423 z m 0.340616,-0.69067 0.185059,0 0,0.453857 0.512266,0 0,-0.453857 0.184662,0 0,1.09019 -0.184662,0 0,-0.483558 -0.512266,0 0,0.483558 -0.185059,0 0,-1.09019 z m 1.09118,0.544947 c 0,-0.201847 0.05602,-0.351444 0.16857,-0.448493 0.09357,-0.08066 0.207807,-0.121287 0.342702,-0.121287 0.149994,0 0.272573,0.04907 0.367536,0.147511 0.09536,0.09814 0.142644,0.233733 0.142644,0.406872 0,0.140458 -0.02106,0.250918 -0.06308,0.33108 -0.04202,0.08066 -0.103307,0.143041 -0.183569,0.187543 -0.08066,0.0445 -0.168272,0.06655 -0.263533,0.06655 -0.152478,0 -0.275751,-0.04867 -0.370019,-0.146816 -0.09427,-0.09775 -0.141253,-0.2386 -0.141253,-0.422964 z m 0.189927,0 c 0,0.139763 0.0305,0.244262 0.09149,0.313598 0.06099,0.06973 0.137677,0.1044 0.229859,0.1044 0.09178,0 0.168173,-0.03497 0.229164,-0.104698 0.06059,-0.06973 0.09109,-0.176318 0.09109,-0.31926 0,-0.134896 -0.0305,-0.23721 -0.09179,-0.306644 -0.06129,-0.06934 -0.137379,-0.104003 -0.228468,-0.104003 -0.09218,0 -0.168868,0.03467 -0.229859,0.103705 -0.06099,0.06904 -0.09149,0.173437 -0.09149,0.312902 z m 1.1479,-0.544947 0.759707,0 0,0.938111 0.11781,0 0,0.461109 -0.151782,0 0,-0.309028 -0.858147,0 0,0.309028 -0.15208,0 0,-0.461109 0.09745,0 c 0.129929,-0.176616 0.192311,-0.48922 0.187046,-0.938111 z m 0.153868,0.152776 c -0.01361,0.353927 -0.06834,0.615772 -0.164298,0.785335 l 0.58617,0 0,-0.785335 -0.421872,0 z m 0.858147,0.392171 c 0,-0.201847 0.05602,-0.351444 0.16857,-0.448493 0.09357,-0.08066 0.207807,-0.121287 0.342702,-0.121287 0.149994,0 0.272573,0.04907 0.367536,0.147511 0.09536,0.09814 0.142644,0.233733 0.142644,0.406872 0,0.140458 -0.02106,0.250918 -0.06308,0.33108 -0.04202,0.08066 -0.103307,0.143041 -0.183569,0.187543 -0.08066,0.0445 -0.168272,0.06655 -0.263533,0.06655 -0.152478,0 -0.275751,-0.04867 -0.370019,-0.146816 -0.09427,-0.09775 -0.141253,-0.2386 -0.141253,-0.422964 z m 0.189927,0 c 0,0.139763 0.0305,0.244262 0.09149,0.313598 0.06099,0.06973 0.137677,0.1044 0.229859,0.1044 0.09178,0 0.168173,-0.03497 0.229164,-0.104698 0.06059,-0.06973 0.09109,-0.176318 0.09109,-0.31926 0,-0.134896 -0.0305,-0.23721 -0.09179,-0.306644 -0.06129,-0.06934 -0.137379,-0.104003 -0.228468,-0.104003 -0.09218,0 -0.168868,0.03467 -0.229859,0.103705 -0.06099,0.06904 -0.09149,0.173437 -0.09149,0.312902 z m 1.04917,-0.544947 0.185059,0 0,0.453857 0.512266,0 0,-0.453857 0.184662,0 0,1.09019 -0.184662,0 0,-0.483558 -0.512266,0 0,0.483558 -0.185059,0 0,-1.09019 z"
   id="path34"
   style="fill:#2b2a29;fill-rule:nonzero" />
  <path
   d="m 11.6786,38.6129 0.199363,0.05046 c -0.04162,0.163305 -0.117015,0.288069 -0.22529,0.374291 -0.108671,0.08582 -0.241084,0.128638 -0.398031,0.128638 -0.162312,0 -0.294029,-0.03298 -0.395647,-0.09884 -0.101619,-0.06625 -0.179099,-0.161914 -0.231945,-0.286976 -0.05295,-0.125459 -0.07957,-0.260057 -0.07957,-0.403694 0,-0.15665 0.0298,-0.293333 0.0897,-0.410051 0.0599,-0.116618 0.145028,-0.205323 0.255785,-0.265917 0.11036,-0.06059 0.231945,-0.09079 0.364755,-0.09079 0.15069,0 0.277241,0.03824 0.379853,0.114929 0.102711,0.07679 0.174232,0.184364 0.214462,0.323432 l -0.195887,0.04629 c -0.03497,-0.109665 -0.08543,-0.189231 -0.15208,-0.239296 -0.06616,-0.05016 -0.149597,-0.075 -0.25052,-0.075 -0.115625,0 -0.211979,0.02762 -0.289757,0.08304 -0.07788,0.05573 -0.132512,0.129929 -0.163702,0.223502 -0.03149,0.09327 -0.04728,0.189629 -0.04728,0.288764 0,0.12824 0.01858,0.239693 0.05573,0.335352 0.03745,0.09536 0.09526,0.166782 0.174133,0.214065 0.07887,0.04738 0.164,0.07082 0.255785,0.07082 0.111453,0 0.205721,-0.03218 0.283201,-0.09635 0.07738,-0.06447 0.129631,-0.160126 0.156948,-0.286678 z m 0.940495,-0.106883 0,0.15208 -0.385118,0 c 0.01192,0.118506 0.04242,0.207111 0.09218,0.266315 0.04937,0.0593 0.118406,0.089 0.206714,0.089 0.155954,0 0.248136,-0.09039 0.276149,-0.271182 l 0.180788,0.02384 c -0.01927,0.119499 -0.06904,0.216151 -0.149597,0.289459 -0.08026,0.07321 -0.185357,0.109665 -0.315783,0.109665 -0.154464,0.0091 -0.274361,-0.03993 -0.359093,-0.147213 -0.08483,-0.107181 -0.125161,-0.248037 -0.121287,-0.422567 0,-0.177311 0.0442,-0.316478 0.132512,-0.4177 0.08821,-0.101321 0.2088,-0.15208 0.361278,-0.15208 0.121883,0 0.220323,0.03258 0.295717,0.09705 0.07529,0.06486 0.121188,0.148206 0.137677,0.250222 l -0.179695,0.02871 c -0.0302,-0.148604 -0.116717,-0.222806 -0.259659,-0.222806 -0.08205,0 -0.149299,0.0301 -0.201847,0.09069 -0.05225,0.06069 -0.08414,0.139465 -0.09606,0.236514 l 0.385118,0 z m 0.554383,-0.455546 0.426143,0 c 0.104698,0 0.182576,0.0088 0.233733,0.02593 0.05076,0.01758 0.09457,0.04947 0.13132,0.09606 0.03646,0.04659 0.05503,0.102314 0.05503,0.167477 0,0.05185 -0.01083,0.09745 -0.03258,0.135988 -0.02136,0.03854 -0.05394,0.07112 -0.09705,0.09705 0.05156,0.01718 0.09397,0.04907 0.127942,0.09606 0.03397,0.04689 0.05076,0.102314 0.05076,0.166782 -0.0067,0.103407 -0.04381,0.180093 -0.110757,0.229859 -0.06725,0.05016 -0.164696,0.075 -0.292539,0.075 l -0.492001,0 0,-1.09019 z m 0.185059,0.458725 0.19688,0 c 0.07887,0 0.13281,-0.0039 0.162212,-0.01222 0.0295,-0.008 0.05573,-0.02493 0.07927,-0.04977 0.02314,-0.02493 0.03467,-0.05503 0.03467,-0.0897 0,-0.05751 -0.02036,-0.09784 -0.06099,-0.120194 -0.04063,-0.02285 -0.11036,-0.03407 -0.2088,-0.03407 l -0.203237,0 0,0.305949 z m 0,0.479386 0.24317,0 c 0.104797,0 0.176616,-0.01192 0.215456,-0.03646 0.03924,-0.02414 0.0596,-0.06625 0.06169,-0.125459 0,-0.03506 -0.01122,-0.06725 -0.03397,-0.09705 -0.02245,-0.0298 -0.05185,-0.04867 -0.08791,-0.05642 -0.03646,-0.008 -0.09467,-0.01192 -0.174927,-0.01192 l -0.223502,0 0,0.327306 z m 1.65391,-0.199065 0.191019,0.02354 c -0.0301,0.111751 -0.08582,0.198271 -0.167179,0.259957 -0.08165,0.06139 -0.185655,0.09218 -0.312207,0.09218 -0.159431,0 -0.285883,-0.04907 -0.379158,-0.147213 -0.09357,-0.09804 -0.14016,-0.235819 -0.14016,-0.41313 0,-0.183569 0.04728,-0.325915 0.141551,-0.427136 0.09466,-0.101321 0.216946,-0.15208 0.367635,-0.15208 0.145723,0 0.264924,0.04977 0.357007,0.148902 0.09258,0.09924 0.13877,0.238998 0.13877,0.418792 0,0.01122 -2.98e-4,0.02761 -9.93e-4,0.04937 l -0.81295,0 c 0.0067,0.119896 0.04063,0.211681 0.101619,0.275056 0.06099,0.06377 0.136584,0.09566 0.227773,0.09566 0.06765,0 0.125459,-0.01778 0.173437,-0.05354 0.04798,-0.03546 0.08582,-0.09218 0.113837,-0.170358 z m -0.606534,-0.298896 0.608719,0 c -0.0081,-0.09149 -0.03159,-0.160424 -0.06973,-0.206019 -0.05891,-0.07112 -0.135294,-0.106883 -0.228866,-0.106883 -0.08483,0 -0.156252,0.02841 -0.214065,0.08513 -0.05791,0.05682 -0.0898,0.13281 -0.09606,0.227773 z m 1.0299,1.06774 0,-1.50789 0.168173,0 0,0.14165 c 0.03963,-0.05543 0.08443,-0.09715 0.134598,-0.124764 0.04977,-0.02771 0.11036,-0.04172 0.181483,-0.04172 0.09328,0 0.175225,0.02414 0.246348,0.07182 0.07152,0.04798 0.125161,0.115625 0.161219,0.202939 0.03646,0.08722 0.05463,0.182874 0.05463,0.286976 0,0.111453 -0.01997,0.211979 -0.0603,0.301379 -0.03993,0.0893 -0.09804,0.157643 -0.174431,0.205323 -0.07639,0.04728 -0.15665,0.07112 -0.240786,0.07112 -0.06169,0 -0.116717,-0.01301 -0.165689,-0.03894 -0.04907,-0.02593 -0.089,-0.05881 -0.120592,-0.09844 l 0,0.530543 -0.184662,0 z m 0.167179,-0.956686 c 0,0.14026 0.02831,0.243964 0.08513,0.311214 0.05672,0.06695 0.125757,0.100526 0.206416,0.100526 0.08195,0 0.152378,-0.03467 0.210886,-0.1044 0.05851,-0.06933 0.08801,-0.176914 0.08801,-0.322736 0,-0.139068 -0.02871,-0.242772 -0.08592,-0.312207 -0.05712,-0.06904 -0.12536,-0.103705 -0.204628,-0.103705 -0.07877,0 -0.148504,0.03675 -0.209197,0.11036 -0.06059,0.07361 -0.09069,0.180788 -0.09069,0.320948 z m 0.933144,-0.0063 c 0,-0.201847 0.05602,-0.351444 0.16857,-0.448493 0.09357,-0.08066 0.207807,-0.121287 0.342702,-0.121287 0.149994,0 0.272573,0.04907 0.367536,0.147511 0.09536,0.09814 0.142644,0.233733 0.142644,0.406872 0,0.140458 -0.02106,0.250918 -0.06308,0.33108 -0.04202,0.08066 -0.103307,0.143041 -0.183569,0.187543 -0.08066,0.0445 -0.168272,0.06655 -0.263533,0.06655 -0.152478,0 -0.275751,-0.04867 -0.370019,-0.146816 -0.09427,-0.09774 -0.141253,-0.2386 -0.141253,-0.422964 z m 0.189927,0 c 0,0.139763 0.03049,0.244262 0.09149,0.313598 0.06099,0.06973 0.137677,0.1044 0.229859,0.1044 0.09178,0 0.168173,-0.03497 0.229164,-0.104698 0.06059,-0.06973 0.09109,-0.176318 0.09109,-0.31926 0,-0.134896 -0.0305,-0.23721 -0.09178,-0.306644 -0.06129,-0.06933 -0.137379,-0.104003 -0.228468,-0.104003 -0.09218,0 -0.168868,0.03467 -0.229859,0.103705 -0.06099,0.06904 -0.09149,0.173437 -0.09149,0.312902 z m 1.1479,-0.544947 0.759707,0 0,0.938111 0.11781,0 0,0.461109 -0.151782,0 0,-0.309028 -0.858147,0 0,0.309028 -0.15208,0 0,-0.461109 0.09745,0 c 0.129929,-0.176616 0.192311,-0.48922 0.187046,-0.938111 z m 0.153868,0.152776 c -0.01361,0.353927 -0.06834,0.615772 -0.164298,0.785335 l 0.58617,0 0,-0.785335 -0.421872,0 z m 0.858147,0.392171 c 0,-0.201847 0.05602,-0.351444 0.16857,-0.448493 0.09357,-0.08066 0.207807,-0.121287 0.342702,-0.121287 0.149994,0 0.272573,0.04907 0.367536,0.147511 0.09536,0.09814 0.142644,0.233733 0.142644,0.406872 0,0.140458 -0.02106,0.250918 -0.06308,0.33108 -0.04202,0.08066 -0.103307,0.143041 -0.183569,0.187543 -0.08066,0.0445 -0.168272,0.06655 -0.263533,0.06655 -0.152478,0 -0.275751,-0.04867 -0.370019,-0.146816 -0.09427,-0.09774 -0.141253,-0.2386 -0.141253,-0.422964 z m 0.189927,0 c 0,0.139763 0.0305,0.244262 0.09149,0.313598 0.06099,0.06973 0.137677,0.1044 0.229859,0.1044 0.09178,0 0.168173,-0.03497 0.229164,-0.104698 0.06059,-0.06973 0.09109,-0.176318 0.09109,-0.31926 0,-0.134896 -0.0305,-0.23721 -0.09179,-0.306644 -0.06129,-0.06933 -0.137379,-0.104003 -0.228468,-0.104003 -0.09218,0 -0.168868,0.03467 -0.229859,0.103705 -0.06099,0.06904 -0.09149,0.173437 -0.09149,0.312902 z m 1.04917,-0.544947 0.185059,0 0,0.453857 0.512266,0 0,-0.453857 0.184662,0 0,1.09019 -0.184662,0 0,-0.483558 -0.512266,0 0,0.483558 -0.185059,0 0,-1.09019 z m 1.90622,0.739045 0.191019,0.02354 c -0.0301,0.111751 -0.08582,0.198271 -0.167179,0.259957 -0.08165,0.06139 -0.185655,0.09218 -0.312207,0.09218 -0.159431,0 -0.285883,-0.04907 -0.379158,-0.147213 -0.09357,-0.09804 -0.14016,-0.235819 -0.14016,-0.41313 0,-0.183569 0.04728,-0.325915 0.141551,-0.427136 0.09466,-0.101321 0.216946,-0.15208 0.367635,-0.15208 0.145723,0 0.264924,0.04977 0.357007,0.148902 0.09258,0.09924 0.13877,0.238998 0.13877,0.418792 0,0.01123 -2.98e-4,0.02762 -9.93e-4,0.04937 l -0.81295,0 c 0.0067,0.119896 0.04063,0.211681 0.101619,0.275056 0.06099,0.06377 0.136584,0.09566 0.227773,0.09566 0.06765,0 0.125459,-0.01778 0.173437,-0.05354 0.04798,-0.03546 0.08582,-0.09218 0.113837,-0.170358 z m -0.606534,-0.298896 0.608719,0 c -0.0081,-0.09149 -0.03159,-0.160424 -0.06973,-0.206019 -0.05891,-0.07112 -0.135293,-0.106883 -0.228866,-0.106883 -0.08483,0 -0.156251,0.02841 -0.214065,0.08513 -0.05791,0.05682 -0.0898,0.13281 -0.09606,0.227773 z m 1.03268,-0.440149 0.185059,0 0,0.938111 0.511272,0 0,-0.938111 0.184662,0 0,0.938111 0.119102,0 0,0.461109 -0.15208,0 0,-0.309028 -0.848015,0 0,-1.09019 z m 1.19847,0 0.184662,0 0,0.425845 0.23413,0 c 0.152776,0 0.270189,0.0297 0.352537,0.089 0.08265,0.0592 0.123671,0.140856 0.123671,0.244858 0,0.09079 -0.03437,0.168967 -0.103009,0.233435 -0.06874,0.06477 -0.178702,0.09705 -0.330087,0.09705 l -0.461903,0 0,-1.09019 z m 0.184662,0.938111 0.194198,0 c 0.117015,0 0.200357,-0.0144 0.25052,-0.04311 0.04977,-0.02871 0.0746,-0.07361 0.0746,-0.1342 0,-0.04728 -0.01818,-0.0894 -0.05533,-0.126452 -0.03675,-0.03685 -0.118804,-0.05543 -0.245256,-0.05543 l -0.218734,0 0,0.359192 z m 0.91278,-0.938111 0.184662,0 0,0.471042 c 0.0589,0 0.100228,-0.01123 0.12377,-0.03367 0.02344,-0.02275 0.05811,-0.08831 0.104003,-0.197277 0.03646,-0.08622 0.06596,-0.142942 0.08831,-0.170358 0.02285,-0.02732 0.04877,-0.04589 0.07818,-0.05533 0.0294,-0.0098 0.07679,-0.0144 0.141551,-0.0144 l 0.03715,0 0,0.152776 -0.05146,-9.93e-4 c -0.04838,0 -0.07957,0.0074 -0.09328,0.02175 -0.0143,0.015 -0.03645,0.0599 -0.06586,0.134498 -0.02801,0.07112 -0.05364,0.120194 -0.07708,0.147511 -0.02314,0.02771 -0.0592,0.05265 -0.107579,0.075 0.07917,0.02146 0.157345,0.09536 0.234031,0.221813 l 0.202244,0.337835 -0.203237,0 -0.197277,-0.337835 c -0.04033,-0.06765 -0.07569,-0.112446 -0.105493,-0.133803 -0.0301,-0.02175 -0.06626,-0.03228 -0.107976,-0.03228 l 0,0.503922 -0.184662,0 0,-1.09019 z"
   id="path36"
   style="fill:#2b2a29;fill-rule:nonzero" />
  <path
   d="m 16.1727,45.1305 0.94268,0 0,1.50501 -0.199363,0 0,-1.3274 -0.543854,0 0,0.775104 c 0,0.157345 -0.0074,0.272672 -0.02215,0.345881 -0.0147,0.07321 -0.04589,0.130326 -0.09278,0.171053 -0.04738,0.04063 -0.107281,0.06099 -0.179795,0.06099 -0.04381,0 -0.09635,-0.0081 -0.158039,-0.02454 l 0.03367,-0.176616 c 0.03288,0.01361 0.06089,0.02066 0.08443,0.02066 0.0452,0 0.07887,-0.01718 0.101619,-0.05086 0.02245,-0.03397 0.03357,-0.113837 0.03357,-0.239693 l 0,-1.0596 z m 1.24684,0.414819 0.184662,0 0,0.831625 0.512266,-0.831625 0.199065,0 0,1.09019 -0.184662,0 0,-0.826261 -0.512266,0.826261 -0.199065,0 0,-1.09019 z m 1.88596,0.69067 0.181483,0.02384 c -0.01957,0.125161 -0.07043,0.223204 -0.152378,0.294029 -0.08165,0.07082 -0.182179,0.106188 -0.301379,0.106188 -0.148902,0 -0.269096,-0.04867 -0.35949,-0.14612 -0.09079,-0.09745 -0.136386,-0.23721 -0.136386,-0.419488 0,-0.117711 0.01967,-0.22072 0.05861,-0.309028 0.03924,-0.08831 0.09844,-0.154564 0.178305,-0.198668 0.07957,-0.0442 0.166484,-0.06626 0.260057,-0.06626 0.118406,0 0.215456,0.0301 0.290453,0.0901 0.0754,0.0599 0.123671,0.14473 0.145127,0.25509 l -0.179795,0.02761 c -0.01718,-0.07321 -0.04728,-0.12824 -0.09079,-0.165391 -0.04341,-0.03675 -0.09596,-0.05533 -0.157643,-0.05533 -0.09327,0 -0.168967,0.03328 -0.227078,0.100228 -0.05821,0.06655 -0.08732,0.172047 -0.08732,0.316379 0,0.146518 0.02811,0.253004 0.08453,0.319657 0.05602,0.06616 0.129234,0.09943 0.219628,0.09943 0.07261,0 0.13281,-0.02235 0.181583,-0.06685 0.04867,-0.0445 0.07957,-0.112843 0.09248,-0.205423 z m 0.339921,-0.69067 0.184662,0 0,0.831625 0.512266,-0.831625 0.199065,0 0,1.09019 -0.184662,0 0,-0.826261 -0.512266,0.826261 -0.199065,0 0,-1.09019 z m 1.10668,0 0.18496,0 0,0.206416 c 0,0.08871 0.0053,0.153471 0.01579,0.193403 0.01053,0.04003 0.03606,0.075 0.07639,0.104797 0.04033,0.0298 0.09109,0.0445 0.15208,0.0445 0.06973,0 0.160126,-0.01858 0.270884,-0.05533 l 0,-0.49379 0.18496,0 0,1.09019 -0.18496,0 0,-0.439454 c -0.113539,0.03576 -0.219727,0.05334 -0.318167,0.05334 -0.08274,0 -0.155954,-0.02106 -0.219032,-0.06308 -0.06347,-0.04212 -0.106486,-0.09357 -0.128936,-0.154564 -0.02285,-0.06059 -0.03397,-0.127942 -0.03397,-0.201151 l 0,-0.285287 z m 1.87463,0.955593 c -0.06864,0.05821 -0.134598,0.09924 -0.197575,0.123373 -0.06348,0.02384 -0.131419,0.03576 -0.204032,0.03576 -0.119797,0 -0.211582,-0.0291 -0.276049,-0.08761 -0.06417,-0.05851 -0.09635,-0.133505 -0.09635,-0.224296 0,-0.05354 0.01182,-0.102314 0.03636,-0.146418 0.02424,-0.0442 0.05612,-0.07957 0.09536,-0.106188 0.03963,-0.02662 0.08374,-0.04698 0.133108,-0.06059 0.03616,-0.0095 0.09079,-0.01897 0.164,-0.02771 0.149299,-0.01788 0.259361,-0.03894 0.329789,-0.06377 6.95e-4,-0.02523 9.93e-4,-0.04132 9.93e-4,-0.04798 0,-0.0754 -0.01748,-0.128638 -0.05255,-0.159133 -0.04689,-0.04202 -0.117313,-0.06268 -0.210191,-0.06268 -0.08692,0 -0.151087,0.015 -0.192708,0.0455 -0.04142,0.0305 -0.07192,0.08443 -0.09188,0.161914 l -0.180391,-0.02493 c 0.01639,-0.07708 0.04341,-0.139763 0.08086,-0.187046 0.03755,-0.04768 0.09218,-0.08443 0.163305,-0.110062 0.07112,-0.02563 0.153471,-0.03854 0.247441,-0.03854 0.09317,0 0.16857,0.01122 0.22668,0.03298 0.05821,0.02205 0.100923,0.04937 0.128638,0.08265 0.02732,0.03328 0.04629,0.075 0.05742,0.125856 0.006,0.03149 0.0091,0.08821 0.0091,0.170259 l 0,0.246348 c 0,0.172047 0.0039,0.280718 0.01192,0.325915 0.0077,0.0455 0.02344,0.0893 0.04659,0.131022 l -0.193006,0 c -0.01897,-0.03824 -0.03159,-0.08304 -0.03685,-0.134598 z m -0.0154,-0.412733 c -0.06725,0.02762 -0.167875,0.05076 -0.301677,0.07003 -0.07609,0.01093 -0.130028,0.02314 -0.161219,0.03685 -0.03159,0.01361 -0.05612,0.03357 -0.07291,0.0602 -0.01719,0.02632 -0.02593,0.05543 -0.02593,0.08761 0,0.04947 0.01897,0.09049 0.05602,0.123373 0.03715,0.03258 0.09188,0.04907 0.163702,0.04907 0.07112,0 0.134598,-0.0154 0.189927,-0.04659 0.05533,-0.03119 0.09635,-0.074 0.12228,-0.127942 0.01997,-0.04172 0.0298,-0.103307 0.0298,-0.184662 l 0,-0.06795 z m 0.474121,-0.542861 0.185059,0 0,0.453857 0.512266,0 0,-0.453857 0.184662,0 0,1.09019 -0.184662,0 0,-0.483558 -0.512266,0 0,0.483558 -0.185059,0 0,-1.09019 z m 1.87155,0.69067 0.181483,0.02384 c -0.01957,0.125161 -0.07043,0.223204 -0.152378,0.294029 -0.08165,0.07082 -0.182179,0.106188 -0.301379,0.106188 -0.148902,0 -0.269096,-0.04867 -0.35949,-0.14612 -0.09079,-0.09745 -0.136386,-0.23721 -0.136386,-0.419488 0,-0.117711 0.01967,-0.22072 0.05861,-0.309028 0.03924,-0.08831 0.09844,-0.154564 0.178305,-0.198668 0.07957,-0.0442 0.166484,-0.06626 0.260057,-0.06626 0.118406,0 0.215456,0.0301 0.290453,0.0901 0.0754,0.0599 0.123671,0.14473 0.145127,0.25509 l -0.179795,0.02762 c -0.01719,-0.07321 -0.04728,-0.12824 -0.09079,-0.165391 -0.04341,-0.03675 -0.09596,-0.05533 -0.157643,-0.05533 -0.09327,0 -0.168967,0.03328 -0.227078,0.100228 -0.05821,0.06655 -0.08732,0.172047 -0.08732,0.316379 0,0.146518 0.02811,0.253004 0.08453,0.319657 0.05602,0.06616 0.129234,0.09943 0.219628,0.09943 0.07261,0 0.13281,-0.02235 0.181583,-0.06685 0.04867,-0.0445 0.07957,-0.112843 0.09248,-0.205423 z m 0.336742,-0.69067 0.184662,0 0,0.425845 0.23413,0 c 0.152776,0 0.270189,0.0297 0.352537,0.089 0.08265,0.0592 0.123671,0.140856 0.123671,0.244858 0,0.09079 -0.03437,0.168967 -0.103009,0.233435 -0.06874,0.06477 -0.178702,0.09705 -0.330087,0.09705 l -0.461903,0 0,-1.09019 z m 0.184662,0.938111 0.194198,0 c 0.117015,0 0.200357,-0.0144 0.25052,-0.04311 0.04977,-0.02871 0.0746,-0.07361 0.0746,-0.1342 0,-0.04728 -0.01818,-0.0894 -0.05533,-0.126452 -0.03675,-0.03685 -0.118804,-0.05543 -0.245256,-0.05543 l -0.218734,0 0,0.359192 z m 0.91278,-0.938111 0.184662,0 0,0.471042 c 0.0589,0 0.100228,-0.01122 0.12377,-0.03367 0.02344,-0.02275 0.05811,-0.08831 0.104003,-0.197277 0.03646,-0.08622 0.06596,-0.142942 0.08831,-0.170358 0.02285,-0.02732 0.04877,-0.04589 0.07818,-0.05533 0.0294,-0.0098 0.07679,-0.0144 0.141551,-0.0144 l 0.03715,0 0,0.152776 -0.05146,-9.93e-4 c -0.04838,0 -0.07957,0.0074 -0.09328,0.02175 -0.0143,0.015 -0.03645,0.0599 -0.06586,0.134498 -0.02801,0.07112 -0.05364,0.120194 -0.07708,0.147511 -0.02315,0.02771 -0.0592,0.05265 -0.107579,0.075 0.07917,0.02146 0.157345,0.09536 0.234031,0.221813 l 0.202244,0.337835 -0.203237,0 -0.197277,-0.337835 c -0.04033,-0.06765 -0.07569,-0.112446 -0.105493,-0.133803 -0.0301,-0.02175 -0.06626,-0.03228 -0.107976,-0.03228 l 0,0.503922 -0.184662,0 0,-1.09019 z"
   id="path38"
   style="fill:#2b2a29;fill-rule:nonzero" />
  <path
   d="m 21.9341,25.8705 0.199363,0.05046 c -0.04162,0.163305 -0.117015,0.288069 -0.22529,0.374291 -0.108671,0.08582 -0.241084,0.128638 -0.398031,0.128638 -0.162312,0 -0.294029,-0.03298 -0.395647,-0.09884 -0.101619,-0.06626 -0.179099,-0.161914 -0.231945,-0.286976 -0.05294,-0.125459 -0.07957,-0.260057 -0.07957,-0.403694 0,-0.15665 0.0298,-0.293333 0.0897,-0.410051 0.0599,-0.116618 0.145028,-0.205323 0.255785,-0.265917 0.11036,-0.06059 0.231945,-0.09079 0.364755,-0.09079 0.15069,0 0.277241,0.03824 0.379853,0.114929 0.102711,0.07679 0.174232,0.184364 0.214462,0.323432 l -0.195887,0.04629 c -0.03497,-0.109665 -0.08543,-0.189231 -0.15208,-0.239296 -0.06616,-0.05016 -0.149597,-0.075 -0.25052,-0.075 -0.115625,0 -0.211979,0.02762 -0.289757,0.08304 -0.07788,0.05573 -0.132512,0.129929 -0.163702,0.223502 -0.03149,0.09327 -0.04728,0.189629 -0.04728,0.288764 0,0.12824 0.01858,0.239693 0.05573,0.335352 0.03745,0.09536 0.09526,0.166782 0.174133,0.214065 0.07887,0.04738 0.164,0.07082 0.255785,0.07082 0.111453,0 0.205721,-0.03218 0.283201,-0.09635 0.07738,-0.06447 0.129631,-0.160126 0.156948,-0.286678 z m 0.321346,-0.562429 0.886159,0 0,0.152776 -0.351146,0 0,0.937415 -0.183967,0 0,-0.937415 -0.351046,0 0,-0.152776 z m 1.75066,0.955593 c -0.06864,0.05821 -0.134598,0.09924 -0.197575,0.123373 -0.06347,0.02384 -0.131419,0.03576 -0.204032,0.03576 -0.119797,0 -0.211582,-0.0291 -0.276049,-0.08761 -0.06417,-0.05851 -0.09635,-0.133505 -0.09635,-0.224296 0,-0.05354 0.01182,-0.102314 0.03636,-0.146418 0.02424,-0.0442 0.05612,-0.07957 0.09536,-0.106188 0.03963,-0.02662 0.08374,-0.04698 0.133108,-0.06059 0.03616,-0.0095 0.09079,-0.01897 0.164,-0.02771 0.149299,-0.01788 0.259361,-0.03894 0.329789,-0.06377 6.95e-4,-0.02523 9.93e-4,-0.04132 9.93e-4,-0.04798 0,-0.0754 -0.01748,-0.128638 -0.05255,-0.159133 -0.04689,-0.04202 -0.117313,-0.06268 -0.210191,-0.06268 -0.08692,0 -0.151087,0.015 -0.192708,0.04549 -0.04142,0.0305 -0.07192,0.08443 -0.09188,0.161914 l -0.180391,-0.02493 c 0.01639,-0.07708 0.04341,-0.139763 0.08086,-0.187046 0.03755,-0.04768 0.09218,-0.08443 0.163305,-0.110062 0.07112,-0.02563 0.153471,-0.03854 0.247441,-0.03854 0.09317,0 0.16857,0.01122 0.22668,0.03298 0.05821,0.02205 0.100923,0.04937 0.128638,0.08265 0.02732,0.03328 0.04629,0.075 0.05741,0.125856 0.006,0.03149 0.0091,0.08821 0.0091,0.170259 l 0,0.246348 c 0,0.172047 0.0039,0.280718 0.01192,0.325915 0.0077,0.0455 0.02344,0.0893 0.04659,0.131022 l -0.193006,0 c -0.01897,-0.03824 -0.03159,-0.08304 -0.03685,-0.134598 z m -0.0154,-0.412733 c -0.06725,0.02762 -0.167875,0.05076 -0.301677,0.07003 -0.07609,0.01093 -0.130028,0.02315 -0.161219,0.03685 -0.03159,0.01361 -0.05612,0.03358 -0.07291,0.0602 -0.01719,0.02632 -0.02593,0.05543 -0.02593,0.08761 0,0.04947 0.01897,0.09049 0.05602,0.123373 0.03715,0.03258 0.09188,0.04907 0.163702,0.04907 0.07112,0 0.134598,-0.0154 0.189927,-0.04659 0.05533,-0.03119 0.09635,-0.074 0.12228,-0.127942 0.01997,-0.04172 0.0298,-0.103307 0.0298,-0.184662 l 0,-0.06795 z m 0.473426,0.96503 0,-1.50789 0.168173,0 0,0.14165 c 0.03963,-0.05543 0.08443,-0.09715 0.134598,-0.124764 0.04977,-0.02771 0.11036,-0.04172 0.181483,-0.04172 0.09328,0 0.175225,0.02414 0.246348,0.07182 0.07152,0.04798 0.125161,0.115625 0.161219,0.202939 0.03646,0.08722 0.05463,0.182874 0.05463,0.286976 0,0.111453 -0.01997,0.211979 -0.0603,0.301379 -0.03993,0.0893 -0.09804,0.157643 -0.174431,0.205323 -0.07639,0.04728 -0.15665,0.07112 -0.240786,0.07112 -0.06169,0 -0.116717,-0.01301 -0.165689,-0.03894 -0.04907,-0.02593 -0.089,-0.05881 -0.120592,-0.09844 l 0,0.530543 -0.184662,0 z m 0.167179,-0.956686 c 0,0.14026 0.02831,0.243964 0.08513,0.311214 0.05672,0.06695 0.125757,0.100526 0.206416,0.100526 0.08195,0 0.152378,-0.03467 0.210886,-0.1044 0.05851,-0.06933 0.08801,-0.176914 0.08801,-0.322736 0,-0.139068 -0.02871,-0.242772 -0.08592,-0.312207 -0.05712,-0.06904 -0.12536,-0.103705 -0.204628,-0.103705 -0.07877,0 -0.148504,0.03675 -0.209197,0.11036 -0.06059,0.07361 -0.09069,0.180788 -0.09069,0.320948 z m 0.933144,-0.0063 c 0,-0.201847 0.05603,-0.351444 0.16857,-0.448493 0.09357,-0.08066 0.207807,-0.121287 0.342702,-0.121287 0.149994,0 0.272573,0.04907 0.367536,0.147511 0.09536,0.09814 0.142644,0.233733 0.142644,0.406872 0,0.140458 -0.02106,0.250918 -0.06308,0.33108 -0.04202,0.08066 -0.103307,0.143041 -0.183569,0.187543 -0.08066,0.0445 -0.168272,0.06655 -0.263533,0.06655 -0.152478,0 -0.275751,-0.04867 -0.370019,-0.146816 -0.09427,-0.09775 -0.141253,-0.2386 -0.141253,-0.422964 z m 0.189927,0 c 0,0.139763 0.0305,0.244262 0.09149,0.313598 0.06099,0.06973 0.137677,0.1044 0.229859,0.1044 0.09178,0 0.168173,-0.03497 0.229164,-0.104698 0.06059,-0.06973 0.09109,-0.176318 0.09109,-0.31926 0,-0.134896 -0.03049,-0.23721 -0.09178,-0.306644 -0.06129,-0.06934 -0.137379,-0.104003 -0.228468,-0.104003 -0.09218,0 -0.168868,0.03467 -0.229859,0.103705 -0.06099,0.06904 -0.09149,0.173437 -0.09149,0.312902 z m 1.84712,-0.995526 0.163206,0.0017 c -0.0076,0.07331 -0.02374,0.124466 -0.04897,0.153173 -0.02493,0.02871 -0.05712,0.04728 -0.09645,0.05533 -0.03924,0.0084 -0.11632,0.01232 -0.231548,0.01232 -0.152478,0 -0.25658,0.0147 -0.311909,0.0441 -0.05533,0.0295 -0.09536,0.07679 -0.119499,0.141253 -0.02454,0.06487 -0.03785,0.147908 -0.04063,0.249825 0.04659,-0.06904 0.100923,-0.12089 0.163305,-0.15516 0.06198,-0.03477 0.132412,-0.05195 0.210191,-0.05195 0.143041,0 0.261447,0.04907 0.355318,0.147213 0.09357,0.09814 0.140558,0.23125 0.140558,0.398826 0,0.127545 -0.02344,0.231548 -0.07083,0.3132 -0.04728,0.08135 -0.103009,0.144432 -0.167775,0.188933 -0.06447,0.0445 -0.152776,0.06655 -0.264229,0.06655 -0.129333,0 -0.230256,-0.0294 -0.302075,-0.08871 -0.07182,-0.0592 -0.12685,-0.134896 -0.165093,-0.227376 -0.03854,-0.09248 -0.05741,-0.253401 -0.05741,-0.482565 0,-0.287969 0.04867,-0.482167 0.14612,-0.581998 0.09745,-0.09983 0.247739,-0.149994 0.450281,-0.149994 0.125757,0 0.197277,-0.0021 0.214462,-0.006 0.01718,-0.0042 0.02801,-0.01401 0.03298,-0.02871 z m -0.0095,0.991652 c 0,-0.113837 -0.02662,-0.206714 -0.08056,-0.279228 -0.05364,-0.07261 -0.129333,-0.109069 -0.227078,-0.109069 -0.102016,0 -0.180788,0.03864 -0.236216,0.115029 -0.05533,0.07669 -0.08334,0.179 -0.08334,0.306942 0,0.12685 0.03079,0.223502 0.09218,0.290453 0.06089,0.06735 0.136584,0.100625 0.226283,0.100625 0.09149,0 0.166186,-0.03854 0.223303,-0.116419 0.05712,-0.07778 0.08543,-0.180391 0.08543,-0.308333 z m 0.416011,-0.743217 0,-0.212674 0.185059,0 0,0.212674 -0.185059,0 z m 0,1.29234 0,-1.09019 0.185059,0 0,1.09019 -0.185059,0 z m 0.556469,-1.09019 0.858445,0 0,1.09019 -0.183967,0 0,-0.937415 -0.489518,0 0,0.543159 c 0,0.126552 -0.0042,0.21029 -0.01222,0.25062 -0.0084,0.04023 -0.03089,0.07569 -0.06804,0.105791 -0.03675,0.0301 -0.09039,0.0452 -0.160126,0.0452 -0.04311,0 -0.09288,-0.0028 -0.148902,-0.0084 l 0,-0.153769 0.08125,0 c 0.03824,0 0.06556,-0.0043 0.08205,-0.01192 0.01649,-0.008 0.02732,-0.02036 0.03288,-0.03755 0.0057,-0.01708 0.0081,-0.07281 0.0081,-0.167477 l 0,-0.718384 z m 1.1335,0 0.184662,0 0,0.425845 0.23413,0 c 0.152776,0 0.270189,0.0297 0.352537,0.089 0.08265,0.0592 0.123671,0.140856 0.123671,0.244858 0,0.09079 -0.03437,0.168967 -0.103009,0.233435 -0.06874,0.06477 -0.178702,0.09705 -0.330087,0.09705 l -0.461903,0 0,-1.09019 z m 0.184662,0.938111 0.194198,0 c 0.117015,0 0.200357,-0.0144 0.25052,-0.04311 0.04977,-0.02871 0.0746,-0.07361 0.0746,-0.1342 0,-0.04728 -0.01818,-0.0894 -0.05533,-0.126452 -0.03675,-0.03685 -0.118804,-0.05543 -0.245256,-0.05543 l -0.218734,0 0,0.359192 z m 1.6252,-0.247441 0.181483,0.02384 c -0.01957,0.125161 -0.07043,0.223204 -0.152378,0.294029 -0.08165,0.07083 -0.182179,0.106188 -0.301379,0.106188 -0.148902,0 -0.269096,-0.04867 -0.35949,-0.14612 -0.09079,-0.09745 -0.136386,-0.23721 -0.136386,-0.419488 0,-0.117711 0.01967,-0.22072 0.05861,-0.309028 0.03924,-0.08831 0.09844,-0.154564 0.178305,-0.198668 0.07957,-0.0442 0.166484,-0.06626 0.260057,-0.06626 0.118406,0 0.215456,0.0301 0.290453,0.0901 0.0754,0.0599 0.123671,0.14473 0.145127,0.25509 l -0.179795,0.02762 c -0.01719,-0.07321 -0.04728,-0.12824 -0.09079,-0.165391 -0.04341,-0.03675 -0.09596,-0.05533 -0.157643,-0.05533 -0.09328,0 -0.168967,0.03328 -0.227078,0.100228 -0.05821,0.06655 -0.08732,0.172047 -0.08732,0.316379 0,0.146518 0.02811,0.253004 0.08453,0.319657 0.05602,0.06616 0.129234,0.09943 0.219628,0.09943 0.07261,0 0.13281,-0.02235 0.181583,-0.06685 0.04867,-0.0445 0.07957,-0.112843 0.09248,-0.205423 z m 0.336742,-0.69067 0.184662,0 0,0.425845 0.23413,0 c 0.152776,0 0.270189,0.0297 0.352537,0.089 0.08265,0.0592 0.123671,0.140856 0.123671,0.244858 0,0.09079 -0.03437,0.168967 -0.103009,0.233435 -0.06874,0.06477 -0.178702,0.09705 -0.330087,0.09705 l -0.461903,0 0,-1.09019 z m 0.184662,0.938111 0.194198,0 c 0.117015,0 0.200357,-0.0144 0.25052,-0.04311 0.04977,-0.02871 0.0746,-0.07361 0.0746,-0.1342 0,-0.04728 -0.01818,-0.0894 -0.05533,-0.126452 -0.03675,-0.03685 -0.118804,-0.05543 -0.245256,-0.05543 l -0.218734,0 0,0.359192 z m 0.91278,-0.938111 0.184662,0 0,0.471042 c 0.0589,0 0.100228,-0.01122 0.12377,-0.03367 0.02344,-0.02275 0.05811,-0.08831 0.104003,-0.197277 0.03646,-0.08622 0.06596,-0.142942 0.08831,-0.170358 0.02285,-0.02732 0.04877,-0.04589 0.07818,-0.05533 0.0294,-0.0098 0.07679,-0.0144 0.141551,-0.0144 l 0.03715,0 0,0.152776 -0.05145,-9.93e-4 c -0.04838,0 -0.07957,0.0074 -0.09327,0.02175 -0.0143,0.015 -0.03646,0.0599 -0.06586,0.134498 -0.02801,0.07112 -0.05364,0.120194 -0.07708,0.147511 -0.02314,0.02771 -0.0592,0.05265 -0.107579,0.075 0.07917,0.02146 0.157345,0.09536 0.234031,0.221813 l 0.202244,0.337835 -0.203237,0 -0.197277,-0.337835 c -0.04033,-0.06765 -0.07569,-0.112446 -0.105493,-0.133803 -0.0301,-0.02175 -0.06626,-0.03228 -0.107976,-0.03228 l 0,0.503922 -0.184662,0 0,-1.09019 z"
   id="path40"
   style="fill:#2b2a29;fill-rule:nonzero" />
  <g
   id="_382377512">
   <path
   d="m 38.7021,53.6205 c 0.612295,0 1.09685,-0.483856 1.09685,-1.09456 0,-0.611004 -0.484551,-1.09407 -1.09685,-1.09407 -0.608421,0 -1.1187,0.483061 -1.1187,1.09407 0,0.610706 0.510279,1.09456 1.1187,1.09456 z"
   id="_382377632"
   style="fill:#fefefe;stroke:#2b2a29;stroke-width:0.15367" />
   <path
   d="m 38.7021,53.1367 c 0.33267,0 0.587263,-0.279228 0.587263,-0.610706 0,-0.330584 -0.254593,-0.611004 -0.587263,-0.611004 -0.329491,0 -0.608421,0.28042 -0.608421,0.611004 0,0.331478 0.27893,0.610706 0.608421,0.610706"
   id="_382377584"
   style="fill:none;stroke:#2b2a29;stroke-width:0.18446299" />
  </g>
  <path
   d="m 33.0202,48.1168 1.40597,0 0,2.50848 -0.405084,0 0,-2.08393 -0.603653,0 0,1.07122 c 0,0.306545 -0.0084,0.520908 -0.02473,0.642393 -0.01639,0.121486 -0.05662,0.216151 -0.119698,0.283897 -0.06348,0.06775 -0.16261,0.101619 -0.298101,0.101619 -0.04718,0 -0.133505,-0.0053 -0.258268,-0.01699 l 0,-0.391873 0.0901,0.0018 c 0.08513,0 0.142048,-0.01401 0.170954,-0.04261 0.0295,-0.02871 0.044,-0.09874 0.044,-0.210886 l -0.0015,-0.43101 0,-1.4321 z m 1.63861,0.691464 0.409356,0 0.34757,1.29025 0.339722,-1.29025 0.398131,0 -0.51306,1.74868 -0.09208,0.316578 c -0.03357,0.105691 -0.06586,0.186847 -0.09615,0.242971 -0.03089,0.05602 -0.06596,0.101023 -0.105691,0.136088 -0.03973,0.03447 -0.08821,0.06189 -0.14622,0.08116 -0.05791,0.01927 -0.123373,0.0292 -0.196681,0.0292 -0.0739,0 -0.14622,-0.0099 -0.21774,-0.0292 l -0.03417,-0.376675 c 0.06039,0.0152 0.114532,0.02215 0.163106,0.02215 0.0892,0 0.155557,-0.03268 0.198569,-0.09814 0.04251,-0.06536 0.07569,-0.148902 0.09864,-0.25052 l -0.553291,-1.82228 z m 1.72603,0 0.981619,0 0,0.388396 -0.5966,0 0,1.42862 -0.385019,0 0,-1.81702 z m 1.47034,0.554284 -0.34906,-0.07887 c 0.03934,-0.175722 0.106585,-0.305452 0.202343,-0.390085 0.09625,-0.08414 0.238302,-0.12675 0.427037,-0.12675 0.172047,0 0.299591,0.02573 0.383628,0.07649 0.08364,0.05086 0.142942,0.115029 0.177113,0.193304 0.03407,0.07827 0.05136,0.221416 0.05136,0.430514 l -0.0042,0.561237 c 0,0.159431 0.0061,0.27744 0.01867,0.353331 0.01212,0.0754 0.03546,0.157146 0.06914,0.243567 l -0.380747,0 c -0.0098,-0.03208 -0.02245,-0.07947 -0.03695,-0.141948 -0.0061,-0.02861 -0.01073,-0.04728 -0.01351,-0.05662 -0.06586,0.07996 -0.135988,0.139564 -0.210787,0.179894 -0.0748,0.03973 -0.154663,0.0596 -0.239693,0.0596 -0.149498,0 -0.267705,-0.05086 -0.353629,-0.151882 -0.08652,-0.101619 -0.129532,-0.230157 -0.129532,-0.385515 0,-0.102215 0.01967,-0.1939 0.05891,-0.27446 0.03924,-0.08066 0.09447,-0.141948 0.164994,-0.184563 0.07053,-0.04261 0.172841,-0.08006 0.306048,-0.112148 0.179397,-0.04202 0.304061,-0.08175 0.373297,-0.118009 l 0,-0.04788 c 0,-0.09288 -0.01828,-0.158239 -0.05463,-0.197973 -0.03646,-0.03914 -0.105195,-0.059 -0.206515,-0.059 -0.06874,0 -0.121982,0.01699 -0.160325,0.05086 -0.03834,0.03328 -0.06914,0.09228 -0.09298,0.176914 z m 0.514451,0.390184 c -0.04907,0.02046 -0.127148,0.045 -0.23413,0.07361 -0.106486,0.02861 -0.176119,0.05662 -0.209297,0.08344 -0.04997,0.045 -0.0752,0.101122 -0.0752,0.169464 0,0.06775 0.02007,0.125558 0.0603,0.174629 0.04013,0.04897 0.09109,0.07351 0.153173,0.07351 0.06963,0 0.135492,-0.02861 0.198569,-0.08523 0.04679,-0.04321 0.07708,-0.09635 0.09159,-0.159431 0.01033,-0.04093 0.015,-0.119201 0.015,-0.23423 l 0,-0.09576 z m 0.741926,-0.944468 0.385019,0 0,0.66524 0.549913,0 0,-0.66524 0.386409,0 0,1.81702 -0.386409,0 0,-0.763382 -0.549913,0 0,0.763382 -0.385019,0 0,-1.81702 z m 2.97635,0.537397 -0.379456,0.08523 c -0.01252,-0.09457 -0.04152,-0.165888 -0.08682,-0.213767 -0.0454,-0.04788 -0.103804,-0.07182 -0.175722,-0.07182 -0.09625,0 -0.172444,0.04142 -0.229462,0.12377 -0.05692,0.08294 -0.08543,0.221416 -0.08543,0.415316 0,0.215456 0.029,0.367933 0.08692,0.456738 0.05791,0.0887 0.135492,0.133108 0.233137,0.133108 0.07331,0 0.13271,-0.02563 0.179397,-0.07768 0.04669,-0.05195 0.07947,-0.141352 0.09854,-0.267507 l 0.378065,0.08006 c -0.03924,0.216648 -0.115029,0.380747 -0.226184,0.491207 -0.111155,0.110956 -0.260255,0.165888 -0.447599,0.165888 -0.212575,0 -0.382138,-0.08354 -0.508392,-0.251216 -0.126552,-0.167577 -0.189629,-0.400018 -0.189629,-0.696729 0,-0.299591 0.06357,-0.533225 0.190125,-0.700305 0.127048,-0.167577 0.298598,-0.251116 0.514848,-0.251116 0.177113,0 0.31777,0.04788 0.422468,0.143041 0.104201,0.09526 0.179397,0.240686 0.22519,0.435778 z m 0.299492,-0.537397 0.384522,0 0,0.754641 0.386409,0 c 0.151385,0 0.267705,0.01341 0.34906,0.04083 0.08125,0.02752 0.148504,0.08652 0.202343,0.177013 0.05414,0.09049 0.08076,0.196284 0.08076,0.315982 0,0.175225 -0.04818,0.307737 -0.144332,0.395945 -0.09625,0.08821 -0.240686,0.132611 -0.433196,0.132611 l -0.825565,0 0,-1.81702 z m 0.384522,1.51276 0.358894,0 c 0.112049,0 0.183967,-0.02334 0.215356,-0.06894 0.03179,-0.04559 0.04768,-0.09993 0.04768,-0.162411 0,-0.08761 -0.02761,-0.148306 -0.08185,-0.181583 -0.05414,-0.03268 -0.150392,-0.04967 -0.289261,-0.04967 l -0.250818,0 0,0.462599 z m 1.31528,-1.51276 0.383529,0 0,0.742323 c 0.06357,-0.0087 0.10887,-0.03328 0.135492,-0.07351 0.02622,-0.03973 0.05841,-0.127346 0.09586,-0.261745 0.04907,-0.179298 0.103208,-0.293731 0.161616,-0.343994 0.05841,-0.05016 0.134995,-0.0753 0.229958,-0.0753 0.02891,0 0.07986,0.0029 0.151782,0.0087 l 0.0014,0.318266 c -0.101321,0 -0.166285,0.01172 -0.194397,0.03566 -0.02841,0.02513 -0.05881,0.09993 -0.09149,0.224296 -0.0449,0.167577 -0.109367,0.270983 -0.193006,0.309525 0.121088,0.04261 0.2238,0.174033 0.307836,0.395449 0.0043,0.01162 0.0094,0.02334 0.0151,0.03616 l 0.21486,0.50114 -0.413528,0 -0.191516,-0.52508 c -0.03934,-0.106287 -0.07341,-0.17463 -0.101917,-0.205025 -0.02891,-0.0297 -0.07142,-0.0449 -0.128042,-0.0449 l 0,0.775004 -0.383529,0 0,-1.81702 z"
   id="path45"
   style="fill:#2b2a29;fill-rule:nonzero" />
 </g>
</svg>