<?xml version="1.0" encoding="UTF-8" standalone="no"?>
<!-- Created with Inkscape (http://www.inkscape.org/) -->

<svg
   xmlns:svg="http://www.w3.org/2000/svg"
   xmlns="http://www.w3.org/2000/svg"
   version="1.1"
   width="68.802002mm"
   height="69.492203mm"
   viewBox="0 0 71.2237 71.9382"
   id="svg2"
   xml:space="preserve"
   style="fill-rule:evenodd">
 <defs
   id="defs4">
  <style
   type="text/css"
   id="style6" />
 </defs>
 <g
   id="Layer_x0020_1">
  
  <path
   d="m 19.6772,71.5157 1.53375,-4.94639 1.24286,-0.422775 -0.952072,-1.16356 0.899277,-2.08965 -0.07899,-0.6882 1.61346,-1.69203 1.11077,0 0,-1.66646 1.32236,-0.978366 0.132505,-0.608179 0.766875,0 1.58655,1.11035 1.26926,-0.502175 1.11108,0.370187 1.19006,-0.926089 1.24296,0.926089 1.03168,-0.926089 1.26926,-0.131884 0.608593,0.555902 0.979194,0.343997 0.978056,-0.6088 0.845964,0.343375 0.687579,-0.343375 2.56543,-0.07899 0.423396,-0.819981 0.634784,0.05321 0.555281,0.845757 0.820395,0.0529 0.422154,-2.00994 -0.845757,-0.264286 -1.45445,-0.212319 -0.89907,-0.634577 -0.132402,-1.66522 -1.1117,-0.424017 1.37578,-1.24327 0.50321,0.476813 0.607558,-1.03137 1.32288,-0.767703 -0.687993,-1.32257 0.766772,-0.978366 0.212837,-1.66605 0.818946,-2.93572 1.32257,0.370084 -0.265011,0.89907 0.688511,0.608904 1.18955,-0.556005 2.90912,1.53479 0.97878,0 0.502485,-2.56543 1.11098,0 4.65498,-2.43386 1.24317,-2.93531 0.687061,-0.185197 0.767186,0.740685 1.19006,-1.71957 -0.555488,-0.978056 0.291408,-1.66657 0.898863,0.343272 1.53406,-0.898553 0.265218,0.608076 2.4321,0 0.688097,-0.819877 1.53375,-0.34379 0.978366,-2.93603 0.211698,-1.66605 -1.58706,-1.32185 -1.13675,-0.979091 -0.740788,-1.53406 -1.53344,-0.951969 -0.424224,-1.48106 c 0,0 1.6676,0.423189 0.978366,-0.555074 -0.712941,-0.9529 -0.554142,-1.37557 -0.554142,-1.37557 l -0.291201,-1.82474 1.32236,-0.476606 -0.0528,-1.66532 -2.45953,0.131367 -1.11077,-0.634266 0.634991,-1.45487 -0.475881,-0.767082 -0.979194,0 -0.846793,-1.11077 -0.687372,-0.132298 -0.07847,1.58686 -1.1118,0.159007 -0.132402,-1.40207 -0.686854,1.191 -2.03706,0.211077 -1.50766,-0.766772 -0.211491,-1.66667 -1.61294,-0.766772 0.07888,-0.8462748 -0.766772,0.131677 -0.766979,-0.264079 0.899484,-3.06771 -0.476916,-0.2647 -0.633852,0.608283 -0.6882,-2.43334 -2.00994,0.211698 -1.40145,-1.16408 0.475984,-0.846171 -0.820291,-0.687579 -1.05746,0.211491 -0.555591,0.952279 -1.79814,-0.608283 -2.37982,-2.59203 -1.45549,0.0797103 -0.05311,1.58717 -0.422982,1.90342 -0.290477,1.71988 -0.820291,1.26905 -1.53385,1.32267 -2.51232,0.264183 -2.43313,0 -2.00984,0.291098 -0.688821,2.0632495 -1.74462,1.48075 -4.04701,3.12092 -2.14234,1.66626 -2.56522,1.40114 -1.26895,1.79855 -17.8001995,19.0692 1.87795,1.66615 0.211802,4.52237 -0.343479,4.0203 -0.925778,1.48106 -0.740892,0.687786 -0.290684,2.22174 1.74607,-0.845757 2.85529,3.14659 -0.845861,2.909121 0,0.0529 0.078675,0.02619 1.66636,1.40249 -0.343893,0.687372 -1.32247,0.0528 -0.158282,1.32247 2.93541,3.83469 0.978987,-0.819153 1.66615,0.05238 0.8197744,2.08976 1.05725,2.08882 2.43417,0 0.766979,1.40187 0.34379,-0.714287 1.95777,1.19079 1.66626,0.422568 1.37474,-0.131781 0,-0.290787 z"
   id="path10"
   style="fill:#ffdf49" />
  <g
   id="_386680272">
   <path
   d="m 28.5617,55.1907 c 0.487786,0 0.893584,-0.385922 0.893584,-0.874018 0,-0.487268 -0.405798,-0.873501 -0.893584,-0.873501 -0.467185,0 -0.853004,0.386233 -0.853004,0.873501 0,0.488096 0.385819,0.874018 0.853004,0.874018 z"
   id="_386680368"
   style="fill:#fefefe;stroke:#2b2a29;stroke-width:0.122671" />
   <path
   d="m 28.5735,54.5256 c 0.112837,0 0.2088,-0.09576 0.2088,-0.208903 0,-0.112526 -0.09596,-0.208593 -0.2088,-0.208593 -0.104452,0 -0.190787,0.09607 -0.190787,0.208593 0,0.113147 0.08634,0.208903 0.190787,0.208903 z"
   id="_386680320"
   style="fill:#2b2a29;stroke:#2b2a29;stroke-width:0.0788821" />
  </g>
  <g
   id="_386680104">
   <path
   d="m 20.6597,49.8507 c 0.488096,0 0.894101,-0.385508 0.894101,-0.873397 0,-0.487475 -0.406005,-0.873708 -0.894101,-0.873708 -0.467185,0 -0.852797,0.386233 -0.852797,0.873708 0,0.487889 0.385612,0.873397 0.852797,0.873397 z"
   id="_386680200"
   style="fill:#fefefe;stroke:#2b2a29;stroke-width:0.122671" />
   <path
   d="m 20.671,49.1863 c 0.113768,0 0.209731,-0.09596 0.209731,-0.209007 0,-0.112837 -0.09596,-0.208489 -0.209731,-0.208489 -0.103934,0 -0.190477,0.09565 -0.190477,0.208489 0,0.113044 0.08654,0.209007 0.190477,0.209007 z"
   id="_386680152"
   style="fill:#2b2a29;stroke:#2b2a29;stroke-width:0.0788821" />
  </g>
  <g
   id="_386679936">
   <path
   d="m 65.0829,25.8244 c 0.488303,0 0.894205,-0.385715 0.894205,-0.874329 0,-0.487475 -0.405901,-0.873397 -0.894205,-0.873397 -0.466771,0 -0.852279,0.385922 -0.852279,0.873397 0,0.488614 0.385508,0.874329 0.852279,0.874329 z"
   id="_386680032"
   style="fill:#fefefe;stroke:#2b2a29;stroke-width:0.122671" />
   <path
   d="m 65.0947,25.1594 c 0.113458,0 0.208593,-0.09586 0.208593,-0.209317 0,-0.112319 -0.09513,-0.208075 -0.208593,-0.208075 -0.104141,0 -0.190373,0.09576 -0.190373,0.208075 0,0.113458 0.08623,0.209317 0.190373,0.209317 z"
   id="_386679984"
   style="fill:#2b2a29;stroke:#2b2a29;stroke-width:0.0788821" />
  </g>
  <g
   id="_386679768">
   <path
   d="m 20.4457,26.4646 c 0.488614,0 0.894101,-0.385819 0.894101,-0.873811 0,-0.487579 -0.405487,-0.873501 -0.894101,-0.873501 -0.466254,0 -0.852486,0.385922 -0.852486,0.873501 0,0.487993 0.386233,0.873811 0.852486,0.873811 z"
   id="_386679864"
   style="fill:#fefefe;stroke:#2b2a29;stroke-width:0.122671" />
   <path
   d="m 20.4579,25.7995 c 0.113044,0 0.209007,-0.09534 0.209007,-0.208696 0,-0.112423 -0.09596,-0.208282 -0.209007,-0.208282 -0.104348,0 -0.190891,0.09586 -0.190891,0.208282 0,0.113354 0.08654,0.208696 0.190891,0.208696 z"
   id="_386679816"
   style="fill:#2b2a29;stroke:#2b2a29;stroke-width:0.0788821" />
  </g>
  <g
   id="_386679600">
   <path
   d="m 27.3711,15.2118 c 0.487889,0 0.893687,-0.385612 0.893687,-0.874018 0,-0.487268 -0.405798,-0.87319 -0.893687,-0.87319 -0.466978,0 -0.853314,0.385922 -0.853314,0.87319 0,0.488407 0.386336,0.874018 0.853314,0.874018 z"
   id="_386679696"
   style="fill:#fefefe;stroke:#2b2a29;stroke-width:0.122671" />
   <path
   d="m 27.3825,14.5468 c 0.113458,0 0.209421,-0.09555 0.209421,-0.209007 0,-0.112112 -0.09596,-0.208282 -0.209421,-0.208282 -0.103934,0 -0.19058,0.09617 -0.19058,0.208282 0,0.113458 0.08665,0.209007 0.19058,0.209007 z"
   id="_386679648"
   style="fill:#2b2a29;stroke:#2b2a29;stroke-width:0.0788821" />
  </g>
  <g
   id="_386679432">
   <path
   d="m 13.5093,42.9057 c 0.488096,0 0.894101,-0.385922 0.894101,-0.874122 0,-0.487579 -0.406005,-0.873397 -0.894101,-0.873397 -0.466875,0 -0.853107,0.385819 -0.853107,0.873397 0,0.4882 0.386233,0.874122 0.853107,0.874122 z"
   id="_386679528"
   style="fill:#fefefe;stroke:#2b2a29;stroke-width:0.122671" />
   <path
   d="m 13.5211,42.2407 c 0.113044,0 0.20911,-0.09576 0.20911,-0.20911 0,-0.112733 -0.09607,-0.208489 -0.20911,-0.208489 -0.104141,0 -0.190684,0.09576 -0.190684,0.208489 0,0.113354 0.08654,0.20911 0.190684,0.20911 z"
   id="_386679480"
   style="fill:#2b2a29;stroke:#2b2a29;stroke-width:0.0788821" />
  </g>
  <g
   id="_386679264">
   <path
   d="m 42.4441,12.0488 c 0.487682,0 0.894101,-0.385922 0.894101,-0.873811 0,-0.487475 -0.406419,-0.874225 -0.894101,-0.874225 -0.466461,0 -0.852693,0.38675 -0.852693,0.874225 0,0.487889 0.386233,0.873811 0.852693,0.873811 z"
   id="_386679360"
   style="fill:#fefefe;stroke:#2b2a29;stroke-width:0.122671" />
   <path
   d="m 42.4559,11.3835 c 0.113458,0 0.2088,-0.09534 0.2088,-0.208489 0,-0.11263 -0.09534,-0.208386 -0.2088,-0.208386 -0.104452,0 -0.19058,0.09576 -0.19058,0.208386 0,0.113147 0.08613,0.208489 0.19058,0.208489 z"
   id="_386679312"
   style="fill:#2b2a29;stroke:#2b2a29;stroke-width:0.0788821" />
  </g>
  <path
   d="m 10.8395,50.2449 0.954246,0 0,1.38323 0.141305,0 0,0.55114 -0.185094,0 0,-0.365943 -1.03675,0 0,0.365943 -0.185197,0 0,-0.55114 0.121946,0 c 0.126398,-0.190166 0.189545,-0.575156 0.189545,-1.15425 l 0,-0.228986 z m 0.746482,0.185094 -0.546688,0 0,0.08033 c 0,0.133334 -0.0117,0.315529 -0.03582,0.547103 -0.02371,0.23147 -0.07081,0.42174 -0.14058,0.570705 l 0.723086,0 0,-1.19814 z m 0.570395,1.81864 0,-1.57143 0.175259,0 0,0.147619 c 0.0413,-0.05776 0.08799,-0.101242 0.140269,-0.130021 0.05186,-0.02888 0.115011,-0.04348 0.189131,-0.04348 0.09721,0 0.182609,0.02515 0.256729,0.07484 0.07453,0.05 0.130435,0.120497 0.168013,0.211491 0.03799,0.09089 0.05694,0.19058 0.05694,0.299069 0,0.116149 -0.02081,0.220911 -0.06284,0.314079 -0.04162,0.09306 -0.102174,0.164286 -0.181781,0.213976 -0.07961,0.04928 -0.163251,0.07412 -0.250932,0.07412 -0.06429,0 -0.121636,-0.01356 -0.172671,-0.04058 -0.05114,-0.02702 -0.09275,-0.06128 -0.125673,-0.102588 l 0,0.5529 -0.192443,0 z m 0.174224,-0.997 c 0,0.14617 0.0295,0.254245 0.08872,0.324328 0.05911,0.06977 0.131055,0.104762 0.215114,0.104762 0.0854,0 0.158799,-0.03613 0.219773,-0.108799 0.06097,-0.07226 0.09172,-0.184369 0.09172,-0.336336 0,-0.144928 -0.02992,-0.253003 -0.08955,-0.325363 -0.05952,-0.07195 -0.130642,-0.108075 -0.213251,-0.108075 -0.08209,0 -0.154762,0.0383 -0.218013,0.115011 -0.06315,0.07671 -0.09451,0.188406 -0.09451,0.334473 z m 0.972466,-0.0065 c 0,-0.210352 0.05838,-0.366253 0.175673,-0.467392 0.09752,-0.08406 0.216564,-0.126398 0.357144,-0.126398 0.156315,0 0.284059,0.05114 0.383024,0.153727 0.09938,0.102278 0.148655,0.243582 0.148655,0.424017 0,0.146377 -0.02195,0.261491 -0.06574,0.345032 -0.04379,0.08406 -0.107661,0.149069 -0.191305,0.195446 -0.08406,0.04638 -0.175363,0.06936 -0.274638,0.06936 -0.158903,0 -0.287371,-0.05072 -0.385612,-0.153002 -0.09824,-0.101864 -0.147205,-0.248655 -0.147205,-0.440788 z m 0.19793,0 c 0,0.145652 0.03178,0.254555 0.09534,0.326812 0.06356,0.07267 0.143479,0.108799 0.239545,0.108799 0.09565,0 0.175259,-0.03644 0.23882,-0.10911 0.06315,-0.07267 0.09493,-0.183748 0.09493,-0.332713 0,-0.14058 -0.03178,-0.247205 -0.09565,-0.319566 -0.06387,-0.07226 -0.143168,-0.108385 -0.238096,-0.108385 -0.09607,0 -0.175984,0.03613 -0.239545,0.108075 -0.06356,0.07195 -0.09534,0.180746 -0.09534,0.326088 z m 1.09338,-0.56791 0.653728,0 0,0.159214 -0.46087,0 0,0.976917 -0.192858,0 0,-1.13613 z m 0.678159,0.56791 c 0,-0.210352 0.05838,-0.366253 0.175673,-0.467392 0.09752,-0.08406 0.216564,-0.126398 0.357144,-0.126398 0.156315,0 0.284059,0.05114 0.383024,0.153727 0.09938,0.102278 0.148655,0.243582 0.148655,0.424017 0,0.146377 -0.02195,0.261491 -0.06574,0.345032 -0.04379,0.08406 -0.107661,0.149069 -0.191305,0.195446 -0.08406,0.04638 -0.175363,0.06936 -0.274638,0.06936 -0.158903,0 -0.287371,-0.05072 -0.385612,-0.153002 -0.09824,-0.101864 -0.147205,-0.248655 -0.147205,-0.440788 z m 0.19793,0 c 0,0.145652 0.03178,0.254555 0.09534,0.326812 0.06356,0.07267 0.143479,0.108799 0.239545,0.108799 0.09565,0 0.175259,-0.03644 0.23882,-0.10911 0.06315,-0.07267 0.09493,-0.183748 0.09493,-0.332713 0,-0.14058 -0.03178,-0.247205 -0.09565,-0.319566 -0.06387,-0.07226 -0.143168,-0.108385 -0.238096,-0.108385 -0.09607,0 -0.175984,0.03613 -0.239545,0.108075 -0.06356,0.07195 -0.09534,0.180746 -0.09534,0.326088 z m 1.92495,-1.03748 0.170083,0.0018 c -0.008,0.0764 -0.02474,0.12971 -0.05103,0.159628 -0.02598,0.02992 -0.05952,0.04928 -0.100518,0.05766 -0.04089,0.0088 -0.121222,0.01284 -0.241305,0.01284 -0.158903,0 -0.267392,0.01532 -0.325052,0.04596 -0.05766,0.03074 -0.09938,0.08002 -0.124534,0.147205 -0.02557,0.0676 -0.03944,0.154141 -0.04234,0.260352 0.04855,-0.07195 0.105176,-0.125984 0.170187,-0.161698 0.0646,-0.03623 0.137992,-0.05414 0.219048,-0.05414 0.149069,0 0.272464,0.05114 0.370291,0.153416 0.09752,0.102278 0.146481,0.240994 0.146481,0.415632 0,0.13292 -0.02443,0.241305 -0.07381,0.326398 -0.04928,0.08478 -0.10735,0.150518 -0.174845,0.196895 -0.06718,0.04638 -0.159214,0.06936 -0.275363,0.06936 -0.134783,0 -0.239959,-0.03064 -0.314804,-0.09244 -0.07484,-0.0617 -0.132195,-0.14058 -0.17205,-0.236957 -0.04016,-0.09638 -0.05983,-0.264079 -0.05983,-0.5029 0,-0.300104 0.05072,-0.502485 0.152278,-0.606523 0.101553,-0.104037 0.258179,-0.156315 0.469256,-0.156315 0.131056,0 0.20559,-0.0022 0.223499,-0.0062 0.01791,-0.0043 0.02919,-0.0146 0.03437,-0.02992 z m -0.0099,1.03344 c 0,-0.118634 -0.02774,-0.215425 -0.08395,-0.290994 -0.0559,-0.07567 -0.134783,-0.113665 -0.236646,-0.113665 -0.106315,0 -0.188406,0.04027 -0.24617,0.119876 -0.05766,0.07992 -0.08685,0.186543 -0.08685,0.319876 0,0.132195 0.03209,0.23292 0.09607,0.302692 0.06346,0.07019 0.14234,0.104866 0.235818,0.104866 0.09534,0 0.173189,-0.04017 0.232713,-0.121325 0.05952,-0.08106 0.08903,-0.187992 0.08903,-0.321326 z m 0.432817,-0.563873 0.192443,0 0,0.866668 0.533852,-0.866668 0.207454,0 0,1.13613 -0.192443,0 0,-0.861078 -0.533852,0.861078 -0.207454,0 0,-1.13613 z m 1.15331,0 0.192754,0 0,0.215114 c 0,0.09244 0.0055,0.159938 0.01646,0.201553 0.01097,0.04172 0.03758,0.07816 0.07961,0.109213 0.04203,0.03106 0.09493,0.04638 0.158489,0.04638 0.07267,0 0.166874,-0.01936 0.282299,-0.05766 l 0,-0.514597 0.192754,0 0,1.13613 -0.192754,0 0,-0.457972 c -0.118323,0.03727 -0.228986,0.05559 -0.331574,0.05559 -0.08623,0 -0.162526,-0.02195 -0.228261,-0.06574 -0.06615,-0.04389 -0.110973,-0.09752 -0.134369,-0.161077 -0.02381,-0.06315 -0.0354,-0.133334 -0.0354,-0.209628 l 0,-0.297309 z"
   id="path33"
   style="fill:#2b2a29;fill-rule:nonzero" />
  <path
   d="m 30.8171,52.7368 0.207764,0.05259 c -0.04338,0.170187 -0.121946,0.300208 -0.234783,0.390063 -0.113251,0.08944 -0.251243,0.134058 -0.414804,0.134058 -0.169151,0 -0.306419,-0.03437 -0.41232,-0.103002 -0.105901,-0.06905 -0.186646,-0.168737 -0.241719,-0.299069 -0.05518,-0.130746 -0.08292,-0.271015 -0.08292,-0.420705 0,-0.163251 0.03106,-0.305694 0.09348,-0.42733 0.06242,-0.121532 0.151139,-0.213976 0.266564,-0.277123 0.115011,-0.06315 0.241719,-0.09462 0.380125,-0.09462 0.15704,0 0.288924,0.03986 0.39586,0.119772 0.10704,0.08002 0.181574,0.192133 0.223499,0.337061 l -0.204141,0.04824 c -0.03644,-0.114286 -0.08903,-0.197205 -0.158489,-0.249379 -0.06894,-0.05228 -0.155901,-0.07816 -0.261077,-0.07816 -0.120497,0 -0.220911,0.02878 -0.301967,0.08654 -0.08116,0.05808 -0.138096,0.135404 -0.170601,0.23292 -0.03282,0.09721 -0.04928,0.197619 -0.04928,0.300932 0,0.133644 0.01936,0.249793 0.05807,0.349483 0.03903,0.09938 0.09928,0.17381 0.18147,0.223085 0.08219,0.04938 0.170911,0.07381 0.266564,0.07381 0.116149,0 0.21439,-0.03354 0.295135,-0.100414 0.08064,-0.06718 0.135093,-0.166874 0.163561,-0.298758 z m 0.334887,-0.58613 0.923501,0 0,0.159214 -0.365943,0 0,0.976917 -0.191719,0 0,-0.976917 -0.365839,0 0,-0.159214 z m 1.10756,1.57143 0,-1.57143 0.175259,0 0,0.147619 c 0.0413,-0.05776 0.08799,-0.101242 0.140269,-0.130021 0.05186,-0.02888 0.115011,-0.04348 0.189131,-0.04348 0.0972,0 0.182609,0.02516 0.256729,0.07485 0.07453,0.05 0.130435,0.120497 0.168013,0.211491 0.03799,0.09089 0.05694,0.19058 0.05694,0.299069 0,0.116149 -0.02081,0.220911 -0.06284,0.314079 -0.04162,0.09306 -0.102174,0.164286 -0.181781,0.213976 -0.07961,0.04928 -0.163251,0.07412 -0.250932,0.07412 -0.06429,0 -0.121636,-0.01356 -0.172671,-0.04058 -0.05114,-0.02702 -0.09275,-0.06128 -0.125673,-0.102588 l 0,0.5529 -0.192443,0 z m 0.174224,-0.997 c 0,0.14617 0.0295,0.254245 0.08872,0.324328 0.05911,0.06977 0.131056,0.104762 0.215114,0.104762 0.0854,0 0.158799,-0.03613 0.219773,-0.108799 0.06097,-0.07226 0.09172,-0.184369 0.09172,-0.336336 0,-0.144928 -0.02992,-0.253003 -0.08955,-0.325363 -0.05952,-0.07195 -0.130642,-0.108075 -0.213251,-0.108075 -0.08209,0 -0.154762,0.0383 -0.218013,0.115011 -0.06315,0.07671 -0.09451,0.188406 -0.09451,0.334473 z m 1.04441,-0.574432 0.192443,0 0,0.866668 0.533852,-0.866668 0.207454,0 0,1.13613 -0.192443,0 0,-0.861078 -0.533852,0.861078 -0.207454,0 0,-1.13613 z m 1.22412,0 0.192443,0 0,0.866668 0.533852,-0.866668 0.207454,0 0,1.13613 -0.192443,0 0,-0.861078 -0.533852,0.861078 -0.207454,0 0,-1.13613 z m 0.668635,-0.430125 0.13147,0 c -0.01056,0.08913 -0.04306,0.157764 -0.09783,0.205176 -0.05445,0.04793 -0.127122,0.07195 -0.217702,0.07195 -0.0913,0 -0.164286,-0.02371 -0.218737,-0.07122 -0.05476,-0.04741 -0.08727,-0.116046 -0.09783,-0.205901 l 0.13147,0 c 0.0098,0.04855 0.02992,0.08468 0.05952,0.108489 0.0295,0.02402 0.06936,0.03571 0.119048,0.03571 0.05807,0 0.101449,-0.01128 0.131056,-0.03468 0.02961,-0.02298 0.04969,-0.05952 0.05952,-0.109524 z"
   id="path35"
   style="fill:#2b2a29;fill-rule:nonzero" />
  <path
   d="m 6.89867,39.9631 0.207764,0.05259 c -0.043375,0.170187 -0.121946,0.300208 -0.234783,0.390063 -0.113251,0.08944 -0.251243,0.134058 -0.414804,0.134058 -0.169151,0 -0.306419,-0.03437 -0.41232,-0.103002 -0.105901,-0.06905 -0.186646,-0.168737 -0.241719,-0.299069 -0.055176,-0.130746 -0.082919,-0.271015 -0.082919,-0.420705 0,-0.163251 0.031056,-0.305694 0.093478,-0.42733 0.062422,-0.121532 0.151139,-0.213976 0.266564,-0.277123 0.115011,-0.06315 0.241719,-0.09462 0.380125,-0.09462 0.15704,0 0.288924,0.03986 0.39586,0.119772 0.10704,0.08002 0.181574,0.192133 0.223499,0.337061 l -0.204141,0.04824 C 6.838835,39.30875 6.7862469,39.225831 6.716785,39.173657 6.6478408,39.12138 6.560884,39.0955 6.455708,39.0955 c -0.120497,0 -0.220911,0.02878 -0.301967,0.08654 -0.08116,0.05807 -0.138096,0.135404 -0.170601,0.23292 -0.032816,0.0972 -0.049275,0.197619 -0.049275,0.300932 0,0.133644 0.019358,0.249793 0.058075,0.349483 0.039027,0.09938 0.099276,0.17381 0.18147,0.223085 0.082195,0.04938 0.170911,0.07381 0.266564,0.07381 0.116149,0 0.21439,-0.03354 0.295135,-0.100414 0.080642,-0.06718 0.135093,-0.166874 0.163561,-0.298758 z m 1.20466,0.409732 c -0.071532,0.06066 -0.140269,0.103416 -0.205901,0.128572 -0.066149,0.02484 -0.136957,0.03727 -0.21263,0.03727 -0.124845,0 -0.220497,-0.03033 -0.287682,-0.0913 -0.066874,-0.06097 -0.100414,-0.139131 -0.100414,-0.233748 0,-0.0558 0.012319,-0.106625 0.037888,-0.152588 0.025259,-0.04607 0.058489,-0.08292 0.099379,-0.110663 0.041304,-0.02774 0.087267,-0.04896 0.138717,-0.06315 0.037681,-0.0099 0.094617,-0.01977 0.170911,-0.02888 0.15559,-0.01863 0.27029,-0.04058 0.343686,-0.06646 7.246e-4,-0.02629 0.00104,-0.04306 0.00104,-0.05 0,-0.07857 -0.01822,-0.134058 -0.054762,-0.165839 -0.048861,-0.04379 -0.122257,-0.06532 -0.219048,-0.06532 -0.09058,0 -0.157454,0.01563 -0.200829,0.04741 -0.043168,0.03178 -0.074948,0.08799 -0.095756,0.168737 l -0.187992,-0.02598 c 0.017081,-0.08033 0.045238,-0.145652 0.084265,-0.194928 0.039131,-0.04969 0.096066,-0.08799 0.170187,-0.1147 0.07412,-0.02671 0.159938,-0.04017 0.257868,-0.04017 0.097102,0 0.175673,0.0117 0.236232,0.03437 0.060663,0.02298 0.105176,0.05145 0.134058,0.08613 0.028468,0.03468 0.04824,0.07816 0.059834,0.13116 0.00621,0.03282 0.00952,0.09193 0.00952,0.177433 l 0,0.256729 c 0,0.179296 0.00404,0.292547 0.012422,0.339649 0.00807,0.04741 0.024431,0.09306 0.048551,0.136543 l -0.201139,0 c -0.019772,-0.03986 -0.032919,-0.08654 -0.038406,-0.140269 z m -0.016046,-0.430125 c -0.070083,0.02878 -0.174949,0.0529 -0.31439,0.07298 -0.079296,0.01139 -0.135508,0.02412 -0.168013,0.03841 -0.032919,0.01418 -0.058489,0.03499 -0.075984,0.06273 -0.017909,0.02743 -0.027019,0.05776 -0.027019,0.0913 0,0.05155 0.019772,0.09431 0.058385,0.128572 0.038716,0.03395 0.095756,0.05114 0.170601,0.05114 0.07412,0 0.140269,-0.01605 0.19793,-0.04855 0.057661,-0.03251 0.100414,-0.07712 0.127433,-0.133334 0.020808,-0.04348 0.031056,-0.107661 0.031056,-0.192443 l 0,-0.07081 z m 0.498448,-0.565736 0.299483,0 0.298758,0.909319 0.331574,-0.909319 0.277123,0 0,1.13613 -0.192443,0 0,-0.914805 -0.335922,0.914805 -0.172361,0 -0.317702,-0.958594 0,0.958594 -0.18851,0 0,-1.13613 z m 2.3092196,-0.469566 0.170083,0.0018 c -0.008,0.0764 -0.02474,0.12971 -0.05104,0.159628 -0.02598,0.02992 -0.05952,0.04928 -0.100518,0.05766 -0.04089,0.0088 -0.121222,0.01284 -0.241305,0.01284 -0.158903,0 -0.267392,0.01532 -0.325052,0.04596 -0.05766,0.03074 -0.09938,0.08002 -0.124534,0.147205 -0.02557,0.0676 -0.03944,0.154141 -0.04234,0.260352 0.04855,-0.07195 0.105176,-0.125984 0.170187,-0.161698 0.0646,-0.03623 0.137993,-0.05414 0.219049,-0.05414 0.149069,0 0.272463,0.05114 0.370291,0.153416 0.09751,0.102278 0.146481,0.240994 0.146481,0.415632 0,0.13292 -0.02443,0.241305 -0.07381,0.326398 -0.04928,0.08478 -0.10735,0.150518 -0.174845,0.196895 -0.06719,0.04638 -0.159214,0.06936 -0.275363,0.06936 -0.134783,0 -0.239959,-0.03064 -0.314804,-0.09244 -0.07484,-0.0617 -0.132195,-0.14058 -0.17205,-0.236957 -0.04017,-0.09638 -0.05983,-0.264079 -0.05983,-0.5029 0,-0.300104 0.05072,-0.502485 0.152278,-0.606523 0.101553,-0.104037 0.258179,-0.156315 0.469256,-0.156315 0.131056,0 0.20559,-0.0022 0.223499,-0.0062 0.01791,-0.0043 0.02919,-0.0146 0.03437,-0.02992 z m -0.0099,1.03344 c 0,-0.118634 -0.02774,-0.215425 -0.08395,-0.290994 -0.0559,-0.07567 -0.134783,-0.113665 -0.236646,-0.113665 -0.106315,0 -0.188406,0.04027 -0.24617,0.119876 -0.05766,0.07992 -0.08685,0.186543 -0.08685,0.319876 0,0.132195 0.03209,0.23292 0.09607,0.302692 0.06346,0.07019 0.14234,0.104866 0.235818,0.104866 0.09534,0 0.173189,-0.04017 0.232713,-0.121325 0.05952,-0.08106 0.08903,-0.187992 0.08903,-0.321326 z m 0.433541,-0.774536 0,-0.221636 0.192858,0 0,0.221636 -0.192858,0 z m 0,1.34679 0,-1.13613 0.192858,0 0,1.13613 -0.192858,0 z m 0.486026,0.435301 0,-1.57143 0.175259,0 0,0.147619 c 0.04131,-0.05776 0.08799,-0.101242 0.140269,-0.130021 0.05186,-0.02888 0.115011,-0.04348 0.189131,-0.04348 0.09721,0 0.182609,0.02515 0.256729,0.07485 0.07453,0.05 0.130435,0.120497 0.168013,0.211491 0.03799,0.09089 0.05694,0.19058 0.05694,0.299069 0,0.116149 -0.02081,0.220911 -0.06284,0.314079 -0.04162,0.09306 -0.102174,0.164286 -0.181781,0.213976 -0.07961,0.04927 -0.163251,0.07412 -0.250932,0.07412 -0.06429,0 -0.121636,-0.01356 -0.172671,-0.04058 -0.05114,-0.02702 -0.09275,-0.06128 -0.125673,-0.102588 l 0,0.5529 -0.192443,0 z m 0.174224,-0.997 c 0,0.14617 0.0295,0.254245 0.08872,0.324328 0.05911,0.06977 0.131056,0.104762 0.215114,0.104762 0.0854,0 0.158799,-0.03613 0.219773,-0.108799 0.06097,-0.07226 0.09172,-0.184369 0.09172,-0.336336 0,-0.144928 -0.02992,-0.253003 -0.08954,-0.325363 -0.05952,-0.07195 -0.130642,-0.108075 -0.213251,-0.108075 -0.08209,0 -0.154762,0.0383 -0.218013,0.115011 -0.06315,0.07671 -0.09451,0.188406 -0.09451,0.334473 z"
   id="path37"
   style="fill:#2b2a29;fill-rule:nonzero" />
  <path
   d="m 58.9254,26.2198 1.01739,0 0,0.185094 -0.809629,0 0,0.483541 0.374328,0 c 0.138406,0 0.248344,0.01315 0.330125,0.03975 0.08147,0.02629 0.147205,0.07598 0.196067,0.149069 0.04938,0.07298 0.07422,0.158075 0.07422,0.255176 0,0.0793 -0.01791,0.153106 -0.053,0.22205 -0.0354,0.06863 -0.08799,0.124948 -0.158075,0.168427 -0.06977,0.04337 -0.18882,0.06532 -0.357143,0.06532 l -0.614287,0 0,-1.56843 z m 0.207764,1.39203 0.414908,0 c 0.112112,0 0.196067,-0.02298 0.251967,-0.06863 0.05621,-0.04565 0.08396,-0.113975 0.08396,-0.20528 0,-0.06501 -0.01605,-0.119358 -0.04814,-0.162837 -0.03178,-0.04348 -0.07671,-0.07226 -0.133748,-0.08654 -0.05694,-0.01429 -0.154452,-0.02153 -0.292133,-0.02153 l -0.276812,0 0,0.544825 z m 1.19638,0.611699 0,-1.57143 0.175259,0 0,0.147619 c 0.0413,-0.05776 0.08799,-0.101242 0.140269,-0.130021 0.05186,-0.02888 0.115011,-0.04348 0.189131,-0.04348 0.0972,0 0.182609,0.02516 0.256729,0.07484 0.07453,0.05 0.130435,0.120497 0.168013,0.211491 0.03799,0.09089 0.05694,0.19058 0.05694,0.299069 0,0.116149 -0.02081,0.220911 -0.06284,0.314079 -0.04162,0.09306 -0.102174,0.164286 -0.181781,0.213976 -0.07961,0.04928 -0.163251,0.07412 -0.250932,0.07412 -0.06429,0 -0.121636,-0.01356 -0.172671,-0.04058 -0.05114,-0.02702 -0.09275,-0.06128 -0.125673,-0.102588 l 0,0.5529 -0.192443,0 z m 0.174224,-0.997 c 0,0.14617 0.0295,0.254245 0.08872,0.324328 0.05911,0.06977 0.131056,0.104762 0.215114,0.104762 0.0854,0 0.158799,-0.03613 0.219773,-0.108799 0.06097,-0.07226 0.09172,-0.184369 0.09172,-0.336336 0,-0.144928 -0.02992,-0.253003 -0.08955,-0.325363 -0.05952,-0.07195 -0.130642,-0.108075 -0.213251,-0.108075 -0.08209,0 -0.154762,0.0383 -0.218013,0.115011 -0.06315,0.07671 -0.09451,0.188406 -0.09451,0.334473 z m 0.972466,-0.0065 c 0,-0.210352 0.05839,-0.366253 0.175673,-0.467392 0.09752,-0.08406 0.216564,-0.126398 0.357144,-0.126398 0.156315,0 0.284059,0.05114 0.383024,0.153727 0.09938,0.102278 0.148655,0.243582 0.148655,0.424017 0,0.146377 -0.02195,0.261491 -0.06574,0.345032 -0.04379,0.08406 -0.107661,0.149069 -0.191305,0.195446 -0.08406,0.04638 -0.175363,0.06936 -0.274638,0.06936 -0.158903,0 -0.287371,-0.05072 -0.385612,-0.153002 -0.09824,-0.101864 -0.147205,-0.248655 -0.147205,-0.440788 z m 0.19793,0 c 0,0.145652 0.03178,0.254555 0.09534,0.326812 0.06356,0.07267 0.143479,0.108799 0.239545,0.108799 0.09565,0 0.175259,-0.03644 0.23882,-0.10911 0.06315,-0.07267 0.09493,-0.183748 0.09493,-0.332713 0,-0.14058 -0.03178,-0.247205 -0.09565,-0.319566 -0.06387,-0.07226 -0.143168,-0.108385 -0.238096,-0.108385 -0.09607,0 -0.175984,0.03613 -0.239545,0.108075 -0.06356,0.07195 -0.09534,0.180746 -0.09534,0.326088 z m 1.19628,-0.56791 0.79172,0 0,0.977642 0.122775,0 0,0.480539 -0.158178,0 0,-0.32205 -0.894308,0 0,0.32205 -0.158489,0 0,-0.480539 0.101553,0 c 0.135404,-0.184058 0.200414,-0.509835 0.194928,-0.977642 z m 0.160352,0.159214 c -0.01418,0.368841 -0.07122,0.64172 -0.171222,0.818428 l 0.610871,0 0,-0.818428 -0.439649,0 z m 0.966255,-0.159214 0.192443,0 0,0.866668 0.533852,-0.866668 0.207454,0 0,1.13613 -0.192443,0 0,-0.861078 -0.533852,0.861078 -0.207454,0 0,-1.13613 z"
   id="path39"
   style="fill:#2b2a29;fill-rule:nonzero" />
  <path
   d="m 18.0159,28.599 0,-1.56843 -0.695239,0 c -0.139855,0 -0.24617,0.01418 -0.318841,0.04234 -0.07267,0.02816 -0.130746,0.07774 -0.174535,0.148965 -0.04348,0.07164 -0.06501,0.150518 -0.06501,0.236646 0,0.111387 0.03582,0.204866 0.108075,0.28116 0.07195,0.0764 0.183334,0.124948 0.333748,0.145756 -0.05507,0.02629 -0.09679,0.05217 -0.125259,0.07816 -0.06056,0.05549 -0.117909,0.125259 -0.172361,0.208489 l -0.272774,0.426916 0.261077,0 0.207453,-0.326502 c 0.06066,-0.09379 0.110663,-0.166149 0.150104,-0.215839 0.03903,-0.05 0.07412,-0.08509 0.105176,-0.104762 0.03106,-0.02008 0.06242,-0.03395 0.09462,-0.04203 0.02371,-0.0048 0.06201,-0.0072 0.115735,-0.0072 l 0.240684,0 0,0.696378 0.20735,0 z m -0.20735,-0.876089 -0.446274,0 c -0.09462,0 -0.169151,-0.0098 -0.222464,-0.02961 -0.05362,-0.01967 -0.0942,-0.05104 -0.121946,-0.0942 -0.02774,-0.04306 -0.04162,-0.08986 -0.04162,-0.14058 0,-0.07412 0.02671,-0.135093 0.08075,-0.18292 0.05362,-0.04783 0.138717,-0.07164 0.25528,-0.07164 l 0.496274,0 0,0.518945 z m 0.525053,-0.260042 0.4441,0 c 0.10911,0 0.19027,0.0092 0.243582,0.02702 0.0529,0.01832 0.09855,0.05155 0.136853,0.100104 0.03799,0.04855 0.05735,0.106625 0.05735,0.174535 0,0.05404 -0.01128,0.101553 -0.03395,0.141719 -0.02226,0.04017 -0.05621,0.07412 -0.101139,0.101139 0.05373,0.01791 0.09793,0.05114 0.133334,0.100104 0.0354,0.04886 0.0529,0.106625 0.0529,0.17381 -0.0069,0.107764 -0.04565,0.187682 -0.115425,0.239545 -0.07008,0.05228 -0.171636,0.07816 -0.304866,0.07816 l -0.512734,0 0,-1.13613 z m 0.192858,0.478055 0.205176,0 c 0.0822,0 0.138406,-0.004 0.169048,-0.01273 0.03074,-0.0084 0.05808,-0.02598 0.08261,-0.05186 0.02412,-0.02598 0.03613,-0.05735 0.03613,-0.09348 0,-0.05994 -0.02122,-0.101967 -0.06356,-0.125259 -0.04234,-0.02381 -0.115011,-0.03551 -0.217599,-0.03551 l -0.211802,0 0,0.318841 z m 0,0.499587 0.253417,0 c 0.109213,0 0.184058,-0.01242 0.224535,-0.03799 0.04089,-0.02516 0.06211,-0.06905 0.06429,-0.130746 0,-0.03654 -0.0117,-0.07008 -0.0354,-0.101139 -0.0234,-0.03106 -0.05404,-0.05072 -0.09161,-0.0588 -0.03799,-0.0084 -0.09866,-0.01242 -0.182298,-0.01242 l -0.23292,0 0,0.341098 z m 0.874225,-0.409732 c 0,-0.210352 0.05839,-0.366253 0.175673,-0.467392 0.09752,-0.08406 0.216564,-0.126398 0.357144,-0.126398 0.156315,0 0.284059,0.05114 0.383024,0.153727 0.09938,0.102278 0.148655,0.243582 0.148655,0.424017 0,0.146377 -0.02195,0.261491 -0.06574,0.345032 -0.04379,0.08406 -0.107661,0.149069 -0.191305,0.195446 -0.08406,0.04638 -0.175363,0.06936 -0.274638,0.06936 -0.158903,0 -0.287371,-0.05072 -0.385612,-0.153002 -0.09824,-0.101864 -0.147205,-0.248655 -0.147205,-0.440788 z m 0.19793,0 c 0,0.145652 0.03178,0.254555 0.09534,0.326812 0.06356,0.07267 0.143479,0.108799 0.239545,0.108799 0.09565,0 0.175259,-0.03644 0.23882,-0.10911 0.06315,-0.07267 0.09493,-0.183748 0.09493,-0.332713 0,-0.14058 -0.03178,-0.247205 -0.09565,-0.319566 -0.06387,-0.07226 -0.143168,-0.108385 -0.238096,-0.108385 -0.09607,0 -0.175984,0.03613 -0.239545,0.108075 -0.06356,0.07195 -0.09534,0.180746 -0.09534,0.326088 z m 1.09265,1.00352 0,-1.57143 0.175259,0 0,0.147619 c 0.0413,-0.05776 0.08799,-0.101242 0.140269,-0.130021 0.05186,-0.02888 0.115011,-0.04348 0.189131,-0.04348 0.09721,0 0.182609,0.02515 0.256729,0.07484 0.07453,0.05 0.130435,0.120497 0.168013,0.211491 0.03799,0.09089 0.05694,0.19058 0.05694,0.299069 0,0.116149 -0.02081,0.220911 -0.06284,0.314079 -0.04162,0.09306 -0.102174,0.164286 -0.181781,0.213976 -0.07961,0.04927 -0.163251,0.07412 -0.250932,0.07412 -0.06429,0 -0.121636,-0.01356 -0.172671,-0.04058 -0.05114,-0.02702 -0.09275,-0.06128 -0.125673,-0.102588 l 0,0.5529 -0.192443,0 z m 0.174224,-0.997 c 0,0.14617 0.0295,0.254245 0.08872,0.324328 0.05911,0.06977 0.131056,0.104762 0.215114,0.104762 0.0854,0 0.158799,-0.03613 0.219773,-0.108799 0.06097,-0.07226 0.09172,-0.184369 0.09172,-0.336336 0,-0.144928 -0.02992,-0.253003 -0.08955,-0.325363 -0.05952,-0.07195 -0.130642,-0.108075 -0.213251,-0.108075 -0.08209,0 -0.154762,0.0383 -0.218013,0.115011 -0.06315,0.07671 -0.09451,0.188406 -0.09451,0.334473 z m 1.04514,-0.785095 0,-0.221636 0.192858,0 0,0.221636 -0.192858,0 z m 0,1.34679 0,-1.13613 0.192858,0 0,1.13613 -0.192858,0 z m 0.48675,-1.13613 0.4441,0 c 0.10911,0 0.19027,0.0092 0.243582,0.02702 0.0529,0.01832 0.09855,0.05155 0.136853,0.100104 0.03799,0.04855 0.05735,0.106625 0.05735,0.174535 0,0.05404 -0.01128,0.101553 -0.03395,0.141719 -0.02226,0.04016 -0.05621,0.07412 -0.101139,0.101139 0.05373,0.01791 0.09793,0.05114 0.133334,0.100104 0.0354,0.04886 0.0529,0.106625 0.0529,0.17381 -0.0069,0.107764 -0.04565,0.187682 -0.115425,0.239545 -0.07008,0.05228 -0.171636,0.07816 -0.304866,0.07816 l -0.512734,0 0,-1.13613 z m 0.192858,0.478055 0.205176,0 c 0.08219,0 0.138406,-0.004 0.169048,-0.01273 0.03074,-0.0084 0.05807,-0.02598 0.08261,-0.05186 0.02412,-0.02598 0.03613,-0.05735 0.03613,-0.09348 0,-0.05994 -0.02122,-0.101967 -0.06356,-0.125259 -0.04234,-0.02381 -0.115011,-0.03551 -0.217599,-0.03551 l -0.211802,0 0,0.318841 z m 0,0.499587 0.253417,0 c 0.109213,0 0.184058,-0.01242 0.224535,-0.03799 0.04089,-0.02516 0.06211,-0.06905 0.06429,-0.130746 0,-0.03654 -0.0117,-0.07008 -0.0354,-0.101139 -0.0234,-0.03106 -0.05404,-0.05072 -0.09162,-0.0588 -0.03799,-0.0084 -0.09866,-0.01242 -0.182298,-0.01242 l -0.23292,0 0,0.341098 z"
   id="path41"
   style="fill:#2b2a29;fill-rule:nonzero" />
  <path
   d="m 23.9833,17.4608 0,-1.56843 0.591616,0 c 0.104141,0 0.183748,0.0051 0.23851,0.01491 0.07702,0.01284 0.141615,0.03727 0.193893,0.07339 0.05186,0.03582 0.09379,0.08654 0.12557,0.151243 0.03178,0.06501 0.04752,0.136232 0.04752,0.213976 0,0.133334 -0.04234,0.246481 -0.127122,0.338924 -0.08509,0.09203 -0.238406,0.138406 -0.460042,0.138406 l -0.402485,0 0,0.637579 -0.207454,0 z m 0.207454,-0.822776 0.405694,0 c 0.134058,0 0.2294,-0.02485 0.285611,-0.07484 0.05621,-0.05 0.08437,-0.120187 0.08437,-0.210663 0,-0.06574 -0.01646,-0.12205 -0.04969,-0.168737 -0.03323,-0.04679 -0.07671,-0.07743 -0.131056,-0.09244 -0.03509,-0.0091 -0.09938,-0.01387 -0.193582,-0.01387 l -0.401347,0 0,0.56056 z m 1.89824,0.682507 c -0.07153,0.06066 -0.140269,0.103416 -0.205901,0.128572 -0.06615,0.02484 -0.136957,0.03727 -0.21263,0.03727 -0.124845,0 -0.220497,-0.03033 -0.287682,-0.0913 -0.06687,-0.06097 -0.100414,-0.139131 -0.100414,-0.233748 0,-0.0558 0.01232,-0.106625 0.03789,-0.152588 0.02526,-0.04607 0.05849,-0.08292 0.09938,-0.110663 0.04131,-0.02774 0.08727,-0.04897 0.138717,-0.06315 0.03768,-0.0099 0.09462,-0.01977 0.170911,-0.02888 0.15559,-0.01863 0.27029,-0.04058 0.343686,-0.06646 7.25e-4,-0.02629 0.001,-0.04307 0.001,-0.05 0,-0.07857 -0.01822,-0.134058 -0.05476,-0.165839 -0.04886,-0.04379 -0.122257,-0.06532 -0.219048,-0.06532 -0.09058,0 -0.157454,0.01563 -0.200829,0.04741 -0.04317,0.03178 -0.07495,0.08799 -0.09576,0.168737 l -0.187992,-0.02598 c 0.01708,-0.08033 0.04524,-0.145652 0.08426,-0.194928 0.03913,-0.04969 0.09607,-0.08799 0.170187,-0.1147 0.07412,-0.02671 0.159938,-0.04016 0.257868,-0.04016 0.0971,0 0.175673,0.0117 0.236232,0.03437 0.06066,0.02298 0.105176,0.05145 0.134058,0.08613 0.02847,0.03468 0.04824,0.07816 0.05983,0.13116 0.0062,0.03282 0.0095,0.09193 0.0095,0.177433 l 0,0.256729 c 0,0.179296 0.004,0.292547 0.01242,0.339649 0.0081,0.04741 0.02443,0.09306 0.04855,0.136543 l -0.201139,0 c -0.01977,-0.03985 -0.03292,-0.08654 -0.03841,-0.140269 z m -0.01605,-0.430125 c -0.07008,0.02878 -0.174949,0.0529 -0.31439,0.07298 -0.0793,0.01139 -0.135508,0.02412 -0.168013,0.03841 -0.03292,0.01418 -0.05849,0.03499 -0.07598,0.06273 -0.01791,0.02743 -0.02702,0.05776 -0.02702,0.0913 0,0.05155 0.01977,0.09431 0.05839,0.128572 0.03872,0.03395 0.09576,0.05114 0.170601,0.05114 0.07412,0 0.140269,-0.01605 0.19793,-0.04855 0.05766,-0.03251 0.100414,-0.07712 0.127433,-0.133334 0.02081,-0.04348 0.03106,-0.107661 0.03106,-0.192443 l 0,-0.07081 z m 0.4941,-0.565736 0.4441,0 c 0.10911,0 0.19027,0.0092 0.243582,0.02702 0.0529,0.01832 0.09855,0.05155 0.136853,0.100104 0.03799,0.04855 0.05735,0.106625 0.05735,0.174535 0,0.05404 -0.01128,0.101553 -0.03395,0.141719 -0.02226,0.04017 -0.05621,0.07412 -0.101139,0.101139 0.05373,0.01791 0.09793,0.05114 0.133334,0.100104 0.0354,0.04886 0.0529,0.106625 0.0529,0.17381 -0.0069,0.107764 -0.04565,0.187682 -0.115425,0.239545 -0.07008,0.05228 -0.171636,0.07816 -0.304866,0.07816 l -0.512734,0 0,-1.13613 z m 0.192858,0.478055 0.205176,0 c 0.0822,0 0.138406,-0.004 0.169048,-0.01273 0.03075,-0.0084 0.05808,-0.02598 0.08261,-0.05186 0.02412,-0.02598 0.03613,-0.05735 0.03613,-0.09348 0,-0.05994 -0.02122,-0.101967 -0.06356,-0.125259 -0.04234,-0.02381 -0.11501,-0.03551 -0.217599,-0.03551 l -0.211801,0 0,0.318841 z m 0,0.499587 0.253417,0 c 0.109213,0 0.184058,-0.01242 0.224535,-0.03799 0.04089,-0.02516 0.06211,-0.06905 0.06429,-0.130746 0,-0.03654 -0.0117,-0.07008 -0.0354,-0.101139 -0.02339,-0.03106 -0.05404,-0.05072 -0.09161,-0.0588 -0.03799,-0.0084 -0.09865,-0.01242 -0.182298,-0.01242 l -0.23292,0 0,0.341098 z m 1.68748,0.01822 c -0.07153,0.06066 -0.140269,0.103415 -0.205901,0.128571 -0.06615,0.02484 -0.136957,0.03727 -0.21263,0.03727 -0.124845,0 -0.220497,-0.03033 -0.287682,-0.0913 -0.06687,-0.06097 -0.100414,-0.139131 -0.100414,-0.233748 0,-0.0558 0.01232,-0.106625 0.03789,-0.152588 0.02526,-0.04607 0.05849,-0.08292 0.09938,-0.110663 0.0413,-0.02774 0.08727,-0.04897 0.138717,-0.06315 0.03768,-0.0099 0.09462,-0.01977 0.170911,-0.02888 0.15559,-0.01863 0.27029,-0.04058 0.343686,-0.06646 7.24e-4,-0.02629 0.001,-0.04306 0.001,-0.05 0,-0.07857 -0.01822,-0.134058 -0.05476,-0.165839 -0.04886,-0.04379 -0.122257,-0.06532 -0.219048,-0.06532 -0.09058,0 -0.157454,0.01563 -0.200829,0.04741 -0.04317,0.03178 -0.07495,0.08799 -0.09576,0.168737 l -0.187992,-0.02598 c 0.01708,-0.08033 0.04524,-0.145652 0.08427,-0.194928 0.03913,-0.04969 0.09607,-0.08799 0.170187,-0.1147 0.07412,-0.02671 0.159938,-0.04017 0.257868,-0.04017 0.0971,0 0.175673,0.0117 0.236232,0.03437 0.06066,0.02298 0.105176,0.05145 0.134058,0.08613 0.02847,0.03468 0.04824,0.07816 0.05984,0.13116 0.0062,0.03282 0.0095,0.09193 0.0095,0.177433 l 0,0.256729 c 0,0.179296 0.004,0.292547 0.01242,0.339649 0.0081,0.04741 0.02443,0.09306 0.04855,0.136543 l -0.201139,0 c -0.01977,-0.03985 -0.03292,-0.08654 -0.03841,-0.140269 z m -0.01605,-0.430126 c -0.07008,0.02878 -0.174949,0.0529 -0.31439,0.07298 -0.0793,0.01139 -0.135508,0.02412 -0.168013,0.03841 -0.03292,0.01418 -0.05849,0.03499 -0.07598,0.06273 -0.01791,0.02743 -0.02702,0.05776 -0.02702,0.0913 0,0.05155 0.01977,0.09431 0.05839,0.128572 0.03872,0.03395 0.09576,0.05114 0.170601,0.05114 0.07412,0 0.140269,-0.01605 0.19793,-0.04855 0.05766,-0.03251 0.100414,-0.07712 0.127433,-0.133334 0.02081,-0.04348 0.03106,-0.107661 0.03106,-0.192443 l 0,-0.07081 z m 0.418117,0.09969 0,-0.193582 0.59203,0 0,0.193582 -0.59203,0 z m 0.829298,0.470705 0,-1.56843 0.591616,0 c 0.104141,0 0.183748,0.0051 0.23851,0.01491 0.07702,0.01284 0.141615,0.03727 0.193893,0.0734 0.05186,0.03582 0.09379,0.08654 0.12557,0.151243 0.03178,0.06501 0.04752,0.136232 0.04752,0.213976 0,0.133334 -0.04234,0.246481 -0.127122,0.338924 -0.08509,0.09203 -0.238406,0.138406 -0.460042,0.138406 l -0.402485,0 0,0.637579 -0.207454,0 z m 0.207454,-0.822776 0.405694,0 c 0.134058,0 0.2294,-0.02484 0.285611,-0.07484 0.05621,-0.05 0.08437,-0.120187 0.08437,-0.210663 0,-0.06574 -0.01646,-0.12205 -0.04969,-0.168737 -0.03323,-0.04679 -0.07671,-0.07743 -0.131056,-0.09244 -0.03509,-0.0091 -0.09938,-0.01387 -0.193582,-0.01387 l -0.401347,0 0,0.56056 z m 1.22081,1.26025 -0.02153,-0.180746 c 0.04234,0.01128 0.07888,0.01718 0.110352,0.01718 0.04265,0 0.07702,-0.0073 0.102588,-0.02153 0.02588,-0.01428 0.04669,-0.03395 0.06315,-0.05994 0.01242,-0.01894 0.03178,-0.06677 0.0588,-0.143168 0.0036,-0.01097 0.0095,-0.02629 0.01718,-0.0471 l -0.430953,-1.1383 0.207454,0 0.236646,0.657765 c 0.03033,0.08364 0.05808,0.171222 0.0822,0.263251 0.02226,-0.0883 0.04855,-0.174535 0.07919,-0.258903 l 0.242858,-0.662113 0.192443,0 -0.431988,1.15549 c -0.04638,0.124845 -0.08251,0.210663 -0.108075,0.257764 -0.03437,0.06356 -0.0734,0.109938 -0.117599,0.139545 -0.04462,0.02961 -0.0972,0.04451 -0.158489,0.04451 -0.03727,0 -0.07857,-0.008 -0.124224,-0.02371 z m 1.82123,-0.853832 0.189131,0.02484 c -0.02039,0.130435 -0.0734,0.232609 -0.158799,0.306419 -0.08509,0.07381 -0.189855,0.110663 -0.314079,0.110663 -0.155176,0 -0.280435,-0.05072 -0.374638,-0.152278 -0.09462,-0.101553 -0.142133,-0.247205 -0.142133,-0.437164 0,-0.122671 0.0205,-0.230021 0.06108,-0.32205 0.04089,-0.09203 0.102588,-0.161077 0.185818,-0.20704 0.08292,-0.04607 0.173499,-0.06905 0.271015,-0.06905 0.123396,0 0.224535,0.03137 0.302692,0.09389 0.07857,0.06242 0.128882,0.150828 0.151243,0.265839 l -0.187371,0.02878 c -0.01791,-0.07629 -0.04928,-0.133644 -0.09462,-0.172361 -0.04524,-0.0383 -0.1,-0.05766 -0.164286,-0.05766 -0.0972,0 -0.176087,0.03468 -0.236646,0.104452 -0.06066,0.06936 -0.09099,0.179296 -0.09099,0.329711 0,0.152692 0.0293,0.263665 0.0881,0.333127 0.05839,0.06894 0.134679,0.103623 0.228882,0.103623 0.07567,0 0.138406,-0.02329 0.189234,-0.06967 0.05072,-0.04638 0.08292,-0.117599 0.09638,-0.214079 z m 0.350932,-0.719774 0.192443,0 0,0.44379 0.243996,0 c 0.159214,0 0.281574,0.03095 0.367392,0.09275 0.08613,0.0617 0.128882,0.146791 0.128882,0.255176 0,0.09462 -0.03582,0.176087 -0.10735,0.243272 -0.07164,0.0675 -0.186232,0.101139 -0.343997,0.101139 l -0.481367,0 0,-1.13613 z m 0.192443,0.977642 0.202381,0 c 0.121946,0 0.2088,-0.01501 0.261077,-0.04493 0.05186,-0.02992 0.07774,-0.07671 0.07774,-0.139855 0,-0.04928 -0.01894,-0.09317 -0.05766,-0.131781 -0.0383,-0.03841 -0.12381,-0.05776 -0.255591,-0.05776 l -0.227951,0 0,0.374328 z m 0.951244,-0.977642 0.192443,0 0,0.490891 c 0.06139,0 0.104452,-0.0117 0.128986,-0.03509 0.02443,-0.02371 0.06056,-0.09203 0.108385,-0.20559 0.03799,-0.08986 0.06874,-0.148965 0.09203,-0.177537 0.02381,-0.02847 0.05083,-0.04783 0.08147,-0.05766 0.03064,-0.01025 0.08002,-0.01501 0.147516,-0.01501 l 0.03872,0 0,0.159214 -0.05362,-0.001 c -0.05041,0 -0.08292,0.0077 -0.09721,0.02267 -0.01491,0.01563 -0.03799,0.06242 -0.06863,0.140166 -0.02919,0.07412 -0.0559,0.125259 -0.08033,0.153727 -0.02412,0.02888 -0.0617,0.05486 -0.112112,0.07816 0.08251,0.02236 0.163975,0.09938 0.243893,0.23116 l 0.210766,0.352071 -0.211802,0 -0.20559,-0.352071 c -0.04203,-0.0705 -0.07888,-0.117184 -0.109938,-0.139441 -0.03137,-0.02267 -0.06905,-0.03364 -0.112526,-0.03364 l 0,0.525156 -0.192443,0 0,-1.13613 z m 1.74928,0.995861 c -0.07153,0.06066 -0.140269,0.103416 -0.205901,0.128572 -0.06615,0.02484 -0.136957,0.03727 -0.21263,0.03727 -0.124845,0 -0.220497,-0.03033 -0.287682,-0.0913 -0.06687,-0.06097 -0.100414,-0.139131 -0.100414,-0.233748 0,-0.0558 0.01232,-0.106625 0.03789,-0.152588 0.02526,-0.04607 0.05849,-0.08292 0.09938,-0.110663 0.04131,-0.02774 0.08727,-0.04896 0.138717,-0.06315 0.03768,-0.0099 0.09462,-0.01977 0.170911,-0.02888 0.15559,-0.01863 0.27029,-0.04058 0.343686,-0.06646 7.25e-4,-0.02629 0.001,-0.04306 0.001,-0.05 0,-0.07857 -0.01822,-0.134058 -0.05476,-0.165839 -0.04886,-0.04379 -0.122257,-0.06532 -0.219048,-0.06532 -0.09058,0 -0.157454,0.01563 -0.200829,0.04741 -0.04317,0.03178 -0.07495,0.08799 -0.09576,0.168737 l -0.187992,-0.02598 c 0.01708,-0.08033 0.04524,-0.145652 0.08427,-0.194928 0.03913,-0.04969 0.09607,-0.08799 0.170187,-0.1147 0.07412,-0.02671 0.159938,-0.04017 0.257868,-0.04017 0.0971,0 0.175673,0.0117 0.236232,0.03437 0.06066,0.02298 0.105176,0.05145 0.134058,0.08613 0.02847,0.03468 0.04824,0.07816 0.05983,0.13116 0.0062,0.03282 0.0095,0.09192 0.0095,0.177433 l 0,0.256729 c 0,0.179296 0.004,0.292547 0.01242,0.339649 0.0081,0.04741 0.02443,0.09306 0.04855,0.136543 l -0.201139,0 c -0.01977,-0.03985 -0.03292,-0.08654 -0.03841,-0.140269 z m -0.01605,-0.430125 c -0.07008,0.02878 -0.174949,0.0529 -0.31439,0.07298 -0.0793,0.01139 -0.135508,0.02412 -0.168013,0.0384 -0.03292,0.01418 -0.05849,0.03499 -0.07598,0.06273 -0.01791,0.02743 -0.02702,0.05776 -0.02702,0.0913 0,0.05155 0.01977,0.09431 0.05839,0.128572 0.03872,0.03395 0.09576,0.05114 0.170601,0.05114 0.07412,0 0.140269,-0.01605 0.19793,-0.04855 0.05766,-0.03251 0.100414,-0.07712 0.127433,-0.133334 0.02081,-0.04348 0.03106,-0.107661 0.03106,-0.192443 l 0,-0.07081 z"
   id="path43"
   style="fill:#2b2a29;fill-rule:nonzero" />
  <path
   d="m 42.6981,14.4075 -0.207454,0 0,-0.632092 c -0.186232,0.06894 -0.349069,0.103623 -0.488924,0.103623 -0.109213,0 -0.20528,-0.02547 -0.288924,-0.0766 -0.08323,-0.05083 -0.139131,-0.115839 -0.167185,-0.193996 -0.02847,-0.07847 -0.04234,-0.18147 -0.04234,-0.308179 l 0,-0.461181 0.20735,0 0,0.441823 c 0,0.171325 0.03147,0.283748 0.09389,0.337475 0.06211,0.05404 0.137267,0.08106 0.224949,0.08106 0.146481,0 0.300208,-0.03251 0.461181,-0.09752 l 0,-0.762838 0.207454,0 0,1.56843 z m 1.09441,-0.365943 0.199069,0.02453 c -0.03137,0.11646 -0.08944,0.206626 -0.174224,0.270912 -0.08509,0.06398 -0.193479,0.09607 -0.325363,0.09607 -0.166149,0 -0.29793,-0.05114 -0.395135,-0.153416 -0.09752,-0.102174 -0.146067,-0.245756 -0.146067,-0.430539 0,-0.191305 0.04928,-0.339649 0.147516,-0.445135 0.09865,-0.10559 0.226087,-0.158489 0.383127,-0.158489 0.151864,0 0.276088,0.05186 0.37205,0.155176 0.09648,0.103416 0.144617,0.249069 0.144617,0.43644 0,0.0117 -3.11e-4,0.02878 -0.001,0.05145 l -0.847207,0 c 0.0069,0.124948 0.04234,0.220601 0.105901,0.286647 0.06356,0.06646 0.14234,0.09969 0.237371,0.09969 0.0705,0 0.130746,-0.01853 0.180746,-0.0558 0.05,-0.03696 0.08944,-0.09607 0.118634,-0.177537 z m -0.632092,-0.311491 0.63437,0 c -0.0085,-0.09534 -0.03292,-0.167185 -0.07267,-0.2147 -0.06139,-0.07412 -0.140994,-0.111387 -0.23851,-0.111387 -0.08841,0 -0.162837,0.02961 -0.223085,0.08872 -0.06035,0.05921 -0.09358,0.138406 -0.100104,0.237371 z m 1.07329,1.11274 0,-1.57143 0.175259,0 0,0.147619 c 0.0413,-0.05776 0.08799,-0.101242 0.140269,-0.130021 0.05186,-0.02888 0.115011,-0.04348 0.189131,-0.04348 0.09721,0 0.182609,0.02516 0.256729,0.07485 0.07453,0.05 0.130435,0.120497 0.168013,0.211491 0.03799,0.09089 0.05694,0.19058 0.05694,0.299069 0,0.116149 -0.02081,0.220911 -0.06284,0.314079 -0.04162,0.09306 -0.102174,0.164286 -0.181781,0.213976 -0.07961,0.04928 -0.163251,0.07412 -0.250932,0.07412 -0.06428,0 -0.121636,-0.01356 -0.172671,-0.04058 -0.05114,-0.02702 -0.09275,-0.06128 -0.125673,-0.102588 l 0,0.5529 -0.192443,0 z m 0.174224,-0.997 c 0,0.14617 0.0295,0.254245 0.08872,0.324328 0.05911,0.06977 0.131056,0.104762 0.215114,0.104762 0.0854,0 0.158799,-0.03613 0.219773,-0.108799 0.06097,-0.07226 0.09172,-0.184369 0.09172,-0.336336 0,-0.144928 -0.02992,-0.253003 -0.08955,-0.325363 -0.05952,-0.07195 -0.130642,-0.108075 -0.213251,-0.108075 -0.08209,0 -0.154762,0.0383 -0.218013,0.115011 -0.06315,0.07671 -0.09451,0.188406 -0.09451,0.334473 z m 1.04514,-0.574432 0.4441,0 c 0.10911,0 0.19027,0.0092 0.243582,0.02702 0.0529,0.01832 0.09855,0.05155 0.136853,0.100104 0.03799,0.04855 0.05735,0.106625 0.05735,0.174535 0,0.05404 -0.01128,0.101553 -0.03395,0.141719 -0.02226,0.04017 -0.05621,0.07412 -0.101139,0.101139 0.05373,0.01791 0.09793,0.05114 0.133334,0.100104 0.0354,0.04886 0.0529,0.106625 0.0529,0.17381 -0.0069,0.107764 -0.04565,0.187682 -0.115425,0.239545 -0.07008,0.05228 -0.171636,0.07816 -0.304866,0.07816 l -0.512734,0 0,-1.13613 z m 0.192858,0.478055 0.205176,0 c 0.08219,0 0.138406,-0.004 0.169048,-0.01273 0.03075,-0.0084 0.05808,-0.02598 0.08261,-0.05186 0.02412,-0.02598 0.03613,-0.05735 0.03613,-0.09348 0,-0.05994 -0.02122,-0.101967 -0.06356,-0.125259 -0.04234,-0.02381 -0.115011,-0.03551 -0.217599,-0.03551 l -0.211802,0 0,0.318841 z m 0,0.499587 0.253417,0 c 0.109213,0 0.184058,-0.01242 0.224535,-0.03799 0.04089,-0.02515 0.06211,-0.06905 0.06429,-0.130746 0,-0.03654 -0.0117,-0.07008 -0.0354,-0.101139 -0.0234,-0.03106 -0.05404,-0.05072 -0.09161,-0.0588 -0.03799,-0.0084 -0.09865,-0.01242 -0.182298,-0.01242 l -0.23292,0 0,0.341098 z m 0.874225,-0.409732 c 0,-0.210352 0.05838,-0.366253 0.175673,-0.467392 0.09752,-0.08406 0.216564,-0.126398 0.357144,-0.126398 0.156315,0 0.284059,0.05114 0.383024,0.153727 0.09938,0.102278 0.148655,0.243582 0.148655,0.424017 0,0.146377 -0.02195,0.261491 -0.06574,0.345032 -0.04379,0.08406 -0.107661,0.149069 -0.191305,0.195446 -0.08406,0.04638 -0.175363,0.06936 -0.274638,0.06936 -0.158903,0 -0.287371,-0.05072 -0.385612,-0.153002 -0.09824,-0.101864 -0.147205,-0.248655 -0.147205,-0.440788 z m 0.19793,0 c 0,0.145652 0.03178,0.254555 0.09534,0.326812 0.06356,0.07267 0.143479,0.108799 0.239545,0.108799 0.09565,0 0.175259,-0.03644 0.23882,-0.10911 0.06315,-0.07267 0.09493,-0.183748 0.09493,-0.332713 0,-0.14058 -0.03178,-0.247205 -0.09565,-0.319566 -0.06387,-0.07226 -0.143168,-0.108385 -0.238096,-0.108385 -0.09607,0 -0.175984,0.03613 -0.239545,0.108075 -0.06356,0.07195 -0.09534,0.180746 -0.09534,0.326088 z m 1.09338,-0.56791 0.192858,0 0,0.472982 0.533852,0 0,-0.472982 0.192443,0 0,1.13613 -0.192443,0 0,-0.503935 -0.533852,0 0,0.503935 -0.192858,0 0,-1.13613 z m 1.13717,0.56791 c 0,-0.210352 0.05838,-0.366253 0.175673,-0.467392 0.09752,-0.08406 0.216564,-0.126398 0.357144,-0.126398 0.156315,0 0.284059,0.05114 0.383024,0.153727 0.09938,0.102278 0.148655,0.243582 0.148655,0.424017 0,0.146377 -0.02195,0.261491 -0.06574,0.345032 -0.04379,0.08406 -0.107661,0.149069 -0.191305,0.195446 -0.08406,0.04638 -0.175363,0.06936 -0.274638,0.06936 -0.158903,0 -0.287371,-0.05072 -0.385612,-0.153002 -0.09824,-0.101864 -0.147205,-0.248655 -0.147205,-0.440788 z m 0.19793,0 c 0,0.145652 0.03178,0.254555 0.09534,0.326812 0.06356,0.07267 0.143479,0.108799 0.239545,0.108799 0.09565,0 0.175259,-0.03644 0.23882,-0.10911 0.06315,-0.07267 0.09493,-0.183748 0.09493,-0.332713 0,-0.14058 -0.03178,-0.247205 -0.09565,-0.319566 -0.06387,-0.07226 -0.143168,-0.108385 -0.238096,-0.108385 -0.09607,0 -0.175984,0.03613 -0.239545,0.108075 -0.06356,0.07195 -0.09534,0.180746 -0.09534,0.326088 z m 1.09338,-0.56791 0.653728,0 0,0.159214 -0.46087,0 0,0.976917 -0.192858,0 0,-1.13613 z m 0.798345,1.57143 0,-1.57143 0.175259,0 0,0.147619 c 0.0413,-0.05776 0.08799,-0.101242 0.140269,-0.130021 0.05186,-0.02888 0.115011,-0.04348 0.189131,-0.04348 0.09721,0 0.182609,0.02515 0.256729,0.07484 0.07453,0.05 0.130435,0.120497 0.168013,0.211491 0.03799,0.09089 0.05694,0.19058 0.05694,0.299069 0,0.116149 -0.02081,0.220911 -0.06284,0.314079 -0.04162,0.09306 -0.102174,0.164286 -0.181781,0.213976 -0.07961,0.04927 -0.163251,0.07412 -0.250932,0.07412 -0.06428,0 -0.121636,-0.01356 -0.172671,-0.04058 -0.05114,-0.02702 -0.09275,-0.06128 -0.125673,-0.102588 l 0,0.5529 -0.192443,0 z m 0.174224,-0.997 c 0,0.14617 0.0295,0.254245 0.08872,0.324328 0.05911,0.06977 0.131056,0.104762 0.215114,0.104762 0.0854,0 0.158799,-0.03613 0.219773,-0.108799 0.06097,-0.07226 0.09172,-0.184369 0.09172,-0.336336 0,-0.144928 -0.02992,-0.253003 -0.08955,-0.325363 -0.05952,-0.07195 -0.130642,-0.108075 -0.213251,-0.108075 -0.08209,0 -0.154762,0.0383 -0.218013,0.115011 -0.06315,0.07671 -0.09451,0.188406 -0.09451,0.334473 z m 1.78572,0.421429 c -0.07153,0.06066 -0.140269,0.103416 -0.205901,0.128572 -0.06615,0.02485 -0.136957,0.03727 -0.21263,0.03727 -0.124845,0 -0.220497,-0.03033 -0.287682,-0.0913 -0.06687,-0.06097 -0.100414,-0.139131 -0.100414,-0.233748 0,-0.0558 0.01232,-0.106625 0.03789,-0.152588 0.02526,-0.04607 0.05849,-0.08292 0.09938,-0.110663 0.04131,-0.02774 0.08727,-0.04896 0.138717,-0.06315 0.03768,-0.0099 0.09462,-0.01977 0.170911,-0.02888 0.15559,-0.01863 0.27029,-0.04058 0.343686,-0.06646 7.25e-4,-0.02629 0.001,-0.04306 0.001,-0.05 0,-0.07857 -0.01822,-0.134058 -0.05476,-0.165839 -0.04886,-0.04379 -0.122257,-0.06532 -0.219048,-0.06532 -0.09058,0 -0.157454,0.01563 -0.200829,0.04741 -0.04317,0.03178 -0.07495,0.08799 -0.09576,0.168737 l -0.187992,-0.02598 c 0.01708,-0.08033 0.04524,-0.145652 0.08427,-0.194928 0.03913,-0.04969 0.09607,-0.08799 0.170187,-0.1147 0.07412,-0.02671 0.159938,-0.04017 0.257868,-0.04017 0.0971,0 0.175673,0.0117 0.236232,0.03437 0.06066,0.02298 0.105176,0.05145 0.134058,0.08613 0.02847,0.03468 0.04824,0.07816 0.05983,0.13116 0.0062,0.03282 0.0095,0.09192 0.0095,0.177433 l 0,0.256729 c 0,0.179296 0.004,0.292547 0.01242,0.339649 0.0081,0.04741 0.02443,0.09306 0.04855,0.136543 l -0.201139,0 c -0.01977,-0.03985 -0.03292,-0.08654 -0.03841,-0.140269 z m -0.01605,-0.430125 c -0.07008,0.02878 -0.174949,0.0529 -0.31439,0.07298 -0.0793,0.01139 -0.135508,0.02412 -0.168013,0.0384 -0.03292,0.01418 -0.05849,0.03499 -0.07598,0.06273 -0.01791,0.02743 -0.02702,0.05777 -0.02702,0.09131 0,0.05155 0.01977,0.09431 0.05839,0.128572 0.03872,0.03395 0.09576,0.05114 0.170601,0.05114 0.07412,0 0.140269,-0.01605 0.19793,-0.04855 0.05766,-0.03251 0.100414,-0.07712 0.127433,-0.133334 0.02081,-0.04348 0.03106,-0.107661 0.03106,-0.192443 l 0,-0.07081 z m 0.645239,-0.565736 0.79172,0 0,0.977642 0.122775,0 0,0.480539 -0.158178,0 0,-0.32205 -0.894308,0 0,0.32205 -0.158489,0 0,-0.480539 0.101553,0 c 0.135404,-0.184058 0.200414,-0.509835 0.194928,-0.977642 z m 0.160352,0.159214 c -0.01418,0.368841 -0.07122,0.64172 -0.171222,0.818428 l 0.610871,0 0,-0.818428 -0.439649,0 z"
   id="path45"
   style="fill:#2b2a29;fill-rule:nonzero" />
  <g
   id="_304425232">
   <path
   d="m 34.856,32.198 c 0.637475,0 1.16729,-0.503935 1.16729,-1.14089 0,-0.636233 -0.529815,-1.14017 -1.16729,-1.14017 -0.609836,0 -1.13975,0.503935 -1.13975,1.14017 0,0.636958 0.529918,1.14089 1.13975,1.14089 z"
   id="_304423840"
   style="fill:#fefefe;stroke:#2b2a29;stroke-width:0.160145" />
   <path
   d="m 34.856,31.6941 c 0.344721,0 0.637475,-0.29203 0.637475,-0.636958 0,-0.344514 -0.292754,-0.609111 -0.637475,-0.609111 -0.344928,0 -0.609836,0.264597 -0.609836,0.609111 0,0.344928 0.264907,0.636958 0.609836,0.636958"
   id="_304425136"
   style="fill:none;stroke:#2b2a29;stroke-width:0.19223601" />
  </g>
  <path
   d="m 31.2243,32.7892 1.46522,0 0,2.61419 -0.422154,0 0,-2.17174 -0.62909,0 0,1.11636 c 0,0.319462 -0.0088,0.542858 -0.02578,0.669463 -0.01708,0.126605 -0.05901,0.225259 -0.124741,0.29586 -0.06615,0.0706 -0.169462,0.105901 -0.310663,0.105901 -0.04917,0 -0.139131,-0.0055 -0.269152,-0.0177 l 0,-0.408386 0.09389,0.0019 c 0.08872,0 0.148033,-0.0146 0.178158,-0.04441 0.03074,-0.02992 0.04586,-0.102899 0.04586,-0.219773 l -0.0016,-0.449173 0,-1.49245 z m 1.9059,0.720602 0.400725,0 0,0.78644 0.402692,0 c 0.157764,0 0.27909,0.01398 0.363769,0.04255 0.08468,0.02867 0.154762,0.09017 0.21087,0.184472 0.05642,0.09431 0.08416,0.204555 0.08416,0.329297 0,0.182609 -0.0501,0.320705 -0.150414,0.41263 -0.100311,0.09192 -0.250829,0.138199 -0.45145,0.138199 l -0.860354,0 0,-1.89359 z m 0.400725,1.5765 0.374017,0 c 0.116874,0 0.191822,-0.02433 0.224431,-0.07184 0.03313,-0.04752 0.04969,-0.104141 0.04969,-0.169255 0,-0.0913 -0.02878,-0.154555 -0.0852,-0.189234 -0.05652,-0.03406 -0.156833,-0.05176 -0.30145,-0.05176 l -0.261491,0 0,0.482092 z m 1.39069,-1.5765 0.877434,0 c 0.179711,0 0.314597,0.04079 0.403728,0.122982 0.08944,0.08219 0.134265,0.205694 0.134265,0.370705 0,0.105901 -0.02474,0.197826 -0.0734,0.276295 -0.04928,0.07857 -0.110559,0.130849 -0.185094,0.15704 0.104659,0.0323 0.182609,0.09193 0.234162,0.180125 0.05114,0.0883 0.07692,0.184472 0.07692,0.289131 0,0.147309 -0.04327,0.267185 -0.129503,0.35911 -0.08665,0.09193 -0.2147,0.138199 -0.384162,0.138199 l -0.95435,0 0,-1.89359 z m 0.404142,0.78644 0.258075,0 c 0.124638,0 0.2147,-0.02008 0.27029,-0.05901 0.05549,-0.03903 0.08323,-0.101035 0.08323,-0.185715 0,-0.07971 -0.02578,-0.136336 -0.07743,-0.169773 -0.05217,-0.03406 -0.1441,-0.05114 -0.276088,-0.05114 l -0.258075,0 0,0.465632 z m 0,0.786337 0.31646,0 c 0.113975,0 0.197205,-0.0176 0.249793,-0.05166 0.05207,-0.03468 0.07847,-0.09679 0.07847,-0.185715 0,-0.09244 -0.03023,-0.156419 -0.09017,-0.191719 -0.05983,-0.0353 -0.176191,-0.05228 -0.349587,-0.05228 l -0.204969,0 0,0.481367 z m 1.38768,-1.82961 0,-0.463769 0.400725,0 0,0.463769 -0.400725,0 z m 0,2.15042 0,-1.89359 0.400725,0 0,1.89359 -0.400725,0 z m 0.815633,-1.89359 0.877434,0 c 0.179711,0 0.314597,0.04079 0.403728,0.122982 0.08944,0.08219 0.134265,0.205694 0.134265,0.370705 0,0.105901 -0.02474,0.197826 -0.0734,0.276295 -0.04928,0.07857 -0.110559,0.130849 -0.185094,0.15704 0.104659,0.0323 0.182609,0.09193 0.234162,0.180125 0.05114,0.0883 0.07692,0.184472 0.07692,0.289131 0,0.147309 -0.04327,0.267185 -0.129503,0.35911 -0.08665,0.09193 -0.2147,0.138199 -0.384162,0.138199 l -0.95435,0 0,-1.89359 z m 0.404142,0.78644 0.258075,0 c 0.124638,0 0.2147,-0.02008 0.27029,-0.05901 0.05549,-0.03903 0.08323,-0.101035 0.08323,-0.185715 0,-0.07971 -0.02578,-0.136336 -0.07743,-0.169773 -0.05217,-0.03406 -0.1441,-0.05114 -0.276088,-0.05114 l -0.258075,0 0,0.465632 z m 0,0.786337 0.31646,0 c 0.113975,0 0.197205,-0.0176 0.249793,-0.05166 0.05207,-0.03468 0.07847,-0.09679 0.07847,-0.185715 0,-0.09244 -0.03023,-0.156419 -0.09017,-0.191719 -0.05983,-0.0353 -0.176191,-0.05228 -0.349587,-0.05228 l -0.204969,0 0,0.481367 z"
   id="path50"
   style="fill:#2b2a29;fill-rule:nonzero" />
 </g>
</svg>