<?xml version="1.0" encoding="UTF-8" standalone="no"?>
<!-- Created with Inkscape (http://www.inkscape.org/) -->

<svg
   xmlns:svg="http://www.w3.org/2000/svg"
   xmlns="http://www.w3.org/2000/svg"
   version="1.1"
   width="75.7005mm"
   height="66.324303mm"
   viewBox="0 0 75.7004 66.3242"
   id="svg2"
   xml:space="preserve"
   style="fill-rule:evenodd">
 <defs
   id="defs4">
  <style
   type="text/css"
   id="style6" />
 </defs>
 <g
   id="Layer_x0020_1">
  
  <g
   id="_327324136">
   <path
   d="m 2.0953,2.6576 0.919499,-0.2312 0.536099,-0.740699 0.817299,0 0.665299,0.537399 1.2771,-0.410199 1.1497,0.740999 0.536299,-0.612199 1.2773,0.740699 1.0729,-0.2036 0,-0.997399 2.1725,-0.612799 0.2806,0.663799 1.073,0 0.2039,0.893999 0.792399,0 -0.1278,-0.689699 1.2771,-0.1275 0.2813,0.460999 1.1999,-0.052 0.3332,-0.2815 1.0731,0 -0.0513,-1.4045 2.1464,-0.3322 0.0503,0.944299 3.0402,0.1285 0.2567,1.6096 1.2254,0.536699 0.920499,1.0739 0.816899,-0.409599 0.409899,0.817099 1.736,-0.3328 0.741399,-1.0211 0.0765,1.6085 1.9416,-0.1781 0,1.1238 -0.407499,0.614299 1.6843,0.1274 -0.0761,-0.945699 1.2264,0.2801 -0.2043,-0.739599 1.3281,-0.3321 0,0.535999 0.817899,-0.2039 0.535999,1.0718 1.6099,-0.740399 0.663899,1.4059 -1.2761,1.6092 1.0728,2.4274999 1.9675,-0.1278 0.3325,1.4813 0.613199,1.4814 0.1268,0.869899 -0.817499,0.2039 0,0.945699 -0.792099,0.664199 0.2036,0.663899 1.6106,0 2.6059,-1.7377 2.2228,0.2057 1.2764,2.5542 1.3556,-0.1537 0,-0.868499 0.790699,-0.2043 0,-1.0731 1.5589,-0.460299 1.6609,1.5334 2.4263,-0.945299 0.2815,0.742099 1.532,-0.3335 1.4825,-0.2036 1.8155,-0.741399 0.458899,-1.0731 -0.1281,-0.868199 0.537399,-0.0758 0.0761,-0.921599 -0.537099,0.052 -0.2039,-0.792299 2.5545,-0.537099 -0.3321,-0.741099 -1.4304,0.2054 0,-0.8171989 2.7599,-0.664899 0.535399,0.7409989 1.5582,-0.4853989 -0.612599,-2.1456 1.6103,-0.664499 0.408199,0.739999 0.944999,-0.536099 0.3321,0.791999 0.818899,-0.3314 -0.0768,0.944299 -0.868499,0.741399 0.2549,1.0720999 -0.460599,0.408899 1.2778,1.6096 1.2778,-0.409299 0,1.4831 0.408599,1.15 -0.817899,0.458499 0.2804,3.2198 -2.1707,0.537099 0.740299,5.10939 2.3506,0.0758 -0.2553,0.946799 0.205,1.0728 0.868499,-0.0762 -0.0758,2.1449 0.484399,2.0192 -1.4311,0.3314 -0.3321,-2.4777 -1.1255,0.2033 -0.2029,1.8145 0.2029,1.4814 1.9427,-0.204 0.945999,2.2738 -1.3543,0.485399 0.537099,1.8149 2.2989,0.868499 -0.485399,0.612499 -0.2559,0.715599 -0.536399,0.0761 -0.612599,-0.3317 -0.741399,0.0768 -0.613199,0.996699 -2.2231,-0.2054 -1.6092,3.0413 4.57439,2.7331 -1.202,1.5585 -1.7632,-0.535699 0,1.4807 0.945699,0.2553 -0.1272,0.486099 -1.5341,0 -0.2801,0.919499 -1.9426,0.2039 0,1.1507 1.6105,0 0.946099,-0.460299 0.0503,0.996399 -2.887,0.460199 -0.588099,0.689699 -0.946399,0.2036 -0.2029,-0.484699 -1.0735,0 -0.0761,0.536699 -0.792399,0.0758 -0.2043,-1.2757 -2.3506,0.0751 -0.485699,-0.944299 -0.995299,0.1275 -0.0779,1.6099 -1.481,0.2797 -0.460599,-0.688699 -2.2735,0.3322 0.051,0.892899 -0.944599,0.0524 -0.2046,-1.0735 -1.7374,0.1282 -0.2043,0.945299 -0.868199,0.2808 -0.0775,0.996999 -1.2013,0.483999 -0.1271,0.740699 -1.4817,0.1795 -0.0762,-0.382399 -1.6609,0.459899 0,0.536399 0.662899,0.1268 0.206,1.0215 -2.1456,0.588099 c -0.1795,-0.561899 -0.2822,-1.199 -0.485799,-1.9414 -0.2566,-0.893599 -0.894999,-1.8648 -0.409299,-2.8101 0.638799,-1.2017 2.4516,-2.2741 1.7629,-3.90989 -0.2053,-0.432299 -0.919899,-0.407499 -1.2261,-0.790299 -0.868199,-1.1503 1.8893,-1.738 -0.384099,-2.8367 -0.587399,-0.2556 -1.3274,0.1788 -1.8904,-0.1285 -0.2298,-0.1271 0.434499,-1.5334 0.408999,-1.8903 -0.051,-0.459199 -0.3325,-0.892599 -0.536099,-1.3281 -0.0506,-0.1027 -1.9668,-3.5002 -2.1463,-2.5556 -0.383399,1.8146 2.6052,2.9377 1.993,4.57379 -0.1781,0.485699 -1.049,0.535699 -1.2017,1.0731 -0.408899,1.5589 2.6056,0.484399 3.0927,0.945699 0.408599,0.3569 -0.818899,0.791999 -0.945299,1.3274 -0.512299,2.1211 1.788,1.1503 1.8896,1.7635 0.1282,0.844399 -0.688599,1.6089 -1.2006,2.2745 -0.3583,0.432999 -0.996299,0.535699 -1.3543,0.945699 -0.586699,0.663099 -0.511599,2.0929 -0.1271,2.8088 0.2036,0.409199 0.893699,0.409199 1.0732,0.818899 0.1016,0.2304 -0.3583,0.408899 -0.409299,0.663099 -0.1788,0.868499 0.2811,2.1467 -0.663899,2.8367 -0.665199,0.459599 -3.1429,0.3066 -3.90949,0.1278 -0.433999,-0.1023 -0.740699,-0.587699 -1.201,-0.665199 -0.663799,-0.1526 -1.4059,-0.2553 -2.0181,0 -0.664199,0.2556 -0.894299,1.2781 -1.6095,1.4562 -0.894399,0.2302 -1.9672,0.1537 -2.6824,-0.382099 -0.3576,-0.2818 0.765899,-0.486399 1.0735,-0.818499 0.382399,-0.408199 1.2509,-1.6088 1.4804,-2.1466 0.1795,-0.510599 0.154,-1.1231 0.383399,-1.6089 0.3321,-0.689399 1.0225,-1.1755 1.2265,-1.89 0.1033,-0.408899 0,-1.3284 -0.408999,-1.2002 -0.561199,0.1784 -0.408199,1.1479 -0.817499,1.6081 -0.2039,0.2553 -0.714899,0.1279 -0.919099,0.408599 -0.307,0.3583 0.0265,1.1765 -0.409299,1.3291 -0.586399,0.205 -1.1228,-2.2479 -1.89,-2.1456 -0.434099,0.0762 -0.051,0.944299 0.1278,1.3543 0.586399,1.2509 2.3506,0.919099 1.2268,2.6824 -0.461599,0.689699 -1.2013,0.843299 -1.6106,1.3532 -0.2305,0.2556 -0.1529,0.715899 -0.408499,0.919499 -1.8918,1.6343 -3.7035,0.2308 -5.62039,0.1546 l -0.1533,-0.741999 -0.205,-1.6853 0,-1.2775 -0.536399,-0.741399 0.051,-2.2737 -1.1231,-1.8129 -0.205,-1.6884 1.4049,-1.89 0.1282,-1.2764 1.6096,-0.2046 0.0764,-0.995599 1.9413,0.0754 0.0765,-0.689399 0.613599,-0.409199 -0.2036,-0.919899 -0.818199,-4.44479 -1.5331,0.1278 -0.485399,0.534999 -1.8648,0.538399 -0.536499,-1.5344 1.6613,-0.740299 -0.205,-1.6857 -1.8652,0.485399 -0.2806,-0.614299 -1.4828,0.3328 -0.459899,-1.1489 -0.867399,-0.0514 -0.2814,-1.226 -2.0181,0.740999 -0.3325,-1.2013 -0.664399,0 0,-0.536799 0.792399,-0.2818 -0.664899,-1.9409 0.613699,-0.3332 -0.2051,-0.663199 -1.0217,-0.1522 -0.3319,-1.5338 0.817499,-0.3331 -0.0761,-1.1483 1.073,-0.2546 -0.2557,-1.151 -0.869299,-0.206 -0.2803,-0.739299 -1.5326,0.1281 -0.2049,-0.792999 0,-1.6106 -0.689599,-0.2801 -0.843099,0.204 0,1.2013 -1.2012,0.2032 -0.612699,-1.736 -4.7014899,0.459599 -0.408799,-0.741399 -0.740999,0.2057 -0.740399,-3.6291 1.022,-0.459199 0.0763,-2.6313 -1.8903,0.407799 -0.460099,-1.6853 -0.818199,-2.1459 0.945499,-0.409699 -2.0943,-2.0178004 -0.0512999,-1.1244 0.383299,-0.689399 -0.919699,-1.3288 1.0725,-0.664199 1.2014,-0.1526 1.2003,-0.051 0,-0.612499 -1.2003,-0.0775 -0.1786,-1.2258 z m 39.7795,60.7021 0,0 -0.0527,0.0517 -0.612199,1.4821 c -1.0994,-0.537499 -2.2225,-0.971499 -3.2202,-0.2047 -0.434399,0.3577 0.2818,1.6354 -0.2539,1.6354 -0.741399,0 -0.971499,-1.1234 -1.482,-1.6354 -1.0222,-0.970399 -2.2745,-1.5582 -2.9639,-2.939 -0.2053,-0.432299 0.765199,0.588099 1.2017,0.792399 0.483999,0.2308 0.968799,0.512299 1.4814,0.537099 0.995299,0.0775 1.9671,-0.3063 2.9617,-0.2553 0.998099,0.0503 1.9437,0.408599 2.9401,0.535699 z"
   id="_328096848"
   style="fill:#ffdf49" />
   <g
   id="g12">
    <path
   d="m 33.0317,60.1458 c 0.470599,0 0.863299,-0.3728 0.863299,-0.843999 0,-0.471699 -0.392699,-0.844499 -0.863299,-0.844499 -0.450699,0 -0.824499,0.3728 -0.824499,0.844499 0,0.471199 0.3738,0.843999 0.824499,0.843999 z"
   id="_328096776"
   style="fill:#fefefe;stroke:#2b2a29;stroke-width:0.1185" />
    <path
   d="m 33.042,59.5033 c 0.1109,0 0.2026,-0.0923 0.2026,-0.2015 0,-0.1093 -0.0917,-0.2009 -0.2026,-0.2009 -0.1003,0 -0.1843,0.0916 -0.1843,0.2009 0,0.1092 0.084,0.2015 0.1843,0.2015 z"
   id="_328096704"
   style="fill:#2b2a29;stroke:#2b2a29;stroke-width:0.0761999" />
   </g>
   <g
   id="g16">
    <path
   d="m 16.0154,7.63369 c 0.470899,0 0.863199,-0.3724 0.863199,-0.843399 0,-0.471299 -0.392299,-0.843299 -0.863199,-0.843299 -0.451299,0 -0.824599,0.372 -0.824599,0.843299 0,0.470999 0.3733,0.843399 0.824599,0.843399 z"
   id="_327975144"
   style="fill:#fefefe;stroke:#2b2a29;stroke-width:0.1185" />
    <path
   d="m 16.0261,6.99189 c 0.1099,0 0.2022,-0.0927 0.2022,-0.2016 0,-0.1081 -0.0923,-0.2008 -0.2022,-0.2008 -0.1005,0 -0.1847,0.0927 -0.1847,0.2008 0,0.1089 0.0842,0.2016 0.1847,0.2016 z"
   id="_327975096"
   style="fill:#2b2a29;stroke:#2b2a29;stroke-width:0.0761999" />
   </g>
   <g
   id="g20">
    <path
   d="m 27.5636,25.4848 c 0.471599,0 0.862999,-0.3735 0.862999,-0.844099 0,-0.471599 -0.391399,-0.842999 -0.862999,-0.842999 -0.451299,0 -0.824099,0.3714 -0.824099,0.842999 0,0.470599 0.3728,0.844099 0.824099,0.844099 z"
   id="_327974976"
   style="fill:#fefefe;stroke:#2b2a29;stroke-width:0.1185" />
    <path
   d="m 27.5753,24.8433 c 0.1089,0 0.2012,-0.0934 0.2012,-0.2026 0,-0.1088 -0.0923,-0.2008 -0.2012,-0.2008 -0.1013,0 -0.185,0.092 -0.185,0.2008 0,0.1092 0.0837,0.2026 0.185,0.2026 z"
   id="_327974928"
   style="fill:#2b2a29;stroke:#2b2a29;stroke-width:0.0761999" />
   </g>
   <g
   id="g24">
    <path
   d="m 24.4733,16.6099 c 0.471999,0 0.864399,-0.3735 0.864399,-0.844099 0,-0.471999 -0.392399,-0.844299 -0.864399,-0.844299 -0.450599,0 -0.823699,0.3723 -0.823699,0.844299 0,0.470599 0.3731,0.844099 0.823699,0.844099 z"
   id="_327974808"
   style="fill:#fefefe;stroke:#2b2a29;stroke-width:0.1185" />
    <path
   d="m 24.485,15.967 c 0.1096,0 0.2023,-0.0933 0.2023,-0.2012 0,-0.1092 -0.0927,-0.2019 -0.2023,-0.2019 -0.1012,0 -0.1846,0.0927 -0.1846,0.2019 0,0.1079 0.0834,0.2012 0.1846,0.2012 z"
   id="_327910688"
   style="fill:#2b2a29;stroke:#2b2a29;stroke-width:0.0761999" />
   </g>
   <path
   d="m 33.7171,57.3947 c 0,-0.2515 0.0674,-0.448399 0.2025,-0.590499 0.1351,-0.1422 0.3094,-0.2134 0.523099,-0.2134 0.1397,0 0.266,0.0335 0.3782,0.1001 0.1122,0.0671 0.1979,0.1602 0.2568,0.2798 0.0589,0.1192 0.0882,0.255 0.0882,0.406399 0,0.1538 -0.0307,0.2914 -0.0928,0.412399 -0.062,0.1213 -0.1499,0.213 -0.2635,0.2755 -0.1139,0.0624 -0.2363,0.0935 -0.3679,0.0935 -0.1429,0 -0.2702,-0.0343 -0.382399,-0.1034 -0.1125,-0.0688 -0.1976,-0.163 -0.2554,-0.2822 -0.0579,-0.1189 -0.0868,-0.2452 -0.0868,-0.3782 z m 0.2067,0.0032 c 0,0.1827 0.0491,0.3263 0.1471,0.431399 0.0984,0.1051 0.2216,0.1577 0.3697,0.1577 0.151,0 0.2752,-0.0529 0.3725,-0.1591 0.0974,-0.1062 0.1464,-0.2568 0.1464,-0.451899 0,-0.1231 -0.0211,-0.2307 -0.0627,-0.3228 -0.0417,-0.092 -0.1027,-0.1633 -0.1828,-0.2141 -0.0804,-0.0504 -0.1704,-0.0758 -0.2702,-0.0758 -0.1422,0 -0.2642,0.0486 -0.3665,0.1464 -0.1023,0.0973 -0.1535,0.2603 -0.1535,0.488199 z m 1.4087,-0.3627 0.1862,0 0,0.2078 c 0,0.0893 0.0053,0.1545 0.0159,0.1947 0.0106,0.0403 0.0363,0.0755 0.0769,0.1055 0.0406,0.03 0.0917,0.0448 0.1531,0.0448 0.0702,0 0.1612,-0.0187 0.2727,-0.0557 l 0,-0.497099 0.1862,0 0,1.0975 -0.1862,0 0,-0.442399 c -0.1143,0.036 -0.2212,0.0537 -0.3203,0.0537 -0.0833,0 -0.157,-0.0212 -0.2205,-0.0635 -0.0639,-0.0424 -0.1072,-0.0942 -0.1298,-0.1556 -0.023,-0.061 -0.0342,-0.1288 -0.0342,-0.2025 l 0,-0.2872 z m 1.8872,0.961999 c -0.0691,0.0586 -0.1355,0.0999 -0.1989,0.1242 -0.0639,0.024 -0.1323,0.036 -0.2054,0.036 -0.1206,0 -0.213,-0.0293 -0.2779,-0.0882 -0.0646,-0.0589 -0.097,-0.1344 -0.097,-0.2258 0,-0.0539 0.0119,-0.103 0.0366,-0.1474 0.0244,-0.0445 0.0565,-0.0801 0.096,-0.1069 0.0399,-0.0268 0.0843,-0.0473 0.134,-0.061 0.0364,-0.0096 0.0914,-0.0191 0.1651,-0.0279 0.1503,-0.018 0.2611,-0.0392 0.332,-0.0642 7e-4,-0.0254 10e-4,-0.0416 10e-4,-0.0483 0,-0.0759 -0.0176,-0.1295 -0.0529,-0.1602 -0.0472,-0.0423 -0.1181,-0.0631 -0.2116,-0.0631 -0.0875,0 -0.1521,0.0151 -0.194,0.0458 -0.0417,0.0307 -0.0724,0.085 -0.0925,0.163 l -0.1816,-0.0251 c 0.0165,-0.0776 0.0437,-0.1407 0.0814,-0.1883 0.0378,-0.048 0.0928,-0.085 0.1644,-0.1108 0.0716,-0.0258 0.1545,-0.0388 0.2491,-0.0388 0.0938,0 0.1697,0.0113 0.2282,0.0332 0.0586,0.0222 0.1016,0.0497 0.1295,0.0832 0.0275,0.0335 0.0466,0.0755 0.0578,0.1267 0.006,0.0317 0.0092,0.0888 0.0092,0.1714 l 0,0.248 c 0,0.1732 0.0039,0.2826 0.012,0.3281 0.0078,0.0458 0.0236,0.0899 0.0469,0.1319 l -0.1943,0 c -0.0191,-0.0385 -0.0318,-0.0836 -0.0371,-0.1355 z M 37.2042,57.5817 c -0.0677,0.0278 -0.169,0.0511 -0.3037,0.0705 -0.0766,0.011 -0.1309,0.0233 -0.1623,0.0371 -0.0318,0.0137 -0.0565,0.0338 -0.0734,0.0606 -0.0173,0.0265 -0.0261,0.0558 -0.0261,0.0882 0,0.0498 0.0191,0.0911 0.0564,0.1242 0.0374,0.0328 0.0925,0.0494 0.1648,0.0494 0.0716,0 0.1355,-0.0155 0.1912,-0.0469 0.0557,-0.0314 0.097,-0.0745 0.1231,-0.1288 0.0201,-0.042 0.03,-0.104 0.03,-0.1859 l 0,-0.0684 z m 0.475499,-0.546499 0.1859,0 0,0.474199 c 0.0593,0 0.1009,-0.0113 0.1246,-0.0339 0.0236,-0.0229 0.0585,-0.0889 0.1047,-0.1986 0.0367,-0.0868 0.0664,-0.1439 0.0889,-0.1715 0.023,-0.0275 0.0491,-0.0462 0.0787,-0.0557 0.0296,-0.0099 0.0773,-0.0145 0.1425,-0.0145 l 0.0374,0 0,0.1538 -0.0518,-10e-4 c -0.0487,0 -0.0801,0.0074 -0.0939,0.0219 -0.0144,0.0151 -0.0367,0.0603 -0.0663,0.1354 -0.0282,0.0716 -0.054,0.121 -0.0776,0.1485 -0.0233,0.0279 -0.0596,0.053 -0.1083,0.0755 0.0797,0.0216 0.1584,0.096 0.2356,0.2233 l 0.2036,0.3401 -0.2046,0 -0.1986,-0.3401 c -0.0406,-0.0681 -0.0762,-0.1132 -0.1062,-0.1347 -0.0303,-0.0219 -0.0667,-0.0325 -0.1087,-0.0325 l 0,0.507299 -0.1859,0 0,-1.0975 z m 0.927799,-0.2035 0,-0.2141 0.1863,0 0,0.2141 -0.1863,0 z m 0,1.301 0,-1.0975 0.1863,0 0,1.0975 -0.1863,0 z m 0.470199,-1.0975 0.428999,0 c 0.1054,0 0.1838,0.0089 0.2353,0.0261 0.0511,0.0177 0.0952,0.0498 0.1322,0.0967 0.0367,0.0469 0.0554,0.103 0.0554,0.1686 0,0.0522 -0.0109,0.0981 -0.0328,0.1369 -0.0215,0.0388 -0.0543,0.0716 -0.0977,0.0977 0.0519,0.0173 0.0946,0.0494 0.1288,0.0967 0.0342,0.0472 0.0511,0.103 0.0511,0.1679 -0.0067,0.1041 -0.0441,0.1813 -0.1115,0.2314 -0.0677,0.0505 -0.1658,0.0755 -0.2945,0.0755 l -0.495299,0 0,-1.0975 z m 0.1863,0.461799 0.1982,0 c 0.0794,0 0.1337,-0.0039 0.1633,-0.0123 0.0297,-0.0081 0.0561,-0.0251 0.0798,-0.0501 0.0233,-0.0251 0.0349,-0.0554 0.0349,-0.0903 0,-0.0579 -0.0205,-0.0985 -0.0614,-0.121 -0.0409,-0.023 -0.1111,-0.0343 -0.2102,-0.0343 l -0.2046,0 0,0.308 z m 0,0.482599 0.2448,0 c 0.1055,0 0.1778,-0.012 0.2169,-0.0367 0.0395,-0.0243 0.06,-0.0667 0.0621,-0.1263 0,-0.0353 -0.0113,-0.0677 -0.0342,-0.0977 -0.0226,-0.03 -0.0522,-0.049 -0.0885,-0.0568 -0.0367,-0.0081 -0.0953,-0.012 -0.1761,-0.012 l -0.225,0 0,0.3295 z"
   id="_327910592"
   style="fill:#2b2a29;fill-rule:nonzero" />
   <path
   d="m 9.90189,8.17349 1.1917,0 0,1.5151 -0.2018,0 0,-1.3363 -0.789499,0 0,1.3363 -0.2004,0 0,-1.5151 z m 2.2468,1.1616 0.1923,0.0237 c -0.0303,0.1125 -0.0864,0.1996 -0.1683,0.2617 -0.0822,0.0618 -0.1869,0.0928 -0.3143,0.0928 -0.1605,0 -0.2878,-0.0494 -0.381699,-0.1482 -0.0942,-0.0987 -0.1411,-0.2374 -0.1411,-0.415899 0,-0.1848 0.0476,-0.3281 0.1425,-0.429999 0.0953,-0.102 0.2184,-0.1531 0.3701,-0.1531 0.1467,0 0.2667,0.0501 0.3594,0.1499 0.0932,0.0999 0.1397,0.2406 0.1397,0.421599 0,0.0113 -3e-4,0.0278 -10e-4,0.0497 l -0.818399,0 c 0.0067,0.1207 0.0409,0.2131 0.1023,0.2769 0.0614,0.0642 0.1375,0.0963 0.2293,0.0963 0.0681,0 0.1263,-0.0179 0.1746,-0.0539 0.0483,-0.0357 0.0864,-0.0928 0.1146,-0.1715 z m -0.610599,-0.3009 0.612799,0 c -0.0082,-0.0921 -0.0318,-0.1615 -0.0702,-0.2074 -0.0593,-0.0716 -0.1362,-0.1076 -0.2304,-0.1076 -0.0854,0 -0.1573,0.0286 -0.2155,0.0857 -0.0583,0.0572 -0.0904,0.1337 -0.0967,0.2293 z m 1.0368,1.0749 0,-1.518 0.1693,0 0,0.1426 c 0.0399,-0.0558 0.085,-0.0978 0.1355,-0.1256 0.0501,-0.0279 0.1111,-0.042 0.1827,-0.042 0.0939,0 0.1764,0.0243 0.248,0.0723 0.072,0.0483 0.126,0.1164 0.1623,0.2043 0.0367,0.0878 0.055,0.1841 0.055,0.2889 0,0.1122 -0.0201,0.2134 -0.0607,0.3034 -0.0402,0.0899 -0.0987,0.1587 -0.1756,0.2067 -0.0769,0.0476 -0.1577,0.0716 -0.2424,0.0716 -0.0621,0 -0.1175,-0.0131 -0.1668,-0.0392 -0.0494,-0.0261 -0.0896,-0.0592 -0.1214,-0.0991 l 0,0.5340989 -0.1859,0 z m 0.1683,-0.963099 c 0,0.1412 0.0285,0.2456 0.0857,0.3133 0.0571,0.0674 0.1266,0.1012 0.2078,0.1012 0.0825,0 0.1534,-0.0349 0.2123,-0.1051 0.0589,-0.0698 0.0886,-0.1781 0.0886,-0.3249 0,-0.14 -0.0289,-0.2444 -0.0865,-0.3143 -0.0575,-0.0695 -0.1262,-0.1044 -0.206,-0.1044 -0.0793,0 -0.1495,0.037 -0.2106,0.1111 -0.061,0.0741 -0.0913,0.182 -0.0913,0.3231 z m 1.0096,-0.554899 0.428999,0 c 0.1054,0 0.1838,0.0089 0.2353,0.0261 0.0511,0.0177 0.0952,0.0498 0.1322,0.0967 0.0367,0.0469 0.0554,0.103 0.0554,0.1686 0,0.0522 -0.0109,0.0981 -0.0328,0.1369 -0.0215,0.0388 -0.0543,0.0716 -0.0977,0.0977 0.0519,0.0173 0.0946,0.0494 0.1288,0.0967 0.0342,0.0472 0.0511,0.103 0.0511,0.1679 -0.0067,0.1041 -0.0441,0.1813 -0.1115,0.2314 -0.0677,0.0505 -0.1658,0.0755 -0.2945,0.0755 l -0.495299,0 0,-1.0975 z m 0.1863,0.461799 0.1982,0 c 0.0794,0 0.1337,-0.0039 0.1633,-0.0123 0.0297,-0.0081 0.0561,-0.0251 0.0798,-0.0501 0.0233,-0.0251 0.0349,-0.0554 0.0349,-0.0903 0,-0.0579 -0.0205,-0.0985 -0.0614,-0.121 -0.0409,-0.023 -0.1111,-0.0343 -0.2102,-0.0343 l -0.2046,0 0,0.308 z m 0,0.482599 0.2448,0 c 0.1055,0 0.1778,-0.012 0.2169,-0.0367 0.0395,-0.0243 0.06,-0.0667 0.0621,-0.1263 0,-0.0353 -0.0113,-0.0677 -0.0342,-0.0977 -0.0226,-0.03 -0.0522,-0.049 -0.0885,-0.0568 -0.0367,-0.0081 -0.0953,-0.012 -0.1761,-0.012 l -0.225,0 0,0.3295 z M 14.78359,9.139691 c 0,-0.2032 0.0564,-0.3538 0.1697,-0.451499 0.0942,-0.0812 0.2092,-0.1221 0.345,-0.1221 0.151,0 0.2744,0.0494 0.37,0.1485 0.096,0.0988 0.1436,0.2353 0.1436,0.409599 0,0.1414 -0.0212,0.2526 -0.0635,0.3333 -0.0423,0.0812 -0.104,0.144 -0.1848,0.1888 -0.0812,0.0448 -0.1694,0.067 -0.2653,0.067 -0.1535,0 -0.2776,-0.049 -0.3725,-0.1478 -0.0949,-0.0984 -0.1422,-0.2402 -0.1422,-0.425799 z m 0.1912,0 c 0,0.1407 0.0307,0.2459 0.0921,0.3157 0.0614,0.0702 0.1386,0.1051 0.2314,0.1051 0.0924,0 0.1693,-0.0352 0.2307,-0.1054 0.061,-0.0702 0.0917,-0.1775 0.0917,-0.3214 0,-0.1358 -0.0307,-0.2388 -0.0924,-0.3087 -0.0617,-0.0698 -0.1383,-0.1047 -0.23,-0.1047 -0.0928,0 -0.17,0.0349 -0.2314,0.1044 -0.0614,0.0695 -0.0921,0.1746 -0.0921,0.315 z m 1.0604,-0.548599 0.2893,0 0.2886,0.878399 0.3203,-0.878399 0.2677,0 0,1.0975 -0.1859,0 0,-0.883699 -0.3245,0.883699 -0.1665,0 -0.3069,-0.925999 0,0.925999 -0.1821,0 0,-1.0975 z m 2.1664,0.961999 c -0.0691,0.0586 -0.1355,0.0999 -0.1989,0.1242 -0.0639,0.024 -0.1323,0.036 -0.2054,0.036 -0.1206,0 -0.213,-0.0293 -0.2779,-0.0882 -0.0646,-0.0589 -0.097,-0.1344 -0.097,-0.2258 0,-0.0539 0.0119,-0.103 0.0366,-0.1474 0.0244,-0.0445 0.0565,-0.0801 0.096,-0.1069 0.0399,-0.0268 0.0843,-0.0473 0.134,-0.061 0.0364,-0.0096 0.0914,-0.0191 0.1651,-0.0279 0.1503,-0.018 0.2611,-0.0392 0.332,-0.0642 7e-4,-0.0254 0.001,-0.0416 0.001,-0.0483 0,-0.0759 -0.0176,-0.1295 -0.0529,-0.1602 -0.0472,-0.0423 -0.1181,-0.0631 -0.2116,-0.0631 -0.0875,0 -0.1521,0.0151 -0.194,0.0458 -0.0417,0.0307 -0.0724,0.085 -0.0925,0.163 l -0.1816,-0.0251 c 0.0165,-0.0776 0.0437,-0.1407 0.0814,-0.1883 0.0378,-0.048 0.0928,-0.085 0.1644,-0.1108 0.0716,-0.0258 0.1545,-0.0388 0.2491,-0.0388 0.0938,0 0.1697,0.0113 0.2282,0.0332 0.0586,0.0222 0.1016,0.0497 0.1295,0.0832 0.0275,0.0335 0.0466,0.0755 0.0578,0.1267 0.006,0.0317 0.0092,0.0888 0.0092,0.1714 l 0,0.248 c 0,0.1732 0.0039,0.2826 0.012,0.3281 0.0078,0.0458 0.0236,0.0899 0.0469,0.1319 l -0.1943,0 c -0.0191,-0.0385 -0.0318,-0.0836 -0.0371,-0.1355 z m -0.0155,-0.415499 c -0.0677,0.0278 -0.169,0.0511 -0.3037,0.0705 -0.0766,0.011 -0.1309,0.0233 -0.1623,0.0371 -0.0318,0.0137 -0.0565,0.0338 -0.0734,0.0606 -0.0173,0.0265 -0.0261,0.0558 -0.0261,0.0882 0,0.0498 0.0191,0.0911 0.0564,0.1242 0.0374,0.0328 0.0925,0.0494 0.1648,0.0494 0.0716,0 0.1355,-0.0155 0.1912,-0.0469 0.0557,-0.0314 0.097,-0.0745 0.1231,-0.1288 0.0201,-0.042 0.03,-0.104 0.03,-0.1859 l 0,-0.0684 z m 0.476599,-0.546499 0.1859,0 0,0.837199 0.515699,-0.837199 0.2004,0 0,1.0975 -0.1859,0 0,-0.831799 -0.515699,0.831799 -0.2004,0 0,-1.0975 z m 0.645899,-0.415499 0.127,0 c -0.0102,0.0861 -0.0416,0.1524 -0.0945,0.1982 -0.0526,0.0463 -0.1228,0.0695 -0.2103,0.0695 -0.0882,0 -0.1587,-0.0229 -0.2113,-0.0688 -0.0529,-0.0458 -0.0843,-0.1121 -0.0945,-0.1989 l 0.127,0 c 0.0095,0.0469 0.0289,0.0818 0.0575,0.1048 0.0285,0.0232 0.067,0.0345 0.115,0.0345 0.0561,0 0.098,-0.0109 0.1266,-0.0335 0.0286,-0.0222 0.048,-0.0575 0.0575,-0.1058 z m 1.2527,1.1108 0.1827,0.024 c -0.0197,0.126 -0.0709,0.2247 -0.1534,0.296 -0.0822,0.0713 -0.1834,0.1069 -0.3034,0.1069 -0.1499,0 -0.2709,-0.049 -0.3619,-0.1471 -0.0914,-0.0981 -0.1373,-0.2388 -0.1373,-0.422299 0,-0.1185 0.0198,-0.2222 0.059,-0.3111 0.0395,-0.0889 0.0991,-0.1556 0.1795,-0.2 0.0801,-0.0445 0.1676,-0.0667 0.2618,-0.0667 0.1192,0 0.2169,0.0303 0.2924,0.0907 0.0759,0.0603 0.1245,0.1457 0.1461,0.2568 l -0.181,0.0278 c -0.0173,-0.0737 -0.0476,-0.1291 -0.0914,-0.1665 -0.0437,-0.037 -0.0966,-0.0557 -0.1587,-0.0557 -0.0939,0 -0.1701,0.0335 -0.2286,0.1009 -0.0586,0.067 -0.0879,0.1732 -0.0879,0.3185 0,0.1475 0.0283,0.2547 0.0851,0.3218 0.0564,0.0666 0.1301,0.1001 0.2211,0.1001 0.0731,0 0.1337,-0.0225 0.1828,-0.0673 0.049,-0.0448 0.0801,-0.1136 0.0931,-0.2068 z m 0.339,-0.695299 0.1859,0 0,0.428699 0.2357,0 c 0.1538,0 0.272,0.0299 0.3549,0.0896 0.0832,0.0596 0.1245,0.1418 0.1245,0.2465 0,0.0914 -0.0346,0.1701 -0.1037,0.235 -0.0692,0.0652 -0.1799,0.0977 -0.3323,0.0977 l -0.464999,0 0,-1.0975 z m 0.1859,0.944399 0.1955,0 c 0.1178,0 0.2017,-0.0145 0.2522,-0.0434 0.0501,-0.0289 0.0751,-0.0741 0.0751,-0.1351 0,-0.0476 -0.0183,-0.09 -0.0557,-0.1273 -0.037,-0.0371 -0.1196,-0.0558 -0.2469,-0.0558 l -0.2202,0 0,0.3616 z m 0.918899,-0.944399 0.1859,0 0,0.474199 c 0.0593,0 0.1009,-0.0113 0.1246,-0.0339 0.0236,-0.0229 0.0585,-0.0889 0.1047,-0.1986 0.0367,-0.0868 0.0664,-0.1439 0.0889,-0.1715 0.023,-0.0275 0.0491,-0.0462 0.0787,-0.0557 0.0296,-0.0099 0.0773,-0.0145 0.1425,-0.0145 l 0.0374,0 0,0.1538 -0.0518,-10e-4 c -0.0487,0 -0.0801,0.0074 -0.0939,0.0219 -0.0144,0.0151 -0.0367,0.0603 -0.0663,0.1354 -0.0282,0.0716 -0.054,0.121 -0.0776,0.1485 -0.0233,0.0279 -0.0596,0.053 -0.1083,0.0755 0.0797,0.0216 0.1584,0.096 0.2356,0.2233 l 0.2036,0.3401 -0.2046,0 -0.1986,-0.3401 c -0.0406,-0.0681 -0.0762,-0.1132 -0.1062,-0.1347 -0.0303,-0.0219 -0.0667,-0.0325 -0.1087,-0.0325 l 0,0.507299 -0.1859,0 0,-1.0975 z"
   id="_327910520"
   style="fill:#2b2a29;fill-rule:nonzero" />
   <path
   d="m 17.8007,17.333 0.2008,0 0,0.680099 0.2913,0 c 0.0145,-0.2152 0.0851,-0.386299 0.2121,-0.514299 0.1266,-0.1277 0.2836,-0.1916 0.471199,-0.1916 0.1976,0 0.3613,0.0695 0.491499,0.2089 0.1298,0.1389 0.1947,0.3277 0.1947,0.566099 0,0.248 -0.0649,0.442099 -0.1944,0.582099 -0.1295,0.1397 -0.2953,0.2096 -0.496999,0.2096 -0.1835,0 -0.3362,-0.0604 -0.458299,-0.1814 -0.1224,-0.121 -0.1944,-0.2882 -0.2155,-0.501599 l -0.2956,0 0,0.657199 -0.2008,0 0,-1.5151 z m 0.693599,0.764799 c 0,0.1915 0.0441,0.34 0.1323,0.445899 0.0881,0.1058 0.2039,0.1587 0.3474,0.1587 0.1468,0 0.2639,-0.0529 0.3514,-0.1591 0.0875,-0.1062 0.1312,-0.2589 0.1312,-0.457899 0,-0.1887 -0.043,-0.3376 -0.1291,-0.445899 -0.0864,-0.1086 -0.2028,-0.163 -0.3496,-0.163 -0.1492,0 -0.2674,0.0551 -0.3538,0.1651 -0.0864,0.1097 -0.1298,0.2618 -0.1298,0.456199 z m 2.0785,-0.3472 0,0.474199 c 0.0593,0 0.1012,-0.0113 0.1252,-0.0339 0.024,-0.0229 0.0593,-0.0889 0.1055,-0.1986 0.0434,-0.1041 0.0822,-0.1704 0.1168,-0.1993 0.0335,-0.0282 0.0875,-0.0424 0.1612,-0.0424 l 0.0681,0 0,0.1538 -0.0505,-0.001 c -0.0497,0 -0.0815,0.0074 -0.0952,0.0219 -0.0145,0.0151 -0.0364,0.0603 -0.066,0.1354 -0.0279,0.0716 -0.0533,0.121 -0.0765,0.1485 -0.0237,0.0279 -0.06,0.053 -0.1098,0.0755 0.0808,0.0216 0.1591,0.096 0.2357,0.2233 l 0.2046,0.3401 -0.2046,0 -0.1993,-0.3401 c -0.0406,-0.0688 -0.0762,-0.1139 -0.1066,-0.1354 -0.0303,-0.0212 -0.0663,-0.0318 -0.1086,-0.0318 l 0,0.507299 -0.1901,0 0,-0.507299 c -0.0413,0 -0.0769,0.0103 -0.1073,0.0314 -0.0303,0.0208 -0.066,0.0663 -0.1065,0.1358 l -0.1997,0.3401 -0.2046,0 0.2039,-0.3401 c 0.0769,-0.1273 0.1559,-0.2017 0.2364,-0.2233 -0.0551,-0.0254 -0.0935,-0.0532 -0.1157,-0.0832 -0.0219,-0.0297 -0.0551,-0.1013 -0.0992,-0.2142 -0.0151,-0.038 -0.0314,-0.0613 -0.0487,-0.0705 -0.0176,-0.0088 -0.0444,-0.0134 -0.0793,-0.0134 -0.0092,0 -0.0272,3e-4 -0.0551,0.001 l 0,-0.1538 0.0261,0 c 0.0717,0 0.1221,0.0043 0.1514,0.0127 0.0293,0.0089 0.0554,0.0269 0.0786,0.0551 0.023,0.0278 0.053,0.0857 0.0904,0.1739 0.0455,0.1083 0.08,0.1739 0.1037,0.1975 0.024,0.0233 0.0656,0.035 0.125599,0.035 l 0,-0.474199 0.190101,0 z m 0.753499,0 0.1863,0 0,0.456899 0.515699,0 0,-0.456899 0.1859,0 0,1.0975 -0.1859,0 0,-0.486799 -0.515699,0 0,0.486799 -0.1863,0 0,-1.0975 z m 1.0985,0.548599 c 0,-0.2032 0.0564,-0.3538 0.1697,-0.451499 0.0942,-0.0812 0.2092,-0.1221 0.345,-0.1221 0.151,0 0.2744,0.0494 0.37,0.1485 0.096,0.0988 0.1436,0.2353 0.1436,0.409599 0,0.1414 -0.0212,0.2526 -0.0635,0.3333 -0.0423,0.0812 -0.104,0.144 -0.1848,0.1888 -0.0812,0.0448 -0.1694,0.067 -0.2653,0.067 -0.1535,0 -0.2776,-0.049 -0.3725,-0.1478 -0.0949,-0.0984 -0.1422,-0.2402 -0.1422,-0.425799 z m 0.1912,0 c 0,0.1407 0.0307,0.2459 0.0921,0.3157 0.0614,0.0702 0.1386,0.1051 0.2314,0.1051 0.0924,0 0.1693,-0.0352 0.2307,-0.1054 0.061,-0.0702 0.0917,-0.1775 0.0917,-0.3214 0,-0.1358 -0.0307,-0.2388 -0.0924,-0.3087 -0.0617,-0.0698 -0.1383,-0.1047 -0.23,-0.1047 -0.0928,0 -0.17,0.0349 -0.2314,0.1044 -0.0614,0.0695 -0.0921,0.1746 -0.0921,0.315 z m 1.0234,0.971499 -0.0208,-0.1746 c 0.0409,0.0109 0.0762,0.0166 0.1066,0.0166 0.0412,0 0.0744,-0.0071 0.0991,-0.0208 0.025,-0.0138 0.0451,-0.0328 0.061,-0.0579 0.012,-0.0183 0.0307,-0.0645 0.0568,-0.1383 0.0035,-0.0106 0.0092,-0.0254 0.0166,-0.0455 l -0.416299,-1.0996 0.2004,0 0.2286,0.635399 c 0.0293,0.0808 0.0561,0.1654 0.0794,0.2543 0.0215,-0.0853 0.0469,-0.1686 0.0765,-0.2501 l 0.2346,-0.639599 0.1859,0 -0.417299,1.1162 c -0.0448,0.1206 -0.0797,0.2035 -0.1044,0.249 -0.0332,0.0614 -0.0709,0.1062 -0.1136,0.1348 -0.0431,0.0286 -0.0939,0.043 -0.1531,0.043 -0.036,0 -0.0759,-0.0077 -0.12,-0.0229 z m 1.0657,-1.5201 0.1859,0 0,0.474199 c 0.0593,0 0.1009,-0.0113 0.1246,-0.0339 0.0236,-0.0229 0.0585,-0.0889 0.1047,-0.1986 0.0367,-0.0868 0.0664,-0.1439 0.0889,-0.1715 0.023,-0.0275 0.0491,-0.0462 0.0787,-0.0557 0.0296,-0.0099 0.0773,-0.0145 0.1425,-0.0145 l 0.0374,0 0,0.1538 -0.0518,-10e-4 c -0.0487,0 -0.0801,0.0074 -0.0939,0.0219 -0.0144,0.0151 -0.0367,0.0603 -0.0663,0.1354 -0.0282,0.0716 -0.054,0.121 -0.0776,0.1485 -0.0233,0.0279 -0.0596,0.053 -0.1083,0.0755 0.0797,0.0216 0.1584,0.096 0.2356,0.2233 l 0.2036,0.3401 -0.2046,0 -0.1986,-0.3401 c -0.0406,-0.0681 -0.0762,-0.1132 -0.1062,-0.1347 -0.0303,-0.0219 -0.0667,-0.0325 -0.1087,-0.0325 l 0,0.507299 -0.1859,0 0,-1.0975 z m 0.927099,1.518 0,-1.518 0.1693,0 0,0.1426 c 0.0399,-0.0558 0.085,-0.0978 0.1355,-0.1256 0.0501,-0.0279 0.1111,-0.042 0.1827,-0.042 0.0939,0 0.1764,0.0243 0.248,0.0723 0.072,0.0483 0.126,0.1164 0.1623,0.2043 0.0367,0.0878 0.055,0.1841 0.055,0.2889 0,0.1122 -0.0201,0.2134 -0.0607,0.3034 -0.0402,0.0899 -0.0987,0.1587 -0.1756,0.2067 -0.0769,0.0476 -0.1577,0.0716 -0.2424,0.0716 -0.0621,0 -0.1175,-0.0131 -0.1668,-0.0392 -0.0494,-0.0261 -0.0896,-0.0592 -0.1214,-0.0991 l 0,0.534099 -0.1859,0 z m 0.1683,-0.963099 c 0,0.1412 0.0285,0.2456 0.0857,0.3133 0.0571,0.0674 0.1266,0.1012 0.2078,0.1012 0.0825,0 0.1534,-0.0349 0.2123,-0.1051 0.0589,-0.0698 0.0886,-0.1781 0.0886,-0.3249 0,-0.14 -0.0289,-0.2444 -0.0865,-0.3143 -0.0575,-0.0695 -0.1262,-0.1044 -0.206,-0.1044 -0.0793,0 -0.1495,0.037 -0.2106,0.1111 -0.061,0.0741 -0.0913,0.182 -0.0913,0.3231 z m 1.725,0.407099 c -0.0691,0.0586 -0.1355,0.0999 -0.1989,0.1242 -0.0639,0.024 -0.1323,0.036 -0.2054,0.036 -0.1206,0 -0.213,-0.0293 -0.2779,-0.0882 -0.0646,-0.0589 -0.097,-0.1344 -0.097,-0.2258 0,-0.0539 0.0119,-0.103 0.0366,-0.1474 0.0244,-0.0445 0.0565,-0.0801 0.096,-0.1069 0.0399,-0.0268 0.0843,-0.0473 0.134,-0.061 0.0364,-0.0096 0.0914,-0.0191 0.1651,-0.0279 0.1503,-0.018 0.2611,-0.0392 0.332,-0.0642 7e-4,-0.0254 0.001,-0.0416 0.001,-0.0483 0,-0.0759 -0.0176,-0.1295 -0.0529,-0.1602 -0.0472,-0.0423 -0.1181,-0.0631 -0.2116,-0.0631 -0.0875,0 -0.1521,0.0151 -0.194,0.0458 -0.0417,0.0307 -0.0724,0.085 -0.0925,0.163 l -0.1816,-0.0251 c 0.0165,-0.0776 0.0437,-0.1407 0.0814,-0.1883 0.0378,-0.048 0.0928,-0.085 0.1644,-0.1108 0.0716,-0.0258 0.1545,-0.0388 0.2491,-0.0388 0.0938,0 0.1697,0.0113 0.2282,0.0332 0.0586,0.0222 0.1016,0.0497 0.1295,0.0832 0.0275,0.0335 0.0466,0.0755 0.0578,0.1267 0.006,0.0317 0.0092,0.0888 0.0092,0.1714 l 0,0.248 c 0,0.1732 0.0039,0.2826 0.012,0.3281 0.0078,0.0458 0.0236,0.0899 0.0469,0.1319 l -0.1943,0 c -0.0191,-0.0385 -0.0318,-0.0836 -0.0371,-0.1355 z m -0.0155,-0.415499 c -0.0677,0.0278 -0.169,0.0511 -0.3037,0.0705 -0.0766,0.011 -0.1309,0.0233 -0.1623,0.0371 -0.0318,0.0137 -0.0565,0.0338 -0.0734,0.0606 -0.0173,0.0265 -0.0261,0.0558 -0.0261,0.0882 0,0.0498 0.0191,0.0911 0.0564,0.1242 0.0374,0.0328 0.0925,0.0494 0.1648,0.0494 0.0716,0 0.1355,-0.0155 0.1912,-0.0469 0.0557,-0.0314 0.097,-0.0745 0.1231,-0.1288 0.0201,-0.042 0.03,-0.104 0.03,-0.1859 l 0,-0.0684 z m 0.541499,0.550999 0,-1.0975 0.1859,0 0,1.0975 -0.1859,0 z m -0.1951,-1.3126 0,-0.2117 0.1944,0 0,0.2117 -0.1944,0 z m 0.385199,0 0,-0.2117 0.1944,0 0,0.2117 -0.1944,0 z m 0.3338,0.2151 0.1863,0 0,0.456899 0.515699,0 0,-0.456899 0.1859,0 0,1.0975 -0.1859,0 0,-0.486799 -0.515699,0 0,0.486799 -0.1863,0 0,-1.0975 z m 1.8841,0.695299 0.1827,0.024 c -0.0197,0.126 -0.0709,0.2247 -0.1534,0.296 -0.0822,0.0713 -0.1834,0.1069 -0.3034,0.1069 -0.1499,0 -0.2709,-0.049 -0.3619,-0.1471 -0.0914,-0.0981 -0.1373,-0.2388 -0.1373,-0.422299 0,-0.1185 0.0198,-0.2222 0.059,-0.3111 0.0395,-0.0889 0.0991,-0.1556 0.1795,-0.2 0.0801,-0.0445 0.1676,-0.0667 0.2618,-0.0667 0.1192,0 0.2169,0.0303 0.2924,0.0907 0.0759,0.0603 0.1245,0.1457 0.1461,0.2568 l -0.181,0.0278 c -0.0173,-0.0737 -0.0476,-0.1291 -0.0914,-0.1665 -0.0437,-0.037 -0.0966,-0.0557 -0.1587,-0.0557 -0.0939,0 -0.1701,0.0335 -0.2286,0.1009 -0.0586,0.067 -0.0879,0.1732 -0.0879,0.3185 0,0.1475 0.0283,0.2547 0.0851,0.3218 0.0564,0.0666 0.1301,0.1001 0.2211,0.1001 0.0731,0 0.1337,-0.0225 0.1828,-0.0673 0.049,-0.0448 0.0801,-0.1136 0.0931,-0.2068 z m 0.339,-0.695299 0.1859,0 0,0.428699 0.2357,0 c 0.1538,0 0.272,0.0299 0.3549,0.0896 0.0832,0.0596 0.1245,0.1418 0.1245,0.2465 0,0.0914 -0.0346,0.1701 -0.1037,0.235 -0.0692,0.0652 -0.1799,0.0977 -0.3323,0.0977 l -0.464999,0 0,-1.0975 z m 0.1859,0.944399 0.1955,0 c 0.1178,0 0.2017,-0.0145 0.2522,-0.0434 0.0501,-0.0289 0.0751,-0.0741 0.0751,-0.1351 0,-0.0476 -0.0183,-0.09 -0.0557,-0.1273 -0.037,-0.0371 -0.1196,-0.0558 -0.2469,-0.0558 l -0.2202,0 0,0.3616 z m 0.918899,-0.944399 0.1859,0 0,0.474199 c 0.0593,0 0.1009,-0.0113 0.1246,-0.0339 0.0236,-0.0229 0.0585,-0.0889 0.1047,-0.1986 0.0367,-0.0868 0.0664,-0.1439 0.0889,-0.1715 0.023,-0.0275 0.0491,-0.0462 0.0787,-0.0557 0.0296,-0.0099 0.0773,-0.0145 0.1425,-0.0145 l 0.0374,0 0,0.1538 -0.0518,-10e-4 c -0.0487,0 -0.0801,0.0074 -0.0939,0.0219 -0.0144,0.0151 -0.0367,0.0603 -0.0663,0.1354 -0.0282,0.0716 -0.054,0.121 -0.0776,0.1485 -0.0233,0.0279 -0.0596,0.053 -0.1083,0.0755 0.0797,0.0216 0.1584,0.096 0.2356,0.2233 l 0.2036,0.3401 -0.2046,0 -0.1986,-0.3401 c -0.0406,-0.0681 -0.0762,-0.1132 -0.1062,-0.1347 -0.0303,-0.0219 -0.0667,-0.0325 -0.1087,-0.0325 l 0,0.507299 -0.1859,0 0,-1.0975 z"
   id="_327958576"
   style="fill:#2b2a29;fill-rule:nonzero" />
   <path
   d="m 27.8417,27.8696 0,-1.5151 0.568599,0 c 0.1157,0 0.2085,0.0155 0.2784,0.0458 0.0702,0.0307 0.1248,0.078 0.1643,0.1418 0.0396,0.0635 0.0597,0.1302 0.0597,0.2001 0,0.0645 -0.0177,0.1255 -0.053,0.1827 -0.0349,0.0571 -0.0881,0.1034 -0.159,0.1386 0.0917,0.0268 0.1619,0.0727 0.2113,0.1373 0.0493,0.0649 0.074,0.1414 0.074,0.2296 0,0.0709 -0.0151,0.1369 -0.0451,0.1979 -0.03,0.061 -0.067,0.108 -0.1111,0.1411 -0.0441,0.0332 -0.0995,0.0579 -0.1658,0.0748 -0.0664,0.0169 -0.1478,0.0254 -0.2445,0.0254 l -0.577799,0 z m 0.2007,-0.878399 0.3277,0 c 0.0886,0 0.1524,-0.006 0.1912,-0.0176 0.0508,-0.0152 0.0893,-0.0402 0.115,-0.0755 0.0258,-0.0353 0.0388,-0.0794 0.0388,-0.1323 0,-0.0501 -0.012,-0.0945 -0.036,-0.1326 -0.0243,-0.0385 -0.0589,-0.0646 -0.1033,-0.0787 -0.0448,-0.0141 -0.1217,-0.0212 -0.2307,-0.0212 l -0.3027,0 0,0.457899 z m 0,0.699499 0.3771,0 c 0.0649,0 0.1104,-0.0024 0.1365,-0.007 0.0462,-0.0085 0.0847,-0.0222 0.1157,-0.0416 0.0311,-0.0191 0.0565,-0.0473 0.0766,-0.084 0.0197,-0.037 0.03,-0.0794 0.03,-0.1277 0,-0.0564 -0.0145,-0.1055 -0.0434,-0.1475 -0.029,-0.0416 -0.0692,-0.0709 -0.1207,-0.0878 -0.0511,-0.0166 -0.1252,-0.025 -0.2215,-0.025 l -0.3503,0 0,0.520599 z m 1.1264,-0.37 c 0,-0.2032 0.0564,-0.3538 0.1697,-0.451499 0.0942,-0.0812 0.2092,-0.1221 0.345,-0.1221 0.151,0 0.2744,0.0494 0.37,0.1485 0.096,0.0988 0.1436,0.2353 0.1436,0.409599 0,0.1414 -0.0212,0.2526 -0.0635,0.3333 -0.0423,0.0812 -0.104,0.144 -0.1848,0.1888 -0.0812,0.0448 -0.1694,0.067 -0.2653,0.067 -0.1535,0 -0.2776,-0.049 -0.3725,-0.1478 -0.0949,-0.0984 -0.1422,-0.2402 -0.1422,-0.425799 z m 0.1912,0 c 0,0.1407 0.0307,0.2459 0.0921,0.3157 0.0614,0.0702 0.1386,0.1051 0.2314,0.1051 0.0924,0 0.1693,-0.0352 0.2307,-0.1054 0.061,-0.0702 0.0917,-0.1775 0.0917,-0.3214 0,-0.1358 -0.0307,-0.2388 -0.0924,-0.3087 -0.0617,-0.0698 -0.1383,-0.1047 -0.23,-0.1047 -0.0928,0 -0.17,0.0349 -0.2314,0.1044 -0.0614,0.0695 -0.0921,0.1746 -0.0921,0.315 z m 1.2746,0.0529 0,-0.1457 c 0.0787,-7e-4 0.1319,-0.0039 0.1609,-0.0095 0.0285,-0.0053 0.0553,-0.0219 0.0811,-0.0494 0.0254,-0.0275 0.0381,-0.0621 0.0381,-0.1034 0,-0.0504 -0.0166,-0.0906 -0.0501,-0.1206 -0.0335,-0.03 -0.0765,-0.0448 -0.1298,-0.0448 -0.1048,0 -0.1782,0.0617 -0.2201,0.1848 l -0.1768,-0.0289 c 0.0551,-0.206 0.188,-0.309 0.398999,-0.309 0.1171,0 0.2088,0.0321 0.2755,0.0963 0.0663,0.0639 0.0998,0.1404 0.0998,0.2293 0,0.0896 -0.0437,0.1609 -0.1305,0.2141 0.0554,0.0297 0.0967,0.0674 0.1242,0.1129 0.0275,0.0459 0.0413,0.1002 0.0413,0.163 0,0.0984 -0.0357,0.1785 -0.1076,0.2399 -0.0716,0.061 -0.1718,0.0917 -0.3006,0.0917 -0.2501,0 -0.395099,-0.1111 -0.435299,-0.3337 l 0.175,-0.0371 c 0.0159,0.0702 0.048,0.1246 0.0966,0.163 0.0484,0.0388 0.1041,0.0579 0.1669,0.0579 0.0624,0 0.1146,-0.0177 0.1566,-0.0529 0.0416,-0.0357 0.0625,-0.0808 0.0625,-0.1362 0,-0.0427 -0.0131,-0.0797 -0.0395,-0.1115 -0.0262,-0.0317 -0.054,-0.0515 -0.0837,-0.0593 -0.0296,-0.0081 -0.0832,-0.0119 -0.1612,-0.0119 -0.006,0 -0.0204,3e-4 -0.0423,0.001 z m 0.728499,-0.601499 0.1863,0 0,0.456899 0.515699,0 0,-0.456899 0.1859,0 0,1.0975 -0.1859,0 0,-0.486799 -0.515699,0 0,0.486799 -0.1863,0 0,-1.0975 z m 1.919,0.743999 0.1923,0.0237 c -0.0303,0.1125 -0.0864,0.1996 -0.1683,0.2617 -0.0822,0.0618 -0.1869,0.0928 -0.3143,0.0928 -0.1605,0 -0.2878,-0.0494 -0.381699,-0.1482 -0.0942,-0.0987 -0.1411,-0.2374 -0.1411,-0.415899 0,-0.1848 0.0476,-0.3281 0.1425,-0.429999 0.0953,-0.102 0.2184,-0.1531 0.3701,-0.1531 0.1467,0 0.2667,0.0501 0.3594,0.1499 0.0932,0.0999 0.1397,0.2406 0.1397,0.421599 0,0.0113 -3e-4,0.0278 -10e-4,0.0497 l -0.818399,0 c 0.0067,0.1207 0.0409,0.2131 0.1023,0.2769 0.0614,0.0642 0.1375,0.0963 0.2293,0.0963 0.0681,0 0.1263,-0.0179 0.1746,-0.0539 0.0483,-0.0357 0.0864,-0.0928 0.1146,-0.1715 z m -0.610599,-0.3009 0.612799,0 c -0.0082,-0.0921 -0.0318,-0.1615 -0.0702,-0.2074 -0.0593,-0.0716 -0.1362,-0.1076 -0.2304,-0.1076 -0.0854,0 -0.1573,0.0286 -0.2155,0.0857 -0.0583,0.0572 -0.0904,0.1337 -0.0967,0.2293 z m 1.7529,0.2522 0.1827,0.024 c -0.0197,0.126 -0.0709,0.2247 -0.1534,0.296 -0.0822,0.0713 -0.1834,0.1069 -0.3034,0.1069 -0.1499,0 -0.2709,-0.049 -0.3619,-0.1471 -0.0914,-0.0981 -0.1373,-0.2388 -0.1373,-0.422299 0,-0.1185 0.0198,-0.2222 0.059,-0.3111 0.0395,-0.0889 0.0991,-0.1556 0.1795,-0.2 0.0801,-0.0445 0.1676,-0.0667 0.2618,-0.0667 0.1192,0 0.2169,0.0303 0.2924,0.0907 0.0759,0.0603 0.1245,0.1457 0.1461,0.2568 l -0.181,0.0278 c -0.0173,-0.0737 -0.0476,-0.1291 -0.0914,-0.1665 -0.0437,-0.037 -0.0966,-0.0557 -0.1587,-0.0557 -0.0939,0 -0.1701,0.0335 -0.2286,0.1009 -0.0586,0.067 -0.0879,0.1732 -0.0879,0.3185 0,0.1475 0.0283,0.2547 0.0851,0.3218 0.0564,0.0666 0.1301,0.1001 0.2211,0.1001 0.0731,0 0.1337,-0.0225 0.1828,-0.0673 0.049,-0.0448 0.0801,-0.1136 0.0931,-0.2068 z m 1.0932,0.0487 0.1923,0.0237 c -0.0303,0.1125 -0.0864,0.1996 -0.1683,0.2617 -0.0822,0.0618 -0.1869,0.0928 -0.3143,0.0928 -0.1605,0 -0.2878,-0.0494 -0.381699,-0.1482 -0.0942,-0.0987 -0.1411,-0.2374 -0.1411,-0.415899 0,-0.1848 0.0476,-0.3281 0.1425,-0.429999 0.0953,-0.102 0.2184,-0.1531 0.3701,-0.1531 0.1467,0 0.2667,0.0501 0.3594,0.1499 0.0932,0.0999 0.1397,0.2406 0.1397,0.421599 0,0.0113 -3e-4,0.0278 -10e-4,0.0497 l -0.818399,0 c 0.0067,0.1207 0.0409,0.2131 0.1023,0.2769 0.0614,0.0642 0.1375,0.0963 0.2293,0.0963 0.0681,0 0.1263,-0.0179 0.1746,-0.0539 0.0483,-0.0357 0.0864,-0.0928 0.1146,-0.1715 z m -0.610599,-0.3009 0.612799,0 c -0.0082,-0.0921 -0.0318,-0.1615 -0.0702,-0.2074 -0.0593,-0.0716 -0.1362,-0.1076 -0.2304,-0.1076 -0.0854,0 -0.1573,0.0286 -0.2155,0.0857 -0.0583,0.0572 -0.0904,0.1337 -0.0967,0.2293 z m 1.0375,-0.443099 0.1863,0 0,0.456899 0.515699,0 0,-0.456899 0.1859,0 0,1.0975 -0.1859,0 0,-0.486799 -0.515699,0 0,0.486799 -0.1863,0 0,-1.0975 z m 1.8841,0.695299 0.1827,0.024 c -0.0197,0.126 -0.0709,0.2247 -0.1534,0.296 -0.0822,0.0713 -0.1834,0.1069 -0.3034,0.1069 -0.1499,0 -0.2709,-0.049 -0.3619,-0.1471 -0.0914,-0.0981 -0.1373,-0.2388 -0.1373,-0.422299 0,-0.1185 0.0198,-0.2222 0.059,-0.3111 0.0395,-0.0889 0.0991,-0.1556 0.1795,-0.2 0.0801,-0.0445 0.1676,-0.0667 0.2618,-0.0667 0.1192,0 0.2169,0.0303 0.2924,0.0907 0.0759,0.0603 0.1245,0.1457 0.1461,0.2568 l -0.181,0.0278 c -0.0173,-0.0737 -0.0476,-0.1291 -0.0914,-0.1665 -0.0437,-0.037 -0.0966,-0.0557 -0.1587,-0.0557 -0.0939,0 -0.1701,0.0335 -0.2286,0.1009 -0.0586,0.067 -0.0879,0.1732 -0.0879,0.3185 0,0.1475 0.0283,0.2547 0.0851,0.3218 0.0564,0.0666 0.1301,0.1001 0.2211,0.1001 0.0731,0 0.1337,-0.0225 0.1828,-0.0673 0.049,-0.0448 0.0801,-0.1136 0.0931,-0.2068 z m 0.339,-0.695299 0.1859,0 0,0.428699 0.2357,0 c 0.1538,0 0.272,0.0299 0.3549,0.0896 0.0832,0.0596 0.1245,0.1418 0.1245,0.2465 0,0.0914 -0.0346,0.1701 -0.1037,0.235 -0.0692,0.0652 -0.1799,0.0977 -0.3323,0.0977 l -0.464999,0 0,-1.0975 z m 0.1859,0.944399 0.1955,0 c 0.1178,0 0.2017,-0.0145 0.2522,-0.0434 0.0501,-0.0289 0.0751,-0.0741 0.0751,-0.1351 0,-0.0476 -0.0183,-0.09 -0.0557,-0.1273 -0.037,-0.0371 -0.1196,-0.0558 -0.2469,-0.0558 l -0.2202,0 0,0.3616 z m 0.918899,-0.944399 0.1859,0 0,0.474199 c 0.0593,0 0.1009,-0.0113 0.1246,-0.0339 0.0236,-0.0229 0.0585,-0.0889 0.1047,-0.1986 0.0367,-0.0868 0.0664,-0.1439 0.0889,-0.1715 0.023,-0.0275 0.0491,-0.0462 0.0787,-0.0557 0.0296,-0.0099 0.0773,-0.0145 0.1425,-0.0145 l 0.0374,0 0,0.1538 -0.0518,-10e-4 c -0.0487,0 -0.0801,0.0074 -0.0939,0.0219 -0.0144,0.0151 -0.0367,0.0603 -0.0663,0.1354 -0.0282,0.0716 -0.054,0.121 -0.0776,0.1485 -0.0233,0.0279 -0.0596,0.053 -0.1083,0.0755 0.0797,0.0216 0.1584,0.096 0.2356,0.2233 l 0.2036,0.3401 -0.2046,0 -0.1986,-0.3401 C 39.6326,27.4614 39.597,27.4163 39.567,27.3948 39.5367,27.3729 39.5003,27.3623 39.4583,27.3623 l 0,0.507299 -0.1859,0 0,-1.0975 z"
   id="_327958504"
   style="fill:#2b2a29;fill-rule:nonzero" />
   <g
   id="g32">
    <path
   d="m 45.6744,48.0173 c 0.613499,0 1.1007,-0.485699 1.1007,-1.1014 0,-0.614199 -0.487199,-1.1014 -1.1007,-1.1014 -0.616399,0 -1.1011,0.487199 -1.1011,1.1014 0,0.615699 0.484699,1.1014 1.1011,1.1014 z"
   id="_327958432"
   style="fill:#fefefe;stroke:#2b2a29;stroke-width:0.1547" />
    <path
   d="m 45.6744,47.5316 c 0.3317,0 0.613499,-0.2818 0.613499,-0.615699 0,-0.3327 -0.2818,-0.614199 -0.613499,-0.614199 -0.3332,0 -0.616399,0.2815 -0.616399,0.614199 0,0.3339 0.2832,0.615699 0.616399,0.615699"
   id="_327323992"
   style="fill:none;stroke:#2b2a29;stroke-width:0.1857" />
   </g>
   <path
   d="m 45.9723,45.0969 0,-2.5253 0.610599,0 0.3664,1.7227 0.3621,-1.7227 0.611999,0 0,2.5253 -0.378599,0 0,-1.9879 -0.401299,1.9879 -0.392699,0 -0.399899,-1.9879 0,1.9879 -0.378599,0 z m 2.3439,-1.8292 0.372,0 0,1.1489 0.595499,-1.1489 0.380099,0 0,1.8292 -0.3721,0 0,-1.1695 -0.603499,1.1695 -0.372,0 0,-1.8292 z m 1.7291,0 0.386099,0 0,0.747299 c 0.064,-0.0088 0.1096,-0.0335 0.1364,-0.074 0.0264,-0.04 0.0588,-0.1282 0.0965,-0.2635 0.0494,-0.1805 0.1039,-0.2957 0.1627,-0.3463 0.0588,-0.0505 0.1359,-0.0758 0.2315,-0.0758 0.0291,0 0.0804,0.0029 0.1528,0.0088 l 0.0014,0.3204 c -0.102,0 -0.1674,0.0118 -0.1957,0.0359 -0.0286,0.0253 -0.0592,0.1006 -0.0921,0.2258 -0.0452,0.1687 -0.1101,0.2728 -0.1943,0.3116 0.1219,0.0429 0.2253,0.1752 0.3099,0.398099 0.0043,0.0117 0.0095,0.0235 0.0152,0.0364 l 0.2163,0.504499 -0.416299,0 -0.1928,-0.528599 c -0.0396,-0.107 -0.0739,-0.1758 -0.1026,-0.2064 -0.0291,-0.0299 -0.0719,-0.0452 -0.1289,-0.0452 l 0,0.780199 -0.386099,0 0,-1.8292 z m 1.3011,0.888499 c 0,-0.1606 0.032,-0.3164 0.095,-0.466899 0.0635,-0.1499 0.1534,-0.2652 0.2695,-0.344 0.1162,-0.0793 0.246,-0.1193 0.389499,-0.1193 0.2211,0 0.402599,0.0899 0.544199,0.2699 0.1416,0.1799 0.2122,0.406799 0.2122,0.681399 0,0.2764 -0.0715,0.505699 -0.2141,0.687899 -0.143,0.1823 -0.3226,0.2729 -0.539399,0.2729 -0.1346,0 -0.262,-0.0377 -0.383899,-0.1135 -0.1218,-0.0759 -0.2145,-0.187 -0.278,-0.3334 -0.063,-0.1464 -0.095,-0.3246 -0.095,-0.534999 z m 0.396999,0.0258 c 0,0.1817 0.0343,0.3205 0.1035,0.416899 0.0687,0.0964 0.1538,0.1446 0.2549,0.1446 0.1011,0 0.1858,-0.0482 0.254,-0.1446 0.0687,-0.0964 0.1031,-0.2364 0.1031,-0.420399 0,-0.1787 -0.0344,-0.3169 -0.1031,-0.413299 -0.0682,-0.0965 -0.1529,-0.1447 -0.254,-0.1447 -0.1011,0 -0.1862,0.0482 -0.2549,0.1447 -0.0692,0.0964 -0.1035,0.2357 -0.1035,0.416799 z m 1.4511,-0.914299 1.2968,0 0,1.8292 -0.385699,0 0,-1.4364 -0.527799,0 0,0.821399 c 0,0.2093 -0.0193,0.3557 -0.0578,0.440399 -0.0386,0.0841 -0.0814,0.1393 -0.1284,0.1658 -0.0466,0.0264 -0.1219,0.04 -0.2258,0.04 -0.0616,0 -0.143,-0.0106 -0.2441,-0.0312 l 0,-0.3563 c 0.0084,0 0.0301,6e-4 0.0649,0.0029 0.0404,0.0036 0.0715,0.0053 0.0936,0.0053 0.0522,0 0.0847,-0.0211 0.0964,-0.0647 0.0123,-0.0429 0.0179,-0.1628 0.0179,-0.3592 l 0,-1.0572 z m 1.9779,0.557999 -0.3514,-0.0794 c 0.0395,-0.1769 0.1073,-0.3075 0.2037,-0.392699 0.0969,-0.0847 0.2399,-0.1276 0.429899,-0.1276 0.1731,0 0.3015,0.0259 0.386199,0.077 0.0842,0.0512 0.1439,0.1158 0.1783,0.1946 0.0343,0.0788 0.0517,0.2229 0.0517,0.433399 l -0.0043,0.564999 c 0,0.1605 0.0062,0.2793 0.0189,0.3557 0.0122,0.0759 0.0357,0.1582 0.0696,0.2452 l -0.383299,0 c -0.01,-0.0323 -0.0226,-0.08 -0.0372,-0.1429 -0.0061,-0.0288 -0.0108,-0.0476 -0.0136,-0.057 -0.0664,0.0805 -0.1369,0.1405 -0.2122,0.1811 -0.0753,0.04 -0.1557,0.06 -0.2413,0.06 -0.1505,0 -0.2695,-0.0512 -0.3561,-0.1529 -0.087,-0.1023 -0.1303,-0.2317 -0.1303,-0.388099 0,-0.1029 0.0198,-0.1952 0.0593,-0.2763 0.0395,-0.0812 0.095,-0.1429 0.1661,-0.1858 0.0709,-0.0429 0.174,-0.0806 0.3081,-0.1129 0.1806,-0.0423 0.3061,-0.0823 0.3758,-0.1188 l 0,-0.0482 c 0,-0.0935 -0.0184,-0.1593 -0.055,-0.1993 -0.0368,-0.0394 -0.1059,-0.0594 -0.208,-0.0594 -0.0691,0 -0.1228,0.0171 -0.1613,0.0512 -0.0386,0.0335 -0.0696,0.0929 -0.0936,0.1781 z m 0.517899,0.392799 c -0.0494,0.0206 -0.128,0.0453 -0.2357,0.0741 -0.1073,0.0288 -0.1773,0.057 -0.2107,0.084 -0.0503,0.0453 -0.0758,0.1018 -0.0758,0.1706 0,0.0682 0.0203,0.1264 0.0608,0.1758 0.0404,0.0493 0.0916,0.074 0.1542,0.074 0.0701,0 0.1364,-0.0288 0.1999,-0.0858 0.0471,-0.0435 0.0776,-0.097 0.0922,-0.1605 0.0104,-0.0412 0.0151,-0.12 0.0151,-0.2358 l 0,-0.0964 z m 0.762399,0.878399 0,-1.8292 0.387099,0 0,1.8292 -0.387099,0 z m -0.2686,-2.1531 0,-0.415099 0.3321,0 0,0.415099 -0.3321,0 z m 0.592199,0 0,-0.415099 0.3335,0 0,0.415099 -0.3335,0 z m 0.474199,0.3239 0.847599,0 c 0.1736,0 0.3039,0.0394 0.389999,0.1188 0.0864,0.0794 0.1297,0.1987 0.1297,0.3581 0,0.1023 -0.0239,0.1911 -0.0709,0.2669 -0.0476,0.0759 -0.1068,0.1264 -0.1788,0.1517 0.1011,0.0312 0.1764,0.0888 0.2262,0.174 0.0494,0.0853 0.0743,0.1782 0.0743,0.2793 0,0.1423 -0.0418,0.2581 -0.1251,0.3469 -0.0837,0.0888 -0.2074,0.1335 -0.3711,0.1335 l -0.921899,0 0,-1.8292 z m 0.390399,0.759699 0.2493,0 c 0.1204,0 0.2074,-0.0194 0.2611,-0.057 0.0536,-0.0377 0.0804,-0.0976 0.0804,-0.1794 0,-0.077 -0.0249,-0.1317 -0.0748,-0.164 -0.0504,-0.0329 -0.1392,-0.0494 -0.2667,-0.0494 l -0.2493,0 0,0.449799 z m 0,0.759599 0.3057,0 c 0.1101,0 0.1905,-0.017 0.2413,-0.0499 0.0503,-0.0335 0.0758,-0.0935 0.0758,-0.1794 0,-0.0893 -0.0292,-0.1511 -0.0871,-0.1852 -0.0578,-0.0341 -0.1702,-0.0505 -0.3377,-0.0505 l -0.198,0 0,0.464999 z"
   id="_327916264"
   style="fill:#2b2a29;fill-rule:nonzero" />
  </g>
 </g>
</svg>