<?xml version="1.0" encoding="UTF-8" standalone="no"?>
<!-- Created with Inkscape (http://www.inkscape.org/) -->

<svg
   xmlns:svg="http://www.w3.org/2000/svg"
   xmlns="http://www.w3.org/2000/svg"
   version="1.1"
   width="83.033302mm"
   height="112.637mm"
   viewBox="0 0 83.0332 112.637"
   id="svg2"
   xml:space="preserve"
   style="fill-rule:evenodd">
 <defs
   id="defs4">
  <style
   type="text/css"
   id="style6" />
 </defs>
 <g
   id="Layer_x0020_1">
  
  <g
   id="_322658536">
   <path
   d="m 39.4981,99.5896 c 1.3291,-0.868799 2.6579,-1.8662 3.91,-2.8108 1.3535,-1.0477 1.9664,-2.58 3.3464,-3.4486 0.561999,-0.3331 1.2013,-0.512299 1.7625,-0.869199 0.945099,-0.613199 1.8395,-1.533 2.6834,-2.2737 0,0 2.0693,-0.945399 1.1494,-0.868499"
   id="_322658464"
   style="fill:none" />
   <g
   id="g12">
    <path
   d="m 52.3497,112.287 c -0.689699,0.792 -1.8145,0.1271 -0.945099,-0.8689 0.2802,-0.3311 1.2252,0.5371 0.945099,0.8689 z"
   id="_322658368"
   style="fill:#ffdf49" />
    <path
   d="m 44.0208,0.2046 1.5328,0.0760999 0.663999,1.4828 0.944999,-0.0768 -0.1276,-0.664299 0.792199,-0.741699 0.4094,0.460999 0.689699,-0.460999 2.1465,2.2235 1.0721,0.740999 2.1461,-0.1526 2.5298,0 c 0.0508,0.0245 0.1278,0.051 0.2032,0.0758 l 0.1545,1.201 1.2003,0.0775 0,0.612499 -1.2003,0.051 -1.2014,0.1526 -1.0725,0.664199 0.919699,1.3288 -0.3833,0.689399 0.0513,1.1244 2.0943,2.0178003 -0.945499,0.4097 0.818199,2.1459 0.460099,1.6853 1.8903,-0.4078 -0.0763,2.6313 -1.022,0.459199 0.740399,3.6291 0.740999,-0.2057 0.4088,0.741399 4.70149,-0.459599 0.612699,1.736 1.2012,-0.2032 0,-1.2013 0.843099,-0.204 0.689599,0.2801 0,1.6106 0.2049,0.792999 1.5326,-0.1281 0.2803,0.739299 0.869299,0.206 0.2557,1.151 -1.073,0.2546 0.0761,1.1483 -0.817499,0.3331 0.3319,1.5338 1.0217,0.1522 0.2051,0.663199 -0.613699,0.3332 0.664899,1.9409 -0.792399,0.2818 0,0.536799 0.664399,0 0.3325,1.2013 2.0181,-0.740999 0.2814,1.226 0.867399,0.0514 0.459899,1.1489 1.4828,-0.3328 0.2806,0.614299 1.8652,-0.485399 0.205,1.6857 -1.6613,0.740299 0.536499,1.5344 1.8648,-0.538399 0.485399,-0.534999 1.5331,-0.1278 0.818199,4.44479 0.2036,0.919899 -0.613599,0.4092 -0.0765,0.689399 -1.9413,-0.0754 -0.0764,0.995599 -1.6096,0.2046 -0.1282,1.2764 -1.4049,1.89 0.205,1.6884 1.1231,1.8129 -0.051,2.2737 0.536399,0.741399 0,1.2775 0.1795,1.5833 -0.1278,0.102 -0.2053,0.741999 c -0.3828,0.0507 -0.740399,0.1272 -1.1238,0.1272 -0.536099,0 -1.0979,-0.2567 -1.6091,-0.1272 -0.664199,0.153 -1.1235,0.739699 -1.7632,0.919599 -0.459399,0.1526 -1.0213,-0.1799 -1.4809,0 -0.742399,0.3062 -1.2521,1.0721 -1.9935,1.3528 -0.510899,0.1802 -1.0983,-0.1522 -1.6354,0 -2.1709,0.639799 -0.689499,1.3795 -0.663499,2.6834 0.0501,1.7105 0,4.98199 -2.2483,5.39089 -0.562199,0.0775 -0.664499,-1.1228 -1.2263,-1.2261 -0.3319,-0.0513 -0.459999,0.612899 -0.3834,0.945299 0.076,0.4083 0.663999,0.536499 0.791499,0.945399 0.613399,1.9929 -0.969599,3.0141 -1.89,4.57259 -0.128,0.2298 -2.6828,5.77509 -3.2196,4.70049 -0.3324,-0.663099 0.766699,-1.9409 0.690399,-2.6816 -0.0515,-0.3328 -0.485899,-0.434399 -0.690399,-0.688999 -0.3822,-0.511999 -0.919799,-0.971899 -1.0733,-1.6113 -0.0763,-0.3573 0.4096,-0.688699 0.4096,-1.0725 0,-1.7625 -1.814,-1.1503 -2.4278,-2.1463 -0.4085,-0.690399 0.460299,-3.372 -1.0722,-3.372 -0.1277,0 0.790599,2.2482 0,2.1714 -1.7122,-0.1788 -0.511099,-4.72599 -3.6279,-2.8356 -2.8622,1.7363 -0.0262,4.92989 1.7622,6.18249 1.0478,0.739699 3.0146,0.0765 3.8833,1.4804 0.3323,0.538799 0.0765,1.2788 0.2809,1.8924 0.256,0.842999 0.791899,1.5578 1.0734,2.4009 0.4096,1.3291 -0.971099,1.6619 -1.6092,2.5559 -0.511799,0.714099 -0.690499,1.6085 -1.2272,2.2979 -0.510699,0.690999 -3.7036,4.34419 -4.57299,4.29319 -0.638399,-0.0261 -0.2043,-1.9933 -0.791299,-1.738 -0.869399,0.3342 0.1271,2.9383 -1.3543,2.6834 -0.307,-0.0513 -0.3836,-0.536099 -0.664599,-0.689699 -0.766899,-0.3597 -1.5837,-0.970899 -2.427,-0.792099 -0.434299,0.101 0.1025,0.894399 0,1.3536 -0.689899,3.1444 -1.2001,-2.1973 -1.3283,0.664599 -0.051,0.611799 0.3065,1.3284 0,1.8652 -0.2043,0.3565 -0.690599,-1.8401 -1.0728,-1.6096 -0.3326,0.2036 0.1016,0.817199 -0.1536,1.0728 -0.766599,0.791399 -1.4561,-0.970099 -1.7377,-0.792399 -0.204,0.1289 -0.2554,2.1194 -0.1279,2.4285 0.2558,0.612899 1.2265,0.918799 1.2013,1.6074 -0.0258,0.511299 -0.843199,0.640199 -1.3544,0.793099 -0.2043,0.0762 -0.485399,-0.2553 -0.663899,-0.1285 -0.1533,0.1027 -0.2813,1.5841 -1.0733,0.945699 -0.1023,-0.0765 0.0257,-1.4566 -0.2549,-1.891 -0.23,-0.3318 -0.792899,-0.434799 -0.945899,-0.790999 -0.1273,-0.3066 0.1022,-0.638699 0.1278,-0.945299 0.102,-0.868199 0.358,-1.7123 0.2557,-2.5549 -0.0257,-0.3576 -0.484899,-0.511299 -0.664399,-0.817199 -0.3067,-0.511299 -0.2047,-1.7126 -0.792199,-1.6095 -0.587599,0.1012 0.0775,1.1754 0,1.7621 -0.1275,0.894299 -0.868399,1.9413 -0.816899,2.8102 0.0254,0.3579 0.612899,0.587699 0.536099,0.945299 -0.0513,0.3066 -0.715499,0.2301 -0.791999,0.536799 -0.2811,0.971099 -1.0733,4.85409 -0.1533,5.64649 0.3577,0.281801 1.3795,-0.3325 1.3541,0.127801 -0.0505,0.689 -1.2775,0.8165 -1.4819,1.4814 -0.153,0.4854 0.0764,1.2013 0.536999,1.482 0.3058,0.1782 0.459999,-0.5867 0.816899,-0.689 0.256,-0.0517 0.511199,0.2798 0.792199,0.2798 0.4087,0 0.919499,-0.5616 1.2268,-0.2798 0.3066,0.3315 -0.23,0.9192 -0.1532,1.3536 0.076,0.3576 0.484799,0.5867 0.536299,0.945 0.1273,0.6136 -0.0515,1.2506 0,1.8641 0.0508,0.3838 0.3576,0.7166 0.2812,1.0987 -0.1286,0.6135 -0.4094,1.2523 -0.817499,1.738 -0.1285,0.1785 -0.715199,-0.2308 -0.664899,0 0.179,0.996 2.3759,2.8626 -0.1278,2.6827 -0.1014,0 -0.2809,-0.1026 -0.485599,-0.2294 l -0.2551,-0.7166 -0.4087,-2.6827 -0.817699,-1.6092 -1.2012,-1.738 -2.2224,-0.6884 -1.6101,-0.6642 -2.4777,-0.2043 -2.2994,0.4072 -3.7553,0.8692 -2.3506,1.6874 -1.0728,0.7394 -0.460799,1.2778 -1.021,0.4096 -1.0731,-1.2785 -0.868899,-0.6126 -1.2012,-0.2818 0.0513,1.6864 0,0.3328 -0.995999,0.6904 0.1275,0.5364 -0.664399,0.587 -3.5002,-0.7913 -3.0146999,-0.946 -3.4241,-2.0185 -1.1494,-2.0185 -0.409,-2.1459 -2.8868,-1.4814 0.868699,-1.0728 1.3541,-1.0735 4.0878,0.0765 0.536899,1.738 1.2263,-0.536 0.1278,-1.738099 1.6864,-1.1493 -0.894399,-2.8363 -0.868299,-0.587699 -0.256,-0.815799 1.8649,-2.2755 0.8682989,0.4075 1.0227,-1.0215 1.6092,-0.2549 0.664699,-0.4079 -0.536699,-0.945699 2.5034,-0.3321 -0.536099,-3.8333 0.587399,-1.0732 3.8321,-0.739599 1.0224,-0.741099 0.995899,-1.4827 -0.995899,-1.6854 3.0911,-3.7572 -2.9127,-3.7038 0.893999,-1.3281 -1.2769,-4.1128 2.3502,-0.997299 -0.1531,-0.612899 1.6356,-1.2003 2.2725,0 0.2052,-1.15 1.1498,0.0765 0.3829,1.2778 0.0772,1.8128 -0.460099,1.6874 -0.612699,1.123501 1.2772,0.281099 0.944499,-1.276399 0.664599,0.0513 -0.664599,-1.201 0.945499,-1.943 0.664899,-0.1271 1.0725,3.0145 0.460099,-0.2033 0.1529,-1.0735 2.1461,-1.943 0.664399,0.996999 -1.0731,1.4059 1.278,0.740699 0.817599,0.0762 0.715099,1.737 1.635,-0.05 -0.4086,-1.8903 0.664099,-0.0772 0.4091,0.894699 1.2011,-0.4089 -0.2046,-1.4059 0.740699,-0.536099 1.3535,1.1241 0.1285,2.9628 2.2996,0.741399 0.535199,-1.5582 1.2012,-0.2556 1.5332,0.791999 1.4821,-0.791999 1.7632,0.535999 0.0506,-1.4824 -0.791299,-0.534699 -2.888,-2.1477 -2.4262,-1.9406 1.3534,-1.2268 0.664299,-4.75109 -0.0769,-2.3006 -0.995999,-1.5335 -1.0215,-1.6843 -1.3289,-1.4831 -1.4306,1.1503 -1.3288,-3.2191 -2.0956,0.662899 -0.459799,-1.2761 -0.944799,0.1278 -0.536099,-0.791999 1.0212,-0.818599 -0.3575,-1.0728 0.740699,-0.612499 -0.2041,-1.8659 -2.1458,0.1275 -0.741399,-1.2754 1.7633,-0.537099 0,-3.5763 0.791599,-0.870299 -0.587899,-3.2962 -1.0214,0.1543 -1.4818,0.586699 0.0763,1.0746 -0.817299,0.484299 -1.2008,-0.536399 -0.740899,-1.6092 0.2047,-0.485699 -0.2815,-1.406 -0.868999,-0.1257 -0.1273,-1.3553 -1.1495,0 -0.536899,-0.946099 -1.9413,0.613299 0.3321,-2.1456 -0.536199,-0.816899 -0.613399,0.2033 -0.1282,-1.327 1.6094,-0.946399 0.3321,-1.6867 -0.1779,-3.9592 2.1456,-1.5585 0.3324,-0.536399 -0.3324,-0.996299 -1.6096,-0.1275 0,-0.689699 1.5329,-1.2778 -1.7372,-0.665599 -0.690199,-3.5512005 -2.2733,0.3342 -1.1498,1.6853005 -2.6827,-1.0218005 -1.482,-2.8102 -0.2553,-1.9671 0.0251,-0.1533 0.026,0.3066 1.3541,0.2036 0.740699,-1.4304 0,-1.6099 1.8656,0 0.613199,-0.1275 -0.460299,-1.1999 0.868499,-0.895299 2.6316,2.7598 1.8136,0.1526 1.0732,2.0698 1.7379,-0.2563 0.612099,0.460599 0.741599,-0.869199 2.0691,-0.1522 0.3328,1.0979 1.9667,-0.2808 1.0734,-1.1496 1.4056,1.0735 0.740899,-0.1802 0,-1.8135 -0.869499,-1.0218 0.536899,-0.613599 0.459899,0.486499 1.8907,-0.819299 0.0766,-0.764799 0.1278,0.0252 z"
   id="_322658320"
   style="fill:#ffdf49" />
   </g>
   <g
   id="g16">
    <path
   d="m 17.8429,107.781 c 0.471099,0 0.863499,-0.3731 0.863499,-0.8447 0,-0.471 -0.3924,-0.843 -0.863499,-0.843 -0.450999,0 -0.824099,0.372 -0.824099,0.843 0,0.4716 0.3731,0.8447 0.824099,0.8447 z"
   id="_322658200"
   style="fill:#fefefe;stroke:#2b2a29;stroke-width:0.1185" />
    <path
   d="m 17.8541,107.138 c 0.1095,0 0.2017,-0.0913 0.2017,-0.2015 0,-0.1085 -0.0922,-0.2008 -0.2017,-0.2008 -0.1011,0 -0.185,0.0923 -0.185,0.2008 0,0.1102 0.0839,0.2015 0.185,0.2015 z"
   id="_322658152"
   style="fill:#2b2a29;stroke:#2b2a29;stroke-width:0.0761999" />
   </g>
   <g
   id="g20">
    <path
   d="m 57.5046,78.065 c 0.471799,0 0.863399,-0.3738 0.863399,-0.844699 0,-0.470999 -0.3916,-0.843399 -0.863399,-0.843399 -0.450399,0 -0.823899,0.3724 -0.823899,0.843399 0,0.470899 0.3735,0.844699 0.823899,0.844699 z"
   id="_322658032"
   style="fill:#fefefe;stroke:#2b2a29;stroke-width:0.1185" />
    <path
   d="m 57.516,77.4232 c 0.1097,0 0.2019,-0.0941 0.2019,-0.2029 0,-0.1086 -0.0922,-0.2012 -0.2019,-0.2012 -0.1006,0 -0.1847,0.0926 -0.1847,0.2012 0,0.1088 0.0841,0.2029 0.1847,0.2029 z"
   id="_322657984"
   style="fill:#2b2a29;stroke:#2b2a29;stroke-width:0.0761999" />
   </g>
   <g
   id="g24">
    <path
   d="m 66.0714,70.2198 c 0.471199,0 0.863499,-0.3717 0.863499,-0.843299 0,-0.470999 -0.3923,-0.844399 -0.863499,-0.844399 -0.450999,0 -0.824399,0.3734 -0.824399,0.844399 0,0.471599 0.3734,0.843299 0.824399,0.843299 z"
   id="_322657864"
   style="fill:#fefefe;stroke:#2b2a29;stroke-width:0.1185" />
    <path
   d="m 66.0824,69.5784 c 0.1101,0 0.2022,-0.0924 0.2022,-0.2019 0,-0.1099 -0.0921,-0.2015 -0.2022,-0.2015 -0.1003,0 -0.1845,0.0916 -0.1845,0.2015 0,0.1095 0.0842,0.2019 0.1845,0.2019 z"
   id="_322657792"
   style="fill:#2b2a29;stroke:#2b2a29;stroke-width:0.0761999" />
   </g>
   <g
   id="g28">
    <path
   d="m 37.5957,19.4727 c 0.471299,0 0.863499,-0.3739 0.863499,-0.844799 0,-0.470599 -0.3922,-0.844399 -0.863499,-0.844399 -0.450499,0 -0.824099,0.3738 -0.824099,0.844399 0,0.470899 0.3736,0.844799 0.824099,0.844799 z"
   id="_327043744"
   style="fill:#fefefe;stroke:#2b2a29;stroke-width:0.1185" />
    <path
   d="m 37.6072,18.8308 c 0.1098,0 0.2014,-0.0933 0.2014,-0.2029 0,-0.1092 -0.0916,-0.2012 -0.2014,-0.2012 -0.1009,0 -0.1846,0.092 -0.1846,0.2012 0,0.1096 0.0837,0.2029 0.1846,0.2029 z"
   id="_325664304"
   style="fill:#2b2a29;stroke:#2b2a29;stroke-width:0.0761999" />
   </g>
   <path
   d="m 12.3982,105.31 0,-1.5151 0.2004,0 0,1.5151 -0.2004,0 z m 0.772999,-0.496 0,-0.1457 c 0.0787,-7e-4 0.1319,-0.004 0.1609,-0.01 0.0285,-0.005 0.0553,-0.0219 0.0811,-0.0494 0.0254,-0.0275 0.0381,-0.0621 0.0381,-0.1034 0,-0.0504 -0.0166,-0.0906 -0.0501,-0.1206 -0.0335,-0.03 -0.0765,-0.0448 -0.1298,-0.0448 -0.1048,0 -0.1782,0.0617 -0.2201,0.1848 l -0.1768,-0.0289 c 0.0551,-0.206 0.188,-0.309 0.399,-0.309 0.1171,0 0.2088,0.0321 0.2755,0.0963 0.0663,0.0639 0.0998,0.1404 0.0998,0.2293 0,0.0896 -0.0437,0.1609 -0.1305,0.2141 0.0554,0.0297 0.0967,0.0674 0.1242,0.1129 0.0275,0.0459 0.0413,0.1002 0.0413,0.163 0,0.0984 -0.0357,0.1785 -0.1076,0.2399 -0.0716,0.061 -0.1718,0.0917 -0.3006,0.0917 -0.2501,0 -0.3951,-0.1111 -0.435299,-0.3337 l 0.175,-0.0371 c 0.0159,0.0702 0.048,0.1246 0.0966,0.163 0.0484,0.0388 0.1041,0.0579 0.1669,0.0579 0.0624,0 0.1146,-0.0177 0.1566,-0.0529 0.0416,-0.0357 0.0625,-0.0808 0.0625,-0.1362 0,-0.0427 -0.0131,-0.0797 -0.0395,-0.1115 -0.0262,-0.0317 -0.054,-0.0515 -0.0837,-0.0593 -0.0296,-0.008 -0.0832,-0.0119 -0.1612,-0.0119 -0.006,0 -0.0204,3e-4 -0.0423,10e-4 z m 0.732699,-0.6015 0.2893,0 0.2886,0.8784 0.3203,-0.8784 0.2677,0 0,1.0975 -0.1859,0 0,-0.8837 -0.3245,0.8837 -0.1665,0 -0.3069,-0.926 0,0.926 -0.1821,0 0,-1.0975 z m 2.1664,0.962 c -0.0691,0.0586 -0.1355,0.0999 -0.1989,0.1242 -0.0639,0.024 -0.1323,0.036 -0.2054,0.036 -0.1206,0 -0.213,-0.0293 -0.2779,-0.0882 -0.0646,-0.0589 -0.097,-0.1344 -0.097,-0.2258 0,-0.0539 0.0119,-0.103 0.0366,-0.1474 0.0244,-0.0445 0.0565,-0.0801 0.096,-0.1069 0.0399,-0.0268 0.0843,-0.0473 0.134,-0.061 0.0364,-0.01 0.0914,-0.0191 0.1651,-0.0279 0.1503,-0.018 0.2611,-0.0392 0.332,-0.0642 7e-4,-0.0254 10e-4,-0.0416 10e-4,-0.0483 0,-0.0759 -0.0176,-0.1295 -0.0529,-0.1602 -0.0472,-0.0423 -0.1181,-0.0631 -0.2116,-0.0631 -0.0875,0 -0.1521,0.0151 -0.194,0.0458 -0.0417,0.0307 -0.0724,0.085 -0.0925,0.163 l -0.1816,-0.0251 c 0.0165,-0.0776 0.0437,-0.1407 0.0814,-0.1883 0.0378,-0.048 0.0928,-0.085 0.1644,-0.1108 0.0716,-0.0258 0.1545,-0.0388 0.2491,-0.0388 0.0938,0 0.1697,0.0113 0.2282,0.0332 0.0586,0.0222 0.1016,0.0497 0.1295,0.0832 0.0275,0.0335 0.0466,0.0755 0.0578,0.1267 0.006,0.0317 0.0092,0.0888 0.0092,0.1714 l 0,0.248 c 0,0.1732 0.0039,0.2826 0.012,0.3281 0.0078,0.0458 0.0236,0.0899 0.0469,0.1319 l -0.1943,0 c -0.0191,-0.0385 -0.0318,-0.0836 -0.0371,-0.1355 z m -0.0155,-0.4155 c -0.0677,0.0278 -0.169,0.0511 -0.3037,0.0705 -0.0766,0.011 -0.1309,0.0233 -0.1623,0.0371 -0.0318,0.0137 -0.0565,0.0338 -0.0734,0.0606 -0.0173,0.0265 -0.0261,0.0558 -0.0261,0.0882 0,0.0498 0.0191,0.0911 0.0564,0.1242 0.0374,0.0328 0.0925,0.0494 0.1648,0.0494 0.0716,0 0.1355,-0.0155 0.1912,-0.0469 0.0557,-0.0314 0.097,-0.0745 0.1231,-0.1288 0.0201,-0.042 0.03,-0.104 0.03,-0.1859 l 0,-0.0684 z m 0.541499,0.551 0,-1.0975 0.1859,0 0,1.0975 -0.1859,0 z m -0.1951,-1.3126 0,-0.2117 0.1944,0 0,0.2117 -0.1944,0 z m 0.3852,0 0,-0.2117 0.1944,0 0,0.2117 -0.1944,0 z m 0.423799,0.2151 0.864199,0 0,1.0975 -0.1852,0 0,-0.9437 -0.492799,0 0,0.5468 c 0,0.1274 -0.0042,0.2117 -0.0123,0.2523 -0.0085,0.0405 -0.0311,0.0762 -0.0685,0.1065 -0.037,0.0303 -0.091,0.0455 -0.1612,0.0455 -0.0434,0 -0.0935,-0.003 -0.1499,-0.009 l 0,-0.1548 0.0818,0 c 0.0385,0 0.066,-0.004 0.0826,-0.012 0.0166,-0.008 0.0275,-0.0205 0.0331,-0.0378 0.0057,-0.0172 0.0082,-0.0733 0.0082,-0.1686 l 0,-0.7232 z"
   id="_325664376"
   style="fill:#2b2a29;fill-rule:nonzero" />
   <path
   d="m 43.5339,76.4926 0.982799,0 0,0.1788 -0.782099,0 0,0.467099 0.3616,0 c 0.1337,0 0.2399,0.0127 0.3189,0.0384 0.0787,0.0254 0.1422,0.0734 0.1894,0.144 0.0477,0.0705 0.0717,0.1527 0.0717,0.2465 0,0.0766 -0.0173,0.1479 -0.0512,0.2145 -0.0342,0.0663 -0.085,0.1207 -0.1527,0.1627 -0.0674,0.0419 -0.1824,0.0631 -0.345,0.0631 l -0.593399,0 0,-1.5151 z m 0.2007,1.3447 0.4008,0 c 0.1083,0 0.1894,-0.0222 0.2434,-0.0663 0.0543,-0.0441 0.0811,-0.1101 0.0811,-0.1983 0,-0.0628 -0.0155,-0.1153 -0.0465,-0.1573 -0.0307,-0.042 -0.0741,-0.0698 -0.1292,-0.0836 C 44.2292,77.318 44.135,77.311 44.002,77.311 l -0.2674,0 0,0.526299 z m 1.1564,-1.1306 0,-0.2141 0.1863,0 0,0.2141 -0.1863,0 z m 0,1.301 0,-1.0975 0.1863,0 0,1.0975 -0.1863,0 z m 0.560199,-1.0975 0.864199,0 0,1.0975 -0.1852,0 0,-0.943699 -0.492799,0 0,0.546799 c 0,0.1274 -0.0042,0.2117 -0.0123,0.2523 -0.0085,0.0405 -0.0311,0.0762 -0.0685,0.1065 -0.037,0.0303 -0.091,0.0455 -0.1612,0.0455 -0.0434,0 -0.0935,-0.0028 -0.1499,-0.0085 l 0,-0.1548 0.0818,0 c 0.0385,0 0.066,-0.0043 0.0826,-0.012 0.0166,-0.0081 0.0275,-0.0205 0.0331,-0.0378 0.0057,-0.0172 0.0082,-0.0733 0.0082,-0.1686 l 0,-0.723199 z m 1.145,0 0.631499,0 0,0.1538 -0.445199,0 0,0.943699 -0.1863,0 0,-1.0975 z m 0.655099,0.548599 c 0,-0.2032 0.0564,-0.3538 0.1697,-0.451499 0.0942,-0.0812 0.2092,-0.1221 0.345,-0.1221 0.151,0 0.2744,0.0494 0.37,0.1485 0.096,0.0988 0.1436,0.2353 0.1436,0.4096 0,0.1414 -0.0212,0.2526 -0.0635,0.3333 -0.0423,0.0812 -0.104,0.144 -0.1848,0.1888 -0.0812,0.0448 -0.1694,0.067 -0.2653,0.067 -0.1535,0 -0.2776,-0.049 -0.3725,-0.1478 -0.0949,-0.0984 -0.1422,-0.2402 -0.1422,-0.425799 z m 0.1912,0 c 0,0.1407 0.0307,0.2459 0.0921,0.3157 0.0614,0.0702 0.1386,0.1051 0.2314,0.1051 0.0924,0 0.1693,-0.0352 0.2307,-0.1054 0.061,-0.0702 0.0917,-0.1775 0.0917,-0.3214 0,-0.1358 -0.0307,-0.2388 -0.0924,-0.3087 -0.0617,-0.0698 -0.1383,-0.1047 -0.23,-0.1047 -0.0928,0 -0.17,0.0349 -0.2314,0.1044 -0.0614,0.0695 -0.0921,0.1746 -0.0921,0.315 z m 1.0555,0.969399 0,-1.518 0.1693,0 0,0.1426 c 0.0399,-0.0558 0.085,-0.0978 0.1355,-0.1256 0.0501,-0.0279 0.1111,-0.042 0.1827,-0.042 0.0939,0 0.1764,0.0243 0.248,0.0723 0.072,0.0483 0.126,0.1164 0.1623,0.2043 0.0367,0.0878 0.055,0.1841 0.055,0.2889 0,0.1122 -0.0201,0.2134 -0.0607,0.3034 -0.0402,0.0899 -0.0987,0.1587 -0.1756,0.2067 -0.0769,0.0476 -0.1577,0.0716 -0.2424,0.0716 -0.0621,0 -0.1175,-0.0131 -0.1668,-0.0392 -0.0494,-0.0261 -0.0896,-0.0592 -0.1214,-0.0991 l 0,0.534099 -0.1859,0 z m 0.1683,-0.963099 c 0,0.1412 0.0285,0.2456 0.0857,0.3133 0.0571,0.0674 0.1266,0.1012 0.2078,0.1012 0.0825,0 0.1534,-0.0349 0.2123,-0.1051 0.0589,-0.0698 0.0886,-0.1781 0.0886,-0.3249 0,-0.14 -0.0289,-0.2444 -0.0865,-0.3143 -0.0575,-0.0695 -0.1262,-0.1044 -0.206,-0.1044 -0.0793,0 -0.1495,0.037 -0.2106,0.1111 -0.061,0.0741 -0.0913,0.182 -0.0913,0.3231 z m 0.939399,-0.0063 c 0,-0.2032 0.0564,-0.3538 0.1697,-0.451499 0.0942,-0.0812 0.2092,-0.1221 0.345,-0.1221 0.151,0 0.2744,0.0494 0.37,0.1485 0.096,0.0988 0.1436,0.2353 0.1436,0.4096 0,0.1414 -0.0212,0.2526 -0.0635,0.3333 -0.0423,0.0812 -0.104,0.144 -0.1848,0.1888 -0.0812,0.0448 -0.1694,0.067 -0.2653,0.067 -0.1535,0 -0.2776,-0.049 -0.3725,-0.1478 -0.0949,-0.0984 -0.1422,-0.2402 -0.1422,-0.425799 z m 0.1912,0 c 0,0.1407 0.0307,0.2459 0.0921,0.3157 0.0614,0.0702 0.1386,0.1051 0.2314,0.1051 0.0924,0 0.1693,-0.0352 0.2307,-0.1054 0.061,-0.0702 0.0917,-0.1775 0.0917,-0.3214 0,-0.1358 -0.0307,-0.2388 -0.0924,-0.3087 -0.0617,-0.0698 -0.1383,-0.1047 -0.23,-0.1047 -0.0928,0 -0.17,0.0349 -0.2314,0.1044 -0.0614,0.0695 -0.0921,0.1746 -0.0921,0.315 z m 1.1556,-0.548599 0.764799,0 0,0.944399 0.1186,0 0,0.464199 -0.1528,0 0,-0.3111 -0.863899,0 0,0.3111 -0.1531,0 0,-0.464199 0.0981,0 c 0.1308,-0.1778 0.1936,-0.492499 0.1883,-0.944399 z m 0.1549,0.1538 c -0.0137,0.3563 -0.0688,0.619899 -0.1654,0.790599 l 0.590099,0 0,-0.790599 -0.424699,0 z m 0.860699,0.488999 0,-0.187 0.571899,0 0,0.187 -0.571899,0 z m -8.30579,1.3042 0.921799,0 0,1.3362 0.1365,0 0,0.532399 -0.1788,0 0,-0.3535 -1.0015,0 0,0.3535 -0.1789,0 0,-0.532399 0.1178,0 c 0.1221,-0.1837 0.1831,-0.555599 0.1831,-1.115 l 0,-0.2212 z m 0.721099,0.1788 -0.528099,0 0,0.0776 c 0,0.1288 -0.0113,0.3048 -0.0346,0.528499 -0.0229,0.2236 -0.0684,0.4074 -0.1358,0.551299 l 0.698499,0 0,-1.1574 z m 0.551699,0.2388 0.1863,0 0,0.456899 0.515699,0 0,-0.456899 0.1859,0 0,1.0975 -0.1859,0 0,-0.486799 -0.515699,0 0,0.486799 -0.1863,0 0,-1.0975 z m 1.1687,-0.2035 0,-0.2141 0.1863,0 0,0.2141 -0.1863,0 z m 0,1.301 0,-1.0975 0.1863,0 0,1.0975 -0.1863,0 z m 1.1856,-0.4022 0.1827,0.024 c -0.0197,0.126 -0.0709,0.2247 -0.1534,0.296 -0.0822,0.0713 -0.1834,0.1069 -0.3034,0.1069 -0.1499,0 -0.2709,-0.049 -0.3619,-0.1471 -0.0914,-0.0981 -0.1373,-0.2388 -0.1373,-0.422299 0,-0.1185 0.0198,-0.2222 0.059,-0.3111 0.0395,-0.0889 0.0991,-0.1556 0.1795,-0.2 0.0801,-0.0445 0.1676,-0.0667 0.2618,-0.0667 0.1192,0 0.2169,0.0303 0.2924,0.0907 0.0759,0.0603 0.1245,0.1457 0.1461,0.2568 l -0.181,0.0278 c -0.0173,-0.0737 -0.0476,-0.1291 -0.0914,-0.1665 -0.0437,-0.037 -0.0966,-0.0557 -0.1587,-0.0557 -0.0939,0 -0.1701,0.0335 -0.2286,0.1009 -0.0586,0.067 -0.0879,0.1732 -0.0879,0.3185 0,0.1475 0.0283,0.2547 0.0851,0.3218 0.0564,0.0666 0.1301,0.1001 0.2211,0.1001 0.0731,0 0.1337,-0.0225 0.1828,-0.0673 0.049,-0.0448 0.0801,-0.1136 0.0931,-0.2068 z m 0.2417,-0.695299 0.892099,0 0,0.1538 -0.3535,0 0,0.943699 -0.1852,0 0,-0.943699 -0.3534,0 0,-0.1538 z m 1.0699,1.518 0,-1.518 0.1693,0 0,0.1426 c 0.0399,-0.0558 0.085,-0.0978 0.1355,-0.1256 0.0501,-0.0279 0.1111,-0.042 0.1827,-0.042 0.0939,0 0.1764,0.0243 0.248,0.0723 0.072,0.0483 0.126,0.1164 0.1623,0.2043 0.0367,0.0878 0.055,0.1841 0.055,0.2889 0,0.1122 -0.0201,0.2134 -0.0607,0.3034 -0.0402,0.0899 -0.0987,0.1587 -0.1756,0.2067 -0.0769,0.0476 -0.1577,0.0716 -0.2424,0.0716 -0.0621,0 -0.1175,-0.0131 -0.1668,-0.0392 -0.0494,-0.0261 -0.0896,-0.0592 -0.1214,-0.0991 l 0,0.534099 -0.1859,0 z m 0.1683,-0.963099 c 0,0.1412 0.0285,0.2456 0.0857,0.3133 0.0571,0.0674 0.1266,0.1012 0.2078,0.1012 0.0825,0 0.1534,-0.0349 0.2123,-0.1051 0.0589,-0.0698 0.0886,-0.1781 0.0886,-0.3249 0,-0.14 -0.0289,-0.2444 -0.0865,-0.3143 -0.0575,-0.0695 -0.1262,-0.1044 -0.206,-0.1044 -0.0793,0 -0.1495,0.037 -0.2106,0.1111 -0.061,0.0741 -0.0913,0.182 -0.0913,0.3231 z m 0.939399,-0.0063 c 0,-0.2032 0.0564,-0.3538 0.1697,-0.451499 0.0942,-0.0812 0.2092,-0.1221 0.345,-0.1221 0.151,0 0.2744,0.0494 0.37,0.1485 0.096,0.0988 0.1436,0.2353 0.1436,0.4096 0,0.1414 -0.0212,0.2526 -0.0635,0.3333 -0.0423,0.0812 -0.104,0.144 -0.1848,0.1888 -0.0812,0.0448 -0.1694,0.067 -0.2653,0.067 -0.1535,0 -0.2776,-0.049 -0.3725,-0.1478 -0.0949,-0.0984 -0.1422,-0.2402 -0.1422,-0.425799 z m 0.1912,0 c 0,0.1407 0.0307,0.2459 0.0921,0.3157 0.0614,0.0702 0.1386,0.1051 0.2314,0.1051 0.0924,0 0.1693,-0.0352 0.2307,-0.1054 0.061,-0.0702 0.0917,-0.1775 0.0917,-0.3214 0,-0.1358 -0.0307,-0.2388 -0.0924,-0.3087 -0.0617,-0.0698 -0.1383,-0.1047 -0.23,-0.1047 -0.0928,0 -0.17,0.0349 -0.2314,0.1044 -0.0614,0.0695 -0.0921,0.1746 -0.0921,0.315 z m 1.0562,-0.548599 0.428999,0 c 0.1054,0 0.1838,0.0089 0.2353,0.0261 0.0511,0.0177 0.0952,0.0498 0.1322,0.0967 0.0367,0.0469 0.0554,0.103 0.0554,0.1686 0,0.0522 -0.0109,0.0981 -0.0328,0.1369 -0.0215,0.0388 -0.0543,0.0716 -0.0977,0.0977 0.0519,0.0173 0.0946,0.0494 0.1288,0.0967 0.0342,0.0472 0.0511,0.103 0.0511,0.1679 -0.0067,0.1041 -0.0441,0.1813 -0.1115,0.2314 -0.0677,0.0505 -0.1658,0.0755 -0.2945,0.0755 l -0.495299,0 0,-1.0975 z m 0.1863,0.461799 0.1982,0 c 0.0794,0 0.1337,-0.0039 0.1633,-0.0123 0.0297,-0.0081 0.0561,-0.0251 0.0798,-0.0501 0.0233,-0.0251 0.0349,-0.0554 0.0349,-0.0903 0,-0.0579 -0.0205,-0.0985 -0.0614,-0.121 -0.0409,-0.023 -0.1111,-0.0343 -0.2102,-0.0343 l -0.2046,0 0,0.308 z m 0,0.482599 0.2448,0 c 0.1055,0 0.1778,-0.012 0.2169,-0.0367 0.0395,-0.0243 0.06,-0.0667 0.0621,-0.1263 0,-0.0353 -0.0113,-0.0677 -0.0342,-0.0977 -0.0226,-0.03 -0.0522,-0.049 -0.0885,-0.0568 -0.0367,-0.0081 -0.0953,-0.012 -0.1761,-0.012 l -0.225,0 0,0.3295 z m 1.6301,-0.2491 0.1827,0.024 c -0.0197,0.126 -0.0709,0.2247 -0.1534,0.296 -0.0822,0.0713 -0.1834,0.1069 -0.3034,0.1069 -0.1499,0 -0.2709,-0.049 -0.3619,-0.1471 -0.0914,-0.0981 -0.1373,-0.2388 -0.1373,-0.422299 0,-0.1185 0.0198,-0.2222 0.059,-0.3111 0.0395,-0.0889 0.0991,-0.1556 0.1795,-0.2 0.0801,-0.0445 0.1676,-0.0667 0.2618,-0.0667 0.1192,0 0.2169,0.0303 0.2924,0.0907 0.0759,0.0603 0.1245,0.1457 0.1461,0.2568 l -0.181,0.0278 c -0.0173,-0.0737 -0.0476,-0.1291 -0.0914,-0.1665 -0.0437,-0.037 -0.0966,-0.0557 -0.1587,-0.0557 -0.0939,0 -0.1701,0.0335 -0.2286,0.1009 -0.0586,0.067 -0.0879,0.1732 -0.0879,0.3185 0,0.1475 0.0283,0.2547 0.0851,0.3218 0.0564,0.0666 0.1301,0.1001 0.2211,0.1001 0.0731,0 0.1337,-0.0225 0.1828,-0.0673 0.049,-0.0448 0.0801,-0.1136 0.0931,-0.2068 z m 0.339,-0.695299 0.1859,0 0,0.428699 0.2357,0 c 0.1538,0 0.272,0.0299 0.3549,0.0896 0.0832,0.0596 0.1245,0.1418 0.1245,0.2465 0,0.0914 -0.0346,0.1701 -0.1037,0.235 -0.0692,0.0652 -0.1799,0.0977 -0.3323,0.0977 l -0.464999,0 0,-1.0975 z m 0.1859,0.944399 0.1955,0 c 0.1178,0 0.2017,-0.0145 0.2522,-0.0434 0.0501,-0.0289 0.0751,-0.0741 0.0751,-0.1351 0,-0.0476 -0.0183,-0.09 -0.0557,-0.1273 -0.037,-0.0371 -0.1196,-0.0558 -0.2469,-0.0558 l -0.2202,0 0,0.3616 z m 0.918899,-0.944399 0.1859,0 0,0.474199 c 0.0593,0 0.1009,-0.0113 0.1246,-0.0339 0.0236,-0.0229 0.0585,-0.0889 0.1047,-0.1986 0.0367,-0.0868 0.0664,-0.1439 0.0889,-0.1715 0.023,-0.0275 0.0491,-0.0462 0.0787,-0.0557 0.0296,-0.0099 0.0773,-0.0145 0.1425,-0.0145 l 0.0374,0 0,0.1538 -0.0518,-0.001 c -0.0487,0 -0.0801,0.0074 -0.0939,0.0219 -0.0144,0.0151 -0.0367,0.0603 -0.0663,0.1354 -0.0282,0.0716 -0.054,0.121 -0.0776,0.1485 -0.0233,0.0279 -0.0596,0.053 -0.1083,0.0755 0.0797,0.0216 0.1584,0.096 0.2356,0.2233 l 0.2036,0.3401 -0.2046,0 -0.1986,-0.3401 c -0.0406,-0.0681 -0.0762,-0.1132 -0.1062,-0.1347 -0.0303,-0.0219 -0.0667,-0.0325 -0.1087,-0.0325 l 0,0.507299 -0.1859,0 0,-1.0975 z m 0.927099,0 0.1859,0 0,0.837199 0.515699,-0.837199 0.2004,0 0,1.0975 -0.1859,0 0,-0.831799 -0.515699,0.831799 -0.2004,0 0,-1.0975 z m 1.1825,0 0.1859,0 0,0.837199 0.515699,-0.837199 0.2004,0 0,1.0975 -0.1859,0 0,-0.831799 -0.515699,0.831799 -0.2004,0 0,-1.0975 z m 0.645899,-0.415499 0.127,0 c -0.0102,0.0861 -0.0416,0.1524 -0.0945,0.1982 -0.0526,0.0463 -0.1228,0.0695 -0.2103,0.0695 -0.0882,0 -0.1587,-0.0229 -0.2113,-0.0688 -0.0529,-0.0458 -0.0843,-0.1121 -0.0945,-0.1989 l 0.127,0 c 0.0095,0.0469 0.0289,0.0818 0.0575,0.1048 0.0285,0.0232 0.067,0.0345 0.115,0.0345 0.0561,0 0.098,-0.0109 0.1266,-0.0335 0.0286,-0.0222 0.048,-0.0575 0.0575,-0.1058 z"
   id="_325664472"
   style="fill:#2b2a29;fill-rule:nonzero" />
   <path
   d="m 58.1952,68.0399 0,-1.5151 0.2004,0 0,1.5151 -0.2004,0 z m 0.620999,-1.0975 0.864199,0 0,1.0975 -0.1852,0 0,-0.943699 -0.492799,0 0,0.546799 c 0,0.1274 -0.0042,0.2117 -0.0123,0.2523 -0.0085,0.0405 -0.0311,0.0762 -0.0685,0.1065 -0.037,0.0303 -0.091,0.0455 -0.1612,0.0455 -0.0434,0 -0.0935,-0.0028 -0.1499,-0.0085 l 0,-0.1548 0.0818,0 c 0.0385,0 0.066,-0.0043 0.0826,-0.012 0.0166,-0.0081 0.0275,-0.0205 0.0331,-0.0378 0.0057,-0.0172 0.0082,-0.0733 0.0082,-0.1686 l 0,-0.723199 z m 1.145,-0.2035 0,-0.2141 0.1863,0 0,0.2141 -0.1863,0 z m 0,1.301 0,-1.0975 0.1863,0 0,1.0975 -0.1863,0 z m 0.4011,-1.0975 0.1862,0 0,0.2078 c 0,0.0893 0.0053,0.1545 0.0159,0.1947 0.0106,0.0403 0.0363,0.0755 0.0769,0.1055 0.0406,0.03 0.0917,0.0448 0.1531,0.0448 0.0702,0 0.1612,-0.0187 0.2727,-0.0557 l 0,-0.497099 0.1862,0 0,1.0975 -0.1862,0 0,-0.442399 c -0.1143,0.036 -0.2212,0.0537 -0.3203,0.0537 -0.0833,0 -0.157,-0.0212 -0.2205,-0.0635 -0.0639,-0.0424 -0.1072,-0.0942 -0.1298,-0.1556 -0.023,-0.061 -0.0342,-0.1288 -0.0342,-0.2025 l 0,-0.2872 z m 1.1718,-0.2035 0,-0.2141 0.1863,0 0,0.2141 -0.1863,0 z m 0,1.301 0,-1.0975 0.1863,0 0,1.0975 -0.1863,0 z m 0.470199,-1.0975 0.428999,0 c 0.1054,0 0.1838,0.0089 0.2353,0.0261 0.0511,0.0177 0.0952,0.0498 0.1322,0.0967 0.0367,0.0469 0.0554,0.103 0.0554,0.1686 0,0.0522 -0.0109,0.0981 -0.0328,0.1369 -0.0215,0.0388 -0.0543,0.0716 -0.0977,0.0977 0.0519,0.0173 0.0946,0.0494 0.1288,0.0967 0.0342,0.0472 0.0511,0.103 0.0511,0.1679 -0.0067,0.1041 -0.0441,0.1813 -0.1115,0.2314 -0.0677,0.0505 -0.1658,0.0755 -0.2945,0.0755 l -0.495299,0 0,-1.0975 z m 0.1863,0.461799 0.1982,0 c 0.0794,0 0.1337,-0.0039 0.1633,-0.0123 0.0297,-0.0081 0.0561,-0.0251 0.0798,-0.0501 0.0233,-0.0251 0.0349,-0.0554 0.0349,-0.0903 0,-0.0579 -0.0205,-0.0985 -0.0614,-0.121 -0.0409,-0.023 -0.1111,-0.0343 -0.2102,-0.0343 l -0.2046,0 0,0.308 z m 0,0.482599 0.2448,0 c 0.1055,0 0.1778,-0.012 0.2169,-0.0367 0.0395,-0.0243 0.06,-0.0667 0.0621,-0.1263 0,-0.0353 -0.0113,-0.0677 -0.0342,-0.0977 -0.0226,-0.03 -0.0522,-0.049 -0.0885,-0.0568 -0.0367,-0.0081 -0.0953,-0.012 -0.1761,-0.012 l -0.225,0 0,0.3295 z m 1.6301,-0.2491 0.1827,0.024 c -0.0197,0.126 -0.0709,0.2247 -0.1534,0.296 -0.0822,0.0713 -0.1834,0.1069 -0.3034,0.1069 -0.1499,0 -0.2709,-0.049 -0.3619,-0.1471 -0.0914,-0.0981 -0.1373,-0.2388 -0.1373,-0.422299 0,-0.1185 0.0198,-0.2222 0.059,-0.3111 0.0395,-0.0889 0.0991,-0.1556 0.1795,-0.2 0.0801,-0.0445 0.1676,-0.0667 0.2618,-0.0667 0.1192,0 0.2169,0.0303 0.2924,0.0907 0.0759,0.0603 0.1245,0.1457 0.1461,0.2568 l -0.181,0.0278 c -0.0173,-0.0737 -0.0476,-0.1291 -0.0914,-0.1665 -0.0437,-0.037 -0.0966,-0.0557 -0.1587,-0.0557 -0.0939,0 -0.1701,0.0335 -0.2286,0.1009 -0.0586,0.067 -0.0879,0.1732 -0.0879,0.3185 0,0.1475 0.0283,0.2547 0.0851,0.3218 0.0564,0.0666 0.1301,0.1001 0.2211,0.1001 0.0731,0 0.1337,-0.0225 0.1828,-0.0673 0.049,-0.0448 0.0801,-0.1136 0.0931,-0.2068 z m 0.339,-0.695299 0.1859,0 0,0.428699 0.2357,0 c 0.1538,0 0.272,0.0299 0.3549,0.0896 0.0832,0.0596 0.1245,0.1418 0.1245,0.2465 0,0.0914 -0.0346,0.1701 -0.1037,0.235 -0.0692,0.0652 -0.1799,0.0977 -0.3323,0.0977 l -0.464999,0 0,-1.0975 z m 0.1859,0.944399 0.1955,0 c 0.1178,0 0.2017,-0.0145 0.2522,-0.0434 0.0501,-0.0289 0.0751,-0.0741 0.0751,-0.1351 0,-0.0476 -0.0183,-0.09 -0.0557,-0.1273 -0.037,-0.0371 -0.1196,-0.0558 -0.2469,-0.0558 l -0.2202,0 0,0.3616 z m 0.918899,-0.944399 0.1859,0 0,0.474199 c 0.0593,0 0.1009,-0.0113 0.1246,-0.0339 0.0236,-0.0229 0.0585,-0.0889 0.1047,-0.1986 0.0367,-0.0868 0.0664,-0.1439 0.0889,-0.1715 0.023,-0.0275 0.0491,-0.0462 0.0787,-0.0557 0.0296,-0.0099 0.0773,-0.0145 0.1425,-0.0145 l 0.0374,0 0,0.1538 -0.0518,-0.001 c -0.0487,0 -0.0801,0.0074 -0.0939,0.0219 -0.0144,0.0151 -0.0367,0.0603 -0.0663,0.1354 -0.0282,0.0716 -0.054,0.121 -0.0776,0.1485 -0.0233,0.0279 -0.0596,0.053 -0.1083,0.0755 0.0797,0.0216 0.1584,0.096 0.2356,0.2233 l 0.2036,0.3401 -0.2046,0 -0.1986,-0.3401 c -0.0406,-0.0681 -0.0762,-0.1132 -0.1062,-0.1347 -0.0303,-0.0219 -0.0667,-0.0325 -0.1087,-0.0325 l 0,0.507299 -0.1859,0 0,-1.0975 z"
   id="_325541528"
   style="fill:#2b2a29;fill-rule:nonzero" />
   <path
   d="m 37.7192,20.3742 0.2004,0 0,0.663499 c 0.0917,0 0.1559,-0.0176 0.1933,-0.0532 0.037,-0.0357 0.0847,-0.1207 0.1425,-0.2558 0.042,-0.0991 0.0766,-0.1693 0.1041,-0.2103 0.0271,-0.0409 0.0659,-0.0754 0.116,-0.1033 0.0505,-0.0279 0.1059,-0.042 0.1665,-0.042 0.0773,0 0.1179,7e-4 0.1221,0.0021 l 0,0.1736 c -0.0071,0 -0.0205,-4e-4 -0.0406,-0.0011 -0.0218,-7e-4 -0.0352,-0.001 -0.0402,-0.001 -0.0642,0 -0.1115,0.0155 -0.1425,0.0465 -0.0317,0.0311 -0.0681,0.0974 -0.1087,0.1986 -0.0508,0.1281 -0.0938,0.2089 -0.1291,0.2424 -0.0352,0.0332 -0.0772,0.06 -0.1259,0.0801 0.0977,0.0268 0.194,0.1171 0.2893,0.2705 l 0.3122,0.504499 -0.2491,0 -0.2533,-0.4113 c -0.0695,-0.1136 -0.128,-0.1916 -0.1746,-0.2343 -0.0469,-0.0423 -0.1076,-0.0635 -0.182,-0.0635 l 0,0.709099 -0.2004,0 0,-1.5151 z m 1.1366,0.966199 c 0,-0.2032 0.0564,-0.3538 0.1697,-0.451499 0.0942,-0.0812 0.2092,-0.1221 0.345,-0.1221 0.151,0 0.2744,0.0494 0.37,0.1485 0.096,0.0988 0.1436,0.2353 0.1436,0.4096 0,0.1414 -0.0212,0.2526 -0.0635,0.3333 -0.0423,0.0812 -0.104,0.144 -0.1848,0.1888 -0.0812,0.0448 -0.1694,0.067 -0.2653,0.067 -0.1535,0 -0.2776,-0.049 -0.3725,-0.1478 -0.0949,-0.0984 -0.1422,-0.2402 -0.1422,-0.425799 z m 0.1912,0 c 0,0.1407 0.0307,0.2459 0.0921,0.3157 0.0614,0.0702 0.1386,0.1051 0.2314,0.1051 0.0924,0 0.1693,-0.0352 0.2307,-0.1054 0.061,-0.0702 0.0917,-0.1775 0.0917,-0.3214 0,-0.1358 -0.0307,-0.2388 -0.0924,-0.3087 -0.0617,-0.0698 -0.1383,-0.1047 -0.23,-0.1047 -0.0928,0 -0.17,0.0349 -0.2314,0.1044 -0.0614,0.0695 -0.0921,0.1746 -0.0921,0.315 z m 0.908399,-0.548599 0.892099,0 0,0.1538 -0.3535,0 0,0.943699 -0.1852,0 0,-0.943699 -0.3534,0 0,-0.1538 z m 0.976799,0.548599 c 0,-0.2032 0.0564,-0.3538 0.1697,-0.451499 0.0942,-0.0812 0.2092,-0.1221 0.345,-0.1221 0.151,0 0.2744,0.0494 0.37,0.1485 0.096,0.0988 0.1436,0.2353 0.1436,0.4096 0,0.1414 -0.0212,0.2526 -0.0635,0.3333 -0.0423,0.0812 -0.104,0.144 -0.1848,0.1888 -0.0812,0.0448 -0.1694,0.067 -0.2653,0.067 -0.1535,0 -0.2776,-0.049 -0.3725,-0.1478 -0.0949,-0.0984 -0.1422,-0.2402 -0.1422,-0.425799 z m 0.1912,0 c 0,0.1407 0.0307,0.2459 0.0921,0.3157 0.0614,0.0702 0.1386,0.1051 0.2314,0.1051 0.0924,0 0.1693,-0.0352 0.2307,-0.1054 0.061,-0.0702 0.0917,-0.1775 0.0917,-0.3214 0,-0.1358 -0.0307,-0.2388 -0.0924,-0.3087 -0.0617,-0.0698 -0.1383,-0.1047 -0.23,-0.1047 -0.0928,0 -0.17,0.0349 -0.2314,0.1044 -0.0614,0.0695 -0.0921,0.1746 -0.0921,0.315 z m 1.0562,-0.548599 0.428999,0 c 0.1054,0 0.1838,0.0089 0.2353,0.0261 0.0511,0.0177 0.0952,0.0498 0.1322,0.0967 0.0367,0.0469 0.0554,0.103 0.0554,0.1686 0,0.0522 -0.0109,0.0981 -0.0328,0.1369 -0.0215,0.0388 -0.0543,0.0716 -0.0977,0.0977 0.0519,0.0173 0.0946,0.0494 0.1288,0.0967 0.0342,0.0472 0.0511,0.103 0.0511,0.1679 -0.0067,0.1041 -0.0441,0.1813 -0.1115,0.2314 -0.0677,0.0505 -0.1658,0.0755 -0.2945,0.0755 l -0.495299,0 0,-1.0975 z m 0.1863,0.461799 0.1982,0 c 0.0794,0 0.1337,-0.0039 0.1633,-0.0123 0.0297,-0.0081 0.0561,-0.0251 0.0798,-0.0501 0.0233,-0.0251 0.0349,-0.0554 0.0349,-0.0903 0,-0.0579 -0.0205,-0.0985 -0.0614,-0.121 -0.0409,-0.023 -0.1111,-0.0343 -0.2102,-0.0343 l -0.2046,0 0,0.308 z m 0,0.482599 0.2448,0 c 0.1055,0 0.1778,-0.012 0.2169,-0.0367 0.0395,-0.0243 0.06,-0.0667 0.0621,-0.1263 0,-0.0353 -0.0113,-0.0677 -0.0342,-0.0977 -0.0226,-0.03 -0.0522,-0.049 -0.0885,-0.0568 -0.0367,-0.0081 -0.0953,-0.012 -0.1761,-0.012 l -0.225,0 0,0.3295 z m 1.6301,-0.2491 0.1827,0.024 c -0.0197,0.126 -0.0709,0.2247 -0.1534,0.296 -0.0822,0.0713 -0.1834,0.1069 -0.3034,0.1069 -0.1499,0 -0.2709,-0.049 -0.3619,-0.1471 -0.0914,-0.0981 -0.1373,-0.2388 -0.1373,-0.422299 0,-0.1185 0.0198,-0.2222 0.059,-0.3111 0.0395,-0.0889 0.0991,-0.1556 0.1795,-0.2 0.0801,-0.0445 0.1676,-0.0667 0.2618,-0.0667 0.1192,0 0.2169,0.0303 0.2924,0.0907 0.0759,0.0603 0.1245,0.1457 0.1461,0.2568 l -0.181,0.0278 c -0.0173,-0.0737 -0.0476,-0.1291 -0.0914,-0.1665 -0.0437,-0.037 -0.0966,-0.0557 -0.1587,-0.0557 -0.0939,0 -0.1701,0.0335 -0.2286,0.1009 -0.0586,0.067 -0.0879,0.1732 -0.0879,0.3185 0,0.1475 0.0283,0.2547 0.0851,0.3218 0.0564,0.0666 0.1301,0.1001 0.2211,0.1001 0.0731,0 0.1337,-0.0225 0.1828,-0.0673 0.049,-0.0448 0.0801,-0.1136 0.0931,-0.2068 z m 0.339,-0.695299 0.1859,0 0,0.428699 0.2357,0 c 0.1538,0 0.272,0.0299 0.3549,0.0896 0.0832,0.0596 0.1245,0.1418 0.1245,0.2465 0,0.0914 -0.0346,0.1701 -0.1037,0.235 -0.0692,0.0652 -0.1799,0.0977 -0.3323,0.0977 l -0.464999,0 0,-1.0975 z m 0.1859,0.944399 0.1955,0 c 0.1178,0 0.2017,-0.0145 0.2522,-0.0434 0.0501,-0.0289 0.0751,-0.0741 0.0751,-0.1351 0,-0.0476 -0.0183,-0.09 -0.0557,-0.1273 -0.037,-0.0371 -0.1196,-0.0558 -0.2469,-0.0558 l -0.2202,0 0,0.3616 z m 0.918899,-0.944399 0.1859,0 0,0.474199 c 0.0593,0 0.1009,-0.0113 0.1246,-0.0339 0.0236,-0.0229 0.0585,-0.0889 0.1047,-0.1986 0.0367,-0.0868 0.0664,-0.1439 0.0889,-0.1715 0.023,-0.0275 0.0491,-0.0462 0.0787,-0.0557 0.0296,-0.0099 0.0773,-0.0145 0.1425,-0.0145 l 0.0374,0 0,0.1538 -0.0518,-0.001 c -0.0487,0 -0.0801,0.0074 -0.0939,0.0219 -0.0144,0.0151 -0.0367,0.0603 -0.0663,0.1354 -0.0282,0.0716 -0.054,0.121 -0.0776,0.1485 -0.0233,0.0279 -0.0596,0.053 -0.1083,0.0755 0.0797,0.0216 0.1584,0.096 0.2356,0.2233 l 0.2036,0.3401 -0.2046,0 -0.1986,-0.3401 c -0.0406,-0.0681 -0.0762,-0.1132 -0.1062,-0.1347 -0.0303,-0.0219 -0.0667,-0.0325 -0.1087,-0.0325 l 0,0.507299 -0.1859,0 0,-1.0975 z"
   id="_325627616"
   style="fill:#2b2a29;fill-rule:nonzero" />
   <g
   id="g36">
    <path
   d="m 67.1969,65.8987 c 0.614899,0 1.1269,-0.486499 1.1269,-1.1014 0,-0.614599 -0.511999,-1.1011 -1.1269,-1.1011 -0.588599,0 -1.0758,0.486499 -1.0758,1.1011 0,0.614899 0.487199,1.1014 1.0758,1.1014 z"
   id="_323648296"
   style="fill:#fefefe;stroke:#2b2a29;stroke-width:0.1547" />
    <path
   d="m 67.1969,65.4122 c 0.334,0 0.614899,-0.2825 0.614899,-0.614899 0,-0.3335 -0.2809,-0.614599 -0.614899,-0.614599 -0.307,0 -0.563799,0.2811 -0.563799,0.614599 0,0.3324 0.2568,0.614899 0.563799,0.614899"
   id="_323917472"
   style="fill:none;stroke:#2b2a29;stroke-width:0.1857" />
   </g>
   <path
   d="m 58.5647,61.8787 c 0,-0.2575 0.0306,-0.473299 0.0922,-0.647899 0.046,-0.1282 0.1086,-0.244 0.1881,-0.3463 0.0795,-0.1017 0.1665,-0.1776 0.2611,-0.227 0.126,-0.067 0.2709,-0.0999 0.435599,-0.0999 0.2976,0 0.535699,0.1152 0.714399,0.3463 0.1788,0.2305 0.2681,0.551499 0.2681,0.962499 0,0.408 -0.0889,0.726699 -0.2662,0.957199 -0.1773,0.2299 -0.4144,0.3451 -0.710699,0.3451 -0.3006,0 -0.539599,-0.1146 -0.716799,-0.3434 -0.1774,-0.2293 -0.2658,-0.544999 -0.2658,-0.946599 z m 0.419999,-0.017 c 0,0.2857 0.0532,0.502699 0.1586,0.650299 0.1058,0.1475 0.2398,0.221 0.4026,0.221 0.1622,0 0.2958,-0.0729 0.4002,-0.2199 0.104,-0.1464 0.1562,-0.3657 0.1562,-0.658499 0,-0.2893 -0.0508,-0.504999 -0.1519,-0.647899 -0.1016,-0.1423 -0.2366,-0.2135 -0.4045,-0.2135 -0.1684,0 -0.3039,0.0724 -0.4069,0.2164 -0.1025,0.1441 -0.1543,0.361 -0.1543,0.652099 z m 2.9949,1.2641 -1.1083,0 0,0.482099 -0.3141,0 0,-0.878399 0.1585,0 c 0.0663,-0.0917 0.1208,-0.2352 0.1641,-0.430399 0.0433,-0.1952 0.0691,-0.529699 0.0771,-1.0025 l 1.1812,0 0,1.4329 0.1571,0 0,0.878399 -0.3156,0 0,-0.482099 z m -0.2249,-0.3963 0.0014,-1.0354 -0.468399,0 c -0.0156,0.505699 -0.08,0.850799 -0.1929,1.0354 l 0.659899,0 z m 1.6538,-0.1858 0.3863,0.0806 c -0.0499,0.1769 -0.128,0.3116 -0.2352,0.4039 -0.1068,0.0929 -0.2409,0.1388 -0.4017,0.1388 -0.2545,0 -0.442599,-0.1035 -0.564999,-0.3117 -0.0964,-0.1664 -0.1448,-0.3769 -0.1448,-0.630299 0,-0.3034 0.0635,-0.540899 0.1904,-0.712599 0.1266,-0.1717 0.287,-0.2575 0.480799,-0.2575 0.2178,0 0.3895,0.0899 0.515599,0.2699 0.1255,0.1799 0.1857,0.455099 0.1805,0.826099 l -0.970299,0 c 0.0028,0.1434 0.0338,0.2551 0.0936,0.3345 0.0597,0.08 0.1345,0.12 0.2234,0.12 0.0607,0 0.1115,-0.0206 0.1528,-0.0618 0.0415,-0.0417 0.073,-0.1082 0.0936,-0.1999 z m 0.0222,-0.489199 c -0.0029,-0.1405 -0.0315,-0.2469 -0.0866,-0.3198 -0.055,-0.0729 -0.1223,-0.1094 -0.2013,-0.1094 -0.0847,0 -0.1543,0.0388 -0.2093,0.1158 -0.055,0.0765 -0.0823,0.1811 -0.0814,0.3134 l 0.578599,0 z m 1.9394,-0.2169 -0.382,0.0858 c -0.0127,-0.0952 -0.0419,-0.167 -0.0875,-0.2152 -0.0457,-0.0482 -0.1045,-0.0723 -0.1769,-0.0723 -0.0968,0 -0.1736,0.0417 -0.2309,0.1246 -0.0574,0.0835 -0.0861,0.2229 -0.0861,0.418099 0,0.2169 0.0292,0.3704 0.0875,0.459799 0.0583,0.0893 0.1364,0.134 0.2347,0.134 0.0739,0 0.1336,-0.0258 0.1806,-0.0782 0.047,-0.0523 0.08,-0.1423 0.0993,-0.2693 l 0.3805,0.0806 c -0.0395,0.2181 -0.1157,0.3833 -0.2276,0.494499 -0.112,0.1117 -0.262,0.167 -0.450699,0.167 -0.214,0 -0.3847,-0.0841 -0.511699,-0.2529 -0.1275,-0.1687 -0.191,-0.4027 -0.191,-0.701399 0,-0.3016 0.064,-0.536799 0.1914,-0.704999 0.128,-0.1687 0.3006,-0.2528 0.518399,-0.2528 0.1783,0 0.3199,0.0482 0.425199,0.144 0.1049,0.0959 0.1806,0.2423 0.2268,0.438699 z m 0.616999,0.017 -0.3514,-0.0794 c 0.0396,-0.1769 0.1073,-0.3075 0.2037,-0.3927 0.0969,-0.0847 0.2399,-0.1276 0.429899,-0.1276 0.1732,0 0.3016,0.0259 0.3862,0.077 0.0842,0.0512 0.1439,0.1158 0.1783,0.1946 0.0343,0.0788 0.0517,0.2229 0.0517,0.433399 l -0.0042,0.564999 c 0,0.1605 0.0061,0.2793 0.0188,0.3557 0.0122,0.0759 0.0357,0.1582 0.0696,0.2452 l -0.3833,0 c -0.0099,-0.0323 -0.0226,-0.08 -0.0372,-0.1429 -0.0061,-0.0288 -0.0108,-0.0476 -0.0136,-0.057 -0.0663,0.0805 -0.1369,0.1405 -0.2122,0.1811 -0.0753,0.04 -0.1557,0.06 -0.2413,0.06 -0.1505,0 -0.2695,-0.0512 -0.356,-0.1529 -0.0871,-0.1023 -0.1304,-0.2317 -0.1304,-0.3881 0,-0.1029 0.0198,-0.1952 0.0593,-0.2763 0.0395,-0.0812 0.0951,-0.1429 0.1661,-0.1858 0.071,-0.0429 0.174,-0.0806 0.3081,-0.1129 0.1806,-0.0423 0.3061,-0.0823 0.3758,-0.1188 l 0,-0.0482 c 0,-0.0935 -0.0184,-0.1593 -0.055,-0.1993 -0.0367,-0.0394 -0.1059,-0.0594 -0.2079,-0.0594 -0.0692,0 -0.1228,0.0171 -0.1614,0.0512 -0.0386,0.0335 -0.0696,0.0929 -0.0936,0.1781 z m 0.517899,0.3928 c -0.0494,0.0206 -0.128,0.0453 -0.2357,0.0741 -0.1072,0.0288 -0.1773,0.057 -0.2107,0.084 -0.0503,0.0453 -0.0757,0.1018 -0.0757,0.1706 0,0.0682 0.0202,0.1264 0.0607,0.1758 0.0404,0.0493 0.0917,0.074 0.1542,0.074 0.0701,0 0.1364,-0.0288 0.1999,-0.0858 0.0471,-0.0435 0.0776,-0.097 0.0922,-0.1605 0.0104,-0.0412 0.0151,-0.12 0.0151,-0.2358 l 0,-0.0964 z"
   id="_325179504"
   style="fill:#2b2a29;fill-rule:nonzero" />
  </g>
 </g>
</svg>