<?xml version="1.0" encoding="UTF-8" standalone="no"?>
<!-- Created with Inkscape (http://www.inkscape.org/) -->

<svg
   xmlns:svg="http://www.w3.org/2000/svg"
   xmlns="http://www.w3.org/2000/svg"
   version="1.1"
   width="83.314102mm"
   height="66.579697mm"
   viewBox="0 0 81.3672 65.0238"
   id="svg2"
   xml:space="preserve"
   style="fill-rule:evenodd">
 <defs
   id="defs4">
  <style
   type="text/css"
   id="style6" />
 </defs>
 <g
   id="Layer_x0020_1">
  
  <path
   d="m 44.5637,60.3081 -1.89525,-1.77132 -1.92123,-0.449348 -1.0491,-0.07432 -1.57228,-0.649069 -0.523182,0.449055 -0.250604,1.84642 -1.19755,0 -0.198452,-0.923405 -2.02075,0.199721 0,-0.8484 -1.57228,0.125009 0,1.04724 -2.89454,-3.74196 1.04802,-0.399833 -1.17352,-1.97114 0.973995,-0.973409 -0.45013,-0.722707 -0.923308,0.07432 -0.323265,-0.797908 -0.848595,0.324046 -0.274531,1.52198 -2.81924,-1.04812 -2.94367,-0.349048 -0.475424,-1.09773 -1.09783,0.249041 -1.37178,-0.42376 0.04951,-0.09962 -1.32168,-0.723684 -1.49718,-0.523865 -0.723098,-1.09881 -0.974678,0.175208 -1.77083,-2.22018 -0.798787,0 -0.199135,-1.97211 2.04663,0.324632 1.24667,0.400126 0.898306,-2.69541 -0.448176,-3.41841 -0.276191,-2.86964 0,-2.04653 -0.574748,-0.972725 -2.16881,-0.473862 -0.599164,-1.24784 0.274531,-0.524158 -0.399052,-1.04773 -1.17293,-0.448665 -1.1977398,0.124521 -1.42227,-2.29518 0.972725,-1.17293 -0.275508,-0.52367 0.400321,-1.8472 -1.29833,0.0751 -0.398075,-2.81993 -0.399052,-0.473666 -1.32295,0.07481 -1.09822,-2.49451 0.973799,-0.724563 -0.124228,-0.44886 -2.69599,-0.598871 -1.64601,-2.17076 -0.323656,-0.174524 -0.525232,-1.92113 1.77249,-1.1229304 0.073736,-1.44727 1.24716,0.074615 0.524647,0.449739 0.723293,-0.125009 0.124521,-0.773981 0.649362,-0.348657 0,-0.648972 0.724075,-0.075396 0.075396,-0.897817 0.647702,0 0.124814,0.449153 2.5702,-0.249822 0.12413,1.42285 1.3973601,0.673583 0.449153,-0.524451 1.84779,0.049906 0.173645,-0.44886 0.798103,0.124521 c 0,0 -0.798103,1.24794 0.525525,0.599359 1.32089,-0.648874 2.04497,-0.275019 2.04497,-0.275019 l 0.523865,-0.972823 0.973018,-0.274433 c 0,0 0.598871,0.873402 0.649362,-0.449348 0.07442,-1.32255 0.274238,-1.17254 0.274238,-1.17254 l 1.29775,-0.199819 0.200209,-1.39688 0.997532,0.348755 1.24765,-2.24537 0.922526,0.124716 0.24865,0.349243 0.599945,0 0,-0.473959 0.973311,0.075591 0.274629,0.647995 0.973702,-0.199526 0.322972,-1.29824 1.04841,1.09891 2.4447,0.149229 0.199819,1.24784 0.898013,-0.79908 0.799471,0.275117 0.523865,0.573966 1.32158,-0.849084 2.54637,0.973897 1.84544,0.798103 0.848888,-0.97292 0.922624,-0.598675 -0.123837,-0.723684 0.848205,-0.199916 0.647995,0 1.04841,-0.973702 2.04497,0.973702 0.723391,-0.52367 0.650046,0.274043 0.07403,0.773688 0.374831,-0.124814 0.324632,-0.998313 2.89425,-1.17235 1.19676,0.523865 0.175696,3.2934 2.44539,3.74323 -0.32473,0.972725 1.57062,1.17313 0.326,-0.125009 0.772809,0.075005 0.0754,0.9232102 1.5713,0.449251 0.07432,0.922819 -0.996555,0.973213 0.274531,1.52257 0.772516,0.523865 1.72131,0.6478 1.37246,-0.12413 0.400028,-0.274238 c 0,0 0.44886,-1.6968 0.198452,-1.6968 -0.273848,0 1.44815,0.32473 1.44815,0.32473 l 0.174622,0.598773 2.24518,-1.19813 1.29814,0.599359 0.14962,1.32177 -0.474057,1.09832 -0.524549,1.84622 -0.723293,1.49688 0.150011,0.723391 0.523182,0.0752 0.325023,1.24745 0.723684,0.199819 2.02153,1.44708 0.79742,-0.798006 1.12342,0.07452 -0.923308,0.8484 0,0.52367 2.22096,-0.124325 2.09517,0.573966 0.399735,3.94227 0.922917,0.398563 0.847521,1.32285 1.89926,0.249236 1.24462,-0.249236 1.57326,3.46821 -2.02182,0.324437 0.773199,1.24794 1.44776,0.324339 -0.449153,1.24794 -3.2182,-0.449641 -0.32473,1.6466 0.773297,0.04961 -0.04883,2.24625 0.773492,0.174719 -1.82161,2.24518 0.199526,1.17274 -1.04939,0.474252 -0.07432,-0.474252 -1.12352,0.149718 -4.46516,-0.923015 -0.973311,3.06828 0.523572,1.39746 0.524158,0.175208 0.523572,1.52179 0.200795,0.39954 -0.998606,0 -0.973311,-1.32246 -0.847619,-0.075 -0.723684,1.39746 -0.524549,-0.922917 -1.17323,0 -0.398661,0.323851 -0.523865,-0.07432 -0.923601,1.12235 -0.797127,0.124521 -0.573283,0.599554 -1.52384,0.07442 -1.77141,2.67011 -1.04812,-0.573869 -0.773199,0.324339 -1.24921,-0.923698 0.175891,1.32295 -1.82122,1.24726 0.448567,1.37275 -1.17196,1.77181 0.125204,1.84564 1.12274,1.42217 0.04942,0.873304 -1.37236,0.199721 0.07501,1.17303 0.848595,0.04932 -0.199233,1.44756 -2.17144,-0.05 -2.81954,-1.32216 -0.574357,-1.17293 -2.96857,-1.84632 -1.69709,-0.324339 z"
   id="path10"
   style="fill:#ffdf49" />
  <g
   id="_332313344">
   <path
   d="m 37.7177,55.9524 c 0.461361,0 0.843224,-0.365065 0.843224,-0.825254 0,-0.459798 -0.381863,-0.823496 -0.843224,-0.823496 -0.440754,0 -0.805135,0.363698 -0.805135,0.823496 0,0.460189 0.364381,0.825254 0.805135,0.825254 z"
   id="_332313632"
   style="fill:#fefefe;stroke:#2b2a29;stroke-width:0.115731" />
   <path
   d="m 37.7285,55.3239 c 0.106941,0 0.197084,-0.08936 0.197084,-0.196791 0,-0.106355 -0.09014,-0.19601 -0.197084,-0.19601 -0.09825,0 -0.17931,0.08965 -0.17931,0.19601 0,0.107429 0.08106,0.196791 0.17931,0.196791 z"
   id="_332313728"
   style="fill:#2b2a29;stroke:#2b2a29;stroke-width:0.0744193" />
  </g>
  <g
   id="_332313920">
   <path
   d="m 33.3855,54.4409 c 0.460677,0 0.842833,-0.364674 0.842833,-0.825156 0,-0.460091 -0.382156,-0.823496 -0.842833,-0.823496 -0.44007,0 -0.804451,0.363405 -0.804451,0.823496 0,0.460482 0.364381,0.825156 0.804451,0.825156 z"
   id="_332313848"
   style="fill:#fefefe;stroke:#2b2a29;stroke-width:0.115731" />
   <path
   d="m 33.3966,53.8125 c 0.106355,0 0.197475,-0.08966 0.197475,-0.196791 0,-0.106648 -0.09112,-0.196108 -0.197475,-0.196108 -0.09854,0 -0.1797,0.08946 -0.1797,0.196108 0,0.107136 0.08116,0.196791 0.1797,0.196791 z"
   id="_332313824"
   style="fill:#2b2a29;stroke:#2b2a29;stroke-width:0.0744193" />
  </g>
  <g
   id="_385434056">
   <path
   d="m 36.1051,21.5976 c 0.46097,0 0.8442,-0.364772 0.8442,-0.824863 0,-0.460091 -0.38323,-0.823789 -0.8442,-0.823789 -0.439777,0 -0.804451,0.363698 -0.804451,0.823789 0,0.460091 0.364674,0.824863 0.804451,0.824863 z"
   id="_332314040"
   style="fill:#fefefe;stroke:#2b2a29;stroke-width:0.115731" />
   <path
   d="m 36.1158,20.9699 c 0.107332,0 0.197573,-0.08966 0.197573,-0.197182 0,-0.106258 -0.09024,-0.196401 -0.197573,-0.196401 -0.09786,0 -0.178919,0.09014 -0.178919,0.196401 0,0.107527 0.08106,0.197182 0.178919,0.197182 z"
   id="_332313992"
   style="fill:#2b2a29;stroke:#2b2a29;stroke-width:0.0744193" />
  </g>
  <g
   id="_385434512">
   <path
   d="m 43.7623,6.78837 c 0.460189,0 0.843419,-0.364577 0.843419,-0.825351 0,-0.459408 -0.38323,-0.823105 -0.843419,-0.823105 -0.440461,0 -0.804158,0.363698 -0.804158,0.823105 0,0.460775 0.363698,0.825351 0.804158,0.825351 z"
   id="_385434224"
   style="fill:#fefefe;stroke:#2b2a29;stroke-width:0.115731" />
   <path
   d="m 43.773,6.16049 c 0.107332,0 0.197475,-0.089948 0.197475,-0.197475 0,-0.105965 -0.09014,-0.195424 -0.197475,-0.195424 -0.09825,0 -0.179993,0.089459 -0.179993,0.195424 0,0.107527 0.08174,0.197475 0.179993,0.197475 z"
   id="_385435040"
   style="fill:#2b2a29;stroke:#2b2a29;stroke-width:0.0744193" />
  </g>
  <path
   d="m 39.416,55.6074 0.195717,0 0,0.647995 c 0.08956,0 0.152257,-0.01719 0.188783,-0.05196 0.03614,-0.03486 0.08272,-0.117879 0.13917,-0.249822 0.04102,-0.09678 0.07481,-0.165344 0.101667,-0.205386 0.02647,-0.03994 0.06436,-0.07364 0.113289,-0.100886 0.04932,-0.02725 0.103425,-0.04102 0.162609,-0.04102 0.07549,0 0.115145,6.83e-4 0.119247,0.0021 l 0,0.169543 c -0.0069,0 -0.02002,-3.91e-4 -0.03965,-0.0011 -0.02129,-6.83e-4 -0.03438,-9.76e-4 -0.03926,-9.76e-4 -0.0627,0 -0.108894,0.01514 -0.13917,0.04541 -0.03096,0.03037 -0.06651,0.09512 -0.10616,0.193959 -0.04961,0.125107 -0.09161,0.204018 -0.126083,0.236736 -0.03438,0.03242 -0.0754,0.0586 -0.122958,0.07823 0.09542,0.02617 0.189467,0.114364 0.28254,0.264179 l 0.304904,0.492711 -0.243279,0 -0.247381,-0.401689 c -0.06788,-0.110945 -0.125009,-0.187123 -0.17052,-0.228825 -0.0458,-0.04131 -0.105086,-0.06202 -0.177747,-0.06202 l 0,0.692529 -0.195717,0 0,-1.47969 z m 1.11004,0.943621 c 0,-0.198452 0.05508,-0.345532 0.165734,-0.440949 0.092,-0.0793 0.204311,-0.119247 0.336938,-0.119247 0.147471,0 0.267988,0.04825 0.361354,0.14503 0.09376,0.09649 0.140244,0.229801 0.140244,0.400028 0,0.138096 -0.0207,0.246697 -0.06202,0.325511 -0.04131,0.0793 -0.10157,0.140635 -0.180482,0.184388 -0.0793,0.04375 -0.165441,0.06543 -0.2591,0.06543 -0.149913,0 -0.271113,-0.04785 -0.363795,-0.144346 -0.09268,-0.0961 -0.138877,-0.234587 -0.138877,-0.41585 z m 0.186732,0 c 0,0.137412 0.02998,0.240154 0.08995,0.308323 0.05996,0.06856 0.135361,0.102644 0.225993,0.102644 0.09024,0 0.165344,-0.03438 0.225309,-0.102937 0.05957,-0.06856 0.08956,-0.173352 0.08956,-0.313889 0,-0.132627 -0.02998,-0.23322 -0.09024,-0.301486 -0.06026,-0.06817 -0.135068,-0.102253 -0.224625,-0.102253 -0.09063,0 -0.166027,0.03408 -0.225993,0.10196 -0.05996,0.06788 -0.08995,0.17052 -0.08995,0.307639 z m 1.03562,-0.53578 0.28254,0 0.281856,0.857873 0.312815,-0.857873 0.261444,0 0,1.07185 -0.181556,0 0,-0.863049 -0.316917,0.863049 -0.162609,0 -0.299728,-0.904361 0,0.904361 -0.177845,0 0,-1.07185 z m 2.11577,0.679052 0.178431,0.02344 c -0.01924,0.123056 -0.06924,0.219449 -0.149815,0.289083 -0.08028,0.06963 -0.179114,0.104402 -0.29631,0.104402 -0.146397,0 -0.26457,-0.04786 -0.353443,-0.143663 -0.08926,-0.09581 -0.134092,-0.23322 -0.134092,-0.412432 0,-0.115731 0.01934,-0.217008 0.05762,-0.30383 0.03858,-0.08682 0.09679,-0.151964 0.175305,-0.195326 0.07823,-0.04346 0.163683,-0.06514 0.255682,-0.06514 0.116414,0 0.211831,0.02959 0.285567,0.08858 0.07413,0.05889 0.121591,0.142295 0.142686,0.250799 l -0.17677,0.02715 c -0.01689,-0.07198 -0.04649,-0.126083 -0.08926,-0.162609 -0.04268,-0.03614 -0.09434,-0.0544 -0.154991,-0.0544 -0.09171,0 -0.166125,0.03272 -0.223258,0.09854 -0.05723,0.06544 -0.08585,0.169153 -0.08585,0.311057 0,0.144053 0.02764,0.248748 0.08311,0.31428 0.05508,0.06504 0.12706,0.09776 0.215933,0.09776 0.07139,0 0.130576,-0.02197 0.178528,-0.06573 0.04785,-0.04375 0.07823,-0.110945 0.09092,-0.201967 z m 0.289376,-0.143272 c 0,-0.198452 0.05508,-0.345532 0.165734,-0.440949 0.092,-0.0793 0.204311,-0.119247 0.336938,-0.119247 0.147471,0 0.267988,0.04825 0.361354,0.14503 0.09376,0.09649 0.140244,0.229801 0.140244,0.400028 0,0.138096 -0.0207,0.246697 -0.06202,0.325511 -0.04131,0.0793 -0.10157,0.140635 -0.180482,0.184388 -0.0793,0.04375 -0.165441,0.06543 -0.2591,0.06543 -0.149913,0 -0.271113,-0.04785 -0.363795,-0.144346 -0.09268,-0.0961 -0.138877,-0.234587 -0.138877,-0.41585 z m 0.186732,0 c 0,0.137412 0.02998,0.240154 0.08995,0.308323 0.05996,0.06856 0.135361,0.102644 0.225993,0.102644 0.09024,0 0.165344,-0.03438 0.225309,-0.102937 0.05957,-0.06856 0.08956,-0.173352 0.08956,-0.313889 0,-0.132627 -0.02998,-0.23322 -0.09024,-0.301486 -0.06026,-0.06817 -0.135068,-0.102253 -0.224625,-0.102253 -0.09063,0 -0.166027,0.03408 -0.225993,0.10196 -0.05997,0.06788 -0.08995,0.17052 -0.08995,0.307639 z m 1.03562,-0.53578 0.28254,0 0.281856,0.857873 0.312815,-0.857873 0.261444,0 0,1.07185 -0.181556,0 0,-0.863049 -0.316917,0.863049 -0.162609,0 -0.299728,-0.904361 0,0.904361 -0.177845,0 0,-1.07185 z m 1.34853,0.53578 c 0,-0.198452 0.05508,-0.345532 0.165734,-0.440949 0.092,-0.0793 0.204311,-0.119247 0.336938,-0.119247 0.147471,0 0.267988,0.04825 0.361354,0.14503 0.09376,0.09649 0.140244,0.229801 0.140244,0.400028 0,0.138096 -0.0207,0.246697 -0.06202,0.325511 -0.04131,0.0793 -0.10157,0.140635 -0.180482,0.184388 -0.0793,0.04375 -0.165441,0.06543 -0.2591,0.06543 -0.149913,0 -0.271113,-0.04785 -0.363795,-0.144346 -0.09268,-0.0961 -0.138877,-0.234587 -0.138877,-0.41585 z m 0.186732,0 c 0,0.137412 0.02998,0.240154 0.08995,0.308323 0.05996,0.06856 0.135361,0.102644 0.225993,0.102644 0.09024,0 0.165344,-0.03438 0.225309,-0.102937 0.05957,-0.06856 0.08956,-0.173352 0.08956,-0.313889 0,-0.132627 -0.02998,-0.23322 -0.09024,-0.301486 -0.06026,-0.06817 -0.135068,-0.102253 -0.224625,-0.102253 -0.09063,0 -0.166027,0.03408 -0.225993,0.10196 -0.05996,0.06788 -0.08995,0.17052 -0.08995,0.307639 z m 1.0739,-0.53578 0.844005,0 0,1.07185 -0.180872,0 0,-0.921647 -0.481284,0 0,0.534022 c 0,0.124423 -0.0041,0.206753 -0.01201,0.246404 -0.0083,0.03955 -0.03037,0.07442 -0.0669,0.104011 -0.03614,0.02959 -0.08887,0.04444 -0.157433,0.04444 -0.04239,0 -0.09132,-0.0027 -0.146397,-0.0083 l 0,-0.151183 0.07989,0 c 0.0376,0 0.06446,-0.0042 0.08067,-0.01172 0.01621,-0.0079 0.02686,-0.02002 0.03233,-0.03692 0.0056,-0.0168 0.008,-0.07159 0.008,-0.16466 l 0,-0.7063 z m 1.11443,0 0.181556,0 0,0.418682 0.230192,0 c 0.150206,0 0.265644,0.0292 0.346607,0.08751 0.08126,0.05821 0.121591,0.138486 0.121591,0.24074 0,0.08926 -0.03379,0.166125 -0.101277,0.229508 -0.06758,0.06368 -0.175696,0.09542 -0.324535,0.09542 l -0.454134,0 0,-1.07185 z m 0.181556,0.922331 0.190931,0 c 0.115047,0 0.196987,-0.01416 0.246306,-0.04239 0.04893,-0.02822 0.07335,-0.07237 0.07335,-0.131943 0,-0.04649 -0.01787,-0.0879 -0.0544,-0.124325 -0.03614,-0.03623 -0.116805,-0.0545 -0.24113,-0.0545 l -0.215054,0 0,0.35315 z m 1.59787,-0.243279 0.178431,0.02344 c -0.01924,0.123056 -0.06924,0.219449 -0.149815,0.289083 -0.08028,0.06963 -0.179114,0.104402 -0.29631,0.104402 -0.146397,0 -0.26457,-0.04786 -0.353443,-0.143663 -0.08926,-0.09581 -0.134092,-0.23322 -0.134092,-0.412432 0,-0.115731 0.01934,-0.217008 0.05762,-0.30383 0.03858,-0.08682 0.09678,-0.151964 0.175305,-0.195326 0.07823,-0.04346 0.163683,-0.06514 0.255682,-0.06514 0.116414,0 0.211831,0.02959 0.285567,0.08858 0.07413,0.05889 0.121591,0.142295 0.142686,0.250799 l -0.17677,0.02715 c -0.0169,-0.07198 -0.04649,-0.126083 -0.08926,-0.162609 -0.04268,-0.03614 -0.09434,-0.0544 -0.154991,-0.0544 -0.09171,0 -0.166125,0.03272 -0.223258,0.09854 -0.05723,0.06544 -0.08585,0.169153 -0.08585,0.311057 0,0.144053 0.02764,0.248748 0.08311,0.31428 0.05508,0.06504 0.12706,0.09776 0.215933,0.09776 0.07139,0 0.130576,-0.02197 0.178528,-0.06573 0.04785,-0.04375 0.07823,-0.110945 0.09092,-0.201967 z m 0.331078,-0.679052 0.181556,0 0,0.418682 0.230192,0 c 0.150206,0 0.265644,0.0292 0.346607,0.08751 0.08126,0.05821 0.121591,0.138486 0.121591,0.24074 0,0.08926 -0.03379,0.166125 -0.101277,0.229508 -0.06758,0.06368 -0.175696,0.09542 -0.324535,0.09542 l -0.454134,0 0,-1.07185 z m 0.181556,0.922331 0.190931,0 c 0.115047,0 0.196987,-0.01416 0.246306,-0.04239 0.04893,-0.02822 0.07335,-0.07237 0.07335,-0.131943 0,-0.04649 -0.01787,-0.0879 -0.0544,-0.124325 -0.03614,-0.03623 -0.116805,-0.0545 -0.24113,-0.0545 l -0.215054,0 0,0.35315 z m 0.897427,-0.922331 0.181556,0 0,0.463119 c 0.05791,0 0.09854,-0.01104 0.121688,-0.03311 0.02305,-0.02237 0.05713,-0.08682 0.102253,-0.193959 0.03584,-0.08477 0.06485,-0.140537 0.08682,-0.167492 0.02246,-0.02686 0.04795,-0.04512 0.07686,-0.0544 0.02891,-0.0097 0.07549,-0.01416 0.13917,-0.01416 l 0.03653,0 0,0.150206 -0.05059,-9.77e-4 c -0.04756,0 -0.07823,0.0072 -0.09171,0.02139 -0.01406,0.01475 -0.03584,0.05889 -0.06475,0.132236 -0.02754,0.06993 -0.05274,0.118172 -0.07579,0.14503 -0.02276,0.02725 -0.05821,0.05176 -0.105769,0.07374 0.07784,0.02109 0.154698,0.09376 0.230094,0.218082 l 0.198842,0.332152 -0.199819,0 -0.193959,-0.332152 c -0.03965,-0.06651 -0.07442,-0.110555 -0.103718,-0.131552 -0.02959,-0.02139 -0.06514,-0.03174 -0.10616,-0.03174 l 0,0.495445 -0.181556,0 0,-1.07185 z"
   id="path24"
   style="fill:#2b2a29;fill-rule:nonzero" />
  <path
   d="m 32.332,50.3063 0.195717,0 0,0.647995 c 0.08956,0 0.152257,-0.01719 0.188783,-0.05196 0.03613,-0.03487 0.08272,-0.117879 0.13917,-0.249822 0.04102,-0.09678 0.07481,-0.165344 0.101667,-0.205386 0.02647,-0.03994 0.06436,-0.07364 0.113289,-0.100886 0.04932,-0.02725 0.103425,-0.04102 0.162609,-0.04102 0.07549,0 0.115145,6.83e-4 0.119247,0.0021 l 0,0.169543 c -0.0069,0 -0.02002,-3.91e-4 -0.03965,-0.0011 -0.02129,-6.83e-4 -0.03438,-9.76e-4 -0.03926,-9.76e-4 -0.0627,0 -0.108894,0.01514 -0.13917,0.04541 -0.03096,0.03037 -0.06651,0.09512 -0.10616,0.193959 -0.04961,0.125107 -0.09161,0.204018 -0.126083,0.236736 -0.03438,0.03242 -0.0754,0.0586 -0.122958,0.07823 0.09542,0.02617 0.189467,0.114364 0.28254,0.264179 l 0.304904,0.492711 -0.243279,0 -0.247381,-0.401689 c -0.06788,-0.110945 -0.125009,-0.187123 -0.17052,-0.228825 -0.0458,-0.04131 -0.105086,-0.06202 -0.177747,-0.06202 l 0,0.692529 -0.195717,0 0,-1.47969 z m 1.17792,1.89037 0,-1.48253 0.165344,0 0,0.139268 c 0.03897,-0.0545 0.08301,-0.09551 0.132334,-0.122665 0.04893,-0.02725 0.108504,-0.04102 0.178431,-0.04102 0.09171,0 0.172278,0.02373 0.242205,0.07061 0.07032,0.04717 0.123056,0.11368 0.158507,0.199526 0.03584,0.08575 0.05371,0.179798 0.05371,0.282149 0,0.109578 -0.01963,0.208413 -0.05928,0.29631 -0.03926,0.0878 -0.09639,0.154991 -0.171497,0.20187 -0.0751,0.04649 -0.154015,0.06993 -0.236736,0.06993 -0.06065,0 -0.114754,-0.01279 -0.162902,-0.03828 -0.04825,-0.02549 -0.08751,-0.05782 -0.118563,-0.09678 l 0,0.521619 -0.181556,0 z m 0.164367,-0.940594 c 0,0.1379 0.02783,0.239861 0.0837,0.305979 0.05577,0.06582 0.123642,0.09884 0.202944,0.09884 0.08057,0 0.149815,-0.03408 0.207339,-0.102644 0.05752,-0.06817 0.08653,-0.173938 0.08653,-0.317308 0,-0.136728 -0.02823,-0.238689 -0.08448,-0.306955 -0.05616,-0.06788 -0.123251,-0.10196 -0.201186,-0.10196 -0.07745,0 -0.146006,0.03614 -0.205679,0.108504 -0.05957,0.07237 -0.08917,0.177747 -0.08917,0.31555 z m 1.71877,0.184681 0.187806,0.02315 c -0.02959,0.109871 -0.08438,0.194936 -0.164367,0.255584 -0.08028,0.06036 -0.182532,0.09063 -0.306955,0.09063 -0.156749,0 -0.281075,-0.04825 -0.37278,-0.144737 -0.092,-0.09639 -0.137803,-0.231852 -0.137803,-0.406181 0,-0.180482 0.04649,-0.320433 0.13917,-0.419952 0.09307,-0.09962 0.213296,-0.149522 0.361451,-0.149522 0.143272,0 0.260468,0.04893 0.351001,0.146397 0.09102,0.09757 0.136435,0.234978 0.136435,0.411748 0,0.01104 -2.93e-4,0.02715 -9.77e-4,0.04854 l -0.799275,0 c 0.0065,0.117879 0.03995,0.20812 0.09991,0.270429 0.05996,0.0627 0.134287,0.09405 0.223942,0.09405 0.06651,0 0.123349,-0.01748 0.17052,-0.05264 0.04717,-0.03487 0.08438,-0.09063 0.111922,-0.167492 z m -0.596331,-0.293868 0.59848,0 c -0.008,-0.08995 -0.03106,-0.157726 -0.06856,-0.202553 -0.05792,-0.06993 -0.133018,-0.105086 -0.225016,-0.105086 -0.0834,0 -0.153624,0.02793 -0.210464,0.0837 -0.05694,0.05586 -0.08829,0.130576 -0.09444,0.223942 z m 1.01736,-0.432745 0.28254,0 0.281856,0.857873 0.312815,-0.857873 0.261444,0 0,1.07185 -0.181556,0 0,-0.863049 -0.316917,0.863049 -0.162609,0 -0.299728,-0.904361 0,0.904361 -0.177845,0 0,-1.07185 z m 2.14986,0.726614 0.187806,0.02315 c -0.02959,0.109871 -0.08438,0.194936 -0.164367,0.255584 -0.08028,0.06036 -0.182532,0.09063 -0.306955,0.09063 -0.156749,0 -0.281075,-0.04825 -0.37278,-0.144737 -0.092,-0.09639 -0.137803,-0.231852 -0.137803,-0.406181 0,-0.180482 0.04649,-0.320433 0.13917,-0.419952 0.09307,-0.09962 0.213296,-0.149522 0.361451,-0.149522 0.143272,0 0.260468,0.04893 0.351001,0.146397 0.09102,0.09756 0.136435,0.234978 0.136435,0.411748 0,0.01104 -2.93e-4,0.02715 -9.77e-4,0.04854 l -0.799275,0 c 0.0065,0.117879 0.03994,0.20812 0.09991,0.270429 0.05996,0.0627 0.134287,0.09405 0.223942,0.09405 0.06651,0 0.123349,-0.01748 0.17052,-0.05264 0.04717,-0.03487 0.08438,-0.09063 0.111922,-0.167492 z m -0.596331,-0.293868 0.59848,0 c -0.008,-0.08995 -0.03106,-0.157726 -0.06856,-0.202553 -0.05792,-0.06993 -0.133018,-0.105086 -0.225016,-0.105086 -0.0834,0 -0.153624,0.02793 -0.210464,0.0837 -0.05694,0.05586 -0.08829,0.130576 -0.09444,0.223942 z m 1.01326,-0.432745 0.181946,0 0,0.446223 0.503649,0 0,-0.446223 0.181556,0 0,1.07185 -0.181556,0 0,-0.475424 -0.503649,0 0,0.475424 -0.181946,0 0,-1.07185 z m 1.0739,0 0.181849,0 0,0.202944 c 0,0.08721 0.0052,0.15089 0.01553,0.19015 0.01035,0.03936 0.03545,0.07374 0.0751,0.103035 0.03965,0.0293 0.08956,0.04375 0.149522,0.04375 0.06856,0 0.157433,-0.01826 0.266327,-0.0544 l 0,-0.485484 0.181849,0 0,1.07185 -0.181849,0 0,-0.432062 c -0.111629,0.03516 -0.216031,0.05244 -0.312815,0.05244 -0.08135,0 -0.153331,-0.0207 -0.215347,-0.06202 -0.06241,-0.04141 -0.104695,-0.092 -0.126767,-0.151964 -0.02246,-0.05957 -0.0334,-0.12579 -0.0334,-0.197768 l 0,-0.280489 z m 1.13543,1.48458 -0.02031,-0.17052 c 0.03994,0.01064 0.07442,0.01621 0.104109,0.01621 0.04024,0 0.07266,-0.0069 0.09678,-0.02031 0.02442,-0.01348 0.04405,-0.03203 0.05958,-0.05655 0.01172,-0.01787 0.02998,-0.06299 0.05547,-0.135068 0.0034,-0.01035 0.009,-0.02481 0.01621,-0.04444 l -0.406572,-1.0739 0.195717,0 0.223258,0.620552 c 0.02861,0.07891 0.05479,0.161535 0.07754,0.248357 0.021,-0.08331 0.0458,-0.16466 0.07471,-0.244256 l 0.229118,-0.624654 0.181556,0 -0.407548,1.09012 c -0.04375,0.117782 -0.07784,0.198745 -0.10196,0.243181 -0.03242,0.05997 -0.06924,0.103718 -0.110945,0.13165 -0.04209,0.02793 -0.09171,0.042 -0.149522,0.042 -0.03516,0 -0.07413,-0.0075 -0.117196,-0.02237 z m 1.0408,-1.48458 0.181556,0 0,0.463119 c 0.05791,0 0.09854,-0.01104 0.121688,-0.03311 0.02305,-0.02237 0.05713,-0.08682 0.102253,-0.193959 0.03584,-0.08477 0.06485,-0.140537 0.08682,-0.167492 0.02246,-0.02686 0.04795,-0.04512 0.07686,-0.0544 0.02891,-0.0097 0.07549,-0.01416 0.13917,-0.01416 l 0.03653,0 0,0.150206 -0.05059,-9.77e-4 c -0.04756,0 -0.07823,0.0072 -0.09171,0.02139 -0.01406,0.01475 -0.03584,0.05889 -0.06475,0.132236 -0.02754,0.06993 -0.05274,0.118172 -0.07579,0.14503 -0.02276,0.02725 -0.05821,0.05176 -0.105769,0.07374 0.07784,0.0211 0.154698,0.09376 0.230094,0.218082 l 0.198842,0.332152 -0.199819,0 -0.193959,-0.332152 c -0.03965,-0.06651 -0.07442,-0.110555 -0.103718,-0.131552 -0.02959,-0.02139 -0.06514,-0.03174 -0.10616,-0.03174 l 0,0.495445 -0.181556,0 0,-1.07185 z"
   id="path26"
   style="fill:#2b2a29;fill-rule:nonzero" />
  <path
   d="m 31.4072,23.5924 0,-1.47969 0.294845,0 0.350122,1.04763 c 0.03233,0.09757 0.05616,0.170618 0.07061,0.219156 0.0169,-0.05372 0.04307,-0.133017 0.07891,-0.237419 l 0.354127,-1.02937 0.263593,0 0,1.47969 -0.188783,0 0,-1.23856 -0.430011,1.23856 -0.17677,0 -0.427862,-1.25956 0,1.25956 -0.188783,0 z m 1.705,-1.07185 0.181556,0 0,0.817636 0.503649,-0.817636 0.195717,0 0,1.07185 -0.181556,0 0,-0.812362 -0.503649,0.812362 -0.195717,0 0,-1.07185 z m 1.15487,1.48253 0,-1.48253 0.165344,0 0,0.139268 c 0.03897,-0.0545 0.08301,-0.09552 0.132334,-0.122665 0.04893,-0.02725 0.108504,-0.04102 0.178431,-0.04102 0.09171,0 0.172278,0.02373 0.242205,0.07061 0.07032,0.04717 0.123056,0.11368 0.158507,0.199526 0.03584,0.08575 0.05371,0.179798 0.05371,0.282149 0,0.109578 -0.01963,0.208413 -0.05928,0.29631 -0.03926,0.0878 -0.09639,0.154991 -0.171497,0.20187 -0.0751,0.04649 -0.154015,0.06993 -0.236736,0.06993 -0.06065,0 -0.114754,-0.01279 -0.162902,-0.03828 -0.04825,-0.02549 -0.08751,-0.05782 -0.118563,-0.09678 l 0,0.521619 -0.181556,0 z m 0.164367,-0.940594 c 0,0.1379 0.02783,0.239861 0.0837,0.305979 0.05577,0.06583 0.123642,0.09884 0.202944,0.09884 0.08057,0 0.149815,-0.03408 0.207339,-0.102644 0.05752,-0.06817 0.08653,-0.173938 0.08653,-0.317308 0,-0.136728 -0.02822,-0.238689 -0.08448,-0.306955 -0.05616,-0.06788 -0.123251,-0.10196 -0.201186,-0.10196 -0.07745,0 -0.146006,0.03614 -0.205679,0.108504 -0.05957,0.07237 -0.08917,0.177747 -0.08917,0.31555 z m 0.986007,-0.541933 0.616743,0 0,0.150206 -0.434796,0 0,0.921647 -0.181946,0 0,-1.07185 z m 0.639791,0.53578 c 0,-0.198452 0.05508,-0.345532 0.165734,-0.440949 0.092,-0.0793 0.204311,-0.119247 0.336938,-0.119247 0.147471,0 0.267988,0.04825 0.361354,0.14503 0.09376,0.09649 0.140244,0.229801 0.140244,0.400028 0,0.138096 -0.0207,0.246697 -0.06202,0.325511 -0.04131,0.0793 -0.10157,0.140635 -0.180482,0.184388 -0.0793,0.04375 -0.165441,0.06543 -0.2591,0.06543 -0.149913,0 -0.271113,-0.04785 -0.363795,-0.144346 -0.09268,-0.0961 -0.138877,-0.234587 -0.138877,-0.41585 z m 0.186732,0 c 0,0.137412 0.02998,0.240154 0.08995,0.308323 0.05997,0.06856 0.135361,0.102644 0.225993,0.102644 0.09024,0 0.165344,-0.03438 0.225309,-0.102937 0.05957,-0.06856 0.08956,-0.173352 0.08956,-0.313889 0,-0.132627 -0.02998,-0.23322 -0.09024,-0.301486 -0.06026,-0.06817 -0.135068,-0.102253 -0.224625,-0.102253 -0.09063,0 -0.166027,0.03408 -0.225993,0.10196 -0.05996,0.06788 -0.08995,0.17052 -0.08995,0.307639 z m 1.03083,0.946747 0,-1.48253 0.165344,0 0,0.139268 c 0.03897,-0.0545 0.08301,-0.09552 0.132334,-0.122665 0.04893,-0.02725 0.108504,-0.04102 0.178431,-0.04102 0.09171,0 0.172278,0.02373 0.242205,0.07061 0.07032,0.04717 0.123056,0.11368 0.158507,0.199526 0.03584,0.08575 0.05372,0.179798 0.05372,0.282149 0,0.109578 -0.01963,0.208413 -0.05928,0.29631 -0.03926,0.0878 -0.09639,0.154991 -0.171497,0.20187 -0.0751,0.04649 -0.154015,0.06993 -0.236736,0.06993 -0.06065,0 -0.114754,-0.01279 -0.162902,-0.03828 -0.04825,-0.02549 -0.08751,-0.05782 -0.118563,-0.09678 l 0,0.521619 -0.181556,0 z m 0.164367,-0.940594 c 0,0.1379 0.02783,0.239861 0.0837,0.305979 0.05577,0.06583 0.123642,0.09884 0.202944,0.09884 0.08057,0 0.149815,-0.03408 0.207339,-0.102644 0.05752,-0.06817 0.08653,-0.173938 0.08653,-0.317308 0,-0.136728 -0.02822,-0.238689 -0.08448,-0.306955 -0.05616,-0.06788 -0.123251,-0.10196 -0.201186,-0.10196 -0.07745,0 -0.146006,0.03614 -0.205679,0.108504 -0.05957,0.07237 -0.08917,0.177747 -0.08917,0.31555 z m 0.917448,-0.0062 c 0,-0.198452 0.05508,-0.345532 0.165734,-0.440949 0.092,-0.0793 0.204311,-0.119247 0.336938,-0.119247 0.147471,0 0.267988,0.04825 0.361354,0.14503 0.09376,0.09649 0.140244,0.229801 0.140244,0.400028 0,0.138096 -0.0207,0.246697 -0.06202,0.325511 -0.04131,0.0793 -0.10157,0.140635 -0.180482,0.184388 -0.0793,0.04375 -0.165441,0.06544 -0.2591,0.06544 -0.149913,0 -0.271113,-0.04785 -0.363795,-0.144346 -0.09268,-0.0961 -0.138877,-0.234587 -0.138877,-0.41585 z m 0.186732,0 c 0,0.137412 0.02998,0.240154 0.08995,0.308323 0.05997,0.06856 0.135361,0.102644 0.225993,0.102644 0.09024,0 0.165344,-0.03438 0.225309,-0.102937 0.05957,-0.06856 0.08956,-0.173352 0.08956,-0.313889 0,-0.132627 -0.02998,-0.23322 -0.09024,-0.301486 -0.06026,-0.06817 -0.135068,-0.102253 -0.224625,-0.102253 -0.09063,0 -0.166027,0.03409 -0.225993,0.10196 -0.05996,0.06788 -0.08995,0.17052 -0.08995,0.307639 z m 1.1286,-0.53578 0.746928,0 0,0.922331 0.115829,0 0,0.453352 -0.149229,0 0,-0.30383 -0.843712,0 0,0.30383 -0.149522,0 0,-0.453352 0.09581,0 c 0.127743,-0.173645 0.189076,-0.480991 0.1839,-0.922331 z m 0.15128,0.150206 c -0.01338,0.347974 -0.06719,0.605414 -0.161535,0.772125 l 0.57631,0 0,-0.772125 -0.414775,0 z"
   id="path28"
   style="fill:#2b2a29;fill-rule:nonzero" />
  <path
   d="m 41.8433,7.22668 0,-0.409697 0.174622,0 0,0.584319 -0.590471,0 0,1.30507 -0.195717,0 0,-1.47969 0.611567,0 z m 1.07215,1.34736 c -0.06748,0.057231 -0.132334,0.097565 -0.194252,0.121298 -0.06241,0.023439 -0.129208,0.035159 -0.2006,0.035159 -0.117782,0 -0.208023,-0.028615 -0.271406,-0.086139 -0.06309,-0.057524 -0.09473,-0.131259 -0.09473,-0.220523 0,-0.05264 0.01162,-0.100593 0.03574,-0.143956 0.02383,-0.04346 0.05518,-0.078228 0.09376,-0.104402 0.03897,-0.026174 0.08233,-0.046195 0.130869,-0.059575 0.03555,-0.00938 0.08926,-0.018654 0.161242,-0.027248 0.146788,-0.017579 0.254999,-0.038284 0.324242,-0.0627 6.84e-4,-0.024806 9.77e-4,-0.040628 9.77e-4,-0.047171 0,-0.074126 -0.01719,-0.126474 -0.05166,-0.156456 -0.0461,-0.041311 -0.11534,-0.061625 -0.206655,-0.061625 -0.08546,0 -0.148546,0.014747 -0.189467,0.04473 -0.04073,0.029983 -0.07071,0.083014 -0.09034,0.159191 l -0.177356,-0.024513 c 0.01611,-0.075787 0.04268,-0.137412 0.0795,-0.1839 0.03692,-0.046878 0.09063,-0.083014 0.160558,-0.108211 0.06993,-0.025197 0.15089,-0.037893 0.243279,-0.037893 0.09161,0 0.165734,0.011036 0.222867,0.032424 0.05723,0.021681 0.09923,0.048539 0.126474,0.081256 0.02686,0.032717 0.04551,0.073736 0.05645,0.123739 0.0059,0.030959 0.009,0.086725 0.009,0.167395 l 0,0.242205 c 0,0.169153 0.0038,0.275996 0.01172,0.320433 0.0076,0.04473 0.02305,0.087799 0.0458,0.128818 l -0.18976,0 c -0.01865,-0.0376 -0.03106,-0.081646 -0.03623,-0.132334 z m -0.01514,-0.40579 c -0.06612,0.02715 -0.165051,0.049906 -0.296603,0.068853 -0.07481,0.010743 -0.127841,0.022755 -0.158507,0.036233 -0.03106,0.01338 -0.05518,0.03301 -0.07169,0.059184 -0.01689,0.025881 -0.02549,0.054496 -0.02549,0.086139 0,0.048636 0.01865,0.088971 0.05508,0.121298 0.03653,0.032034 0.09034,0.048246 0.160949,0.048246 0.06993,0 0.132334,-0.015138 0.186732,-0.045804 0.0544,-0.030666 0.09473,-0.072759 0.120223,-0.12579 0.01963,-0.041018 0.0293,-0.10157 0.0293,-0.181556 l 0,-0.066802 z m 0.608734,-0.533729 0.746928,0 0,0.922331 0.115829,0 0,0.453352 -0.149229,0 0,-0.30383 -0.843712,0 0,0.30383 -0.149522,0 0,-0.453352 0.09581,0 c 0.127743,-0.173645 0.189076,-0.480991 0.1839,-0.922331 z m 0.15128,0.150206 c -0.01338,0.347974 -0.06719,0.605414 -0.161535,0.772125 l 0.57631,0 0,-0.772125 -0.414775,0 z m 1.7553,-0.150206 0,1.07185 -0.180872,0 0,-0.417901 -0.104695,0 c -0.06407,0 -0.111629,0.0083 -0.142979,0.024806 -0.03135,0.016505 -0.07686,0.069634 -0.136826,0.1588 l -0.15841,0.234294 -0.225016,0 0.195717,-0.288692 c 0.05996,-0.08819 0.11954,-0.137803 0.178821,-0.149229 -0.103718,-0.014454 -0.180579,-0.051664 -0.230876,-0.112313 -0.04991,-0.060258 -0.0751,-0.130185 -0.0751,-0.208706 0,-0.093073 0.03272,-0.168176 0.09854,-0.22609 0.06544,-0.057817 0.160558,-0.086823 0.284883,-0.086823 l 0.496813,0 z m -0.180872,0.150206 -0.258417,0 c -0.108113,0 -0.17804,0.016896 -0.20939,0.050687 -0.03106,0.033401 -0.04688,0.073052 -0.04688,0.117879 0,0.064067 0.02305,0.110848 0.06924,0.14083 0.04619,0.029983 0.12745,0.04512 0.244646,0.04512 l 0.200795,0 0,-0.354517 z m 0.389676,-0.150206 0.181849,0 0,0.202944 c 0,0.087213 0.0052,0.15089 0.01553,0.19015 0.01035,0.039358 0.03545,0.073736 0.0751,0.103035 0.03965,0.029299 0.08956,0.043753 0.149522,0.043753 0.06856,0 0.157433,-0.018263 0.266327,-0.054398 l 0,-0.485484 0.181849,0 0,1.07185 -0.181849,0 0,-0.432062 c -0.111629,0.035159 -0.216031,0.052445 -0.312815,0.052445 -0.08135,0 -0.153331,-0.020705 -0.215347,-0.062016 -0.06241,-0.041409 -0.104695,-0.091999 -0.126767,-0.151964 -0.02246,-0.059575 -0.0334,-0.12579 -0.0334,-0.197768 l 0,-0.280489 z"
   id="path30"
   style="fill:#2b2a29;fill-rule:nonzero" />
  <g
   id="_333988784">
   <path
   d="m 59.918,35.3527 c 0.600921,0 1.10018,-0.475034 1.10018,-1.07566 0,-0.600726 -0.499254,-1.07596 -1.10018,-1.07596 -0.599945,0 -1.07566,0.475229 -1.07566,1.07596 0,0.600628 0.475717,1.07566 1.07566,1.07566 z"
   id="_333988904"
   style="fill:#fefefe;stroke:#2b2a29;stroke-width:0.151085" />
   <path
   d="m 59.918,34.8777 c 0.326,0 0.600921,-0.275605 0.600921,-0.600628 0,-0.325511 -0.274922,-0.600726 -0.600921,-0.600726 -0.325023,0 -0.575041,0.275215 -0.575041,0.600726 0,0.325023 0.250018,0.600628 0.575041,0.600628"
   id="_333988856"
   style="fill:none;stroke:#2b2a29;stroke-width:0.18136001" />
  </g>
  <path
   d="m 54.4719,35.7229 1.56925,0 0,2.46629 -0.39827,0 0,-2.05229 -0.772613,0 0,2.05229 -0.398368,0 0,-2.46629 z m 1.88578,1.54757 c 0,-0.156847 0.03125,-0.309006 0.09288,-0.455989 0.06202,-0.146397 0.149718,-0.259003 0.263202,-0.335961 0.113387,-0.07745 0.240251,-0.116512 0.3803,-0.116512 0.215933,0 0.39329,0.0878 0.531581,0.263593 0.138291,0.175696 0.207144,0.397294 0.207144,0.665477 0,0.269941 -0.06983,0.493883 -0.209097,0.671825 -0.139561,0.17804 -0.315061,0.266523 -0.526795,0.266523 -0.131455,0 -0.255877,-0.03682 -0.374831,-0.110848 -0.119051,-0.07413 -0.209487,-0.18263 -0.271504,-0.325609 -0.06163,-0.142979 -0.09288,-0.317015 -0.09288,-0.522498 z m 0.38782,0.0252 c 0,0.177454 0.0335,0.31301 0.100984,0.407158 0.0671,0.09415 0.150206,0.141221 0.249041,0.141221 0.09874,0 0.18136,-0.04707 0.248064,-0.141221 0.067,-0.09415 0.100593,-0.230876 0.100593,-0.410576 0,-0.174524 -0.0336,-0.309495 -0.100593,-0.403642 -0.0667,-0.09425 -0.149327,-0.141319 -0.248064,-0.141319 -0.09884,0 -0.181946,0.04707 -0.249041,0.141319 -0.06748,0.09415 -0.100984,0.230192 -0.100984,0.40706 z m 1.41709,-0.892934 1.26659,0 0,1.78645 -0.376784,0 0,-1.40283 -0.515369,0 0,0.802205 c 0,0.204409 -0.01885,0.347388 -0.05655,0.430109 -0.0376,0.08214 -0.0794,0.136045 -0.1254,0.161926 -0.04541,0.02578 -0.118954,0.03907 -0.220426,0.03907 -0.06016,0 -0.139756,-0.01035 -0.238493,-0.03047 l 0,-0.347974 c 0.0083,0 0.02949,5.85e-4 0.06348,0.0028 0.03946,0.0035 0.06973,0.0052 0.09141,0.0052 0.05088,0 0.08262,-0.02061 0.09415,-0.06319 0.01192,-0.0419 0.01738,-0.158996 0.01738,-0.350806 l 0,-1.03249 z m 1.47969,0 1.29316,0 0,0.381863 -0.457552,0 0,1.40459 -0.378054,0 0,-1.40459 -0.457552,0 0,-0.381863 z m 1.80159,0.54496 -0.343091,-0.07754 c 0.03858,-0.172766 0.104793,-0.300314 0.19894,-0.383523 0.09454,-0.08272 0.234294,-0.124618 0.419854,-0.124618 0.169055,0 0.294454,0.02529 0.377077,0.0752 0.08233,0.05 0.140635,0.113094 0.174231,0.190053 0.0335,0.07696 0.05039,0.217691 0.05039,0.423272 l -0.0041,0.551797 c 0,0.156749 0.0061,0.272773 0.01846,0.347388 0.01182,0.07413 0.03487,0.154503 0.06797,0.23947 l -0.374441,0 c -0.0097,-0.03155 -0.02197,-0.07813 -0.03633,-0.139561 -0.006,-0.02813 -0.01055,-0.04649 -0.01328,-0.05567 -0.06475,0.07862 -0.133701,0.137217 -0.207144,0.176868 -0.07354,0.03907 -0.152062,0.0586 -0.235661,0.0586 -0.147081,0 -0.263202,-0.05 -0.347779,-0.149327 -0.08497,-0.09991 -0.127255,-0.226286 -0.127255,-0.379031 0,-0.100495 0.01924,-0.190638 0.05792,-0.269843 0.03858,-0.0793 0.09278,-0.139561 0.162121,-0.181458 0.06934,-0.0419 0.169934,-0.07872 0.3009,-0.110262 0.176477,-0.04131 0.299045,-0.08038 0.367116,-0.116024 l 0,-0.04707 c 0,-0.09131 -0.01797,-0.155577 -0.05381,-0.194643 -0.03584,-0.03848 -0.103328,-0.05801 -0.203042,-0.05801 -0.06748,0 -0.11993,0.0167 -0.157628,0.05 -0.0376,0.03272 -0.06797,0.09073 -0.09141,0.173938 z m 0.505895,0.383621 c -0.04834,0.02012 -0.125009,0.04424 -0.230192,0.07237 -0.104793,0.02813 -0.173254,0.05567 -0.205776,0.08204 -0.04922,0.04424 -0.07403,0.09942 -0.07403,0.166613 0,0.06661 0.01973,0.123446 0.05928,0.171692 0.03946,0.04815 0.08956,0.07227 0.150694,0.07227 0.06836,0 0.133213,-0.02813 0.195229,-0.0838 0.0459,-0.04248 0.07579,-0.09473 0.08995,-0.156749 0.01016,-0.04024 0.01484,-0.117196 0.01484,-0.23029 l 0,-0.09415 z m 0.748197,-0.928581 0.827793,0 c 0.169543,0 0.296798,0.03848 0.380886,0.116024 0.08448,0.07755 0.126767,0.194057 0.126767,0.349732 0,0.09991 -0.02334,0.186634 -0.06934,0.260663 -0.04639,0.07413 -0.104304,0.123446 -0.174622,0.148155 0.09874,0.03047 0.172278,0.08673 0.221012,0.169934 0.04825,0.08331 0.07256,0.174036 0.07256,0.272773 0,0.138975 -0.04092,0.252069 -0.122177,0.338794 -0.08174,0.08673 -0.202651,0.13038 -0.362526,0.13038 l -0.900357,0 0,-1.78645 z m 0.381277,0.741947 0.243572,0 c 0.117586,0 0.202456,-0.01895 0.254901,-0.05567 0.05235,-0.03682 0.07852,-0.09532 0.07852,-0.175208 0,-0.0752 -0.02432,-0.128622 -0.07305,-0.160168 -0.04912,-0.03213 -0.135947,-0.04825 -0.26037,-0.04825 l -0.243572,0 0,0.439289 z m 0,0.741849 0.298654,0 c 0.107527,0 0.186048,-0.0166 0.235661,-0.04873 0.04912,-0.03272 0.07393,-0.09132 0.07393,-0.175208 0,-0.08721 -0.02852,-0.147569 -0.08497,-0.180872 -0.05655,-0.0333 -0.16632,-0.04932 -0.329808,-0.04932 l -0.193471,0 0,0.454134 z m 1.55548,-0.938836 -0.343091,-0.07754 c 0.03858,-0.172766 0.104793,-0.300314 0.19894,-0.383523 0.09454,-0.08272 0.234294,-0.124618 0.419854,-0.124618 0.169055,0 0.294454,0.02529 0.377077,0.0752 0.08233,0.05 0.140635,0.113094 0.174231,0.190053 0.0335,0.07696 0.05039,0.217691 0.05039,0.423272 l -0.0041,0.551797 c 0,0.156749 0.0061,0.272773 0.01846,0.347388 0.01182,0.07413 0.03486,0.154503 0.06797,0.23947 l -0.374441,0 c -0.0097,-0.03155 -0.02197,-0.07813 -0.03633,-0.139561 -0.006,-0.02813 -0.01055,-0.04649 -0.01328,-0.05567 -0.06475,0.07862 -0.133701,0.137217 -0.207144,0.176868 -0.07354,0.03907 -0.152062,0.0586 -0.235661,0.0586 -0.147081,0 -0.263202,-0.05 -0.347779,-0.149327 -0.08497,-0.09991 -0.127255,-0.226286 -0.127255,-0.379031 0,-0.100495 0.01924,-0.190638 0.05791,-0.269843 0.03858,-0.0793 0.09278,-0.139561 0.162121,-0.181458 0.06934,-0.0419 0.169934,-0.07872 0.3009,-0.110262 0.176477,-0.04131 0.299045,-0.08038 0.367116,-0.116024 l 0,-0.04707 c 0,-0.09131 -0.01797,-0.155577 -0.05381,-0.194643 -0.03584,-0.03848 -0.103328,-0.05801 -0.203042,-0.05801 -0.06749,0 -0.11993,0.0167 -0.157628,0.05 -0.0376,0.03272 -0.06797,0.09073 -0.09141,0.173938 z m 0.505895,0.383621 c -0.04834,0.02012 -0.125009,0.04424 -0.230192,0.07237 -0.104793,0.02813 -0.173254,0.05567 -0.205776,0.08204 -0.04922,0.04424 -0.07403,0.09942 -0.07403,0.166613 0,0.06661 0.01973,0.123446 0.05928,0.171692 0.03946,0.04815 0.08956,0.07227 0.150694,0.07227 0.06836,0 0.133213,-0.02813 0.195229,-0.0838 0.0459,-0.04248 0.07579,-0.09473 0.08995,-0.156749 0.01016,-0.04024 0.01484,-0.117196 0.01484,-0.23029 l 0,-0.09415 z"
   id="path35"
   style="fill:#2b2a29;fill-rule:nonzero" />
 </g>
</svg>