<?xml version="1.0" encoding="UTF-8" standalone="no"?>
<!-- Created with Inkscape (http://www.inkscape.org/) -->

<svg
   xmlns:svg="http://www.w3.org/2000/svg"
   xmlns="http://www.w3.org/2000/svg"
   version="1.1"
   width="65.302902mm"
   height="70.821098mm"
   viewBox="0 0 66.5002 72.1195"
   id="svg2"
   xml:space="preserve"
   style="fill-rule:evenodd">
 <defs
   id="defs4">
  <style
   type="text/css"
   id="style6" />
 </defs>
 <g
   id="Layer_x0020_1">
  
  <path
   d="m 51.3055,55.5461 -0.884423,-0.338291 -0.208555,-0.962224 -1.09196,0 -1.01477,1.11905 -0.962529,-0.07831 -0.624442,0.962733 -1.84817,-0.884423 -1.84593,0.546031 -0.130245,0.597966 -1.04084,0 -0.936562,0.963038 -0.624951,1.84705 -0.338291,0.676276 -0.962427,0 -0.338596,1.58799 -1.09186,-0.07811 -1.92516,2.60103 -0.469248,0 -0.545725,0.624544 -0.832386,0.05153 -0.546947,0.417008 -1.92567,0 -2.31457,2.67954 -2.15999,0.988599 0.05244,-0.311814 -0.156111,-0.62485 0.415888,-0.181569 -0.624239,-0.416804 0.54654,-1.17139 0.415684,-0.415888 0,-0.754076 -0.883914,-0.05244 -0.546845,1.01497 -2.31518,-1.22282 -1.04125,0.416091 -1.22241,-0.416091 -0.07811,-1.09308 -1.17119,-0.0777 -0.338189,1.22231 -2.18514,2.263859 -0.884627,0.155907 -0.75428,0.260389 -2.4717,-0.207944 -0.806724,0.546336 -0.702549,-0.468435 -0.676683,0.260389 -1.76874,-0.05214 -0.494503,-0.702141 -0.754382,0.155398 0,1.69166 0.416906,0.0777 0.207333,0.962326 -0.675665,0 -0.208453,1.17129 -1.76895,0.05183 -0.494401,1.17108 -0.858252,-0.05224 -0.859372,-0.442059 -0.884728,-1.76956 -1.50805,-1.01446 -0.390837,-1.24868 1.01528,-0.468026 -0.676683,-1.17119 -0.286457,-1.22282 0,-1.09308 1.37903,-0.493688 L 2.471605,61.712208 1.846959,61.582981 1.014675,61.842249 5e-6,61.582981 l 0.129736,-0.494707 0.416906,-0.728618 1.09247,-0.156823 -0.129939,-1.76874 1.09257,0.468434 0.467721,-0.468434 -0.806215,-1.2222 -0.155601,-1.24909 0.285744,-0.806724 0.208351,-1.45683 -0.130143,-0.546438 -1.37974,-0.468943 0.339003,-0.961715 1.30143,-0.130347 2.31508,0.88483 0.962631,-0.754484 -0.051833,-1.56151 0.129532,-1.09196 0.754484,0.88371 1.43137,-0.207536 -0.754789,-1.37893 0.962326,-0.676377 1.7695602,0.415786 2.05571,-0.701734 1.04033,-0.130958 0.338392,-1.09247 1.09226,0.494808 0.962326,0 0.755298,1.84695 1.30072,0.182078 0.337985,1.84705 0.598678,-0.05122 0.156009,-1.92567 0.884219,-0.26049 0.885136,-3.01763 -0.07821,-1.37913 0.754076,-1.14512 1.2495,0.05214 1.89919,0.338698 0.364156,-1.09298 -1.50958,-0.937071 0.676887,-2.0551 -0.416295,-0.75428 2.13341,-0.755095 0.05244,-1.09247 0.832488,-0.20774 -0.13055,-1.92516 -1.37903,-0.962835 -1.76936,0.156111 0.05244,-1.17068 -0.338189,-0.62485 0.624442,-0.415684 1.5606,0.07821 0.547151,-1.01508 -0.390633,-1.63962 -0.962326,-0.962326 -1.04104,-0.285744 -0.05244,-1.43157 -1.50775,-1.97689 -0.339207,-1.17108 -0.546642,-0.623526 0.75428,-1.56192 -0.571489,-0.130143 -0.884525,0.728822 -0.390735,-0.260082 -0.286254,-0.676276 -0.676174,0 -0.338392,0.676276 -0.910798,-1.01467 -0.675766,0 -0.26049,-0.962631 0.390226,-0.884728 -0.338392,-1.71732 -1.43066,-0.208249 -0.130347,-0.623729 1.01477,-0.05214 -0.624442,-0.833201 1.04053,-0.884423 -1.92567,-2.34125 0.07841,-0.598169 0.62485,-0.155907 0.181874,0.572202 0.754993,-0.572202 2.1328,-3.5389098 -0.754382,-0.416091 0.130652,-0.962529 -0.416804,-0.624646 0.494707,-0.675868 -0.0779,-1.30102 0.831775,-0.676785 0.41711,-0.54654 -1.37954,-0.624646 -1.17088,-1.30051 2.55042,0.494808 1.2218,0.208046 1.17108,-0.832793 1.01436,1.50836 c 0,0 0.62434,0.546743 1.97801,0.130449 1.37842,-0.416091 2.26365,-0.130449 2.26365,-0.130449 l 2.133,0.96314 2.23687,1.14481 2.34217,0.207842 0.806419,0.208555 0.832284,-0.547456 0.885136,1.50978 1.43045,0.884932 0.364564,1.30021 1.43157,-0.259471 1.50866,-1.24899 3.06977,1.09288 0.285846,1.92587 1.84746,-0.078921 2.10744,1.5088697 1.17017,-0.7542797 4.70949,-0.338392 0.286152,4.1106097 1.22343,0.468434 0,2.00367 2.80897,-0.208046 1.71773,0.129838 0.806419,0.546438 1.04033,-1.22353 1.22302,0.547253 2.0551,1.14461 1.43178,0.285846 -1.35357,1.97771 -0.07821,1.43025 -1.71691,0 -0.80652,0.625359 0.05204,1.97659 0.62434,0.156416 -0.07739,0.884627 -1.30123,-0.623729 -0.598678,-0.677498 -0.155907,-0.545623 -0.468841,-0.07882 -0.467721,1.09298 0.337883,2.00357 0.468332,0.33768 -0.415888,1.30102 -1.76925,0.598475 0.676581,2.88789 -1.63992,1.22332 -1.50876,1.97689 c 0,0 -0.67597,1.63952 -0.805604,2.21141 -0.156111,0.546234 -0.286152,1.01426 -0.286152,1.01426 l -1.63972,0.677396 -1.09267,0.884423 0.88483,2.47078 -0.676785,0.676887 0.806928,1.11854 0.156111,0.884423 -0.494299,1.97801 0.546234,1.7164 0.28605,1.43117 -0.676581,1.30123 -0.28605,0.259981 -0.832488,0.910085 -0.338087,1.09328 -1.01467,0.806215 0.754382,0.62485 0.676377,-0.207842 0.129838,1.97638 -1.09267,0.338291 z"
   id="path10"
   style="fill:#ffdf49" />
  <g
   id="_386678760">
   <path
   d="m 38.8327,26.3131 c 0.480144,0 0.879739,-0.380551 0.879739,-0.860288 0,-0.47933 -0.399594,-0.859168 -0.879739,-0.859168 -0.459167,0 -0.838802,0.379839 -0.838802,0.859168 0,0.479737 0.379635,0.860288 0.838802,0.860288 z"
   id="_386678856"
   style="fill:#fefefe;stroke:#2b2a29;stroke-width:0.120673" />
   <path
   d="m 38.8448,25.6582 c 0.111202,0 0.205194,-0.0942 0.205194,-0.205398 0,-0.110489 -0.09399,-0.20438 -0.205194,-0.20438 -0.103361,0 -0.188086,0.09389 -0.188086,0.20438 0,0.111202 0.08472,0.205398 0.188086,0.205398 z"
   id="_386678808"
   style="fill:#2b2a29;stroke:#2b2a29;stroke-width:0.077597" />
  </g>
  <g
   id="_386678592">
   <path
   d="m 15.5115,59.612 c 0.479941,0 0.879128,-0.379431 0.879128,-0.859677 0,-0.479533 -0.399187,-0.859168 -0.879128,-0.859168 -0.459065,0 -0.8387,0.379635 -0.8387,0.859168 0,0.480246 0.379635,0.859677 0.8387,0.859677 z"
   id="_386678688"
   style="fill:#fefefe;stroke:#2b2a29;stroke-width:0.120673" />
   <path
   d="m 15.5231,58.9575 c 0.111202,0 0.205703,-0.09348 0.205703,-0.205092 0,-0.110489 -0.0945,-0.204685 -0.205703,-0.204685 -0.102648,0 -0.187883,0.0942 -0.187883,0.204685 0,0.111609 0.08523,0.205092 0.187883,0.205092 z"
   id="_386678640"
   style="fill:#2b2a29;stroke:#2b2a29;stroke-width:0.077597" />
  </g>
  <g
   id="_386678424">
   <path
   d="m 22.6548,24.8419 c 0.479941,0 0.879739,-0.379635 0.879739,-0.860085 0,-0.479737 -0.399798,-0.858965 -0.879739,-0.858965 -0.459065,0 -0.839107,0.379228 -0.839107,0.858965 0,0.48045 0.380042,0.860085 0.839107,0.860085 z"
   id="_386678520"
   style="fill:#fefefe;stroke:#2b2a29;stroke-width:0.120673" />
   <path
   d="m 22.6662,24.1873 c 0.111915,0 0.205907,-0.09399 0.205907,-0.205398 0,-0.110897 -0.09399,-0.204889 -0.205907,-0.204889 -0.10275,0 -0.187475,0.09399 -0.187475,0.204889 0,0.111406 0.08472,0.205398 0.187475,0.205398 z"
   id="_386678472"
   style="fill:#2b2a29;stroke:#2b2a29;stroke-width:0.077597" />
  </g>
  <path
   d="m 40.5001,28.1621 0.20438,0.05173 c -0.04267,0.167414 -0.11996,0.295317 -0.230958,0.383708 -0.111406,0.08798 -0.24715,0.131874 -0.408046,0.131874 -0.166396,0 -0.301427,-0.03381 -0.405602,-0.101324 -0.104176,-0.06792 -0.183606,-0.165988 -0.237781,-0.294197 -0.05428,-0.128616 -0.08157,-0.2666 -0.08157,-0.413851 0,-0.160591 0.03055,-0.300714 0.09196,-0.420368 0.06141,-0.119552 0.148677,-0.21049 0.262221,-0.272608 0.113137,-0.06212 0.237781,-0.09307 0.373932,-0.09307 0.154481,0 0.284217,0.03921 0.389411,0.117821 0.105296,0.07872 0.178616,0.189003 0.219858,0.33157 l -0.200815,0.04745 c -0.03584,-0.112424 -0.08758,-0.193993 -0.155907,-0.245317 -0.06782,-0.05143 -0.153361,-0.07688 -0.256824,-0.07688 -0.118534,0 -0.217312,0.02831 -0.297048,0.08513 -0.07984,0.05713 -0.135846,0.133198 -0.167821,0.229125 -0.03228,0.09562 -0.04847,0.1944 -0.04847,0.29603 0,0.131467 0.01904,0.245724 0.05713,0.34379 0.03839,0.09776 0.09766,0.170978 0.178514,0.219451 0.08086,0.04857 0.168127,0.07261 0.262221,0.07261 0.114257,0 0.210897,-0.03299 0.290327,-0.09878 0.07933,-0.06609 0.132893,-0.164155 0.160897,-0.293891 z m 1.18504,0.403057 c -0.07037,0.05967 -0.137984,0.101732 -0.202547,0.126477 -0.06507,0.02444 -0.134726,0.03666 -0.209166,0.03666 -0.122811,0 -0.216905,-0.02984 -0.282995,-0.08982 -0.06578,-0.05998 -0.09878,-0.136864 -0.09878,-0.22994 0,-0.05489 0.01212,-0.104888 0.03727,-0.150102 0.02485,-0.04532 0.05754,-0.08157 0.09776,-0.10886 0.04063,-0.02729 0.08584,-0.04817 0.136457,-0.06212 0.03707,-0.0098 0.09307,-0.01945 0.168127,-0.02841 0.153056,-0.01833 0.265887,-0.03992 0.338087,-0.06538 7.13e-4,-0.02587 0.001,-0.04236 0.001,-0.04918 0,-0.07729 -0.01792,-0.131874 -0.05387,-0.163137 -0.04807,-0.04308 -0.120265,-0.06426 -0.215479,-0.06426 -0.0891,0 -0.154889,0.01538 -0.197557,0.04664 -0.04246,0.03126 -0.07373,0.08656 -0.0942,0.165988 l -0.184929,-0.02556 c 0.0168,-0.07902 0.0445,-0.14328 0.08289,-0.191752 0.03849,-0.04888 0.0945,-0.08656 0.167414,-0.112831 0.07291,-0.02627 0.157333,-0.03951 0.253667,-0.03951 0.09552,0 0.172811,0.01151 0.232384,0.03381 0.05967,0.02261 0.103463,0.05061 0.131874,0.08472 0.028,0.03411 0.04745,0.07688 0.05886,0.129023 0.0061,0.03228 0.0094,0.09043 0.0094,0.174542 l 0,0.252547 c 0,0.176375 0.004,0.287781 0.01222,0.334115 0.0079,0.04664 0.02403,0.09155 0.04776,0.134318 l -0.197862,0 c -0.01945,-0.03921 -0.03238,-0.08513 -0.03778,-0.137984 z m -0.01578,-0.423118 c -0.06894,0.02831 -0.172098,0.05204 -0.309268,0.07179 -0.078,0.0112 -0.1333,0.02373 -0.165276,0.03778 -0.03238,0.01395 -0.05754,0.03442 -0.07475,0.06171 -0.01762,0.02698 -0.02658,0.05682 -0.02658,0.08982 0,0.05071 0.01945,0.09277 0.05743,0.126477 0.03808,0.0334 0.0942,0.05031 0.167821,0.05031 0.07291,0 0.137984,-0.01578 0.194705,-0.04776 0.05672,-0.03198 0.09878,-0.07587 0.125357,-0.131161 0.02047,-0.04277 0.03055,-0.105907 0.03055,-0.189308 l 0,-0.06965 z m 0.485338,0.989311 0,-1.54583 0.172404,0 0,0.145214 c 0.04063,-0.05682 0.08656,-0.09959 0.137984,-0.127903 0.05102,-0.02841 0.113137,-0.04277 0.18605,-0.04277 0.09562,0 0.179634,0.02475 0.252547,0.07362 0.07332,0.04919 0.12831,0.118534 0.165276,0.208046 0.03737,0.08941 0.05601,0.187475 0.05601,0.294197 0,0.114257 -0.02047,0.217312 -0.06181,0.308962 -0.04094,0.09155 -0.10051,0.16161 -0.178819,0.21049 -0.07831,0.04847 -0.160591,0.07291 -0.246844,0.07291 -0.06324,0 -0.119654,-0.01334 -0.169858,-0.03992 -0.05031,-0.02658 -0.09124,-0.06029 -0.123626,-0.100917 l 0,0.543892 -0.189308,0 z m 0.171386,-0.980757 c 0,0.143789 0.02902,0.250103 0.08727,0.319044 0.05815,0.06864 0.128921,0.103055 0.21161,0.103055 0.08401,0 0.156212,-0.03554 0.216192,-0.107027 0.05998,-0.07108 0.09022,-0.181365 0.09022,-0.330857 0,-0.142567 -0.02943,-0.248881 -0.08809,-0.320062 -0.05855,-0.07077 -0.128514,-0.106314 -0.209777,-0.106314 -0.08075,0 -0.152241,0.03768 -0.214461,0.113137 -0.06212,0.07546 -0.09297,0.185337 -0.09297,0.329024 z m 1.02811,-0.565073 0.189716,0 0,0.465277 0.525155,0 0,-0.465277 0.189308,0 0,1.11762 -0.189308,0 0,-0.495725 -0.525155,0 0,0.495725 -0.189716,0 0,-1.11762 z m 1.18941,0 0.189308,0 0,0.852549 0.525155,-0.852549 0.204074,0 0,1.11762 -0.189308,0 0,-0.84705 -0.525155,0.84705 -0.204074,0 0,-1.11762 z"
   id="path21"
   style="fill:#2b2a29;fill-rule:nonzero" />
  <path
   d="m 9.55849,55.9771 0.9387,0 0,1.3607 0.139003,0 0,0.542161 -0.182078,0 0,-0.359981 -1.01986,0 0,0.359981 -0.18218,0 0,-0.542161 0.11996,0 c 0.124339,-0.187068 0.186457,-0.565786 0.186457,-1.13544 l 0,-0.225255 z m 0.734321,0.182078 -0.537782,0 0,0.07902 c 0,0.131161 -0.011507,0.310388 -0.035234,0.538189 -0.02332,0.227699 -0.069654,0.414869 -0.13829,0.561407 l 0.7113064,0 0,-1.17862 z m 0.5999,1.79115 -0.02118,-0.177801 c 0.04165,0.0111 0.0776,0.0169 0.108554,0.0169 0.04195,0 0.07576,-0.0072 0.100917,-0.02118 0.02546,-0.01405 0.04593,-0.0334 0.06212,-0.05896 0.01222,-0.01864 0.03126,-0.06568 0.05784,-0.140836 0.0036,-0.01079 0.0094,-0.02587 0.0169,-0.04633 l -0.423932,-1.11976 0.204074,0 0.232791,0.647049 c 0.02984,0.08228 0.05713,0.168432 0.08086,0.258962 0.02189,-0.08686 0.04776,-0.171691 0.0779,-0.254685 l 0.238901,-0.651326 0.189308,0 -0.424951,1.13666 c -0.04562,0.122811 -0.08116,0.207231 -0.106314,0.253565 -0.03381,0.06253 -0.0722,0.108147 -0.115683,0.137271 -0.04389,0.02913 -0.09562,0.04379 -0.155907,0.04379 -0.03666,0 -0.07729,-0.0078 -0.1222,-0.02332 z m 1.92913,-2.00989 0.167312,0.0017 c -0.0078,0.07515 -0.02434,0.127597 -0.0502,0.157027 -0.02556,0.02943 -0.05855,0.04847 -0.09888,0.05672 -0.04022,0.0087 -0.119247,0.01263 -0.237374,0.01263 -0.156314,0 -0.263036,0.01507 -0.319757,0.04521 -0.05672,0.03024 -0.09776,0.07872 -0.122506,0.144807 -0.02515,0.0665 -0.0388,0.15163 -0.04165,0.256111 0.04776,-0.07077 0.103463,-0.123931 0.167414,-0.159064 0.06354,-0.03564 0.135744,-0.05326 0.215479,-0.05326 0.14664,0 0.268025,0.0503 0.364258,0.150917 0.09593,0.100611 0.144094,0.237068 0.144094,0.408861 0,0.130754 -0.02403,0.237374 -0.07261,0.321081 -0.04847,0.0834 -0.105601,0.148066 -0.171997,0.193687 -0.06609,0.04562 -0.15662,0.06823 -0.270877,0.06823 -0.132587,0 -0.23605,-0.03014 -0.309675,-0.09094 -0.07363,-0.06069 -0.130041,-0.13829 -0.169247,-0.233097 -0.03951,-0.09481 -0.05886,-0.259777 -0.05886,-0.494707 0,-0.295215 0.0499,-0.494299 0.149797,-0.596642 0.0999,-0.102343 0.253972,-0.153768 0.461611,-0.153768 0.128921,0 0.202241,-0.0021 0.219858,-0.0061 0.01762,-0.0043 0.02872,-0.01436 0.03381,-0.02943 z m -0.0098,1.0166 c 0,-0.116701 -0.02729,-0.211915 -0.08259,-0.286254 -0.05499,-0.07444 -0.132587,-0.111813 -0.232791,-0.111813 -0.104583,0 -0.185337,0.03961 -0.24216,0.117923 -0.05672,0.07862 -0.08544,0.183504 -0.08544,0.314665 0,0.130041 0.03157,0.229125 0.0945,0.297761 0.06242,0.06904 0.140021,0.103157 0.231976,0.103157 0.09379,0 0.170367,-0.03951 0.228921,-0.119349 0.05855,-0.07973 0.08758,-0.184929 0.08758,-0.316091 z m 0.426478,-0.554686 0.189716,0 0,0.465277 0.525155,0 0,-0.465277 0.189308,0 0,1.11762 -0.189308,0 0,-0.495725 -0.525155,0 0,0.495725 -0.189716,0 0,-1.11762 z m 1.11864,0.558658 c 0,-0.206925 0.05743,-0.360287 0.172811,-0.459778 0.09593,-0.08269 0.213035,-0.124339 0.351325,-0.124339 0.153768,0 0.279431,0.05031 0.376784,0.151223 0.09776,0.100611 0.146233,0.239614 0.146233,0.41711 0,0.143992 -0.02159,0.257231 -0.06466,0.339411 -0.04308,0.08269 -0.105907,0.14664 -0.188188,0.192261 -0.08269,0.04562 -0.172506,0.06823 -0.270164,0.06823 -0.156314,0 -0.282689,-0.0499 -0.379329,-0.15051 -0.09664,-0.100204 -0.144807,-0.244604 -0.144807,-0.433607 z m 0.194705,0 c 0,0.14328 0.03126,0.250408 0.09379,0.321488 0.06253,0.07149 0.141141,0.107027 0.235642,0.107027 0.09409,0 0.172404,-0.03585 0.23493,-0.107332 0.06212,-0.07149 0.09338,-0.180754 0.09338,-0.327293 0,-0.13829 -0.03126,-0.243178 -0.09409,-0.31436 -0.06283,-0.07108 -0.140836,-0.10662 -0.234217,-0.10662 -0.0945,0 -0.173117,0.03554 -0.235642,0.106314 -0.06253,0.07077 -0.09379,0.177801 -0.09379,0.320775 z"
   id="path23"
   style="fill:#2b2a29;fill-rule:nonzero" />
  <path
   d="m 23.53,20.9891 0.204074,0 0,0.675665 c 0.09338,0 0.158758,-0.01792 0.196844,-0.05418 0.03768,-0.03635 0.08625,-0.122913 0.145113,-0.26049 0.04277,-0.100917 0.078,-0.172404 0.106009,-0.214156 0.0276,-0.04165 0.06711,-0.07678 0.118127,-0.105194 0.05143,-0.02841 0.107842,-0.04277 0.169553,-0.04277 0.07872,0 0.120062,7.12e-4 0.124339,0.0021 l 0,0.176783 c -0.0072,0 -0.02088,-4.07e-4 -0.04134,-0.0011 -0.0222,-7.13e-4 -0.03585,-0.001 -0.04094,-0.001 -0.06538,0 -0.113544,0.01578 -0.145113,0.04735 -0.03228,0.03167 -0.06935,0.09919 -0.110693,0.202241 -0.05173,0.130449 -0.09552,0.21273 -0.131467,0.246844 -0.03585,0.03381 -0.07862,0.0611 -0.128208,0.08157 0.09949,0.02729 0.197557,0.119247 0.294604,0.275459 l 0.317924,0.513749 -0.253667,0 -0.257944,-0.418841 c -0.07078,-0.115683 -0.130347,-0.195113 -0.177801,-0.238596 -0.04776,-0.04308 -0.109573,-0.06466 -0.185337,-0.06466 l 0,0.722101 -0.204074,0 0,-1.54288 z m 1.21956,1.97323 -0.02118,-0.177801 c 0.04165,0.0111 0.0776,0.0169 0.108554,0.0169 0.04196,0 0.07576,-0.0072 0.100917,-0.02118 0.02546,-0.01405 0.04593,-0.0334 0.06212,-0.05896 0.01222,-0.01864 0.03126,-0.06568 0.05784,-0.140836 0.0036,-0.0108 0.0094,-0.02587 0.0169,-0.04633 l -0.423932,-1.11976 0.204074,0 0.232791,0.647049 c 0.02984,0.08228 0.05713,0.168432 0.08086,0.258962 0.02189,-0.08686 0.04776,-0.171691 0.0779,-0.254685 l 0.238901,-0.651326 0.189308,0 -0.424951,1.13666 c -0.04562,0.122811 -0.08116,0.207231 -0.106314,0.253565 -0.03381,0.06253 -0.0722,0.108147 -0.115683,0.137271 -0.04389,0.02912 -0.09562,0.04379 -0.155907,0.04379 -0.03666,0 -0.07729,-0.0078 -0.1222,-0.02332 z m 1.33351,-0.935441 0,-0.148371 c 0.08014,-7.13e-4 0.134318,-0.004 0.16385,-0.0097 0.02902,-0.0054 0.05631,-0.0223 0.08259,-0.05031 0.02587,-0.028 0.0388,-0.06324 0.0388,-0.105296 0,-0.05132 -0.0169,-0.09226 -0.05102,-0.122811 -0.03411,-0.03055 -0.0779,-0.04562 -0.13218,-0.04562 -0.106721,0 -0.181467,0.06283 -0.224135,0.188188 l -0.180041,-0.02943 c 0.05611,-0.209777 0.191447,-0.314665 0.406315,-0.314665 0.119247,0 0.212628,0.03269 0.280551,0.09807 0.06752,0.06507 0.10163,0.142974 0.10163,0.233504 0,0.09124 -0.0445,0.16385 -0.132893,0.218025 0.05642,0.03024 0.09847,0.06864 0.126477,0.11497 0.028,0.04674 0.04206,0.102037 0.04206,0.165988 0,0.100204 -0.03635,0.181773 -0.109573,0.244298 -0.07291,0.06212 -0.17495,0.09338 -0.306111,0.09338 -0.254685,0 -0.402344,-0.113137 -0.443281,-0.339818 l 0.178208,-0.03778 c 0.01619,0.07149 0.04888,0.126884 0.09837,0.165988 0.04929,0.03951 0.106009,0.05896 0.16996,0.05896 0.06354,0 0.116701,-0.01802 0.159471,-0.05387 0.04236,-0.03635 0.06365,-0.08228 0.06365,-0.138697 0,-0.04348 -0.01334,-0.08116 -0.04022,-0.113544 -0.02668,-0.03228 -0.05499,-0.05244 -0.08524,-0.06039 -0.03014,-0.0082 -0.08472,-0.01212 -0.164155,-0.01212 -0.0061,0 -0.02077,3.05e-4 -0.04308,0.001 z m 0.741856,-0.612528 0.189716,0 0,0.465277 0.525155,0 0,-0.465277 0.189308,0 0,1.11762 -0.189308,0 0,-0.495725 -0.525155,0 0,0.495725 -0.189716,0 0,-1.11762 z m 1.95418,0.75764 0.195826,0.02413 c -0.03085,0.114563 -0.08798,0.203259 -0.171386,0.266498 -0.08371,0.06293 -0.190327,0.0945 -0.320062,0.0945 -0.163443,0 -0.293076,-0.05031 -0.388698,-0.150917 -0.09593,-0.10051 -0.143687,-0.241752 -0.143687,-0.423525 0,-0.188188 0.04847,-0.334115 0.145113,-0.437884 0.09705,-0.10387 0.222404,-0.155907 0.376885,-0.155907 0.14939,0 0.27159,0.05102 0.365989,0.152648 0.09491,0.101732 0.142261,0.245011 0.142261,0.42933 0,0.01151 -3.05e-4,0.02831 -0.001,0.05061 l -0.833404,0 c 0.0068,0.122913 0.04165,0.217007 0.104176,0.281977 0.06253,0.06538 0.140021,0.09807 0.233504,0.09807 0.06935,0 0.128616,-0.01823 0.177801,-0.05489 0.04918,-0.03635 0.08798,-0.0945 0.116701,-0.174644 z m -0.621795,-0.306417 0.624035,0 c -0.0084,-0.09379 -0.03238,-0.164461 -0.07149,-0.211202 -0.06039,-0.07291 -0.138697,-0.109573 -0.234624,-0.109573 -0.08697,0 -0.160184,0.02912 -0.219451,0.08727 -0.05937,0.05825 -0.09206,0.136151 -0.09847,0.233504 z m 1.05866,-0.451224 0.189716,0 0,0.961715 0.524136,0 0,-0.961715 0.189308,0 0,0.961715 0.122098,0 0,0.472711 -0.155907,0 0,-0.316804 -0.869352,0 0,-1.11762 z m 1.13707,0.558658 c 0,-0.206925 0.05743,-0.360287 0.172811,-0.459778 0.09593,-0.08269 0.213035,-0.124339 0.351325,-0.124339 0.153768,0 0.279431,0.05031 0.376784,0.151223 0.09776,0.100611 0.146233,0.239614 0.146233,0.41711 0,0.143992 -0.02159,0.257231 -0.06466,0.339411 -0.04308,0.08269 -0.105907,0.14664 -0.188188,0.192261 -0.08269,0.04562 -0.172506,0.06823 -0.270164,0.06823 -0.156314,0 -0.282689,-0.0499 -0.379329,-0.15051 -0.09664,-0.100204 -0.144807,-0.244604 -0.144807,-0.433607 z m 0.194705,0 c 0,0.14328 0.03126,0.250408 0.09379,0.321488 0.06252,0.07149 0.141141,0.107027 0.235641,0.107027 0.09409,0 0.172404,-0.03585 0.23493,-0.107332 0.06212,-0.07149 0.09338,-0.180754 0.09338,-0.327293 0,-0.13829 -0.03126,-0.243178 -0.09409,-0.31436 -0.06283,-0.07108 -0.140836,-0.10662 -0.234217,-0.10662 -0.0945,0 -0.173117,0.03554 -0.235642,0.106314 -0.06253,0.07077 -0.09379,0.177801 -0.09379,0.320775 z m 1.07556,-0.558658 0.436865,0 c 0.107332,0 0.18717,0.0091 0.239614,0.02658 0.05204,0.01803 0.09694,0.05071 0.134624,0.09847 0.03737,0.04776 0.05642,0.104888 0.05642,0.171691 0,0.05316 -0.0111,0.0999 -0.0334,0.13941 -0.02189,0.03951 -0.0553,0.07291 -0.09949,0.09949 0.05285,0.01762 0.09634,0.05031 0.131161,0.09847 0.03483,0.04807 0.05204,0.104888 0.05204,0.170978 -0.0068,0.10601 -0.04491,0.184624 -0.113544,0.235642 -0.06894,0.05143 -0.16884,0.07688 -0.299899,0.07688 l -0.504381,0 0,-1.11762 z m 0.189716,0.470267 0.201834,0 c 0.08086,0 0.136151,-0.004 0.166294,-0.01253 0.03025,-0.0082 0.05713,-0.02556 0.08126,-0.05102 0.02373,-0.02556 0.03554,-0.05642 0.03554,-0.09196 0,-0.05896 -0.02088,-0.100306 -0.06253,-0.123218 -0.04165,-0.02342 -0.113137,-0.03493 -0.214054,-0.03493 l -0.208351,0 0,0.313647 z m 0,0.491448 0.249288,0 c 0.107434,0 0.18106,-0.01222 0.220877,-0.03737 0.04022,-0.02475 0.0611,-0.06792 0.06324,-0.128616 0,-0.03595 -0.01151,-0.06894 -0.03483,-0.09949 -0.02302,-0.03055 -0.05316,-0.0499 -0.09012,-0.05784 -0.03737,-0.0082 -0.09705,-0.01222 -0.179329,-0.01222 l -0.229125,0 0,0.335541 z m 1.65999,-0.253667 0.18605,0.02444 c -0.02006,0.12831 -0.0722,0.22882 -0.156212,0.301427 -0.08371,0.07261 -0.186762,0.10886 -0.308962,0.10886 -0.152648,0 -0.275867,-0.0499 -0.368535,-0.149797 -0.09308,-0.0999 -0.139817,-0.243178 -0.139817,-0.430042 0,-0.120673 0.02016,-0.226274 0.06008,-0.316804 0.04022,-0.09053 0.100917,-0.158453 0.182791,-0.203667 0.08157,-0.04532 0.170673,-0.06792 0.2666,-0.06792 0.121385,0 0.220877,0.03086 0.297761,0.09236 0.07729,0.06141 0.126783,0.148371 0.148779,0.261508 l -0.184318,0.02831 c -0.01762,-0.07505 -0.04847,-0.131467 -0.09308,-0.169553 -0.0445,-0.03768 -0.09837,-0.05672 -0.16161,-0.05672 -0.09562,0 -0.173219,0.03411 -0.232791,0.10275 -0.05967,0.06823 -0.08951,0.176375 -0.08951,0.324339 0,0.150204 0.02882,0.25937 0.08666,0.3277 0.05743,0.06782 0.132485,0.101935 0.225154,0.101935 0.07444,0 0.136151,-0.02291 0.186151,-0.06853 0.0499,-0.04562 0.08157,-0.115683 0.09481,-0.210591 z m 0.345215,-0.708048 0.189308,0 0,0.43656 0.240021,0 c 0.15662,0 0.276987,0.03045 0.361407,0.09124 0.08472,0.06069 0.126783,0.1444 0.126783,0.251019 0,0.09307 -0.03523,0.173219 -0.105601,0.239308 -0.07047,0.06639 -0.183198,0.09949 -0.338392,0.09949 l -0.473525,0 0,-1.11762 z m 0.189308,0.961715 0.199084,0 c 0.11996,0 0.205398,-0.01477 0.256824,-0.0442 0.05102,-0.02943 0.07648,-0.07546 0.07648,-0.137577 0,-0.04847 -0.01864,-0.09165 -0.05672,-0.129634 -0.03768,-0.03778 -0.121793,-0.05682 -0.251427,-0.05682 l -0.224237,0 0,0.36823 z m 0.935747,-0.961715 0.189308,0 0,0.482894 c 0.06039,0 0.10275,-0.01151 0.126884,-0.03452 0.02403,-0.02332 0.05957,-0.09053 0.10662,-0.202241 0.03737,-0.08839 0.06762,-0.146538 0.09053,-0.174644 0.02342,-0.028 0.05,-0.04705 0.08014,-0.05672 0.03014,-0.01008 0.07872,-0.01477 0.145113,-0.01477 l 0.03809,0 0,0.15662 -0.05275,-0.001 c -0.04959,0 -0.08157,0.0075 -0.09562,0.0223 -0.01466,0.01538 -0.03737,0.06141 -0.06752,0.137882 -0.02872,0.07291 -0.05499,0.123218 -0.07902,0.151223 -0.02373,0.02841 -0.06069,0.05397 -0.110286,0.07688 0.08116,0.022 0.161304,0.09776 0.239919,0.227394 l 0.207333,0.346335 -0.208351,0 -0.202241,-0.346335 c -0.04134,-0.06935 -0.0776,-0.115275 -0.108147,-0.13717 -0.03086,-0.0223 -0.06792,-0.0331 -0.110693,-0.0331 l 0,0.516601 -0.189308,0 0,-1.11762 z"
   id="path25"
   style="fill:#2b2a29;fill-rule:nonzero" />
  <g
   id="_304993616">
   <path
   d="m 28.3006,52.2267 c 0.627294,0 1.1218,-0.521692 1.1218,-1.12129 0,-0.626886 -0.494503,-1.14766 -1.1218,-1.14766 -0.625461,0 -1.12119,0.520776 -1.12119,1.14766 0,0.599595 0.495725,1.12129 1.12119,1.12129 z"
   id="_385351472"
   style="fill:#fefefe;stroke:#2b2a29;stroke-width:0.157536" />
   <path
   d="m 28.3006,51.705 c 0.339614,0 0.627294,-0.26049 0.627294,-0.599595 0,-0.33992 -0.287679,-0.626886 -0.627294,-0.626886 -0.338698,0 -0.599595,0.286966 -0.599595,0.626886 0,0.339105 0.260897,0.599595 0.599595,0.599595"
   id="_304994768"
   style="fill:none;stroke:#2b2a29;stroke-width:0.189105" />
  </g>
  <path
   d="m 30.2092,50.2722 0,-2.5716 0.666296,0 c 0.252445,0 0.417211,0.01314 0.493892,0.0389 0.117719,0.03829 0.216905,0.122098 0.296437,0.251427 0.07953,0.129328 0.119349,0.296437 0.119349,0.500613 0,0.158045 -0.02312,0.290938 -0.06904,0.398169 -0.04603,0.10774 -0.103972,0.19216 -0.174848,0.253871 -0.07047,0.0611 -0.142159,0.101732 -0.215072,0.121487 -0.09908,0.02454 -0.242771,0.03717 -0.431061,0.03717 l -0.270673,0 0,0.969963 -0.415277,0 z m 0.415277,-2.13636 0,0.729331 0.227088,0 c 0.16385,0 0.273423,-0.01324 0.328515,-0.04012 0.05519,-0.02699 0.09827,-0.06884 0.129838,-0.126375 0.03116,-0.05743 0.04695,-0.123931 0.04695,-0.200001 0,-0.09338 -0.022,-0.170571 -0.06609,-0.231671 -0.04358,-0.06049 -0.09959,-0.09878 -0.166599,-0.113748 -0.0499,-0.01202 -0.149491,-0.01741 -0.298983,-0.01741 l -0.200714,0 z m 1.49878,0.02098 0,-0.456214 0.394197,0 0,0.456214 -0.394197,0 z m 0,2.11538 0,-1.86274 0.394197,0 0,1.86274 -0.394197,0 z m 0.802243,-1.86274 0.86314,0 c 0.176783,0 0.309472,0.04012 0.39715,0.120978 0.08809,0.08085 0.13218,0.202343 0.13218,0.364665 0,0.104176 -0.02434,0.194604 -0.0723,0.271793 -0.04837,0.07729 -0.108758,0.128717 -0.182078,0.154481 0.102954,0.03177 0.179634,0.09043 0.230449,0.17719 0.05031,0.08686 0.07566,0.181467 0.07566,0.284421 0,0.144909 -0.04267,0.262832 -0.127394,0.35326 -0.08523,0.09043 -0.211304,0.135948 -0.378006,0.135948 l -0.938802,0 0,-1.86274 z m 0.397558,0.773628 0.253972,0 c 0.122607,0 0.211101,-0.01976 0.265785,-0.05804 0.05458,-0.03839 0.08187,-0.09939 0.08187,-0.182689 0,-0.07841 -0.02536,-0.134115 -0.07617,-0.167007 -0.05122,-0.0335 -0.141752,-0.05031 -0.271488,-0.05031 l -0.253972,0 0,0.458047 z m 0,0.773526 0.311406,0 c 0.112119,0 0.193993,-0.01731 0.245724,-0.05082 0.05122,-0.03411 0.07709,-0.09521 0.07709,-0.182689 0,-0.09094 -0.02974,-0.15387 -0.08859,-0.188595 -0.05896,-0.03472 -0.173422,-0.05143 -0.343891,-0.05143 l -0.201732,0 0,0.473525 z m 1.34939,-1.54715 0.394706,0 0,0.681978 0.56375,0 0,-0.681978 0.396132,0 0,1.86274 -0.396132,0 0,-0.78259 -0.56375,0 0,0.78259 -0.394706,0 0,-1.86274 z m 2.61427,1.26996 0.393382,0.08208 c -0.05082,0.180143 -0.130347,0.317313 -0.239512,0.411305 -0.108758,0.0946 -0.245317,0.141345 -0.409065,0.141345 -0.259166,0 -0.450715,-0.105398 -0.575359,-0.317415 -0.09817,-0.169451 -0.147455,-0.38381 -0.147455,-0.641856 0,-0.308962 0.06466,-0.550817 0.193891,-0.725665 0.128921,-0.174848 0.292262,-0.262221 0.489615,-0.262221 0.221793,0 0.396641,0.09155 0.525053,0.274848 0.127801,0.183198 0.189105,0.463444 0.183809,0.841246 l -0.988089,0 c 0.0029,0.146029 0.03442,0.259777 0.09532,0.340633 0.06079,0.08147 0.136966,0.1222 0.227496,0.1222 0.06181,0 0.113544,-0.02098 0.155601,-0.06293 0.04226,-0.04246 0.07434,-0.110184 0.09532,-0.203565 z m 0.02261,-0.498169 c -0.003,-0.143076 -0.03208,-0.251427 -0.08819,-0.325663 -0.05601,-0.07424 -0.124542,-0.111406 -0.204991,-0.111406 -0.08625,0 -0.157129,0.03951 -0.213137,0.117923 -0.05601,0.0779 -0.08381,0.18442 -0.08289,0.319146 l 0.589208,0 z"
   id="path30"
   style="fill:#2b2a29;fill-rule:nonzero" />
 </g>
</svg>