<?xml version="1.0" encoding="UTF-8" standalone="no"?>
<!-- Created with Inkscape (http://www.inkscape.org/) -->

<svg
   xmlns:svg="http://www.w3.org/2000/svg"
   xmlns="http://www.w3.org/2000/svg"
   version="1.1"
   width="67.014397mm"
   height="83.977997mm"
   viewBox="0 0 67.2722 84.301"
   id="svg2"
   xml:space="preserve"
   style="fill-rule:evenodd">
 <defs
   id="defs4">
  <style
   type="text/css"
   id="style6" />
 </defs>
 <g
   id="Layer_x0020_1">
  
  <path
   d="m 3.46257,69.8109 -0.411276,-0.359176 1.41071,-3.35927 -0.126886,-0.949639 1.07622,0 0,-1.74318 1.61539,0.127388 0.256583,-1.4869 -1.33451,-0.256884 -0.741843,-2.02536 0.409469,-0.821046 -0.282583,-1.61589 0.20609,-1.20562 1.02473,0.0517 -0.076393,-3.15469 -1.15442,0 0.077497,-0.486765 -1.76928,-1.20542 -0.385979,1.07663 -0.615258,0 0.205387,-2.02596 -1.94907,-1.5386 -0.897138,-0.205889 0.949338,-1.89747 c 0,0 -0.46197,0.666956 -0.46197,-0.538463 0,-1.20562 0.256182,-0.948635 0.256182,-0.948635 l 1.28201,-0.462171 -0.127589,-1.07693 0.666052,-0.872042 0.076794,-1.15392 -0.819641,-0.666755 1.02503,-0.487769 -0.410071,-1.28181 -1.539,-2.23155 0.590362,-1.12862 0.488673,0.256583 -0.335184,0.743248 1.20522,2.02677 1.33321,-0.077 0.411577,-2.00067 -1.20562,-1.15382 0.077196,-2.30845 0.872544,-0.05079 0.666353,-1.565 -0.872845,-0.128292 0.050795,-0.948635 1.15442,0 -0.742847,-1.07743 0,-1.33391 -1.12842,0 0.99943,-1.64109 -0.410573,-0.922937 -1.33311,-0.692955 -0.282181,-1.33321 -0.410573,-1.15392 1.07733,-1.07773 0,-1.4104 0.61586,-0.743549 0.537158,-0.820645 0.821649,-0.128593 0.462372,-0.461569 0.818938,-0.205287 0.873246,-0.743148 0.462773,0.12779 0.281479,0.333378 0.409871,0 0.538463,-0.744051 0.538463,-0.256483 -0.153589,-1.28211 -0.743549,-0.205789 -1.00053,-0.409168 -0.742847,-0.33408 0.127288,-1.20572 1.15442,-0.358474 0.076393,-0.462171 0.667157,0 0.333679,1.28272 0.8213473,0 0.255579,-0.948334 1.20592,-0.0517 0.07679,-1.28221 -1.00043,-0.154191 -1.69289,-1.8211796 -0.821046,-0.333076 -0.922636,0.281679 0,-2.76971 0.872142,-0.486966 0.12799,-0.667257 c 0,0 -0.33408,-0.076594 -0.204785,-1.15392 0.127288,-1.07723 0.614254,-1.82128 0.614254,-1.82128 l 0.795749,-0.923037 1.6168,-0.538664 -0.0529,1.33351 0.949237,1.41061 1.07763,-0.871941 0.589358,-1.28181 2.64212,-1.33411 1.89797,0.128292 1.12702,2.02647 1.69429,0.255881 0.614856,1.69269 1.4875,2.10286 1.74469,0.128693 -0.462372,1.4874 1.12852,0.051698 -1.07663,1.56419 0.333076,2.0776605 1.15472,2.23115 0.332976,1.07743 0.743549,0 1.89727,3.43657 3.0261,0.40967 1.20662,1.82128 0.898443,2.84731 -1.02754,1.28191 -1.69249,-0.358875 -2.28114,0.743549 -1.82178,0.205387 -0.872544,0.872343 1.74509,2.02536 -0.128693,1.89847 1.74308,0.794545 1.15503,1.28251 0,0.538664 -1.00013,0.897439 -0.154894,1.74408 1.82148,2.10356 -0.384574,2.56382 -0.743951,1.61629 1.12852,0.87164 1.69279,-1.23102 1.07773,0.359377 0.615559,-0.615659 3.69205,1.00013 1.02613,-0.256081 0.539467,1.94917 3.89794,-0.461569 3.79524,-2.02616 0.666755,0.666253 1.02714,-0.948836 1.53819,0.615559 0.128392,3.0266 1.4099,1.69269 0,1.56419 2.10306,0.128191 1.4874,-0.743951 1.33321,0.61576 -0.332675,1.28231 -1.33391,0.666956 0.38628,2.23175 1.84467,0.05109 -0.410473,2.30774 1.00084,0.949237 -0.0522,1.4618 1.54,0.359377 0.333378,3.15429 1.23082,1.69309 -2.38454,0.255881 -0.719658,1.07723 0.66816,0.615458 -0.334783,1.35971 1.33532,3.30818 2.64112,0.872544 2.07706,3.76965 2.35894,0.07679 0.027,0.0257 -0.48797,0.0255 -0.332374,1.35941 -1.28272,0.410874 0.12799,-0.744453 c 0,0 -0.0515,-0.07659 -0.744252,0 -0.667157,0.0519 -0.667157,1.00053 -0.667157,1.00053 l -1.15402,-0.333378 0.487669,1.07693 -0.615659,0.282081 -2.15345,-2.15446 -1.07733,0.256784 -0.0778,1.35921 -1.4874,-0.692253 -0.12799,0.89774 0.615258,0.923137 -1.89627,0.410473 -0.616563,1.35961 -1.82118,-0.538965 -1.33421,1.28231 -0.205387,1.94937 -1.15372,0.07679 -0.12799,-0.821046 -1.61579,0.128492 -0.873146,1.28221 -0.178183,0.230985 -0.975237,-0.436071 -2.30774,1.23152 -0.179488,-0.615458 c 0,0 -1.76998,-0.333779 -1.4885,-0.333779 0.257386,0 -0.203982,1.74408 -0.203982,1.74408 l -0.411176,0.28188 -1.41071,0.127589 -1.76928,-0.665852 -0.794043,-0.538463 -0.282181,-1.565 1.02433,-1.00033 -0.07639,-0.948535 -1.61509,-0.46177 -0.0775,-0.948936 -0.794344,-0.07709 -0.335084,0.128492 -1.61439,-1.20582 0.333779,-0.999831 -2.51353,-3.84754 -0.180592,-3.38517 -1.23011,-0.538463 -2.9749,1.20502 -0.333679,1.02613 -0.385276,0.128292 -0.07609,-0.795247 -0.66816,-0.281679 -0.743549,0.538263 -2.10195,-1.00084 -1.07763,1.00084 -0.666052,0 -0.871841,0.205487 0.127288,0.74385 -0.948334,0.615358 -0.872544,1.00003 -1.89687,-0.820344 -2.61733,-1.00104 -1.35841,0.872744 -0.538463,-0.589961 -0.821749,-0.282784 -0.923037,0.821347 -0.205387,-1.28261 -2.5128296,-0.153388 -1.07763,-1.12953 -0.331972,1.33441 -1.00084,0.205086 -0.282282,-0.666052 -1.00043,-0.0777 0,0.487167 -0.616663,0 -0.255579,-0.358976 -0.921632,-0.128191 -0.154894,-0.0515 z"
   id="path10"
   style="fill:#ffdf49" />
  <g
   id="_331356336">
   <path
   d="m 48.0417,76.3629 c 0.474117,0 0.867022,-0.374234 0.867022,-0.847849 0,-0.472511 -0.392906,-0.846745 -0.867022,-0.846745 -0.452333,0 -0.826567,0.374234 -0.826567,0.846745 0,0.473615 0.374234,0.847849 0.826567,0.847849 z"
   id="_331356432"
   style="fill:#fefefe;stroke:#2b2a29;stroke-width:0.118956" />
   <path
   d="m 48.0527,75.7178 c 0.110624,0 0.202677,-0.09286 0.202677,-0.202677 0,-0.108917 -0.09205,-0.201773 -0.202677,-0.201773 -0.100585,0 -0.185009,0.09286 -0.185009,0.201773 0,0.109821 0.08442,0.202677 0.185009,0.202677 z"
   id="_331356384"
   style="fill:#2b2a29;stroke:#2b2a29;stroke-width:0.0764931" />
  </g>
  <g
   id="_331356168">
   <path
   d="m 6.51727,43.1221 c 0.472812,0 0.867022,-0.374134 0.867022,-0.847146 0,-0.472711 -0.394211,-0.847247 -0.867022,-0.847247 -0.453036,0 -0.827973,0.374535 -0.827973,0.847247 0,0.473013 0.374937,0.847146 0.827973,0.847146 z"
   id="_331356264"
   style="fill:#fefefe;stroke:#2b2a29;stroke-width:0.118956" />
   <path
   d="m 6.52902,42.4775 c 0.109319,0 0.202376,-0.09286 0.202376,-0.202476 0,-0.109219 -0.093057,-0.202476 -0.202376,-0.202476 -0.100987,0 -0.18531,0.09326 -0.18531,0.202476 0,0.10962 0.084323,0.202476 0.18531,0.202476 z"
   id="_331356216"
   style="fill:#2b2a29;stroke:#2b2a29;stroke-width:0.0764931" />
  </g>
  <g
   id="_380795648">
   <path
   d="m 13.7657,61.2437 c 0.472711,0 0.865918,-0.373833 0.865918,-0.847648 0,-0.472009 -0.393207,-0.846946 -0.865918,-0.846946 -0.452735,0 -0.826166,0.374937 -0.826166,0.846946 0,0.473816 0.373431,0.847648 0.826166,0.847648 z"
   id="_331356096"
   style="fill:#fefefe;stroke:#2b2a29;stroke-width:0.118956" />
   <path
   d="m 13.777,60.5986 c 0.110022,0 0.20348,-0.09215 0.20348,-0.202576 0,-0.108516 -0.09346,-0.201572 -0.20348,-0.201572 -0.101288,0 -0.186013,0.09306 -0.186013,0.201572 0,0.110423 0.08473,0.202576 0.186013,0.202576 z"
   id="_331356024"
   style="fill:#2b2a29;stroke:#2b2a29;stroke-width:0.0764931" />
  </g>
  <g
   id="_380795480">
   <path
   d="m 12.0053,20.0303 c 0.472812,0 0.867022,-0.374836 0.867022,-0.84805 0,-0.472511 -0.394211,-0.846946 -0.867022,-0.846946 -0.453036,0 -0.82717,0.374435 -0.82717,0.846946 0,0.473213 0.374134,0.84805 0.82717,0.84805 z"
   id="_380795576"
   style="fill:#fefefe;stroke:#2b2a29;stroke-width:0.118956" />
   <path
   d="m 12.0164,19.3849 c 0.110323,0 0.203279,-0.09245 0.203279,-0.202677 0,-0.109219 -0.09296,-0.202074 -0.203279,-0.202074 -0.101389,0 -0.184708,0.09286 -0.184708,0.202074 0,0.110222 0.08332,0.202677 0.184708,0.202677 z"
   id="_380795528"
   style="fill:#2b2a29;stroke:#2b2a29;stroke-width:0.0764931" />
  </g>
  <path
   d="m 44.126,72.9471 c 0,-0.252467 0.06766,-0.450125 0.203279,-0.592772 0.13562,-0.142747 0.31059,-0.214221 0.525112,-0.214221 0.140237,0 0.267023,0.03363 0.379655,0.100485 0.112632,0.06736 0.198661,0.160816 0.257788,0.280876 0.05913,0.119659 0.08854,0.255981 0.08854,0.407963 0,0.154392 -0.03082,0.292521 -0.09316,0.413986 -0.06224,0.121767 -0.150477,0.213819 -0.264514,0.27656 -0.114338,0.06264 -0.237209,0.09386 -0.369315,0.09386 -0.14345,0 -0.271239,-0.03443 -0.383871,-0.103798 -0.112933,-0.06906 -0.19836,-0.163627 -0.256382,-0.283286 C 44.155012,73.207396 44.126,73.08061 44.126,72.947098 z m 0.207495,0.0032 c 0,0.183403 0.04929,0.327555 0.147666,0.433059 0.09878,0.105504 0.222452,0.158307 0.371122,0.158307 0.151581,0 0.276259,-0.0531 0.373933,-0.159712 0.09777,-0.106609 0.146963,-0.257788 0.146963,-0.453638 0,-0.123574 -0.02118,-0.231587 -0.06294,-0.324042 -0.04186,-0.09235 -0.103095,-0.163928 -0.183503,-0.214924 -0.08071,-0.05059 -0.171055,-0.07609 -0.271239,-0.07609 -0.142747,0 -0.265216,0.04879 -0.36791,0.146963 -0.102694,0.09767 -0.15409,0.261301 -0.15409,0.490078 z m 1.33441,0.737627 0.402643,-0.572594 -0.372528,-0.529128 0.233394,0 0.169249,0.258189 c 0.03152,0.04919 0.05742,0.09035 0.07649,0.123574 0.03042,-0.04568 0.05842,-0.08603 0.08432,-0.121465 l 0.185511,-0.260297 0.223155,0 -0.380759,0.518788 0.40977,0.582934 -0.229178,0 -0.226267,-0.342412 -0.06013,-0.09245 -0.289409,0.434866 -0.226267,0 z m 1.06247,-1.10172 0.895532,0 0,0.154392 -0.35486,0 0,0.94733 -0.185912,0 0,-0.94733 -0.354759,0 0,-0.154392 z m 1.07402,0 0.186615,0 0,0.840421 0.517684,-0.840421 0.201171,0 0,1.10172 -0.186615,0 0,-0.835 -0.517684,0.835 -0.201171,0 0,-1.10172 z m 1.18705,1.52384 0,-1.52384 0.169951,0 0,0.143149 c 0.04005,-0.05601 0.08533,-0.09818 0.136021,-0.126083 0.05029,-0.02801 0.111527,-0.04216 0.183403,-0.04216 0.09426,0 0.177079,0.02439 0.248954,0.07258 0.07228,0.04849 0.126485,0.116848 0.162924,0.205086 0.03684,0.08814 0.05521,0.184808 0.05521,0.290011 0,0.112632 -0.02018,0.214221 -0.06093,0.304567 -0.04035,0.09025 -0.09908,0.15931 -0.176275,0.207495 -0.0772,0.04778 -0.158307,0.07188 -0.243332,0.07188 -0.06234,0 -0.117952,-0.01315 -0.167442,-0.03935 -0.04959,-0.0262 -0.08995,-0.05943 -0.121867,-0.09948 l 0,0.536155 -0.186615,0 z m 0.168947,-0.966805 c 0,0.141743 0.02861,0.246545 0.08603,0.314505 0.05732,0.06766 0.127087,0.101589 0.208599,0.101589 0.08282,0 0.15399,-0.03503 0.213117,-0.105504 0.05913,-0.07007 0.08894,-0.178785 0.08894,-0.32615 0,-0.140539 -0.02901,-0.24534 -0.08683,-0.315509 -0.05772,-0.06977 -0.126685,-0.104802 -0.206792,-0.104802 -0.07961,0 -0.150075,0.03714 -0.21141,0.111527 -0.06123,0.07438 -0.09165,0.1827 -0.09165,0.324343 z m 1.01168,-0.557035 0.186615,0 0,0.476024 c 0.05953,0 0.101288,-0.01134 0.125079,-0.03403 0.02369,-0.02299 0.05872,-0.08924 0.105103,-0.199364 0.03684,-0.08713 0.06665,-0.144454 0.08924,-0.17216 0.02309,-0.02761 0.04929,-0.04638 0.079,-0.05591 0.02971,-0.0099 0.0776,-0.01456 0.143048,-0.01456 l 0.03754,0 0,0.154392 -0.052,-0.001 c -0.04889,0 -0.08041,0.0074 -0.09426,0.02198 -0.01446,0.01516 -0.03684,0.06053 -0.06656,0.135921 -0.02831,0.07188 -0.05421,0.121465 -0.0779,0.149071 -0.02339,0.02801 -0.05983,0.0532 -0.108717,0.07579 0.08001,0.02168 0.159009,0.09637 0.236506,0.224159 l 0.204383,0.341408 -0.205387,0 -0.199364,-0.341408 c -0.04076,-0.06836 -0.07649,-0.113635 -0.106609,-0.135218 -0.03042,-0.02199 -0.06696,-0.03262 -0.109118,-0.03262 l 0,0.509251 -0.186615,0 0,-1.10172 z m 1.6963,0.965701 c -0.06937,0.05883 -0.136021,0.100284 -0.199665,0.124678 -0.06415,0.02409 -0.132809,0.03614 -0.20619,0.03614 -0.121064,0 -0.213819,-0.02941 -0.278969,-0.08854 -0.06485,-0.05913 -0.09737,-0.134917 -0.09737,-0.226669 0,-0.05411 0.01195,-0.103396 0.03674,-0.147967 0.02449,-0.04467 0.05672,-0.08041 0.09637,-0.107311 0.04005,-0.0269 0.08462,-0.04748 0.134515,-0.06123 0.03654,-0.0096 0.09175,-0.01917 0.165735,-0.02801 0.150878,-0.01807 0.262104,-0.03935 0.333277,-0.06445 7.03e-4,-0.0255 0.001,-0.04176 0.001,-0.04849 0,-0.07619 -0.01767,-0.129998 -0.0531,-0.160816 -0.04738,-0.04246 -0.118554,-0.06334 -0.212414,-0.06334 -0.08784,0 -0.152685,0.01516 -0.194746,0.04598 -0.04186,0.03082 -0.07268,0.08533 -0.09286,0.163627 l -0.182299,-0.0252 c 0.01656,-0.0779 0.04387,-0.141241 0.08171,-0.189024 0.03795,-0.04818 0.09316,-0.08533 0.165032,-0.111226 0.07187,-0.0259 0.155094,-0.03895 0.250058,-0.03895 0.09416,0 0.170353,0.01134 0.229078,0.03333 0.05882,0.02228 0.101991,0.04989 0.129998,0.08352 0.02761,0.03363 0.04678,0.07579 0.05802,0.127187 0.006,0.03182 0.0092,0.08914 0.0092,0.172059 l 0,0.248954 c 0,0.173866 0.0039,0.283687 0.01205,0.329362 0.0078,0.04598 0.02369,0.09025 0.04708,0.132407 l -0.195047,0 c -0.01917,-0.03865 -0.03192,-0.08392 -0.03724,-0.136021 z m -0.01556,-0.417098 c -0.06796,0.02791 -0.16965,0.0513 -0.304868,0.07077 -0.07689,0.01104 -0.131404,0.02339 -0.162924,0.03724 -0.03192,0.01375 -0.05672,0.03393 -0.07368,0.06083 -0.01737,0.0266 -0.0262,0.05602 -0.0262,0.08854 0,0.04999 0.01917,0.09145 0.05662,0.124678 0.03754,0.03293 0.09286,0.04959 0.165434,0.04959 0.07188,0 0.136021,-0.01556 0.191935,-0.04708 0.05591,-0.03152 0.09737,-0.07479 0.123574,-0.129295 0.02018,-0.04216 0.03011,-0.1044 0.03011,-0.186615 l 0,-0.06866 z"
   id="path24"
   style="fill:#2b2a29;fill-rule:nonzero" />
  <path
   d="m 2.76931,43.5518 0.201171,0 0,0.666052 c 0.092053,0 0.1565,-0.01767 0.194044,-0.0534 0.037142,-0.03584 0.085026,-0.121164 0.143048,-0.256784 0.042162,-0.09948 0.076895,-0.169951 0.1045,-0.211109 0.027204,-0.04106 0.066153,-0.07569 0.116446,-0.103697 0.050694,-0.02801 0.106307,-0.04216 0.16714,-0.04216 0.077597,0 0.118354,7.02e-4 0.12257,0.0021 l 0,0.174268 c -0.00713,0 -0.020579,-4.02e-4 -0.040756,-0.0011 -0.021884,-7.03e-4 -0.035335,-0.001 -0.040355,-0.001 -0.064447,0 -0.111929,0.01556 -0.143048,0.04668 -0.031822,0.03122 -0.068362,0.09777 -0.109118,0.199364 -0.050995,0.128593 -0.094161,0.209704 -0.129597,0.243332 -0.035335,0.03333 -0.077497,0.06023 -0.126384,0.08041 0.098076,0.0269 0.194746,0.11755 0.290413,0.271541 l 0.313401,0.506441 -0.250058,0 -0.254274,-0.412882 c -0.069767,-0.114037 -0.128492,-0.192337 -0.175272,-0.235201 -0.04708,-0.04246 -0.108014,-0.06374 -0.1827,-0.06374 l 0,0.711827 -0.201171,0 0,-1.520929 z m 1.14097,0.969917 c 0,-0.203982 0.056617,-0.355161 0.170353,-0.453237 0.094562,-0.08151 0.210005,-0.12257 0.346327,-0.12257 0.151581,0 0.275456,0.04959 0.371423,0.149071 0.096369,0.09918 0.144152,0.236205 0.144152,0.411176 0,0.141944 -0.021282,0.253572 -0.063744,0.334582 -0.042463,0.08151 -0.1044,0.144554 -0.185511,0.189526 -0.081512,0.04497 -0.170052,0.06726 -0.266321,0.06726 -0.15409,0 -0.278668,-0.04919 -0.373933,-0.148369 -0.095265,-0.09878 -0.142747,-0.241124 -0.142747,-0.427438 z m 0.191935,0 c 0,0.141241 0.030818,0.246846 0.092454,0.316914 0.061636,0.07047 0.139133,0.105504 0.23229,0.105504 0.092755,0 0.169951,-0.03534 0.231587,-0.105805 0.061235,-0.07047 0.092053,-0.178183 0.092053,-0.322636 0,-0.136322 -0.030818,-0.239719 -0.092755,-0.309887 -0.061937,-0.07007 -0.138832,-0.105103 -0.230885,-0.105103 -0.093157,0 -0.170654,0.03503 -0.23229,0.104802 -0.061636,0.06977 -0.092454,0.175272 -0.092454,0.316212 z m 1.06026,-0.55071 0.187017,0 0,0.458658 0.517684,0 0,-0.458658 0.186615,0 0,1.10172 -0.186615,0 0,-0.488673 -0.517684,0 0,0.488673 -0.187017,0 0,-1.10172 z m 1.10273,0.55071 c 0,-0.203982 0.056617,-0.355161 0.170353,-0.453237 0.094562,-0.08151 0.210005,-0.12257 0.346327,-0.12257 0.151581,0 0.275456,0.04959 0.371423,0.149071 0.096369,0.09918 0.144152,0.236205 0.144152,0.411176 0,0.141944 -0.021282,0.253572 -0.063744,0.334582 -0.042463,0.08151 -0.1044,0.144554 -0.185511,0.189526 -0.081512,0.04497 -0.170052,0.06726 -0.266321,0.06726 -0.15409,0 -0.278668,-0.04919 -0.373933,-0.148369 -0.095265,-0.09878 -0.142747,-0.241124 -0.142747,-0.427438 z m 0.191935,0 c 0,0.141241 0.030818,0.246846 0.092454,0.316914 0.061636,0.07047 0.139133,0.105504 0.23229,0.105504 0.092755,0 0.169951,-0.03534 0.231587,-0.105805 0.061235,-0.07047 0.092053,-0.178183 0.092053,-0.322636 0,-0.136322 -0.030818,-0.239719 -0.092755,-0.309887 -0.061937,-0.07007 -0.138832,-0.105103 -0.230885,-0.105103 -0.093157,0 -0.170654,0.03503 -0.23229,0.104802 -0.061636,0.06977 -0.092454,0.175272 -0.092454,0.316212 z m 0.911894,-0.55071 0.895532,0 0,0.154392 -0.35486,0 0,0.94733 -0.185912,0 0,-0.94733 -0.354759,0 0,-0.154392 z m 0.980558,0.55071 c 0,-0.203982 0.056617,-0.355161 0.170353,-0.453237 0.094562,-0.08151 0.210005,-0.12257 0.346327,-0.12257 0.151581,0 0.275456,0.04959 0.371423,0.149071 0.096369,0.09918 0.144152,0.236205 0.144152,0.411176 0,0.141944 -0.021282,0.253572 -0.063744,0.334582 -0.042463,0.08151 -0.1044,0.144554 -0.185511,0.189526 -0.081512,0.04497 -0.170052,0.06726 -0.266321,0.06726 -0.15409,0 -0.278668,-0.04919 -0.373933,-0.148369 -0.095265,-0.09878 -0.142747,-0.241124 -0.142747,-0.427438 z m 0.191935,0 c 0,0.141241 0.030818,0.246846 0.092454,0.316914 0.061636,0.07047 0.139133,0.105504 0.23229,0.105504 0.092755,0 0.169951,-0.03534 0.231587,-0.105805 0.061235,-0.07047 0.092053,-0.178183 0.092053,-0.322636 0,-0.136322 -0.030818,-0.239719 -0.092755,-0.309887 -0.061937,-0.07007 -0.138832,-0.105103 -0.230885,-0.105103 -0.093157,0 -0.170654,0.03503 -0.23229,0.104802 -0.061636,0.06977 -0.092454,0.175272 -0.092454,0.316212 z m 1.06026,-0.55071 0.869733,0 0,1.10172 -0.187017,0 0,-0.94733 -0.4957,0 0,0.94733 -0.187017,0 0,-1.10172 z"
   id="path26"
   style="fill:#2b2a29;fill-rule:nonzero" />
  <path
   d="m 10.8568,63.1723 0,-1.52093 0.573698,0 c 0.100987,0 0.178183,0.0049 0.231286,0.01445 0.07469,0.01245 0.137326,0.03614 0.18802,0.07117 0.05029,0.03473 0.09095,0.08392 0.121767,0.146662 0.03082,0.06304 0.04608,0.132106 0.04608,0.207495 0,0.129295 -0.04106,0.239016 -0.123272,0.328659 -0.08252,0.08924 -0.231186,0.134214 -0.446109,0.134214 l -0.390296,0 0,0.618269 -0.201171,0 z m 0.201171,-0.797857 0.393408,0 c 0.129998,0 0.222452,-0.02409 0.276961,-0.07258 0.05451,-0.04849 0.08181,-0.116547 0.08181,-0.204283 0,-0.06374 -0.01596,-0.118354 -0.04819,-0.163627 -0.03222,-0.04537 -0.07439,-0.07509 -0.127087,-0.08964 -0.03403,-0.0088 -0.09637,-0.01345 -0.187719,-0.01345 l -0.389191,0 0,0.543583 z m 1.02914,0.246846 c 0,-0.203982 0.05662,-0.355161 0.170353,-0.453237 0.09456,-0.08151 0.210005,-0.12257 0.346327,-0.12257 0.151581,0 0.275456,0.04959 0.371423,0.149071 0.09637,0.09918 0.144152,0.236205 0.144152,0.411176 0,0.141944 -0.02128,0.253572 -0.06374,0.334582 -0.04246,0.08151 -0.1044,0.144554 -0.185511,0.189526 -0.08151,0.04497 -0.170052,0.06726 -0.266321,0.06726 -0.15409,0 -0.278668,-0.04919 -0.373933,-0.148369 -0.09527,-0.09878 -0.142747,-0.241124 -0.142747,-0.427438 z m 0.191935,0 c 0,0.141241 0.03082,0.246846 0.09245,0.316914 0.06164,0.07047 0.139133,0.105504 0.23229,0.105504 0.09276,0 0.169951,-0.03533 0.231587,-0.105805 0.06123,-0.07047 0.09205,-0.178183 0.09205,-0.322636 0,-0.136322 -0.03082,-0.239719 -0.09275,-0.309887 -0.06194,-0.07007 -0.138832,-0.105103 -0.230885,-0.105103 -0.09316,0 -0.170654,0.03503 -0.23229,0.104802 -0.06164,0.06977 -0.09245,0.175272 -0.09245,0.316212 z m 1.06448,-0.55071 0.290413,0 0.28971,0.881779 0.321532,-0.881779 0.26873,0 0,1.10172 -0.186615,0 0,-0.887099 -0.325748,0.887099 -0.16714,0 -0.308081,-0.929562 0,0.929562 -0.1828,0 0,-1.10172 z m 1.45658,0 0.187017,0 0,0.458658 0.517684,0 0,-0.458658 0.186615,0 0,1.10172 -0.186615,0 0,-0.488673 -0.517684,0 0,0.488673 -0.187017,0 0,-1.10172 z m 1.17249,0 0.186615,0 0,0.840421 0.517684,-0.840421 0.201171,0 0,1.10172 -0.186615,0 0,-0.835 -0.517684,0.835 -0.201171,0 0,-1.10172 z"
   id="path28"
   style="fill:#2b2a29;fill-rule:nonzero" />
  <path
   d="m 8.57626,20.5935 0.201171,0 0,1.34134 0.505336,0 0,-1.34134 0.201071,0 0,1.34134 0.505336,0 0,-1.34134 0.201171,0 0,1.52093 -1.61409,0 0,-1.52093 z m 1.85069,0.969917 c 0,-0.203982 0.05662,-0.355161 0.170353,-0.453237 0.09456,-0.08151 0.210005,-0.12257 0.346327,-0.12257 0.151581,0 0.275456,0.04959 0.371423,0.149071 0.09637,0.09918 0.144152,0.236205 0.144152,0.411176 0,0.141944 -0.02128,0.253572 -0.06374,0.334582 -0.04246,0.08151 -0.1044,0.144554 -0.185511,0.189526 -0.08151,0.04497 -0.170052,0.06726 -0.266321,0.06726 -0.15409,0 -0.278668,-0.04919 -0.373933,-0.148369 -0.09527,-0.09878 -0.142747,-0.241124 -0.142747,-0.427438 z m 0.191935,0 c 0,0.141241 0.03082,0.246846 0.09245,0.316914 0.06164,0.07047 0.139133,0.105504 0.23229,0.105504 0.09276,0 0.169951,-0.03533 0.231587,-0.105805 0.06123,-0.07047 0.09205,-0.178183 0.09205,-0.322636 0,-0.136322 -0.03082,-0.239719 -0.09276,-0.309887 -0.06194,-0.07007 -0.138832,-0.105103 -0.230885,-0.105103 -0.09316,0 -0.170654,0.03503 -0.23229,0.104802 -0.06164,0.06977 -0.09246,0.175272 -0.09246,0.316212 z m 1.77841,0.147264 0.183403,0.02409 c -0.01978,0.126485 -0.07117,0.225564 -0.15399,0.297139 -0.08252,0.07158 -0.184105,0.107311 -0.304567,0.107311 -0.150477,0 -0.271942,-0.04919 -0.363292,-0.147666 -0.09175,-0.09848 -0.137828,-0.239719 -0.137828,-0.423924 0,-0.118956 0.01988,-0.223055 0.05923,-0.312297 0.03965,-0.08924 0.09948,-0.156199 0.18019,-0.200769 0.08041,-0.04467 0.168245,-0.06696 0.262807,-0.06696 0.119659,0 0.217734,0.03042 0.293525,0.09105 0.07619,0.06053 0.124979,0.14626 0.146662,0.257788 l -0.181696,0.02791 c -0.01737,-0.07398 -0.04778,-0.129597 -0.09175,-0.16714 -0.04387,-0.03714 -0.09697,-0.05591 -0.15931,-0.05591 -0.09426,0 -0.170754,0.03363 -0.229479,0.101288 -0.05882,0.06726 -0.08824,0.173866 -0.08824,0.319725 0,0.148067 0.02841,0.25568 0.08543,0.323038 0.05662,0.06686 0.1306,0.100485 0.221951,0.100485 0.07338,0 0.134214,-0.02259 0.183503,-0.06756 0.04919,-0.04497 0.08041,-0.114037 0.09346,-0.207596 z m 0.24263,-0.697975 0.895532,0 0,0.154392 -0.35486,0 0,0.94733 -0.185912,0 0,-0.94733 -0.354759,0 0,-0.154392 z m 1.07291,0 0.186615,0 0,0.476024 c 0.05953,0 0.101288,-0.01134 0.125079,-0.03403 0.02369,-0.02299 0.05873,-0.08924 0.105103,-0.199364 0.03684,-0.08713 0.06665,-0.144454 0.08924,-0.17216 0.02309,-0.02761 0.04929,-0.04638 0.079,-0.05592 0.02971,-0.0099 0.0776,-0.01456 0.143048,-0.01456 l 0.03754,0 0,0.154392 -0.052,-0.001 c -0.04889,0 -0.08041,0.0074 -0.09426,0.02198 -0.01445,0.01516 -0.03684,0.06053 -0.06655,0.135921 -0.02831,0.07187 -0.05421,0.121465 -0.0779,0.149071 -0.02339,0.02801 -0.05983,0.0532 -0.108717,0.07579 0.08001,0.02168 0.159009,0.09637 0.236506,0.224159 l 0.204383,0.341408 -0.205387,0 -0.199364,-0.341408 c -0.04076,-0.06836 -0.07649,-0.113635 -0.106609,-0.135218 -0.03042,-0.02198 -0.06696,-0.03262 -0.109118,-0.03262 l 0,0.509251 -0.186615,0 0,-1.10172 z m 1.6963,0.965701 c -0.06937,0.05882 -0.136021,0.100284 -0.199665,0.124678 -0.06415,0.02409 -0.132809,0.03614 -0.20619,0.03614 -0.121064,0 -0.213819,-0.02941 -0.278969,-0.08854 -0.06485,-0.05913 -0.09737,-0.134917 -0.09737,-0.226669 0,-0.05411 0.01195,-0.103396 0.03674,-0.147967 0.02449,-0.04467 0.05672,-0.08041 0.09637,-0.107311 0.04005,-0.0269 0.08462,-0.04748 0.134515,-0.06123 0.03654,-0.0096 0.09175,-0.01917 0.165735,-0.02801 0.150878,-0.01807 0.262104,-0.03935 0.333277,-0.06445 7.03e-4,-0.0255 0.001,-0.04176 0.001,-0.04849 0,-0.07619 -0.01767,-0.129998 -0.0531,-0.160816 -0.04738,-0.04246 -0.118554,-0.06334 -0.212414,-0.06334 -0.08784,0 -0.152685,0.01516 -0.194746,0.04598 -0.04186,0.03082 -0.07268,0.08533 -0.09286,0.163627 l -0.182299,-0.0252 c 0.01656,-0.0779 0.04387,-0.141241 0.08171,-0.189024 0.03795,-0.04818 0.09316,-0.08533 0.165032,-0.111226 0.07188,-0.0259 0.155094,-0.03895 0.250058,-0.03895 0.09416,0 0.170353,0.01134 0.229078,0.03333 0.05882,0.02229 0.101991,0.04989 0.129998,0.08352 0.0276,0.03363 0.04678,0.07579 0.05802,0.127187 0.006,0.03182 0.0092,0.08914 0.0092,0.172059 l 0,0.248954 c 0,0.173866 0.0039,0.283687 0.01205,0.329362 0.0078,0.04598 0.02369,0.09024 0.04708,0.132407 l -0.195047,0 c -0.01917,-0.03865 -0.03192,-0.08392 -0.03724,-0.136021 z m -0.01556,-0.417098 c -0.06796,0.02791 -0.16965,0.0513 -0.304868,0.07077 -0.07689,0.01104 -0.131404,0.02339 -0.162924,0.03724 -0.03192,0.01375 -0.05672,0.03393 -0.07368,0.06083 -0.01737,0.0266 -0.0262,0.05601 -0.0262,0.08854 0,0.04999 0.01917,0.09145 0.05662,0.124678 0.03754,0.03293 0.09286,0.04959 0.165434,0.04959 0.07188,0 0.136021,-0.01556 0.191935,-0.04708 0.05591,-0.03152 0.09737,-0.07479 0.123574,-0.129295 0.02018,-0.04216 0.03012,-0.1044 0.03012,-0.186615 l 0,-0.06866 z"
   id="path30"
   style="fill:#2b2a29;fill-rule:nonzero" />
  <g
   id="_383094680">
   <path
   d="m 43.7689,55.2072 c 0.616563,0 1.13043,-0.514572 1.13043,-1.13174 0,-0.591868 -0.513869,-1.10594 -1.13043,-1.10594 -0.618771,0 -1.10704,0.51407 -1.10704,1.10594 0,0.617165 0.488271,1.13174 1.10704,1.13174 z"
   id="_383094776"
   style="fill:#fefefe;stroke:#2b2a29;stroke-width:0.155295" />
   <path
   d="m 43.7689,54.6926 c 0.333679,0 0.616563,-0.283185 0.616563,-0.617165 0,-0.334783 -0.282884,-0.591868 -0.616563,-0.591868 -0.336891,0 -0.59247,0.257085 -0.59247,0.591868 0,0.33398 0.255579,0.617165 0.59247,0.617165"
   id="_383094728"
   style="fill:none;stroke:#2b2a29;stroke-width:0.186414" />
  </g>
  <path
   d="m 41.6714,57.3845 0.39672,0.157002 c -0.06103,0.276861 -0.162021,0.482248 -0.303664,0.616763 -0.141241,0.134014 -0.321131,0.201271 -0.538765,0.201271 -0.269131,0 -0.49068,-0.115041 -0.663844,-0.344721 -0.173364,-0.230182 -0.260197,-0.544687 -0.260197,-0.943114 0,-0.422017 0.08733,-0.749572 0.261502,-0.983368 0.174268,-0.233093 0.403245,-0.349941 0.687535,-0.349941 0.24795,0 0.449523,0.09145 0.604416,0.275054 0.09255,0.108014 0.161519,0.263811 0.207796,0.466789 l -0.405654,0.121064 c -0.02359,-0.131604 -0.07368,-0.235502 -0.150075,-0.311694 -0.07609,-0.07609 -0.168646,-0.113937 -0.277262,-0.113937 -0.150075,0 -0.272444,0.06736 -0.365902,0.202476 -0.09356,0.134616 -0.140237,0.352953 -0.140237,0.655211 0,0.320428 0.04578,0.548903 0.13833,0.684623 0.09215,0.136322 0.212012,0.204182 0.359277,0.204182 0.109118,0 0.202677,-0.04306 0.280977,-0.129797 0.0784,-0.08623 0.134616,-0.222553 0.169048,-0.407863 z m 0.561451,-0.904265 0.413685,0 0.351246,1.3039 0.343316,-1.3039 0.402241,0 -0.518386,1.76717 -0.09306,0.319926 c -0.03393,0.106809 -0.06656,0.188824 -0.09727,0.245541 -0.03112,0.05662 -0.06656,0.102091 -0.106709,0.137527 -0.04015,0.03483 -0.08924,0.06254 -0.147766,0.08201 -0.05853,0.01947 -0.124678,0.02951 -0.198862,0.02951 -0.07459,0 -0.147766,-0.01004 -0.220043,-0.02951 l -0.03443,-0.380659 c 0.06093,0.01536 0.115744,0.02239 0.164832,0.02239 0.09014,0 0.157202,-0.03303 0.200669,-0.09918 0.04296,-0.06605 0.07649,-0.150477 0.09968,-0.25317 l -0.559143,-1.84156 z m 1.73334,0 0.481746,0 0.364999,1.2796 0.367809,-1.2796 0.48014,0 0,1.83624 -0.330466,0 0,-1.20883 -0.358373,1.20883 -0.331972,0 -0.34181,-1.20883 0,1.20883 -0.332073,0 0,-1.83624 z m 2.07485,0 0.373431,0 0,1.15332 0.597791,-1.15332 0.381562,0 0,1.83624 -0.373531,0 0,-1.174 -0.605822,1.174 -0.373431,0 0,-1.83624 z"
   id="path35"
   style="fill:#2b2a29;fill-rule:nonzero" />
 </g>
</svg>