<?xml version="1.0" encoding="UTF-8" standalone="no"?>
<!-- Created with Inkscape (http://www.inkscape.org/) -->

<svg
   xmlns:svg="http://www.w3.org/2000/svg"
   xmlns="http://www.w3.org/2000/svg"
   version="1.1"
   width="39.166302mm"
   height="66.528999mm"
   viewBox="0 0 33.5732 57.0284"
   id="svg2"
   xml:space="preserve"
   style="fill-rule:evenodd">
 <defs
   id="defs4">
  <style
   type="text/css"
   id="style6" />
 </defs>
 <g
   id="Layer_x0020_1">
  
  <polygon
   points="32.8287,55.6485 32.1939,55.6915 31.6243,55.2319 31.799,54.5531 31.0326,54.2684 30.5733,53.4584 30.9238,52.8671 30.2443,51.9033 29.3686,51.6185 29.3025,50.8086 29.6532,50.3484 29.7189,48.9693 29.5438,47.6328 30.2882,47.3487 30.3981,46.8228 29.4338,46.1872 29.8942,43.8441 29.1494,43.9537 29.4338,42.7934 28.9082,42.1579 29.0186,41.8732 29.5438,41.8077 29.7847,40.7345 29.4784,39.4641 29.7847,37.7338 29.9373,36.8144 30.2882,35.6532 30.1131,35.0182 30.3981,34.1644 30.4637,33.4196 31.2078,33.0032 31.5585,31.6243 30.8798,30.7042 31.0985,29.1489 30.4637,26.8934 30.4637,25.4699 29.9373,24.9444 29.8284,23.8496 30.354,23.2798 31.2078,23.2798 31.2078,22.3601 31.8434,21.3749 32.3692,21.3749 32.4787,20.3455 32.128,19.2939 31.2078,18.549 32.0189,18.0241 31.8434,15.2643 30.9238,14.2349 31.1647,13.2492 30.5733,11.9794 30.9238,10.8841 30.9238,9.9649 31.7336,9.92058 32.2593,9.11036 31.9087,8.69376 32.2593,7.94963 32.1939,6.63538 33.3983,6.39477 33.5732,5.86905 32.3692,4.77407 32.4347,4.20514 32.3033,3.67917 32.6534,3.52633 32.128,3.17548 32.588,2.18945 32.9379,1.83937 32.9379,1.20462 32.1939,1.16047 31.7336,2.01484 29.7847,0.985518 28.9082,1.33577 27.8793,0.985518 27.8135,0.065404 26.8277,0 26.543,1.02889 24.7036,2.93452 23.959,3.06576 23.324,3.28495 21.2435,3.10991 20.5644,3.56979 19.973,3.17548 19.4034,3.39467 17.9145,3.35078 17.4983,2.75974 16.8633,2.89055 16.8633,4.31452 17.2142,4.37993 17.3887,5.18998 16.82,5.18998 16.6445,6.17592 15.1555,6.21955 14.7393,7.20533 13.8632,7.16136 14.0598,7.31505 15.374,8.4096 15.1987,9.78917 14.3885,12.2204 13.1185,12.505 12.5487,13.1839 10.5348,13.1839 10.3152,12.6804 9.04496,13.4245 8.30065,13.1402 8.05935,14.5202 8.51933,15.3301 7.53389,16.754 6.89863,16.1407 6.3297,16.294 5.3003,18.7246 1.44575,20.7399 0.525804,20.7399 0.109721,22.8642 0,22.8642 0.044317,23.6745 0.460143,24.9444 0.109721,25.2288 0.394739,26.6084 0.810393,26.6084 1.09507,27.0692 1.66485,27.9447 1.20487,28.4045 1.73059,30.6387 3.57048,31.2293 1.66485,32.8287 2.23402,33.8799 2.58445,34.7995 4.02985,35.1934 4.02985,36.1135 4.55608,36.9234 4.20514,37.2085 3.39432,36.6828 2.19022,36.6828 2.12499,37.4498 3.50447,37.4935 3.85507,37.7782 3.96427,38.5885 4.38027,39.1798 5.69478,39.3329 6.78959,39.3329 6.85525,40.7345 6.89863,41.2383 6.67953,42.0484 6.89863,42.7934 7.35843,43.5381 7.53389,42.4424 8.34377,41.6538 8.86958,42.3331 8.23491,43.2526 8.34377,43.9974 9.32972,43.779 10.1403,43.9974 10.9503,44.5229 12.3303,44.808 12.8339,44.0634 13.2935,44.1291 13.6004,45.3337 16.7101,47.8081 16.754,48.5093 16.3598,49.0126 17.0387,49.889 16.82,50.4584 16.8633,50.6333 18.7246,51.4874 19.7546,50.9839 20.6745,51.6185 21.1348,52.188 21.3755,53.0427 22.7986,53.1741 23.6747,52.7574 24.0685,52.7574 24.813,52.1225 25.339,52.2318 25.6232,53.1083 25.689,54.3128 26.2584,55.0133 26.8935,54.0931 27.2444,54.3779 27.7037,55.364 28.6241,56.1083 29.6532,56.2839 30.5733,56.744 31.6243,57.0284 32.588,56.6774 33.2011,56.547 33.1792,56.2184 "
   id="polygon10"
   style="fill:#ffdf49" />
  <polygon
   points="32.5439,3.59148 32.3692,3.96402 32.3033,3.67917 32.5439,3.56979 "
   id="polygon12"
   style="fill:#fefefe" />
  <g
   id="_387110920">
   <path
   d="m 18.5116,51.146 c 0.404168,0 0.74036,-0.320077 0.74036,-0.723902 0,-0.403396 -0.336192,-0.723559 -0.74036,-0.723559 -0.38651,0 -0.706501,0.320163 -0.706501,0.723559 0,0.403825 0.319991,0.723902 0.706501,0.723902 z"
   id="_387111016"
   style="fill:#fefefe;stroke:#2b2a29;stroke-width:0.101578" />
   <path
   d="m 18.5215,50.5949 c 0.09386,0 0.173068,-0.07912 0.173068,-0.172725 0,-0.09318 -0.07921,-0.172468 -0.173068,-0.172468 -0.08658,0 -0.158324,0.07929 -0.158324,0.172468 0,0.09361 0.07175,0.172725 0.158324,0.172725 z"
   id="_387110968"
   style="fill:#2b2a29;stroke:#2b2a29;stroke-width:0.0653183" />
  </g>
  <g
   id="_387110584">
   <path
   d="m 19.5735,32.4006 c 0.404253,0 0.740446,-0.319391 0.740446,-0.723645 0,-0.403568 -0.336192,-0.723216 -0.740446,-0.723216 -0.386167,0 -0.705986,0.319648 -0.705986,0.723216 0,0.404253 0.31982,0.723645 0.705986,0.723645 z"
   id="_387110680"
   style="fill:#fefefe;stroke:#2b2a29;stroke-width:0.101578" />
   <path
   d="m 19.5835,31.85 c 0.09378,0 0.173068,-0.07912 0.173068,-0.173068 0,-0.09318 -0.07929,-0.172811 -0.173068,-0.172811 -0.0864,0 -0.15781,0.07963 -0.15781,0.172811 0,0.09395 0.0714,0.173068 0.15781,0.173068 z"
   id="_387110632"
   style="fill:#2b2a29;stroke:#2b2a29;stroke-width:0.0653183" />
  </g>
  <g
   id="_387110248">
   <path
   d="m 22.5838,6.84239 c 0.404425,0 0.740789,-0.31982 0.740789,-0.723902 0,-0.404082 -0.336364,-0.723216 -0.740789,-0.723216 -0.386252,0 -0.706072,0.319134 -0.706072,0.723216 0,0.404082 0.31982,0.723902 0.706072,0.723902 z"
   id="_387110344"
   style="fill:#fefefe;stroke:#2b2a29;stroke-width:0.101578" />
   <path
   d="m 22.5938,6.29139 c 0.09386,0 0.173154,-0.078862 0.173154,-0.172896 0,-0.093091 -0.07929,-0.172468 -0.173154,-0.172468 -0.08641,0 -0.158153,0.079376 -0.158153,0.172468 0,0.094034 0.07175,0.172896 0.158153,0.172896 z"
   id="_387110296"
   style="fill:#2b2a29;stroke:#2b2a29;stroke-width:0.0653183" />
  </g>
  <g
   id="_387110080">
   <path
   d="m 20.8115,41.5528 c 0.404339,0 0.740274,-0.319563 0.740274,-0.724159 0,-0.403396 -0.335935,-0.722702 -0.740274,-0.722702 -0.386338,0 -0.706501,0.319305 -0.706501,0.722702 0,0.404596 0.320163,0.724159 0.706501,0.724159 z"
   id="_387110176"
   style="fill:#fefefe;stroke:#2b2a29;stroke-width:0.101578" />
   <path
   d="m 20.8213,41.0016 c 0.09395,0 0.172725,-0.07903 0.172725,-0.172982 0,-0.09301 -0.07878,-0.172382 -0.172725,-0.172382 -0.08623,0 -0.158153,0.07938 -0.158153,0.172382 0,0.09395 0.07192,0.172982 0.158153,0.172982 z"
   id="_387110128"
   style="fill:#2b2a29;stroke:#2b2a29;stroke-width:0.0653183" />
  </g>
  <g
   id="_387109912">
   <path
   d="m 17.363,9.9853 c 0.403739,0 0.740188,-0.319734 0.740188,-0.724159 0,-0.403825 -0.336449,-0.723216 -0.740188,-0.723216 -0.386681,0 -0.706672,0.319391 -0.706672,0.723216 0,0.404425 0.319991,0.724159 0.706672,0.724159 z"
   id="_387110008"
   style="fill:#fefefe;stroke:#2b2a29;stroke-width:0.101578" />
   <path
   d="m 17.3724,9.43464 c 0.09412,0 0.173068,-0.079548 0.173068,-0.173496 0,-0.093177 -0.07895,-0.172296 -0.173068,-0.172296 -0.08649,0 -0.15781,0.079119 -0.15781,0.172296 0,0.093949 0.07132,0.173496 0.15781,0.173496 z"
   id="_387109960"
   style="fill:#2b2a29;stroke:#2b2a29;stroke-width:0.0653183" />
  </g>
  <path
   d="m 21.8809,7.43009 0.171782,0 0,0.568749 c 0.0786,0 0.133637,-0.015087 0.165696,-0.045603 0.03172,-0.030602 0.0726,-0.103464 0.12215,-0.219271 0.036,-0.084948 0.06566,-0.145123 0.08923,-0.180268 0.02323,-0.035059 0.05649,-0.064633 0.09943,-0.088548 0.04329,-0.023916 0.09078,-0.036002 0.142723,-0.036002 0.06626,0 0.101063,6e-4 0.104664,0.0018 l 0,0.148809 c -0.0061,0 -0.01757,-3.429e-4 -0.0348,-9.429e-4 -0.01869,-6e-4 -0.03017,-8.572e-4 -0.03446,-8.572e-4 -0.05503,0 -0.09558,0.013286 -0.12215,0.03986 -0.02717,0.026659 -0.05838,0.083491 -0.09318,0.170239 -0.04354,0.109807 -0.0804,0.179068 -0.110664,0.207784 -0.03017,0.028459 -0.06617,0.051432 -0.107921,0.068661 0.08375,0.022973 0.166296,0.100378 0.247987,0.231871 l 0.267616,0.432455 -0.213527,0 -0.217128,-0.352565 c -0.05957,-0.097377 -0.109721,-0.164239 -0.149666,-0.200841 -0.0402,-0.036259 -0.09223,-0.054432 -0.15601,-0.054432 l 0,0.607837 -0.171782,0 0,-1.29874 z m 1.03386,1.65919 0,-1.30122 0.145123,0 0,0.122236 c 0.0342,-0.047832 0.07286,-0.083834 0.11615,-0.107664 0.04295,-0.023916 0.09523,-0.036002 0.15661,-0.036002 0.08049,0 0.151209,0.02083 0.212585,0.061975 0.06172,0.041403 0.108007,0.099778 0.139123,0.175125 0.03146,0.075262 0.04715,0.15781 0.04715,0.247644 0,0.096177 -0.01723,0.182926 -0.05203,0.260073 -0.03446,0.077062 -0.0846,0.136037 -0.150524,0.177182 -0.06592,0.040802 -0.13518,0.061375 -0.207784,0.061375 -0.05323,0 -0.10072,-0.011229 -0.14298,-0.033602 -0.04235,-0.022373 -0.07681,-0.050746 -0.104064,-0.084948 l 0,0.457828 -0.159353,0 z m 0.144266,-0.825565 c 0,0.121036 0.02443,0.210527 0.07346,0.268559 0.04895,0.057775 0.108521,0.086748 0.178125,0.086748 0.07072,0 0.131494,-0.029916 0.181983,-0.090091 0.05049,-0.059832 0.07595,-0.152667 0.07595,-0.278503 0,-0.120007 -0.02477,-0.209499 -0.07415,-0.269417 -0.04929,-0.059575 -0.108178,-0.089491 -0.176582,-0.089491 -0.06798,0 -0.128151,0.031716 -0.180525,0.095234 -0.05229,0.063518 -0.07826,0.15601 -0.07826,0.27696 z m 1.50858,0.162096 0.164839,0.020316 c -0.02597,0.096434 -0.07406,0.171096 -0.144266,0.224328 -0.07046,0.052975 -0.16021,0.079548 -0.269417,0.079548 -0.13758,0 -0.246701,-0.042345 -0.327192,-0.127036 -0.08075,-0.084605 -0.12095,-0.203498 -0.12095,-0.356508 0,-0.15841 0.0408,-0.281246 0.12215,-0.368594 0.08169,-0.087434 0.187212,-0.131237 0.317248,-0.131237 0.125751,0 0.228614,0.042946 0.308076,0.128494 0.07989,0.085634 0.11975,0.206241 0.11975,0.361394 0,0.00969 -2.57e-4,0.02383 -8.57e-4,0.042603 l -0.701529,0 c 0.0057,0.103464 0.03506,0.182668 0.08769,0.237357 0.05263,0.055032 0.117864,0.082548 0.196555,0.082548 0.05837,0 0.108264,-0.015344 0.149666,-0.046203 0.0414,-0.030602 0.07406,-0.079548 0.09823,-0.147009 z m -0.523404,-0.25793 0.52529,0 c -0.007,-0.078948 -0.02726,-0.138437 -0.06018,-0.177782 -0.05083,-0.061375 -0.11675,-0.092234 -0.197498,-0.092234 -0.07321,0 -0.134837,0.024516 -0.184726,0.073462 -0.04997,0.049032 -0.07749,0.114607 -0.08289,0.196555 z m 0.892941,-0.379823 0.247987,0 0.247387,0.752961 0.27456,-0.752961 0.229471,0 0,0.940772 -0.159353,0 0,-0.757504 -0.27816,0.757504 -0.142723,0 -0.263073,-0.793763 0,0.793763 -0.156095,0 0,-0.940772 z m 1.88694,0.637754 0.164839,0.020315 c -0.02597,0.096435 -0.07406,0.171096 -0.144266,0.224328 -0.07046,0.052975 -0.16021,0.079548 -0.269417,0.079548 -0.13758,0 -0.246701,-0.042345 -0.327192,-0.127036 -0.08075,-0.084605 -0.12095,-0.203498 -0.12095,-0.356508 0,-0.15841 0.0408,-0.281246 0.12215,-0.368594 0.08169,-0.087434 0.187212,-0.131237 0.317248,-0.131237 0.125751,0 0.228614,0.042946 0.308076,0.128494 0.07989,0.085634 0.11975,0.206241 0.11975,0.361394 0,0.00969 -2.57e-4,0.02383 -8.57e-4,0.042603 l -0.701529,0 c 0.0057,0.103464 0.03506,0.182668 0.08769,0.237357 0.05263,0.055032 0.117864,0.082548 0.196555,0.082548 0.05838,0 0.108264,-0.015344 0.149666,-0.046203 0.0414,-0.030602 0.07406,-0.079548 0.09823,-0.147009 z m -0.523404,-0.25793 0.52529,0 c -0.007,-0.078948 -0.02726,-0.138437 -0.06018,-0.177782 -0.05083,-0.061375 -0.11675,-0.092234 -0.197498,-0.092234 -0.07321,0 -0.134837,0.024516 -0.184726,0.073462 -0.04997,0.049032 -0.07749,0.114607 -0.08289,0.196555 z m 0.889341,-0.379823 0.159696,0 0,0.391653 0.442056,0 0,-0.391653 0.159353,0 0,0.940772 -0.159353,0 0,-0.417283 -0.442056,0 0,0.417283 -0.159696,0 0,-0.940772 z m 1.64496,0.637754 0.164839,0.020316 c -0.02597,0.096434 -0.07406,0.171096 -0.144266,0.224328 -0.07046,0.052975 -0.16021,0.079548 -0.269417,0.079548 -0.13758,0 -0.246701,-0.042345 -0.327192,-0.127036 -0.08075,-0.084605 -0.12095,-0.203498 -0.12095,-0.356508 0,-0.15841 0.0408,-0.281246 0.12215,-0.368594 0.08169,-0.087434 0.187212,-0.131237 0.317248,-0.131237 0.125751,0 0.228614,0.042946 0.308076,0.128494 0.07989,0.085634 0.11975,0.206241 0.11975,0.361394 0,0.00969 -2.57e-4,0.02383 -8.57e-4,0.042603 l -0.701529,0 c 0.0057,0.103464 0.03506,0.182668 0.08769,0.237357 0.05263,0.055032 0.117864,0.082548 0.196555,0.082548 0.05837,0 0.108264,-0.015344 0.149666,-0.046203 0.0414,-0.030602 0.07406,-0.079548 0.09823,-0.147009 z m -0.523404,-0.25793 0.52529,0 c -0.007,-0.078948 -0.02726,-0.138437 -0.06018,-0.177782 -0.05083,-0.061375 -0.11675,-0.092234 -0.197498,-0.092234 -0.07321,0 -0.134837,0.024516 -0.184726,0.073462 -0.04997,0.049032 -0.07749,0.114607 -0.08289,0.196555 z m 0.891141,-0.379823 0.159696,0 0,0.809536 0.441199,0 0,-0.809536 0.159353,0 0,0.809536 0.102778,0 0,0.39791 -0.131237,0 0,-0.266674 -0.731788,0 0,-0.940772 z m 1.03421,0 0.159353,0 0,0.36748 0.202041,0 c 0.131837,0 0.233157,0.02563 0.304219,0.076805 0.07132,0.051089 0.106721,0.12155 0.106721,0.211299 0,0.078348 -0.02966,0.145809 -0.08889,0.201441 -0.05932,0.055889 -0.15421,0.083748 -0.284846,0.083748 l -0.398596,0 0,-0.940772 z m 0.159353,0.809536 0.167582,0 c 0.100978,0 0.172896,-0.012429 0.216185,-0.037202 0.04295,-0.024773 0.06438,-0.063518 0.06438,-0.115807 0,-0.040802 -0.01569,-0.077148 -0.04775,-0.109121 -0.03172,-0.031802 -0.102521,-0.047832 -0.211642,-0.047832 l -0.188754,0 0,0.309962 z"
   id="path29"
   style="fill:#2b2a29;fill-rule:nonzero" />
  <path
   d="m 17.4857,10.7942 1.02152,0 0,1.29874 -0.172982,0 0,-1.14547 -0.676756,0 0,1.14547 -0.171782,0 0,-1.29874 z m 1.22262,0.828222 c 0,-0.174182 0.04835,-0.303276 0.145466,-0.387024 0.08075,-0.0696 0.179325,-0.104664 0.295733,-0.104664 0.129437,0 0.235214,0.04235 0.317162,0.127294 0.08229,0.08469 0.123093,0.201698 0.123093,0.351107 0,0.121207 -0.01817,0.216528 -0.05443,0.285703 -0.03626,0.0696 -0.08915,0.123436 -0.15841,0.161839 -0.0696,0.0384 -0.145209,0.05743 -0.227414,0.05743 -0.13158,0 -0.237958,-0.042 -0.319305,-0.126694 -0.08135,-0.08435 -0.121893,-0.205898 -0.121893,-0.364994 z m 0.163896,0 c 0,0.120607 0.02632,0.210784 0.07895,0.270617 0.05263,0.06017 0.118807,0.09009 0.198355,0.09009 0.0792,0 0.145123,-0.03017 0.197755,-0.09035 0.05229,-0.06018 0.0786,-0.152152 0.0786,-0.275503 0,-0.116407 -0.02632,-0.204698 -0.0792,-0.264616 -0.05289,-0.05983 -0.11855,-0.08975 -0.197155,-0.08975 -0.07955,0 -0.145723,0.02992 -0.198355,0.08949 -0.05263,0.05958 -0.07895,0.149666 -0.07895,0.270017 z m 0.806193,-0.470258 0.15961,0 0,0.178125 c 0,0.07655 0.0045,0.132437 0.01363,0.166896 0.0091,0.03454 0.03112,0.06472 0.06592,0.09043 0.0348,0.02572 0.07861,0.0384 0.131237,0.0384 0.06018,0 0.13818,-0.01603 0.233757,-0.04775 l 0,-0.426112 0.15961,0 0,0.940772 -0.15961,0 0,-0.379223 c -0.09798,0.03086 -0.189612,0.04603 -0.27456,0.04603 -0.0714,0 -0.13458,-0.01817 -0.189012,-0.05443 -0.05477,-0.03634 -0.09189,-0.08075 -0.111264,-0.13338 -0.01972,-0.05229 -0.02932,-0.110407 -0.02932,-0.173582 l 0,-0.246187 z m 1.6177,0.824622 c -0.05923,0.05023 -0.11615,0.08563 -0.170496,0.106464 -0.05478,0.02057 -0.113407,0.03086 -0.176068,0.03086 -0.103378,0 -0.182583,-0.02512 -0.238215,-0.0756 -0.05538,-0.05049 -0.08315,-0.115207 -0.08315,-0.193555 0,-0.0462 0.0102,-0.08829 0.03137,-0.126351 0.02092,-0.03815 0.04843,-0.06866 0.08229,-0.09163 0.0342,-0.02297 0.07226,-0.04054 0.114864,-0.05229 0.0312,-0.0082 0.07835,-0.01637 0.141523,-0.02392 0.128837,-0.01543 0.223814,-0.0336 0.284589,-0.05503 6e-4,-0.02177 8.57e-4,-0.03566 8.57e-4,-0.0414 0,-0.06506 -0.01509,-0.111007 -0.04535,-0.137323 -0.04046,-0.03626 -0.101235,-0.05409 -0.181383,-0.05409 -0.07501,0 -0.130379,0.01294 -0.166296,0.03926 -0.03574,0.02632 -0.06206,0.07286 -0.07929,0.139723 l -0.155667,-0.02152 c 0.01414,-0.06652 0.03746,-0.120607 0.06978,-0.16141 0.0324,-0.04115 0.07955,-0.07286 0.140923,-0.09498 0.06137,-0.02212 0.132437,-0.03326 0.213527,-0.03326 0.0804,0 0.145466,0.0097 0.195612,0.02846 0.05023,0.01903 0.08709,0.0426 0.111007,0.07132 0.02357,0.02872 0.03995,0.06472 0.04955,0.108607 0.0051,0.02717 0.0079,0.07612 0.0079,0.146923 l 0,0.212585 c 0,0.148466 0.0033,0.242244 0.01029,0.281246 0.0067,0.03926 0.02023,0.07706 0.0402,0.113064 l -0.166553,0 c -0.01637,-0.033 -0.02726,-0.07166 -0.0318,-0.11615 z m -0.01329,-0.356165 c -0.05803,0.02383 -0.144866,0.0438 -0.26033,0.06043 -0.06566,0.0094 -0.112208,0.01997 -0.139124,0.0318 -0.02726,0.01174 -0.04843,0.02897 -0.06292,0.05195 -0.01483,0.02272 -0.02237,0.04783 -0.02237,0.0756 0,0.04269 0.01637,0.07809 0.04834,0.106464 0.03206,0.02812 0.07929,0.04235 0.141266,0.04235 0.06138,0 0.11615,-0.01329 0.163896,-0.0402 0.04775,-0.02692 0.08315,-0.06386 0.105521,-0.110407 0.01723,-0.036 0.02572,-0.08915 0.02572,-0.159353 l 0,-0.05863 z m 0.464171,0.472315 0,-0.940772 0.159353,0 0,0.940772 -0.159353,0 z m -0.167239,-1.12516 0,-0.181468 0.166639,0 0,0.181468 -0.166639,0 z m 0.330192,0 0,-0.181468 0.166639,0 0,0.181468 -0.166639,0 z m 0.286132,0.184383 0.367737,0 c 0.09035,0 0.157553,0.0076 0.201698,0.02237 0.0438,0.01517 0.0816,0.04269 0.113321,0.08289 0.03146,0.0402 0.04749,0.08829 0.04749,0.144523 0,0.04474 -0.0093,0.08409 -0.02812,0.11735 -0.01843,0.03326 -0.04655,0.06137 -0.08375,0.08375 0.04449,0.01483 0.08109,0.04234 0.110407,0.08289 0.02932,0.04046 0.0438,0.08829 0.0438,0.143923 -0.0057,0.08923 -0.0378,0.15541 -0.09558,0.198355 -0.05803,0.04329 -0.142123,0.06472 -0.252444,0.06472 l -0.424569,0 0,-0.940772 z m 0.159696,0.395853 0.169896,0 c 0.06806,0 0.114607,-0.0033 0.13998,-0.01054 0.02546,-0.0069 0.04809,-0.02152 0.0684,-0.04295 0.01997,-0.02152 0.02992,-0.04749 0.02992,-0.0774 0,-0.04963 -0.01757,-0.08443 -0.05263,-0.103721 -0.03506,-0.01971 -0.09523,-0.0294 -0.180183,-0.0294 l -0.175382,0 0,0.264016 z m 0,0.413683 0.209841,0 c 0.09044,0 0.152409,-0.01029 0.185926,-0.03146 0.03386,-0.02083 0.05143,-0.05718 0.05323,-0.108264 0,-0.03026 -0.0097,-0.05803 -0.02932,-0.08375 -0.01937,-0.02572 -0.04474,-0.042 -0.07586,-0.04869 -0.03146,-0.0069 -0.08169,-0.01029 -0.150952,-0.01029 l -0.19287,0 0,0.282446 z"
   id="path31"
   style="fill:#2b2a29;fill-rule:nonzero" />
  <path
   d="m 14.6526,43.2505 -0.171782,0 0,-0.523404 c -0.15421,0.05709 -0.289046,0.0858 -0.404854,0.0858 -0.09043,0 -0.169982,-0.02109 -0.239243,-0.06343 -0.06892,-0.04209 -0.115207,-0.09592 -0.138437,-0.160638 -0.02357,-0.06498 -0.03506,-0.150266 -0.03506,-0.255187 l 0,-0.381881 0.171696,0 0,0.365851 c 0,0.141866 0.02606,0.234957 0.07775,0.279446 0.05143,0.04474 0.113664,0.06712 0.186269,0.06712 0.121293,0 0.248587,-0.02692 0.381881,-0.08075 l 0,-0.631668 0.171782,0 0,1.29874 z m 0.202898,-0.470515 c 0,-0.174182 0.04835,-0.303276 0.145466,-0.387024 0.08075,-0.0696 0.179325,-0.104664 0.295733,-0.104664 0.129437,0 0.235214,0.04235 0.317162,0.127294 0.08229,0.08469 0.123093,0.201698 0.123093,0.351107 0,0.121207 -0.01817,0.216528 -0.05443,0.285703 -0.03626,0.0696 -0.08915,0.123436 -0.15841,0.161839 -0.0696,0.0384 -0.145209,0.05743 -0.227414,0.05743 -0.13158,0 -0.237958,-0.042 -0.319305,-0.126694 -0.08135,-0.08435 -0.121893,-0.205898 -0.121893,-0.364994 z m 0.163896,0 c 0,0.120607 0.02632,0.210784 0.07895,0.270617 0.05263,0.06018 0.118807,0.09009 0.198355,0.09009 0.0792,0 0.145123,-0.03017 0.197755,-0.09035 0.05229,-0.06018 0.0786,-0.152152 0.0786,-0.275503 0,-0.116407 -0.02632,-0.204698 -0.0792,-0.264616 -0.05289,-0.05983 -0.11855,-0.08975 -0.197155,-0.08975 -0.07955,0 -0.145723,0.02992 -0.198355,0.08949 -0.05263,0.05958 -0.07895,0.149666 -0.07895,0.270017 z m 0.90477,0.830966 0,-1.30122 0.145123,0 0,0.122236 c 0.0342,-0.04783 0.07286,-0.08383 0.11615,-0.107664 0.04294,-0.02392 0.09523,-0.036 0.15661,-0.036 0.08049,0 0.151209,0.02083 0.212585,0.06198 0.06172,0.0414 0.108007,0.09978 0.139123,0.175125 0.03146,0.07526 0.04715,0.15781 0.04715,0.247644 0,0.09618 -0.01723,0.182926 -0.05203,0.260073 -0.03446,0.07706 -0.0846,0.136037 -0.150524,0.177182 -0.06592,0.0408 -0.13518,0.06138 -0.207784,0.06138 -0.05323,0 -0.10072,-0.01123 -0.14298,-0.0336 -0.04235,-0.02237 -0.07681,-0.05075 -0.104064,-0.08495 l 0,0.457828 -0.159353,0 z m 0.144266,-0.825565 c 0,0.121036 0.02443,0.210527 0.07346,0.268559 0.04895,0.05777 0.108521,0.08675 0.178125,0.08675 0.07072,0 0.131494,-0.02992 0.181983,-0.09009 0.05049,-0.05983 0.07595,-0.152667 0.07595,-0.278503 0,-0.120007 -0.02477,-0.209499 -0.07415,-0.269417 -0.04929,-0.05958 -0.108178,-0.08949 -0.176582,-0.08949 -0.06798,0 -0.128151,0.03172 -0.180525,0.09523 -0.05229,0.06352 -0.07826,0.15601 -0.07826,0.27696 z m 0.738731,-0.475658 0.764704,0 0,0.131837 -0.303019,0 0,0.808936 -0.158753,0 0,-0.808936 -0.302933,0 0,-0.131837 z m 0.916171,0 0.159353,0 0,0.406482 c 0.05083,0 0.08649,-0.0097 0.106807,-0.02906 0.02023,-0.01963 0.05015,-0.07621 0.08975,-0.170239 0.03146,-0.0744 0.05692,-0.12335 0.07621,-0.147009 0.01972,-0.02357 0.04209,-0.0396 0.06746,-0.04775 0.02537,-0.0085 0.06626,-0.01243 0.12215,-0.01243 l 0.03206,0 0,0.131837 -0.0444,-8.57e-4 c -0.04175,0 -0.06866,0.0063 -0.08049,0.01877 -0.01234,0.01294 -0.03146,0.05169 -0.05683,0.116064 -0.02417,0.06138 -0.04629,0.103721 -0.06652,0.127294 -0.01997,0.02392 -0.05109,0.04543 -0.09284,0.06472 0.06832,0.01852 0.13578,0.08229 0.201955,0.191412 l 0.174525,0.291532 -0.175382,0 -0.170239,-0.291532 c -0.0348,-0.05838 -0.06532,-0.09704 -0.09103,-0.115464 -0.02597,-0.01877 -0.05718,-0.02786 -0.09318,-0.02786 l 0,0.434855 -0.159353,0 0,-0.940772 z m 0.795306,-0.174439 0,-0.183526 0.159696,0 0,0.183526 -0.159696,0 z m 0,1.11521 0,-0.940772 0.159696,0 0,0.940772 -0.159696,0 z m 0.403053,-0.940772 0.367737,0 c 0.09035,0 0.157553,0.0076 0.201698,0.02237 0.0438,0.01517 0.0816,0.04269 0.113321,0.08289 0.03146,0.0402 0.04749,0.08829 0.04749,0.144523 0,0.04474 -0.0093,0.08409 -0.02812,0.11735 -0.01843,0.03326 -0.04655,0.06137 -0.08375,0.08375 0.04449,0.01483 0.08109,0.04234 0.110407,0.08289 0.02932,0.04046 0.0438,0.08829 0.0438,0.143923 -0.0057,0.08923 -0.0378,0.15541 -0.09558,0.198355 -0.05803,0.04329 -0.142123,0.06472 -0.252444,0.06472 l -0.424569,0 0,-0.940772 z m 0.159696,0.395853 0.169896,0 c 0.06806,0 0.114607,-0.0033 0.13998,-0.01054 0.02546,-0.0069 0.04809,-0.02152 0.0684,-0.04295 0.01997,-0.02152 0.02992,-0.04749 0.02992,-0.0774 0,-0.04963 -0.01757,-0.08443 -0.05263,-0.103721 -0.03506,-0.01971 -0.09524,-0.0294 -0.180183,-0.0294 l -0.175382,0 0,0.264016 z m 0,0.413683 0.209842,0 c 0.09043,0 0.152409,-0.01029 0.185926,-0.03146 0.03386,-0.02083 0.05143,-0.05718 0.05323,-0.108264 0,-0.03026 -0.0097,-0.05803 -0.02932,-0.08375 -0.01937,-0.02572 -0.04475,-0.042 -0.07586,-0.04869 -0.03146,-0.0069 -0.08169,-0.01029 -0.150952,-0.01029 l -0.192869,0 0,0.282446 z"
   id="path33"
   style="fill:#2b2a29;fill-rule:nonzero" />
  <path
   d="m 19.1371,49.2029 0.163896,-0.0426 c 0.01234,0.06318 0.04535,0.126351 0.09943,0.189526 0.05417,0.06326 0.125836,0.09498 0.21507,0.09498 0.09069,0 0.16261,-0.02332 0.214985,-0.07012 0.05263,-0.04663 0.07886,-0.102863 0.07886,-0.169039 0,-0.0714 -0.02777,-0.128236 -0.08315,-0.170582 -0.05563,-0.04234 -0.131237,-0.06352 -0.226728,-0.06352 l -0.08255,0 0,-0.149666 c 0.07921,0 0.139637,-0.0045 0.181725,-0.01363 0.042,-0.009 0.07886,-0.03232 0.111264,-0.07012 0.03206,-0.03755 0.04809,-0.08015 0.04809,-0.127894 0,-0.05658 -0.02177,-0.105864 -0.06592,-0.147866 -0.04389,-0.04209 -0.103464,-0.06292 -0.178468,-0.06292 -0.06557,0 -0.12155,0.01629 -0.167753,0.04895 -0.04663,0.033 -0.07869,0.0762 -0.09618,0.130379 -0.01783,0.05409 -0.02666,0.09429 -0.02666,0.12095 l -0.164753,-0.0372 c 0.0408,-0.27576 0.193212,-0.413683 0.457228,-0.413683 0.126694,0 0.227328,0.0354 0.302076,0.105864 0.0744,0.07046 0.111521,0.153009 0.111521,0.247644 0,0.12095 -0.05743,0.214985 -0.172039,0.281503 0.06626,0.01843 0.12155,0.05563 0.166296,0.112207 0.04449,0.05658 0.06686,0.12395 0.06686,0.202298 0,0.111864 -0.0432,0.205298 -0.129694,0.280646 -0.08649,0.07526 -0.201441,0.112807 -0.344421,0.112807 -0.245587,0 -0.405196,-0.129437 -0.479001,-0.38891 z m 1.76017,0.250644 c -0.05923,0.05023 -0.11615,0.08563 -0.170496,0.106464 -0.05477,0.02057 -0.113407,0.03086 -0.176068,0.03086 -0.103378,0 -0.182583,-0.02512 -0.238215,-0.07561 -0.05538,-0.05049 -0.08315,-0.115207 -0.08315,-0.193555 0,-0.0462 0.0102,-0.08829 0.03137,-0.126351 0.02092,-0.03815 0.04843,-0.06866 0.08229,-0.09163 0.0342,-0.02297 0.07226,-0.04054 0.114864,-0.05229 0.0312,-0.0082 0.07835,-0.01637 0.141523,-0.02392 0.128837,-0.01543 0.223814,-0.0336 0.284589,-0.05503 6e-4,-0.02177 8.57e-4,-0.03566 8.57e-4,-0.0414 0,-0.06506 -0.01509,-0.111007 -0.04535,-0.137323 -0.04046,-0.03626 -0.101235,-0.05409 -0.181383,-0.05409 -0.07501,0 -0.130379,0.01294 -0.166296,0.03926 -0.03574,0.02632 -0.06206,0.07286 -0.07929,0.139723 l -0.155667,-0.02152 c 0.01414,-0.06652 0.03746,-0.120607 0.06978,-0.16141 0.0324,-0.04115 0.07955,-0.07286 0.140923,-0.09498 0.06138,-0.02212 0.132437,-0.03326 0.213527,-0.03326 0.08041,0 0.145466,0.0097 0.195612,0.02846 0.05023,0.01903 0.08709,0.0426 0.111007,0.07132 0.02357,0.02872 0.03994,0.06472 0.04955,0.108607 0.0051,0.02717 0.0079,0.07612 0.0079,0.146923 l 0,0.212585 c 0,0.148466 0.0033,0.242244 0.01029,0.281246 0.0067,0.03926 0.02023,0.07706 0.0402,0.113064 l -0.166553,0 c -0.01637,-0.033 -0.02726,-0.07166 -0.0318,-0.11615 z m -0.01329,-0.356165 c -0.05803,0.02383 -0.144866,0.0438 -0.26033,0.06043 -0.06566,0.0094 -0.112207,0.01997 -0.139123,0.0318 -0.02726,0.01174 -0.04843,0.02897 -0.06292,0.05195 -0.01483,0.02272 -0.02237,0.04783 -0.02237,0.0756 0,0.04269 0.01637,0.07809 0.04835,0.106464 0.03206,0.02812 0.07929,0.04235 0.141266,0.04235 0.06138,0 0.11615,-0.01329 0.163896,-0.0402 0.04775,-0.02692 0.08315,-0.06386 0.105521,-0.110407 0.01723,-0.036 0.02572,-0.08915 0.02572,-0.159353 l 0,-0.05863 z m 0.486287,-0.468457 0.740789,0 0,0.940772 -0.158753,0 0,-0.808936 -0.422426,0 0,0.468715 c 0,0.109207 -0.0036,0.181468 -0.01054,0.21627 -0.0073,0.03472 -0.02666,0.06532 -0.05872,0.09129 -0.03172,0.02597 -0.07801,0.039 -0.13818,0.039 -0.0372,0 -0.08015,-0.0024 -0.128494,-0.0073 l 0,-0.132694 0.07012,0 c 0.033,0 0.05657,-0.0037 0.0708,-0.01029 0.01423,-0.0069 0.02357,-0.01757 0.02837,-0.0324 0.0049,-0.01474 0.007,-0.06283 0.007,-0.144523 l 0,-0.619924 z m 0.981489,-0.174439 0,-0.183526 0.159696,0 0,0.183526 -0.159696,0 z m 0,1.11521 0,-0.940772 0.159696,0 0,0.940772 -0.159696,0 z m 0.407597,-0.940772 0.159353,0 0,0.809536 0.363451,0 0,-0.809536 0.159353,0 0,0.809536 0.364137,0 0,-0.809536 0.15841,0 0,0.809536 0.105521,0 0,0.39791 -0.131837,0 0,-0.266674 -1.17839,0 0,-0.940772 z m 1.48775,0 0.159353,0 0,0.717644 0.442056,-0.717644 0.171782,0 0,0.940772 -0.159353,0 0,-0.713015 -0.442056,0.713015 -0.171782,0 0,-0.940772 z m 1.01269,0 0.159353,0 0,0.406482 c 0.05083,0 0.08649,-0.0097 0.106807,-0.02906 0.02023,-0.01963 0.05015,-0.07621 0.08975,-0.170239 0.03146,-0.07441 0.05692,-0.12335 0.07621,-0.147009 0.01972,-0.02357 0.04209,-0.0396 0.06746,-0.04775 0.02537,-0.0085 0.06626,-0.01243 0.12215,-0.01243 l 0.03206,0 0,0.131837 -0.0444,-8.57e-4 c -0.04174,0 -0.06866,0.0063 -0.08049,0.01877 -0.01234,0.01294 -0.03146,0.05169 -0.05683,0.116064 -0.02417,0.06138 -0.04629,0.103721 -0.06652,0.127294 -0.01997,0.02392 -0.05109,0.04543 -0.09283,0.06472 0.06832,0.01852 0.13578,0.08229 0.201955,0.191412 l 0.174525,0.291532 -0.175382,0 -0.170239,-0.291532 c -0.0348,-0.05838 -0.06532,-0.09704 -0.09103,-0.115464 -0.02597,-0.01877 -0.05718,-0.02786 -0.09318,-0.02786 l 0,0.434855 -0.159353,0 0,-0.940772 z m 0.794706,0 0.159353,0 0,0.717644 0.442056,-0.717644 0.171782,0 0,0.940772 -0.159353,0 0,-0.713015 -0.442056,0.713015 -0.171782,0 0,-0.940772 z"
   id="path35"
   style="fill:#2b2a29;fill-rule:nonzero" />
  <path
   d="m 14.7693,34.5388 0,-1.14547 -0.427912,0 0,-0.153267 1.02941,0 0,0.153267 -0.429712,0 0,1.14547 -0.171782,0 z m 1.29934,-0.303019 0.164839,0.02032 c -0.02597,0.09643 -0.07406,0.171096 -0.144266,0.224328 -0.07046,0.05297 -0.16021,0.07955 -0.269417,0.07955 -0.13758,0 -0.246701,-0.04235 -0.327192,-0.127036 -0.08075,-0.0846 -0.12095,-0.203498 -0.12095,-0.356508 0,-0.15841 0.0408,-0.281246 0.12215,-0.368594 0.08169,-0.08743 0.187212,-0.131237 0.317248,-0.131237 0.125751,0 0.228614,0.04295 0.308076,0.128494 0.07989,0.08563 0.11975,0.206241 0.11975,0.361394 0,0.0097 -2.57e-4,0.02383 -8.57e-4,0.0426 l -0.701529,0 c 0.0057,0.103464 0.03506,0.182668 0.08769,0.237357 0.05263,0.05503 0.117864,0.08255 0.196555,0.08255 0.05837,0 0.108264,-0.01534 0.149666,-0.0462 0.0414,-0.0306 0.07406,-0.07955 0.09824,-0.147009 z m -0.523404,-0.25793 0.52529,0 c -0.007,-0.07895 -0.02726,-0.138437 -0.06018,-0.177782 -0.05083,-0.06137 -0.11675,-0.09223 -0.197498,-0.09223 -0.0732,0 -0.134837,0.02452 -0.184726,0.07346 -0.04997,0.04903 -0.07749,0.114607 -0.08289,0.196555 z m 0.88874,0.9214 0,-1.30122 0.145123,0 0,0.122236 c 0.0342,-0.04783 0.07286,-0.08383 0.11615,-0.107664 0.04294,-0.02392 0.09523,-0.036 0.15661,-0.036 0.08049,0 0.151209,0.02083 0.212585,0.06198 0.06172,0.0414 0.108007,0.09978 0.139123,0.175125 0.03146,0.07526 0.04715,0.15781 0.04715,0.247644 0,0.09618 -0.01723,0.182926 -0.05203,0.260073 -0.03446,0.07706 -0.0846,0.136037 -0.150524,0.177182 -0.06592,0.0408 -0.13518,0.06137 -0.207784,0.06137 -0.05323,0 -0.10072,-0.01123 -0.14298,-0.0336 -0.04235,-0.02237 -0.07681,-0.05075 -0.104064,-0.08495 l 0,0.457828 -0.159353,0 z m 0.144266,-0.825565 c 0,0.121036 0.02443,0.210527 0.07346,0.268559 0.04895,0.05777 0.108521,0.08675 0.178125,0.08675 0.07072,0 0.131494,-0.02992 0.181983,-0.09009 0.05049,-0.05983 0.07595,-0.152667 0.07595,-0.278503 0,-0.120007 -0.02477,-0.209499 -0.07415,-0.269417 -0.04929,-0.05958 -0.108178,-0.08949 -0.176582,-0.08949 -0.06798,0 -0.128151,0.03172 -0.180525,0.09523 -0.05229,0.06352 -0.07826,0.15601 -0.07826,0.27696 z m 1.50858,0.162096 0.164839,0.02032 c -0.02597,0.09643 -0.07406,0.171096 -0.144266,0.224328 -0.07046,0.05297 -0.16021,0.07955 -0.269417,0.07955 -0.13758,0 -0.246701,-0.04234 -0.327192,-0.127036 -0.08075,-0.08461 -0.12095,-0.203498 -0.12095,-0.356508 0,-0.15841 0.0408,-0.281246 0.12215,-0.368594 0.08169,-0.08743 0.187212,-0.131237 0.317248,-0.131237 0.125751,0 0.228614,0.04295 0.308076,0.128494 0.07989,0.08563 0.11975,0.206241 0.11975,0.361394 0,0.0097 -2.57e-4,0.02383 -8.57e-4,0.0426 l -0.701529,0 c 0.0057,0.103464 0.03506,0.182668 0.08769,0.237357 0.05263,0.05503 0.117864,0.08255 0.196555,0.08255 0.05837,0 0.108264,-0.01534 0.149666,-0.0462 0.0414,-0.0306 0.07406,-0.07955 0.09823,-0.147009 z m -0.523404,-0.25793 0.52529,0 c -0.007,-0.07895 -0.02726,-0.138437 -0.06018,-0.177782 -0.05083,-0.06137 -0.11675,-0.09223 -0.197498,-0.09223 -0.07321,0 -0.134837,0.02452 -0.184726,0.07346 -0.04997,0.04903 -0.07749,0.114607 -0.08289,0.196555 z m 1.5577,-0.768647 0.140837,0.0015 c -0.0066,0.06326 -0.02049,0.107407 -0.04226,0.13218 -0.02152,0.02477 -0.04929,0.0408 -0.08323,0.04775 -0.03386,0.0073 -0.100378,0.01063 -0.199812,0.01063 -0.13158,0 -0.221414,0.01269 -0.269159,0.03806 -0.04775,0.02546 -0.08229,0.06626 -0.103121,0.121893 -0.02117,0.05598 -0.03266,0.127636 -0.03506,0.215585 0.0402,-0.05958 0.08709,-0.104321 0.140923,-0.133894 0.05349,-0.03 0.114264,-0.04483 0.181383,-0.04483 0.123436,0 0.225614,0.04235 0.306619,0.127036 0.08075,0.08469 0.121293,0.199555 0.121293,0.344164 0,0.110064 -0.02023,0.199812 -0.06112,0.270274 -0.0408,0.07021 -0.08889,0.124636 -0.14478,0.163039 -0.05563,0.0384 -0.131837,0.05743 -0.228014,0.05743 -0.111607,0 -0.198698,-0.02537 -0.260673,-0.07655 -0.06198,-0.05109 -0.109464,-0.116407 -0.142466,-0.196212 -0.03326,-0.07981 -0.04955,-0.218671 -0.04955,-0.416426 0,-0.248501 0.042,-0.416083 0.126093,-0.502231 0.08409,-0.08615 0.213785,-0.129437 0.388567,-0.129437 0.108521,0 0.170239,-0.0018 0.185069,-0.0051 0.01483,-0.0036 0.02417,-0.01209 0.02846,-0.02477 z m -0.0082,0.855738 c 0,-0.09824 -0.02297,-0.178382 -0.06952,-0.240958 -0.04629,-0.06266 -0.111607,-0.09412 -0.195955,-0.09412 -0.08803,0 -0.15601,0.03335 -0.203841,0.09926 -0.04775,0.06618 -0.07192,0.154467 -0.07192,0.264873 0,0.109464 0.02657,0.192869 0.07955,0.250644 0.05255,0.05812 0.117864,0.08683 0.195269,0.08683 0.07895,0 0.143409,-0.03326 0.192698,-0.100463 0.04929,-0.06712 0.07372,-0.155667 0.07372,-0.266074 z m 0.298818,0.0033 c 0,-0.174182 0.04835,-0.303276 0.145466,-0.387024 0.08075,-0.0696 0.179325,-0.104664 0.295733,-0.104664 0.129437,0 0.235214,0.04235 0.317162,0.127294 0.08229,0.08469 0.123093,0.201698 0.123093,0.351107 0,0.121207 -0.01817,0.216528 -0.05443,0.285703 -0.03626,0.0696 -0.08915,0.123436 -0.15841,0.161839 -0.0696,0.0384 -0.145209,0.05743 -0.227414,0.05743 -0.13158,0 -0.237958,-0.042 -0.319305,-0.126694 -0.08135,-0.08435 -0.121893,-0.205898 -0.121893,-0.364994 z m 0.163896,0 c 0,0.120607 0.02632,0.210784 0.07895,0.270617 0.05263,0.06018 0.118807,0.09009 0.198355,0.09009 0.0792,0 0.145123,-0.03017 0.197755,-0.09035 0.05229,-0.06017 0.0786,-0.152152 0.0786,-0.275503 0,-0.116407 -0.02632,-0.204698 -0.0792,-0.264616 -0.05289,-0.05983 -0.11855,-0.08975 -0.197155,-0.08975 -0.07955,0 -0.145723,0.02992 -0.198355,0.08949 -0.05263,0.05957 -0.07895,0.149666 -0.07895,0.270017 z m 0.90537,-0.470258 0.367737,0 c 0.09035,0 0.157553,0.0076 0.201698,0.02237 0.0438,0.01517 0.0816,0.04269 0.113321,0.08289 0.03146,0.0402 0.04749,0.08829 0.04749,0.144523 0,0.04475 -0.0093,0.08409 -0.02812,0.11735 -0.01843,0.03326 -0.04655,0.06137 -0.08375,0.08375 0.04449,0.01483 0.08109,0.04235 0.110407,0.08289 0.02932,0.04046 0.0438,0.08829 0.0438,0.143923 -0.0057,0.08924 -0.0378,0.15541 -0.09558,0.198355 -0.05803,0.04329 -0.142123,0.06472 -0.252444,0.06472 l -0.424569,0 0,-0.940772 z m 0.159696,0.395853 0.169896,0 c 0.06806,0 0.114607,-0.0033 0.13998,-0.01054 0.02546,-0.0069 0.04809,-0.02152 0.0684,-0.04295 0.01997,-0.02152 0.02992,-0.04749 0.02992,-0.07741 0,-0.04963 -0.01757,-0.08443 -0.05263,-0.103721 -0.03506,-0.01971 -0.09523,-0.0294 -0.180183,-0.0294 l -0.175382,0 0,0.264016 z m 0,0.413683 0.209842,0 c 0.09043,0 0.152409,-0.01029 0.185926,-0.03146 0.03386,-0.02083 0.05143,-0.05718 0.05323,-0.108264 0,-0.03026 -0.0097,-0.05803 -0.02932,-0.08375 -0.01937,-0.02572 -0.04475,-0.042 -0.07586,-0.04869 -0.03146,-0.0069 -0.08169,-0.01029 -0.150952,-0.01029 l -0.192869,0 0,0.282446 z m 0.839709,-0.809536 0.740789,0 0,0.940772 -0.158753,0 0,-0.808936 -0.422426,0 0,0.468715 c 0,0.109207 -0.0036,0.181468 -0.01054,0.21627 -0.0073,0.03472 -0.02666,0.06532 -0.05872,0.09129 -0.03172,0.02597 -0.07801,0.039 -0.13818,0.039 -0.0372,0 -0.08015,-0.0024 -0.128494,-0.0073 l 0,-0.132694 0.07012,0 c 0.033,0 0.05657,-0.0037 0.07081,-0.01029 0.01423,-0.0069 0.02357,-0.01757 0.02837,-0.0324 0.0049,-0.01474 0.007,-0.06283 0.007,-0.144523 l 0,-0.619924 z m 1.72142,0 0,0.940772 -0.158753,0 0,-0.366794 -0.09189,0 c -0.05623,0 -0.09798,0.0073 -0.125493,0.02177 -0.02752,0.01449 -0.06746,0.06112 -0.120093,0.13938 l -0.139037,0.205641 -0.197498,0 0.171782,-0.253387 c 0.05263,-0.0774 0.104921,-0.12095 0.156953,-0.13098 -0.09104,-0.01269 -0.158495,-0.04535 -0.202641,-0.09858 -0.0438,-0.05289 -0.06592,-0.114264 -0.06592,-0.183183 0,-0.08169 0.02872,-0.147609 0.08649,-0.198441 0.05743,-0.05075 0.140923,-0.0762 0.250044,-0.0762 l 0.436055,0 z m -0.158753,0.131837 -0.226814,0 c -0.09489,0 -0.156267,0.01483 -0.183783,0.04449 -0.02726,0.02932 -0.04115,0.06412 -0.04115,0.103464 0,0.05623 0.02023,0.09729 0.06077,0.123608 0.04055,0.02631 0.111864,0.0396 0.214728,0.0396 l 0.176239,0 0,-0.311162 z"
   id="path37"
   style="fill:#2b2a29;fill-rule:nonzero" />
  <g
   id="_304423936">
   <path
   d="m 18.2615,23.8407 c 0.527433,0 0.944287,-0.439399 0.944287,-0.966231 0,-0.50566 -0.416854,-0.944801 -0.944287,-0.944801 -0.527004,0 -0.944287,0.439141 -0.944287,0.944801 0,0.526832 0.417283,0.966231 0.944287,0.966231 z"
   id="_304994936"
   style="fill:#fefefe;stroke:#2b2a29;stroke-width:0.132608" />
   <path
   d="m 18.2615,23.4013 c 0.285875,0 0.527433,-0.241815 0.527433,-0.526832 0,-0.286132 -0.241558,-0.50566 -0.527433,-0.50566 -0.285275,0 -0.504888,0.219528 -0.504888,0.50566 0,0.285018 0.219614,0.526832 0.504888,0.526832"
   id="_304994120"
   style="fill:none;stroke:#2b2a29;stroke-width:0.159181" />
  </g>
  <path
   d="m 12.6291,26.0888 0,-1.79831 -0.513717,0 0,-0.366365 1.37614,0 0,0.366365 -0.512432,0 0,1.79831 -0.349993,0 z m 1.69142,-0.498974 0.331049,0.06909 c -0.04277,0.151638 -0.109721,0.267102 -0.201612,0.346221 -0.09155,0.07963 -0.206498,0.118979 -0.344336,0.118979 -0.218071,0 -0.379395,-0.08872 -0.48423,-0.267188 -0.08263,-0.142637 -0.124208,-0.323077 -0.124208,-0.54029 0,-0.260073 0.05443,-0.463657 0.163296,-0.610838 0.108435,-0.147181 0.245929,-0.220728 0.412054,-0.220728 0.186697,0 0.333878,0.07706 0.44197,0.231357 0.107578,0.15421 0.159267,0.39011 0.15481,0.708129 l -0.831823,0 c 0.0024,0.122922 0.02906,0.218671 0.08023,0.286732 0.05117,0.06858 0.115293,0.102863 0.191498,0.102863 0.05203,0 0.09558,-0.01766 0.131065,-0.05297 0.03549,-0.03575 0.06249,-0.09275 0.08023,-0.171353 z m 0.01894,-0.41934 c -0.0024,-0.120436 -0.027,-0.211642 -0.07415,-0.274131 -0.04723,-0.06249 -0.104835,-0.09378 -0.172639,-0.09378 -0.07252,0 -0.13218,0.03326 -0.179411,0.09926 -0.04715,0.06558 -0.07055,0.155238 -0.06969,0.268645 l 0.495888,0 z m 0.590694,-0.649669 0.309705,0 0,0.230328 c 0.03986,-0.07912 0.09429,-0.143066 0.162867,-0.192012 0.06858,-0.04937 0.144695,-0.07406 0.228185,-0.07406 0.145552,0 0.269331,0.07158 0.37048,0.214213 0.101663,0.142637 0.152495,0.341678 0.152495,0.596694 0,0.261616 -0.05126,0.4652 -0.153181,0.610409 -0.102521,0.145123 -0.226643,0.217728 -0.372194,0.217728 -0.06943,0 -0.132265,-0.01714 -0.188754,-0.05143 -0.05598,-0.0348 -0.115293,-0.09378 -0.177782,-0.17744 l 0,0.790334 -0.33182,0 0,-2.16476 z m 0.328563,0.757504 c 0,0.175897 0.02786,0.306447 0.08392,0.39011 0.05563,0.08418 0.123779,0.126522 0.20444,0.126522 0.07698,0 0.141095,-0.03883 0.192355,-0.115893 0.05109,-0.07715 0.07698,-0.204098 0.07698,-0.379995 0,-0.164839 -0.02666,-0.286818 -0.07946,-0.366451 -0.0528,-0.07963 -0.118207,-0.119407 -0.195955,-0.119407 -0.081,0 -0.148381,0.03875 -0.202041,0.117436 -0.05358,0.07809 -0.08023,0.193983 -0.08023,0.347679 z m 1.14556,-0.757504 0.332249,0 0,0.574064 0.474544,0 0,-0.574064 0.333449,0 0,1.56798 -0.333449,0 0,-0.658755 -0.474544,0 0,0.658755 -0.332249,0 0,-1.56798 z m 1.39749,0.761618 c 0,-0.137666 0.02743,-0.271217 0.08143,-0.400225 0.05443,-0.128494 0.131494,-0.227328 0.231014,-0.294875 0.09961,-0.06798 0.21087,-0.102263 0.333878,-0.102263 0.189526,0 0.345107,0.07706 0.466486,0.231357 0.121379,0.15421 0.181897,0.348707 0.181897,0.584093 0,0.236929 -0.06129,0.433484 -0.183526,0.589665 -0.122579,0.156267 -0.276531,0.233929 -0.462371,0.233929 -0.115379,0 -0.224585,-0.03232 -0.329077,-0.09729 -0.104406,-0.06506 -0.183868,-0.160296 -0.2383,-0.285789 -0.054,-0.125493 -0.08143,-0.278246 -0.08143,-0.4586 z m 0.340307,0.02212 c 0,0.155752 0.0294,0.274731 0.08872,0.357365 0.05889,0.08263 0.131837,0.12395 0.218499,0.12395 0.08666,0 0.159267,-0.04132 0.217728,-0.12395 0.05889,-0.08263 0.08838,-0.202641 0.08838,-0.360365 0,-0.153181 -0.02949,-0.271645 -0.08838,-0.354279 -0.05846,-0.08272 -0.131065,-0.124036 -0.217728,-0.124036 -0.08666,0 -0.15961,0.04132 -0.218499,0.124036 -0.05932,0.08263 -0.08872,0.202041 -0.08872,0.357279 z m 1.2011,-0.783734 1.1141,0 0,1.56798 -0.33182,0 0,-1.23282 -0.450028,0 0,1.23282 -0.332249,0 0,-1.56798 z m 1.47455,-0.21267 0,-0.384024 0.33182,0 0,0.384024 -0.33182,0 z m 0,1.78065 0,-1.56798 0.33182,0 0,1.56798 -0.33182,0 z m 0.761618,-1.56798 1.11161,0 0,1.56798 -0.33062,0 0,-1.23128 -0.452428,0 0,0.704101 c 0,0.179411 -0.01654,0.304905 -0.04955,0.377509 -0.03309,0.07209 -0.06978,0.119407 -0.110064,0.142123 -0.03994,0.02263 -0.104492,0.03429 -0.193555,0.03429 -0.0528,0 -0.122579,-0.0091 -0.209241,-0.02674 l 0,-0.305419 c 0.0072,0 0.0258,5.14e-4 0.05563,0.0025 0.03463,0.0031 0.06129,0.0045 0.08023,0.0045 0.04474,0 0.0726,-0.01809 0.08263,-0.05546 0.01054,-0.03677 0.01534,-0.139551 0.01534,-0.307905 l 0,-0.906227 z m 1.45432,0 0.33182,0 0,0.651212 0.333535,0 c 0.130637,0 0.231014,0.01157 0.301133,0.03523 0.0702,0.02374 0.128151,0.07466 0.174611,0.152752 0.0468,0.07809 0.06978,0.169382 0.06978,0.272674 0,0.151209 -0.04157,0.265559 -0.124636,0.341678 -0.08306,0.07612 -0.207613,0.114436 -0.373823,0.114436 l -0.712415,0 0,-1.56798 z m 0.33182,1.30542 0.309705,0 c 0.09678,0 0.158838,-0.02014 0.18584,-0.05949 0.02743,-0.03934 0.04115,-0.08623 0.04115,-0.140151 0,-0.0756 -0.02383,-0.127979 -0.07055,-0.156695 -0.0468,-0.0282 -0.129865,-0.04286 -0.249615,-0.04286 l -0.216528,0 0,0.399196 z"
   id="path42"
   style="fill:#2b2a29;fill-rule:nonzero" />
 </g>
</svg>