<?xml version="1.0" encoding="UTF-8" standalone="no"?>
<!-- Created with Inkscape (http://www.inkscape.org/) -->

<svg
   xmlns:svg="http://www.w3.org/2000/svg"
   xmlns="http://www.w3.org/2000/svg"
   version="1.1"
   width="64.970703mm"
   height="67.115898mm"
   viewBox="0 0 65.496 67.6586"
   id="svg2"
   xml:space="preserve"
   style="fill-rule:evenodd">
 <defs
   id="defs4">
  <style
   type="text/css"
   id="style6" />
 </defs>
 <g
   id="Layer_x0020_1">
  
  <path
   d="m 35.8775,67.4533 1.36505,0.205246 0.746689,-1.44197 0,-1.62292 1.88068,0 0.618158,-0.128531 -0.464022,-1.2096 0.875522,-0.902539 2.65288,2.78211 1.82826,0.153834 1.08188,2.08654 1.75195,-0.258372 0.617049,0.464324 0.747596,-0.876228 2.08583,-0.153431 0.335491,1.10678 1.9826,-0.28307 1.08208,-1.15889 1.41696,1.08218 0.74689,-0.181657 0,-1.82816 -0.87653,-1.03006 0.541241,-0.618561 0.463618,0.490434 1.90599,-0.825924 0.206053,-1.87847 -1.03006,-1.44267 2.11154,-3.01266 0.875119,-0.618561 -0.07662,-0.747697 1.23622,-0.720277 1.08147,0.180346 1.82897,-1.67413 -0.695276,-0.489123 0.695276,-1.49308 -0.155547,-1.21222 -1.2097,-0.205246 0.128531,-0.747395 0.953345,-0.257465 -0.07692,-0.489325 -0.798404,-0.334281 -0.489728,-1.88028 -2.00861,-1.23622 0,-0.953145 1.00476,-0.129136 -0.747495,-0.95254 -2.57556,-0.334987 -1.00446,-4.45523 0.33539,-1.23601 -0.747697,-0.335995 -0.874917,0.747395 -0.87653,-0.617856 -0.153834,-1.21051 1.44227,-0.82411 -0.07833,-1.46807 -1.08047,0 -0.283474,-1.77685 0.746689,-0.205952 0.206053,-1.08218 0.74689,0.07712 0.07672,-0.66947 1.08208,-0.206254 0,-0.412609 -0.489224,-0.205448 -0.20575,-1.75175 -0.593359,-0.28307 0,-0.747294 1.21121,-0.411198 0,-1.08147 -0.617856,0.154338 -0.46382,0.463618 -1.36555,-0.412408 -0.180246,-1.49408 -0.07661,-0.7979 -1.62302,-0.128833 -0.540636,-1.90649 -0.876228,-0.489022 0.129035,-1.26172 1.49388,-0.07742 0.386601,-1.36485 -0.592653,-1.41676 0.412307,-0.617856 -1.02996,-1.41646 -0.952741,-1.88058 1.02976,-1.10748 -0.979053,-1.1080905 -0.514829,0.181254 -1.41646,-0.82411 -0.823707,1.2874305 -1.90599,-0.07742 -0.335289,1.44247 -0.592149,0.540737 -0.61836,-0.952842 -1.5457,0.541241 -4.35231,-0.283877 -0.540334,-1.00425 1.28763,-0.8758255 -1.5459,-1.62292 1.13309,-2.18896 -0.874816,-0.540636 -0.05172,-1.41676 0.592049,-0.334382 c 0,0 -0.798605,-0.74689 -0.746689,-1.54529 0.07732,-0.824009 -0.463618,-1.03067 -0.463618,-1.03067 l -0.747193,0 -0.07732,-0.875724 -0.669873,-0.0769169 -0.282869,0.694974 c 0,0 0,0 -0.669268,0.0519164 -0.66957,0.0766145 0,0.876026 0,0.876026 l -1.49408,-0.129539 -0.12843,0.077522 -0.618561,1.69993 -1.13369,-0.077421 -0.745681,-0.952439 -0.876228,0.334584 -0.695982,1.36475 -0.463316,0.128833 -1.41656,-1.69953 -0.747193,0.489526 -0.617856,-0.695781 -0.746487,-0.051412 -0.541342,1.49368 -3.73385,-1.49368 -0.464022,0.7979 -2.11174,0.360995 -0.66957,0.592149 -3.65723,0.07732 0.07692,-0.411702 -1.41676,-0.257767 c 0,0 -0.205952,0.128733 -0.901934,0.66947 -0.669066,0.541241 -1.46737,0.128833 -1.46737,0.128833 l -0.282869,0.617956 0.0251,-0.051311 0.64457,0.463921 -0.129741,0.72068 0.129741,0.077421 -1.49408,0 -0.257163,0.824412 1.41626,1.33954 -0.334684,0.952842 -0.412912,-0.335289 -0.746689,0.746991 0.283373,0.541241 -0.617956,1.21031 0,0.87522 -0.798404,0.540535 -0.07692,0.953246 1.15849,-0.05161 0,0.593561 -1.03006,1.36394 0.206658,0.335188 0.617654,-0.129438 0.411904,0.541241 0.669974,-0.12843 0.952741,0.335088 -1.44227,1.87978 0.361197,1.36505 0.746084,0.617956 c 0,0 -0.07742,0.747294 -0.489425,0.875421 -0.411904,0.129035 0.334785,1.75195 0.334785,1.75195 l -0.463114,0.489123 0.128329,0.746286 0.617956,-0.07692 0.669772,1.21111 -0.798303,0.282667 -0.412004,-0.540535 -1.36505,0.463215 0.205952,0.876228 c 0,0 -1.4938804,0.540233 -1.7514504,0.206153 l -1.08147,0.128833 -0.411904,-0.927842 -1.5715,-0.07722 0,1.28773 -0.669369,0.206355 -0.463518,-0.489022 -0.952741,0.282667 -0.747596,0.618259 0.129337,1.54509 -1.00466,0.129136 -1.28743,1.44257 -0.61836,1.2099 0.334987,1.08218 -0.747092,0.669268 -0.0519164,2.3694 0.593057,0.747395 0.489325,3.19372 -1.03046,1.28773 0.412105,1.00405 -0.61836,1.44287 -0.180447,1.77655 0.670276,0.308575 0.798303,1.16 0.412105,1.00315 0.205347,1.03097 -0.077119,1.00486 0.155447,0.823606 0.540233,0.334785 -0.257163,0.282566 0.179842,-0.07641 2.16355,-0.154035 0.334785,0.952641 0.618158,0.61836 3.78617,0.07742 1.4935803,0.87522 1.41606,1.87958 2.57586,1.49439 1.23611,0.617856 c 0,0 0.464324,2.47263 0.464324,2.55005 0,0.05212 0.92643,0.206658 1.1844,-0.412609 0.102421,-0.256659 0.540939,-0.179842 0.566846,-0.179842 0.07712,0 1.15869,1.88099 1.23632,1.88099 l 3.24483,-0.413013 0.541039,0.875522 -1.1593,1.77675 0.695478,0.926935 1.41666,-1.33813 0.875321,0.205952 0.412307,2.16365 0.618259,1.00446 0.669671,-0.669671 1.08168,-1.9573 1.15889,-0.129539 1.28793,0.720579 1.33904,0 1.15869,0.748806 2.7051,0.617452 0.12843,1.36525 z"
   id="path10"
   style="fill:#ffdf49" />
  <g
   id="_309775160">
   <path
   d="m 18.8841,31.756 c 0.47501,0 0.87028,-0.376318 0.87028,-0.851429 0,-0.474506 -0.39527,-0.851026 -0.87028,-0.851026 -0.454848,0 -0.830562,0.37652 -0.830562,0.851026 0,0.475111 0.375713,0.851429 0.830562,0.851429 z"
   id="_309775256"
   style="fill:#fefefe;stroke:#2b2a29;stroke-width:0.119458" />
   <path
   d="m 18.8957,31.1081 c 0.110083,0 0.203129,-0.09305 0.203129,-0.203532 0,-0.109478 -0.09305,-0.202625 -0.203129,-0.202625 -0.102119,0 -0.18579,0.09315 -0.18579,0.202625 0,0.110486 0.08367,0.203532 0.18579,0.203532 z"
   id="_309775208"
   style="fill:#2b2a29;stroke:#2b2a29;stroke-width:0.0768161" />
  </g>
  <g
   id="_309774992">
   <path
   d="m 10.7728,53.4899 c 0.475111,0 0.870078,-0.376117 0.870078,-0.851026 0,-0.474506 -0.394968,-0.850723 -0.870078,-0.850723 -0.454848,0 -0.830965,0.376217 -0.830965,0.850723 0,0.474909 0.376117,0.851026 0.830965,0.851026 z"
   id="_309775088"
   style="fill:#fefefe;stroke:#2b2a29;stroke-width:0.119458" />
   <path
   d="m 10.7844,52.8422 c 0.109377,0 0.203028,-0.09315 0.203028,-0.203331 0,-0.10978 -0.09365,-0.202827 -0.203028,-0.202827 -0.102119,0 -0.18579,0.09305 -0.18579,0.202827 0,0.110184 0.08367,0.203331 0.18579,0.203331 z"
   id="_309775040"
   style="fill:#2b2a29;stroke:#2b2a29;stroke-width:0.0768161" />
  </g>
  <path
   d="m 10.0102,32.3024 0,0.668865 c 0.0992,0 0.167443,-0.01815 0.20444,-0.05474 0.0374,-0.03629 0.08468,-0.121978 0.142241,-0.256759 0.04234,-0.0999 0.07722,-0.170669 0.104942,-0.212 0.02732,-0.04123 0.06653,-0.07601 0.116938,-0.104135 0.05091,-0.02813 0.106353,-0.04234 0.166838,-0.04234 0.06583,0 0.107059,7.06e-4 0.123087,0.0021 l 0,0.175004 c -0.0065,0 -0.01966,-4.03e-4 -0.03992,-0.0011 -0.02198,-7.05e-4 -0.03548,-0.001 -0.04053,-0.001 -0.06472,0 -0.112301,0.01563 -0.143652,0.04688 -0.03196,0.03135 -0.06865,0.09819 -0.109478,0.200206 -0.04446,0.110285 -0.08286,0.185689 -0.115627,0.225509 -0.03266,0.03982 -0.08004,0.07329 -0.141838,0.0996 0.100204,0.02772 0.19698,0.118752 0.290833,0.272687 l 0.314724,0.508579 -0.250308,0 -0.255046,-0.414626 c -0.06825,-0.109881 -0.125507,-0.187101 -0.17208,-0.232263 -0.04657,-0.04516 -0.111696,-0.06794 -0.195569,-0.06794 l 0,0.714833 -0.2073632,0 0,-0.714833 c -0.066836,0 -0.12591,0.01784 -0.176717,0.05262 -0.051211,0.03528 -0.110587,0.110688 -0.178532,0.226618 l -0.012803,0.02097 -0.254945,0.414626 -0.251114,0 0.314422,-0.508579 c 0.09597,-0.15464 0.193048,-0.24567 0.291942,-0.272687 -0.055142,-0.02248 -0.100002,-0.05192 -0.134479,-0.08932 -0.034779,-0.037 -0.07611,-0.115527 -0.124095,-0.235791 -0.043751,-0.109176 -0.08105,-0.177423 -0.112402,-0.205145 -0.031251,-0.02813 -0.077824,-0.04194 -0.139721,-0.04194 l -0.08105,0.0021 0,-0.175004 c 0.00746,-0.0014 0.04617,-0.0021 0.116635,-0.0021 0.066433,0 0.124398,0.01391 0.173189,0.04123 0.049094,0.02742 0.087502,0.0619 0.115224,0.103127 0.027722,0.04133 0.06361,0.112805 0.107361,0.214117 0.058368,0.136898 0.105647,0.222585 0.142241,0.257465 0.036291,0.03448 0.104538,0.05262 0.204843,0.05403 l 0,-0.668865 0.207363,0 z m 1.02694,0.420976 0.291639,0 0.290933,0.885502 0.32289,-0.885502 0.269864,0 0,1.10637 -0.187403,0 0,-0.890845 -0.327124,0.890845 -0.167846,0 -0.309381,-0.933487 0,0.933487 -0.183572,0 0,-1.10637 z m 2.2191,0.750016 0.193855,0.02389 c -0.03055,0.11341 -0.0871,0.201214 -0.169661,0.263816 -0.08286,0.0623 -0.188411,0.09355 -0.316841,0.09355 -0.161798,0 -0.290127,-0.0498 -0.384786,-0.149398 -0.09496,-0.0995 -0.142241,-0.239319 -0.142241,-0.419263 0,-0.186294 0.04799,-0.330753 0.143652,-0.433477 0.09607,-0.102825 0.220166,-0.154338 0.373092,-0.154338 0.147886,0 0.268856,0.05051 0.362306,0.151112 0.09395,0.100708 0.14083,0.242545 0.14083,0.425009 0,0.01139 -3.02e-4,0.02802 -0.001,0.0501 l -0.825017,0 c 0.0068,0.121676 0.04123,0.214823 0.103127,0.279139 0.0619,0.06472 0.138612,0.09708 0.231154,0.09708 0.06865,0 0.127321,-0.01804 0.176012,-0.05434 0.04869,-0.03599 0.0871,-0.09355 0.115527,-0.172887 z m -0.615537,-0.303333 0.617755,0 c -0.0083,-0.09285 -0.03206,-0.162806 -0.07077,-0.209077 -0.05978,-0.07218 -0.137301,-0.10847 -0.232263,-0.10847 -0.08609,0 -0.158572,0.02883 -0.217242,0.08639 -0.05877,0.05766 -0.09113,0.134781 -0.09748,0.231154 z m 1.04518,1.08359 0,-1.53027 0.170669,0 0,0.143753 c 0.04022,-0.05625 0.08569,-0.09859 0.136596,-0.126616 0.05051,-0.02813 0.111998,-0.04234 0.184177,-0.04234 0.09466,0 0.177826,0.0245 0.250005,0.07289 0.07258,0.04869 0.127019,0.117341 0.163612,0.205952 0.037,0.08851 0.05545,0.185589 0.05545,0.291236 0,0.113107 -0.02026,0.215125 -0.06119,0.305853 -0.04053,0.09063 -0.0995,0.159983 -0.17702,0.208371 -0.07752,0.04798 -0.158975,0.07218 -0.24436,0.07218 -0.0626,0 -0.11845,-0.01321 -0.168149,-0.03952 -0.0498,-0.02631 -0.09032,-0.05968 -0.122382,-0.0999 l 0,0.538418 -0.187403,0 z m 0.169661,-0.970887 c 0,0.142342 0.02873,0.247586 0.08639,0.315833 0.05756,0.06794 0.127624,0.102018 0.20948,0.102018 0.08317,0 0.15464,-0.03518 0.214017,-0.10595 0.05938,-0.07036 0.08932,-0.17954 0.08932,-0.327527 0,-0.141132 -0.02913,-0.246376 -0.0872,-0.316841 -0.05797,-0.07006 -0.12722,-0.105244 -0.207666,-0.105244 -0.07994,0 -0.150709,0.0373 -0.212303,0.111998 -0.06149,0.0747 -0.09204,0.183472 -0.09204,0.325712 z m 1.01706,-0.559387 0.187403,0 0,0.843969 0.51987,-0.843969 0.20202,0 0,1.10637 -0.187403,0 0,-0.838525 -0.51987,0.838525 -0.20202,0 0,-1.10637 z m 1.19277,0 0.187806,0 0,0.460594 0.51987,0 0,-0.460594 0.187403,0 0,1.10637 -0.187403,0 0,-0.490736 -0.51987,0 0,0.490736 -0.187806,0 0,-1.10637 z m 1.17633,0 0.187403,0 0,0.478034 c 0.05978,0 0.101716,-0.01139 0.125607,-0.03417 0.02379,-0.02308 0.05897,-0.08962 0.105547,-0.200206 0.037,-0.0875 0.06694,-0.145063 0.08962,-0.172887 0.02319,-0.02772 0.0495,-0.04657 0.07934,-0.05615 0.02984,-0.01 0.07793,-0.01462 0.143652,-0.01462 l 0.0377,0 0,0.155044 -0.05222,-0.001 c -0.04909,0 -0.08075,0.0075 -0.09466,0.02208 -0.01452,0.01522 -0.037,0.06079 -0.06684,0.136495 -0.02843,0.07218 -0.05444,0.121978 -0.07823,0.149701 -0.02349,0.02813 -0.06008,0.05343 -0.109176,0.07611 0.08034,0.02177 0.159681,0.09678 0.237505,0.225105 l 0.205246,0.34285 -0.206254,0 -0.200206,-0.34285 c -0.04093,-0.06865 -0.07682,-0.114115 -0.107059,-0.135789 -0.03055,-0.02208 -0.06724,-0.03276 -0.109579,-0.03276 l 0,0.511402 -0.187403,0 0,-1.10637 z m 1.70346,0.969778 c -0.06966,0.05907 -0.136596,0.100708 -0.200508,0.125204 -0.06442,0.02419 -0.13337,0.03629 -0.207061,0.03629 -0.121575,0 -0.214722,-0.02954 -0.280147,-0.08891 -0.06512,-0.05938 -0.09778,-0.135487 -0.09778,-0.227626 0,-0.05434 0.012,-0.103833 0.0369,-0.148592 0.0246,-0.04486 0.05696,-0.08075 0.09678,-0.107764 0.04022,-0.02702 0.08498,-0.04768 0.135083,-0.06149 0.03669,-0.0097 0.09214,-0.01926 0.166435,-0.02813 0.151515,-0.01815 0.263211,-0.03952 0.334684,-0.06472 7.05e-4,-0.0256 0.001,-0.04194 0.001,-0.04869 0,-0.07651 -0.01774,-0.130547 -0.05333,-0.161495 -0.04758,-0.04264 -0.119055,-0.06361 -0.213311,-0.06361 -0.08821,0 -0.15333,0.01522 -0.195569,0.04617 -0.04204,0.03095 -0.07298,0.08569 -0.09325,0.164318 l -0.183068,-0.0253 c 0.01663,-0.07823 0.04405,-0.141838 0.08206,-0.189822 0.03811,-0.04839 0.09355,-0.08569 0.165729,-0.111696 0.07218,-0.02601 0.155749,-0.03911 0.251114,-0.03911 0.09456,0 0.171072,0.01139 0.230045,0.03347 0.05907,0.02238 0.102421,0.0501 0.130547,0.08387 0.02772,0.03377 0.04698,0.07611 0.05827,0.127724 0.006,0.03196 0.0093,0.08952 0.0093,0.172786 l 0,0.250005 c 0,0.1746 0.0039,0.284885 0.0121,0.330753 0.0079,0.04617 0.02379,0.09063 0.04728,0.132966 l -0.195871,0 c -0.01925,-0.03881 -0.03206,-0.08428 -0.0374,-0.136596 z m -0.01563,-0.418859 c -0.06825,0.02802 -0.170366,0.05151 -0.306156,0.07107 -0.07722,0.01109 -0.131958,0.02349 -0.163612,0.0374 -0.03206,0.01381 -0.05696,0.03407 -0.07399,0.06109 -0.01744,0.02671 -0.02631,0.05625 -0.02631,0.08891 0,0.0502 0.01925,0.09184 0.05686,0.125204 0.0377,0.03306 0.09325,0.0498 0.166132,0.0498 0.07218,0 0.136596,-0.01563 0.192746,-0.04728 0.05615,-0.03165 0.09778,-0.0751 0.124095,-0.129841 0.02026,-0.04234 0.03024,-0.104841 0.03024,-0.187403 l 0,-0.06895 z"
   id="path18"
   style="fill:#2b2a29;fill-rule:nonzero" />
  <path
   d="m 13.0381,51.5309 0,-1.52735 0.304341,0 0.361399,1.08137 c 0.03337,0.100708 0.05797,0.176113 0.07289,0.226214 0.01744,-0.05545 0.04446,-0.137301 0.08145,-0.245066 l 0.365532,-1.06252 0.272082,0 0,1.52735 -0.194863,0 0,-1.27845 -0.44386,1.27845 -0.182463,0 -0.441642,-1.30013 0,1.30013 -0.194863,0 z m 1.71364,-0.553338 c 0,-0.204843 0.05686,-0.356661 0.171072,-0.455151 0.09496,-0.08186 0.210891,-0.123087 0.347789,-0.123087 0.152221,0 0.276619,0.0498 0.372992,0.149701 0.09678,0.0996 0.144761,0.237202 0.144761,0.412912 0,0.142543 -0.02137,0.254642 -0.06401,0.335995 -0.04264,0.08186 -0.104841,0.145164 -0.186294,0.190327 -0.08186,0.04516 -0.17077,0.06754 -0.267445,0.06754 -0.154741,0 -0.279845,-0.0494 -0.375512,-0.148995 -0.09567,-0.0992 -0.14335,-0.242142 -0.14335,-0.429243 z m 0.192746,0 c 0,0.141838 0.03095,0.247888 0.09285,0.318253 0.0619,0.07077 0.139721,0.10595 0.233271,0.10595 0.09315,0 0.170669,-0.03548 0.232565,-0.106252 0.06149,-0.07077 0.09244,-0.178935 0.09244,-0.323999 0,-0.136898 -0.03095,-0.240731 -0.09315,-0.311196 -0.0622,-0.07036 -0.139418,-0.105547 -0.23186,-0.105547 -0.09355,0 -0.171375,0.03518 -0.233271,0.105244 -0.0619,0.07006 -0.09285,0.176012 -0.09285,0.317547 z m 1.06474,-0.553036 0.636606,0 0,0.155044 -0.4488,0 0,0.95133 -0.187806,0 0,-1.10637 z m 0.777435,0 0.187403,0 0,0.843969 0.51987,-0.843969 0.20202,0 0,1.10637 -0.187403,0 0,-0.838525 -0.51987,0.838525 -0.20202,0 0,-1.10637 z m 1.28349,0 0.871187,0 0,1.10637 -0.186697,0 0,-0.95133 -0.496784,0 0,0.551221 c 0,0.12843 -0.0042,0.213412 -0.0124,0.25434 -0.0086,0.04083 -0.03135,0.07682 -0.06905,0.107361 -0.0373,0.03054 -0.09174,0.04587 -0.162503,0.04587 -0.04375,0 -0.09426,-0.0028 -0.151112,-0.0086 l 0,-0.156052 0.08246,0 c 0.03881,0 0.06653,-0.0043 0.08327,-0.0121 0.01673,-0.0082 0.02772,-0.02067 0.03337,-0.03811 0.0057,-0.01734 0.0083,-0.07389 0.0083,-0.169963 l 0,-0.729047 z m 1.15426,-0.205145 0,-0.215831 0.187806,0 0,0.215831 -0.187806,0 z m 0,1.31152 0,-1.10637 0.187806,0 0,1.10637 -0.187806,0 z m 0.474002,-1.10637 0.432469,0 c 0.106252,0 0.185286,0.009 0.237202,0.02631 0.05151,0.01784 0.09597,0.0502 0.133269,0.09748 0.037,0.04728 0.05585,0.103833 0.05585,0.169963 0,0.05262 -0.01099,0.09889 -0.03307,0.138007 -0.02167,0.03911 -0.05474,0.07218 -0.09849,0.09849 0.05232,0.01744 0.09537,0.0498 0.129841,0.09748 0.03448,0.04758 0.05151,0.103833 0.05151,0.169258 -0.0068,0.104942 -0.04446,0.182766 -0.112402,0.233271 -0.06825,0.05091 -0.167141,0.07611 -0.296881,0.07611 l -0.499305,0 0,-1.10637 z m 0.187806,0.465534 0.199803,0 c 0.08004,0 0.134781,-0.0039 0.16462,-0.0124 0.02994,-0.0082 0.05655,-0.0253 0.08045,-0.05051 0.02349,-0.0253 0.03518,-0.05585 0.03518,-0.09103 0,-0.05837 -0.02066,-0.0993 -0.0619,-0.121978 -0.04123,-0.02319 -0.111998,-0.03458 -0.2119,-0.03458 l -0.206254,0 0,0.31049 z m 0,0.486502 0.246779,0 c 0.106353,0 0.179238,-0.0121 0.218654,-0.037 0.03982,-0.0245 0.06048,-0.06724 0.0626,-0.127321 0,-0.03558 -0.01139,-0.06825 -0.03448,-0.09849 -0.02278,-0.03024 -0.05262,-0.0494 -0.08922,-0.05726 -0.037,-0.0082 -0.09607,-0.0121 -0.177524,-0.0121 l -0.226819,0 0,0.332164 z m 0.871893,-0.304039 0,-0.188512 0.576524,0 0,0.188512 -0.576524,0 z m -7.71155,1.31474 1.20134,0 0,1.52735 -0.203432,0 0,-1.3471 -0.795883,0 0,1.3471 -0.20202,0 0,-1.52735 z m 1.43783,0.974012 c 0,-0.204843 0.05686,-0.356661 0.171072,-0.455151 0.09496,-0.08186 0.210891,-0.123087 0.347789,-0.123087 0.152221,0 0.276619,0.0498 0.372992,0.149701 0.09678,0.0996 0.144761,0.237202 0.144761,0.412912 0,0.142543 -0.02137,0.254642 -0.06401,0.335995 -0.04264,0.08186 -0.104841,0.145164 -0.186294,0.190327 -0.08186,0.04516 -0.17077,0.06754 -0.267445,0.06754 -0.154741,0 -0.279845,-0.0494 -0.375512,-0.148995 -0.09567,-0.0992 -0.14335,-0.242142 -0.14335,-0.429243 z m 0.192746,0 c 0,0.141838 0.03095,0.247888 0.09285,0.318253 0.0619,0.07077 0.139721,0.10595 0.233271,0.10595 0.09315,0 0.170669,-0.03549 0.232565,-0.106252 0.06149,-0.07077 0.09244,-0.178935 0.09244,-0.323999 0,-0.136898 -0.03095,-0.240731 -0.09315,-0.311196 -0.0622,-0.07036 -0.139418,-0.105547 -0.23186,-0.105547 -0.09355,0 -0.171375,0.03518 -0.233271,0.105244 -0.0619,0.07006 -0.09285,0.176012 -0.09285,0.317547 z m 1.16494,-0.553036 0.770984,0 0,0.952036 0.119559,0 0,0.467953 -0.154035,0 0,-0.313615 -0.870885,0 0,0.313615 -0.154338,0 0,-0.467953 0.09889,0 c 0.131858,-0.179238 0.195165,-0.496482 0.189822,-0.952036 z m 0.156152,0.155044 c -0.01381,0.359181 -0.06936,0.624912 -0.166737,0.796992 l 0.594871,0 0,-0.796992 -0.428134,0 z m 0.941653,-0.360189 0,-0.215831 0.187806,0 0,0.215831 -0.187806,0 z m 0,1.31152 0,-1.10637 0.187806,0 0,1.10637 -0.187806,0 z m 0.564729,-1.10637 0.871187,0 0,1.10637 -0.186697,0 0,-0.95133 -0.496784,0 0,0.551221 c 0,0.12843 -0.0042,0.213412 -0.0124,0.25434 -0.0086,0.04083 -0.03135,0.07682 -0.06905,0.107361 -0.0373,0.03055 -0.09174,0.04587 -0.162503,0.04587 -0.04375,0 -0.09426,-0.0028 -0.151112,-0.0086 l 0,-0.156052 0.08246,0 c 0.03881,0 0.06653,-0.0043 0.08327,-0.0121 0.01673,-0.0082 0.02772,-0.02067 0.03337,-0.03811 0.0057,-0.01734 0.0083,-0.07389 0.0083,-0.169963 l 0,-0.729047 z m 1.15033,0 0.187403,0 0,0.432166 0.237606,0 c 0.155044,0 0.274199,0.03014 0.35777,0.09032 0.08387,0.06008 0.125507,0.142947 0.125507,0.248493 0,0.09214 -0.03488,0.171475 -0.104538,0.2369 -0.06976,0.06573 -0.181355,0.09849 -0.334987,0.09849 l -0.46876,0 0,-1.10637 z m 0.187403,0.952036 0.197081,0 c 0.118752,0 0.203331,-0.01462 0.254239,-0.04375 0.0505,-0.02913 0.07571,-0.0747 0.07571,-0.136192 0,-0.04799 -0.01845,-0.09073 -0.05615,-0.128329 -0.0373,-0.0374 -0.120567,-0.05625 -0.248896,-0.05625 l -0.22198,0 0,0.364524 z m 1.64933,-0.251114 0.184177,0.02419 c -0.01986,0.127019 -0.07147,0.226517 -0.15464,0.298393 -0.08286,0.07188 -0.184883,0.107764 -0.305853,0.107764 -0.151112,0 -0.27309,-0.0494 -0.364826,-0.148289 -0.09214,-0.09889 -0.13841,-0.240731 -0.13841,-0.425714 0,-0.119458 0.01996,-0.223997 0.05948,-0.313615 0.03982,-0.08962 0.0999,-0.156858 0.180951,-0.201617 0.08075,-0.04486 0.168955,-0.06724 0.263917,-0.06724 0.120164,0 0.218654,0.03054 0.294764,0.09143 0.07651,0.06079 0.125507,0.146878 0.147281,0.258876 l -0.182463,0.02803 c -0.01744,-0.0743 -0.04799,-0.130144 -0.09214,-0.167846 -0.04405,-0.0373 -0.09738,-0.05615 -0.159983,-0.05615 -0.09466,0 -0.171475,0.03377 -0.230448,0.101716 -0.05907,0.06754 -0.08861,0.1746 -0.08861,0.321075 0,0.148693 0.02853,0.256759 0.08579,0.324402 0.05686,0.06714 0.131152,0.100909 0.222888,0.100909 0.07369,0 0.134781,-0.02268 0.184278,-0.06784 0.0494,-0.04516 0.08075,-0.114519 0.09385,-0.208472 z m 0.341741,-0.700922 0.187403,0 0,0.432166 0.237606,0 c 0.155044,0 0.274199,0.03014 0.35777,0.09032 0.08387,0.06008 0.125507,0.142947 0.125507,0.248493 0,0.09214 -0.03488,0.171475 -0.104538,0.2369 -0.06976,0.06573 -0.181355,0.09849 -0.334987,0.09849 l -0.46876,0 0,-1.10637 z m 0.187403,0.952036 0.197081,0 c 0.118752,0 0.203331,-0.01462 0.254239,-0.04375 0.05051,-0.02913 0.07571,-0.0747 0.07571,-0.136192 0,-0.04799 -0.01845,-0.09073 -0.05615,-0.128329 -0.0373,-0.0374 -0.120567,-0.05625 -0.248896,-0.05625 l -0.22198,0 0,0.364524 z m 0.92633,-0.952036 0.187403,0 0,0.478034 c 0.05978,0 0.101716,-0.01139 0.125607,-0.03417 0.02379,-0.02308 0.05897,-0.08962 0.105547,-0.200206 0.037,-0.0875 0.06694,-0.145063 0.08962,-0.172887 0.02319,-0.02772 0.0495,-0.04657 0.07934,-0.05615 0.02984,-0.01 0.07793,-0.01462 0.143652,-0.01462 l 0.0377,0 0,0.155044 -0.05222,-0.001 c -0.04909,0 -0.08075,0.0075 -0.09466,0.02208 -0.01452,0.01522 -0.037,0.06079 -0.06684,0.136495 -0.02843,0.07218 -0.05444,0.121978 -0.07823,0.149701 -0.02349,0.02813 -0.06008,0.05343 -0.109176,0.07611 0.08034,0.02177 0.159681,0.09678 0.237505,0.225105 l 0.205246,0.34285 -0.206254,0 -0.200206,-0.34285 c -0.04093,-0.06865 -0.07682,-0.114115 -0.107059,-0.135789 -0.03055,-0.02208 -0.06724,-0.03276 -0.109579,-0.03276 l 0,0.511402 -0.187403,0 0,-1.10637 z m 0.934596,0 0.187403,0 0,0.843969 0.51987,-0.843969 0.20202,0 0,1.10637 -0.187403,0 0,-0.838525 -0.51987,0.838525 -0.20202,0 0,-1.10637 z m 1.19206,0 0.187403,0 0,0.843969 0.51987,-0.843969 0.20202,0 0,1.10637 -0.187403,0 0,-0.838525 -0.51987,0.838525 -0.20202,0 0,-1.10637 z m 0.651122,-0.418859 0.128027,0 c -0.01028,0.0868 -0.04194,0.153632 -0.09526,0.199803 -0.05303,0.04667 -0.123793,0.07006 -0.212,0.07006 -0.08891,0 -0.159983,-0.02309 -0.213008,-0.06936 -0.05333,-0.04617 -0.08498,-0.113006 -0.09526,-0.200508 l 0.128027,0 c 0.0096,0.04728 0.02913,0.08246 0.05796,0.105647 0.02873,0.02339 0.06754,0.03478 0.11593,0.03478 0.05655,0 0.09879,-0.01099 0.127624,-0.03377 0.02883,-0.02238 0.04839,-0.05797 0.05796,-0.106655 z"
   id="path20"
   style="fill:#2b2a29;fill-rule:nonzero" />
  <g
   id="_309774656">
   <path
   d="m 27.3587,24.8857 c 0.619267,0 1.13621,-0.51614 1.13621,-1.13551 0,-0.620779 -0.516946,-1.11071 -1.13621,-1.11071 -0.594266,0 -1.11101,0.489929 -1.11101,1.11071 0,0.619368 0.516745,1.13551 1.11101,1.13551 z"
   id="_309774776"
   style="fill:#fefefe;stroke:#2b2a29;stroke-width:0.15595099" />
   <path
   d="m 27.3587,24.3696 c 0.335088,0 0.619267,-0.283776 0.619267,-0.619368 0,-0.336398 -0.284179,-0.594266 -0.619267,-0.594266 -0.335995,0 -0.594266,0.257868 -0.594266,0.594266 0,0.335592 0.258271,0.619368 0.594266,0.619368"
   id="_309774704"
   style="fill:none;stroke:#2b2a29;stroke-width:0.18720099" />
  </g>
  <path
   d="m 27.4699,26.1159 0.814231,0 c 0.161193,0 0.281558,0.0083 0.360794,0.0255 0.07914,0.01653 0.149801,0.05151 0.212404,0.104841 0.0626,0.05343 0.114317,0.123894 0.155951,0.212807 0.04183,0.08831 0.0627,0.187907 0.0627,0.297587 0,0.119156 -0.02571,0.228735 -0.07692,0.328333 -0.05161,0.0996 -0.121373,0.174298 -0.209077,0.224097 0.123793,0.04496 0.219561,0.122079 0.285994,0.230549 0.06684,0.109075 0.100002,0.237102 0.100002,0.384081 0,0.115527 -0.02127,0.22813 -0.06442,0.337809 -0.04315,0.109075 -0.102018,0.196778 -0.176516,0.262001 -0.0744,0.06522 -0.166334,0.105547 -0.275913,0.120869 -0.06825,0.009 -0.233775,0.01482 -0.495978,0.01724 l -0.69326,0 0,-2.54572 z m 0.411601,0.423799 0,0.58852 0.26926,0 c 0.160386,0 0.259884,-0.0029 0.298797,-0.0089 0.07016,-0.01008 0.125708,-0.04032 0.165931,-0.09063 0.04032,-0.0504 0.06018,-0.116837 0.06018,-0.199198 0,-0.07883 -0.01704,-0.142846 -0.05161,-0.19204 -0.03508,-0.0492 -0.0868,-0.07883 -0.155044,-0.08891 -0.04083,-0.0059 -0.157866,-0.0089 -0.351419,-0.0089 l -0.236094,0 z m 0,1.01232 0,0.680458 0.38025,0 c 0.148491,0 0.242344,-0.0047 0.282163,-0.01542 0.06119,-0.01361 0.110889,-0.04799 0.149398,-0.101313 0.03841,-0.05393 0.05776,-0.126313 0.05776,-0.216335 0,-0.07651 -0.01512,-0.141132 -0.04456,-0.19446 -0.02984,-0.05333 -0.07248,-0.09244 -0.12843,-0.116736 -0.05605,-0.02429 -0.177826,-0.03619 -0.364725,-0.03619 l -0.331862,0 z m 1.63925,-0.984496 0,-0.451622 0.39023,0 0,0.451622 -0.39023,0 z m 0,2.0941 0,-1.84399 0.39023,0 0,1.84399 -0.39023,0 z m 0.774714,-1.84399 0.390734,0 0,0.675115 0.558076,0 0,-0.675115 0.392246,0 0,1.84399 -0.392246,0 0,-0.774714 -0.558076,0 0,0.774714 -0.390734,0 0,-1.84399 z m 1.71848,0 0.390734,0 0,0.675115 0.558076,0 0,-0.675115 0.392145,0 0,1.84399 -0.392145,0 0,-0.774714 -0.558076,0 0,0.774714 -0.390734,0 0,-1.84399 z m 1.72413,0 0.375008,0 0,1.15819 0.600315,-1.15819 0.383173,0 0,1.84399 -0.375109,0 0,-1.17896 -0.60838,1.17896 -0.375008,0 0,-1.84399 z m 1.74449,0 0.390734,0 0,1.44983 0.556564,0 0,-1.44983 0.390734,0 0,1.44983 0.154136,0 0,0.880159 -0.315329,0 0,-0.485998 -1.17684,0 0,-1.84399 z m 3.02708,0 0,1.84399 -0.38781,0 0,-0.765842 -0.03609,0 c -0.08448,0 -0.146072,0.01371 -0.185387,0.04093 -0.03942,0.02732 -0.08296,0.08478 -0.131354,0.172483 l -0.02379,0.0368 -0.25686,0.515636 -0.454344,0 0.27934,-0.534588 c 0.07964,-0.152927 0.15212,-0.241235 0.216638,-0.264421 -0.108974,-0.0077 -0.197686,-0.05988 -0.266034,-0.155245 -0.06774,-0.09547 -0.101917,-0.217545 -0.101917,-0.365733 0,-0.119156 0.02228,-0.221073 0.06734,-0.305248 0.04506,-0.08478 0.104841,-0.142241 0.179238,-0.173088 0.0745,-0.03024 0.185387,-0.04567 0.33287,-0.04567 l 0.768161,0 z m -0.38781,0.31422 -0.27934,0 c -0.102421,0 -0.175004,0.01835 -0.216638,0.05454 -0.04133,0.0367 -0.0622,0.09718 -0.0622,0.181355 0,0.08468 0.02319,0.145164 0.07067,0.182564 0.04738,0.0367 0.1247,0.05565 0.23186,0.05565 l 0.25565,0 0,-0.474103 z"
   id="path25"
   style="fill:#2b2a29;fill-rule:nonzero" />
 </g>
</svg>