<?xml version="1.0" encoding="UTF-8" standalone="no"?>
<!-- Created with Inkscape (http://www.inkscape.org/) -->

<svg
   xmlns:svg="http://www.w3.org/2000/svg"
   xmlns="http://www.w3.org/2000/svg"
   version="1.1"
   width="56.513901mm"
   height="61.955399mm"
   viewBox="0 0 44.9398 49.2669"
   id="svg2"
   xml:space="preserve"
   style="fill-rule:evenodd">
 <defs
   id="defs4">
  <style
   type="text/css"
   id="style6" />
 </defs>
 <g
   id="Layer_x0020_1">
  
  <polygon
   points="37.5038,15.2982 37.4025,15.5213 37.4025,14.729 "
   id="polygon10"
   style="fill:#fefefe" />
  <polygon
   points="37.4222,1.23924 37.4025,1.23924 "
   id="polygon12"
   style="fill:#fefefe" />
  <polygon
   points="43.761,27.1427 42.3794,27.2646 42.4203,26.3505 42.1562,25.8625 42.6439,25.5379 43.8625,25.599 44.2898,24.8063 43.9847,23.526 43.2333,22.7745 42.4203,22.5514 42.3794,21.4335 41.202,19.8898 40.9371,18.9753 40.5103,18.4884 41.0993,17.2687 40.653,17.1671 39.9623,17.7362 39.6572,17.5331 39.4336,17.005 38.9056,17.005 38.6414,17.5331 37.9302,16.7408 37.4025,16.7408 37.4025,16.7208 37.1991,15.9891 37.4025,15.5213 37.4025,14.729 37.2395,13.9572 36.1224,13.7946 36.0206,13.3075 36.813,13.2668 36.3254,12.6162 37.1379,11.9255 35.6342,10.0973 35.6954,9.63019 36.1833,9.50844 36.3254,9.95527 36.9149,9.50844 37.4025,8.71531 38.5804,6.74496 37.9913,6.42005 38.0933,5.66842 37.7679,5.18065 38.1542,4.65287 38.0933,3.63693 38.7429,3.10844 39.0686,2.68165 37.9913,2.19388 37.4025,1.54348 37.1379,1.23924 35.107,1.34095 33.7659,1.23924 32.3234,0.711465 31.4292,0.22361 29.9261,0 26.025,1.40202 25.0701,0.853011 24.4809,1.50325 23.2418,0.974756 22.5511,1.40202 20.1536,0.75218 18.1218,0.650394 15.0135,0.487696 14.0585,1.50325 13.6324,3.10844 13.4698,4.81509 10.6256,5.93227 9.40586,7.21214 7.27274,8.61448 5.93195,8.06555 6.09481,7.00929 4.06331,6.7856 3.37244,6.1558 0.690393,6.62346 0.650235,7.375 1.38086,8.22809 1.0767,8.87825 1.54404,9.50844 1.54404,9.89404 0.853249,10.4222 0.589084,11.8241 1.27995,12.3526 1.54404,13.6931 0,15.2982 0.16238,17.005 1.44217,17.431 1.60487,18.7521 2.88467,20.6416 3.57554,20.8445 3.0476,22.5514 4.1651,23.9529 4.22514,25.599 4.9164,26.4521 5.07918,27.5696 5.60703,28.4836 6.25767,29.0726 7.43599,29.6008 7.43599,30.6781 6.52135,31.1042 5.18065,30.8402 4.00224,31.6327 4.71315,32.4855 4.71315,34.0909 5.60703,34.4158 5.66826,36.8744 6.72508,36.8131 8.55317,38.8042 9.93443,39.2715 10.3612,38.54 11.1735,38.3775 11.8036,38.9057 11.438,39.5557 12.5145,40.4499 14.0585,40.2873 14.5871,42.1565 15.074,41.6892 15.4404,41.8926 14.7494,44.2491 15.3386,44.4519 15.9276,44.3508 15.867,45.0008 17.106,45.5898 17.2685,46.8701 18.4266,47.4591 19.9914,47.297 20.519,46.3821 20.6207,47.4591 21.4748,47.337 21.535,46.118 22.0631,46.2196 22.7135,47.0729 23.4657,47.0729 23.8313,47.6621 23.3435,48.7797 24.1967,49.2669 24.156,49.166 24.2573,48.7797 24.5829,48.2107 25.436,48.0883 25.3345,46.7071 26.1877,47.0729 26.5529,46.7071 25.9234,45.7527 25.8018,44.7773 26.025,44.1473 26.1877,43.0097 26.0861,42.583 25.0086,42.2168 25.2734,41.4659 26.2896,41.3641 28.0974,42.055 28.8491,41.4659 28.8087,40.2465 28.9098,39.3938 29.499,40.0839 30.6167,39.9218 30.0273,38.845 30.7788,38.3169 32.1606,38.6415 33.7659,38.0936 34.5782,37.9913 34.8425,37.1382 35.6954,37.5246 36.4469,37.5246 37.0367,38.9669 37.4025,39.0077 38.0524,39.109 38.3163,40.5514 38.7838,40.5114 38.9056,39.0077 39.5961,38.8042 40.2873,36.4478 40.2262,35.3709 40.8151,34.4767 41.7908,34.5174 43.2738,34.7819 43.5582,33.9284 42.3794,33.1967 42.908,31.5919 42.5829,31.0029 44.2488,30.4132 44.2898,29.5601 44.9398,29.3979 44.8379,27.8946 "
   id="polygon14"
   style="fill:#ffdf49" />
  <polygon
   points="37.3819,1.23924 37.4025,1.23924 "
   id="polygon16"
   style="fill:#fefefe" />
  <g
   id="_386679096">
   <path
   d="m 18.8786,21.8702 c 0.374619,0 0.686655,-0.296769 0.686655,-0.671626 0,-0.374619 -0.312036,-0.671069 -0.686655,-0.671069 -0.358715,0 -0.655404,0.296451 -0.655404,0.671069 0,0.374857 0.296689,0.671626 0.655404,0.671626 z"
   id="_386679192"
   style="fill:#fefefe;stroke:#2b2a29;stroke-width:0.0942312" />
   <path
   d="m 18.8877,21.3588 c 0.087,0 0.160392,-0.073 0.160392,-0.160153 0,-0.08668 -0.0734,-0.160233 -0.160392,-0.160233 -0.08039,0 -0.146714,0.07356 -0.146714,0.160233 0,0.08715 0.06632,0.160153 0.146714,0.160153 z"
   id="_386679144"
   style="fill:#2b2a29;stroke:#2b2a29;stroke-width:0.0605942" />
  </g>
  <g
   id="_386678928">
   <path
   d="m 24.6207,10.8779 c 0.374778,0 0.686655,-0.296451 0.686655,-0.671467 0,-0.374221 -0.311877,-0.670751 -0.686655,-0.670751 -0.358397,0 -0.655006,0.29653 -0.655006,0.670751 0,0.375016 0.29661,0.671467 0.655006,0.671467 z"
   id="_386679024"
   style="fill:#fefefe;stroke:#2b2a29;stroke-width:0.0942312" />
   <path
   d="m 24.6296,10.3672 c 0.08739,0 0.160869,-0.07348 0.160869,-0.16071 0,-0.08644 -0.07348,-0.159994 -0.160869,-0.159994 -0.08008,0 -0.146555,0.07356 -0.146555,0.159994 0,0.08723 0.06648,0.16071 0.146555,0.16071 z"
   id="_386678976"
   style="fill:#2b2a29;stroke:#2b2a29;stroke-width:0.0605942" />
  </g>
  <g
   id="_387112432">
   <path
   d="m 10.2688,32.2025 c 0.375175,0 0.686814,-0.297246 0.686814,-0.672023 0,-0.374301 -0.311639,-0.67099 -0.686814,-0.67099 -0.358317,0 -0.655006,0.296689 -0.655006,0.67099 0,0.374778 0.296689,0.672023 0.655006,0.672023 z"
   id="_387112528"
   style="fill:#fefefe;stroke:#2b2a29;stroke-width:0.0942312" />
   <path
   d="m 10.2779,31.6912 c 0.08723,0 0.160471,-0.07332 0.160471,-0.16071 0,-0.08628 -0.07324,-0.159994 -0.160471,-0.159994 -0.08008,0 -0.146476,0.07371 -0.146476,0.159994 0,0.08739 0.0664,0.16071 0.146476,0.16071 z"
   id="_387112480"
   style="fill:#2b2a29;stroke:#2b2a29;stroke-width:0.0605942" />
  </g>
  <g
   id="_387112264">
   <path
   d="m 7.55853,36.143 c 0.375096,0 0.686973,-0.29653 0.686973,-0.671308 0,-0.374778 -0.311877,-0.671149 -0.686973,-0.671149 -0.358556,0 -0.654847,0.296371 -0.654847,0.671149 0,0.374778 0.296291,0.671308 0.654847,0.671308 z"
   id="_387112360"
   style="fill:#fefefe;stroke:#2b2a29;stroke-width:0.0942312" />
   <path
   d="m 7.5676,35.6324 c 0.087154,0 0.16071,-0.07371 0.16071,-0.16071 0,-0.08652 -0.073556,-0.159994 -0.16071,-0.159994 -0.080236,0 -0.146555,0.07348 -0.146555,0.159994 0,0.08699 0.06632,0.16071 0.146555,0.16071 z"
   id="_387112312"
   style="fill:#2b2a29;stroke:#2b2a29;stroke-width:0.0605942" />
  </g>
  <path
   d="m 19.4084,22.4368 0.159358,0 0,0.527615 c 0.07292,0 0.123972,-0.01399 0.153712,-0.0423 0.02942,-0.02839 0.06735,-0.09598 0.113316,-0.203412 0.0334,-0.0788 0.06091,-0.134627 0.08278,-0.167231 0.02155,-0.03252 0.0524,-0.05996 0.09224,-0.08214 0.04016,-0.02219 0.08421,-0.0334 0.132401,-0.0334 0.06147,0 0.09376,5.57e-4 0.09709,0.0017 l 0,0.138047 c -0.0056,0 -0.0163,-3.18e-4 -0.03229,-8.75e-4 -0.01733,-5.57e-4 -0.02799,-7.95e-4 -0.03197,-7.95e-4 -0.05105,0 -0.08867,0.01233 -0.113316,0.03698 -0.02521,0.02473 -0.05415,0.07745 -0.08644,0.157927 -0.0404,0.101865 -0.07459,0.166117 -0.10266,0.192756 -0.02799,0.0264 -0.06139,0.04771 -0.100116,0.06369 0.07769,0.02131 0.154269,0.09312 0.230051,0.215102 l 0.248261,0.401178 -0.198084,0 -0.201424,-0.327066 c -0.05527,-0.09033 -0.101786,-0.15236 -0.138842,-0.186315 -0.0373,-0.03364 -0.08556,-0.0505 -0.144726,-0.0505 l 0,0.563876 -0.159358,0 0,-1.20481 z m 0.903824,0.768322 c 0,-0.161585 0.04485,-0.281342 0.134945,-0.359033 0.07491,-0.06457 0.166356,-0.09709 0.274344,-0.09709 0.120075,0 0.218203,0.03928 0.294224,0.118087 0.07634,0.07857 0.114191,0.187111 0.114191,0.325714 0,0.112441 -0.01686,0.200867 -0.05049,0.26504 -0.03364,0.06457 -0.0827,0.114509 -0.146953,0.150134 -0.06457,0.03562 -0.134707,0.05328 -0.210967,0.05328 -0.122063,0 -0.220747,-0.03897 -0.296212,-0.117531 -0.07547,-0.07825 -0.113077,-0.191007 -0.113077,-0.338596 z m 0.152042,0 c 0,0.111885 0.02441,0.19554 0.07324,0.251045 0.04883,0.05582 0.110215,0.08358 0.184009,0.08358 0.07348,0 0.134627,-0.02799 0.183453,-0.08382 0.04851,-0.05582 0.07292,-0.141148 0.07292,-0.255577 0,-0.107988 -0.02441,-0.189894 -0.07348,-0.245478 -0.04906,-0.05551 -0.109976,-0.08326 -0.182896,-0.08326 -0.07379,0 -0.135184,0.02775 -0.184009,0.08302 -0.04882,0.05527 -0.07324,0.138842 -0.07324,0.250488 z m 0.83989,-0.436247 0.341141,0 c 0.08381,0 0.146158,0.0071 0.187111,0.02075 0.04063,0.01408 0.0757,0.0396 0.105125,0.0769 0.02918,0.03729 0.04405,0.0819 0.04405,0.13407 0,0.04151 -0.0087,0.07801 -0.02608,0.108863 -0.0171,0.03085 -0.04318,0.05694 -0.07769,0.07769 0.04127,0.01376 0.07522,0.03928 0.102422,0.0769 0.02719,0.03753 0.04063,0.08191 0.04063,0.133514 -0.0053,0.08278 -0.03507,0.14417 -0.08866,0.184009 -0.05383,0.04016 -0.131844,0.06004 -0.234186,0.06004 l -0.393862,0 0,-0.872732 z m 0.148146,0.367223 0.157609,0 c 0.06314,0 0.106318,-0.0031 0.129856,-0.0098 0.02362,-0.0064 0.04461,-0.01996 0.06346,-0.03984 0.01853,-0.01996 0.02775,-0.04406 0.02775,-0.07181 0,-0.04604 -0.0163,-0.07833 -0.04883,-0.09622 -0.03252,-0.01829 -0.08835,-0.02728 -0.167151,-0.02728 l -0.162698,0 0,0.244922 z m 0,0.383763 0.194665,0 c 0.08389,0 0.141387,-0.0095 0.172479,-0.02918 0.03141,-0.01932 0.04771,-0.05304 0.04938,-0.100434 0,-0.02807 -0.009,-0.05384 -0.0272,-0.07769 -0.01797,-0.02386 -0.04151,-0.03897 -0.07038,-0.04517 -0.02918,-0.0064 -0.07578,-0.0095 -0.140035,-0.0095 l -0.17892,0 0,0.262018 z m 1.32401,-0.159358 0.152917,0.01885 c -0.02409,0.08946 -0.0687,0.158722 -0.133832,0.208104 -0.06536,0.04914 -0.148623,0.0738 -0.249931,0.0738 -0.12763,0 -0.228859,-0.03928 -0.303528,-0.117849 -0.07491,-0.07849 -0.112203,-0.18878 -0.112203,-0.330724 0,-0.146953 0.03785,-0.260905 0.113316,-0.341936 0.07578,-0.08111 0.173672,-0.121745 0.294303,-0.121745 0.116656,0 0.21208,0.03984 0.285795,0.1192 0.07411,0.07944 0.111089,0.191325 0.111089,0.335256 0,0.009 -2.39e-4,0.02211 -7.95e-4,0.03952 l -0.650792,0 c 0.0053,0.09598 0.03252,0.169457 0.08135,0.220191 0.04883,0.05105 0.10934,0.07658 0.182339,0.07658 0.05415,0 0.100434,-0.01423 0.138842,-0.04286 0.03841,-0.02839 0.06871,-0.07379 0.09113,-0.136376 z m -0.485549,-0.239276 0.487298,0 c -0.0065,-0.07324 -0.02529,-0.128425 -0.05582,-0.164924 -0.04716,-0.05694 -0.108306,-0.08556 -0.183214,-0.08556 -0.06791,0 -0.125085,0.02274 -0.171366,0.06815 -0.04636,0.04549 -0.07189,0.106318 -0.0769,0.182339 z m 0.840765,-0.352353 0.687212,0 0,0.872732 -0.147271,0 0,-0.75043 -0.391874,0 0,0.434815 c 0,0.101308 -0.0033,0.168344 -0.0098,0.200629 -0.0068,0.03221 -0.02473,0.06059 -0.05447,0.08469 -0.02942,0.02409 -0.07236,0.03618 -0.128186,0.03618 -0.03451,0 -0.07435,-0.0022 -0.1192,-0.0068 l 0,-0.123097 0.06505,0 c 0.03062,0 0.05248,-0.0034 0.06568,-0.0095 0.0132,-0.0064 0.02187,-0.0163 0.02632,-0.03006 0.0045,-0.01368 0.0065,-0.05829 0.0065,-0.134071 l 0,-0.575089 z m 0.907403,0 0.147828,0 0,0.340902 0.187429,0 c 0.122302,0 0.216294,0.02378 0.282216,0.07125 0.06616,0.04739 0.099,0.112759 0.099,0.196017 0,0.07268 -0.02751,0.135263 -0.08246,0.186872 -0.05503,0.05185 -0.143056,0.07769 -0.264245,0.07769 l -0.369768,0 0,-0.872732 z m 0.147828,0.750987 0.155462,0 c 0.09368,0 0.160392,-0.01153 0.200549,-0.03451 0.03984,-0.02298 0.05972,-0.05892 0.05972,-0.107432 0,-0.03785 -0.01455,-0.07157 -0.04429,-0.101229 -0.02942,-0.0295 -0.09511,-0.04437 -0.196335,-0.04437 l -0.175103,0 0,0.287544 z"
   id="path30"
   style="fill:#2b2a29;fill-rule:nonzero" />
  <path
   d="m 17.1785,11.4226 0.159358,0 0,0.527615 c 0.07292,0 0.123972,-0.01399 0.153712,-0.04231 0.02942,-0.02839 0.06735,-0.09598 0.113316,-0.203412 0.0334,-0.0788 0.06091,-0.134627 0.08278,-0.167231 0.02155,-0.03252 0.0524,-0.05996 0.09224,-0.08214 0.04016,-0.02219 0.08421,-0.0334 0.132401,-0.0334 0.06147,0 0.09375,5.57e-4 0.09709,0.0017 l 0,0.138047 c -0.0056,0 -0.0163,-3.18e-4 -0.03229,-8.75e-4 -0.01733,-5.57e-4 -0.02799,-7.95e-4 -0.03197,-7.95e-4 -0.05105,0 -0.08866,0.01233 -0.113316,0.03698 -0.02521,0.02473 -0.05415,0.07745 -0.08644,0.157927 -0.0404,0.101865 -0.07459,0.166117 -0.10266,0.192756 -0.02799,0.0264 -0.06139,0.04771 -0.100116,0.0637 0.07769,0.02131 0.154269,0.09312 0.230051,0.215102 l 0.248261,0.401178 -0.198084,0 -0.201424,-0.327066 c -0.05527,-0.09033 -0.101786,-0.15236 -0.138842,-0.186315 -0.0373,-0.03364 -0.08556,-0.0505 -0.144726,-0.0505 l 0,0.563876 -0.159358,0 0,-1.20481 z m 1.52853,1.09706 c -0.05495,0.0466 -0.10775,0.07944 -0.158165,0.09876 -0.05081,0.01909 -0.105205,0.02863 -0.163334,0.02863 -0.0959,0 -0.169378,-0.0233 -0.220986,-0.07014 -0.05137,-0.04684 -0.07713,-0.106875 -0.07713,-0.179556 0,-0.04286 0.0095,-0.08191 0.0291,-0.117212 0.0194,-0.03539 0.04493,-0.0637 0.07634,-0.08501 0.03173,-0.02131 0.06704,-0.03761 0.106557,-0.04851 0.02895,-0.0076 0.07268,-0.01519 0.131287,-0.02219 0.119519,-0.01431 0.207627,-0.03117 0.264006,-0.05105 5.57e-4,-0.0202 7.95e-4,-0.03308 7.95e-4,-0.03841 0,-0.06035 -0.014,-0.102978 -0.04207,-0.127391 -0.03753,-0.03364 -0.09391,-0.05018 -0.168264,-0.05018 -0.06958,0 -0.12095,0.01201 -0.154269,0.03642 -0.03316,0.02441 -0.05757,0.06759 -0.07356,0.129618 l -0.144408,-0.01996 c 0.01312,-0.06171 0.03475,-0.111885 0.06473,-0.149736 0.03006,-0.03817 0.0738,-0.06759 0.130731,-0.08811 0.05694,-0.02052 0.122859,-0.03085 0.198085,-0.03085 0.07459,0 0.134944,0.009 0.181465,0.0264 0.0466,0.01765 0.08079,0.03952 0.102978,0.06616 0.02187,0.02664 0.03706,0.06004 0.04596,0.100752 0.0048,0.02521 0.0073,0.07061 0.0073,0.136297 l 0,0.19721 c 0,0.137729 0.0031,0.224723 0.0095,0.260905 0.0062,0.03642 0.01877,0.07149 0.0373,0.104887 l -0.154507,0 c -0.01519,-0.03062 -0.02529,-0.06648 -0.0295,-0.10775 z m -0.01233,-0.330406 c -0.05384,0.02211 -0.134389,0.04063 -0.241502,0.05606 -0.06091,0.0087 -0.104092,0.01853 -0.129061,0.0295 -0.02529,0.01089 -0.04493,0.02688 -0.05837,0.04819 -0.01376,0.02107 -0.02076,0.04437 -0.02076,0.07014 0,0.0396 0.01519,0.07244 0.04485,0.09876 0.02974,0.02608 0.07356,0.03928 0.131049,0.03928 0.05694,0 0.10775,-0.01233 0.152042,-0.0373 0.04429,-0.02497 0.07713,-0.05924 0.09789,-0.102422 0.01598,-0.0334 0.02386,-0.0827 0.02386,-0.147828 l 0,-0.05439 z m 0.382889,-0.434577 0.230051,0 0.229495,0.698504 0.254703,-0.698504 0.212875,0 0,0.872732 -0.147828,0 0,-0.702718 -0.258042,0.702718 -0.132401,0 -0.244047,-0.736355 0,0.736355 -0.144806,0 0,-0.872732 z m 1.15384,-0.161823 0,-0.170252 0.148146,0 0,0.170252 -0.148146,0 z m 0,1.03456 0,-0.872732 0.148146,0 0,0.872732 -0.148146,0 z m 0.373903,-0.872732 0.148146,0 0,0.363327 0.410085,0 0,-0.363327 0.147828,0 0,0.872732 -0.147828,0 0,-0.387103 -0.410085,0 0,0.387103 -0.148146,0 0,-0.872732 z m 0.926249,0 0.147828,0 0,0.340902 0.187429,0 c 0.122302,0 0.216294,0.02378 0.282216,0.07125 0.06616,0.04739 0.099,0.112759 0.099,0.196017 0,0.07268 -0.02751,0.135263 -0.08246,0.186872 -0.05503,0.05185 -0.143056,0.07769 -0.264245,0.07769 l -0.369768,0 0,-0.872732 z m 0.147828,0.750987 0.155462,0 c 0.09368,0 0.160392,-0.01153 0.200549,-0.03451 0.03984,-0.02298 0.05972,-0.05892 0.05972,-0.107432 0,-0.03785 -0.01455,-0.07157 -0.04429,-0.101229 -0.02942,-0.0295 -0.09511,-0.04437 -0.196335,-0.04437 l -0.175103,0 0,0.287544 z m 0.673773,-0.239832 0,-0.148702 0.454775,0 0,0.148702 -0.454775,0 z m 0.639579,-0.84323 0.159358,0 0,0.527615 c 0.07292,0 0.123972,-0.01399 0.153712,-0.04231 0.02942,-0.02839 0.06735,-0.09598 0.113316,-0.203412 0.0334,-0.0788 0.06091,-0.134627 0.08278,-0.167231 0.02155,-0.03252 0.0524,-0.05996 0.09224,-0.08214 0.04016,-0.02219 0.08421,-0.0334 0.132401,-0.0334 0.06147,0 0.09375,5.57e-4 0.09709,0.0017 l 0,0.138047 c -0.0056,0 -0.0163,-3.18e-4 -0.03229,-8.75e-4 -0.01734,-5.57e-4 -0.02799,-7.95e-4 -0.03197,-7.95e-4 -0.05105,0 -0.08866,0.01233 -0.113316,0.03698 -0.02521,0.02473 -0.05415,0.07745 -0.08644,0.157927 -0.0404,0.101865 -0.07459,0.166117 -0.10266,0.192756 -0.02799,0.0264 -0.06139,0.04771 -0.100116,0.0637 0.07769,0.02131 0.154269,0.09312 0.230051,0.215102 l 0.248261,0.401178 -0.198084,0 -0.201424,-0.327066 c -0.05527,-0.09033 -0.101786,-0.15236 -0.138842,-0.186315 -0.03729,-0.03364 -0.08556,-0.05049 -0.144726,-0.05049 l 0,0.563876 -0.159358,0 0,-1.20481 z m 1.52853,1.09706 c -0.05495,0.0466 -0.10775,0.07944 -0.158165,0.09876 -0.05081,0.01909 -0.105205,0.02863 -0.163334,0.02863 -0.0959,0 -0.169378,-0.0233 -0.220986,-0.07014 -0.05137,-0.04684 -0.07713,-0.106875 -0.07713,-0.179556 0,-0.04286 0.0095,-0.08191 0.0291,-0.117212 0.0194,-0.03539 0.04493,-0.0637 0.07634,-0.08501 0.03173,-0.02131 0.06704,-0.03761 0.106557,-0.04851 0.02895,-0.0076 0.07268,-0.01519 0.131287,-0.02219 0.119519,-0.01431 0.207627,-0.03117 0.264006,-0.05105 5.57e-4,-0.0202 7.96e-4,-0.03308 7.96e-4,-0.03841 0,-0.06035 -0.014,-0.102978 -0.04207,-0.127391 -0.03753,-0.03364 -0.09391,-0.05018 -0.168264,-0.05018 -0.06958,0 -0.12095,0.01201 -0.154269,0.03642 -0.03316,0.02441 -0.05757,0.06759 -0.07356,0.129618 l -0.144408,-0.01996 c 0.01312,-0.06171 0.03475,-0.111885 0.06473,-0.149736 0.03006,-0.03817 0.07379,-0.06759 0.130731,-0.08811 0.05694,-0.02052 0.122858,-0.03085 0.198084,-0.03085 0.07459,0 0.134945,0.009 0.181465,0.0264 0.0466,0.01765 0.08079,0.03952 0.102978,0.06616 0.02187,0.02664 0.03706,0.06004 0.04596,0.100752 0.0048,0.02521 0.0073,0.07061 0.0073,0.136297 l 0,0.19721 c 0,0.137729 0.0031,0.224723 0.0095,0.260905 0.0062,0.03642 0.01877,0.07149 0.0373,0.104887 l -0.154507,0 c -0.01519,-0.03062 -0.02529,-0.06648 -0.0295,-0.10775 z m -0.01232,-0.330406 c -0.05384,0.02211 -0.134389,0.04063 -0.241502,0.05606 -0.06091,0.0087 -0.104092,0.01853 -0.129061,0.0295 -0.02529,0.01089 -0.04493,0.02688 -0.05837,0.04819 -0.01376,0.02107 -0.02075,0.04437 -0.02075,0.07014 0,0.0396 0.01519,0.07244 0.04485,0.09876 0.02974,0.02608 0.07356,0.03928 0.131049,0.03928 0.05694,0 0.10775,-0.01233 0.152042,-0.0373 0.04429,-0.02497 0.07713,-0.05924 0.09789,-0.102422 0.01598,-0.0334 0.02386,-0.0827 0.02386,-0.147828 l 0,-0.05439 z m 0.383763,-0.434577 0.147828,0 0,0.750112 0.337165,0 0,-0.750112 0.147828,0 0,0.750112 0.337801,0 0,-0.750112 0.146953,0 0,0.872732 -1.11757,0 0,-0.872732 z m 1.3454,0 0.147828,0 0,0.665741 0.410085,-0.665741 0.159358,0 0,0.872732 -0.147828,0 0,-0.661447 -0.410085,0.661447 -0.159358,0 0,-0.872732 z m 0.940324,1.20711 0,-1.20711 0.134627,0 0,0.113396 c 0.03173,-0.04437 0.06759,-0.07777 0.10775,-0.09988 0.03984,-0.02219 0.08835,-0.0334 0.145283,-0.0334 0.07467,0 0.140273,0.01932 0.19721,0.05749 0.05725,0.03841 0.100195,0.09256 0.129061,0.162459 0.02918,0.06982 0.04374,0.146396 0.04374,0.229733 0,0.08922 -0.01598,0.169696 -0.04827,0.241264 -0.03197,0.07149 -0.07849,0.126198 -0.139637,0.164368 -0.06115,0.03785 -0.125403,0.05694 -0.192756,0.05694 -0.04938,0 -0.09344,-0.01042 -0.132639,-0.03117 -0.03928,-0.02075 -0.07125,-0.04708 -0.09654,-0.0788 l 0,0.424716 -0.147828,0 z m 0.133832,-0.765857 c 0,0.112282 0.02266,0.195301 0.06815,0.249136 0.04541,0.0536 0.100672,0.08047 0.165243,0.08047 0.0656,0 0.121984,-0.02775 0.168821,-0.08357 0.04684,-0.05551 0.07046,-0.141625 0.07046,-0.25836 0,-0.111328 -0.02298,-0.194347 -0.06879,-0.249931 -0.04572,-0.05527 -0.100354,-0.08302 -0.163811,-0.08302 -0.06306,0 -0.118882,0.02942 -0.167469,0.08835 -0.04851,0.05893 -0.0726,0.144726 -0.0726,0.256929 z m 1.37172,0.111646 0.145283,0.01909 c -0.01567,0.100195 -0.05638,0.178681 -0.121984,0.235379 -0.06537,0.0567 -0.14584,0.08501 -0.241264,0.08501 -0.1192,0 -0.21542,-0.03897 -0.287783,-0.116974 -0.07268,-0.07801 -0.109181,-0.189894 -0.109181,-0.335813 0,-0.09423 0.01574,-0.176693 0.04692,-0.247387 0.03141,-0.07069 0.0788,-0.123733 0.142738,-0.15904 0.06369,-0.03539 0.133275,-0.05304 0.208183,-0.05304 0.09479,0 0.172479,0.02409 0.232516,0.07212 0.06036,0.04795 0.099,0.115861 0.116179,0.204207 l -0.143931,0.02211 c -0.01376,-0.05861 -0.03785,-0.10266 -0.07268,-0.132401 -0.03475,-0.02942 -0.07682,-0.04429 -0.126198,-0.04429 -0.07467,0 -0.135263,0.02664 -0.181783,0.08024 -0.0466,0.05328 -0.0699,0.137729 -0.0699,0.253271 0,0.117292 0.0225,0.202537 0.06767,0.255895 0.04485,0.05296 0.103456,0.0796 0.175819,0.0796 0.05813,0 0.106318,-0.01789 0.145363,-0.05352 0.03896,-0.03562 0.0637,-0.09033 0.07403,-0.164447 z m 0.269573,-0.552902 0.147828,0 0,0.340902 0.187429,0 c 0.122302,0 0.216294,0.02378 0.282216,0.07125 0.06616,0.04739 0.099,0.112759 0.099,0.196017 0,0.07268 -0.02751,0.135263 -0.08246,0.186872 -0.05503,0.05185 -0.143056,0.07769 -0.264245,0.07769 l -0.369768,0 0,-0.872732 z m 0.147828,0.750987 0.155462,0 c 0.09367,0 0.160392,-0.01153 0.200549,-0.03451 0.03984,-0.02298 0.05972,-0.05892 0.05972,-0.107432 0,-0.03785 -0.01455,-0.07157 -0.04429,-0.101229 -0.02942,-0.0295 -0.09511,-0.04437 -0.196335,-0.04437 l -0.175103,0 0,0.287544 z m 0.730709,-0.750987 0.147828,0 0,0.377084 c 0.04716,0 0.08024,-0.009 0.09908,-0.02696 0.01877,-0.01821 0.04652,-0.07069 0.08326,-0.157927 0.02918,-0.06902 0.0528,-0.114429 0.07069,-0.136377 0.01829,-0.02187 0.03904,-0.03674 0.06258,-0.04429 0.02354,-0.0079 0.06147,-0.01153 0.113316,-0.01153 l 0.02974,0 0,0.122302 -0.04119,-7.96e-4 c -0.03873,0 -0.0637,0.0059 -0.07467,0.01741 -0.01145,0.01201 -0.02918,0.04795 -0.05272,0.10767 -0.02243,0.05694 -0.04294,0.09622 -0.06171,0.118087 -0.01853,0.02219 -0.04739,0.04215 -0.08612,0.06004 0.06338,0.01718 0.12596,0.07634 0.187349,0.177568 l 0.161903,0.270447 -0.162698,0 -0.157927,-0.270447 c -0.03229,-0.05415 -0.06059,-0.09002 -0.08445,-0.107113 -0.02409,-0.01742 -0.05304,-0.02584 -0.08644,-0.02584 l 0,0.403405 -0.147828,0 0,-0.872732 z m 0.73723,0 0.147828,0 0,0.665741 0.410085,-0.665741 0.159358,0 0,0.872732 -0.147828,0 0,-0.661447 -0.410085,0.661447 -0.159358,0 0,-0.872732 z m 0.940324,0 0.147828,0 0,0.665741 0.410085,-0.665741 0.159358,0 0,0.872732 -0.147828,0 0,-0.661447 -0.410085,0.661447 -0.159358,0 0,-0.872732 z m 0.51362,-0.330406 0.10099,0 c -0.0081,0.06847 -0.03308,0.121188 -0.07515,0.157609 -0.04183,0.03682 -0.09765,0.05527 -0.167231,0.05527 -0.07014,0 -0.126198,-0.01821 -0.168026,-0.05471 -0.04207,-0.03642 -0.06703,-0.08914 -0.07515,-0.158165 l 0.10099,0 c 0.0076,0.03729 0.02298,0.06505 0.04572,0.08334 0.02266,0.01845 0.05328,0.02743 0.09145,0.02743 0.04461,0 0.07793,-0.0087 0.100672,-0.02664 0.02274,-0.01765 0.03817,-0.04572 0.04572,-0.08413 z"
   id="path32"
   style="fill:#2b2a29;fill-rule:nonzero" />
  <path
   d="m 8.84286,28.5405 0,-1.20481 0.452151,0 c 0.092005,0 0.165799,0.01233 0.221384,0.03642 0.055823,0.02441 0.099241,0.06203 0.130651,0.112759 0.03149,0.0505 0.047473,0.103535 0.047473,0.159119 0,0.05129 -0.014075,0.0998 -0.042146,0.145283 -0.027753,0.04541 -0.070057,0.08222 -0.126437,0.110215 0.07292,0.02131 0.128743,0.05781 0.168026,0.109181 0.039203,0.05161 0.058845,0.112441 0.058845,0.182578 0,0.05638 -0.012008,0.108863 -0.035864,0.15737 -0.023856,0.04851 -0.053278,0.08588 -0.088347,0.112203 -0.035068,0.0264 -0.079122,0.04604 -0.131844,0.05948 -0.052801,0.01344 -0.117531,0.0202 -0.194426,0.0202 l -0.459466,0 z m 0.159597,-0.698504 0.260587,0 c 0.070455,0 0.121188,-0.0048 0.152042,-0.014 0.040396,-0.01209 0.071011,-0.03197 0.091448,-0.06004 0.020516,-0.02807 0.030854,-0.06314 0.030854,-0.105205 0,-0.03984 -0.00954,-0.07515 -0.028627,-0.105444 -0.019323,-0.03062 -0.046837,-0.05137 -0.082144,-0.06258 -0.035625,-0.01121 -0.096776,-0.01686 -0.183453,-0.01686 l -0.240707,0 0,0.364122 z m 0,0.556242 0.29987,0 c 0.051609,0 0.08779,-0.0019 0.108545,-0.0056 0.036738,-0.0068 0.067353,-0.01765 0.092005,-0.03308 0.024731,-0.01519 0.044929,-0.03761 0.060912,-0.0668 0.015665,-0.02942 0.023856,-0.06314 0.023856,-0.101547 0,-0.04485 -0.01153,-0.08389 -0.034512,-0.117292 -0.023061,-0.03308 -0.055028,-0.05638 -0.095981,-0.06982 -0.040635,-0.0132 -0.099559,-0.01988 -0.176137,-0.01988 l -0.278559,0 0,0.413981 z M 9.89817,28.104014 c 0,-0.161585 0.044849,-0.281342 0.134945,-0.359033 0.07491,-0.06457 0.166356,-0.09709 0.274344,-0.09709 0.120075,0 0.218203,0.03928 0.294224,0.118087 0.07634,0.07857 0.114191,0.187111 0.114191,0.325714 0,0.112441 -0.01686,0.200867 -0.05049,0.26504 -0.03364,0.06457 -0.0827,0.114509 -0.146953,0.150134 -0.06457,0.03562 -0.134707,0.05328 -0.210967,0.05328 -0.122063,0 -0.220747,-0.03897 -0.296212,-0.117531 -0.075465,-0.07825 -0.1130772,-0.191007 -0.1130772,-0.338596 z m 0.152042,0 c 0,0.111885 0.02441,0.19554 0.07324,0.251045 0.04883,0.05582 0.110215,0.08358 0.184009,0.08358 0.07348,0 0.134627,-0.02799 0.183453,-0.08382 0.04851,-0.05582 0.07292,-0.141148 0.07292,-0.255577 0,-0.107988 -0.02441,-0.189894 -0.07348,-0.245478 -0.04906,-0.05551 -0.109976,-0.08326 -0.182896,-0.08326 -0.07379,0 -0.135184,0.02775 -0.184009,0.08302 -0.04883,0.05527 -0.07324,0.138842 -0.07324,0.250488 z m 0.874402,-0.436247 0.687212,0 0,0.872732 -0.147271,0 0,-0.75043 -0.391874,0 0,0.434815 c 0,0.101308 -0.0033,0.168344 -0.0098,0.200629 -0.0068,0.03221 -0.02473,0.06059 -0.05447,0.08469 -0.02942,0.02409 -0.07236,0.03618 -0.128186,0.03618 -0.03451,0 -0.07435,-0.0022 -0.1192,-0.0068 l 0,-0.123097 0.06505,0 c 0.03061,0 0.05248,-0.0034 0.06568,-0.0095 0.0132,-0.0064 0.02187,-0.0163 0.02632,-0.03006 0.0045,-0.01368 0.0065,-0.05829 0.0065,-0.134071 l 0,-0.575089 z m 0.873448,0.436247 c 0,-0.161585 0.04485,-0.281342 0.134945,-0.359033 0.07491,-0.06457 0.166356,-0.09709 0.274344,-0.09709 0.120075,0 0.218203,0.03928 0.294224,0.118087 0.07634,0.07857 0.114191,0.187111 0.114191,0.325714 0,0.112441 -0.01686,0.200867 -0.0505,0.26504 -0.03364,0.06457 -0.0827,0.114509 -0.146953,0.150134 -0.06457,0.03562 -0.134707,0.05328 -0.210967,0.05328 -0.122063,0 -0.220747,-0.03897 -0.296212,-0.117531 -0.07547,-0.07825 -0.113077,-0.191007 -0.113077,-0.338596 z m 0.152042,0 c 0,0.111885 0.02441,0.19554 0.07324,0.251045 0.04883,0.05582 0.110215,0.08358 0.184009,0.08358 0.07348,0 0.134627,-0.02799 0.183453,-0.08382 0.04851,-0.05582 0.07292,-0.141148 0.07292,-0.255577 0,-0.107988 -0.02441,-0.189894 -0.07348,-0.245478 -0.04906,-0.05551 -0.109976,-0.08326 -0.182896,-0.08326 -0.07379,0 -0.135184,0.02775 -0.184009,0.08302 -0.04882,0.05527 -0.07324,0.138842 -0.07324,0.250488 z m 0.918933,-0.436247 0.608169,0 0,0.750987 0.09431,0 0,0.369132 -0.121507,0 0,-0.247387 -0.686973,0 0,0.247387 -0.121745,0 0,-0.369132 0.07801,0 c 0.104012,-0.141387 0.153951,-0.391636 0.149736,-0.750987 z m 0.123176,0.122302 c -0.01089,0.28333 -0.05471,0.492944 -0.131526,0.628685 l 0.469247,0 0,-0.628685 -0.337721,0 z m 0.74224,-0.122302 0.147828,0 0,0.665741 0.410085,-0.665741 0.159358,0 0,0.872732 -0.147828,0 0,-0.661447 -0.410085,0.661447 -0.159358,0 0,-0.872732 z m 0.94422,0 0.230051,0 0.229495,0.698504 0.254703,-0.698504 0.212875,0 0,0.872732 -0.147828,0 0,-0.702718 -0.258042,0.702718 -0.132401,0 -0.244047,-0.736355 0,0.736355 -0.144806,0 0,-0.872732 z m 1.15328,0 0.147828,0 0,0.665741 0.410085,-0.665741 0.159358,0 0,0.872732 -0.147828,0 0,-0.661447 -0.410085,0.661447 -0.159358,0 0,-0.872732 z m 0.940324,1.20711 0,-1.20711 0.134627,0 0,0.113396 c 0.03173,-0.04437 0.06759,-0.07777 0.10775,-0.09988 0.03984,-0.02219 0.08835,-0.0334 0.145283,-0.0334 0.07467,0 0.140273,0.01932 0.19721,0.05749 0.05725,0.03841 0.100195,0.09256 0.129061,0.162459 0.02918,0.06982 0.04374,0.146396 0.04374,0.229733 0,0.08922 -0.01598,0.169695 -0.04827,0.241264 -0.03197,0.07149 -0.07849,0.126198 -0.139637,0.164368 -0.06115,0.03785 -0.125403,0.05694 -0.192756,0.05694 -0.04938,0 -0.09344,-0.01042 -0.132639,-0.03117 -0.03928,-0.02076 -0.07125,-0.04708 -0.09654,-0.0788 l 0,0.424716 -0.147828,0 z m 0.133832,-0.765857 c 0,0.112282 0.02266,0.195301 0.06815,0.249136 0.04541,0.0536 0.100672,0.08047 0.165243,0.08047 0.0656,0 0.121984,-0.02775 0.168821,-0.08357 0.04684,-0.05551 0.07045,-0.141625 0.07045,-0.25836 0,-0.111328 -0.02298,-0.194347 -0.06878,-0.249931 -0.04572,-0.05527 -0.100354,-0.08302 -0.163811,-0.08302 -0.06306,0 -0.118882,0.02942 -0.167469,0.08835 -0.04851,0.05892 -0.0726,0.144726 -0.0726,0.256929 z m 0.744466,0.0699 0,-0.148702 0.454775,0 0,0.148702 -0.454775,0 z m -8.80771,2.24191 0,-1.20481 0.452151,0 c 0.092005,0 0.165799,0.01233 0.221384,0.03642 0.055823,0.02441 0.099241,0.06203 0.130651,0.112759 0.03149,0.0505 0.047473,0.103535 0.047473,0.159119 0,0.05129 -0.014075,0.0998 -0.042146,0.145283 -0.027753,0.04541 -0.070057,0.08222 -0.126437,0.110215 0.07292,0.02131 0.128743,0.05781 0.168026,0.109181 0.039203,0.05161 0.058845,0.112441 0.058845,0.182578 0,0.05638 -0.012008,0.108863 -0.035863,0.15737 -0.023856,0.04851 -0.053278,0.08588 -0.088347,0.112203 -0.035068,0.0264 -0.079122,0.04604 -0.131844,0.05948 -0.052801,0.01344 -0.117531,0.0202 -0.194426,0.0202 l -0.459466,0 z m 0.159597,-0.698504 0.260587,0 c 0.070455,0 0.121188,-0.0048 0.152042,-0.014 0.040396,-0.01209 0.071011,-0.03197 0.091448,-0.06004 0.020516,-0.02807 0.030854,-0.06314 0.030854,-0.105205 0,-0.03984 -0.00954,-0.07515 -0.028627,-0.105444 -0.019323,-0.03062 -0.046837,-0.05137 -0.082144,-0.06258 -0.035625,-0.01121 -0.096776,-0.01686 -0.183453,-0.01686 l -0.240707,0 0,0.364122 z m 0,0.556242 0.29987,0 c 0.051609,0 0.08779,-0.0019 0.108545,-0.0056 0.036738,-0.0068 0.067353,-0.01765 0.092005,-0.03308 0.024731,-0.01519 0.044929,-0.03761 0.060912,-0.0668 0.015665,-0.02942 0.023856,-0.06314 0.023856,-0.101547 0,-0.04485 -0.01153,-0.08389 -0.034512,-0.117292 -0.023061,-0.03308 -0.055028,-0.05638 -0.095981,-0.06982 -0.040635,-0.0132 -0.099559,-0.01988 -0.176137,-0.01988 l -0.278559,0 0,0.413981 z m 0.895713,-0.294224 c 0,-0.161585 0.044849,-0.281342 0.134945,-0.359033 0.07491,-0.06457 0.166356,-0.09709 0.274344,-0.09709 0.120075,0 0.218203,0.03928 0.294224,0.118087 0.07634,0.07857 0.114191,0.187111 0.114191,0.325714 0,0.112441 -0.01686,0.200867 -0.05049,0.26504 -0.03364,0.06457 -0.0827,0.114509 -0.146953,0.150134 -0.06457,0.03562 -0.134707,0.05328 -0.210967,0.05328 -0.122063,0 -0.220747,-0.03897 -0.296212,-0.117531 -0.075465,-0.07825 -0.1130772,-0.191007 -0.1130772,-0.338596 z m 0.152042,0 c 0,0.111885 0.02441,0.19554 0.07324,0.251045 0.04883,0.05582 0.110215,0.08358 0.184009,0.08358 0.07348,0 0.134627,-0.02799 0.183453,-0.08382 0.04851,-0.05582 0.07292,-0.141148 0.07292,-0.255576 0,-0.107988 -0.02441,-0.189894 -0.07348,-0.245478 -0.04906,-0.05551 -0.109976,-0.08326 -0.182896,-0.08326 -0.07379,0 -0.135184,0.02775 -0.184009,0.08302 -0.04882,0.05527 -0.07324,0.138842 -0.07324,0.250488 z m 0.874402,-0.436247 0.687212,0 0,0.872732 -0.147271,0 0,-0.75043 -0.391874,0 0,0.434815 c 0,0.101308 -0.0033,0.168344 -0.0098,0.200629 -0.0068,0.03221 -0.02473,0.06059 -0.05447,0.08469 -0.02942,0.02409 -0.07236,0.03618 -0.128186,0.03618 -0.03451,0 -0.07435,-0.0022 -0.1192,-0.0068 l 0,-0.123097 0.06505,0 c 0.03061,0 0.05248,-0.0034 0.06568,-0.0095 0.0132,-0.0064 0.02187,-0.0163 0.02632,-0.03006 0.0045,-0.01368 0.0065,-0.05829 0.0065,-0.134071 l 0,-0.575089 z m 0.909947,0 0.147828,0 0,0.665741 0.410085,-0.665741 0.159358,0 0,0.872732 -0.147828,0 0,-0.661447 -0.410085,0.661447 -0.159358,0 0,-0.872732 z m 0.94088,0 0.148146,0 0,0.363327 0.410085,0 0,-0.363327 0.147828,0 0,0.872732 -0.147828,0 0,-0.387103 -0.410085,0 0,0.387103 -0.148146,0 0,-0.872732 z m 1.49824,0.552902 0.145283,0.01909 c -0.01567,0.100195 -0.05638,0.178681 -0.121984,0.235379 -0.06536,0.0567 -0.14584,0.08501 -0.241264,0.08501 -0.1192,0 -0.21542,-0.03896 -0.287783,-0.116974 -0.07268,-0.07801 -0.109181,-0.189894 -0.109181,-0.335813 0,-0.09423 0.01575,-0.176693 0.04692,-0.247387 0.03141,-0.07069 0.0788,-0.123733 0.142738,-0.15904 0.0637,-0.03539 0.133275,-0.05304 0.208183,-0.05304 0.09479,0 0.172479,0.0241 0.232516,0.07213 0.06036,0.04795 0.099,0.115861 0.116179,0.204207 l -0.143931,0.02211 c -0.01376,-0.05861 -0.03785,-0.10266 -0.07268,-0.132401 -0.03475,-0.02942 -0.07682,-0.04429 -0.126198,-0.04429 -0.07467,0 -0.135263,0.02664 -0.181783,0.08024 -0.0466,0.05328 -0.0699,0.137729 -0.0699,0.253271 0,0.117292 0.02251,0.202537 0.06767,0.255895 0.04485,0.05296 0.103456,0.0796 0.175819,0.0796 0.05813,0 0.106318,-0.01789 0.145363,-0.05352 0.03896,-0.03562 0.06369,-0.09033 0.07403,-0.164447 z m 0.269573,-0.552902 0.147828,0 0,0.340902 0.187429,0 c 0.122302,0 0.216294,0.02378 0.282216,0.07125 0.06616,0.04739 0.099,0.112759 0.099,0.196017 0,0.07268 -0.02751,0.135263 -0.08246,0.186872 -0.05503,0.05185 -0.143056,0.07769 -0.264245,0.07769 l -0.369768,0 0,-0.872732 z m 0.147828,0.750987 0.155462,0 c 0.09368,0 0.160392,-0.01153 0.200549,-0.03451 0.03984,-0.02298 0.05972,-0.05892 0.05972,-0.107432 0,-0.03785 -0.01455,-0.07157 -0.04429,-0.101229 -0.02942,-0.0295 -0.09511,-0.04437 -0.196335,-0.04437 l -0.175103,0 0,0.287544 z m 0.730709,-0.750987 0.147828,0 0,0.377084 c 0.04716,0 0.08024,-0.009 0.09908,-0.02696 0.01877,-0.01821 0.04652,-0.07069 0.08326,-0.157927 0.02918,-0.06902 0.0528,-0.114429 0.07069,-0.136377 0.01829,-0.02187 0.03904,-0.03674 0.06258,-0.04429 0.02354,-0.0079 0.06147,-0.01153 0.113316,-0.01153 l 0.02974,0 0,0.122302 -0.04119,-7.95e-4 c -0.03873,0 -0.0637,0.0059 -0.07467,0.01741 -0.01145,0.01201 -0.02918,0.04795 -0.05272,0.107669 -0.02243,0.05694 -0.04294,0.09622 -0.06171,0.118087 -0.01853,0.02219 -0.04739,0.04215 -0.08612,0.06004 0.06338,0.01718 0.12596,0.07634 0.187349,0.177568 l 0.161903,0.270447 -0.162698,0 -0.157927,-0.270447 c -0.03228,-0.05415 -0.06059,-0.09002 -0.08445,-0.107113 -0.0241,-0.01741 -0.05304,-0.02584 -0.08644,-0.02584 l 0,0.403405 -0.147828,0 0,-0.872732 z m 0.73723,0 0.147828,0 0,0.665741 0.410085,-0.665741 0.159358,0 0,0.872732 -0.147828,0 0,-0.661447 -0.410085,0.661447 -0.159358,0 0,-0.872732 z m 0.940324,0 0.147828,0 0,0.665741 0.410085,-0.665741 0.159358,0 0,0.872732 -0.147828,0 0,-0.661447 -0.410085,0.661447 -0.159358,0 0,-0.872732 z m 0.51362,-0.330406 0.10099,0 c -0.0081,0.06847 -0.03308,0.121188 -0.07515,0.157609 -0.04183,0.03682 -0.09765,0.05527 -0.167231,0.05527 -0.07014,0 -0.126198,-0.01821 -0.168026,-0.05471 -0.04207,-0.03642 -0.06704,-0.08914 -0.07515,-0.158165 l 0.10099,0 c 0.0076,0.0373 0.02298,0.06505 0.04572,0.08334 0.02266,0.01845 0.05328,0.02743 0.09145,0.02743 0.04461,0 0.07793,-0.0087 0.100672,-0.02664 0.02274,-0.01765 0.03817,-0.04572 0.04572,-0.08413 z"
   id="path34"
   style="fill:#2b2a29;fill-rule:nonzero" />
  <path
   d="m 8.63396,37.5388 0,-1.20481 0.159676,0 0,0.494773 0.626061,0 0,-0.494773 0.159676,0 0,1.20481 -0.159676,0 0,-0.567773 -0.626061,0 0,0.567773 -0.159676,0 z m 1.13666,-0.436485 c 0,-0.161585 0.044849,-0.281342 0.134945,-0.359033 0.074908,-0.06457 0.166356,-0.09709 0.274344,-0.09709 0.120075,0 0.218203,0.03928 0.294224,0.118087 0.07634,0.07857 0.114191,0.187111 0.114191,0.325714 0,0.112441 -0.01686,0.200867 -0.05049,0.26504 -0.03364,0.06457 -0.0827,0.114509 -0.146953,0.150134 -0.06457,0.03562 -0.134707,0.05328 -0.210967,0.05328 -0.122063,0 -0.2207472,-0.03896 -0.2962122,-0.117531 -0.075464,-0.07825 -0.113077,-0.191007 -0.113077,-0.338596 z m 0.152042,0 c 0,0.111885 0.024413,0.19554 0.073238,0.251045 0.048825,0.05582 0.1102151,0.08358 0.1840091,0.08358 0.07348,0 0.134627,-0.02799 0.183453,-0.08382 0.04851,-0.05582 0.07292,-0.141148 0.07292,-0.255577 0,-0.107988 -0.02441,-0.189894 -0.07348,-0.245478 -0.04906,-0.05551 -0.109976,-0.08326 -0.182896,-0.08326 -0.07379,0 -0.135184,0.02775 -0.1840088,0.08302 -0.048825,0.05527 -0.073238,0.138842 -0.073238,0.250488 z m 0.83989,-0.436247 0.341141,0 c 0.08381,0 0.146158,0.0071 0.187111,0.02075 0.04063,0.01408 0.0757,0.0396 0.105125,0.0769 0.02918,0.03729 0.04405,0.0819 0.04405,0.134071 0,0.04151 -0.0087,0.07801 -0.02608,0.108863 -0.0171,0.03085 -0.04318,0.05694 -0.07769,0.07769 0.04127,0.01376 0.07523,0.03928 0.102422,0.0769 0.0272,0.03753 0.04063,0.08191 0.04063,0.133514 -0.0053,0.08278 -0.03507,0.14417 -0.08867,0.184009 -0.05383,0.04016 -0.131844,0.06004 -0.234186,0.06004 l -0.393862,0 0,-0.872732 z m 0.148146,0.367223 0.157609,0 c 0.06314,0 0.106318,-0.0031 0.129856,-0.0098 0.02362,-0.0064 0.04461,-0.01996 0.06346,-0.03984 0.01853,-0.01996 0.02775,-0.04406 0.02775,-0.07181 0,-0.04604 -0.0163,-0.07833 -0.04883,-0.09622 -0.03252,-0.01829 -0.08835,-0.02728 -0.167151,-0.02728 l -0.162698,0 0,0.244922 z m 0,0.383763 0.194665,0 c 0.08389,0 0.141387,-0.0095 0.172479,-0.02918 0.03141,-0.01932 0.04771,-0.05304 0.04938,-0.100434 0,-0.02807 -0.009,-0.05383 -0.0272,-0.07769 -0.01797,-0.02386 -0.04151,-0.03896 -0.07037,-0.04517 -0.02918,-0.0064 -0.07578,-0.0095 -0.140035,-0.0095 l -0.17892,0 0,0.262018 z m 0.671546,-0.31474 c 0,-0.161585 0.04485,-0.281342 0.134945,-0.359033 0.07491,-0.06457 0.166356,-0.09709 0.274344,-0.09709 0.120075,0 0.218203,0.03928 0.294224,0.118087 0.07634,0.07857 0.114191,0.187111 0.114191,0.325714 0,0.112441 -0.01686,0.200867 -0.05049,0.26504 -0.03364,0.06457 -0.0827,0.114509 -0.146953,0.150134 -0.06457,0.03563 -0.134707,0.05328 -0.210967,0.05328 -0.122063,0 -0.220747,-0.03897 -0.296212,-0.117531 -0.07546,-0.07825 -0.113077,-0.191007 -0.113077,-0.338596 z m 0.152042,0 c 0,0.111885 0.02441,0.19554 0.07324,0.251045 0.04882,0.05582 0.110215,0.08358 0.184009,0.08358 0.07348,0 0.134627,-0.02799 0.183453,-0.08382 0.04851,-0.05582 0.07292,-0.141148 0.07292,-0.255577 0,-0.107988 -0.02441,-0.189894 -0.07348,-0.245478 -0.04906,-0.05551 -0.109976,-0.08326 -0.182896,-0.08326 -0.07379,0 -0.135184,0.02775 -0.184009,0.08302 -0.04883,0.05527 -0.07324,0.138842 -0.07324,0.250488 z m 0.83989,-0.436247 0.341141,0 c 0.08381,0 0.146158,0.0071 0.187111,0.02076 0.04063,0.01407 0.0757,0.0396 0.105125,0.0769 0.02918,0.03729 0.04405,0.08191 0.04405,0.134071 0,0.04151 -0.0087,0.07801 -0.02608,0.108863 -0.0171,0.03085 -0.04318,0.05694 -0.07769,0.07769 0.04127,0.01376 0.07522,0.03928 0.102422,0.0769 0.02719,0.03753 0.04063,0.08191 0.04063,0.133514 -0.0053,0.08278 -0.03507,0.14417 -0.08866,0.184009 -0.05384,0.04016 -0.131844,0.06004 -0.234186,0.06004 l -0.393862,0 0,-0.872732 z m 0.148146,0.367223 0.157609,0 c 0.06314,0 0.106318,-0.0031 0.129856,-0.0098 0.02362,-0.0064 0.04461,-0.01996 0.06346,-0.03984 0.01853,-0.01996 0.02775,-0.04405 0.02775,-0.07181 0,-0.04604 -0.0163,-0.07833 -0.04883,-0.09622 -0.03252,-0.01829 -0.08835,-0.02728 -0.167151,-0.02728 l -0.162698,0 0,0.244922 z m 0,0.383763 0.194665,0 c 0.08389,0 0.141387,-0.0095 0.172479,-0.02918 0.03141,-0.01932 0.04771,-0.05304 0.04938,-0.100434 0,-0.02807 -0.009,-0.05383 -0.0272,-0.07769 -0.01797,-0.02386 -0.04151,-0.03896 -0.07038,-0.04517 -0.02918,-0.0064 -0.07578,-0.0095 -0.140035,-0.0095 l -0.17892,0 0,0.262018 z m 0.671546,-0.31474 c 0,-0.161585 0.04485,-0.281342 0.134945,-0.359033 0.07491,-0.06457 0.166356,-0.09709 0.274344,-0.09709 0.120075,0 0.218203,0.03928 0.294224,0.118087 0.07634,0.07857 0.114191,0.187111 0.114191,0.325714 0,0.112441 -0.01686,0.200867 -0.05049,0.26504 -0.03364,0.06457 -0.0827,0.114509 -0.146953,0.150134 -0.06457,0.03562 -0.134707,0.05328 -0.210967,0.05328 -0.122063,0 -0.220747,-0.03896 -0.296212,-0.117531 -0.07546,-0.07825 -0.113077,-0.191007 -0.113077,-0.338596 z m 0.152042,0 c 0,0.111885 0.02441,0.19554 0.07324,0.251045 0.04883,0.05582 0.110215,0.08358 0.184009,0.08358 0.07348,0 0.134627,-0.02799 0.183453,-0.08382 0.04851,-0.05582 0.07292,-0.141148 0.07292,-0.255577 0,-0.107988 -0.02441,-0.189894 -0.07348,-0.245478 -0.04906,-0.0555 -0.109976,-0.08326 -0.182896,-0.08326 -0.07379,0 -0.135184,0.02775 -0.184009,0.08302 -0.04882,0.05527 -0.07324,0.138842 -0.07324,0.250488 z m 0.874402,-0.436247 0.687212,0 0,0.872732 -0.147271,0 0,-0.75043 -0.391874,0 0,0.434815 c 0,0.101308 -0.0033,0.168344 -0.0098,0.200629 -0.0068,0.03221 -0.02473,0.06059 -0.05447,0.08469 -0.02942,0.02409 -0.07236,0.03618 -0.128186,0.03618 -0.03451,0 -0.07435,-0.0022 -0.1192,-0.0068 l 0,-0.123097 0.06505,0 c 0.03062,0 0.05248,-0.0034 0.06568,-0.0095 0.0132,-0.0064 0.02187,-0.0163 0.02632,-0.03006 0.0045,-0.01368 0.0065,-0.05829 0.0065,-0.134071 l 0,-0.575089 z m 0.909947,0 0.147828,0 0,0.665741 0.410085,-0.665741 0.159358,0 0,0.872732 -0.147828,0 0,-0.661447 -0.410085,0.661447 -0.159358,0 0,-0.872732 z m 0.94088,0 0.148146,0 0,0.363327 0.410085,0 0,-0.363327 0.147828,0 0,0.872732 -0.147828,0 0,-0.387103 -0.410085,0 0,0.387103 -0.148146,0 0,-0.872732 z m 1.49824,0.552902 0.145283,0.01909 c -0.01566,0.100195 -0.05638,0.178681 -0.121984,0.235379 -0.06536,0.0567 -0.14584,0.08501 -0.241264,0.08501 -0.1192,0 -0.21542,-0.03896 -0.287783,-0.116974 -0.07268,-0.07801 -0.109181,-0.189894 -0.109181,-0.335813 0,-0.09423 0.01574,-0.176693 0.04692,-0.247387 0.03141,-0.07069 0.0788,-0.123733 0.142738,-0.15904 0.0637,-0.03539 0.133275,-0.05304 0.208183,-0.05304 0.09479,0 0.172479,0.02409 0.232516,0.07212 0.06035,0.04795 0.099,0.115861 0.116179,0.204207 l -0.143931,0.02211 c -0.01376,-0.05861 -0.03785,-0.10266 -0.07268,-0.132401 -0.03475,-0.02942 -0.07682,-0.04429 -0.126198,-0.04429 -0.07467,0 -0.135263,0.02664 -0.181783,0.08024 -0.0466,0.05328 -0.0699,0.137729 -0.0699,0.253271 0,0.117292 0.0225,0.202537 0.06767,0.255895 0.04485,0.05296 0.103456,0.0796 0.175819,0.0796 0.05813,0 0.106318,-0.01789 0.145363,-0.05352 0.03897,-0.03563 0.06369,-0.09034 0.07403,-0.164447 z m 0.269573,-0.552902 0.147828,0 0,0.340902 0.187429,0 c 0.122302,0 0.216294,0.02378 0.282216,0.07125 0.06616,0.04739 0.099,0.112759 0.099,0.196017 0,0.07268 -0.02751,0.135263 -0.08246,0.186872 -0.05503,0.05185 -0.143056,0.07769 -0.264245,0.07769 l -0.369768,0 0,-0.872732 z m 0.147828,0.750987 0.155462,0 c 0.09367,0 0.160392,-0.01153 0.200549,-0.03451 0.03984,-0.02298 0.05972,-0.05892 0.05972,-0.107432 0,-0.03785 -0.01455,-0.07157 -0.04429,-0.101229 -0.02942,-0.0295 -0.09511,-0.04437 -0.196335,-0.04437 l -0.175103,0 0,0.287544 z m 0.730709,-0.750987 0.147828,0 0,0.377084 c 0.04716,0 0.08024,-0.009 0.09908,-0.02696 0.01877,-0.01821 0.04652,-0.07069 0.08326,-0.157927 0.02918,-0.06902 0.0528,-0.114429 0.07069,-0.136377 0.01829,-0.02187 0.03904,-0.03674 0.06258,-0.04429 0.02354,-0.0079 0.06147,-0.01153 0.113316,-0.01153 l 0.02974,0 0,0.122302 -0.04119,-7.95e-4 c -0.03873,0 -0.0637,0.0059 -0.07467,0.01741 -0.01145,0.01201 -0.02918,0.04795 -0.05272,0.10767 -0.02242,0.05694 -0.04294,0.09622 -0.06171,0.118087 -0.01853,0.02219 -0.04739,0.04215 -0.08612,0.06004 0.06338,0.01718 0.12596,0.07634 0.187349,0.177568 l 0.161903,0.270447 -0.162698,0 -0.157927,-0.270447 c -0.03229,-0.05415 -0.06059,-0.09002 -0.08445,-0.107113 -0.0241,-0.01741 -0.05304,-0.02584 -0.08644,-0.02584 l 0,0.403405 -0.147828,0 0,-0.872732 z"
   id="path36"
   style="fill:#2b2a29;fill-rule:nonzero" />
  <g
   id="_304993952">
   <path
   d="m 29.1429,36.8688 c 0.468532,0 0.876787,-0.38758 0.876787,-0.87631 0,-0.489286 -0.408256,-0.896588 -0.876787,-0.896588 -0.488889,0 -0.896111,0.407301 -0.896111,0.896588 0,0.48873 0.407222,0.87631 0.896111,0.87631 z"
   id="_304993400"
   style="fill:#fefefe;stroke:#2b2a29;stroke-width:0.123017" />
   <path
   d="m 29.1429,36.461 c 0.265597,0 0.468532,-0.203094 0.468532,-0.468532 0,-0.264722 -0.202935,-0.489286 -0.468532,-0.489286 -0.264245,0 -0.488889,0.224564 -0.488889,0.489286 0,0.265438 0.224644,0.468532 0.488889,0.468532"
   id="_304993568"
   style="fill:none;stroke:#2b2a29;stroke-width:0.147669" />
  </g>
  <path
   d="m 28.6391,31.9357 1.12553,0 0,2.00812 -0.324283,0 0,-1.66825 -0.483243,0 0,0.857544 c 0,0.245399 -0.0068,0.417003 -0.0198,0.514256 -0.01312,0.09725 -0.04533,0.173035 -0.09582,0.227268 -0.05081,0.05423 -0.130174,0.08135 -0.238639,0.08135 -0.03777,0 -0.106954,-0.0042 -0.206831,-0.0136 l 0,-0.313706 0.0722,0.0014 c 0.06807,0 0.113714,-0.01121 0.136854,-0.03411 0.02362,-0.02298 0.03523,-0.07904 0.03523,-0.168821 l -0.0012,-0.345037 0,-1.14644 z m 1.31176,0.553539 0.327702,0 0.27824,1.03289 0.271958,-1.03289 0.318637,0 -0.410641,1.39987 -0.07371,0.25343 c -0.02688,0.08461 -0.05272,0.149577 -0.07706,0.194506 -0.02465,0.04485 -0.05272,0.08087 -0.08453,0.108942 -0.03181,0.02759 -0.07069,0.04954 -0.117053,0.06497 -0.04636,0.01543 -0.09876,0.02338 -0.157529,0.02338 -0.05908,0 -0.117053,-0.008 -0.174308,-0.02338 l -0.02727,-0.30154 c 0.04827,0.01217 0.09169,0.01773 0.130572,0.01773 0.07141,0 0.124528,-0.02616 0.15896,-0.07857 0.03403,-0.05232 0.06059,-0.1192 0.07896,-0.200549 l -0.442926,-1.45879 z m 1.38285,0 0.308219,0 0,1.14366 0.43903,0 0,-1.14366 0.308219,0 0,1.14366 0.121586,0 0,0.694289 -0.248739,0 0,-0.383366 -0.928316,0 0,-1.45458 z m 1.39701,0 0.307822,0 0,0.604113 0.309333,0 c 0.121188,0 0.214386,0.01073 0.279433,0.03268 0.06505,0.02203 0.118882,0.06926 0.161982,0.141705 0.04334,0.07244 0.06465,0.157131 0.06465,0.252953 0,0.140273 -0.03849,0.246353 -0.115543,0.316967 -0.07706,0.07061 -0.192677,0.106159 -0.346787,0.106159 l -0.660891,0 0,-1.45458 z m 0.307822,1.21101 0.287306,0 c 0.08978,0 0.147351,-0.01869 0.172399,-0.05519 0.02545,-0.0365 0.03817,-0.08 0.03817,-0.130015 0,-0.07014 -0.02211,-0.118723 -0.06544,-0.145363 -0.04342,-0.02616 -0.120473,-0.03976 -0.231562,-0.03976 l -0.200867,0 0,0.370325 z m 1.05292,-1.21101 0.307027,0 0,0.594253 c 0.05089,-0.007 0.08715,-0.02664 0.108465,-0.05884 0.02099,-0.03181 0.04676,-0.101945 0.07674,-0.209535 0.03928,-0.143534 0.08262,-0.235141 0.129379,-0.275378 0.04676,-0.04016 0.108147,-0.06028 0.184089,-0.06028 0.02314,0 0.06393,0.0023 0.121586,0.007 l 0.001,0.254782 c -0.08111,0 -0.133116,0.0094 -0.155621,0.02855 -0.02274,0.02012 -0.04708,0.08 -0.07324,0.179556 -0.03586,0.13415 -0.08755,0.216931 -0.154507,0.247784 0.09694,0.03411 0.179159,0.139319 0.246512,0.316569 0.0033,0.0093 0.0075,0.01869 0.01201,0.02895 l 0.172002,0.401178 -0.330962,0 -0.153394,-0.420343 c -0.03141,-0.08509 -0.05877,-0.139796 -0.08159,-0.164129 -0.02314,-0.02378 -0.05718,-0.03594 -0.102501,-0.03594 l 0,0.620415 -0.307027,0 0,-1.45458 z"
   id="path41"
   style="fill:#2b2a29;fill-rule:nonzero" />
 </g>
</svg>