<?xml version="1.0" encoding="UTF-8" standalone="no"?>
<!-- Created with Inkscape (http://www.inkscape.org/) -->

<svg
   xmlns:svg="http://www.w3.org/2000/svg"
   xmlns="http://www.w3.org/2000/svg"
   version="1.1"
   width="60.268799mm"
   height="49.027401mm"
   viewBox="0 0 61.8985 50.3531"
   id="svg2"
   xml:space="preserve"
   style="fill-rule:evenodd">
 <defs
   id="defs4">
  <style
   type="text/css"
   id="style6" />
 </defs>
 <g
   id="Layer_x0020_1">
  
  <path
   d="m 21.4632,3.80395 1.65323,1.39143 -0.341183,0.681955 -1.31204,0.052379 -0.157035,1.31204 2.91228,3.8044699 0.971272,-0.812697 1.65302,0.05197 0.813313,2.07329 1.04892,2.07236 2.41498,0 0.760934,1.39082 0.34108,-0.708658 1.94234,1.1814 1.65312,0.419238 1.36391,-0.157445 1.52166,1.39113 1.18069,2.20465 1.9942,0.628754 0.760524,-0.76001 0.761653,0.261998 -0.42006,2.0205 0.761448,1.15439 0.131153,1.128 1.60054,-0.07826 0.761037,0.813108 -0.971786,1.732 0.28942,0.761037 1.02252,0.130434 0.551624,-1.36381 1.02365,0.262717 1.52166,0.157445 0.8394,-1.05005 0.682674,0.419752 -0.262512,0.891985 0.681852,0.761756 -0.760729,1.44217 0.47285,0.550596 0.209105,2.0739 2.91269,1.60013 0.47326,-0.969937 -0.263539,-1.18089 1.91646,0.340567 -0.473568,1.52228 0.892806,0.287982 0.682879,0.05289 1.17956,1.52187 0.288804,2.36137 1.44351,1.23389 -2.15114,2.28198 3.46287,3.62124 -1.10119,1.52146 -0.210543,1.78469 c -1.73231,0.838579 -1.94111,0.918174 -1.94111,0.918174 l -1.91615,-1.04943 -1.39072,1.86357 -1.18017,0.550596 -1.36473,-0.340772 -1.25997,-1.73231 -1.23327,0.551624 -2.41324,-1.02324 -1.52228,-0.68329 -2.33498,-0.158164 -1.39174,0.841454 -2.41344,-2.07308 -2.15196,-0.130948 -2.20382,-1.39082 -1.994,-0.130948 -1.73231,1.44186 -3.30543,-2.256 -0.892498,-1.78397 -0.550802,-1.65271 -1.31153,1.23317 -1.05056,-1.73221 -1.36422,0.708247 -1.04974,1.86274 -1.23296,1.023961 -1.52207,0.340772 -1.44289,-0.971272 -0.630192,1.44433 -1.23276,0 -0.630192,-0.604003 0.07857,-1.38979 1.52218,-1.49732 -0.498526,-1.46877 -0.760934,-0.551418 0.367475,-0.813416 -1.04922,-0.629781 -0.814032,0.629781 -0.971478,-0.340875 -1.80975,0.735361 -1.57486,-0.944877 -0.5513154,-0.970348 -0.077439,-2.3623 -0.761653,-1.31215 -1.10181,-0.34108 -2.28342,-0.39387 -0.813416,-1.04912 -0.497704,-2.83412 -1.10263,-0.813211 -1.15491,-1.39041 -1.31122,-1.4434 -0.760934,-1.18069 0.970553,-3.17489 0.761551,-2.41396 1.86254,-1.1813 0.892601,-1.1545 3.01775,-1.39051 0.078158,-1.65312 1.02365,-1.78469 0.209619,-2.0197805 0.839606,-1.70581 1.2337795,-1.94121 0.839298,-0.6305 1.57415,-1.15439 0.550802,-2.49252 0.970862,-0.0785686 1.94183,2.28291 2.62481,-0.131461 0.602359,1.31174 1.46928,0.340772 z"
   id="path10"
   style="fill:#ffef47" />
  <g
   id="_387111760">
   <path
   d="m 14.1065,28.916 c 0.484352,0 0.887569,-0.3836 0.887569,-0.867952 0,-0.483325 -0.403216,-0.866103 -0.887569,-0.866103 -0.46299,0 -0.845665,0.382778 -0.845665,0.866103 0,0.484352 0.382675,0.867952 0.845665,0.867952 z"
   id="_387111856"
   style="fill:#fefefe;stroke:#2b2a29;stroke-width:0.121704" />
   <path
   d="m 14.1183,28.2556 c 0.112872,0 0.20736,-0.095 0.20736,-0.207565 0,-0.111434 -0.09449,-0.206846 -0.20736,-0.206846 -0.103834,0 -0.189078,0.09541 -0.189078,0.206846 0,0.112564 0.08524,0.207565 0.189078,0.207565 z"
   id="_387111808"
   style="fill:#2b2a29;stroke:#2b2a29;stroke-width:0.0782605" />
  </g>
  <g
   id="_387111592">
   <path
   d="m 28.5682,39.4048 c 0.48425,0 0.88685,-0.383702 0.88685,-0.868055 0,-0.483223 -0.4026,-0.866514 -0.88685,-0.866514 -0.463503,0 -0.846487,0.383292 -0.846487,0.866514 0,0.484352 0.382983,0.868055 0.846487,0.868055 z"
   id="_387111688"
   style="fill:#fefefe;stroke:#2b2a29;stroke-width:0.121704" />
   <path
   d="m 28.5802,38.7439 c 0.111845,0 0.207051,-0.09469 0.207051,-0.207154 0,-0.111331 -0.09521,-0.206435 -0.207051,-0.206435 -0.103834,0 -0.189592,0.0951 -0.189592,0.206435 0,0.112461 0.08576,0.207154 0.189592,0.207154 z"
   id="_387111640"
   style="fill:#2b2a29;stroke:#2b2a29;stroke-width:0.0782605" />
  </g>
  <g
   id="_387111424">
   <path
   d="m 3.13699,26.0064 c 0.483633,0 0.88685,-0.38247 0.88685,-0.867541 0,-0.483428 -0.403216,-0.866206 -0.88685,-0.866206 -0.463503,0 -0.84659,0.382778 -0.84659,0.866206 0,0.485071 0.383086,0.867541 0.84659,0.867541 z"
   id="_387111520"
   style="fill:#fefefe;stroke:#2b2a29;stroke-width:0.121704" />
   <path
   d="m 3.14839,25.3466 c 0.112358,0 0.207257,-0.09531 0.207257,-0.20777 0,-0.111331 -0.094899,-0.206332 -0.207257,-0.206332 -0.103628,0 -0.189284,0.095 -0.189284,0.206332 0,0.112461 0.085655,0.20777 0.189284,0.20777 z"
   id="_387111472"
   style="fill:#2b2a29;stroke:#2b2a29;stroke-width:0.0782605" />
  </g>
  <g
   id="_387111256">
   <path
   d="m 51.3988,46.2905 c 0.484455,0 0.887055,-0.383805 0.887055,-0.86713 0,-0.484147 -0.4026,-0.866925 -0.887055,-0.866925 -0.462579,0 -0.845973,0.382778 -0.845973,0.866925 0,0.483325 0.383394,0.86713 0.845973,0.86713 z"
   id="_387111352"
   style="fill:#fefefe;stroke:#2b2a29;stroke-width:0.121704" />
   <path
   d="m 51.411,45.6306 c 0.111947,0 0.206949,-0.09521 0.206949,-0.207257 0,-0.112564 -0.095,-0.206641 -0.206949,-0.206641 -0.103834,0 -0.189489,0.09408 -0.189489,0.206641 0,0.11205 0.08566,0.207257 0.189489,0.207257 z"
   id="_387111304"
   style="fill:#2b2a29;stroke:#2b2a29;stroke-width:0.0782605" />
  </g>
  <path
   d="m 14.4714,31.067 0,-1.55607 0.310064,0 0.368194,1.10171 c 0.03399,0.102601 0.05905,0.179424 0.07425,0.230468 0.01777,-0.05649 0.04529,-0.139883 0.08299,-0.249674 l 0.372405,-1.0825 0.277198,0 0,1.55607 -0.198527,0 0,-1.30249 -0.452206,1.30249 -0.185894,0 -0.449947,-1.32457 0,1.32457 -0.198527,0 z m 1.80852,0.434027 -0.02136,-0.179321 c 0.04201,0.0112 0.07826,0.01705 0.109483,0.01705 0.04231,0 0.07641,-0.0073 0.10178,-0.02136 0.02568,-0.01417 0.04632,-0.03369 0.06265,-0.05947 0.01233,-0.01879 0.03153,-0.06624 0.05834,-0.14204 0.0036,-0.01089 0.0094,-0.02609 0.01705,-0.04673 l -0.427557,-1.12933 0.205819,0 0.234781,0.652582 c 0.03009,0.08299 0.05762,0.169873 0.08155,0.261176 0.02208,-0.08761 0.04817,-0.173159 0.07857,-0.256863 l 0.240944,-0.656895 0.190926,0 -0.428584,1.14638 c -0.04601,0.123861 -0.08186,0.209003 -0.107223,0.255733 -0.0341,0.06306 -0.07282,0.109072 -0.116672,0.138445 -0.04426,0.02937 -0.09644,0.04416 -0.15724,0.04416 -0.03697,0 -0.07795,-0.0079 -0.123245,-0.02352 z m 1.09452,-1.5612 0.190927,0 0,0.487023 c 0.0609,0 0.103628,-0.01161 0.127969,-0.03482 0.02424,-0.02352 0.06008,-0.0913 0.107531,-0.20397 0.03769,-0.08915 0.0682,-0.147791 0.0913,-0.176137 0.02362,-0.02824 0.05043,-0.04745 0.08083,-0.05721 0.0304,-0.01017 0.07939,-0.01489 0.146353,-0.01489 l 0.03841,0 0,0.157959 -0.0532,-0.001 c -0.05002,0 -0.08227,0.0076 -0.09644,0.02249 -0.01479,0.01551 -0.03769,0.06193 -0.06809,0.139061 -0.02896,0.07354 -0.05546,0.124272 -0.0797,0.152516 -0.02393,0.02866 -0.06121,0.05443 -0.111229,0.07754 0.08185,0.02218 0.162683,0.0986 0.241971,0.229338 l 0.209105,0.349297 -0.210133,0 -0.20397,-0.349297 c -0.0417,-0.06994 -0.07826,-0.116261 -0.109072,-0.138342 -0.03112,-0.02249 -0.0685,-0.03338 -0.111639,-0.03338 l 0,0.521018 -0.190927,0 0,-1.12718 z m 1.73549,0.988013 c -0.07097,0.06019 -0.139164,0.102601 -0.204278,0.127558 -0.06563,0.02465 -0.135877,0.03697 -0.210954,0.03697 -0.123861,0 -0.21876,-0.03009 -0.285415,-0.09059 -0.06635,-0.06049 -0.09962,-0.138034 -0.09962,-0.231906 0,-0.05536 0.01222,-0.105785 0.03759,-0.151386 0.02506,-0.0457 0.05803,-0.08227 0.0986,-0.109791 0.04098,-0.02752 0.08658,-0.04858 0.137623,-0.06265 0.03738,-0.0099 0.09387,-0.01962 0.169564,-0.02865 0.154364,-0.01849 0.26816,-0.04026 0.340977,-0.06594 7.19e-4,-0.02609 0.001,-0.04273 0.001,-0.04961 0,-0.07795 -0.01808,-0.133002 -0.05433,-0.164532 -0.04848,-0.04344 -0.121294,-0.06481 -0.217322,-0.06481 -0.08987,0 -0.156213,0.01551 -0.199246,0.04704 -0.04283,0.03153 -0.07436,0.0873 -0.095,0.167408 l -0.186511,-0.02578 c 0.01695,-0.0797 0.04488,-0.144505 0.0836,-0.193392 0.03882,-0.0493 0.09531,-0.0873 0.168845,-0.113796 0.07354,-0.0265 0.158678,-0.03985 0.255836,-0.03985 0.09634,0 0.174289,0.0116 0.234371,0.0341 0.06019,0.0228 0.104347,0.05104 0.133002,0.08545 0.02824,0.03441 0.04786,0.07754 0.05936,0.130126 0.0062,0.03256 0.0094,0.0912 0.0094,0.176035 l 0,0.254706 c 0,0.177883 0.004,0.290242 0.01232,0.336972 0.008,0.04704 0.02424,0.09233 0.04817,0.135467 l -0.199554,0 c -0.01962,-0.03954 -0.03266,-0.08586 -0.0381,-0.139164 z m -0.01592,-0.426735 c -0.06953,0.02855 -0.17357,0.05248 -0.311912,0.07241 -0.07867,0.0113 -0.13444,0.02393 -0.166689,0.0381 -0.03266,0.01407 -0.05803,0.03471 -0.07539,0.06224 -0.01777,0.02722 -0.02681,0.05731 -0.02681,0.09058 0,0.05115 0.01962,0.09356 0.05793,0.127558 0.03841,0.03369 0.095,0.05074 0.169256,0.05074 0.07354,0 0.139164,-0.01592 0.19637,-0.04817 0.05721,-0.03225 0.09962,-0.07652 0.126429,-0.132283 0.02064,-0.04314 0.03081,-0.106812 0.03081,-0.190927 l 0,-0.07025 z m 0.371378,-0.561278 0.191235,0 0,0.213419 c 0,0.09172 0.0054,0.158678 0.01633,0.199965 0.01089,0.04139 0.03728,0.07754 0.07898,0.108353 0.0417,0.03081 0.09418,0.04601 0.15724,0.04601 0.0721,0 0.165559,-0.0192 0.280074,-0.05721 l 0,-0.510542 0.191235,0 0,1.12718 -0.191235,0 0,-0.454363 c -0.117391,0.03697 -0.227181,0.05515 -0.328961,0.05515 -0.08555,0 -0.161245,-0.02177 -0.226462,-0.06522 -0.06563,-0.04355 -0.110099,-0.09675 -0.13331,-0.159808 -0.02362,-0.06265 -0.03513,-0.132283 -0.03513,-0.207976 l 0,-0.294966 z m 1.97407,0.764118 0.1975,0.02434 c -0.03112,0.115542 -0.08874,0.204997 -0.172851,0.268777 -0.08442,0.06347 -0.191954,0.09531 -0.322799,0.09531 -0.16484,0 -0.295582,-0.05074 -0.392021,-0.152207 -0.09675,-0.101369 -0.144915,-0.243819 -0.144915,-0.427146 0,-0.189797 0.04889,-0.336972 0.146353,-0.441627 0.09788,-0.104758 0.224306,-0.15724 0.380108,-0.15724 0.150667,0 0.273912,0.05145 0.369118,0.153953 0.09572,0.102601 0.143478,0.247106 0.143478,0.433 0,0.01161 -3.08e-4,0.02855 -0.001,0.05104 l -0.84053,0 c 0.0069,0.123964 0.04201,0.218862 0.105066,0.284388 0.06306,0.06594 0.141218,0.0989 0.2355,0.0989 0.06994,0 0.129715,-0.01838 0.179321,-0.05536 0.04961,-0.03667 0.08874,-0.09531 0.117699,-0.176137 z m -0.627111,-0.309037 0.629371,0 c -0.0084,-0.09459 -0.03266,-0.165867 -0.0721,-0.213008 -0.0609,-0.07354 -0.139883,-0.11051 -0.23663,-0.11051 -0.08771,0 -0.161553,0.02937 -0.221327,0.08802 -0.05988,0.05875 -0.09284,0.137315 -0.09931,0.2355 z m 1.06555,-0.455082 0.4406,0 c 0.10825,0 0.18877,0.0091 0.241663,0.02681 0.05248,0.01818 0.09777,0.05115 0.135775,0.09932 0.03769,0.04817 0.0569,0.105785 0.0569,0.173159 0,0.05361 -0.0112,0.100753 -0.03369,0.140602 -0.02208,0.03985 -0.05577,0.07354 -0.100342,0.100342 0.0533,0.01777 0.09716,0.05074 0.132283,0.09931 0.03513,0.04848 0.05248,0.105785 0.05248,0.17244 -0.0069,0.106915 -0.04529,0.186202 -0.114515,0.237657 -0.06953,0.05187 -0.170283,0.07754 -0.302463,0.07754 l -0.508693,0 0,-1.12718 z m 0.191338,0.474287 0.203559,0 c 0.08155,0 0.137315,-0.004 0.167716,-0.01263 0.0305,-0.0083 0.05762,-0.02578 0.08196,-0.05145 0.02393,-0.02578 0.03584,-0.0569 0.03584,-0.09274 0,-0.05947 -0.02105,-0.101164 -0.06306,-0.124272 -0.04201,-0.02362 -0.114104,-0.03523 -0.215884,-0.03523 l -0.210133,0 0,0.316329 z m 0,0.49565 0.25142,0 c 0.108353,0 0.182608,-0.01233 0.222765,-0.03769 0.04057,-0.02496 0.06162,-0.0685 0.06378,-0.129715 0,-0.03626 -0.01161,-0.06953 -0.03512,-0.100342 -0.02321,-0.03081 -0.05361,-0.05033 -0.09089,-0.05834 -0.03769,-0.0083 -0.09788,-0.01233 -0.180862,-0.01233 l -0.231084,0 0,0.33841 z m 1.71002,-0.205819 0.1975,0.02434 c -0.03112,0.115542 -0.08874,0.204997 -0.172851,0.268777 -0.08442,0.06347 -0.191954,0.09531 -0.322799,0.09531 -0.16484,0 -0.295582,-0.05074 -0.392021,-0.152207 -0.09675,-0.101369 -0.144915,-0.243819 -0.144915,-0.427146 0,-0.189797 0.04889,-0.336972 0.146353,-0.441627 0.09788,-0.104758 0.224306,-0.15724 0.380108,-0.15724 0.150667,0 0.273912,0.05146 0.369118,0.153953 0.09572,0.102601 0.143478,0.247106 0.143478,0.433 0,0.01161 -3.08e-4,0.02855 -0.001,0.05104 l -0.84053,0 c 0.0069,0.123964 0.04201,0.218862 0.105066,0.284388 0.06306,0.06594 0.141218,0.0989 0.2355,0.0989 0.06994,0 0.129715,-0.01838 0.179321,-0.05536 0.04961,-0.03667 0.08874,-0.09531 0.117699,-0.176137 z m -0.627111,-0.309037 0.629371,0 c -0.0084,-0.09459 -0.03266,-0.165867 -0.0721,-0.213008 -0.0609,-0.07354 -0.139883,-0.11051 -0.23663,-0.11051 -0.08771,0 -0.161553,0.02937 -0.221327,0.08802 -0.05988,0.05875 -0.09285,0.137315 -0.09932,0.2355 z"
   id="path24"
   style="fill:#2b2a29;fill-rule:nonzero" />
  <path
   d="m 5.55783,27.4017 -0.205819,0 0,-0.627111 c -0.184765,0.0684 -0.346318,0.102807 -0.485071,0.102807 -0.108353,0 -0.203662,-0.02527 -0.286647,-0.076 -0.082574,-0.05043 -0.138034,-0.114926 -0.165867,-0.192467 -0.028244,-0.07785 -0.042006,-0.18004 -0.042006,-0.30575 l 0,-0.457547 0.205716,0 0,0.438341 c 0,0.169975 0.031222,0.281512 0.093153,0.334815 0.061622,0.05361 0.136186,0.08042 0.223176,0.08042 0.145326,0 0.297842,-0.03225 0.457547,-0.09675 l 0,-0.756826 0.205819,0 0,1.55607 z m 0.243101,-0.563743 c 0,-0.208695 0.057925,-0.363367 0.174289,-0.463709 0.096747,-0.0834 0.214857,-0.125402 0.354329,-0.125402 0.155083,0 0.28182,0.05074 0.380005,0.152516 0.098596,0.101472 0.147483,0.241663 0.147483,0.420676 0,0.145224 -0.021773,0.25943 -0.065217,0.342313 -0.043444,0.0834 -0.106812,0.147894 -0.189797,0.193905 -0.083396,0.04601 -0.173981,0.06881 -0.272474,0.06881 -0.157651,0 -0.285106,-0.05032 -0.382573,-0.151797 -0.097466,-0.101061 -0.146045,-0.246695 -0.146045,-0.437314 z m 0.19637,0 c 0,0.144505 0.03153,0.252549 0.09459,0.324237 0.06306,0.0721 0.142348,0.107942 0.237657,0.107942 0.094899,0 0.173878,-0.03615 0.236938,-0.10825 0.06265,-0.0721 0.09418,-0.1823 0.09418,-0.330091 0,-0.139472 -0.03153,-0.245257 -0.094899,-0.317047 -0.063368,-0.07169 -0.14204,-0.107531 -0.236219,-0.107531 -0.095309,0 -0.174597,0.03584 -0.237657,0.107223 -0.06306,0.07138 -0.09459,0.179321 -0.09459,0.323518 z m 1.08476,-0.563435 0.889828,0 0,1.12718 -0.191338,0 0,-0.969218 -0.507153,0 0,0.969218 -0.191338,0 0,-1.12718 z"
   id="path26"
   style="fill:#2b2a29;fill-rule:nonzero" />
  <path
   d="m 45.86,43.9316 0,-1.55607 0.586954,0 c 0.10332,0 0.1823,0.005 0.23663,0.01479 0.07641,0.01274 0.140499,0.03697 0.192365,0.07282 0.05146,0.03553 0.09305,0.08586 0.12458,0.150051 0.03153,0.0645 0.04714,0.135159 0.04714,0.212289 0,0.132283 -0.04201,0.244538 -0.126121,0.336253 -0.08442,0.0913 -0.236527,0.137315 -0.456417,0.137315 l -0.399313,0 0,0.632554 -0.205819,0 z m 0.205819,-0.816292 0.402497,0 c 0.133002,0 0.227592,-0.02465 0.283361,-0.07426 0.05577,-0.04961 0.0837,-0.119239 0.0837,-0.209003 0,-0.06522 -0.01633,-0.121088 -0.0493,-0.167408 -0.03297,-0.04642 -0.0761,-0.07682 -0.130023,-0.09172 -0.03482,-0.009 -0.0986,-0.01376 -0.192057,-0.01376 l -0.398184,0 0,0.556143 z m 1.88328,0.677128 c -0.07097,0.06018 -0.139164,0.102601 -0.204278,0.127558 -0.06563,0.02465 -0.135877,0.03697 -0.210954,0.03697 -0.123861,0 -0.21876,-0.03009 -0.285415,-0.09059 -0.06635,-0.06049 -0.09962,-0.138034 -0.09962,-0.231906 0,-0.05536 0.01222,-0.105785 0.03759,-0.151386 0.02506,-0.0457 0.05803,-0.08227 0.0986,-0.109791 0.04098,-0.02752 0.08658,-0.04858 0.137623,-0.06265 0.03738,-0.0099 0.09387,-0.01962 0.169564,-0.02865 0.154364,-0.01849 0.26816,-0.04026 0.340977,-0.06594 7.19e-4,-0.02609 0.001,-0.04272 0.001,-0.04961 0,-0.07795 -0.01808,-0.133002 -0.05433,-0.164532 -0.04848,-0.04344 -0.121294,-0.06481 -0.217322,-0.06481 -0.08987,0 -0.156213,0.01551 -0.199246,0.04704 -0.04283,0.03153 -0.07436,0.0873 -0.095,0.167408 l -0.186511,-0.02578 c 0.01695,-0.0797 0.04488,-0.144505 0.0836,-0.193392 0.03882,-0.0493 0.09531,-0.0873 0.168845,-0.113796 0.07354,-0.0265 0.158678,-0.03985 0.255836,-0.03985 0.09634,0 0.174289,0.01161 0.234371,0.0341 0.06019,0.0228 0.104347,0.05104 0.133002,0.08545 0.02824,0.03441 0.04786,0.07754 0.05936,0.130126 0.0062,0.03256 0.0094,0.0912 0.0094,0.176035 l 0,0.254706 c 0,0.177883 0.004,0.290242 0.01232,0.336972 0.008,0.04704 0.02424,0.09233 0.04817,0.135467 l -0.199554,0 c -0.01962,-0.03954 -0.03266,-0.08586 -0.0381,-0.139164 z m -0.01592,-0.426735 c -0.06953,0.02855 -0.17357,0.05248 -0.311912,0.07241 -0.07867,0.0113 -0.13444,0.02393 -0.166689,0.0381 -0.03266,0.01407 -0.05803,0.03471 -0.07539,0.06224 -0.01777,0.02722 -0.02681,0.05731 -0.02681,0.09058 0,0.05115 0.01962,0.09356 0.05793,0.127558 0.03841,0.03369 0.095,0.05074 0.169256,0.05074 0.07354,0 0.139164,-0.01592 0.19637,-0.04817 0.05721,-0.03225 0.09962,-0.07652 0.126429,-0.132283 0.02064,-0.04314 0.03081,-0.106812 0.03081,-0.190927 l 0,-0.07025 z m 0.361929,0.565899 0.411946,-0.585824 -0.381135,-0.541353 0.238787,0 0.173159,0.264155 c 0.03225,0.05033 0.05875,0.09243 0.07826,0.126429 0.03112,-0.04673 0.05977,-0.08802 0.08627,-0.124272 l 0.189797,-0.266312 0.228311,0 -0.389557,0.530775 0.419238,0.596403 -0.234473,0 -0.231495,-0.350324 -0.06152,-0.09459 -0.296096,0.444914 -0.231495,0 z m 1.21519,-1.33618 0,-0.219889 0.191338,0 0,0.219889 -0.191338,0 z m 0,1.33618 0,-1.12718 0.191338,0 0,1.12718 -0.191338,0 z m 0.482915,-1.12718 0.4406,0 c 0.10825,0 0.18877,0.0091 0.241663,0.02681 0.05248,0.01818 0.09777,0.05115 0.135775,0.09931 0.03769,0.04817 0.0569,0.105785 0.0569,0.173159 0,0.05361 -0.0112,0.100753 -0.03369,0.140602 -0.02208,0.03985 -0.05577,0.07354 -0.100342,0.100342 0.0533,0.01777 0.09716,0.05073 0.132283,0.09931 0.03512,0.04848 0.05248,0.105785 0.05248,0.17244 -0.0069,0.106915 -0.04529,0.186202 -0.114515,0.237657 -0.06953,0.05187 -0.170283,0.07754 -0.302463,0.07754 l -0.508693,0 0,-1.12718 z m 0.191338,0.474287 0.203559,0 c 0.08155,0 0.137315,-0.004 0.167716,-0.01263 0.0305,-0.0083 0.05762,-0.02578 0.08196,-0.05145 0.02393,-0.02578 0.03584,-0.0569 0.03584,-0.09274 0,-0.05947 -0.02105,-0.101164 -0.06306,-0.124272 -0.04201,-0.02362 -0.114104,-0.03523 -0.215884,-0.03523 l -0.210133,0 0,0.316329 z m 0,0.49565 0.25142,0 c 0.108353,0 0.182608,-0.01232 0.222765,-0.03769 0.04057,-0.02496 0.06162,-0.0685 0.06378,-0.129715 0,-0.03625 -0.0116,-0.06953 -0.03513,-0.100342 -0.02321,-0.03081 -0.05361,-0.05033 -0.09089,-0.05834 -0.03769,-0.0083 -0.09788,-0.01233 -0.180862,-0.01233 l -0.231084,0 0,0.33841 z"
   id="path28"
   style="fill:#2b2a29;fill-rule:nonzero" />
  <path
   d="m 29.3094,37.2919 0.602154,-0.810849 -0.530775,-0.745221 0.244846,0 0.282642,0.399211 c 0.05864,0.08257 0.100342,0.146353 0.124991,0.190927 0.03482,-0.05649 0.07569,-0.115542 0.123142,-0.177165 l 0.313453,-0.412973 0.223895,0 -0.546694,0.733307 0.589111,0.822762 -0.254706,0 -0.391713,-0.555013 c -0.02208,-0.03194 -0.04457,-0.06665 -0.06809,-0.104039 -0.03482,0.05649 -0.05936,0.09531 -0.07426,0.116672 l -0.390584,0.54238 -0.247414,0 z m 1.52741,0.434027 -0.02136,-0.179321 c 0.04201,0.0112 0.07826,0.01705 0.109483,0.01705 0.04231,0 0.07641,-0.0073 0.10178,-0.02136 0.02568,-0.01417 0.04632,-0.03369 0.06265,-0.05947 0.01233,-0.01879 0.03153,-0.06624 0.05834,-0.14204 0.0036,-0.01089 0.0094,-0.02609 0.01705,-0.04673 l -0.427557,-1.12933 0.205819,0 0.234781,0.652582 c 0.03009,0.08299 0.05762,0.169873 0.08155,0.261176 0.02208,-0.08761 0.04817,-0.173159 0.07857,-0.256863 l 0.240944,-0.656895 0.190926,0 -0.428584,1.14638 c -0.04601,0.123861 -0.08186,0.209003 -0.107223,0.255733 -0.0341,0.06306 -0.07282,0.109072 -0.116672,0.138445 -0.04426,0.02937 -0.09644,0.04416 -0.15724,0.04416 -0.03697,0 -0.07795,-0.0079 -0.123245,-0.02352 z m 1.80687,-0.847103 0.18764,0.02465 c -0.02023,0.129407 -0.07282,0.230776 -0.157548,0.304004 -0.08442,0.07323 -0.188359,0.109791 -0.311604,0.109791 -0.153953,0 -0.278225,-0.05033 -0.371686,-0.151078 -0.09387,-0.100753 -0.141013,-0.245257 -0.141013,-0.433719 0,-0.121704 0.02033,-0.228208 0.06059,-0.319512 0.04057,-0.0913 0.10178,-0.159808 0.184354,-0.205408 0.08227,-0.0457 0.172132,-0.0685 0.268879,-0.0685 0.122423,0 0.222765,0.03112 0.300307,0.09315 0.07795,0.06193 0.127867,0.14964 0.150051,0.263744 l -0.185894,0.02855 c -0.01777,-0.07569 -0.04889,-0.132591 -0.09387,-0.171002 -0.04488,-0.038 -0.09921,-0.05721 -0.162991,-0.05721 -0.09644,0 -0.1747,0.03441 -0.234781,0.103628 -0.06019,0.06881 -0.09028,0.177883 -0.09028,0.327112 0,0.151488 0.02906,0.261587 0.0874,0.330502 0.05792,0.0684 0.133618,0.102807 0.227079,0.102807 0.07508,0 0.137315,-0.02311 0.187743,-0.06912 0.05033,-0.04601 0.08227,-0.116672 0.09562,-0.212392 z m 0.248236,-0.714101 0.916223,0 0,0.157959 -0.363059,0 0,0.969218 -0.190208,0 0,-0.969218 -0.362956,0 0,-0.157959 z"
   id="path30"
   style="fill:#2b2a29;fill-rule:nonzero" />
  <g
   id="_387104584">
   <path
   d="m 4.9261,17.6143 c 0.631835,0 1.13139,-0.500066 1.13139,-1.1319 0,-0.631219 -0.499553,-1.13149 -1.13139,-1.13149 -0.631219,0 -1.13077,0.500272 -1.13077,1.13149 0,0.631835 0.499553,1.1319 1.13077,1.1319 z"
   id="_387104680"
   style="fill:#fefefe;stroke:#2b2a29;stroke-width:0.15888301" />
   <path
   d="m 4.9261,17.1142 c 0.342107,0 0.631835,-0.28942 0.631835,-0.631835 0,-0.342313 -0.289728,-0.60503 -0.631835,-0.60503 -0.342518,0 -0.631219,0.262717 -0.631219,0.60503 0,0.342415 0.288701,0.631835 0.631219,0.631835"
   id="_387104632"
   style="fill:none;stroke:#2b2a29;stroke-width:0.19072101" />
  </g>
  <path
   d="m 7.05628,17.2409 0.468536,0 0.484147,1.34655 0.413076,-1.34655 0.437109,0 -0.700442,1.97099 c -0.076412,0.213214 -0.154056,0.375589 -0.233344,0.487331 -0.079287,0.111126 -0.181581,0.167305 -0.307291,0.167305 -0.123656,0 -0.220198,-0.01027 -0.289831,-0.03019 l 0,-0.389557 c 0.059363,0.0048 0.113077,0.0073 0.160835,0.0073 0.097672,0 0.167202,-0.02239 0.209208,-0.06645 0.042109,-0.04406 0.082163,-0.139472 0.12078,-0.28562 l -0.762783,-1.8611 z m 2.59574,2.59359 0,-0.801297 c -0.052174,0.0048 -0.087915,0.01931 -0.10825,0.04344 -0.020335,0.02413 -0.056076,0.09541 -0.107223,0.21496 l -0.189386,0.542894 -0.427557,0 0.212495,-0.518142 C 9.139425,19.056713 9.251475,18.908203 9.367428,18.8701 9.2805404,18.829018 9.213783,18.722206 9.167977,18.550074 c -0.034817,-0.128585 -0.066758,-0.205305 -0.09572,-0.230673 -0.028963,-0.02537 -0.096131,-0.0381 -0.201403,-0.0381 l 0,-0.329064 c 0.07826,-0.0061 0.132899,-0.009 0.16371,-0.009 0.087915,0 0.162786,0.02414 0.225127,0.07241 0.062341,0.04837 0.12078,0.169154 0.175419,0.361107 0.042417,0.149845 0.076823,0.244641 0.101882,0.283874 0.025573,0.03985 0.063779,0.06039 0.115029,0.06275 l 0,-0.767507 0.3946922,0 0,0.767507 c 0.05115,0 0.08925,-0.02044 0.115439,-0.06152 0.02598,-0.0417 0.05936,-0.136494 0.100958,-0.285106 0.05402,-0.190208 0.111126,-0.309755 0.171927,-0.359259 0.0609,-0.0495 0.139164,-0.07426 0.234371,-0.07426 0.02752,0 0.08021,0.003 0.15837,0.009 l 0,0.329064 c -0.104347,0 -0.171413,0.01274 -0.200889,0.0381 -0.02907,0.02537 -0.06142,0.102088 -0.09613,0.230673 -0.04642,0.172132 -0.112564,0.278944 -0.199554,0.320026 0.115953,0.0381 0.228003,0.186613 0.335226,0.446249 l 0.212597,0.518142 -0.427557,0 -0.188359,-0.542894 c -0.03389,-0.09716 -0.06522,-0.162991 -0.09377,-0.19863 -0.02896,-0.03502 -0.06994,-0.05495 -0.122629,-0.05977 l 0,0.801297 -0.394692,0 z m 1.41639,-1.87866 1.01492,0 0,0.401573 -0.616841,0 0,1.47709 -0.398081,0 0,-1.87866 z m 1.09277,0.912526 c 0,-0.164943 0.03286,-0.324956 0.09757,-0.479525 0.06522,-0.153953 0.157548,-0.272371 0.276787,-0.353302 0.119342,-0.08144 0.252652,-0.122526 0.400032,-0.122526 0.227079,0 0.413487,0.09233 0.558916,0.277198 0.145429,0.184765 0.217938,0.4178 0.217938,0.699826 0,0.283874 -0.07343,0.519374 -0.219889,0.706501 -0.146867,0.18723 -0.331323,0.280279 -0.553986,0.280279 -0.13824,0 -0.269085,-0.03872 -0.394281,-0.116569 -0.125094,-0.07795 -0.2203,-0.192057 -0.285517,-0.342415 -0.0647,-0.150359 -0.09757,-0.333377 -0.09757,-0.549467 z m 0.407735,0.0265 c 0,0.186613 0.03523,0.329167 0.106299,0.428173 0.07056,0.09901 0.157959,0.14851 0.261793,0.14851 0.103834,0 0.190824,-0.0495 0.260868,-0.14851 0.07056,-0.09901 0.105888,-0.242792 0.105888,-0.431768 0,-0.183532 -0.03533,-0.325469 -0.105888,-0.424476 -0.07004,-0.09911 -0.157035,-0.148613 -0.260868,-0.148613 -0.103834,0 -0.191235,0.0495 -0.261793,0.148613 -0.07107,0.09901 -0.106299,0.242073 -0.106299,0.428071 z m 1.44351,-0.939023 0.370967,0 0,0.275966 c 0.04786,-0.0948 0.112974,-0.171413 0.195138,-0.230057 0.08216,-0.05916 0.173467,-0.08874 0.273501,-0.08874 0.174289,0 0.322696,0.08576 0.443887,0.256657 0.121807,0.1709 0.182711,0.409378 0.182711,0.714923 0,0.313453 -0.06142,0.557375 -0.183635,0.731356 -0.122731,0.173878 -0.27155,0.260868 -0.445838,0.260868 -0.08319,0 -0.158472,-0.02054 -0.226154,-0.06162 -0.06707,-0.0417 -0.138137,-0.112358 -0.213008,-0.212597 l 0,0.946931 -0.397567,0 0,-2.59369 z m 0.393665,0.907596 c 0,0.210749 0.03338,0.367167 0.100547,0.467406 0.06655,0.100855 0.148305,0.151591 0.244846,0.151591 0.09233,0 0.169154,-0.04653 0.230468,-0.138856 0.06131,-0.09243 0.09233,-0.244538 0.09233,-0.455287 0,-0.1975 -0.03194,-0.343648 -0.09521,-0.43906 -0.06326,-0.09541 -0.141629,-0.143067 -0.234781,-0.143067 -0.09716,0 -0.177781,0.04642 -0.242073,0.140705 -0.06419,0.09356 -0.09613,0.232419 -0.09613,0.416568 z m 1.29613,0.0049 c 0,-0.164943 0.03286,-0.324956 0.09767,-0.479525 0.06522,-0.153953 0.157445,-0.272371 0.276787,-0.353302 0.119239,-0.08144 0.252652,-0.122526 0.39993,-0.122526 0.227079,0 0.413589,0.09233 0.559018,0.277198 0.145429,0.184765 0.217835,0.4178 0.217835,0.699826 0,0.283874 -0.07343,0.519374 -0.219889,0.706501 -0.146764,0.18723 -0.331323,0.280279 -0.553986,0.280279 -0.13824,0 -0.269085,-0.03872 -0.394178,-0.116569 -0.125196,-0.07795 -0.2203,-0.192057 -0.285517,-0.342415 -0.06481,-0.150359 -0.09767,-0.333377 -0.09767,-0.549467 z m 0.407838,0.0265 c 0,0.186613 0.03523,0.329167 0.106196,0.428173 0.07056,0.09901 0.157959,0.14851 0.261895,0.14851 0.103834,0 0.190721,-0.0495 0.260868,-0.14851 0.07045,-0.09901 0.105785,-0.242792 0.105785,-0.431768 0,-0.183532 -0.03533,-0.325469 -0.105785,-0.424476 -0.07015,-0.09911 -0.157035,-0.148613 -0.260868,-0.148613 -0.103937,0 -0.191338,0.0495 -0.261895,0.148613 -0.07097,0.09901 -0.106196,0.242073 -0.106196,0.428071 z m 2.65942,0.939639 -1.13817,0 0,0.495136 -0.322696,0 0,-0.902153 0.162786,0 c 0.06809,-0.09418 0.124169,-0.24156 0.168537,-0.442038 0.04447,-0.200478 0.07107,-0.544023 0.07929,-1.02961 l 1.21304,0 0,1.47165 0.161348,0 0,0.902153 -0.324134,0 0,-0.495136 z m -0.230981,-0.407016 0.0015,-1.0634 -0.481169,0 c -0.01592,0.519374 -0.08216,0.873806 -0.198116,1.0634 l 0.677744,0 z"
   id="path35"
   style="fill:#2b2a29;fill-rule:nonzero" />
 </g>
</svg>