<?xml version="1.0" encoding="UTF-8" standalone="no"?>
<!-- Created with Inkscape (http://www.inkscape.org/) -->

<svg
   xmlns:svg="http://www.w3.org/2000/svg"
   xmlns="http://www.w3.org/2000/svg"
   version="1.1"
   width="76.084702mm"
   height="69.594101mm"
   viewBox="0 0 76.0848 69.5942"
   id="svg2"
   xml:space="preserve"
   style="fill-rule:evenodd">
 <defs
   id="defs4">
  <style
   type="text/css"
   id="style6" />
 </defs>
 <g
   id="Layer_x0020_1">
  
  <g
   id="_322659008">
   <path
   d="m 24.3479,65.788 0,1.1755 0,-0.0262 c 0,0 0,0 0,-0.0255 l 0,-0.0244 0.0262,-0.0252 c 0,-0.0262 0,-0.0262 0,-0.0262 0,-0.0506 0,-0.0768 0,-0.1278 0,0 0,0 0,-0.0262 0.0262,-0.0241 0.0262,-0.0768 0.0262,-0.1264 l 0,-0.0258 c 0,-0.051 0,-0.1024 0,-0.1547 0,-0.203 -0.0262,-0.407601 -0.0524,-0.587101 z"
   id="_328422088"
   style="fill:#fefefe" />
   <polygon
   points="24.3479,66.9373 24.3479,66.9635 "
   id="_328422016"
   style="fill:#fefefe" />
   <g
   id="g13">
    <path
   d="m 53.2941,55.7742 c 0.409601,0.637701 -1.8903,4.11201 -2.7589,2.9373 -0.383101,-0.510901 -0.0503,-1.3285 0.2808,-1.8659 0.1285,-0.2291 0.2825,0.511301 0.537101,0.537401 0.536401,0.0507 1.8393,-1.8138 1.941,-1.6088 z"
   id="_328421920"
   style="fill:#ffdf49" />
    <path
   d="m 74.6533,26.7994 0.894001,-0.407201 -0.0765,-1.4817 0.614001,-2.5311 -0.817901,0 -0.1275,-0.687701 -0.740701,0 -0.409901,1.0215 -3.4231,-3.0406 -0.536401,0.536701 -2.096,-1.532 -0.995601,1.1999 -1.8139,-2.4781 -1.4066,0.945401 -1.5568,-2.0953 1.5568,-0.459601 -0.3308,-0.818201 -2.376,0.0779 0,-0.818201 0.741001,-0.2047 0,-0.791301 -1.1248,-0.0768 -0.2791,-1.8149 -1.9423,0.1288 -0.0765,-0.792301 0.867501,-0.664301 -0.2546,-0.689701 -1.151,0.3318 -1.3264,0.2043 0,0.409301 -2.0963,0 -0.255,-0.460001 -2.1728,0.1268 0.2057,0.997401 -1.2778,0 -0.2563,-1.4563 -2.426,0.3321 -0.3321,0.535701 -2.6834,0.051 0,-1.1240999 0.588801,-0.2036 0,0.536401 0.611501,-0.0761 0.1274,-1.8656 -1.4548,-1.6863 -0.1537,-1.2272 -1.1241,0 -0.205,-0.715201 1.2006,-0.689401 -0.663501,-0.791301 -1.0205,0.664201 -1.3304,0.1271 0.1281,-0.791301 -0.1281,-1.0225 -3.6271,1.355 -0.819501,-1.15 -1.2754,0.2814 -1.0738,-2.0195 -2.0175,1.4821 -2.2231,1.7377 -0.2553,-0.536401 -0.868901,-0.408201 -1.2784,-0.665901 -2.9632,-0.408301 -0.996301,0.0265 -0.2808,0 -4.03801,0.1013 -0.944601,1.4821 -2.0178,0.3321 -1.8658,0.2808 -0.2043,-2.0182 -0.536101,0.0765 -0.2046,-0.485001 -0.740701,0 0.663801,3.4237 -0.382701,0.0761 0.0517,1.3543 1.0214,0.1795 0.1272,1.481 0.945601,-0.1278 0.0517,1.6099 -1.3294,-0.256 -0.2808,0.792801 -0.945001,0.0761 0.3576,2.1455997 1.1241,-0.535001 1.149,0.0758 0.0771,0.792301 0.0524,0.536101 -0.741801,1.0211 0.3577,1.5341 1.4565,-0.0765 -0.0503,2.9122 -0.818501,0.1788 0.204,1.0986 0.537001,0.869201 -0.868501,0.945001 0.2043,0.868201 0.741701,0.741001 -1.2788,1.201 -5.84971,-0.996301 -3.0930999,-0.1551 -1.7366,1.3557 -2.0178,0.792001 -2.8364,0.817501 -0.408601,0.3328 0.562601,2.6303 -0.3572,1.5335 0.484701,0.944901 0.740701,0.537101 0.382101,1.7378 1.1,-0.3332 0.741701,0.2053 1.1221,-0.2053 0.537101,-1.2767 1.2778,-0.3329 -0.2564,2.146 0.664201,0.2811 -0.0754,0.868501 -0.664901,0.2054 0.3325,1.4814 0.690001,2.8876 0.920501,0 0.740401,3.2188 0.867501,-0.1278 0.3586,1.4049 1.2003,0.2046 0.1285,0.535701 0.690401,-0.0761 0.256,0.536401 0.866701,0 0.409601,2.096 1.5324,-0.2057 0.153,1.4821 -1.4049,0.3321 0.3338,2.683 -3.0417,1.4049 0.2047,1.2251 1.1496,-0.2036 0.2542,0.461001 1.2275,-0.1289 0.3318,1.9417 -0.868201,0.409601 0.408301,1.5586 0.868801,-0.0769 0.383101,1.1493 2.5039,-0.945701 0.459601,1.2017 -0.535401,0.3314 0.409601,0.894001 1.2751,-0.407201 1.1506,0.945701 1.6099,0.0499 1.4821,3.96051 -0.894301,0.408301 0.742001,2.1456 0.611501,0.0517 0.0248,0 c 0,0 0,-0.0252 0.0256,-0.0517 0.0265,-0.0772 0.0509,-0.1781 0.1036,-0.2805 0,0 0,0 0,-0.0261 0,0 0,0 0,-0.0248 0,0 0.0255,0 0.0255,-0.0255 l 0,-0.0248 0,-0.0266 c 0,0 0,-0.0258 0.0241,-0.0258 l 0,-0.0251 c 0,-0.0266 0,-0.0517 0,-0.0517 0.0262,-0.0255 0.0262,-0.0255 0.0262,-0.0255 0,-0.0255 0,-0.0255 0,-0.0503 l 0,-0.0255 c 0.0259,-0.0513 0.0259,-0.1027 0.0259,-0.1285 0,-0.0258 0.0251,-0.0258 0.0251,-0.0503 l 0,-0.0262 0,-1.1755 c -0.0772,-0.3321 -0.1795,-0.664901 -0.2808,-0.996001 -0.1546,-0.459901 -0.2549,-0.894601 -0.205,-1.3801 0,-0.0251 0.0769,0.2047 0.205,0.587501 0.0769,0.2301 0.1795,0.537701 0.2808,0.819201 0.2546,0.689001 0.536401,1.378 0.714501,1.3022 0.690101,-0.3328 1.2785,-1.0215 1.4824,-1.7632 0.409001,-1.2774 -1.0972,-2.1456 -1.2006,-3.0913 -0.052,-0.484701 0.051,-1.4066 0.536801,-1.3287 0.637701,0.1023 0.663801,1.0989 1.0728,1.6088 0.358,0.409701 1.0983,0.537501 1.2013,1.0742 0.1275,0.535701 -0.639101,0.944001 -0.665301,1.4824 -0.0251,0.509901 0.1799,1.0973 0.537501,1.4814 0.2801,0.3059 1.0218,0 1.2261,0.383101 0.3063,0.637701 0.1285,1.2513 -0.2043,1.8649 -0.434801,0.817101 -1.0979,1.4827 -1.0979,1.4827 l 0.970401,0.2791 c 0.409001,-0.892601 0.843101,-1.8135 1.3026,-2.6824 0.0255,-0.0244 0.0255,-0.0496 0.0513,-0.0758 0.0248,-0.0248 0.0248,-0.0768 0.0507,-0.1023 0.0262,-0.0517 0.0506,-0.1023 0.0772,-0.1536 0.0248,-0.0245 0.0248,-0.0503 0.0513,-0.0758 0.638401,-1.1252 2.2741,-2.7072 2.2741,-4.01151 0,-0.689701 -1.6357,1.5327 -1.7384,1.4555 -0.562201,-0.383701 -0.486101,-1.2774 -0.818201,-1.8644 -0.3307,-0.663601 -0.894301,-1.2024 -1.1989,-1.89 -0.309,-0.664901 -0.435501,-1.4056 -0.537801,-2.1467 -0.0765,-0.613501 0.1023,-1.2509 0,-1.8913 -0.0765,-0.560201 -0.612901,-1.0466 -0.535701,-1.6095 0.102,-0.792101 0.407601,-1.7109 1.0735,-2.1457 0.382401,-0.2556 -0.0775,0.945001 0.1271,1.3536 0.153,0.2822 0.689101,0.2305 0.817601,0.537801 0.1278,0.3314 -0.308,0.740301 -0.1285,1.0732 0.638701,1.3277 0.434701,2.9624 1.2009,4.29081 3.1171,5.36641 6.66801,-1.7883 9.27451,-3.6277 0.612301,-0.432701 1.4046,-0.613201 2.0179,-1.0728 0.408501,-0.3066 0.511901,-0.944601 0.945601,-1.2013 1.2,-0.765801 3.4241,-0.970101 4.82831,-1.0724 0.613601,-0.051 1.2523,0.0509 1.8917,0 0.613601,-0.0765 2.5804,-0.867801 2.9384,0 0.228,0.536701 -0.0776,1.2002 0.1264,1.7366 0.612901,1.5844 2.1976,-1.7366 2.4274,-2.1452 0.459901,-0.741801 0.587401,-1.7119 1.2261,-2.2996 0.510601,-0.459601 1.3543,-0.383101 1.993,-0.664301 2.5807,-1.0476 4.06211,-2.8866 7.00011,-1.3284 1.7377,0.894001 1.942,2.0182 1.0721,3.7566 -0.1516,0.28 -0.867501,0.433001 -0.662501,0.663101 0.2808,0.3583 1.0731,0.484801 1.3281,0.1282 0.587701,-0.767201 0.408601,-1.891 0.689701,-2.8102 0.485401,-1.6595 0.894701,-3.1433 2.4012,-4.16511 0.767601,-0.535701 1.5844,-0.970101 2.4026,-1.3791 l 0.0248,-0.0261 c 0.0517,-0.0262 0.0765,-0.0503 0.1268,-0.0503 l 0.1292,-0.435501 -1.0748,-1.4042 0.743101,-1.6864 1.686,0.3314 0.868101,-0.868101 -1.0724,-0.868201 0.663801,-1.2003 -1.328,-0.894301 -0.817501,0.739601 -1.3288,-1.6085 -0.945701,-1.1251 -1.4053,-0.945401 -1.6092,-1.0728 2.2745,-0.740301 -0.997401,-1.2272 -0.945601,-2.272 0.3335,-0.410301 0.663101,0.536001 1.2785,-0.407501 0.407901,0.816401 2.8856,-1.5323 -0.1271,-2.2224 0.793401,-0.1537 0.535701,1.3525 z"
   id="_328421872"
   style="fill:#ffdf49" />
   </g>
   <polygon
   points="24.0671,67.884 24.0671,67.9095 "
   id="_328128936"
   style="fill:#fefefe" />
   <g
   id="g18">
    <path
   d="m 28.7862,49.4211 c 0.472001,0 0.864101,-0.3738 0.864101,-0.845101 0,-0.471301 -0.392101,-0.844401 -0.864101,-0.844401 -0.450201,0 -0.822701,0.3731 -0.822701,0.844401 0,0.471301 0.3725,0.845101 0.822701,0.845101 z"
   id="_328128864"
   style="fill:#fefefe;stroke:#2b2a29;stroke-width:0.1185" />
    <path
   d="m 28.7976,48.7779 c 0.1099,0 0.2036,-0.0927 0.2036,-0.2019 0,-0.1096 -0.0937,-0.2012 -0.2036,-0.2012 -0.0999,0 -0.184,0.0916 -0.184,0.2012 0,0.1092 0.0841,0.2019 0.184,0.2019 z"
   id="_328128816"
   style="fill:#2b2a29;stroke:#2b2a29;stroke-width:0.0762001" />
   </g>
   <g
   id="g22">
    <path
   d="m 36.7303,33.5339 c 0.470201,0 0.862301,-0.3724 0.862301,-0.844701 0,-0.471001 -0.392101,-0.843401 -0.862301,-0.843401 -0.451301,0 -0.824401,0.3724 -0.824401,0.843401 0,0.472301 0.3731,0.844701 0.824401,0.844701 z"
   id="_328128696"
   style="fill:#fefefe;stroke:#2b2a29;stroke-width:0.1185" />
    <path
   d="m 36.741,32.8904 c 0.1102,0 0.2029,-0.0917 0.2029,-0.2012 0,-0.1082 -0.0927,-0.2012 -0.2029,-0.2012 -0.101,0 -0.1836,0.093 -0.1836,0.2012 0,0.1095 0.0826,0.2012 0.1836,0.2012 z"
   id="_328128648"
   style="fill:#2b2a29;stroke:#2b2a29;stroke-width:0.0762001" />
   </g>
   <g
   id="g26">
    <path
   d="m 66.3358,48.2852 c 0.472001,0 0.862701,-0.3734 0.862701,-0.844701 0,-0.471001 -0.390701,-0.843701 -0.862701,-0.843701 -0.449901,0 -0.823701,0.3727 -0.823701,0.843701 0,0.471301 0.3738,0.844701 0.823701,0.844701 z"
   id="_328128528"
   style="fill:#fefefe;stroke:#2b2a29;stroke-width:0.1185" />
    <path
   d="m 66.3475,47.6424 c 0.1089,0 0.2022,-0.0924 0.2022,-0.2019 0,-0.1082 -0.0933,-0.2016 -0.2022,-0.2016 -0.1006,0 -0.1836,0.0934 -0.1836,0.2016 0,0.1095 0.083,0.2019 0.1836,0.2019 z"
   id="_328128480"
   style="fill:#2b2a29;stroke:#2b2a29;stroke-width:0.0762001" />
   </g>
   <g
   id="g30">
    <path
   d="m 9.29011,26.52 c 0.471001,0 0.863401,-0.3727 0.863401,-0.844701 0,-0.470601 -0.392401,-0.843001 -0.863401,-0.843001 -0.451001,0 -0.824801,0.3724 -0.824801,0.843001 0,0.472001 0.3738,0.844701 0.824801,0.844701 z"
   id="_328128360"
   style="fill:#fefefe;stroke:#2b2a29;stroke-width:0.1185" />
    <path
   d="m 9.30111,25.8775 c 0.1092,0 0.2019,-0.0927 0.2019,-0.2022 0,-0.1082 -0.0927,-0.2005 -0.2019,-0.2005 -0.1013,0 -0.1839,0.0923 -0.1839,0.2005 0,0.1095 0.0826,0.2022 0.1839,0.2022 z"
   id="_328128312"
   style="fill:#2b2a29;stroke:#2b2a29;stroke-width:0.0762001" />
   </g>
   <path
   d="m 28.9637,47.0544 0,-1.5151 0.3019,0 0.3585,1.0727 c 0.0331,0.0999 0.0575,0.1747 0.0723,0.2244 0.0173,-0.055 0.0441,-0.1362 0.0808,-0.2431 l 0.3626,-1.054 0.2699,0 0,1.5151 -0.1933,0 0,-1.2682 -0.440301,1.2682 -0.181,0 -0.438101,-1.2897 0,1.2897 -0.1933,0 z m 2.5204,-0.3535 0.1923,0.0237 c -0.0303,0.1125 -0.0864,0.1996 -0.1683,0.2617 -0.0822,0.0618 -0.1869,0.0928 -0.3143,0.0928 -0.1605,0 -0.2878,-0.0494 -0.381701,-0.1482 -0.0942,-0.0987 -0.1411,-0.2374 -0.1411,-0.415901 0,-0.1848 0.0476,-0.3281 0.1425,-0.430001 0.0953,-0.102 0.2184,-0.1531 0.3701,-0.1531 0.1467,0 0.2667,0.0501 0.3594,0.1499 0.0932,0.0999 0.1397,0.2406 0.1397,0.421601 0,0.0113 -3e-4,0.0278 -0.001,0.0497 l -0.818401,0 c 0.0067,0.1207 0.0409,0.2131 0.1023,0.2769 0.0614,0.0642 0.1375,0.0963 0.2293,0.0963 0.0681,0 0.1263,-0.0179 0.1746,-0.0539 0.0483,-0.0357 0.0864,-0.0928 0.1146,-0.1715 z M 30.873499,46.4 31.4863,46.4 C 31.4781,46.3079 31.4545,46.2385 31.4161,46.1926 31.3568,46.121 31.2799,46.085 31.1857,46.085 c -0.0854,0 -0.1573,0.0286 -0.2155,0.0857 -0.0583,0.0572 -0.0904,0.1337 -0.0967,0.2293 z m 1.0573,-0.443101 0.864201,0 0,1.0975 -0.1852,0 0,-0.943701 -0.492801,0 0,0.546801 c 0,0.1274 -0.0042,0.2117 -0.0123,0.2523 -0.0085,0.0405 -0.0311,0.0762 -0.0685,0.1065 -0.037,0.0303 -0.091,0.0455 -0.1612,0.0455 -0.0434,0 -0.0935,-0.0028 -0.1499,-0.0085 l 0,-0.1548 0.0818,0 c 0.0385,0 0.066,-0.0043 0.0826,-0.012 0.0166,-0.0081 0.0275,-0.0205 0.0331,-0.0378 0.0057,-0.0172 0.0082,-0.0733 0.0082,-0.1686 l 0,-0.723201 z m 1.145,-0.2035 0,-0.2141 0.1863,0 0,0.2141 -0.1863,0 z m 0,1.301 0,-1.0975 0.1863,0 0,1.0975 -0.1863,0 z m 0.369,-1.0975 0.892101,0 0,0.1538 -0.3535,0 0,0.943701 -0.1852,0 0,-0.943701 -0.3534,0 0,-0.1538 z M 34.4216,46.5055 c 0,-0.2032 0.0564,-0.3538 0.1697,-0.451501 0.0942,-0.0812 0.2092,-0.1221 0.345,-0.1221 0.151,0 0.2744,0.0494 0.37,0.1485 0.096,0.0988 0.1436,0.2353 0.1436,0.409601 0,0.1414 -0.0212,0.2526 -0.0635,0.3333 -0.0423,0.0812 -0.104,0.144 -0.1848,0.1888 -0.0812,0.0448 -0.1694,0.067 -0.2653,0.067 -0.1535,0 -0.2776,-0.049 -0.3725,-0.1478 -0.0949,-0.0984 -0.1422,-0.2402 -0.1422,-0.425801 z m 0.1912,0 c 0,0.1407 0.0307,0.2459 0.0921,0.3157 0.0614,0.0702 0.1386,0.1051 0.2314,0.1051 0.0924,0 0.1693,-0.0352 0.2307,-0.1054 0.061,-0.0702 0.0917,-0.1775 0.0917,-0.3214 0,-0.1358 -0.0307,-0.2388 -0.0924,-0.3087 -0.0617,-0.0698 -0.1383,-0.1047 -0.23,-0.1047 -0.0928,0 -0.17,0.0349 -0.2314,0.1044 -0.0614,0.0695 -0.0921,0.1746 -0.0921,0.315 z m 1.0562,-0.548601 0.866401,0 0,1.0975 -0.1863,0 0,-0.943701 -0.493801,0 0,0.943701 -0.1863,0 0,-1.0975 z m 1.0759,0.548601 c 0,-0.2032 0.0564,-0.3538 0.1697,-0.451501 0.0942,-0.0812 0.2092,-0.1221 0.345,-0.1221 0.151,0 0.2744,0.0494 0.37,0.1485 0.096,0.0988 0.1436,0.2353 0.1436,0.409601 0,0.1414 -0.0212,0.2526 -0.0635,0.3333 -0.0423,0.0812 -0.104,0.144 -0.1848,0.1888 -0.0812,0.0448 -0.1694,0.067 -0.2653,0.067 -0.1535,0 -0.2776,-0.049 -0.3725,-0.1478 -0.0949,-0.0984 -0.1422,-0.2402 -0.1422,-0.425801 z m 0.1912,0 c 0,0.1407 0.0307,0.2459 0.0921,0.3157 0.0614,0.0702 0.1386,0.1051 0.2314,0.1051 0.0924,0 0.1693,-0.0352 0.2307,-0.1054 0.061,-0.0702 0.0917,-0.1775 0.0917,-0.3214 0,-0.1358 -0.0307,-0.2388 -0.0924,-0.3087 -0.0617,-0.0698 -0.1383,-0.1047 -0.23,-0.1047 -0.0928,0 -0.17,0.0349 -0.2314,0.1044 -0.0614,0.0695 -0.0921,0.1746 -0.0921,0.315 z m 1.0996,-0.548601 0.864201,0 0,1.0975 -0.1852,0 0,-0.943701 -0.492801,0 0,0.546801 c 0,0.1274 -0.0042,0.2117 -0.0123,0.2523 -0.0085,0.0405 -0.0311,0.0762 -0.0685,0.1065 -0.037,0.0303 -0.091,0.0455 -0.1612,0.0455 -0.0434,0 -0.0935,-0.0028 -0.1499,-0.0085 l 0,-0.1548 0.0818,0 c 0.0385,0 0.066,-0.0043 0.0826,-0.012 0.0166,-0.0081 0.0275,-0.0205 0.0331,-0.0378 0.0057,-0.0172 0.0082,-0.0733 0.0082,-0.1686 l 0,-0.723201 z m 1.1411,0 0.1859,0 0,0.428701 0.2357,0 c 0.1538,0 0.272,0.0299 0.3549,0.0896 0.0832,0.0596 0.1245,0.1418 0.1245,0.2465 0,0.0914 -0.0346,0.1701 -0.1037,0.235 -0.0692,0.0652 -0.1799,0.0977 -0.3323,0.0977 l -0.465001,0 0,-1.0975 z m 0.1859,0.944401 0.1955,0 c 0.1178,0 0.2017,-0.0145 0.2522,-0.0434 0.0501,-0.0289 0.0751,-0.0741 0.0751,-0.1351 0,-0.0476 -0.0183,-0.09 -0.0557,-0.1273 -0.037,-0.0371 -0.1196,-0.0558 -0.2469,-0.0558 l -0.2202,0 0,0.3616 z"
   id="_328128192"
   style="fill:#2b2a29;fill-rule:nonzero" />
   <path
   d="m 37.0697,31.2288 0,-1.3363 -0.499201,0 0,-0.1788 1.2009,0 0,0.1788 -0.501301,0 0,1.3363 -0.2004,0 z m 0.648801,-0.548901 c 0,-0.2032 0.0564,-0.3538 0.1697,-0.451501 0.0942,-0.0812 0.2092,-0.1221 0.345,-0.1221 0.151,0 0.2744,0.0494 0.37,0.1485 0.096,0.0988 0.1436,0.2353 0.1436,0.409601 0,0.1414 -0.0212,0.2526 -0.0635,0.3333 -0.0423,0.0812 -0.104,0.144 -0.1848,0.1888 -0.0812,0.0448 -0.1694,0.067 -0.2653,0.067 -0.1535,0 -0.2776,-0.049 -0.3725,-0.1478 -0.0949,-0.0984 -0.1422,-0.2402 -0.1422,-0.425801 z m 0.1912,0 c 0,0.1407 0.0307,0.2459 0.0921,0.3157 0.0614,0.0702 0.1386,0.1051 0.2314,0.1051 0.0924,0 0.1693,-0.0352 0.2307,-0.1054 0.061,-0.0702 0.0917,-0.1775 0.0917,-0.3214 0,-0.1358 -0.0307,-0.2388 -0.0924,-0.3087 -0.0617,-0.0698 -0.1383,-0.1047 -0.23,-0.1047 -0.0928,0 -0.17,0.0349 -0.2314,0.1044 -0.0614,0.0695 -0.0921,0.1746 -0.0921,0.315 z m 1.0544,-0.548601 0.1859,0 0,0.474201 c 0.0593,0 0.1009,-0.0113 0.1246,-0.0339 0.0236,-0.0229 0.0585,-0.0889 0.1047,-0.1986 0.0367,-0.0868 0.0664,-0.1439 0.0889,-0.1715 0.023,-0.0275 0.0491,-0.0462 0.0787,-0.0557 0.0296,-0.0099 0.0773,-0.0145 0.1425,-0.0145 l 0.0374,0 0,0.1538 -0.0518,-10e-4 c -0.0487,0 -0.0801,0.0074 -0.0939,0.0219 -0.0144,0.0151 -0.0367,0.0603 -0.0663,0.1354 -0.0282,0.0716 -0.054,0.121 -0.0776,0.1485 -0.0233,0.0279 -0.0596,0.053 -0.1083,0.0755 0.0797,0.0216 0.1584,0.096 0.2356,0.2233 l 0.2036,0.3401 -0.2046,0 -0.1986,-0.3401 c -0.0406,-0.0681 -0.0762,-0.1132 -0.1062,-0.1347 -0.0303,-0.0219 -0.0667,-0.0325 -0.1087,-0.0325 l 0,0.507301 -0.1859,0 0,-1.0975 z m 0.932001,0 0.2893,0 0.2886,0.878401 0.3203,-0.878401 0.2677,0 0,1.0975 -0.1859,0 0,-0.883701 -0.3245,0.883701 -0.1665,0 -0.3069,-0.926001 0,0.926001 -0.1821,0 0,-1.0975 z m 2.1664,0.962001 c -0.0691,0.0586 -0.1355,0.0999 -0.1989,0.1242 -0.0639,0.024 -0.1323,0.036 -0.2054,0.036 -0.1206,0 -0.213,-0.0293 -0.2779,-0.0882 -0.0646,-0.0589 -0.097,-0.1344 -0.097,-0.2258 0,-0.0539 0.0119,-0.103 0.0366,-0.1474 0.0244,-0.0445 0.0565,-0.0801 0.096,-0.1069 0.0399,-0.0268 0.0843,-0.0473 0.134,-0.061 0.0364,-0.0096 0.0914,-0.0191 0.1651,-0.0279 0.1503,-0.018 0.2611,-0.0392 0.332,-0.0642 7e-4,-0.0254 10e-4,-0.0416 10e-4,-0.0483 0,-0.0759 -0.0176,-0.1295 -0.0529,-0.1602 -0.0472,-0.0423 -0.1181,-0.0631 -0.2116,-0.0631 -0.0875,0 -0.1521,0.0151 -0.194,0.0458 -0.0417,0.0307 -0.0724,0.085 -0.0925,0.163 l -0.1816,-0.0251 c 0.0165,-0.0776 0.0437,-0.1407 0.0814,-0.1883 0.0378,-0.048 0.0928,-0.085 0.1644,-0.1108 0.0716,-0.0258 0.1545,-0.0388 0.2491,-0.0388 0.0938,0 0.1697,0.0113 0.2282,0.0332 0.0586,0.0222 0.1016,0.0497 0.1295,0.0832 0.0275,0.0335 0.0466,0.0755 0.0578,0.1267 0.006,0.0317 0.0092,0.0888 0.0092,0.1714 l 0,0.248 c 0,0.1732 0.0039,0.2826 0.012,0.3281 0.0078,0.0458 0.0236,0.0899 0.0469,0.1319 l -0.1943,0 c -0.0191,-0.0385 -0.0318,-0.0836 -0.0371,-0.1355 z m -0.0155,-0.415501 c -0.0677,0.0278 -0.169,0.0511 -0.3037,0.0705 -0.0766,0.011 -0.1309,0.0233 -0.1623,0.0371 -0.0318,0.0137 -0.0565,0.0338 -0.0734,0.0606 -0.0173,0.0265 -0.0261,0.0558 -0.0261,0.0882 0,0.0498 0.0191,0.0911 0.0564,0.1242 0.0374,0.0328 0.0925,0.0494 0.1648,0.0494 0.0716,0 0.1355,-0.0155 0.1912,-0.0469 0.0557,-0.0314 0.097,-0.0745 0.1231,-0.1288 0.0201,-0.042 0.03,-0.104 0.03,-0.1859 l 0,-0.0684 z m 0.475501,-0.546501 0.1859,0 0,0.474201 c 0.0593,0 0.1009,-0.0113 0.1246,-0.0339 0.0236,-0.0229 0.0585,-0.0889 0.1047,-0.1986 0.0367,-0.0868 0.0664,-0.1439 0.0889,-0.1715 0.023,-0.0275 0.0491,-0.0462 0.0787,-0.0557 0.0296,-0.0099 0.0773,-0.0145 0.1425,-0.0145 l 0.0374,0 0,0.1538 -0.0518,-0.001 c -0.0487,0 -0.0801,0.0074 -0.0939,0.0219 -0.0144,0.0151 -0.0367,0.0603 -0.0663,0.1354 -0.0282,0.0716 -0.054,0.121 -0.0776,0.1485 -0.0233,0.0279 -0.0596,0.053 -0.1083,0.0755 0.0797,0.0216 0.1584,0.096 0.2356,0.2233 l 0.2036,0.3401 -0.2046,0 -0.1986,-0.3401 c -0.0406,-0.0681 -0.0762,-0.1132 -0.1062,-0.1347 -0.0303,-0.0219 -0.0667,-0.0325 -0.1087,-0.0325 l 0,0.507301 -0.1859,0 0,-1.0975 z"
   id="_328128120"
   style="fill:#2b2a29;fill-rule:nonzero" />
   <path
   d="m 56.3681,44.2437 0.982801,0 0,0.1788 -0.782101,0 0,0.467101 0.3616,0 c 0.1337,0 0.2399,0.0127 0.3189,0.0384 0.0787,0.0254 0.1422,0.0734 0.1894,0.144 0.0477,0.0705 0.0717,0.1527 0.0717,0.2465 0,0.0766 -0.0173,0.1479 -0.0512,0.2145 -0.0342,0.0663 -0.085,0.1207 -0.1527,0.1627 -0.0674,0.0419 -0.1824,0.0631 -0.345,0.0631 l -0.593401,0 0,-1.5151 z m 0.2007,1.3447 0.400801,0 c 0.1083,0 0.1894,-0.0222 0.2434,-0.0663 0.0543,-0.0441 0.0811,-0.1101 0.0811,-0.1983 0,-0.0628 -0.0155,-0.1153 -0.0465,-0.1573 -0.0307,-0.042 -0.0741,-0.0698 -0.1292,-0.0836 -0.055,-0.0138 -0.1492,-0.0208 -0.2822,-0.0208 l -0.2674,0 0,0.526301 z m 1.9067,-0.1831 0.1923,0.0237 c -0.0303,0.1125 -0.0864,0.1996 -0.1683,0.2617 -0.0822,0.0618 -0.1869,0.0928 -0.3143,0.0928 -0.1605,0 -0.2878,-0.0494 -0.381701,-0.1482 -0.0942,-0.0987 -0.1411,-0.2374 -0.1411,-0.415901 0,-0.1848 0.0476,-0.3281 0.1425,-0.430001 0.0953,-0.102 0.2184,-0.1531 0.3701,-0.1531 0.1467,0 0.2667,0.0501 0.3594,0.1499 0.0932,0.0999 0.1397,0.2406 0.1397,0.421601 0,0.0113 -3e-4,0.0278 -10e-4,0.0497 l -0.818401,0 c 0.0067,0.1207 0.0409,0.2131 0.1023,0.2769 0.0614,0.0642 0.1375,0.0963 0.2293,0.0963 0.0681,0 0.1263,-0.0179 0.1746,-0.0539 0.0483,-0.0357 0.0864,-0.0928 0.1146,-0.1715 z m -0.610601,-0.3009 0.612801,0 c -0.0082,-0.0921 -0.0318,-0.1615 -0.0702,-0.2074 -0.0593,-0.0716 -0.1362,-0.1076 -0.2304,-0.1076 -0.0854,0 -0.1573,0.0286 -0.2155,0.0857 -0.0583,0.0572 -0.0904,0.1337 -0.0967,0.2293 z m 1.0368,1.0749 0,-1.518 0.1693,0 0,0.1426 c 0.0399,-0.0558 0.085,-0.0978 0.1355,-0.1256 0.0501,-0.0279 0.1111,-0.042 0.1827,-0.042 0.0939,0 0.1764,0.0243 0.248,0.0723 0.072,0.0483 0.126,0.1164 0.1623,0.2043 0.0367,0.0878 0.055,0.1841 0.055,0.2889 0,0.1122 -0.0201,0.2134 -0.0607,0.3034 -0.0402,0.0899 -0.0987,0.1587 -0.1756,0.2067 -0.0769,0.0476 -0.1577,0.0716 -0.2424,0.0716 -0.0621,0 -0.1175,-0.0131 -0.1668,-0.0392 -0.0494,-0.0261 -0.0896,-0.0592 -0.1214,-0.0991 l 0,0.534101 -0.1859,0 z m 0.1683,-0.963101 c 0,0.1412 0.0285,0.2456 0.0857,0.3133 0.0571,0.0674 0.1266,0.1012 0.2078,0.1012 0.0825,0 0.1534,-0.0349 0.2123,-0.1051 0.0589,-0.0698 0.0886,-0.1781 0.0886,-0.3249 0,-0.14 -0.0289,-0.2444 -0.0865,-0.3143 -0.0575,-0.0695 -0.1262,-0.1044 -0.206,-0.1044 -0.0793,0 -0.1495,0.037 -0.2106,0.1111 -0.061,0.0741 -0.0913,0.182 -0.0913,0.3231 z m 1.1069,-0.554901 0.764801,0 0,0.944401 0.1186,0 0,0.464201 -0.1528,0 0,-0.3111 -0.863901,0 0,0.3111 -0.1531,0 0,-0.464201 0.0981,0 c 0.1308,-0.1778 0.1936,-0.492501 0.1883,-0.944401 z m 0.1549,0.1538 c -0.0137,0.3563 -0.0688,0.619901 -0.1654,0.790601 l 0.590101,0 0,-0.790601 -0.424701,0 z m 1.7973,-0.1538 0,1.0975 -0.1852,0 0,-0.427901 -0.1072,0 c -0.0656,0 -0.1143,0.0085 -0.1464,0.0254 -0.0321,0.0169 -0.0787,0.0713 -0.1401,0.1626 l -0.1622,0.2399 -0.2304,0 0.2004,-0.2956 c 0.0614,-0.0903 0.1224,-0.1411 0.1831,-0.1528 -0.1062,-0.0148 -0.1849,-0.0529 -0.2364,-0.115 -0.0511,-0.0617 -0.0769,-0.1333 -0.0769,-0.2137 0,-0.0953 0.0335,-0.1722 0.1009,-0.2315 0.067,-0.0592 0.1644,-0.0889 0.2917,-0.0889 l 0.508701,0 z m -0.1852,0.1538 -0.2646,0 c -0.1107,0 -0.1823,0.0173 -0.2144,0.0519 -0.0318,0.0342 -0.048,0.0748 -0.048,0.1207 0,0.0656 0.0236,0.1135 0.0709,0.1442 0.0473,0.0307 0.1305,0.0462 0.2505,0.0462 l 0.2056,0 0,-0.363 z m 0.468101,-0.1538 0.1863,0 0,0.456901 0.515701,0 0,-0.456901 0.1859,0 0,1.0975 -0.1859,0 0,-0.486801 -0.515701,0 0,0.486801 -0.1863,0 0,-1.0975 z m 1.8841,0.695301 0.1827,0.024 c -0.0197,0.126 -0.0709,0.2247 -0.1534,0.296 -0.0822,0.0713 -0.1834,0.1069 -0.3034,0.1069 -0.1499,0 -0.2709,-0.049 -0.3619,-0.1471 -0.0914,-0.0981 -0.1373,-0.2388 -0.1373,-0.422301 0,-0.1185 0.0198,-0.2222 0.059,-0.3111 0.0395,-0.0889 0.0991,-0.1556 0.1795,-0.2 0.0801,-0.0445 0.1676,-0.0667 0.2618,-0.0667 0.1192,0 0.2169,0.0303 0.2924,0.0907 0.0759,0.0603 0.1245,0.1457 0.1461,0.2568 l -0.181,0.0278 c -0.0173,-0.0737 -0.0476,-0.1291 -0.0914,-0.1665 -0.0437,-0.037 -0.0966,-0.0557 -0.1587,-0.0557 -0.0939,0 -0.1701,0.0335 -0.2286,0.1009 -0.0586,0.067 -0.0879,0.1732 -0.0879,0.3185 0,0.1475 0.0283,0.2547 0.0851,0.3218 0.0564,0.0666 0.1301,0.1001 0.2211,0.1001 0.0731,0 0.1337,-0.0225 0.1828,-0.0673 0.049,-0.0448 0.0801,-0.1136 0.0931,-0.2068 z m 0.339,-0.695301 0.1859,0 0,0.428701 0.2357,0 c 0.1538,0 0.272,0.0299 0.3549,0.0896 0.0832,0.0596 0.1245,0.1418 0.1245,0.2465 0,0.0914 -0.0346,0.1701 -0.1037,0.235 -0.0692,0.0652 -0.1799,0.0977 -0.3323,0.0977 l -0.465001,0 0,-1.0975 z m 0.1859,0.944401 0.1955,0 c 0.1178,0 0.2017,-0.0145 0.2522,-0.0434 0.0501,-0.0289 0.0751,-0.0741 0.0751,-0.1351 0,-0.0476 -0.0183,-0.09 -0.0557,-0.1273 -0.037,-0.0371 -0.1196,-0.0558 -0.2469,-0.0558 l -0.2202,0 0,0.3616 z m 0.918901,-0.944401 0.1859,0 0,0.474201 c 0.0593,0 0.1009,-0.0113 0.1246,-0.0339 0.0236,-0.0229 0.0585,-0.0889 0.1047,-0.1986 0.0367,-0.0868 0.0664,-0.1439 0.0889,-0.1715 0.023,-0.0275 0.0491,-0.0462 0.0787,-0.0557 0.0296,-0.0099 0.0773,-0.0145 0.1425,-0.0145 l 0.0374,0 0,0.1538 -0.0518,-10e-4 c -0.0487,0 -0.0801,0.0074 -0.0939,0.0219 -0.0144,0.0151 -0.0367,0.0603 -0.0663,0.1354 -0.0282,0.0716 -0.054,0.121 -0.0776,0.1485 -0.0233,0.0279 -0.0596,0.053 -0.1083,0.0755 0.0797,0.0216 0.1584,0.096 0.2356,0.2233 l 0.2036,0.3401 -0.2046,0 -0.1986,-0.3401 c -0.0406,-0.0681 -0.0762,-0.1132 -0.1062,-0.1347 -0.0303,-0.0219 -0.0667,-0.0325 -0.1087,-0.0325 l 0,0.507301 -0.1859,0 0,-1.0975 z"
   id="_328128048"
   style="fill:#2b2a29;fill-rule:nonzero" />
   <path
   d="m 4.83231,28.4837 0,-1.5151 1.0953,0 0,0.1788 -0.895001,0 0,0.463901 0.838201,0 0,0.1778 -0.838201,0 0,0.515701 0.930301,0 0,0.1789 -1.1306,0 z m 1.3846,-1.0975 0.1863,0 0,0.456901 0.515701,0 0,-0.456901 0.1859,0 0,1.0975 -0.1859,0 0,-0.486801 -0.515701,0 0,0.486801 -0.1863,0 0,-1.0975 z m 1.919,0.744001 0.1923,0.0237 c -0.0303,0.1125 -0.0864,0.1996 -0.1683,0.2617 -0.0822,0.0618 -0.1869,0.0928 -0.3143,0.0928 -0.1605,0 -0.2878,-0.0494 -0.381701,-0.1482 -0.0942,-0.0987 -0.1411,-0.2374 -0.1411,-0.415901 0,-0.1848 0.0476,-0.3281 0.1425,-0.430001 0.0953,-0.102 0.2184,-0.1531 0.3701,-0.1531 0.1467,0 0.2667,0.0501 0.3594,0.1499 0.0932,0.0999 0.1397,0.2406 0.1397,0.421601 0,0.0113 -3e-4,0.0278 -0.001,0.0497 l -0.818401,0 c 0.0067,0.1207 0.0409,0.2131 0.1023,0.2769 0.0614,0.0642 0.1375,0.0963 0.2293,0.0963 0.0681,0 0.1263,-0.0179 0.1746,-0.0539 0.0483,-0.0357 0.0864,-0.0928 0.1146,-0.1715 z m -0.610601,-0.3009 0.612801,0 c -0.0082,-0.0921 -0.0318,-0.1615 -0.0702,-0.2074 -0.0593,-0.0716 -0.1362,-0.1076 -0.2304,-0.1076 -0.0854,0 -0.1573,0.0286 -0.2155,0.0857 -0.0583,0.0572 -0.0904,0.1337 -0.0967,0.2293 z m 1.0368,1.0749 0,-1.518 0.1693,0 0,0.1426 c 0.0399,-0.0558 0.085,-0.0978 0.1355,-0.1256 0.0501,-0.0279 0.1111,-0.042 0.1827,-0.042 0.0939,0 0.1764,0.0243 0.248,0.0723 0.072,0.0483 0.126,0.1164 0.1623,0.2043 0.0367,0.0878 0.055,0.1841 0.055,0.2889 0,0.1122 -0.0201,0.2134 -0.0607,0.3034 -0.0402,0.0899 -0.0987,0.1587 -0.1756,0.2067 -0.0769,0.0476 -0.1577,0.0716 -0.2424,0.0716 -0.0621,0 -0.1175,-0.0131 -0.1668,-0.0392 -0.0494,-0.0261 -0.0896,-0.0592 -0.1214,-0.0991 l 0,0.534101 -0.1859,0 z m 0.1683,-0.963101 c 0,0.1412 0.0285,0.2456 0.0857,0.3133 0.0571,0.0674 0.1266,0.1012 0.2078,0.1012 0.0825,0 0.1534,-0.0349 0.2123,-0.1051 0.0589,-0.0698 0.0886,-0.1781 0.0886,-0.3249 0,-0.14 -0.0289,-0.2444 -0.0865,-0.3143 -0.0575,-0.0695 -0.1262,-0.1044 -0.206,-0.1044 -0.0793,0 -0.1495,0.037 -0.2106,0.1111 -0.061,0.0741 -0.0913,0.182 -0.0913,0.3231 z m 1.0096,-0.554901 0.631501,0 0,0.1538 -0.445201,0 0,0.943701 -0.1863,0 0,-1.0975 z M 10.39511,27.9348 c 0,-0.2032 0.0564,-0.3538 0.1697,-0.451501 0.0942,-0.0812 0.2092,-0.1221 0.345,-0.1221 0.151,0 0.2744,0.0494 0.37,0.1485 0.096,0.0988 0.1436,0.2353 0.1436,0.409601 0,0.1414 -0.0212,0.2526 -0.0635,0.3333 -0.0423,0.0812 -0.104,0.144 -0.1848,0.1888 -0.0812,0.0448 -0.1694,0.067 -0.2653,0.067 -0.1535,0 -0.2776,-0.049 -0.3725,-0.1478 -0.0949,-0.0984 -0.1422,-0.2402 -0.1422,-0.425801 z m 0.1912,0 c 0,0.1407 0.0307,0.2459 0.0921,0.3157 0.0614,0.0702 0.1386,0.1051 0.2314,0.1051 0.0924,0 0.1693,-0.0352 0.2307,-0.1054 0.061,-0.0702 0.0917,-0.1775 0.0917,-0.3214 0,-0.1358 -0.0307,-0.2388 -0.0924,-0.3087 -0.0617,-0.0698 -0.1383,-0.1047 -0.23,-0.1047 -0.0928,0 -0.17,0.0349 -0.2314,0.1044 -0.0614,0.0695 -0.0921,0.1746 -0.0921,0.315 z m 1.1556,-0.548601 0.764801,0 0,0.944401 0.1186,0 0,0.464201 -0.1528,0 0,-0.3111 -0.863901,0 0,0.3111 -0.1531,0 0,-0.464201 0.0981,0 c 0.1308,-0.1778 0.1936,-0.492501 0.1883,-0.944401 z m 0.1549,0.1538 c -0.0137,0.3563 -0.0688,0.619901 -0.1654,0.790601 l 0.590101,0 0,-0.790601 -0.424701,0 z m 1.6495,0.808201 c -0.0691,0.0586 -0.1355,0.0999 -0.1989,0.1242 -0.0639,0.024 -0.1323,0.036 -0.2054,0.036 -0.1206,0 -0.213,-0.0293 -0.2779,-0.0882 -0.0646,-0.0589 -0.097,-0.1344 -0.097,-0.2258 0,-0.0539 0.0119,-0.103 0.0366,-0.1474 0.0244,-0.0445 0.0565,-0.0801 0.096,-0.1069 0.0399,-0.0268 0.0843,-0.0473 0.134,-0.061 0.0364,-0.0096 0.0914,-0.0191 0.1651,-0.0279 0.1503,-0.018 0.2611,-0.0392 0.332,-0.0642 7e-4,-0.0254 10e-4,-0.0416 10e-4,-0.0483 0,-0.0759 -0.0176,-0.1295 -0.0529,-0.1602 -0.0472,-0.0423 -0.1181,-0.0631 -0.2116,-0.0631 -0.0875,0 -0.1521,0.0151 -0.194,0.0458 -0.0417,0.0307 -0.0724,0.085 -0.0925,0.163 l -0.1816,-0.0251 c 0.0165,-0.0776 0.0437,-0.1407 0.0814,-0.1883 0.0378,-0.048 0.0928,-0.085 0.1644,-0.1108 0.0716,-0.0258 0.1545,-0.0388 0.2491,-0.0388 0.0938,0 0.1697,0.0113 0.2282,0.0332 0.0586,0.0222 0.1016,0.0497 0.1295,0.0832 0.0275,0.0335 0.0466,0.0755 0.0578,0.1267 0.006,0.0317 0.0092,0.0888 0.0092,0.1714 l 0,0.248 c 0,0.1732 0.0039,0.2826 0.012,0.3281 0.0078,0.0458 0.0236,0.0899 0.0469,0.1319 l -0.1943,0 c -0.0191,-0.0385 -0.0318,-0.0836 -0.0371,-0.1355 z m -0.0155,-0.415501 c -0.0677,0.0278 -0.169,0.0511 -0.3037,0.0705 -0.0766,0.011 -0.1309,0.0233 -0.1623,0.0371 -0.0318,0.0137 -0.0565,0.0338 -0.0734,0.0606 -0.0173,0.0265 -0.0261,0.0558 -0.0261,0.0882 0,0.0498 0.0191,0.0911 0.0564,0.1242 0.0374,0.0328 0.0925,0.0494 0.1648,0.0494 0.0716,0 0.1355,-0.0155 0.1912,-0.0469 0.0557,-0.0314 0.097,-0.0745 0.1231,-0.1288 0.0201,-0.042 0.03,-0.104 0.03,-0.1859 l 0,-0.0684 z m 0.476601,0.971501 0,-1.518 0.1693,0 0,0.1426 c 0.0399,-0.0558 0.085,-0.0978 0.1355,-0.1256 0.0501,-0.0279 0.1111,-0.042 0.1827,-0.042 0.0939,0 0.1764,0.0243 0.248,0.0723 0.072,0.0483 0.126,0.1164 0.1623,0.2043 0.0367,0.0878 0.055,0.1841 0.055,0.2889 0,0.1122 -0.0201,0.2134 -0.0607,0.3034 -0.0402,0.0899 -0.0987,0.1587 -0.1756,0.2067 -0.0769,0.0476 -0.1577,0.0716 -0.2424,0.0716 -0.0621,0 -0.1175,-0.0131 -0.1668,-0.0392 -0.0494,-0.0261 -0.0896,-0.0592 -0.1214,-0.0991 l 0,0.534101 -0.1859,0 z m 0.1683,-0.963101 c 0,0.1412 0.0285,0.2456 0.0857,0.3133 0.0571,0.0674 0.1266,0.1012 0.2078,0.1012 0.0825,0 0.1534,-0.0349 0.2123,-0.1051 0.0589,-0.0698 0.0886,-0.1781 0.0886,-0.3249 0,-0.14 -0.0289,-0.2444 -0.0865,-0.3143 -0.0575,-0.0695 -0.1262,-0.1044 -0.206,-0.1044 -0.0793,0 -0.1495,0.037 -0.2106,0.1111 -0.061,0.0741 -0.0913,0.182 -0.0913,0.3231 z"
   id="_328127976"
   style="fill:#2b2a29;fill-rule:nonzero" />
   <g
   id="g38">
    <path
   d="m 21.8506,14.4578 c 0.613901,0 1.1007,-0.513101 1.1007,-1.1266 0,-0.616001 -0.486801,-1.1024 -1.1007,-1.1024 -0.616001,0 -1.1028,0.486401 -1.1028,1.1024 0,0.613501 0.486801,1.1266 1.1028,1.1266 z"
   id="_322659272"
   style="fill:#fefefe;stroke:#2b2a29;stroke-width:0.1547" />
    <path
   d="m 21.8506,13.9447 c 0.3324,0 0.613901,-0.2818 0.613901,-0.613501 0,-0.3338 -0.2815,-0.589801 -0.613901,-0.589801 -0.3339,0 -0.616001,0.256 -0.616001,0.589801 0,0.3317 0.2821,0.613501 0.616001,0.613501"
   id="_322659128"
   style="fill:none;stroke:#2b2a29;stroke-width:0.1857" />
   </g>
   <path
   d="m 22.4592,15.9397 -0.397001,-0.1153 c 0.0856,-0.411501 0.3283,-0.616701 0.729101,-0.616701 0.237,0 0.415801,0.0652 0.536701,0.1952 0.1209,0.1305 0.1811,0.2834 0.1811,0.459201 0,0.1205 -0.0273,0.2293 -0.0828,0.3263 -0.0551,0.097 -0.1373,0.1823 -0.2479,0.2558 0.134,0.0576 0.2347,0.1387 0.302,0.244 0.0667,0.1052 0.1007,0.2346 0.1007,0.388601 0,0.2211 -0.0654,0.400401 -0.1952,0.537401 -0.1299,0.1364 -0.3246,0.2046 -0.583801,0.2046 -0.2112,0 -0.3777,-0.0435 -0.500001,-0.1317 -0.1223,-0.0876 -0.214,-0.2522 -0.2757,-0.493301 l 0.3735,-0.1534 c 0.0386,0.1516 0.0899,0.2498 0.1539,0.2945 0.0634,0.0447 0.1425,0.0671 0.2361,0.0671 0.1284,0 0.2224,-0.0347 0.2812,-0.1041 0.0588,-0.0694 0.088,-0.1488 0.088,-0.2387 0,-0.1035 -0.0334,-0.1864 -0.0997,-0.2499 -0.0668,-0.0629 -0.167,-0.0947 -0.3011,-0.0947 l -0.0926,0 0,-0.3804 0.047,0 c 0.1252,0 0.2206,-0.0353 0.2865,-0.1052 0.0663,-0.07 0.0992,-0.1629 0.0992,-0.2787 0,-0.0923 -0.0268,-0.17 -0.0804,-0.2329 -0.0536,-0.0629 -0.1308,-0.0946 -0.2309,-0.0946 -0.1708,0 -0.2804,0.1058 -0.3279,0.3169 z m 1.7667,0.565001 -0.3513,-0.0794 c 0.0395,-0.1769 0.1073,-0.3075 0.2037,-0.392701 0.0968,-0.0847 0.2399,-0.1276 0.429901,-0.1276 0.1731,0 0.3015,0.0259 0.386101,0.077 0.0843,0.0512 0.144,0.1158 0.1784,0.1946 0.0343,0.0788 0.0516,0.2229 0.0516,0.433401 l -0.0042,0.565001 c 0,0.1605 0.0062,0.2793 0.0189,0.3557 0.0121,0.0759 0.0357,0.1582 0.0696,0.2452 l -0.383401,0 c -0.0099,-0.0323 -0.0225,-0.08 -0.0372,-0.1429 -0.0061,-0.0288 -0.0108,-0.0476 -0.0136,-0.057 -0.0663,0.0805 -0.1369,0.1405 -0.2121,0.1811 -0.0753,0.04 -0.1557,0.06 -0.2413,0.06 -0.1506,0 -0.2695,-0.0512 -0.3561,-0.1529 -0.087,-0.1023 -0.1303,-0.2317 -0.1303,-0.388101 0,-0.1029 0.0197,-0.1952 0.0593,-0.2763 0.0395,-0.0812 0.095,-0.1429 0.166,-0.1858 0.071,-0.0429 0.174,-0.0806 0.3081,-0.1129 0.1807,-0.0423 0.3062,-0.0823 0.3759,-0.1188 l 0,-0.0482 c 0,-0.0935 -0.0184,-0.1593 -0.0551,-0.1993 -0.0367,-0.0394 -0.1058,-0.0594 -0.2079,-0.0594 -0.0691,0 -0.1228,0.0171 -0.1614,0.0512 -0.0385,0.0335 -0.0696,0.0929 -0.0936,0.1781 z m 0.518001,0.392801 c -0.0495,0.0206 -0.128,0.0453 -0.2357,0.0741 -0.1073,0.0288 -0.1774,0.057 -0.2107,0.084 -0.0504,0.0453 -0.0758,0.1018 -0.0758,0.1706 0,0.0682 0.0202,0.1264 0.0607,0.1758 0.0404,0.0493 0.0917,0.074 0.1543,0.074 0.07,0 0.1364,-0.0288 0.1999,-0.0858 0.047,-0.0435 0.0776,-0.097 0.0921,-0.1605 0.0104,-0.0412 0.0152,-0.12 0.0152,-0.2358 l 0,-0.0964 z m 0.746801,-0.950801 1.2997,0 0,1.8292 -0.387101,0 0,-1.4382 -0.525001,0 0,1.4382 -0.387601,0 0,-1.8292 z m 1.6304,0.888501 c 0,-0.1606 0.032,-0.3164 0.095,-0.466901 0.0635,-0.1499 0.1534,-0.2652 0.2695,-0.344 0.1162,-0.0793 0.246,-0.1193 0.389501,-0.1193 0.2211,0 0.402601,0.0899 0.544201,0.2699 0.1416,0.1799 0.2122,0.406801 0.2122,0.681401 0,0.2764 -0.0716,0.505701 -0.2141,0.687901 -0.143,0.1823 -0.3227,0.2729 -0.539501,0.2729 -0.1345,0 -0.262,-0.0377 -0.383801,-0.1135 -0.1218,-0.0759 -0.2145,-0.187 -0.278,-0.3334 -0.063,-0.1464 -0.095,-0.3246 -0.095,-0.535001 z m 0.397001,0.0258 c 0,0.1817 0.0343,0.3205 0.1034,0.416901 0.0688,0.0964 0.1539,0.1446 0.255,0.1446 0.1011,0 0.1858,-0.0482 0.254,-0.1446 0.0686,-0.0964 0.103,-0.2364 0.103,-0.420401 0,-0.1787 -0.0344,-0.3169 -0.103,-0.413301 -0.0682,-0.0965 -0.1529,-0.1447 -0.254,-0.1447 -0.1011,0 -0.1862,0.0482 -0.255,0.1447 -0.0691,0.0964 -0.1034,0.2357 -0.1034,0.416801 z m 1.4054,-0.914301 0.3613,0 0,0.2687 c 0.0466,-0.0923 0.11,-0.1669 0.19,-0.224 0.08,-0.0576 0.1689,-0.0864 0.2663,-0.0864 0.1697,0 0.3142,0.0835 0.432201,0.2499 0.1186,0.1664 0.1778,0.398601 0.1778,0.696101 0,0.3052 -0.0597,0.542701 -0.1787,0.712101 -0.1195,0.1693 -0.2644,0.254 -0.434101,0.254 -0.081,0 -0.1544,-0.02 -0.2202,-0.06 -0.0654,-0.0406 -0.1346,-0.1094 -0.2074,-0.207 l 0,0.922001 -0.387201,0 0,-2.5254 z m 0.383401,0.883701 c 0,0.2052 0.0325,0.3575 0.0978,0.455101 0.0649,0.0982 0.1444,0.1476 0.2385,0.1476 0.0899,0 0.1647,-0.0453 0.2244,-0.1352 0.0597,-0.09 0.0899,-0.2381 0.0899,-0.443301 0,-0.1923 -0.0312,-0.3346 -0.0928,-0.427501 -0.0616,-0.0929 -0.1378,-0.1393 -0.2285,-0.1393 -0.0946,0 -0.1731,0.0452 -0.2357,0.137 -0.0626,0.0911 -0.0936,0.2263 -0.0936,0.405601 z m 1.3518,-1.1318 0,-0.448001 0.387201,0 0,0.448001 -0.387201,0 z m 0,2.0773 0,-1.8292 0.387201,0 0,1.8292 -0.387201,0 z m 1.3904,0 0,-0.780201 c -0.0508,0.0047 -0.0856,0.0188 -0.1053,0.0423 -0.0198,0.0235 -0.0546,0.0929 -0.1044,0.2093 l -0.1844,0.528601 -0.416301,0 0.2069,-0.504501 c 0.1045,-0.2528 0.2136,-0.397401 0.3265,-0.434501 -0.0846,-0.04 -0.1496,-0.144 -0.1942,-0.3116 -0.034,-0.1252 -0.065,-0.1999 -0.0932,-0.2246 -0.0282,-0.0247 -0.0936,-0.0371 -0.1961,-0.0371 l 0,-0.3204 c 0.0761,-0.0059 0.1293,-0.0088 0.1594,-0.0088 0.0856,0 0.1585,0.0235 0.2192,0.0705 0.0607,0.0471 0.1176,0.1647 0.1707,0.3516 0.0414,0.1459 0.0748,0.2382 0.0993,0.2764 0.0249,0.0388 0.0621,0.0588 0.1119,0.0611 l 0,-0.747301 0.384401,0 0,0.747301 c 0.0498,0 0.0869,-0.0199 0.1124,-0.0599 0.0253,-0.0406 0.0578,-0.1329 0.0983,-0.2776 0.0526,-0.1852 0.1081,-0.3016 0.1674,-0.3498 0.0593,-0.0482 0.1355,-0.0723 0.2282,-0.0723 0.0268,0 0.0781,0.0029 0.1542,0.0088 l 0,0.3204 c -0.1016,0 -0.1669,0.0124 -0.1957,0.0371 -0.0282,0.0247 -0.0597,0.0994 -0.0936,0.2246 -0.0451,0.1676 -0.1096,0.2716 -0.1942,0.3116 0.1129,0.0371 0.222,0.1817 0.3264,0.434501 l 0.207,0.504501 -0.416301,0 -0.1834,-0.528601 c -0.033,-0.0946 -0.0635,-0.1587 -0.0913,-0.1934 -0.0282,-0.0341 -0.0682,-0.0535 -0.1194,-0.0582 l 0,0.780201 -0.384401,0 z m 2.001,0 0,-0.780201 c -0.0508,0.0047 -0.0856,0.0188 -0.1054,0.0423 -0.0197,0.0235 -0.0545,0.0929 -0.1044,0.2093 l -0.1844,0.528601 -0.416301,0 0.207,-0.504501 c 0.1045,-0.2528 0.2136,-0.397401 0.3265,-0.434501 -0.0847,-0.04 -0.1496,-0.144 -0.1943,-0.3116 -0.0339,-0.1252 -0.0649,-0.1999 -0.0932,-0.2246 -0.0281,-0.0247 -0.0936,-0.0371 -0.1961,-0.0371 l 0,-0.3204 c 0.0762,-0.0059 0.1294,-0.0088 0.1595,-0.0088 0.0856,0 0.1585,0.0235 0.2192,0.0705 0.0606,0.0471 0.1176,0.1647 0.1707,0.3516 0.0414,0.1459 0.0748,0.2382 0.0993,0.2764 0.0249,0.0388 0.0621,0.0588 0.1119,0.0611 l 0,-0.747301 0.384301,0 0,0.747301 c 0.0499,0 0.087,-0.0199 0.1124,-0.0599 0.0254,-0.0406 0.0579,-0.1329 0.0983,-0.2776 0.0527,-0.1852 0.1082,-0.3016 0.1675,-0.3498 0.0593,-0.0482 0.1354,-0.0723 0.2281,-0.0723 0.0268,0 0.0781,0.0029 0.1543,0.0088 l 0,0.3204 c -0.1016,0 -0.167,0.0124 -0.1957,0.0371 -0.0282,0.0247 -0.0598,0.0994 -0.0936,0.2246 -0.0451,0.1676 -0.1096,0.2716 -0.1942,0.3116 0.1128,0.0371 0.222,0.1817 0.3264,0.434501 l 0.2069,0.504501 -0.416201,0 -0.1835,-0.528601 c -0.0329,-0.0946 -0.0635,-0.1587 -0.0912,-0.1934 -0.0283,-0.0341 -0.0682,-0.0535 -0.1195,-0.0582 l 0,0.780201 -0.384301,0 z m 2.6486,-1.8292 0,1.8292 -0.384701,0 0,-0.759701 -0.0357,0 c -0.0838,0 -0.1449,0.0136 -0.184,0.0406 -0.039,0.0271 -0.0823,0.0841 -0.1303,0.1711 l -0.0235,0.0365 -0.2549,0.511501 -0.450601,0 0.277,-0.530301 c 0.0791,-0.1517 0.151,-0.2393 0.215,-0.2623 -0.1082,-0.0076 -0.1962,-0.0594 -0.2639,-0.154 -0.0672,-0.0947 -0.1012,-0.2158 -0.1012,-0.3628 0,-0.1182 0.0222,-0.2193 0.0668,-0.3028 0.0448,-0.0841 0.104,-0.1411 0.1779,-0.1717 0.0738,-0.03 0.1839,-0.0453 0.3301,-0.0453 l 0.762001,0 z m -0.384701,0.3117 -0.277,0 c -0.1016,0 -0.1736,0.0182 -0.215,0.0541 -0.0409,0.0364 -0.0617,0.0964 -0.0617,0.1799 0,0.084 0.0231,0.144 0.0701,0.1811 0.0471,0.0364 0.1238,0.0552 0.2301,0.0552 l 0.2535,0 0,-0.470301 z"
   id="_322659104"
   style="fill:#2b2a29;fill-rule:nonzero" />
  </g>
 </g>
</svg>