<?xml version="1.0" encoding="UTF-8" standalone="no"?>
<!-- Created with Inkscape (http://www.inkscape.org/) -->

<svg
   xmlns:svg="http://www.w3.org/2000/svg"
   xmlns="http://www.w3.org/2000/svg"
   version="1.1"
   width="60.524101mm"
   height="78.8946mm"
   viewBox="0 0 49.7818 64.8918"
   id="svg2"
   xml:space="preserve"
   style="fill-rule:evenodd">
 <defs
   id="defs4">
  <style
   type="text/css"
   id="style6" />
 </defs>
 <g
   id="Layer_x0020_1">
  
  <path
   d="m 44.1085,62.4545 0.04178,-1.4292 -0.545819,0 0.167628,-1.82803 -0.441278,-1.2188 0.441278,-0.273403 0.378191,0.336161 0.399083,-0.06276 0.04228,-0.714352 2.16428,-0.777932 -0.06317,-0.777603 1.76552,-0.777274 0.230879,-0.441196 1.09271,-0.378438 -1.36586,-2.6058 0.378849,-0.482979 -0.819634,-2.77425 0.651183,-0.210152 0.06276,-0.504365 -0.399083,-0.230962 -0.482733,-0.819469 1.21806,-1.59732 -0.88198,-0.777521 0.37778,-0.714352 -0.06292,-1.32408 -1.36611,-0.231208 0.756547,-0.819223 -0.756547,-0.735573 -0.167875,-0.756876 -0.441689,-0.5042 -1.93323,0.273156 -0.293802,-0.336408 0.94589,-0.377698 -0.168533,-0.399659 -0.987509,-0.209412 0.210152,-0.672404 1.34481,0.230221 -0.167793,-1.32334 -0.441689,-0.126338 -0.293555,-0.651512 0.839703,-0.105528 0,-1.21798 -1.15522,-0.840937 0.77711,-1.21863 1.32367,-1.09287 0.819634,-1.0506 -0.441031,-1.82828 -1.76503,0.273485 -0.06325,-0.31568 0.609564,-0.293966 -0.483555,-0.315105 0.147312,-0.567287 0.882721,0.272992 0.168122,-0.483391 -0.820045,-0.273485 0.546477,-1.04961 -1.0506,-1.11475 -0.441278,-1.38676 -0.609235,0 -0.04228,-1.05027 0.988002,-0.105528 0.168039,-1.26173 1.21896,-0.839292 -0.609729,-1.09361 -0.777274,0.105282 -1.76519,-2.37418 -0.336572,0 -0.16771,0.987509 -0.273321,0.167875 -0.504365,-1.72251 -0.6094,-2.69003 1.28164,-0.735738 0.546477,0.777439 0.840443,-1.32318 0.210152,-1.59732 -0.777274,-0.06366 -0.105446,-0.7772742 -0.714352,0.126585 -0.105364,-2.16526 -1.21781,-0.944656 0.335667,-2.1438 -1.11344,-1.21921 0.167875,-1.49204 -1.45025,-0.882392 -0.209823,1.38676 -0.988002,-0.062922 -1.17677,1.38684 -0.986933,-0.230962 -2.20688,0.946054 -1.55521,2.26898 -1.26099,0.924586 -0.840608,-2.20623 -0.04219,-1.70244 -2.4371,-0.504694 -0.105117,-0.062182 -2.26989,1.28197 -0.777357,0.104953 -0.272992,-1.49204 -1.28172,-0.988084 0,-0.671993 0.168286,-0.608988 -0.610058,-0.274143 -2.64685,2.94221 -2.75303,0.04203 -0.168862,-0.714517 -0.777603,-0.945725 -0.986768,0.168615 -0.231373,2.10086 -1.11418,0.441772 -0.924175,1.32383 -1.21938,-0.778097 -1.38676,0 -0.65143,0.505105 0.04203,1.5965 0.5042826,0.126338 -0.062511,0.714517 -1.05101,-0.503789 -0.483555,-0.547218 -0.125927,-0.440702 -0.378685,-0.063663 -0.37778,0.882803 0.27291,1.61829 0.378274,0.272745 -0.335914,1.05084 -1.42903,0.4833915 0.546477,2.33256 -1.32457,0.988084 -1.21863,1.59674 c 0,0 -0.545984,1.324249 -0.65069,1.786169 -0.126091,0.441196 -0.231126,0.819223 -0.231126,0.819223 l -1.32441,0.547136 -0.882556,0.714352 0.714681,1.99566 -0.546642,0.546724 0.651759,0.903448 0.126091,0.714352 -0.399248,1.59765 0.441196,1.38635 0.231044,1.15596 -0.546477,1.05101 -0.231044,0.209987 -0.672404,0.73508 -0.273074,0.88305 -0.819552,0.651183 0.609317,0.504694 0.546313,-0.167875 0.10487,1.59633 -0.588261,0.189589 0.273403,0.987509 0.755889,0.273156 0.16878,0.65143 0.777439,0 -1.49212,2.98449 1.32375,1.00824 -0.105117,1.42903 1.32441,0.441278 0.546066,0.378438 -0.042113,0.671993 0.714681,0.714763 0.819387,0 0.125598,0.77785 0.441196,-0.105117 0.379343,-0.231455 0.503789,0.104953 0.273403,-0.483308 0.546231,0.210316 -0.210399,0.945396 c 0,0 0.54656,-0.273732 0.54656,0.504529 0,0.777439 0.062922,0.987426 0.062922,0.987426 l 0.819387,-0.672404 0,1.38692 -0.945314,0.273156 -0.105282,1.82877 1.15547,0.546066 -0.168039,0.567287 0.399494,0.546642 -1.44984,0.06284 -0.588261,0.546477 -1.1771,-0.714517 -0.209987,0.609153 0.609564,0.714928 -0.273156,2.47938 1.26108,0.06333 -0.063333,1.15571 0.77785,1.76478 1.44943,1.93356 0.4832265,0.672075 0.946136,-0.273156 0.230797,-0.5042 c 0,0 0.651348,0.33649 1.19725,-0.105117 0.567863,-0.441196 0.735902,-0.546231 0.735902,-0.546231 l 1.15596,0.210316 -0.06276,0.335914 2.98399,-0.06309 0.546313,-0.483144 1.723,-0.294542 0.378603,-0.651019 3.0465,1.21872 0.441689,-1.21872 0.609071,0.04195 0.504118,0.567698 0.609646,-0.399412 1.15579,1.38667 0.378027,-0.105117 0.567863,-1.11352 0.714928,-0.272992 0.608413,0.77711 0.924998,0.06317 0.504694,-1.387 0.104788,-0.06325 1.21905,0.105693 c 0,0 -0.546313,-0.652253 0,-0.714763 0.546066,-0.04236 0.546066,-0.04236 0.546066,-0.04236 l 0.230797,-0.56704 0.54656,0.06276 0.06309,0.714517 0.609646,0 c 0,0 0.44136,0.168615 0.378274,0.840937 -0.04236,0.65143 0.609235,1.26083 0.609235,1.26083 l -0.483062,0.272827 0.04219,1.15596 0.713776,0.441114 -0.924504,1.786 1.26132,1.32416 -1.0506,0.714599 0.440867,0.819387 3.55112,0.23162 1.26116,-0.441607 0.504529,0.777439 0.483144,-0.441196 0.273568,-1.17693 1.55512,0.06317 0.672075,-1.05043 1.15571,0.672404 0.503954,-0.168451 -0.440867,-0.335914 z"
   id="path10"
   style="fill:#ffdf49" />
  <g
   id="_29196512">
   <path
   d="m 8.46045,33.0723 c 0.38765,0 0.710404,-0.306879 0.710404,-0.69453 0,-0.387486 -0.322754,-0.693789 -0.710404,-0.693789 -0.3712,0 -0.677915,0.306304 -0.677915,0.693789 0,0.38765 0.306715,0.69453 0.677915,0.69453 z"
   id="_307825952"
   style="fill:#fefefe;stroke:#2b2a29;stroke-width:0.0974677" />
   <path
   d="m 8.46999,32.544 c 0.089654,0 0.165736,-0.07641 0.165736,-0.16623 0,-0.08949 -0.076082,-0.165325 -0.165736,-0.165325 -0.083156,0 -0.151918,0.07584 -0.151918,0.165325 0,0.08982 0.068762,0.16623 0.151918,0.16623 z"
   id="_29196488"
   style="fill:#2b2a29;stroke:#2b2a29;stroke-width:0.0626755" />
  </g>
  <g
   id="_180312632">
   <path
   d="m 29.1667,22.8872 c 0.38765,0 0.71024,-0.306386 0.71024,-0.694447 0,-0.387239 -0.322589,-0.693872 -0.71024,-0.693872 -0.371118,0 -0.677668,0.306633 -0.677668,0.693872 0,0.388061 0.30655,0.694447 0.677668,0.694447 z"
   id="_310455064"
   style="fill:#fefefe;stroke:#2b2a29;stroke-width:0.0974677" />
   <path
   d="m 29.176,22.3585 c 0.09015,0 0.165819,-0.07584 0.165819,-0.165736 0,-0.08916 -0.07567,-0.165654 -0.165819,-0.165654 -0.08283,0 -0.151589,0.07649 -0.151589,0.165654 0,0.0899 0.06876,0.165736 0.151589,0.165736 z"
   id="_180312728"
   style="fill:#2b2a29;stroke:#2b2a29;stroke-width:0.0626755" />
  </g>
  <g
   id="_307825976">
   <path
   d="m 27.4659,55.2175 c 0.388061,0 0.710569,-0.306879 0.710569,-0.69453 0,-0.387321 -0.322507,-0.694118 -0.710569,-0.694118 -0.370624,0 -0.677668,0.306797 -0.677668,0.694118 0,0.38765 0.307044,0.69453 0.677668,0.69453 z"
   id="_305771952"
   style="fill:#fefefe;stroke:#2b2a29;stroke-width:0.0974677" />
   <path
   d="m 27.4756,54.689 c 0.08982,0 0.165901,-0.076 0.165901,-0.166065 0,-0.08941 -0.07608,-0.165736 -0.165901,-0.165736 -0.08283,0 -0.151836,0.07633 -0.151836,0.165736 0,0.09007 0.06901,0.166065 0.151836,0.166065 z"
   id="_307825904"
   style="fill:#2b2a29;stroke:#2b2a29;stroke-width:0.0626755" />
  </g>
  <path
   d="m 27.6755,52.0288 0.808365,0 0,0.147065 -0.643287,0 0,0.384196 0.297421,0 c 0.10997,0 0.197321,0.01045 0.262299,0.03158 0.06473,0.02089 0.116961,0.06037 0.155784,0.118442 0.03923,0.05799 0.05897,0.125598 0.05897,0.202749 0,0.06301 -0.01423,0.12165 -0.04211,0.176429 -0.02813,0.05453 -0.06991,0.09928 -0.125598,0.133823 -0.05544,0.03446 -0.150026,0.0519 -0.283767,0.0519 l -0.488079,0 0,-1.24619 z m 0.165078,1.10603 0.329663,0 c 0.08908,0 0.155784,-0.01826 0.2002,-0.05453 0.04466,-0.03627 0.06671,-0.09056 0.06671,-0.163104 0,-0.05165 -0.01275,-0.09483 -0.03825,-0.129381 -0.02525,-0.03455 -0.06095,-0.05741 -0.106269,-0.06876 -0.04524,-0.01135 -0.122719,-0.01711 -0.232113,-0.01711 l -0.21994,0 0,0.432888 z m 1.56828,-0.150602 0.158169,0.01949 c -0.02492,0.09253 -0.07107,0.164174 -0.138429,0.215252 -0.06761,0.05083 -0.153728,0.07633 -0.258516,0.07633 -0.132013,0 -0.236719,-0.04063 -0.313953,-0.121896 -0.07748,-0.08118 -0.116057,-0.195265 -0.116057,-0.342083 0,-0.152 0.03915,-0.269866 0.117208,-0.35368 0.07839,-0.0839 0.179637,-0.125927 0.304412,-0.125927 0.120663,0 0.219364,0.04121 0.295611,0.123295 0.07666,0.08217 0.114905,0.197897 0.114905,0.346771 0,0.0093 -2.47e-4,0.02287 -8.23e-4,0.04088 l -0.673144,0 c 0.0055,0.09928 0.03364,0.175277 0.08414,0.227754 0.0505,0.0528 0.113095,0.07921 0.188602,0.07921 0.05601,0 0.103883,-0.01472 0.143611,-0.04433 0.03973,-0.02936 0.07107,-0.07633 0.09426,-0.141061 z m -0.502226,-0.247494 0.504036,0 c -0.0067,-0.07575 -0.02616,-0.132836 -0.05774,-0.170589 -0.04877,-0.05889 -0.112026,-0.0885 -0.189507,-0.0885 -0.07024,0 -0.129381,0.02352 -0.177251,0.07049 -0.04795,0.04705 -0.07436,0.10997 -0.07954,0.188602 z m 0.852781,0.884119 0,-1.24857 0.139251,0 0,0.11729 c 0.03282,-0.0459 0.06991,-0.08044 0.11145,-0.103308 0.04121,-0.02295 0.09138,-0.03455 0.150273,-0.03455 0.07723,0 0.145091,0.01999 0.203983,0.05947 0.05922,0.03973 0.103637,0.09574 0.133494,0.168039 0.03019,0.07222 0.04524,0.151425 0.04524,0.237624 0,0.09229 -0.01653,0.175524 -0.04993,0.24955 -0.03306,0.07394 -0.08118,0.130533 -0.144433,0.170013 -0.06325,0.03915 -0.12971,0.05889 -0.199377,0.05889 -0.05108,0 -0.09665,-0.01078 -0.137195,-0.03224 -0.04063,-0.02147 -0.0737,-0.04869 -0.09985,-0.08151 l 0,0.439304 -0.152905,0 z m 0.138429,-0.792162 c 0,0.116139 0.02344,0.202009 0.07049,0.257693 0.04697,0.05544 0.10413,0.08324 0.170918,0.08324 0.06786,0 0.126173,-0.0287 0.174619,-0.08645 0.04845,-0.05741 0.07287,-0.14649 0.07287,-0.267234 0,-0.115152 -0.02377,-0.201022 -0.07115,-0.258516 -0.04729,-0.05716 -0.103801,-0.08587 -0.169438,-0.08587 -0.06523,0 -0.122966,0.03043 -0.173221,0.09138 -0.05017,0.06095 -0.0751,0.149697 -0.0751,0.265754 z m 0.910439,-0.456412 0.629058,0 0,0.776781 0.09755,0 0,0.38181 -0.12568,0 0,-0.255884 -0.710569,0 0,0.255884 -0.125927,0 0,-0.38181 0.08069,0 c 0.107586,-0.146243 0.159238,-0.405087 0.15488,-0.776781 z m 0.127407,0.126502 c -0.01127,0.293061 -0.05659,0.509876 -0.136044,0.650279 l 0.485365,0 0,-0.650279 -0.349321,0 z m 0.767733,-0.126502 0.152905,0 0,0.688608 0.42417,-0.688608 0.164832,0 0,0.902708 -0.152905,0 0,-0.684166 -0.42417,0.684166 -0.164832,0 0,-0.902708 z m 0.916361,0 0.153152,0 0,0.170918 c 0,0.07345 0.0044,0.127078 0.01308,0.160143 0.0087,0.03315 0.02986,0.0621 0.06325,0.08678 0.03339,0.02468 0.07543,0.03685 0.125927,0.03685 0.05774,0 0.132589,-0.01538 0.224299,-0.04581 l 0,-0.408871 0.153152,0 0,0.902708 -0.153152,0 0,-0.36388 c -0.09401,0.02961 -0.18194,0.04417 -0.263451,0.04417 -0.06852,0 -0.129134,-0.01744 -0.181364,-0.05223 -0.05256,-0.03488 -0.08817,-0.07748 -0.106762,-0.127983 -0.01892,-0.05017 -0.02813,-0.10594 -0.02813,-0.166559 l 0,-0.236226 z m 0.96382,-0.167381 0,-0.1761 0.153234,0 0,0.1761 -0.153234,0 z m 0,1.07009 0,-0.902708 0.153234,0 0,0.902708 -0.153234,0 z m 0.386745,-0.902708 0.352858,0 c 0.08669,0 0.151178,0.0073 0.193537,0.02147 0.04203,0.01456 0.0783,0.04096 0.108736,0.07954 0.03019,0.03858 0.04557,0.08472 0.04557,0.138676 0,0.04293 -0.009,0.08069 -0.02698,0.112602 -0.01768,0.03191 -0.04466,0.05889 -0.08036,0.08036 0.04269,0.01423 0.07781,0.04063 0.10594,0.07954 0.02813,0.03882 0.04203,0.08472 0.04203,0.1381 -0.0055,0.08562 -0.03627,0.149122 -0.09171,0.190329 -0.05568,0.04154 -0.136373,0.0621 -0.24223,0.0621 l -0.407391,0 0,-0.902708 z m 0.153234,0.379836 0.163022,0 c 0.06531,0 0.10997,-0.0032 0.134316,-0.01012 0.02443,-0.0067 0.04614,-0.02065 0.06564,-0.04121 0.01916,-0.02065 0.02871,-0.04557 0.02871,-0.07427 0,-0.04762 -0.01686,-0.08102 -0.0505,-0.09952 -0.03364,-0.01892 -0.09138,-0.02821 -0.172892,-0.02821 l -0.168286,0 0,0.253334 z m 0,0.396945 0.201351,0 c 0.08678,0 0.146243,-0.0099 0.178403,-0.03019 0.03249,-0.01999 0.04935,-0.05486 0.05108,-0.103883 0,-0.02904 -0.0093,-0.05568 -0.02813,-0.08036 -0.01859,-0.02468 -0.04293,-0.0403 -0.07279,-0.04672 -0.03019,-0.0067 -0.07839,-0.0099 -0.144844,-0.0099 l -0.185065,0 0,0.271018 z"
   id="path21"
   style="fill:#2b2a29;fill-rule:nonzero" />
  <path
   d="m 29.1578,19.7081 0.164832,0 0,0.545737 c 0.07542,0 0.12823,-0.01448 0.158992,-0.04376 0.03043,-0.02936 0.06967,-0.09928 0.117208,-0.210399 0.03455,-0.08151 0.063,-0.139251 0.08562,-0.172974 0.02229,-0.03364 0.0542,-0.06202 0.09541,-0.08497 0.04154,-0.02295 0.0871,-0.03455 0.136948,-0.03455 0.06358,0 0.09697,5.76e-4 0.100429,0.0017 l 0,0.142788 c -0.0058,0 -0.01686,-3.29e-4 -0.03339,-9.04e-4 -0.01793,-5.76e-4 -0.02895,-8.23e-4 -0.03307,-8.23e-4 -0.0528,0 -0.09171,0.01275 -0.117208,0.03825 -0.02607,0.02558 -0.05601,0.08011 -0.08941,0.163351 -0.04178,0.105364 -0.07715,0.171823 -0.106186,0.199377 -0.02895,0.02731 -0.0635,0.04935 -0.103554,0.06588 0.08036,0.02204 0.159567,0.09632 0.237953,0.22249 l 0.256788,0.414958 -0.204888,0 -0.208342,-0.338299 c -0.05716,-0.09344 -0.105282,-0.157593 -0.143611,-0.192715 -0.03858,-0.03479 -0.0885,-0.05223 -0.149697,-0.05223 l 0,0.583244 -0.164832,0 0,-1.24619 z m 0.934868,0.794712 c 0,-0.167135 0.04639,-0.291005 0.13958,-0.371364 0.07748,-0.06679 0.17207,-0.100429 0.283767,-0.100429 0.124199,0 0.225697,0.04063 0.30433,0.122143 0.07896,0.08126 0.118113,0.193537 0.118113,0.336901 0,0.116303 -0.01744,0.207767 -0.05223,0.274143 -0.03479,0.06679 -0.08554,0.118442 -0.152,0.15529 -0.06679,0.03685 -0.139334,0.05511 -0.218213,0.05511 -0.126256,0 -0.22833,-0.0403 -0.306386,-0.121567 -0.07806,-0.08094 -0.116961,-0.197568 -0.116961,-0.350226 z m 0.157264,0 c 0,0.115728 0.02525,0.202256 0.07575,0.259667 0.0505,0.05774 0.114,0.08645 0.190329,0.08645 0.076,0 0.139251,-0.02895 0.189754,-0.08669 0.05017,-0.05774 0.07542,-0.145996 0.07542,-0.264356 0,-0.111697 -0.02525,-0.196416 -0.076,-0.25391 -0.05075,-0.05741 -0.113753,-0.08612 -0.189178,-0.08612 -0.07633,0 -0.139827,0.02871 -0.190329,0.08587 -0.0505,0.05717 -0.07575,0.143611 -0.07575,0.259092 z m 0.868162,0.797344 0,-1.24857 0.139251,0 0,0.11729 c 0.03282,-0.0459 0.06991,-0.08044 0.11145,-0.103308 0.04121,-0.02295 0.09138,-0.03454 0.150273,-0.03454 0.07723,0 0.145091,0.01999 0.203983,0.05947 0.05922,0.03973 0.103637,0.09574 0.133494,0.168039 0.03019,0.07222 0.04524,0.151425 0.04524,0.237624 0,0.09229 -0.01653,0.175524 -0.04993,0.24955 -0.03307,0.07394 -0.08118,0.130533 -0.144433,0.170013 -0.06325,0.03915 -0.12971,0.05889 -0.199377,0.05889 -0.05108,0 -0.09665,-0.01077 -0.137195,-0.03224 -0.04063,-0.02147 -0.0737,-0.04869 -0.09985,-0.08151 l 0,0.439304 -0.152905,0 z m 0.138429,-0.792162 c 0,0.116139 0.02344,0.202009 0.07049,0.257693 0.04697,0.05544 0.10413,0.08324 0.170918,0.08324 0.06786,0 0.126173,-0.02871 0.174619,-0.08645 0.04845,-0.05741 0.07287,-0.14649 0.07287,-0.267234 0,-0.115152 -0.02377,-0.201022 -0.07115,-0.258516 -0.04729,-0.05716 -0.103801,-0.08587 -0.169438,-0.08587 -0.06523,0 -0.122966,0.03043 -0.173221,0.09138 -0.05017,0.06095 -0.0751,0.149697 -0.0751,0.265754 z m 0.772668,-0.0052 c 0,-0.167135 0.04639,-0.291005 0.13958,-0.371364 0.07748,-0.06679 0.17207,-0.100429 0.283767,-0.100429 0.124199,0 0.225697,0.04063 0.30433,0.122143 0.07896,0.08126 0.118113,0.193537 0.118113,0.336901 0,0.116303 -0.01744,0.207767 -0.05223,0.274143 -0.03479,0.06679 -0.08554,0.118442 -0.152,0.15529 -0.06679,0.03685 -0.139334,0.05511 -0.218213,0.05511 -0.126256,0 -0.22833,-0.0403 -0.306386,-0.121567 -0.07806,-0.08094 -0.116961,-0.197568 -0.116961,-0.350226 z m 0.157264,0 c 0,0.115728 0.02525,0.202256 0.07575,0.259667 0.0505,0.05774 0.114,0.08645 0.190329,0.08645 0.076,0 0.139251,-0.02895 0.189754,-0.08669 0.05017,-0.05774 0.07543,-0.145996 0.07543,-0.264356 0,-0.111697 -0.02525,-0.196416 -0.076,-0.25391 -0.05075,-0.05741 -0.113753,-0.08612 -0.189178,-0.08612 -0.07633,0 -0.139827,0.02871 -0.190329,0.08587 -0.0505,0.05716 -0.07575,0.143611 -0.07575,0.259091 z m 1.45716,0.120663 0.150273,0.01974 c -0.0162,0.103637 -0.05832,0.184819 -0.126173,0.243464 -0.06761,0.05865 -0.150849,0.08793 -0.24955,0.08793 -0.123295,0 -0.222819,-0.0403 -0.297667,-0.120992 -0.07518,-0.08069 -0.112931,-0.196416 -0.112931,-0.347347 0,-0.09747 0.01629,-0.182762 0.04853,-0.255884 0.03249,-0.07312 0.08151,-0.127983 0.147641,-0.164503 0.06588,-0.0366 0.137853,-0.05486 0.215334,-0.05486 0.09804,0 0.178403,0.02492 0.240503,0.0746 0.06243,0.0496 0.102403,0.11984 0.120169,0.211221 l -0.148875,0.02287 c -0.01423,-0.06062 -0.03915,-0.106186 -0.07518,-0.136948 -0.03594,-0.03043 -0.07945,-0.04581 -0.130533,-0.04581 -0.07723,0 -0.139909,0.02755 -0.188026,0.08299 -0.0482,0.05511 -0.0723,0.142459 -0.0723,0.26197 0,0.121321 0.02328,0.209494 0.07,0.264685 0.04639,0.05478 0.107009,0.08233 0.181858,0.08233 0.06013,0 0.10997,-0.01851 0.150355,-0.05536 0.0403,-0.03685 0.06588,-0.09344 0.07658,-0.170096 z m 0.198801,-0.571893 0.733764,0 0,0.126502 -0.290758,0 0,0.776205 -0.152329,0 0,-0.776205 -0.290676,0 0,-0.126502 z m 1.4783,0.611949 0.158169,0.01949 c -0.02492,0.09253 -0.07106,0.164174 -0.138429,0.215252 -0.06761,0.05083 -0.153728,0.07633 -0.258516,0.07633 -0.132013,0 -0.236719,-0.04063 -0.313953,-0.121896 -0.07748,-0.08118 -0.116057,-0.195265 -0.116057,-0.342083 0,-0.152 0.03915,-0.269866 0.117208,-0.35368 0.07839,-0.0839 0.179637,-0.125927 0.304412,-0.125927 0.120663,0 0.219364,0.04121 0.295611,0.123295 0.07666,0.08217 0.114905,0.197897 0.114905,0.346771 0,0.0093 -2.47e-4,0.02287 -8.23e-4,0.04088 l -0.673144,0 c 0.0055,0.09928 0.03364,0.175277 0.08414,0.227754 0.0505,0.05281 0.113095,0.07921 0.188602,0.07921 0.05601,0 0.103883,-0.01472 0.143611,-0.04433 0.03973,-0.02936 0.07107,-0.07633 0.09426,-0.141061 z m -0.502226,-0.247494 0.504036,0 c -0.0067,-0.07575 -0.02616,-0.132836 -0.05774,-0.170589 -0.04877,-0.05889 -0.112026,-0.0885 -0.189507,-0.0885 -0.07024,0 -0.129381,0.02352 -0.177251,0.07049 -0.04795,0.04705 -0.07435,0.10997 -0.07954,0.188602 z m 0.853357,-0.364455 0.153234,0 0,0.375806 0.42417,0 0,-0.375806 0.152905,0 0,0.902708 -0.152905,0 0,-0.400399 -0.42417,0 0,0.400399 -0.153234,0 0,-0.902708 z m 0.958063,0 0.152905,0 0,0.352611 0.193866,0 c 0.126502,0 0.223723,0.02459 0.29191,0.0737 0.06843,0.04902 0.102403,0.116632 0.102403,0.202749 0,0.07518 -0.02846,0.139909 -0.0853,0.19329 -0.05692,0.05363 -0.14797,0.08036 -0.273321,0.08036 l -0.382468,0 0,-0.902708 z m 0.152905,0.776781 0.160801,0 c 0.09689,0 0.165901,-0.01193 0.207438,-0.0357 0.04121,-0.02377 0.06177,-0.06095 0.06177,-0.111121 0,-0.03915 -0.01505,-0.07403 -0.04581,-0.104706 -0.03043,-0.03052 -0.09837,-0.0459 -0.203078,-0.0459 l -0.181117,0 0,0.297421 z"
   id="path23"
   style="fill:#2b2a29;fill-rule:nonzero" />
  <path
   d="m 8.52477,29.2198 0,-1.24619 0.165161,0 0,0.511767 0.647564,0 0,-0.511767 0.165161,0 0,1.24619 -0.165161,0 0,-0.587274 -0.647564,0 0,0.587274 -0.165161,0 z m 1.1757,-0.451477 c 0,-0.167135 0.04639,-0.291005 0.13958,-0.371364 0.077481,-0.06679 0.17207,-0.100429 0.283767,-0.100429 0.124199,0 0.225697,0.04063 0.30433,0.122143 0.07896,0.08126 0.118113,0.193537 0.118113,0.336901 0,0.116303 -0.01744,0.207767 -0.05223,0.274143 -0.03479,0.06679 -0.08554,0.118442 -0.152,0.15529 -0.06679,0.03685 -0.139334,0.05511 -0.218213,0.05511 -0.1262556,0 -0.2283296,-0.0403 -0.3063856,-0.121567 -0.078057,-0.08094 -0.116961,-0.197568 -0.116961,-0.350226 z m 0.157264,0 c 0,0.115728 0.025251,0.202256 0.075753,0.259667 0.050502,0.05774 0.1139996,0.08645 0.1903286,0.08645 0.076,0 0.139251,-0.02895 0.189754,-0.08669 0.05017,-0.05774 0.07542,-0.145996 0.07542,-0.264356 0,-0.111697 -0.02525,-0.196416 -0.076,-0.25391 -0.05075,-0.05741 -0.113753,-0.08612 -0.189178,-0.08612 -0.07633,0 -0.1398274,0.02871 -0.1903294,0.08587 -0.050502,0.05717 -0.075753,0.143611 -0.075753,0.259091 z m 0.868738,-0.45123 0.352858,0 c 0.08669,0 0.151178,0.0073 0.193537,0.02147 0.04203,0.01456 0.0783,0.04096 0.108736,0.07954 0.03019,0.03857 0.04557,0.08472 0.04557,0.138676 0,0.04293 -0.009,0.08069 -0.02698,0.112602 -0.01768,0.03191 -0.04466,0.05889 -0.08036,0.08036 0.04269,0.01423 0.07781,0.04063 0.10594,0.07954 0.02813,0.03882 0.04203,0.08472 0.04203,0.1381 -0.0055,0.08562 -0.03627,0.149122 -0.09171,0.190329 -0.05568,0.04154 -0.136373,0.0621 -0.24223,0.0621 l -0.407391,0 0,-0.902708 z m 0.153234,0.379836 0.163022,0 c 0.06531,0 0.10997,-0.0032 0.134316,-0.01012 0.02443,-0.0067 0.04614,-0.02064 0.06564,-0.04121 0.01916,-0.02064 0.02871,-0.04557 0.02871,-0.07427 0,-0.04762 -0.01686,-0.08102 -0.0505,-0.09952 -0.03364,-0.01892 -0.09138,-0.02821 -0.172892,-0.02821 l -0.168286,0 0,0.253334 z m 0,0.396945 0.201351,0 c 0.08678,0 0.146243,-0.0099 0.178403,-0.03019 0.03249,-0.01999 0.04935,-0.05486 0.05108,-0.103883 0,-0.02904 -0.0093,-0.05568 -0.02813,-0.08036 -0.01859,-0.02468 -0.04293,-0.0403 -0.07279,-0.04672 -0.03019,-0.0067 -0.07839,-0.0099 -0.144844,-0.0099 l -0.185065,0 0,0.271018 z m 0.694612,-0.325551 c 0,-0.167135 0.04639,-0.291005 0.13958,-0.371364 0.07748,-0.06679 0.17207,-0.100429 0.283767,-0.100429 0.124199,0 0.225697,0.04063 0.30433,0.122143 0.07896,0.08126 0.118113,0.193537 0.118113,0.336901 0,0.116303 -0.01744,0.207767 -0.05223,0.274143 -0.03479,0.06679 -0.08554,0.118442 -0.152,0.15529 -0.06679,0.03685 -0.139334,0.05511 -0.218213,0.05511 -0.126256,0 -0.22833,-0.0403 -0.306386,-0.121567 -0.07806,-0.08094 -0.116961,-0.197568 -0.116961,-0.350226 z m 0.157264,0 c 0,0.115728 0.02525,0.202256 0.07575,0.259667 0.0505,0.05774 0.114,0.08645 0.190329,0.08645 0.076,0 0.139251,-0.02895 0.189754,-0.08669 0.05017,-0.05774 0.07543,-0.145996 0.07543,-0.264356 0,-0.111697 -0.02525,-0.196416 -0.076,-0.25391 -0.05075,-0.05741 -0.113753,-0.08612 -0.189178,-0.08612 -0.07633,0 -0.139827,0.02871 -0.190329,0.08587 -0.0505,0.05717 -0.07575,0.143611 -0.07575,0.259091 z m 0.868738,-0.45123 0.519417,0 0,0.126502 -0.366183,0 0,0.776205 -0.153234,0 0,-0.902708 z m 0.634322,1.24857 0,-1.24857 0.139251,0 0,0.11729 c 0.03282,-0.0459 0.06991,-0.08044 0.11145,-0.103308 0.04121,-0.02295 0.09138,-0.03454 0.150273,-0.03454 0.07723,0 0.145091,0.01999 0.203983,0.05947 0.05922,0.03973 0.103637,0.09574 0.133494,0.168039 0.03019,0.07222 0.04524,0.151425 0.04524,0.237624 0,0.09229 -0.01653,0.175524 -0.04993,0.24955 -0.03307,0.07394 -0.08118,0.130533 -0.144433,0.170013 -0.06325,0.03915 -0.12971,0.05889 -0.199377,0.05889 -0.05108,0 -0.09665,-0.01077 -0.137195,-0.03224 -0.04063,-0.02147 -0.0737,-0.04869 -0.09985,-0.08151 l 0,0.439304 -0.152905,0 z m 0.138429,-0.792162 c 0,0.116139 0.02344,0.202009 0.07049,0.257693 0.04697,0.05544 0.10413,0.08324 0.170918,0.08324 0.06786,0 0.126173,-0.02871 0.174619,-0.08645 0.04845,-0.05741 0.07287,-0.14649 0.07287,-0.267234 0,-0.115152 -0.02377,-0.201022 -0.07115,-0.258516 -0.0473,-0.05716 -0.103801,-0.08587 -0.169438,-0.08587 -0.06523,0 -0.122966,0.03043 -0.173221,0.09138 -0.05017,0.06095 -0.0751,0.149697 -0.0751,0.265754 z m 1.41883,0.334845 c -0.05684,0.0482 -0.11145,0.08217 -0.163598,0.102156 -0.05256,0.01974 -0.108818,0.02961 -0.168944,0.02961 -0.09919,0 -0.175195,-0.0241 -0.228576,-0.07255 -0.05313,-0.04845 -0.07978,-0.110546 -0.07978,-0.185723 0,-0.04433 0.0098,-0.08472 0.0301,-0.121238 0.02007,-0.0366 0.04647,-0.06588 0.07896,-0.08793 0.03282,-0.02204 0.06934,-0.0389 0.110217,-0.05017 0.02994,-0.0079 0.07518,-0.01571 0.135797,-0.02295 0.123624,-0.0148 0.214758,-0.03224 0.273074,-0.0528 5.76e-4,-0.02089 8.23e-4,-0.03422 8.23e-4,-0.03973 0,-0.06243 -0.01448,-0.106515 -0.04351,-0.131767 -0.03882,-0.03479 -0.09714,-0.0519 -0.174044,-0.0519 -0.07197,0 -0.125104,0.01242 -0.159567,0.03767 -0.0343,0.02525 -0.05955,0.06991 -0.07608,0.13407 l -0.149368,-0.02065 c 0.01357,-0.06383 0.03594,-0.115728 0.06695,-0.154879 0.03109,-0.03948 0.07633,-0.06991 0.135221,-0.09113 0.05889,-0.02122 0.127078,-0.03191 0.204888,-0.03191 0.07715,0 0.13958,0.0093 0.187697,0.02731 0.0482,0.01826 0.08357,0.04088 0.106515,0.06843 0.02262,0.02755 0.03833,0.0621 0.04754,0.104212 0.0049,0.02607 0.0076,0.07304 0.0076,0.140979 l 0,0.203983 c 0,0.142459 0.0032,0.232442 0.0099,0.269866 0.0064,0.03767 0.01941,0.07394 0.03857,0.108489 l -0.159814,0 c -0.01571,-0.03167 -0.02616,-0.06876 -0.03052,-0.11145 z m -0.01275,-0.341754 c -0.05568,0.02287 -0.139005,0.04203 -0.249797,0.05799 -0.063,0.009 -0.107667,0.01917 -0.133494,0.03052 -0.02616,0.01127 -0.04647,0.0278 -0.06037,0.04984 -0.01423,0.0218 -0.02147,0.0459 -0.02147,0.07255 0,0.04096 0.01571,0.07493 0.04639,0.102156 0.03076,0.02698 0.07608,0.04063 0.13555,0.04063 0.05889,0 0.11145,-0.01275 0.157264,-0.03858 0.04581,-0.02583 0.07978,-0.06128 0.101251,-0.10594 0.01653,-0.03455 0.02468,-0.08554 0.02468,-0.152905 l 0,-0.05626 z m 0.512672,-0.449503 0.629058,0 0,0.776781 0.09755,0 0,0.38181 -0.12568,0 0,-0.255884 -0.710569,0 0,0.255884 -0.125927,0 0,-0.38181 0.08069,0 c 0.107585,-0.146243 0.159238,-0.405087 0.154879,-0.776781 z m 0.127407,0.126502 c -0.01127,0.293061 -0.05659,0.509876 -0.136044,0.650279 l 0.485365,0 0,-0.650279 -0.349321,0 z m 0.707937,0.402209 0,-0.15381 0.470395,0 0,0.15381 -0.470395,0 z m -7.6142499,2.31891 0,-1.24619 0.467681,0 c 0.095165,0 0.171494,0.01275 0.228988,0.03767 0.05774,0.02525 0.10265,0.06416 0.135139,0.116632 0.032571,0.05223 0.049104,0.107091 0.049104,0.164585 0,0.05305 -0.014559,0.103225 -0.043593,0.150273 -0.028706,0.04697 -0.072463,0.08505 -0.13078,0.114 0.075424,0.02204 0.133165,0.0598 0.173797,0.112931 0.04055,0.05338 0.060866,0.116303 0.060866,0.188849 0,0.05832 -0.01242,0.112602 -0.037095,0.162775 -0.024675,0.05017 -0.055108,0.08883 -0.091381,0.116057 -0.036273,0.02731 -0.08184,0.04762 -0.136373,0.06152 -0.054615,0.0139 -0.121567,0.02089 -0.201104,0.02089 l -0.475248,0 z m 0.165078,-0.722495 0.269537,0 c 0.072875,0 0.125351,-0.0049 0.157264,-0.01448 0.041784,-0.0125 0.07345,-0.03307 0.094589,-0.0621 0.021221,-0.02904 0.031913,-0.06531 0.031913,-0.108818 0,-0.04121 -0.00987,-0.07773 -0.029611,-0.109065 -0.019987,-0.03167 -0.048446,-0.05313 -0.084966,-0.06473 -0.036849,-0.0116 -0.1001,-0.01744 -0.189754,-0.01744 l -0.248975,0 0,0.376629 z m 0,0.575348 0.31017,0 c 0.053381,0 0.090805,-0.002 0.112273,-0.0058 0.038,-0.007 0.069667,-0.01826 0.095165,-0.03422 0.02558,-0.01571 0.046472,-0.0389 0.063004,-0.06909 0.016203,-0.03043 0.024675,-0.06531 0.024675,-0.105035 0,-0.04639 -0.011926,-0.08677 -0.035697,-0.121321 -0.023853,-0.03422 -0.056918,-0.05832 -0.099277,-0.07222 -0.04203,-0.01365 -0.102979,-0.02056 -0.182187,-0.02056 l -0.288126,0 0,0.4282 z m 0.926478,-0.30433 c 0,-0.167135 0.04639,-0.291005 0.13958,-0.371364 0.077481,-0.06679 0.17207,-0.100429 0.2837669,-0.100429 0.124199,0 0.225697,0.04063 0.30433,0.122143 0.07896,0.08126 0.118113,0.193537 0.118113,0.336901 0,0.116303 -0.01744,0.207767 -0.05223,0.274143 -0.03479,0.06679 -0.08554,0.118442 -0.152,0.15529 -0.06679,0.03685 -0.139334,0.05511 -0.218213,0.05511 -0.1262555,0 -0.2283295,-0.0403 -0.3063855,-0.121567 -0.078057,-0.08094 -0.116961,-0.197568 -0.116961,-0.350226 z m 0.157264,0 c 0,0.115728 0.025251,0.202256 0.075753,0.259667 0.050502,0.05774 0.114,0.08645 0.1903285,0.08645 0.076,0 0.139251,-0.02895 0.189754,-0.08669 0.05017,-0.05774 0.07542,-0.145996 0.07542,-0.264356 0,-0.111697 -0.02525,-0.196416 -0.076,-0.25391 -0.05075,-0.05741 -0.113753,-0.08612 -0.189178,-0.08612 -0.076329,0 -0.1398273,0.02871 -0.1903293,0.08587 -0.050502,0.05717 -0.075753,0.143611 -0.075753,0.259091 z m 0.9044349,-0.45123 0.710815,0 0,0.902708 -0.152329,0 0,-0.776205 -0.405334,0 0,0.44975 c 0,0.104788 -0.0035,0.174126 -0.01012,0.20752 -0.007,0.03331 -0.02558,0.06267 -0.05634,0.0876 -0.03043,0.02492 -0.07485,0.03742 -0.132589,0.03742 -0.0357,0 -0.07691,-0.0023 -0.123295,-0.007 l 0,-0.127325 0.06728,0 c 0.03167,0 0.05429,-0.0035 0.06794,-0.0099 0.01365,-0.0067 0.02262,-0.01686 0.02722,-0.03109 0.0047,-0.01415 0.0067,-0.06029 0.0067,-0.138676 l 0,-0.594841 z m 0.941201,0 0.152905,0 0,0.688608 0.42417,-0.688608 0.164832,0 0,0.902708 -0.152905,0 0,-0.684166 -0.42417,0.684166 -0.164832,0 0,-0.902708 z m 0.973197,0 0.153234,0 0,0.375806 0.42417,0 0,-0.375806 0.152905,0 0,0.902708 -0.152905,0 0,-0.400399 -0.42417,0 0,0.400399 -0.153234,0 0,-0.902708 z m 1.5497,0.571893 0.150273,0.01974 c -0.0162,0.103637 -0.05832,0.184819 -0.126173,0.243464 -0.06761,0.05864 -0.150849,0.08793 -0.24955,0.08793 -0.123295,0 -0.222819,-0.0403 -0.297667,-0.120992 -0.07518,-0.08069 -0.112931,-0.196416 -0.112931,-0.347347 0,-0.09747 0.01629,-0.182762 0.04853,-0.255884 0.03249,-0.07312 0.08151,-0.127983 0.147641,-0.164503 0.06588,-0.0366 0.137853,-0.05486 0.215334,-0.05486 0.09804,0 0.178403,0.02492 0.240503,0.0746 0.06243,0.0496 0.102403,0.11984 0.120169,0.211221 l -0.148875,0.02287 c -0.01423,-0.06062 -0.03915,-0.106186 -0.07518,-0.136948 -0.03594,-0.03043 -0.07945,-0.04581 -0.130533,-0.04581 -0.07723,0 -0.139909,0.02755 -0.188026,0.08299 -0.0482,0.05511 -0.0723,0.142459 -0.0723,0.26197 0,0.121321 0.02328,0.209494 0.06999,0.264685 0.04639,0.05478 0.107009,0.08233 0.181858,0.08233 0.06013,0 0.10997,-0.01851 0.150355,-0.05536 0.0403,-0.03685 0.06588,-0.09344 0.07658,-0.170096 z m 0.278832,-0.571893 0.152905,0 0,0.352611 0.193866,0 c 0.126502,0 0.223723,0.02459 0.29191,0.0737 0.06843,0.04902 0.102403,0.116632 0.102403,0.202749 0,0.07518 -0.02846,0.139909 -0.0853,0.19329 -0.05692,0.05363 -0.14797,0.08036 -0.273321,0.08036 l -0.382468,0 0,-0.902708 z m 0.152905,0.776781 0.160801,0 c 0.09689,0 0.165901,-0.01193 0.207438,-0.0357 0.04121,-0.02377 0.06177,-0.06095 0.06177,-0.111121 0,-0.03915 -0.01505,-0.07403 -0.04581,-0.104706 -0.03043,-0.03052 -0.09837,-0.0459 -0.203078,-0.0459 l -0.181117,0 0,0.297421 z m 0.755807,-0.776781 0.152905,0 0,0.390035 c 0.04877,0 0.08299,-0.0093 0.102485,-0.02788 0.01941,-0.01884 0.04812,-0.07312 0.08612,-0.163351 0.03019,-0.07139 0.05462,-0.11836 0.07312,-0.141061 0.01892,-0.02262 0.04039,-0.038 0.06473,-0.04581 0.02435,-0.0081 0.06358,-0.01193 0.117208,-0.01193 l 0.03076,0 0,0.126502 -0.04261,-8.22e-4 c -0.04006,0 -0.06588,0.0061 -0.07723,0.01801 -0.01184,0.01242 -0.03019,0.0496 -0.05453,0.111368 -0.02319,0.05889 -0.04442,0.09952 -0.06383,0.122143 -0.01917,0.02295 -0.04902,0.04359 -0.08908,0.0621 0.06555,0.01777 0.130286,0.07896 0.193784,0.183667 l 0.167464,0.279737 -0.168286,0 -0.163351,-0.279737 c -0.03339,-0.05601 -0.06267,-0.09311 -0.08735,-0.110792 -0.02492,-0.01801 -0.05486,-0.02673 -0.08941,-0.02673 l 0,0.417261 -0.152905,0 0,-0.902708 z m 0.762551,0 0.152905,0 0,0.688608 0.42417,-0.688608 0.164832,0 0,0.902708 -0.152905,0 0,-0.684166 -0.42417,0.684166 -0.164832,0 0,-0.902708 z m 0.972621,0 0.152905,0 0,0.688608 0.42417,-0.688608 0.164832,0 0,0.902708 -0.152905,0 0,-0.684166 -0.42417,0.684166 -0.164832,0 0,-0.902708 z m 0.531261,-0.341754 0.104459,0 c -0.0084,0.07082 -0.03422,0.125351 -0.07773,0.163022 -0.04327,0.03808 -0.101005,0.05717 -0.172974,0.05717 -0.07255,0 -0.130533,-0.01884 -0.173797,-0.05659 -0.04351,-0.03767 -0.06934,-0.0922 -0.07773,-0.163598 l 0.104459,0 c 0.0078,0.03858 0.02377,0.06728 0.0473,0.0862 0.02344,0.01908 0.05511,0.02838 0.09459,0.02838 0.04614,0 0.08061,-0.009 0.10413,-0.02756 0.02352,-0.01826 0.03948,-0.04729 0.04729,-0.08702 z"
   id="path25"
   style="fill:#2b2a29;fill-rule:nonzero" />
  <g
   id="_311071800">
   <path
   d="m 28.1344,43.9018 c 0.50601,0 0.905669,-0.399494 0.905669,-0.905751 0,-0.505516 -0.399659,-0.905915 -0.905669,-0.905915 -0.505763,0 -0.905915,0.400399 -0.905915,0.905915 0,0.506257 0.400152,0.905751 0.905915,0.905751 z"
   id="_311071752"
   style="fill:#fefefe;stroke:#2b2a29;stroke-width:0.127243" />
   <path
   d="m 28.1344,43.4806 c 0.274061,0 0.50601,-0.210563 0.50601,-0.484542 0,-0.273485 -0.231949,-0.505516 -0.50601,-0.505516 -0.274143,0 -0.484542,0.232031 -0.484542,0.505516 0,0.273979 0.210399,0.484542 0.484542,0.484542"
   id="_311071680"
   style="fill:none;stroke:#2b2a29;stroke-width:0.152741" />
  </g>
  <path
   d="m 29.5366,39.2784 0,0.884037 c 0.05568,-0.0058 0.09829,-0.03142 0.126914,-0.07789 0.02862,-0.04639 0.06852,-0.151836 0.119182,-0.317243 0.06613,-0.216156 0.134234,-0.354503 0.203901,-0.413971 0.06884,-0.05848 0.183009,-0.08751 0.343564,-0.08751 0.0073,0 0.02361,-4.94e-4 0.04869,-0.0015 l 0,0.310005 -0.04869,-0.0014 c -0.0681,0 -0.118031,0.01061 -0.149697,0.03191 -0.03183,0.02122 -0.05774,0.05363 -0.07707,0.09714 -0.01966,0.04359 -0.04869,0.132507 -0.08743,0.267975 -0.02048,0.07156 -0.04252,0.13152 -0.06613,0.179884 -0.02402,0.04787 -0.06613,0.09336 -0.126502,0.135879 0.0746,0.02755 0.136537,0.08126 0.185312,0.161048 0.04877,0.07978 0.102074,0.192961 0.160554,0.33904 l 0.226356,0.569672 -0.394313,0 -0.199624,-0.536772 c -0.0023,-0.0078 -0.0085,-0.02229 -0.01892,-0.044 -0.0063,-0.01406 -0.01974,-0.04697 -0.04104,-0.09772 -0.04219,-0.09919 -0.07699,-0.162529 -0.104048,-0.190083 -0.02747,-0.02755 -0.06119,-0.04113 -0.101005,-0.04113 l 0,0.909699 -0.327689,0 0,-0.909699 c -0.03866,0 -0.07156,0.01308 -0.09977,0.03965 -0.02788,0.02665 -0.06276,0.09048 -0.104131,0.191563 -0.02361,0.05659 -0.03751,0.089 -0.04219,0.09771 -0.0066,0.01398 -0.01316,0.02846 -0.01892,0.044 l -0.199624,0.536772 -0.394642,0 0.226684,-0.569672 c 0.05618,-0.140732 0.108818,-0.252429 0.158251,-0.335174 0.0496,-0.08266 0.112602,-0.13736 0.188767,-0.164914 -0.06029,-0.04252 -0.102485,-0.08752 -0.12642,-0.135386 -0.02361,-0.04738 -0.04606,-0.107831 -0.06736,-0.180377 -0.03784,-0.132507 -0.06654,-0.220516 -0.08554,-0.265014 -0.01933,-0.0445 -0.04524,-0.0774 -0.07732,-0.0992 -0.03216,-0.02171 -0.08431,-0.03282 -0.156689,-0.03282 -0.0093,0 -0.02361,4.12e-4 -0.04335,0.0014 l 0,-0.310005 c 0.02517,9.87e-4 0.04146,0.0015 0.04869,0.0015 0.162529,0 0.278256,0.02953 0.3471,0.089 0.0681,0.06046 0.134645,0.197814 0.200364,0.41249 0.05149,0.166394 0.09138,0.272252 0.119593,0.31823 0.02862,0.04548 0.07082,0.07106 0.126502,0.0769 l 0,-0.884037 0.327689,0 z m 1.04385,0.572551 0.305975,0 0,0.944985 0.489806,-0.944985 0.312637,0 0,1.50454 -0.306057,0 0,-0.961929 -0.496386,0.961929 -0.305975,0 0,-1.50454 z m 1.29217,0 1.08909,0 0,0.321602 -0.385347,0 0,1.18294 -0.318395,0 0,-1.18294 -0.385347,0 0,-0.321602 z m 1.17496,0.730802 c 0,-0.132096 0.02632,-0.260243 0.07814,-0.384031 0.05231,-0.123295 0.126173,-0.21813 0.221749,-0.282944 0.09549,-0.06522 0.202338,-0.09813 0.320286,-0.09813 0.181858,0 0.331144,0.07394 0.447611,0.221996 0.116468,0.14797 0.174537,0.334598 0.174537,0.56046 0,0.227342 -0.05881,0.415945 -0.1761,0.565806 -0.117537,0.149944 -0.265343,0.224464 -0.443663,0.224464 -0.11071,0 -0.215498,-0.03101 -0.315763,-0.09336 -0.100182,-0.06243 -0.176347,-0.15381 -0.228659,-0.274226 -0.05182,-0.120416 -0.07814,-0.266988 -0.07814,-0.440044 z m 0.326538,0.02122 c 0,0.149451 0.02829,0.263615 0.08513,0.342906 0.05651,0.07929 0.126502,0.118935 0.209658,0.118935 0.08324,0 0.152823,-0.03965 0.208918,-0.118935 0.05651,-0.07929 0.0848,-0.194442 0.0848,-0.345784 0,-0.146983 -0.02829,-0.260654 -0.0848,-0.339944 -0.05609,-0.07937 -0.12568,-0.119018 -0.208918,-0.119018 -0.08316,0 -0.153152,0.03965 -0.209658,0.119018 -0.05684,0.07929 -0.08513,0.193866 -0.08513,0.342823 z m 1.14362,-0.752023 0.394724,0 0.299066,1.04846 0.301369,-1.04846 0.393408,0 0,1.50454 -0.270771,0 0,-0.99047 -0.293637,0.99047 -0.272005,0 -0.280066,-0.99047 0,0.99047 -0.272087,0 0,-1.50454 z m 1.70005,0 0.305975,0 0,0.944985 0.489806,-0.944985 0.312637,0 0,1.50454 -0.306057,0 0,-0.961929 -0.496386,0.961929 -0.305975,0 0,-1.50454 z m 1.42566,0 0.297174,0 0,0.221009 c 0.03825,-0.07592 0.09048,-0.137277 0.156277,-0.184243 0.0658,-0.04738 0.138922,-0.07107 0.218953,-0.07107 0.139663,0 0.258516,0.06868 0.355572,0.205546 0.09747,0.136866 0.146243,0.327854 0.146243,0.572551 0,0.251031 -0.04919,0.446378 -0.146983,0.585711 -0.09829,0.139251 -0.217472,0.208918 -0.357135,0.208918 -0.06654,0 -0.126914,-0.01645 -0.181035,-0.04935 -0.05379,-0.03339 -0.11071,-0.08998 -0.170671,-0.17026 l 0,0.758357 -0.318395,0 0,-2.07717 z m 0.315351,0.726854 c 0,0.16878 0.02665,0.294048 0.08044,0.374326 0.05338,0.08077 0.118771,0.121403 0.196169,0.121403 0.07386,0 0.135386,-0.03726 0.184572,-0.111204 0.0491,-0.07403 0.07386,-0.19584 0.07386,-0.36462 0,-0.158169 -0.02558,-0.275213 -0.07625,-0.351624 -0.05067,-0.07641 -0.113342,-0.114576 -0.188026,-0.114576 -0.07773,0 -0.142377,0.03718 -0.193784,0.112684 -0.05149,0.07493 -0.07699,0.186135 -0.07699,0.333611 z"
   id="path30"
   style="fill:#2b2a29;fill-rule:nonzero" />
 </g>
</svg>